<?xml version="1.0" encoding="UTF-8" standalone="no"?>
<!-- Created with Inkscape (http://www.inkscape.org/) -->

<svg
   xmlns:dc="http://purl.org/dc/elements/1.1/"
   xmlns:cc="http://creativecommons.org/ns#"
   xmlns:rdf="http://www.w3.org/1999/02/22-rdf-syntax-ns#"
   xmlns:svg="http://www.w3.org/2000/svg"
   xmlns="http://www.w3.org/2000/svg"
   xmlns:sodipodi="http://sodipodi.sourceforge.net/DTD/sodipodi-0.dtd"
   xmlns:inkscape="http://www.inkscape.org/namespaces/inkscape"
   width="210mm"
   height="297mm"
   viewBox="0 0 744.09448819 1052.3622047"
   id="svg5295"
   version="1.1"
   inkscape:version="0.91 r13725"
   sodipodi:docname="access.svg">
  <defs
     id="defs5297" />
  <sodipodi:namedview
     id="base"
     pagecolor="#ffffff"
     bordercolor="#666666"
     borderopacity="1.0"
     inkscape:pageopacity="0.0"
     inkscape:pageshadow="2"
     inkscape:zoom="0.35"
     inkscape:cx="375"
     inkscape:cy="520"
     inkscape:document-units="px"
     inkscape:current-layer="layer1"
     showgrid="false"
     inkscape:window-width="1600"
     inkscape:window-height="847"
     inkscape:window-x="-8"
     inkscape:window-y="-8"
     inkscape:window-maximized="1" />
  <metadata
     id="metadata5300">
    <rdf:RDF>
      <cc:Work
         rdf:about="">
        <dc:format>image/svg+xml</dc:format>
        <dc:type
           rdf:resource="http://purl.org/dc/dcmitype/StillImage" />
        <dc:title></dc:title>
      </cc:Work>
    </rdf:RDF>
  </metadata>
  <g
     inkscape:label="Camada 1"
     inkscape:groupmode="layer"
     id="layer1">
    <g
       id="g5314"
       transform="matrix(4.3300492,0,0,4.0738917,-1584.7079,-1005.0232)">
      <path
         style="fill-opacity:1"
         d="m 378.92853,378.07648 0,-72.5 72.5,0 72.5,0 0,72.5 0,72.5 -72.5,0 -72.5,0 0,-72.5 z m 130,0 0,-57.5 -57.5,0 -57.5,0 0,57.5 0,57.5 57.5,0 57.5,0 0,-57.5 z m -103.05412,48.47186 c -1.43016,-2.04182 -1.94588,-5.93007 -1.94588,-14.67073 l 0,-11.89261 16.46756,-16.50153 c 14.4008,-14.4305 16.25866,-16.75326 14.80298,-18.50724 -1.26082,-1.5192 -1.31359,-2.3567 -0.21756,-3.45273 0.82348,-0.82348 1.44702,-5.26002 1.44702,-10.29563 l 0,-8.84861 7.84613,-7.77639 7.84613,-7.77639 18.13836,0 18.13836,0 5.89051,5.98044 5.89051,5.98043 0,20.16883 0,20.16883 -6.37542,6.97574 -6.37544,6.97573 -8.37456,0 c -4.67656,0 -9.01355,0.63897 -9.8216,1.44702 -1.09603,1.09603 -1.92037,1.05419 -3.39845,-0.17251 -1.6212,-1.34548 -2.36217,-1.24782 -4.37867,0.57709 -1.596,1.44436 -3.72836,2.00566 -6.22655,1.639 -3.4495,-0.50628 -3.79931,-0.23993 -3.79931,2.89286 0,2.83495 -0.61322,3.52104 -3.4375,3.84601 -2.69996,0.31067 -3.52236,1.13307 -3.83303,3.83303 -0.30727,2.6705 -1.05575,3.4375 -3.35447,3.4375 -2.29872,0 -3.0472,0.767 -3.35447,3.4375 -0.31067,2.69996 -1.13307,3.52236 -3.83303,3.83302 -2.71333,0.3122 -3.4375,1.04464 -3.4375,3.47674 0,1.69466 -0.84375,3.40498 -1.875,3.8007 -1.03125,0.39574 -1.875,1.50308 -1.875,2.46078 0,1.33238 -2.18472,1.74126 -9.30412,1.74126 -8.19759,0 -9.53554,-0.3304 -11.25,-2.77814 z m 49.54285,-38.49331 c 3.22505,0.0118 6.21137,-0.54105 6.63627,-1.22855 0.4249,-0.6875 5.11633,-1.25 10.4254,-1.25 l 9.65286,0 7.2153,-7.29139 c 6.42334,-6.49106 6.99512,-7.47415 5.20914,-8.95636 -1.73864,-1.44295 -2.87274,-0.82246 -8.50444,4.65288 l -6.49826,6.31786 -15,0.78702 -15,0.78702 -17.11448,17.74889 c -13.96902,14.48683 -16.84304,18.07595 -15.63758,19.52844 1.21868,1.46841 4.21093,-1.09625 17.11448,-14.66885 l 15.63758,-16.44841 5.86373,0.0215 z m 32.26127,-39.97855 0,-6.25 -5.625,0 -5.625,0 0,6.25 0,6.25 5.625,0 5.625,0 0,-6.25 z"
         id="path5328"
         inkscape:connector-curvature="0" />
      <path
         style="fill-opacity:1"
         d="m 379.50616,449.02423 c -0.33097,-0.86501 -0.45571,-33.354 -0.2772,-72.19775 l 0.32457,-70.625 71.875,0 71.875,0 0,71.875 0,71.875 -71.5978,0.32275 c -56.61299,0.2552 -71.72374,-0.006 -72.19957,-1.25 z m 129.42237,-70.94775 0,-57.5 -57.5,0 -57.5,0 0,57.5 0,57.5 57.5,0 57.5,0 0,-57.5 z M 408.6076,428.20155 c -2.9096,-0.936 -3.39078,-3.24426 -3.40993,-16.35769 l -0.0191,-13.10762 15.84227,-15.87751 c 13.20768,-13.23707 15.58816,-16.18369 14.3143,-17.7186 -1.03687,-1.24935 -1.1067,-2.10143 -0.21727,-2.65114 0.73118,-0.45189 1.3107,-5.07802 1.3107,-10.46291 l 0,-9.65286 7.321,-7.2446 7.32099,-7.24461 18.98636,-0.10774 18.98635,-0.10774 5.56765,5.46424 5.56765,5.46423 -0.0176,20.05224 -0.0177,20.05224 -6.33587,7.1875 -6.33587,7.1875 -8.39645,0 c -4.69313,0 -9.03467,0.63822 -9.84348,1.44702 -1.09601,1.09603 -1.92751,1.04824 -3.42796,-0.19702 -1.50045,-1.24526 -2.33195,-1.29305 -3.42798,-0.19702 -0.79586,0.79586 -3.58452,1.44702 -6.19702,1.44702 -4.44444,0 -4.75,0.24123 -4.75,3.75 0,3.33333 -0.41667,3.75 -3.75,3.75 -3.31446,0 -3.75,0.42589 -3.75,3.66698 0,3.07111 -0.55857,3.73123 -3.4375,4.0625 -1.89062,0.21753 -3.50781,1.09864 -3.59375,1.95802 -0.0859,0.85937 -0.22656,2.40625 -0.3125,3.4375 -0.0937,1.125 -1.40625,1.875 -3.28125,1.875 -2.5,0 -3.125,0.625 -3.125,3.125 0,1.94445 -0.70833,3.125 -1.875,3.125 -1.03125,0 -1.875,0.84375 -1.875,1.875 0,1.03125 -0.42187,1.90694 -0.9375,1.94596 -5.48815,0.41545 -15.65887,0.44804 -16.88343,0.0541 z m 19.41265,-17.31257 c 5.1541,-5.32813 11.98857,-12.58982 15.18772,-16.1371 6.38988,-7.08523 6.25422,-7.04542 29.59813,-8.68623 l 9.50258,-0.66793 7.12686,-7.20201 c 6.34188,-6.40874 6.90614,-7.38519 5.12297,-8.8651 -1.73334,-1.43854 -2.79722,-0.8882 -7.87944,4.07601 -5.62256,5.492 -6.25228,5.7664 -14.62554,6.37318 -23.12772,1.67596 -22.30168,1.31595 -36.40495,15.86591 -18.50591,19.09204 -20.64927,21.75155 -18.92212,23.4787 0.79864,0.79863 1.55796,1.45207 1.68738,1.45207 0.12942,0 4.4523,-4.35938 9.60641,-9.6875 z m 59.65828,-62.8125 0,-6.25 -5.625,0 -5.625,0 0,6.25 0,6.25 5.625,0 5.625,0 0,-6.25 z"
         id="path5326"
         inkscape:connector-curvature="0" />
      <path
         style="fill-opacity:1"
         d="m 380.17853,378.07648 0,-71.25 71.25,0 71.25,0 0,71.25 0,71.25 -71.25,0 -71.25,0 0,-71.25 z m 128.75,0 0,-57.5 -57.5,0 -57.5,0 0,57.5 0,57.5 57.5,0 57.5,0 0,-57.5 z m -102.99126,48.02276 c -0.41731,-1.08747 -0.75874,-7.5892 -0.75874,-14.44829 l 0,-12.47105 15.26813,-15.11893 c 11.22974,-11.12001 15.31087,-15.97731 15.42972,-18.36421 0.0889,-1.78491 0.24947,-7.64641 0.35687,-13.02558 l 0.19528,-9.78029 7.06527,-7.40721 7.06528,-7.4072 19.54947,0 19.54945,0 5.26027,5.35982 5.26026,5.35981 0,19.73888 0,19.73888 -6.48819,7.45963 -6.48819,7.45963 -7.83586,-0.25367 c -4.87475,-0.15781 -8.56365,0.35035 -9.7618,1.34473 -1.56393,1.29794 -2.28837,1.29763 -3.85394,-0.002 -1.46032,-1.21196 -2.27897,-1.24908 -3.375,-0.15305 -0.79586,0.79581 -3.58452,1.44697 -6.19702,1.44697 -4.44444,0 -4.75,0.24123 -4.75,3.75 0,3.33333 -0.41667,3.75 -3.75,3.75 -3.33333,0 -3.75,0.41666 -3.75,3.75 0,3.33334 -0.41667,3.75 -3.75,3.75 -3.33333,0 -3.75,0.41666 -3.75,3.75 0,3.16666 -0.48611,3.75 -3.125,3.75 -2.5,0 -3.125,0.625 -3.125,3.125 0,1.94445 -0.70833,3.125 -1.875,3.125 -1.03125,0 -1.875,0.84375 -1.875,1.875 0,2.82763 -19.40412,2.73081 -20.49126,-0.10225 z m 26.87263,-19.8676 c 7.65815,-7.88965 14.55834,-15.15759 15.33377,-16.15096 1.42471,-1.82516 7.43975,-2.81557 24.53486,-4.0398 9.22376,-0.66054 9.49599,-0.77955 16.875,-7.37717 7.15156,-6.39427 7.39842,-6.80836 5.31369,-8.91319 -2.08729,-2.1074 -2.45531,-1.94462 -8.125,3.59391 -5.68261,5.55114 -6.31599,5.82987 -14.68869,6.46415 -4.8125,0.36456 -12.21243,1.10836 -16.44428,1.65287 l -7.69429,0.99003 -16.43591,17.29034 c -13.37187,14.06701 -16.16174,17.62072 -14.96517,19.06251 0.80892,0.97467 1.67357,1.77215 1.92144,1.77215 0.24787,0 6.71643,-6.45518 14.37458,-14.34484 z m 54.86863,-58.15516 0,-6.25 -5.625,0 -5.625,0 0,6.25 0,6.25 5.625,0 5.625,0 0,-6.25 z"
         id="path5324"
         inkscape:connector-curvature="0" />
      <path
         style="fill-opacity:1"
         d="m 380.17853,378.07648 0,-71.25 71.25,0 71.25,0 0,71.25 0,71.25 -71.25,0 -71.25,0 0,-71.25 z m 128.44999,-0.3125 -0.32499,-57.8125 -56.875,0 -56.875,0 -0.32498,57.8125 -0.32499,57.8125 57.52497,0 57.52496,0 -0.32497,-57.8125 z m -101.94999,48.8125 c -0.9674,-0.9674 -1.5,-5.95461 -1.5,-14.04574 l 0,-12.54574 16.46756,-16.50153 c 13.87019,-13.89879 16.22241,-16.79693 14.91326,-18.37436 -1.14177,-1.37575 -1.19951,-2.53576 -0.21756,-4.37055 0.73521,-1.37375 1.33674,-6.14105 1.33674,-10.594 l 0,-8.09627 6.82043,-6.98591 6.82042,-6.9859 19.16932,0 19.16931,0 5.01953,5.3125 5.01954,5.3125 -0.15624,20.13031 -0.15623,20.1303 -5.42372,6.4322 c -5.6384,6.6868 -7.03876,7.19097 -17.94341,6.4601 -1.94483,-0.13035 -4.60615,0.73143 -5.91405,1.91506 -1.97393,1.78638 -2.70959,1.87687 -4.32943,0.53252 -1.47808,-1.2267 -2.30242,-1.26854 -3.39845,-0.17251 -0.79586,0.79586 -3.58452,1.44702 -6.19702,1.44702 -4.44444,0 -4.75,0.24123 -4.75,3.75 0,3.33333 -0.41667,3.75 -3.75,3.75 -3.33333,0 -3.75,0.41666 -3.75,3.75 0,3.33334 -0.41667,3.75 -3.75,3.75 -3.16667,0 -3.75,0.48611 -3.75,3.125 0,2.5 -0.625,3.125 -3.125,3.125 -2.91212,0 -3.97327,2.12763 -3.27303,6.5625 0.0814,0.51562 -0.69572,0.9375 -1.72697,0.9375 -1.03125,0 -1.875,0.84375 -1.875,1.875 0,1.49544 -1.84722,1.875 -9.125,1.875 -5.43056,0 -9.73231,-0.6073 -10.625,-1.5 z m 28.37035,-22.29576 15.75465,-16.29577 15.42689,-0.77748 15.42688,-0.77748 7.69812,-7.23433 c 7.34117,-6.8989 7.59673,-7.33676 5.5118,-9.44343 -2.0877,-2.10945 -2.45614,-1.94334 -8.16794,3.68257 l -5.98162,5.89168 -8.94579,0 c -4.92019,0 -9.29344,0.5625 -9.71834,1.25 -0.4249,0.6875 -3.73991,1.25 -7.36668,1.25 -6.35136,0 -6.81745,0.24162 -12.65906,6.5625 -3.33571,3.60937 -10.81119,11.48327 -16.61219,17.49754 -8.86162,9.18741 -10.29825,11.23508 -8.98911,12.8125 0.85698,1.0326 1.85281,1.87746 2.21295,1.87746 0.36013,0 7.74438,-7.3331 16.40944,-16.29576 z m 52.62965,-56.20424 0,-6.25 -5.625,0 -5.625,0 0,6.25 0,6.25 5.625,0 5.625,0 0,-6.25 z"
         id="path5322"
         inkscape:connector-curvature="0" />
      <path
         style="fill-opacity:1"
         d="m 380.17853,378.07648 0,-71.25 71.25,0 71.25,0 0,71.25 0,71.25 -71.25,0 -71.25,0 0,-71.25 z m 129.64153,2.5 c 0.14657,-30.59375 -0.006,-56.89623 -0.33945,-58.44997 l -0.60597,-2.82496 -57.78555,0.32496 -57.78556,0.32497 -0.14106,57.5 c -0.0776,31.625 0.0538,57.85312 0.29186,58.28474 0.2381,0.4316 26.45783,0.71285 58.26606,0.625 l 57.83314,-0.15974 0.26653,-55.625 z m -103.14153,46 c -0.9674,-0.9674 -1.5,-5.95461 -1.5,-14.04574 l 0,-12.54574 16.46756,-16.50153 c 14.4008,-14.4305 16.25866,-16.75326 14.80298,-18.50724 -1.26082,-1.5192 -1.31359,-2.3567 -0.21756,-3.45273 0.82357,-0.82357 1.44702,-5.26075 1.44702,-10.29865 l 0,-8.85163 7.22375,-7.14837 7.22374,-7.14837 18.59327,0 18.59327,0 4.80798,5.20799 4.80799,5.20798 -6.7e-4,20.72952 -6.9e-4,20.72951 -5.77265,5.9375 c -5.66053,5.82219 -5.92293,5.9375 -13.5104,5.9375 -4.7044,0 -8.68758,0.69452 -10.16063,1.77164 -1.75677,1.28458 -2.86798,1.40224 -4.04189,0.42798 -1.16126,-0.96375 -2.02816,-0.93453 -3.06605,0.10335 -0.79586,0.79587 -3.58452,1.44703 -6.19702,1.44703 -4.44444,0 -4.75,0.24123 -4.75,3.75 0,3.33333 -0.41667,3.75 -3.75,3.75 -3.16667,0 -3.75,0.48611 -3.75,3.125 0,1.875 -0.75,3.1875 -1.875,3.28125 -1.03125,0.0859 -2.57812,0.22656 -3.4375,0.3125 -0.85937,0.0859 -1.7372,1.66905 -1.95072,3.51803 -0.30003,2.59811 -1.15189,3.44997 -3.75,3.75 -2.61931,0.30248 -3.44913,1.14742 -3.75731,3.82572 -0.21754,1.89062 -0.92066,3.4375 -1.5625,3.4375 -0.64183,0 -1.16697,0.84375 -1.16697,1.875 0,1.49544 -1.84722,1.875 -9.125,1.875 -5.43056,0 -9.73231,-0.6073 -10.625,-1.5 z m 28.5,-22.25651 15.625,-16.28585 15.84791,-0.78953 15.8479,-0.78954 7.08909,-7.16384 c 6.36851,-6.43566 6.94102,-7.44049 5.63248,-9.88555 -1.44397,-2.69807 -1.50204,-2.68117 -6.68701,1.94612 -2.87669,2.5673 -5.6802,5.41187 -6.22998,6.32126 -0.68434,1.13196 -3.91356,1.65344 -10.23873,1.65344 -5.08152,0 -9.58676,0.5625 -10.01166,1.25 -0.4249,0.6875 -3.7687,1.25 -7.43068,1.25 l -6.65814,0 -16.40651,17.36278 c -11.56415,12.23816 -16.17862,17.95668 -15.63436,19.37499 0.42469,1.10673 1.41511,2.01883 2.20093,2.02691 0.78582,0.008 8.46001,-7.31397 17.05376,-16.27119 z m 52.5,-56.24349 0,-6.25 -5.625,0 -5.625,0 0,6.25 0,6.25 5.625,0 5.625,0 0,-6.25 z"
         id="path5320"
         inkscape:connector-curvature="0" />
      <path
         style="fill-opacity:1"
         d="m 380.17853,378.07648 0,-71.25 71.25,0 71.25,0 0,71.25 0,71.25 -71.25,0 -71.25,0 0,-71.25 z m 129.69986,-0.3125 0.32487,-58.4375 -58.76237,0 -58.76236,0 0,57.91667 c 0,31.85417 0.38055,58.29722 0.84567,58.76233 0.46512,0.46512 26.762,0.6995 58.4375,0.52084 l 57.59183,-0.32484 0.32486,-58.4375 z m -103.19986,48.8125 c -0.9674,-0.9674 -1.5,-5.95461 -1.5,-14.04574 l 0,-12.54574 16.46756,-16.50153 c 14.4008,-14.4305 16.25866,-16.75326 14.80298,-18.50724 -1.26082,-1.5192 -1.31359,-2.3567 -0.21756,-3.45273 0.82357,-0.82357 1.44702,-5.26075 1.44702,-10.29865 l 0,-8.85163 7.22375,-7.14837 7.22374,-7.14837 18.141,0 18.14099,0 5.26026,5.35982 5.26026,5.35981 0,20.12999 0,20.13 -5.64947,6.28357 c -5.60175,6.23049 -5.72584,6.28949 -14.6875,6.98334 -4.97092,0.38487 -10.86615,0.71218 -13.10053,0.72736 -2.23437,0.0152 -4.0625,0.58977 -4.0625,1.27686 0,0.68709 -2.25,1.24925 -5,1.24925 -4.72222,0 -5,0.20833 -5,3.75 0,3.45238 -0.34722,3.75 -4.375,3.75 -3.83333,0 -4.375,0.3869 -4.375,3.125 0,2.5 -0.625,3.125 -3.125,3.125 -2.63889,0 -3.125,0.58334 -3.125,3.75 0,3.33334 -0.41667,3.75 -3.75,3.75 -3.33333,0 -3.75,0.41666 -3.75,3.75 0,2.61096 -0.61014,3.75 -2.00874,3.75 -1.27199,0 -1.74484,0.6877 -1.28923,1.875 0.5989,1.56069 -0.80357,1.875 -8.36626,1.875 -5.40004,0 -9.69426,-0.60849 -10.58577,-1.5 z m 19.46769,-12.5625 c 4.08401,-4.29688 11.30264,-11.88478 16.04139,-16.86201 l 8.61592,-9.04951 15.625,-0.78624 15.625,-0.78624 7.1875,-7.00012 c 7.50338,-7.30776 8.30856,-8.96687 5.48789,-11.30783 -1.33163,-1.10514 -3.1585,-0.063 -8.4375,4.81345 -6.66996,6.16125 -6.82221,6.22434 -15.10162,6.2575 -4.60005,0.0184 -8.71137,0.596 -9.13627,1.2835 -0.4249,0.6875 -3.69247,1.23052 -7.26127,1.20671 l -6.48873,-0.0433 -17.09306,17.8558 c -15.89605,16.60536 -16.9548,18.00898 -15.11876,20.04329 1.08586,1.20312 2.12161,2.1875 2.30166,2.1875 0.18006,0 3.66884,-3.51563 7.75285,-7.8125 z m 61.53231,-65.3125 0,-6.875 -5.625,0 -5.625,0 0,6.875 0,6.875 5.625,0 5.625,0 0,-6.875 z"
         id="path5318"
         inkscape:connector-curvature="0" />
      <path
         style="fill-opacity:1"
         d="m 450.42222,399.95148 c -0.0255,-2.0625 0.23383,-3.05758 0.57623,-2.21129 0.34241,0.84629 0.36325,2.53379 0.0463,3.75 -0.31692,1.21621 -0.59707,0.52379 -0.62254,-1.53871 z m 1.94381,-11.50717 c 1.54688,-0.29794 4.07813,-0.29794 5.625,0 1.54688,0.29794 0.28125,0.54171 -2.8125,0.54171 -3.09375,0 -4.35937,-0.24377 -2.8125,-0.54171 z"
         id="path5316"
         inkscape:connector-curvature="0" />
    </g>
  </g>
</svg>
