<?xml version="1.0" encoding="UTF-8" standalone="no"?>
<!-- Created with Inkscape (http://www.inkscape.org/) -->

<svg
   xmlns:dc="http://purl.org/dc/elements/1.1/"
   xmlns:cc="http://creativecommons.org/ns#"
   xmlns:rdf="http://www.w3.org/1999/02/22-rdf-syntax-ns#"
   xmlns:svg="http://www.w3.org/2000/svg"
   xmlns="http://www.w3.org/2000/svg"
   xmlns:sodipodi="http://sodipodi.sourceforge.net/DTD/sodipodi-0.dtd"
   xmlns:inkscape="http://www.inkscape.org/namespaces/inkscape"
   width="210mm"
   height="297mm"
   viewBox="0 0 744.09448819 1052.3622047"
   id="svg2"
   version="1.1"
   inkscape:version="0.91 r13725"
   sodipodi:docname="actionscript.svg">
  <defs
     id="defs4" />
  <sodipodi:namedview
     id="base"
     pagecolor="#ffffff"
     bordercolor="#666666"
     borderopacity="1.0"
     inkscape:pageopacity="0.0"
     inkscape:pageshadow="2"
     inkscape:zoom="0.35"
     inkscape:cx="375"
     inkscape:cy="520"
     inkscape:document-units="px"
     inkscape:current-layer="layer1"
     showgrid="false"
     inkscape:window-width="1600"
     inkscape:window-height="847"
     inkscape:window-x="-8"
     inkscape:window-y="-8"
     inkscape:window-maximized="1" />
  <metadata
     id="metadata7">
    <rdf:RDF>
      <cc:Work
         rdf:about="">
        <dc:format>image/svg+xml</dc:format>
        <dc:type
           rdf:resource="http://purl.org/dc/dcmitype/StillImage" />
        <dc:title></dc:title>
      </cc:Work>
    </rdf:RDF>
  </metadata>
  <g
     inkscape:label="Camada 1"
     inkscape:groupmode="layer"
     id="layer1">
    <path
       style="fill:#000000"
       d="M 82.460211,829.08807 C 69.015405,821.92632 62.817342,815.17982 57.304749,801.70602 53.130805,791.50409 52.491767,758.91191 52.507163,556.98948 c 0,-151.8464 1.151885,-236.46956 3.275957,-243.06476 1.792189,-5.56472 6.922167,-13.87244 11.39997,-18.46158 16.839637,-17.25795 -1.004749,-16.31022 307.09728,-16.31022 302.97028,0 289.16129,-0.63822 305.12161,14.10198 16.94917,15.65371 16.66927,11.23024 16.66927,263.39649 0,252.16625 0.2799,247.74277 -16.66927,263.39647 -15.96234,14.74199 -2.09378,14.10278 -305.75358,14.09181 -268.75899,-0.008 -282.159371,-0.24216 -291.188189,-5.0516 z M 188.14644,667.38113 c 0,-1.94386 -4.83369,-5.04166 -10.74177,-6.88394 -16.78234,-5.23327 -21.62258,-14.25451 -23.71182,-44.19269 -1.16349,-16.67415 -3.46803,-27.881 -6.34799,-30.87123 -5.05149,-5.24509 -28.60431,-16.32176 -28.60431,-13.45239 0,1.01049 -2.83933,-0.37862 -6.30962,-3.08691 -9.52173,-7.43097 -7.77725,-10.51598 8.82212,-15.59998 25.62642,-7.84892 29.7259,-13.79446 32.48346,-47.10936 1.30786,-15.80136 4.07476,-30.49301 6.14886,-32.64814 2.0741,-2.15513 9.2812,-5.34207 16.01609,-7.08213 12.19601,-3.15106 15.50983,-6.35167 8.62552,-8.33061 -7.66115,-2.20221 -40.80334,2.93253 -50.68623,7.8529 -16.81516,8.37159 -21.54106,19.80709 -20.97345,50.75142 0.57216,31.21022 -2.53319,35.94399 -25.816464,39.35505 -11.00752,1.6126 -14.265303,3.31781 -15.025236,7.86456 -0.776844,4.64962 1.107719,6.16672 9.464441,7.61945 19.218359,3.34087 21.521119,4.47335 26.765679,13.16294 3.87487,6.42001 5.08582,14.95939 4.69891,33.13422 -0.56484,26.53484 2.23588,34.28215 15.45176,42.73985 12.92565,8.27198 59.74005,13.58267 59.74005,6.77699 z m 424.88712,-4.6841 c 19.06517,-7.09687 23.09625,-15.63174 23.09625,-48.90215 0,-25.16572 0.61784,-27.99725 7.38075,-33.8294 4.05962,-3.50068 13.28732,-7.2254 20.50629,-8.27717 11.07566,-1.61367 13.12553,-2.91792 13.12553,-8.35132 0,-5.21076 -2.11625,-6.78143 -11.09459,-8.23393 -6.10216,-0.9872 -15.32987,-5.20662 -20.50628,-9.37651 -9.27112,-7.46843 -9.41194,-8.00204 -9.42355,-35.73628 -0.0253,-43.10696 -8.88724,-51.22811 -55.98606,-51.26434 -21.4396,-0.0174 -25.67186,3.16624 -9.52149,7.16054 17.19853,4.25358 24.48716,16.94759 24.61866,42.87707 0.0631,12.66313 1.83281,24.71681 4.15626,28.32758 4.76478,7.40485 20.30968,16.79628 27.84338,16.82176 6.28413,0.0217 15.21073,7.11367 15.21073,12.08522 0,1.93431 -6.14708,5.54138 -13.66009,8.01568 -7.51299,2.47435 -17.64878,8.08909 -22.52384,12.47721 -8.19519,7.37654 -9.02428,10.14432 -10.98909,36.68797 -2.27803,30.7775 -4.49397,34.62182 -22.23285,38.57114 -11.02973,2.45558 -13.00793,3.70152 -10.79022,6.79587 2.72929,3.80827 34.75392,0.12037 50.79021,-5.84894 z m -110.5676,-30.24366 c 28.08591,-6.09866 45.13653,-29.29321 35.80889,-48.71216 -5.0848,-10.58628 -15.61935,-16.77121 -40.95679,-24.04613 -25.8523,-7.42275 -35.49164,-13.67695 -35.49164,-23.02769 0,-10.50633 6.22583,-15.38345 19.63733,-15.38345 14.55705,0 30.91741,9.12807 37.67905,21.02266 7.92742,13.94532 12.8782,11.26726 12.8782,-6.96638 0,-16.92832 -1.92141,-21.04644 -7.84236,-16.80882 -2.38756,1.70881 -7.49508,1.70048 -14.46594,-0.0238 -40.8094,-10.09298 -85.30059,6.57778 -86.08147,32.25446 -0.61607,20.26091 9.60957,28.80909 46.08273,38.52395 23.38473,6.22857 31.04537,12.22719 31.45449,24.62926 0.82126,24.9102 -39.16889,20.36565 -63.45717,-7.21139 -5.88889,-6.68636 -12.27751,-11.71096 -14.19665,-11.16576 -1.91913,0.54521 -3.91525,7.93405 -4.43567,16.41962 -0.52041,8.4856 -1.67835,15.42837 -2.57356,15.42837 -3.3436,0 -15.63248,-6.29597 -21.95346,-11.2477 -3.59952,-2.81964 -21.34521,-36.90233 -39.43516,-75.73932 -30.6509,-65.80366 -33.492,-70.72854 -41.71823,-72.3146 -14.22745,-2.74303 -20.82328,3.64857 -35.32128,34.22679 -59.95962,126.46335 -52.89789,115.3447 -78.88899,124.20736 -7.50795,2.56012 22.49027,4.28462 52.84311,3.03779 l 19.71757,-0.80996 -11.04184,-4.33958 c -19.32916,-7.59662 -20.9467,-11.17946 -13.77517,-30.5136 l 6.24577,-16.83771 34.27591,0 34.27589,0 8.92383,18.77737 c 11.04892,23.2485 11.07011,25.6029 0.24734,27.64777 -21.561,4.07413 -14.35036,5.25249 40.22386,6.57351 32.10034,0.77707 59.22163,0.40545 60.26979,-0.82573 1.0479,-1.23122 8.85619,-0.39828 17.35147,1.85091 18.96068,5.02011 35.03432,5.43118 53.7194,1.37384 z M 266.71262,564.2504 c -4.50735,-2.6519 -3.96345,-5.32035 5.1749,-25.39384 16.10495,-35.3766 14.49044,-35.08062 29.32562,-5.37621 7.21923,14.45515 13.12579,28.03062 13.12579,30.1677 0,2.99916 -4.85815,3.84911 -21.29498,3.72564 -11.71218,-0.0879 -23.5614,-1.49346 -26.33133,-3.12329 z"
       id="path3347"
       inkscape:connector-curvature="0" />
  </g>
</svg>
