<?xml version="1.0" encoding="UTF-8" standalone="no"?>
<!-- Created with Inkscape (http://www.inkscape.org/) -->

<svg
   xmlns:dc="http://purl.org/dc/elements/1.1/"
   xmlns:cc="http://creativecommons.org/ns#"
   xmlns:rdf="http://www.w3.org/1999/02/22-rdf-syntax-ns#"
   xmlns:svg="http://www.w3.org/2000/svg"
   xmlns="http://www.w3.org/2000/svg"
   xmlns:sodipodi="http://sodipodi.sourceforge.net/DTD/sodipodi-0.dtd"
   xmlns:inkscape="http://www.inkscape.org/namespaces/inkscape"
   width="210mm"
   height="297mm"
   viewBox="0 0 744.09448819 1052.3622047"
   id="svg3391"
   version="1.1"
   inkscape:version="0.91 r13725"
   sodipodi:docname="adobeair.svg">
  <defs
     id="defs3393" />
  <sodipodi:namedview
     id="base"
     pagecolor="#ffffff"
     bordercolor="#666666"
     borderopacity="1.0"
     inkscape:pageopacity="0.0"
     inkscape:pageshadow="2"
     inkscape:zoom="0.35"
     inkscape:cx="375"
     inkscape:cy="520"
     inkscape:document-units="px"
     inkscape:current-layer="layer1"
     showgrid="false"
     inkscape:window-width="1600"
     inkscape:window-height="847"
     inkscape:window-x="-8"
     inkscape:window-y="-8"
     inkscape:window-maximized="1" />
  <metadata
     id="metadata3396">
    <rdf:RDF>
      <cc:Work
         rdf:about="">
        <dc:format>image/svg+xml</dc:format>
        <dc:type
           rdf:resource="http://purl.org/dc/dcmitype/StillImage" />
        <dc:title></dc:title>
      </cc:Work>
    </rdf:RDF>
  </metadata>
  <g
     inkscape:label="Camada 1"
     inkscape:groupmode="layer"
     id="layer1">
    <path
       style="fill:#000000"
       d="m 536.49546,823.29021 c -10.21473,-2.62429 -36.803,-19.04952 -59.08498,-36.50068 -51.53276,-40.36011 -79.29702,-54.7864 -128.99735,-67.02674 -48.51309,-11.94795 -86.56711,-12.40333 -141.7492,-1.69631 -34.74387,6.74143 -46.54162,7.11726 -69.32123,2.20828 C 38.935636,699.06799 8.0012831,582.07443 84.195193,519.27118 95.50171,509.95173 110.95718,500.8416 118.54062,499.02651 c 52.63847,-12.59909 121.42745,-49.60939 153.75477,-82.72416 26.9368,-27.59303 57.66531,-77.92745 69.89341,-114.48802 24.9828,-74.69564 86.4204,-110.53149 156.07001,-91.03382 21.21149,5.93792 34.56488,13.89178 51.51206,30.68278 30.61583,30.33385 36.15276,48.107 30.60919,98.25327 -2.43786,22.05197 -4.46573,64.66821 -4.50636,94.70273 -0.0838,61.56529 6.80779,87.16327 36.05655,133.93636 9.79522,15.66394 16.30919,30.81741 14.47554,33.6744 -1.84921,2.88125 -0.87621,3.73186 2.185,1.91002 6.64475,-3.95456 39.1143,31.23731 54.2891,58.84079 14.90281,27.10871 14.90358,72.1764 10e-4,99.28764 -29.12816,52.99335 -85.93608,76.75157 -146.38611,61.22171 z M 461.46671,648.6043 c 39.47343,-22.27606 60.15481,-57.26765 59.97805,-101.47888 -0.26768,-66.93159 -52.78016,-116.1812 -123.87843,-116.1812 -66.25706,0 -119.4331,51.14219 -119.2697,114.70788 0.0825,32.08317 6.42767,50.51799 25.78341,74.9095 7.5931,9.56852 13.17618,19.2389 12.40696,21.48962 -0.7693,2.25078 1.08035,2.61695 4.11027,0.81373 3.0299,-1.80322 8.86514,-0.59632 12.96723,2.682 28.46589,22.74946 90.38475,24.22955 127.90221,3.0573 z"
       id="path3410"
       inkscape:connector-curvature="0" />
  </g>
</svg>
