<?xml version="1.0" encoding="UTF-8" standalone="no"?>
<!-- Created with Inkscape (http://www.inkscape.org/) -->

<svg
   xmlns:dc="http://purl.org/dc/elements/1.1/"
   xmlns:cc="http://creativecommons.org/ns#"
   xmlns:rdf="http://www.w3.org/1999/02/22-rdf-syntax-ns#"
   xmlns:svg="http://www.w3.org/2000/svg"
   xmlns="http://www.w3.org/2000/svg"
   xmlns:sodipodi="http://sodipodi.sourceforge.net/DTD/sodipodi-0.dtd"
   xmlns:inkscape="http://www.inkscape.org/namespaces/inkscape"
   width="210mm"
   height="297mm"
   viewBox="0 0 744.09448819 1052.3622047"
   id="svg5258"
   version="1.1"
   inkscape:version="0.91 r13725"
   sodipodi:docname="android.svg">
  <defs
     id="defs5260" />
  <sodipodi:namedview
     id="base"
     pagecolor="#ffffff"
     bordercolor="#666666"
     borderopacity="1.0"
     inkscape:pageopacity="0.0"
     inkscape:pageshadow="2"
     inkscape:zoom="0.5"
     inkscape:cx="612.8567"
     inkscape:cy="595.82583"
     inkscape:document-units="px"
     inkscape:current-layer="layer1"
     showgrid="false"
     inkscape:window-width="1600"
     inkscape:window-height="847"
     inkscape:window-x="-8"
     inkscape:window-y="-8"
     inkscape:window-maximized="1" />
  <metadata
     id="metadata5263">
    <rdf:RDF>
      <cc:Work
         rdf:about="">
        <dc:format>image/svg+xml</dc:format>
        <dc:type
           rdf:resource="http://purl.org/dc/dcmitype/StillImage" />
        <dc:title></dc:title>
      </cc:Work>
    </rdf:RDF>
  </metadata>
  <g
     inkscape:label="Camada 1"
     inkscape:groupmode="layer"
     id="layer1">
    <g
       id="g5277"
       transform="matrix(2.8298649,0,0,3.1275365,-3749.5752,-1174.9662)">
      <path
         style="fill-opacity:1"
         d="m 1419.9108,687.6049 c -8.512,-3.62009 -9.3269,-6.08675 -9.7698,-29.57304 l -0.3948,-20.9375 -5.8635,0 c -12.3154,0 -20.9325,-5.319 -22.1899,-13.69696 -0.3655,-2.43543 -0.7753,-28.47509 -0.9108,-57.86593 l -0.2462,-53.43789 73.75,6.4e-4 73.75,6.5e-4 -0.25,56.49289 c -0.2342,52.92341 -0.397,56.68986 -2.5772,59.61001 -4.637,6.21074 -8.6556,8.1677 -17.8378,8.68654 l -8.71,0.49216 0,19.67409 c 0,18.35229 -0.1901,19.95945 -2.829,23.92145 -1.5559,2.33604 -5.0253,5.32315 -7.7097,6.638 -4.2925,2.10252 -5.5652,2.2076 -10.5596,0.8718 -11.2799,-3.0169 -12.6517,-6.47454 -12.6517,-31.88886 l 0,-19.49859 -10.625,0 -10.625,0 0,19.49859 c 0,23.10672 -1.1631,26.9459 -9.2802,30.63252 -6.0997,2.7704 -8.6882,2.83828 -14.4698,0.37943 z m -70.725,-79.11764 c -7.62,-4.64664 -8.0252,-7.09403 -8.0231,-48.45681 0,-41.04889 0.3041,-42.9005 7.9046,-48.47223 4.4978,-3.29728 13.7972,-3.36226 18.729,-0.13086 6.9265,4.53844 7.1149,5.82148 7.1098,48.41742 0,36.59947 -0.1621,39.38285 -2.4447,43.12639 -4.6517,7.6291 -15.5681,10.21615 -23.2756,5.51609 z m 192.3482,-0.0923 c -7.6879,-4.6876 -7.8732,-5.83633 -7.8732,-48.80065 0,-42.32982 0.1918,-43.62715 7.1236,-48.17696 4.8344,-3.17313 14.3474,-3.06549 18.8188,0.21293 7.4886,5.49054 7.8035,7.44108 7.8057,48.3386 0,40.79818 -0.08,41.31683 -7.5491,47.60153 -4.8175,4.05366 -12.4655,4.39776 -18.3258,0.8245 z M 1380.2377,504.89323 c -0.3327,-0.86687 0.1,-5.30932 0.9605,-9.8721 3.1396,-16.63905 15.0191,-34.24675 29.0404,-43.04334 3.601,-2.25913 6.7185,-4.21899 6.9278,-4.35524 0.2093,-0.13624 -2.1813,-4.87928 -5.3125,-10.54007 -6.2198,-11.24451 -6.8471,-13.73812 -3.4561,-13.73812 1.477,0 3.7893,2.86637 6.8065,8.4375 7.4907,13.8311 6.5136,13.21397 15.9565,10.0777 11.6087,-3.85559 34.6469,-3.85459 46.25,0.002 9.563,3.17851 9.6974,3.1939 10.2209,1.1703 0.2222,-0.85937 2.6319,-5.64062 5.3547,-10.625 3.2938,-6.02972 5.6991,-9.0625 7.1875,-9.0625 3.4637,0 2.7148,2.99457 -3.4792,13.91058 -3.1439,5.54062 -5.5345,10.19569 -5.3125,10.3446 0.222,0.1489 3.3498,2.11912 6.9508,4.37826 14.3328,8.992 26.1513,26.93779 29.1397,44.24721 0.8077,4.67811 1.2088,8.76531 0.8914,9.08268 -0.3173,0.31737 -33.6395,0.70858 -74.0493,0.86935 -58.1789,0.23148 -73.5982,-0.0357 -74.0771,-1.28381 z m 43.5053,-26.59285 c 4.6834,-2.50652 2.2837,-9.95602 -3.2072,-9.95602 -5.2639,0 -7.4362,5.5102 -3.6607,9.28571 2.3034,2.30342 3.583,2.42831 6.8679,0.67031 z m 67.6319,-0.77476 c 4.0898,-3.70121 2.0968,-9.18126 -3.3391,-9.18126 -3.3506,0 -5.625,2.27443 -5.625,5.625 0,5.32134 4.8761,7.25582 8.9641,3.55626 z"
         id="path5293"
         inkscape:connector-curvature="0" />
      <path
         style="fill-opacity:1"
         d="m 1421.964,688.322 c -3.9863,-1.20898 -7.8017,-4.30087 -9.9815,-8.08865 -0.8537,-1.48354 -1.7029,-10.96794 -2.0717,-23.13899 l -0.625,-20.625 -9.6202,-0.68286 c -7.1039,-0.50425 -10.3252,-1.32086 -12.3155,-3.12205 -6.1989,-5.60993 -6.1893,-5.50955 -6.1893,-64.88302 l 0,-55.68707 73.125,0 73.125,0 0,56.06515 0,56.06514 -2.8592,4.24736 c -3.7325,5.54471 -7.267,7.11135 -17.1408,7.59739 l -8.125,0.39996 -0.625,20.85078 c -0.7029,23.44824 -1.5064,25.77228 -10.4475,30.21563 -6.1792,3.07078 -12.1446,1.90246 -18.0908,-3.54299 l -4.5867,-4.20048 -0.3931,-21.97396 -0.393,-21.97398 -10.5445,0 -10.5444,0 -0.01,20.3125 c 0,17.92852 -0.2905,20.78132 -2.4403,24.30709 -4.1969,6.88315 -11.9849,10.06197 -19.2518,7.85805 z m -69.5952,-78.503 c -4.4213,-1.95953 -7.5225,-5.07379 -9.3081,-9.34724 -1.5485,-3.70615 -1.8986,-11.08531 -1.8929,-39.89975 0,-20.25626 0.5534,-37.32001 1.2865,-39.9598 2.6982,-9.71454 13.5363,-14.3886 22.878,-9.86637 9.5687,4.63212 9.5791,4.68563 9.5738,49.04138 0,36.65655 -0.1619,39.44009 -2.4447,43.18395 -3.9668,6.50575 -13.519,9.76129 -20.0926,6.84783 z m 189.1652,-1.34978 c -7.6857,-4.82886 -7.8732,-5.97925 -7.8732,-48.31137 0,-42.52321 0.4073,-45.0207 7.9802,-48.93682 4.9112,-2.53966 13.6815,-2.46348 17.6755,0.15352 7.3077,4.78813 7.4347,5.52509 7.8689,45.66157 0.2519,23.28725 -0.084,38.56888 -0.9096,41.36015 -3.1008,10.48525 -15.8344,15.6694 -24.7418,10.07295 z M 1379.9108,504.19893 c 0,-10.62812 6.7287,-27.85594 14.8806,-38.09943 4.6503,-5.84341 17.6417,-16.7209 21.5107,-18.01058 0.8487,-0.28288 -0.8825,-4.70104 -4.3677,-11.14684 -6.3457,-11.73631 -6.8368,-13.59832 -3.5861,-13.59649 1.4609,8.2e-4 4.0169,3.42626 7.6951,10.3125 3.0292,5.6712 5.6416,10.48615 5.8053,10.6999 0.1637,0.21375 4.4353,-0.88499 9.4924,-2.44165 12.9556,-3.98793 32.9339,-3.98793 45.8894,0 5.0571,1.55666 9.3287,2.6554 9.4924,2.44165 0.1637,-0.21375 2.7761,-5.0287 5.8053,-10.6999 3.6782,-6.88624 6.2342,-10.31168 7.6951,-10.3125 3.3582,-0.002 2.6821,2.59966 -3.5601,13.69967 -3.1612,5.62129 -5.5518,10.38702 -5.3125,10.5905 0.2393,0.20348 1.6855,1.02032 3.2138,1.8152 6.2298,3.2401 17.8263,14.17325 22.5733,21.28195 5.3317,7.98423 9.5398,19.27276 10.8753,29.17395 l 0.8009,5.9375 -74.4516,0 c -60.7291,0 -74.4516,-0.30328 -74.4516,-1.64543 z m 44.75,-26.10457 c 3.5062,-3.50625 0.8647,-9.75 -4.125,-9.75 -5.2639,0 -7.4362,5.5102 -3.6607,9.28571 2.3394,2.3394 5.7096,2.54038 7.7857,0.46429 z m 67.0357,-0.46429 c 3.7755,-3.77551 1.6032,-9.28571 -3.6607,-9.28571 -3.3506,0 -5.625,2.27443 -5.625,5.625 0,5.26394 5.5102,7.43623 9.2857,3.66071 z"
         id="path5291"
         inkscape:connector-curvature="0" />
      <path
         style="fill-opacity:1"
         d="m 1422.6721,688.33278 c -2.2625,-0.51898 -5.2933,-1.99432 -6.735,-3.27852 -5.0579,-4.5052 -6.0263,-9.29326 -6.0263,-29.79475 l 0,-19.41515 -8.1871,0 c -9.6185,0 -14.6451,-2.18485 -18.1135,-7.87319 -2.3239,-3.81132 -2.4403,-6.66448 -2.4447,-59.93931 l 0,-55.9375 73.125,0 73.125,0 0,55.68707 c 0,61.46629 0.085,60.7614 -7.8732,65.61353 -2.9226,1.78204 -6.2772,2.44131 -12.4393,2.44473 l -8.4375,0.005 0,19.6875 c 0,21.52883 -1.077,25.84552 -7.6313,30.64637 -4.5005,3.29649 -13.9262,3.34199 -18.3648,0.0886 -6.6818,-4.8976 -7.7479,-9.12551 -7.75,-30.73504 l 0,-19.68746 -10.625,0 -10.625,0 -0.01,20.3125 c 0,17.92852 -0.2905,20.78132 -2.4403,24.30709 -4.1518,6.80903 -10.8229,9.63987 -18.5437,7.86884 z m -72.3809,-79.93342 c -8.4219,-5.13516 -8.4648,-5.3585 -8.8847,-46.25705 -0.4274,-41.63411 0.044,-44.92388 7.1267,-49.68975 5.1253,-3.44902 13.7485,-3.81418 18.8538,-0.79839 7.1331,4.21359 7.5243,6.75853 7.5191,48.9201 0,36.30556 -0.1419,38.62028 -2.5273,42.53281 -4.4574,7.31101 -14.7372,9.77409 -22.0876,5.29228 z m 192.1196,0.25556 c -8.5595,-4.27597 -8.8421,-5.96949 -8.4625,-50.72058 l 0.3375,-39.78503 4.6691,-4.27747 c 3.8895,-3.56323 5.6219,-4.27748 10.3746,-4.27748 7.2227,0 12.428,2.67427 15.2476,7.83366 1.9774,3.61806 2.2087,8.10576 2.2087,42.84711 0,43.05816 0.024,42.92365 -8.5054,48.12423 -4.9514,3.01905 -10.1695,3.10307 -15.8696,0.25556 z M 1379.9325,504.28186 c 0.066,-4.74686 4.0005,-19.16764 6.9045,-25.30624 4.6214,-9.76891 13.9208,-20.55466 22.6371,-26.25532 4.0214,-2.6301 7.5045,-4.93028 7.7401,-5.11151 0.2356,-0.18122 -2.2242,-5.19569 -5.4662,-11.14325 -4.0657,-7.4586 -5.4929,-11.21548 -4.5998,-12.10855 2.0362,-2.03623 3.5003,-0.40123 9.2572,10.33757 4.4277,8.25939 5.8231,9.93154 7.8804,9.44325 1.375,-0.32636 5.875,-1.5689 10,-2.76122 10.0759,-2.9124 29.9241,-2.9124 40,0 4.125,1.19232 8.625,2.43486 10,2.76122 2.0573,0.48829 3.4527,-1.18386 7.8804,-9.44325 5.7569,-10.7388 7.221,-12.3738 9.2572,-10.33757 0.8931,0.89307 -0.5435,4.66728 -4.6302,12.16439 -6.2465,11.45934 -6.2463,11.05923 -0.01,14.55917 15.2115,8.53349 28.6882,29.70275 31.0835,48.82631 l 0.7437,5.9375 -74.3511,0 c -58.659,0 -74.3464,-0.32977 -74.3293,-1.5625 z m 44.7283,-26.1875 c 3.5062,-3.50625 0.8647,-9.75 -4.125,-9.75 -3.3506,0 -5.625,2.27443 -5.625,5.625 0,3.35057 2.2744,5.625 5.625,5.625 1.4438,0 3.3,-0.675 4.125,-1.5 z m 67.5,0 c 3.5063,-3.50625 0.8647,-9.75 -4.125,-9.75 -3.3506,0 -5.625,2.27443 -5.625,5.625 0,3.35057 2.2744,5.625 5.625,5.625 1.4438,0 3.3,-0.675 4.125,-1.5 z"
         id="path5289"
         inkscape:connector-curvature="0" />
      <path
         style="fill-opacity:1"
         d="m 1418.7813,686.76343 c -1.6525,-0.84923 -4.1837,-3.13063 -5.625,-5.06976 -2.3724,-3.19185 -2.6601,-5.52935 -3.0384,-24.6875 l -0.4178,-21.16181 -8.3322,-0.005 c -6.0576,-0.004 -9.4245,-0.67076 -12.3339,-2.44473 -7.9578,-4.8518 -7.8732,-4.14691 -7.8732,-65.6132 l 0,-55.68707 73.125,0 73.125,0 0,55.68707 c 0,61.46629 0.085,60.7614 -7.8732,65.61353 -2.9226,1.78204 -6.2772,2.44131 -12.4393,2.44473 l -8.4375,0.005 -0.01,18.4375 c -0.01,20.49891 -1.0251,25.99772 -5.6065,30.30169 -4.6794,4.39606 -15.3482,5.02644 -20.6903,1.22251 -6.4227,-4.57375 -7.4457,-8.7703 -7.4457,-30.54655 l 0,-19.41515 -10.625,0 -10.625,0 0,19.41515 c 0,21.31016 -1.0063,25.74521 -6.8921,30.37498 -3.9388,3.09828 -13.0435,3.66972 -17.9874,1.12894 z m -67.5316,-78.04112 c -2.3574,-1.23912 -5.4512,-3.84078 -6.875,-5.78144 -2.4877,-3.39057 -2.5889,-5.05175 -2.5889,-42.5 0,-34.89981 0.2308,-39.39374 2.2087,-43.01285 6.0474,-11.06542 23.1386,-10.49821 29.0663,0.96463 2.6578,5.13969 2.7263,76.68482 0.079,83.01964 -3.3647,8.05285 -13.8292,11.54733 -21.8905,7.31002 z m 191.2577,-0.0889 c -8.5513,-4.71139 -8.8466,-6.33913 -8.8466,-48.76915 0,-41.08153 0.1761,-42.27723 7.0186,-47.65955 4.0102,-3.15445 12.6419,-3.49652 18.0223,-0.71421 7.7758,4.02099 8.083,5.87506 8.0836,48.78399 5e-4,34.96946 -0.2174,39.13775 -2.2044,42.17009 -4.9328,7.52795 -14.6818,10.26131 -22.0735,6.18881 z M 1380.7023,499.90686 c 2.5806,-20.60256 16.5531,-41.00735 35.2424,-51.46643 1.5152,-0.84794 0.7897,-2.95832 -4.1021,-11.93253 -4.0294,-7.39202 -5.5335,-11.31186 -4.6713,-12.17406 2.0139,-2.01385 3.4888,-0.35089 9.2067,10.38039 4.4674,8.38449 5.7813,9.95389 7.8843,9.41778 1.3879,-0.35382 5.8985,-1.55468 10.0235,-2.66857 10.3029,-2.78213 29.1023,-2.7922 39.375,-0.0211 4.4688,1.20546 9.25,2.43858 10.625,2.74028 2.043,0.44826 3.4835,-1.28613 7.8804,-9.48808 5.742,-10.71107 7.2226,-12.37226 9.2341,-10.36072 0.8622,0.8622 -0.6263,4.75349 -4.6229,12.0854 -3.2421,5.94757 -5.6914,10.96472 -5.4431,11.14923 0.2483,0.18452 2.4203,1.67503 4.8265,3.31225 18.4614,12.56119 28.8396,28.27052 31.1042,47.08202 l 0.9489,7.88162 -74.1276,0 -74.1277,0 0.7437,-5.9375 z m 44.6696,-22.95783 c 2.2165,-3.16448 0.5698,-8.0435 -3.0326,-8.98556 -5.2907,-1.38355 -9.7768,6.28254 -5.9285,10.13089 2.3476,2.34757 6.9243,1.76261 8.9611,-1.14533 z m 66.7889,1.14533 c 2.3281,-2.32806 1.7716,-6.91798 -1.0809,-8.91595 -3.3125,-2.3202 -6.7606,-1.39857 -8.4237,2.25156 -2.5516,5.60005 5.1611,11.00794 9.5046,6.66439 z"
         id="path5287"
         inkscape:connector-curvature="0" />
      <path
         style="fill-opacity:1"
         d="m 1417.2832,685.48857 c -6.1153,-4.11166 -7.221,-8.74289 -7.3018,-30.58171 l -0.071,-19.0625 -8.4375,-0.005 c -6.1621,-0.004 -9.5167,-0.66269 -12.4393,-2.44473 -7.9578,-4.8518 -7.8732,-4.14691 -7.8732,-65.6132 l 0,-55.68707 73.125,0 73.125,0 0,55.78996 c 0,54.46461 -0.062,55.89069 -2.6207,60.0303 -3.6361,5.88338 -8.2663,7.92974 -17.9422,7.92974 l -8.1871,0 -0.071,19.0625 c -0.042,11.32557 -0.6761,20.82062 -1.5625,23.39421 -3.1148,9.04355 -15.5715,12.8814 -24.3797,7.51125 -6.6012,-4.02464 -7.7373,-8.51085 -7.7373,-30.55281 l 0,-19.41515 -10.625,0 -10.625,0 0,19.41515 c 0,14.06949 -0.4955,20.60114 -1.7998,23.72262 -3.7057,8.86902 -16.1603,12.1661 -24.5778,6.50644 z m -65.6034,-76.42097 c -2.1208,-0.9234 -5.074,-3.22725 -6.5625,-5.11965 -2.6469,-3.36499 -2.7065,-4.31896 -2.7065,-43.33424 0,-43.80314 0.241,-45.3906 7.4591,-49.12319 5.3804,-2.78231 14.0121,-2.44024 18.0223,0.71421 6.8425,5.38232 7.0186,6.57802 7.0186,47.65955 0,42.42646 -0.3083,44.12734 -8.8271,48.69599 -4.9996,2.68135 -9.0806,2.82509 -14.4039,0.50733 z m 190.8081,-0.50733 c -8.4995,-4.55832 -8.8271,-6.34142 -8.8271,-48.04906 0,-40.86823 0.3711,-43.34061 7.239,-48.23103 7.2358,-5.15228 19.3483,-2.55639 23.5699,5.05137 1.2074,2.17572 1.6134,12.78673 1.6468,43.03174 0.043,39.32108 -0.011,40.21453 -2.6656,43.58897 -2.9427,3.74104 -9.2666,6.8921 -13.8319,6.8921 -1.5797,0 -4.7887,-1.02784 -7.1311,-2.28409 z M 1381.573,497.40686 c 1.507,-16.43268 15.1653,-37.08743 30.5253,-46.16161 2.9219,-1.72614 5.3125,-3.46064 5.3125,-3.85442 0,-0.39379 -2.5726,-5.47399 -5.7169,-11.28932 -3.7587,-6.95164 -5.2946,-10.99568 -4.4839,-11.80633 1.9402,-1.94024 3.7129,-0.10085 7.9039,8.20142 2.1434,4.24607 4.6855,8.92339 5.6491,10.39405 l 1.752,2.67393 6.5104,-2.64855 c 5.6315,-2.291 9.0416,-2.64855 25.2604,-2.64855 16.2898,0 19.6157,0.35187 25.3475,2.68163 l 6.5974,2.68163 4.6526,-8.75818 c 6.3376,-11.93035 8.4578,-14.53848 10.3264,-12.70308 1.1311,1.11104 0.1289,3.84617 -4.2863,11.69731 -3.1694,5.63595 -5.7616,10.6084 -5.7604,11.04988 0,0.44148 2.4317,2.33745 5.401,4.21326 7.8539,4.9615 19.9908,18.11104 23.9993,26.00141 4.1312,8.13206 6.8122,17.55921 6.8327,24.02552 l 0.015,4.6875 -73.3057,0 -73.3058,0 0.7737,-8.4375 z m 43.7537,-20.39337 c 3.336,-4.76275 -0.9847,-11.01885 -6.2628,-9.06832 -2.8988,1.0712 -4.1098,2.85431 -4.134,6.08669 -0.042,5.5991 7.1241,7.65415 10.3968,2.98163 z m 66.8341,1.08087 c 4.2814,-4.28144 -1.7051,-12.71755 -7.01,-9.87842 -3.2673,1.74857 -4.112,5.64792 -1.9059,8.79755 1.9979,2.8525 6.5878,3.40893 8.9159,1.08087 z"
         id="path5285"
         inkscape:connector-curvature="0" />
      <path
         style="fill-opacity:1"
         d="m 1418.3797,686.39586 c -5.8566,-3.17828 -6.55,-5.93259 -7.2189,-28.6765 l -0.625,-21.25 -9.375,-0.68231 c -10.7093,-0.77941 -15.0487,-3.01144 -18.0173,-9.2673 -1.7171,-3.61855 -1.9827,-11.56181 -1.9827,-59.3018 l 0,-55.12359 73.125,0 73.125,0 0,55.12359 c 0,47.73999 -0.2656,55.68325 -1.9827,59.3018 -2.9686,6.25586 -7.308,8.48789 -18.0173,9.2673 l -9.375,0.68231 -0.3971,21.11054 c -0.313,16.6419 -0.8153,21.74892 -2.3731,24.12638 -5.9166,9.02997 -21.0899,8.76067 -27.3567,-0.48553 -2.0475,-3.02096 -2.4304,-6.37421 -2.791,-24.43889 l -0.4178,-20.9375 -10.4143,0 -10.4143,0 -0.4178,20.9375 c -0.3606,18.06468 -0.7435,21.41793 -2.791,24.43889 -4.6029,6.79121 -14.8988,9.18237 -22.283,5.17511 z m -66.8818,-77.40474 c -2.2208,-0.96545 -5.1718,-3.61531 -6.5578,-5.88857 -2.3871,-3.91534 -2.5202,-6.23275 -2.5246,-43.96775 l 0,-39.83456 4.8529,-4.85294 c 4.1585,-4.15846 5.6343,-4.85227 10.3125,-4.84827 3.2686,0.003 7.1201,1.01705 9.5973,2.52737 7.3235,4.465 7.7373,7.03275 7.7373,48.0104 0,42.27326 -0.2997,43.8143 -9.3765,48.2083 -6.0354,2.92167 -8.5369,3.03681 -14.0364,0.64602 z m 192.7879,0.0887 c -2.0625,-0.91669 -5.1562,-3.18919 -6.875,-5.04999 l -3.125,-3.38329 -0.3633,-38.56958 c -0.405,-42.98779 -0.049,-45.36259 7.4756,-49.95055 7.8378,-4.7786 18.2959,-2.46876 22.7183,5.01775 1.7767,3.00781 2.0444,8.64749 2.0444,43.07511 0,38.52411 -0.074,39.71796 -2.6858,43.38606 -2.7084,3.80353 -9.0971,7.28048 -13.2115,7.19011 -1.2253,-0.0269 -3.9152,-0.79895 -5.9777,-1.71562 z m -163.125,-108.00857 c 0,-5.86526 3.0424,-16.40391 6.9812,-24.18222 3.823,-7.54982 15.1546,-19.74822 23.0533,-24.81679 3.4185,-2.19367 6.2155,-4.42389 6.2155,-4.95606 0,-0.53216 -2.5447,-5.56801 -5.6548,-11.19077 -5.1991,-9.39917 -5.9836,-12.58104 -3.1019,-12.58104 0.6026,0 3.8963,4.92187 7.3193,10.9375 3.8799,6.81862 6.8523,10.74175 7.893,10.41769 21.9185,-6.82488 38.6818,-6.82488 60.8585,0 1.0609,0.32653 3.7625,-3.19855 7.2653,-9.48019 6.5802,-11.80033 7.4534,-12.84223 9.2535,-11.04206 0.944,0.94391 -0.3329,4.34462 -4.375,11.65212 -3.1393,5.67555 -5.7079,10.76735 -5.7079,11.31511 0,0.54776 2.1094,2.28344 4.6875,3.85706 17.142,10.46303 31.5625,33.33922 31.5625,50.06965 l 0,4.77312 -73.125,0 -73.125,0 0,-4.77312 z m 44.3041,-24.25501 c 1.0703,-1.52798 1.9459,-3.21548 1.9459,-3.75 0,-1.65658 -4.9034,-5.97187 -6.7857,-5.97187 -4.5889,0 -7.5321,7.68223 -4.2143,11 2.3866,2.38663 6.9372,1.74424 9.0541,-1.27813 z m 67.3164,0.1591 c 1.6455,-2.62998 0.1911,-8.14799 -2.4108,-9.14644 -2.9428,-1.12925 -6.493,0.27498 -8.0499,3.18395 -1.9979,3.73326 1.6766,8.86088 5.9799,8.34449 1.7782,-0.21338 3.7946,-1.28528 4.4808,-2.382 z"
         id="path5283"
         inkscape:connector-curvature="0" />
      <path
         style="fill-opacity:1"
         d="m 1418.1201,685.91143 c -6.3317,-4.17387 -6.8669,-6.41837 -6.915,-28.99721 l -0.044,-20.80515 -9.6875,-0.44904 c -10.9226,-0.50627 -15.0039,-2.63104 -18.335,-9.54558 -1.7111,-3.55196 -1.9775,-11.50783 -1.9775,-59.0625 l 0,-54.95759 73.125,0 73.125,0 0,55.0498 c 0,52.11364 -0.13,55.30465 -2.4376,59.82799 -3.2212,6.31397 -8.7902,8.87221 -19.3138,8.87221 l -8.2486,0 -0.044,20.9375 c -0.031,14.61986 -0.5279,21.80886 -1.6468,23.8253 -4.0307,7.26365 -15.452,10.01655 -22.4403,5.40882 -7.2217,-4.76167 -7.7078,-6.50288 -8.1615,-29.23412 l -0.4179,-20.9375 -10.4143,0 -10.4143,0 -0.4178,20.9375 c -0.3606,18.06468 -0.7435,21.41793 -2.791,24.43889 -4.8135,7.10203 -15.5087,9.32748 -22.5426,4.69068 z m -65.666,-76.65329 c -2.4314,-0.86373 -5.5845,-3.40206 -7.1875,-5.78613 -2.8263,-4.20344 -2.8558,-4.66054 -2.8558,-44.20956 l 0,-39.96221 4.8529,-4.85294 c 4.1585,-4.15846 5.6343,-4.85227 10.3125,-4.84827 6.8842,0.006 12.5313,3.37599 15.2471,9.09917 1.8028,3.79902 2.0872,9.4025 2.0856,41.08507 0,32.45667 -0.254,37.18023 -2.1875,40.97224 -4.1012,8.04282 -12.107,11.40146 -20.2673,8.50263 z m 191.2956,-0.60322 c -2.3574,-1.20206 -5.4512,-3.7726 -6.875,-5.71232 -2.4637,-3.35622 -2.6065,-5.3668 -2.9533,-41.57667 -0.3238,-33.80611 -0.1258,-38.55273 1.7749,-42.55831 3.1123,-6.55857 8.4095,-9.47607 16.012,-8.81876 5.152,0.44544 6.8569,1.28054 10.3125,5.05123 l 4.14,4.51756 -0.01,39.70585 c -0.01,37.62028 -0.1372,39.9232 -2.5274,43.84358 -2.4559,4.02819 -8.868,7.73925 -13.3653,7.73534 -1.2252,-10e-4 -4.1564,-0.98545 -6.5138,-2.1875 z M 1381.1608,500.97603 c 0,-16.60527 14.4379,-39.45934 31.5625,-49.96097 2.5781,-1.58103 4.6875,-3.32772 4.6875,-3.88154 0,-0.55382 -2.5287,-5.76046 -5.6194,-11.57032 -5.127,-9.63781 -5.7572,-12.21884 -2.9834,-12.21884 0.5392,0 3.0561,3.79687 5.593,8.4375 2.5369,4.64062 5.3648,9.66482 6.2842,11.16487 l 1.6717,2.72737 7.2144,-2.6991 c 6.1301,-2.2934 9.845,-2.69911 24.7145,-2.69911 14.8695,0 18.5844,0.40571 24.7145,2.69911 l 7.2144,2.6991 1.6717,-2.72737 c 0.9194,-1.50005 3.7473,-6.52425 6.2842,-11.16487 2.5369,-4.64063 5.0538,-8.4375 5.593,-8.4375 2.7738,0 2.1436,2.58103 -2.9834,12.21884 -3.0907,5.80986 -5.6194,11.0165 -5.6194,11.57032 0,0.55382 2.1094,2.30051 4.6875,3.88154 17.1246,10.50163 31.5625,33.3557 31.5625,49.96097 l 0,4.86833 -73.125,0 -73.125,0 0,-4.86833 z m 45.0253,-23.92889 c 2.9705,-5.55047 -3.0995,-11.74038 -8.6172,-8.7874 -2.9706,1.5898 -3.6482,7.3445 -1.1581,9.83462 2.4387,2.43869 8.2424,1.81694 9.7753,-1.04722 z m 65.9747,1.04722 c 2.3768,-2.37684 1.8225,-8.23947 -0.9178,-9.70602 -1.3298,-0.71169 -3.0173,-1.29398 -3.75,-1.29398 -1.9434,0 -6.3322,4.7031 -6.3322,6.78571 0,4.58887 7.6822,7.53206 11,4.21429 z"
         id="path5281"
         inkscape:connector-curvature="0" />
      <path
         style="fill-opacity:1"
         d="m 1419.2216,686.40503 c -7.1844,-3.54572 -8.0608,-6.77289 -8.0608,-29.68368 l 0,-20.61228 -9.9045,-0.44979 c -8.486,-0.38536 -10.3829,-0.89667 -13.2438,-3.56986 -6.9666,-6.50935 -6.8517,-5.42062 -6.8517,-64.93299 l 0,-55.06207 73.125,0 73.125,0 0,55.06207 c 0,59.51237 0.1149,58.42364 -6.8517,64.93299 -2.8609,2.67319 -4.7578,3.1845 -13.2437,3.56986 l -9.9046,0.44979 0,20.61228 c 0,16.83717 -0.3744,21.24615 -2.0444,24.07322 -6.7168,11.37061 -23.8195,9.56552 -28.6265,-3.02139 -1.7003,-4.45228 -2.0035,-8.86722 -1.6274,-23.70018 l 0.4621,-18.22864 -10.9569,0 c -7.9301,0 -10.958,0.43164 -10.9608,1.5625 -0.061,23.96274 -1.2687,39.96495 -3.2732,43.35846 -4.0765,6.90084 -13.5118,9.41535 -21.1621,5.63971 z m -66.7675,-77.14689 c -2.4564,-0.87262 -5.5889,-3.4085 -7.2357,-5.85766 l -2.904,-4.31887 0.3607,-40.34616 0.3607,-40.34615 3.9464,-3.9448 c 5.1229,-5.12088 14.0202,-6.26851 19.9036,-2.5673 7.6142,4.78994 8.0252,7.24426 8.0231,47.90607 0,32.45666 -0.254,37.18023 -2.1875,40.97224 -4.1012,8.04282 -12.107,11.40146 -20.2673,8.50263 z m 193.2599,0.31386 c -1.9645,-0.5958 -4.714,-2.10013 -6.11,-3.34295 -5.5174,-4.91195 -5.9432,-8.27384 -5.9432,-46.92654 0,-41.0636 0.3958,-43.18742 8.856,-47.51871 8.1139,-4.15398 15.7821,-2.23595 20.794,5.20112 2.814,4.17565 2.85,4.71776 2.85,42.85636 0,41.45368 -0.2719,43.43662 -6.5169,47.52853 -3.9685,2.60025 -9.6538,3.49905 -13.9299,2.20219 z M 1381.1608,500.97603 c 0,-16.32581 13.3466,-37.93609 30.1893,-48.8812 l 7.0643,-4.59069 -6.0365,-11.09532 c -5.6399,-10.36621 -6.411,-13.06446 -3.7337,-13.06446 0.5972,0 3.7949,5.07004 7.106,11.26675 4.438,8.30549 6.5151,11.0689 7.9029,10.51396 1.0355,-0.41405 6.374,-1.90124 11.8634,-3.30488 12.692,-3.24533 32.2437,-2.60886 43.6619,1.42134 4.0659,1.43512 7.4987,2.46722 7.6285,2.29357 0.1297,-0.17366 2.8955,-5.23762 6.1461,-11.25324 3.2507,-6.01563 6.394,-10.9375 6.9853,-10.9375 2.6663,0 1.8879,2.71184 -3.7561,13.08561 l -6.048,11.11647 5.5071,3.49249 c 7.8698,4.9909 15.8376,12.6412 21.0066,20.16965 5.2117,7.5907 10.7629,22.98883 10.7629,29.85472 l 0,4.78106 -73.125,0 -73.125,0 0,-4.86833 z m 45.2831,-24.62893 c 1.0264,-2.2525 0.8567,-3.60978 -0.7596,-6.07654 -3.5039,-5.3476 -10.7735,-3.29166 -10.7735,3.0469 0,6.98305 8.6916,9.26623 11.5331,3.02964 z m 67.0116,-2.45789 c 0.7704,-6.50904 -6.8899,-9.23244 -10.4945,-3.73105 -2.4466,3.73397 -1.3854,7.93811 2.3722,9.39824 3.7232,1.44674 7.6006,-1.25861 8.1223,-5.66719 z"
         id="path5279"
         inkscape:connector-curvature="0" />
    </g>
  </g>
</svg>
