<?xml version="1.0" encoding="UTF-8" standalone="no"?>
<!-- Created with Inkscape (http://www.inkscape.org/) -->

<svg
   xmlns:dc="http://purl.org/dc/elements/1.1/"
   xmlns:cc="http://creativecommons.org/ns#"
   xmlns:rdf="http://www.w3.org/1999/02/22-rdf-syntax-ns#"
   xmlns:svg="http://www.w3.org/2000/svg"
   xmlns="http://www.w3.org/2000/svg"
   xmlns:sodipodi="http://sodipodi.sourceforge.net/DTD/sodipodi-0.dtd"
   xmlns:inkscape="http://www.inkscape.org/namespaces/inkscape"
   width="210mm"
   height="297mm"
   viewBox="0 0 744.09448819 1052.3622047"
   id="svg3458"
   version="1.1"
   inkscape:version="0.91 r13725"
   sodipodi:docname="api.svg">
  <defs
     id="defs3460" />
  <sodipodi:namedview
     id="base"
     pagecolor="#ffffff"
     bordercolor="#666666"
     borderopacity="1.0"
     inkscape:pageopacity="0.0"
     inkscape:pageshadow="2"
     inkscape:zoom="0.35"
     inkscape:cx="375"
     inkscape:cy="520"
     inkscape:document-units="px"
     inkscape:current-layer="layer1"
     showgrid="false"
     inkscape:window-width="1600"
     inkscape:window-height="847"
     inkscape:window-x="-8"
     inkscape:window-y="-8"
     inkscape:window-maximized="1" />
  <metadata
     id="metadata3463">
    <rdf:RDF>
      <cc:Work
         rdf:about="">
        <dc:format>image/svg+xml</dc:format>
        <dc:type
           rdf:resource="http://purl.org/dc/dcmitype/StillImage" />
        <dc:title></dc:title>
      </cc:Work>
    </rdf:RDF>
  </metadata>
  <g
     inkscape:label="Camada 1"
     inkscape:groupmode="layer"
     id="layer1">
    <path
       style="fill:#000000"
       d="m 301.28158,807.50174 c -32.07908,-4.7697 -34.62964,-6.16559 -37.75834,-20.66461 -1.84542,-8.55222 -3.35535,-24.66324 -3.35535,-35.80236 0,-14.57409 -2.74488,-21.1789 -9.78919,-23.5554 -5.38408,-1.81633 -20.56717,-10.07175 -33.74023,-18.34538 l -23.95102,-15.04299 -29.19033,8.89416 c -16.05469,4.89175 -31.90066,9.81532 -35.21322,10.94119 -6.41067,2.17882 -52.712294,-55.50133 -52.712294,-65.66626 0,-3.31245 9.831889,-16.93995 21.848633,-30.28335 l 21.848601,-24.26076 -9.72838,-35.30812 C 99.862599,523.28311 99.655489,523.03255 69.652756,510.14904 53.065091,503.02609 38.888495,496.63766 38.149173,495.95243 c -5.011848,-4.64518 11.930509,-74.45417 19.369096,-79.80817 4.952192,-3.56442 22.446594,-6.48072 38.87642,-6.48072 23.363401,0 30.648841,-1.97699 33.435601,-9.07301 1.95968,-4.99018 11.07833,-19.34739 20.26358,-31.90497 l 16.70048,-22.832 -11.37068,-32.41463 -11.37064,-32.41459 36.29296,-23.4167 36.29303,-23.41671 29.40759,22.20041 29.4076,22.20043 37.92144,-8.56853 37.92145,-8.56857 13.34038,-28.01625 c 7.33718,-15.40896 14.18295,-28.79724 15.2128,-29.75174 2.20991,-2.04825 83.32872,9.62937 87.01913,12.52701 1.38977,1.09125 4.2671,17.56725 6.39406,36.61335 2.12695,19.04615 6.42238,35.41874 9.54539,36.38357 3.12297,0.96483 17.58444,9.06368 32.13653,17.99736 l 26.45835,16.24316 28.59533,-9.40644 c 15.72743,-5.17354 31.23208,-10.3412 34.45484,-11.48367 3.22272,-1.14247 17.77826,13.2787 32.34561,32.04707 l 26.48624,34.12421 -24.33879,26.94636 -24.33874,26.94632 8.96503,35.18988 8.96507,35.18983 30.43472,13.06898 c 16.73909,7.18798 31.38257,13.94751 32.54103,15.02121 1.1585,1.07371 -0.89967,18.46975 -4.57361,38.65786 -7.65566,42.06744 -13.22689,46.89491 -54.22002,46.98175 -26.9255,0.0573 -26.94855,0.0722 -48.1244,31.77826 l -21.18606,31.72111 9.41467,26.54826 c 5.1781,14.60155 10.4601,29.18477 11.73787,32.40721 1.27771,3.22236 -14.12375,16.51496 -34.22554,29.53906 l -36.54873,23.68012 -29.51978,-21.90732 c -29.41251,-21.82774 -29.61121,-21.88476 -54.692,-15.69873 -13.84473,3.41472 -30.3731,6.39636 -36.72979,6.62584 -8.43442,0.30444 -15.89242,8.82328 -27.59918,31.52472 -10.15007,19.68267 -19.25914,30.84238 -24.80231,30.38571 -4.81835,-0.39693 -24.24199,-3.02364 -43.16362,-5.83699 z m 135.0918,-136.73255 c 19.77705,-6.24977 38.07539,-18.18417 62.47339,-40.74595 29.97834,-27.72213 36.12766,-36.86134 46.88141,-69.67535 28.51303,-87.00515 -11.72336,-170.59934 -100.96405,-209.7606 -31.5282,-13.83545 -42.30652,-15.91097 -81.11045,-15.61923 -51.77954,0.38947 -87.26155,13.95986 -128.40508,49.11005 -76.35157,65.22947 -74.06961,186.28721 4.74974,251.96795 15.61649,13.01332 34.72415,26.07004 42.46148,29.01488 54.85401,20.87737 100.5489,22.57211 153.91356,5.70825 z M 317.04743,595.55274 c -69.81108,-32.02745 -76.01249,-129.17542 -10.79916,-169.17422 16.54564,-10.14833 31.25956,-14.1969 56.65902,-15.58985 30.35863,-1.66499 37.27614,-0.11487 60.07389,13.46231 31.37189,18.68343 49.75208,50.36729 49.75208,85.76293 0,33.60704 -16.36405,60.88854 -48.27208,80.47727 -32.85215,20.16837 -70.60712,21.94747 -107.41375,5.06156 z"
       id="path3477"
       inkscape:connector-curvature="0" />
  </g>
</svg>
