<?xml version="1.0" encoding="UTF-8" standalone="no"?>
<!-- Created with Inkscape (http://www.inkscape.org/) -->

<svg
   xmlns:dc="http://purl.org/dc/elements/1.1/"
   xmlns:cc="http://creativecommons.org/ns#"
   xmlns:rdf="http://www.w3.org/1999/02/22-rdf-syntax-ns#"
   xmlns:svg="http://www.w3.org/2000/svg"
   xmlns="http://www.w3.org/2000/svg"
   xmlns:sodipodi="http://sodipodi.sourceforge.net/DTD/sodipodi-0.dtd"
   xmlns:inkscape="http://www.inkscape.org/namespaces/inkscape"
   width="210mm"
   height="297mm"
   viewBox="0 0 744.09448819 1052.3622047"
   id="svg5112"
   version="1.1"
   inkscape:version="0.91 r13725"
   sodipodi:docname="apple.svg">
  <defs
     id="defs5114" />
  <sodipodi:namedview
     id="base"
     pagecolor="#ffffff"
     bordercolor="#666666"
     borderopacity="1.0"
     inkscape:pageopacity="0.0"
     inkscape:pageshadow="2"
     inkscape:zoom="0.35"
     inkscape:cx="375"
     inkscape:cy="520"
     inkscape:document-units="px"
     inkscape:current-layer="layer1"
     showgrid="false"
     inkscape:window-width="1600"
     inkscape:window-height="847"
     inkscape:window-x="-8"
     inkscape:window-y="-8"
     inkscape:window-maximized="1" />
  <metadata
     id="metadata5117">
    <rdf:RDF>
      <cc:Work
         rdf:about="">
        <dc:format>image/svg+xml</dc:format>
        <dc:type
           rdf:resource="http://purl.org/dc/dcmitype/StillImage" />
        <dc:title></dc:title>
      </cc:Work>
    </rdf:RDF>
  </metadata>
  <g
     inkscape:label="Camada 1"
     inkscape:groupmode="layer"
     id="layer1">
    <g
       id="g5131"
       transform="matrix(1.3618923,0,0,1.1981979,-159.16398,-134.4722)">
      <path
         style="fill-opacity:1"
         d="m 291.44049,773.51252 c -14.60275,-6.93119 -37.51388,-29.98973 -51.04909,-51.37751 -65.73496,-103.87173 -71.12929,-221.8363 -13.1051,-286.58546 19.12741,-21.34426 39.61862,-31.50349 67.12295,-33.27851 17.61057,-1.13652 25.04374,-0.0464 56.44791,8.27809 41.33584,10.95719 45.43546,10.88364 83.70468,-1.50167 31.65482,-10.24467 53.28943,-12.18701 74.52074,-6.69042 22.61822,5.85563 34.34389,12.50766 52.61139,29.84665 l 15.85154,15.04582 -17.15974,17.32842 c -11.78509,11.90095 -19.72685,22.86817 -25.35585,35.01533 -22.60234,48.77491 -4.17718,112.63984 40.11371,139.04139 17.58604,10.48292 17.57894,10.30568 1.73396,43.23234 -20.51792,42.63732 -46.6449,75.69779 -70.14375,88.75829 -18.31601,10.17992 -35.86163,9.89708 -69.32298,-1.11753 -33.75858,-11.11243 -50.55087,-10.91307 -84.18448,0.99946 -30.42886,10.77745 -44.01877,11.43845 -61.78589,3.00531 z m 91.70834,-371.43175 c 0,-27.96307 15.96337,-66.24961 35.01736,-83.98564 13.48591,-12.55307 39.42989,-25.72003 52.81597,-26.80489 8.5241,-0.69083 9.08876,-0.23737 9.86417,7.92164 2.2535,23.71101 -11.85659,57.345 -33.75039,80.45032 -16.2634,17.16335 -31.02362,25.26082 -51.67628,28.34966 l -12.27083,1.83524 0,-7.76633 z"
         id="path5147"
         inkscape:connector-curvature="0" />
      <path
         style="fill-opacity:1"
         d="M 293.42471,774.5683 C 250.49218,754.88775 200.09031,664.39038 189.5859,588.12402 179.49848,514.88515 202.92604,446.64241 248.12945,417.591 c 28.95283,-18.60747 56.11441,-20.06081 107.89438,-5.77313 15.62916,4.31257 32.04488,7.84794 36.47938,7.85639 4.43447,0.008 21.20097,-4.05806 37.25887,-9.03666 35.40252,-10.97624 53.09985,-13.24975 73.51175,-9.4438 21.97042,4.09655 41.44552,14.54223 58.69488,31.48164 l 14.90116,14.63337 -16.92104,17.5127 c -31.03524,32.12039 -41.6607,70.08609 -30.87562,110.32113 7.72768,28.82897 30.86141,58.96876 52.15856,67.95476 4.72105,1.99195 8.58372,4.61847 8.58372,5.83667 0,4.5219 -15.04554,38.62755 -23.15937,52.4984 -31.2364,53.39943 -57.81498,76.51009 -87.92396,76.45189 -8.62583,-0.0157 -23.85086,-3.13222 -38.75,-7.92952 -13.49792,-4.34615 -29.77292,-8.65319 -36.16667,-9.57125 -12.21583,-1.75401 -34.09249,3.05451 -62.58129,13.75549 -18.23639,6.84996 -33.50379,6.98702 -47.80949,0.42922 z m 89.7623,-373.63214 c 0.0592,-13.39094 6.99871,-39.9997 14.1469,-54.24467 8.4715,-16.88207 19.25154,-29.03811 34.53235,-38.94016 14.00569,-9.07579 41.14635,-19.27068 46.14518,-17.33359 4.39882,1.70457 4.17743,15.22296 -0.54943,33.54896 -11.54758,44.77001 -44.82331,78.808 -82.04235,83.92172 l -12.27083,1.68596 0.0382,-8.63822 z"
         id="path5145"
         inkscape:connector-curvature="0" />
      <path
         style="fill-opacity:1"
         d="m 299.87261,777.09684 c -37.18729,-11.30734 -85.06984,-83.9461 -104.47657,-158.49299 -8.52755,-32.75681 -9.77067,-88.38018 -2.57983,-115.43487 17.92706,-67.44846 63.36229,-106.05195 118.37708,-100.57763 9.58172,0.95344 29.39844,5.19059 44.03715,9.41589 14.63871,4.2253 31.26827,7.67878 36.9546,7.67439 5.68633,-0.004 23.21027,-4.00259 38.9421,-8.8849 15.73183,-4.88231 34.91308,-9.66231 42.625,-10.62222 17.71262,-2.20469 48.04328,3.94181 62.93251,12.75327 12.94017,7.65799 37.63084,29.58966 37.63084,33.42585 0,1.48607 -7.40758,10.63157 -16.46128,20.32333 -9.05373,9.69176 -19.80686,24.50862 -23.89583,32.92635 -6.88092,14.16522 -7.43455,17.53902 -7.43455,45.30535 0,28.15454 0.49233,31.04371 8.00156,46.95714 9.80083,20.76967 27.77835,41.34031 43.48047,49.75217 13.65134,7.31321 13.68095,6.36788 -1.19988,38.32944 -21.24512,45.63108 -50.16823,81.75296 -73.97556,92.38761 -16.78521,7.49788 -33.39945,6.65831 -64.13993,-3.24125 -35.98345,-11.58798 -51.47232,-11.41157 -86.80459,0.98858 -27.28165,9.57472 -38.58148,11.09861 -52.01329,7.01449 z m 84.35716,-383.44703 c 3.79102,-33.83753 20.27596,-65.9125 42.20865,-82.12591 6.73865,-4.98143 20.78283,-12.22527 31.20935,-16.09742 24.61131,-9.14005 26.62127,-6.96029 21.03089,22.80747 -5.82317,31.00737 -28.51158,65.07259 -52.81594,79.29984 -8.04499,4.70935 -33.30756,11.7209 -42.23037,11.7209 -0.63297,0 -0.36415,-7.0222 0.59742,-15.60488 z"
         id="path5143"
         inkscape:connector-curvature="0" />
      <path
         style="fill-opacity:1"
         d="M 295.31549,775.19145 C 270.3093,766.39134 234.97183,720.41038 212.14628,666.97206 165.97879,558.88642 187.50823,445.94512 260.88986,411.26812 c 24.59138,-11.62083 49.5002,-11.59626 91.47295,0.0902 16.45728,4.5822 34.75275,8.33127 40.65662,8.33127 5.90385,0 21.8548,-3.59724 35.44654,-7.99387 34.38166,-11.12169 51.74156,-13.57158 72.47149,-10.2274 26.04871,4.20221 58.50896,23.08534 69.92272,40.67619 3.95984,6.10288 3.63927,6.71413 -12.68727,24.19126 -9.21237,9.8616 -20.1021,24.8247 -24.19942,33.25133 -6.89926,14.18918 -7.44966,17.53765 -7.44966,45.32154 0,28.31057 0.46345,30.98835 8.22786,47.53975 9.6959,20.66873 27.28279,40.61344 43.44875,49.27377 9.15099,4.90233 11.27875,7.28799 10.19505,11.43078 -3.9184,14.97946 -31.51135,65.24893 -45.89134,83.60592 -32.13463,41.02191 -55.30486,48.23171 -103.81366,32.30335 -35.97214,-11.81183 -51.31474,-11.6479 -86.80459,0.92754 -29.84158,10.57404 -38.92979,11.4097 -56.57041,5.20168 z M 383.14883,401.8955 c 0,-13.89481 10.38513,-48.56057 18.77654,-62.6764 10.28144,-17.29523 24.19659,-29.1551 45.95339,-39.16608 25.14847,-11.5716 30.38961,-12.26992 32.36734,-4.3126 2.18821,8.80424 -4.99457,39.89205 -12.82013,55.48686 -13.5454,26.99339 -40.79404,50.63537 -62.31881,54.07029 -5.68333,0.90695 -12.94896,2.19069 -16.14583,2.85276 -4.95042,1.02522 -5.8125,0.0975 -5.8125,-6.25483 z"
         id="path5141"
         inkscape:connector-curvature="0" />
      <path
         style="fill-opacity:1"
         d="M 299.19049,776.49279 C 259.93892,762.36388 215.3024,693.16645 195.38325,615.56635 c -5.172,-20.14884 -6.4471,-31.5911 -6.56573,-58.9184 -0.17305,-39.86386 4.10043,-61.35197 17.75846,-89.29394 17.05172,-34.88487 44.46936,-57.10236 78.05776,-63.25298 19.11308,-3.49993 30.81035,-2.14542 69.02074,7.99241 35.79448,9.49685 43.48354,9.47431 74.66693,-0.2189 47.12204,-14.64767 71.81436,-15.04497 100.84721,-1.62262 15.96562,7.38116 34.7643,21.94859 41.27743,31.98659 4.25346,6.5554 4.16503,6.7246 -12.76851,24.43714 -35.6389,37.27842 -43.40078,81.37265 -22.32856,126.84564 9.14906,19.74328 29.69558,42.64029 44.18294,49.23743 11.92539,5.43046 11.94714,4.91756 -1.46388,34.51473 -11.79343,26.02727 -35.10504,61.43447 -50.26526,76.34613 -25.77792,25.35532 -45.75876,28.96061 -86.84513,15.67009 -41.91262,-13.5578 -52.30196,-13.17286 -97.85049,3.62551 -19.2528,7.10047 -31.38433,8.08874 -43.91667,3.57762 z m 84.00318,-373.27176 c 0.0969,-12.33481 7.71797,-41.27835 14.61299,-55.49825 9.91235,-20.44267 26.77382,-36.71255 48.61888,-46.9131 26.22303,-12.24483 31.3815,-13.02517 33.36437,-5.04716 2.37795,9.56765 -4.95595,41.30124 -12.99006,56.20768 -17.79716,33.02072 -41.7064,50.98659 -73.96352,55.57767 -8.66667,1.2335 -9.68278,0.77756 -9.64266,-4.32684 z"
         id="path5139"
         inkscape:connector-curvature="0" />
      <path
         style="fill-opacity:1"
         d="m 300.17806,776.23045 c -30.53831,-11.46991 -54.17307,-39.57921 -81.22932,-96.60769 -24.50127,-51.64318 -33.62486,-98.12585 -29.18419,-148.68698 6.06253,-69.02749 44.65924,-119.50883 96.92791,-126.77379 18.18835,-2.52804 40.50309,0.34656 70.21589,9.04529 29.76624,8.71437 42.08721,8.25137 78.54895,-2.95175 27.9087,-8.57514 32.8641,-9.33579 54.42703,-8.35447 18.4256,0.83854 26.8955,2.56466 37.93116,7.73017 14.77881,6.9176 33.12611,21.10371 41.95775,32.4417 l 5.12945,6.58514 -17.13838,17.92681 c -35.54047,37.17545 -43.83986,82.90844 -23.08555,127.21076 8.33924,17.80098 31.10569,42.70287 44.70087,48.8937 12.06298,5.49313 12.09868,4.63804 -1.44863,34.69374 -11.69261,25.94088 -33.64887,59.11294 -49.88024,75.36024 -26.21833,26.24412 -45.32081,29.79379 -87.28461,16.21944 -40.49791,-13.10018 -53.19466,-12.74106 -94.55453,2.67437 -19.85666,7.40086 -34.63298,8.87529 -46.03356,4.59332 z M 384.7516,394.25449 c 4.87648,-40.17923 23.09862,-71.37855 51.56199,-88.28269 8.40834,-4.99364 37.53486,-16.7187 41.53132,-16.7187 0.488,0 0.88725,6.81563 0.88725,15.14584 0,50.58166 -44.28252,102.24702 -87.6362,102.24702 l -7.84829,0 1.50393,-12.39147 z"
         id="path5137"
         inkscape:connector-curvature="0" />
      <path
         style="fill-opacity:1"
         d="m 304.35716,777.33457 c -28.64777,-7.33684 -56.13632,-37.97706 -83.30734,-92.85885 -22.73066,-45.91284 -31.65099,-83.00554 -31.65099,-131.61176 0,-53.89017 14.6676,-93.50082 45.35841,-122.49281 30.0752,-28.41046 61.65229,-33.44423 116.09992,-18.50773 36.73283,10.07684 47.21964,9.87753 84.60014,-1.60789 27.94386,-8.58594 32.86057,-9.33885 54.68986,-8.37472 20.46953,0.90407 26.40864,2.26768 40.51449,9.30209 9.6084,4.7916 22.43742,14.30193 30.64095,22.71458 l 14.1121,14.47184 -16.20504,16.31273 c -37.33942,37.58757 -45.96887,86.46218 -23.34011,132.19152 8.89785,17.98125 28.65971,39.1745 42.69147,45.78371 5.47956,2.58095 10.26333,4.93627 10.6306,5.23403 0.3673,0.29773 -2.79336,9.01731 -7.0237,19.37684 -18.18917,44.54284 -52.91989,90.66511 -77.89631,103.44606 -16.92427,8.66047 -32.70608,8.27294 -62.35182,-1.53114 -13.14279,-4.34643 -31.48859,-8.6039 -40.76844,-9.46108 -14.90332,-1.37663 -20.02876,-0.47067 -43.91667,7.76261 -30.7923,10.613 -41.85313,12.67337 -52.87752,9.84997 z m 80.363,-380.11738 c 7.62549,-56.82548 33.07579,-89.61922 80.4495,-103.66246 l 13.5625,-4.02041 0,13.97499 c 0,37.48191 -25.62457,79.35345 -59.06151,96.50875 -4.77757,2.4512 -14.90196,5.10453 -22.49864,5.89629 l -13.81212,1.43955 1.36027,-10.13671 z"
         id="path5135"
         inkscape:connector-curvature="0" />
      <path
         style="fill-opacity:1"
         d="m 305.64883,777.1655 c -19.031,-3.62569 -35.20832,-16.14807 -54.14848,-41.91473 -39.54716,-53.80091 -62.15444,-119.96567 -62.05667,-181.62133 0.0815,-51.40852 13.07151,-89.55891 40.3151,-118.40177 30.33975,-32.12077 62.80136,-38.45572 120.17162,-23.45175 17.55972,4.59237 37.22143,8.32064 43.69271,8.28505 6.47127,-0.0356 23.32752,-3.93951 37.45833,-8.67538 22.78926,-7.63771 28.90334,-8.61305 54.10905,-8.6317 26.7529,-0.0198 29.39981,0.4669 45.20834,8.31247 9.88303,4.90483 22.52938,14.22298 30.73738,22.6481 l 13.94573,14.3146 -16.01881,16.17628 c -37.27517,37.64164 -45.85339,86.11156 -23.39363,132.1823 9.18383,18.8384 28.39695,39.56904 43.28406,46.70282 l 10.14839,4.86304 -3.21147,9.23274 c -10.92068,31.39612 -38.75171,76.50167 -59.32909,96.15422 -27.7053,26.46012 -44.95416,28.99664 -92.52989,13.60696 -32.56092,-10.53273 -44.91884,-10.41257 -77.74475,0.75601 -30.36008,10.32963 -38.29837,11.81295 -50.63792,9.46207 z m 80.08333,-381.69032 c 0,-14.46803 7.45612,-39.50065 16.30949,-54.75631 12.91708,-22.25803 37.81832,-40.20656 67.11402,-48.37501 l 9.57649,-2.67019 0,14.22002 c 0,35.92772 -26.21133,78.8972 -58.36685,95.68356 -4.39552,2.29462 -13.98614,4.97503 -21.3125,5.95646 l -13.32065,1.78442 0,-11.84295 z"
         id="path5133"
         inkscape:connector-curvature="0" />
    </g>
  </g>
</svg>
