<?xml version="1.0" encoding="UTF-8" standalone="no"?>
<!-- Created with Inkscape (http://www.inkscape.org/) -->

<svg
   xmlns:dc="http://purl.org/dc/elements/1.1/"
   xmlns:cc="http://creativecommons.org/ns#"
   xmlns:rdf="http://www.w3.org/1999/02/22-rdf-syntax-ns#"
   xmlns:svg="http://www.w3.org/2000/svg"
   xmlns="http://www.w3.org/2000/svg"
   xmlns:sodipodi="http://sodipodi.sourceforge.net/DTD/sodipodi-0.dtd"
   xmlns:inkscape="http://www.inkscape.org/namespaces/inkscape"
   width="210mm"
   height="297mm"
   viewBox="0 0 744.09448819 1052.3622047"
   id="svg5184"
   version="1.1"
   inkscape:version="0.91 r13725"
   sodipodi:docname="bash.svg">
  <defs
     id="defs5186" />
  <sodipodi:namedview
     id="base"
     pagecolor="#ffffff"
     bordercolor="#666666"
     borderopacity="1.0"
     inkscape:pageopacity="0.0"
     inkscape:pageshadow="2"
     inkscape:zoom="0.35"
     inkscape:cx="375"
     inkscape:cy="520"
     inkscape:document-units="px"
     inkscape:current-layer="layer1"
     showgrid="false"
     inkscape:window-width="1600"
     inkscape:window-height="847"
     inkscape:window-x="-8"
     inkscape:window-y="-8"
     inkscape:window-maximized="1" />
  <metadata
     id="metadata5189">
    <rdf:RDF>
      <cc:Work
         rdf:about="">
        <dc:format>image/svg+xml</dc:format>
        <dc:type
           rdf:resource="http://purl.org/dc/dcmitype/StillImage" />
        <dc:title></dc:title>
      </cc:Work>
    </rdf:RDF>
  </metadata>
  <g
     inkscape:label="Camada 1"
     inkscape:groupmode="layer"
     id="layer1">
    <g
       id="g5203"
       transform="matrix(1.0943293,0,0,1.1001786,-34.035812,-45.960906)">
      <path
         style="fill-opacity:1"
         d="M 90.440891,799.29134 C 89.21823,797.89969 88.217872,688.63196 88.217872,556.47413 l 0,-240.28689 287.745728,0 287.74573,0 -0.8511,241.85536 -0.85109,241.85536 -284.67161,0.96185 c -156.5694,0.52903 -285.671982,-0.17692 -286.894639,-1.56847 z m 180.380929,-85.03088 0.94248,-38.58393 35.55178,-1.06842 35.55178,-1.06842 0,39.65235 0,39.65235 33.07143,0 33.07143,0 0,-39.525 0,-39.525 34.725,0 34.725,0 0,-39.525 0,-39.525 -34.725,0 -34.725,0 0,-39.52501 0,-39.525 34.725,0 34.725,0 0,-39.525 0,-39.525 -34.725,0 -34.725,0 0,-39.525 0,-39.525 -33.07143,0 -33.07143,0 0,39.525 0,39.525 -36.37857,0 -36.37857,0 0,-39.525 0,-39.525 -32.95954,0 -32.95954,0 -0.93867,40.46608 -0.93867,40.46607 -33.89822,1.07275 -33.89821,1.07276 0,37.51117 0,37.51117 34.725,0 34.725,0 0,39.525 0,39.52501 -34.725,0 -34.725,0 0,39.525 0,39.525 34.725,0 34.725,0 0,39.525 0,39.525 32.95573,0 32.95574,0 0.94248,-38.58393 z m 2.59605,-159.04108 0,-39.525 34.725,0 34.72499,0 0,39.525 0,39.52501 -34.72499,0 -34.725,0 0,-39.52501 z m 343.94284,159.98215 0,-37.64286 -33.07142,0 -33.07143,0 0,37.64286 0,37.64286 33.07143,0 33.07142,0 0,-37.64286 z m 0,-239.03215 0,-118.575 -33.07142,0 -33.07143,0 0,118.575 0,118.57501 33.07143,0 33.07142,0 0,-118.57501 z"
         id="path5219"
         inkscape:connector-curvature="0" />
      <path
         style="fill-opacity:1"
         d="m 90.422635,795.50628 c -2.744918,-3.12432 -2.861462,-459.20697 -0.120317,-470.8494 l 1.994131,-8.46964 284.028551,0 284.02857,0 0,240.91429 0,240.91428 -283.86308,0 c -156.12471,0 -284.855238,-1.12928 -286.067855,-2.50953 z m 182.284135,-83.12797 0.94248,-38.58392 34.60931,0 34.6093,0 0,39.525 0,39.525 33.07143,0 33.07143,0 0,-39.525 0,-39.525 34.725,0 34.725,0 0,-39.525 0,-39.525 -34.725,0 -34.725,0 0,-39.52501 0,-39.525 34.725,0 34.725,0 0,-39.525 0,-39.525 -34.725,0 -34.725,0 0,-39.525 0,-39.525 -33.07143,0 -33.07143,0 0,39.525 0,39.525 -36.37857,0 -36.37857,0 0,-39.65668 0,-39.65669 -33.51871,1.07276 -33.51872,1.07276 0.63607,38.58393 0.63608,38.58392 -34.91379,0 -34.91378,0 0,39.39332 0,39.3933 33.89821,1.07278 33.89822,1.07275 0,37.64285 0,37.64286 -33.89822,1.07275 -33.89821,1.07278 0,39.39329 0,39.39333 34.725,0 34.725,0 0,39.65667 0,39.65671 33.89821,-1.07278 33.89822,-1.07275 0.94247,-38.58393 z m 0.7111,-157.02725 0,-39.65668 34.84069,0 34.84071,0 -0.94251,38.58393 -0.94247,38.58393 -33.89821,1.07275 -33.89821,1.07278 0,-39.65671 z m 343.94284,157.96833 0,-39.525 -33.07142,0 -33.07143,0 0,39.525 0,39.525 33.07143,0 33.07142,0 0,-39.525 z m 0,-237.15001 0,-118.575 -33.07142,0 -33.07143,0 0,118.575 0,118.57501 33.07143,0 33.07142,0 0,-118.57501 z"
         id="path5217"
         inkscape:connector-curvature="0" />
      <path
         style="fill-opacity:1"
         d="m 91.525015,555.21938 0,-239.03214 284.414275,0 284.41428,0 0,239.03214 0,239.03215 -284.41428,0 -284.414275,0 0,-239.03215 z m 181.892855,157.96833 0,-39.65671 33.89821,1.07278 33.89821,1.07275 0.94247,38.58393 0.94251,38.58393 32.95571,0 32.95574,0 0,-39.525 0,-39.525 34.725,0 34.725,0 0,-39.525 0,-39.525 -34.725,0 -34.725,0 0,-39.52501 0,-39.525 34.725,0 34.725,0 0,-39.525 0,-39.525 -34.725,0 -34.725,0 0,-39.65668 0,-39.65669 -33.89821,1.07276 -33.89822,1.07276 0,38.58887 0,38.58887 -33.78252,-0.005 -33.78252,-0.005 -0.94248,-38.58392 -0.94247,-38.58393 -35.55179,-1.06843 -35.55178,-1.06842 0,39.65235 0,39.65235 -33.07143,0 -33.07143,0 0,39.525 0,39.525 33.07143,0 33.07143,0 0,39.525 0,39.52501 -33.07143,0 -33.07143,0 0,39.39332 0,39.39329 33.89821,1.07278 33.89822,1.07275 0.94248,38.58393 0.94248,38.58393 34.6093,0 34.60931,0 0,-39.65668 z m 0,-157.96833 0,-39.525 33.07142,0 33.07143,0 0,39.525 0,39.52501 -33.07143,0 -33.07142,0 0,-39.52501 z m 343.94284,158.10001 0,-39.525 -33.07142,0 -33.07143,0 0,39.525 0,39.525 33.07143,0 33.07142,0 0,-39.525 z m 0,-237.15001 0,-118.575 -33.07142,0 -33.07143,0 0,118.575 0,118.57501 33.07143,0 33.07142,0 0,-118.57501 z"
         id="path5215"
         inkscape:connector-curvature="0" />
      <path
         style="fill-opacity:1"
         d="m 91.525015,555.21938 0,-239.03214 284.414275,0 284.41428,0 0,239.03214 0,239.03215 -284.41428,0 -284.414275,0 0,-239.03215 z m 181.892855,157.96833 0,-39.65671 33.89821,1.07278 33.89821,1.07275 0.94247,38.58393 0.94251,38.58393 32.95571,0 32.95574,0 0,-39.525 0,-39.525 34.725,0 34.725,0 0,-39.525 0,-39.525 -34.725,0 -34.725,0 0,-39.52501 0,-39.525 34.725,0 34.725,0 0,-39.525 0,-39.525 -34.725,0 -34.725,0 0,-39.525 0,-39.525 -34.725,0 -34.725,0 0,39.525 0,39.525 -33.07143,0 -33.07142,0 0,-39.525 0,-39.525 -36.37857,0 -36.37857,0 0,39.525 0,39.525 -33.07143,0 -33.07143,0 0,39.525 0,39.525 33.07143,0 33.07143,0 0,39.525 0,39.52501 -33.07143,0 -33.07143,0 0,39.525 0,39.525 33.07143,0 33.07143,0 0,37.01546 c 0,20.35854 0.99214,38.14479 2.20476,39.525 1.21262,1.38025 17.58297,2.50954 36.37857,2.50954 l 34.17381,0 0,-39.65668 z m 0,-157.96833 0,-39.525 33.07142,0 33.07143,0 0,39.525 0,39.52501 -33.07143,0 -33.07142,0 0,-39.52501 z m 343.94284,158.10001 0,-39.525 -33.07142,0 -33.07143,0 0,39.525 0,39.525 33.07143,0 33.07142,0 0,-39.525 z m 0,-237.15001 0,-118.575 -33.07142,0 -33.07143,0 0,118.575 0,118.57501 33.07143,0 33.07142,0 0,-118.57501 z"
         id="path5213"
         inkscape:connector-curvature="0" />
      <path
         style="fill-opacity:1"
         d="m 91.525015,555.21938 0,-239.03214 284.414275,0 284.41428,0 0,239.03214 0,239.03215 -284.41428,0 -284.414275,0 0,-239.03215 z m 181.892855,159.04108 0,-38.58393 33.07142,0 33.07143,0 0,38.71127 0,38.71128 35.17186,-1.06842 35.17189,-1.06842 -0.63566,-38.58393 -0.63567,-38.58392 36.56738,0 36.56734,0 0,-39.39766 0,-39.39765 -35.55178,-1.06842 -35.55179,-1.06842 -0.94247,-38.58393 -0.9425,-38.58393 36.60997,0 36.60997,0 -0.9425,-38.58392 -0.94247,-38.58393 -35.55179,-1.06843 -35.55178,-1.06842 0,-39.39765 0,-39.39765 -34.725,0 -34.725,0 0,39.525 0,39.525 -33.07143,0 -33.07142,0 0,-39.525 0,-39.525 -36.37857,0 -36.37857,0 0,39.525 0,39.525 -33.07143,0 -33.07143,0 0,39.525 0,39.525 33.07143,0 33.07143,0 0,39.525 0,39.52501 -33.07143,0 -33.07143,0 0,39.525 0,39.525 33.07143,0 33.07143,0 0,39.525 0,39.525 36.37857,0 36.37857,0 0,-38.58393 z m 0,-159.04108 0,-39.525 33.07142,0 33.07143,0 0,39.525 0,39.52501 -33.07143,0 -33.07142,0 0,-39.52501 z m 343.94284,158.10001 0,-39.525 -33.07142,0 -33.07143,0 0,39.525 0,39.525 33.07143,0 33.07142,0 0,-39.525 z m 0,-237.15001 0,-118.575 -32.98044,0 -32.98045,0 -0.91777,118.57695 -0.91776,118.57697 33.89821,-0.002 33.89821,-0.002 0,-118.57501 z"
         id="path5211"
         inkscape:connector-curvature="0" />
      <path
         style="fill-opacity:1"
         d="m 91.525015,555.21938 0,-239.03214 284.414275,0 284.41428,0 0,239.03214 0,239.03215 -284.41428,0 -284.414275,0 0,-239.03215 z m 181.892855,159.98215 0,-37.64286 33.07142,0 33.07143,0 0,37.64286 0,37.64286 36.37857,0 36.37857,0 0,-39.525 0,-39.525 34.725,0 34.725,0 0,-39.525 0,-39.525 -34.725,0 -34.725,0 0,-39.52501 0,-39.525 34.725,0 34.725,0 0,-39.525 0,-39.525 -36.37857,0 -36.37857,0 0,-39.525 0,-39.525 -34.725,0 -34.725,0 0,39.525 0,39.525 -33.07143,0 -33.07142,0 0,-39.525 0,-39.525 -36.37857,0 -36.37857,0 0,39.525 0,39.525 -32.85866,0 -32.85865,0 -1.03956,39.53295 -1.03956,39.53294 33.89821,-0.008 33.89822,-0.008 0,39.525 0,39.52501 -33.07143,0 -33.07143,0 0,39.525 0,39.525 33.07143,0 33.07143,0 0,39.525 0,39.525 36.37857,0 36.37857,0 0,-37.64286 z m 0,-159.98215 0,-39.525 33.07142,0 33.07143,0 0,39.525 0,39.52501 -33.07143,0 -33.07142,0 0,-39.52501 z m 343.94284,157.96833 0,-39.65671 -33.89821,1.07278 -33.89821,1.07275 -0.94247,38.58393 -0.94251,38.58393 34.84072,0 34.84068,0 0,-39.65668 z m 0,-237.01833 0,-118.575 -34.725,0 -34.72499,0 0,118.575 0,118.57501 34.72499,0 34.725,0 0,-118.57501 z"
         id="path5209"
         inkscape:connector-curvature="0" />
      <path
         style="fill-opacity:1"
         d="m 91.525015,555.21938 0,-239.03214 284.414275,0 284.41428,0 0,239.03214 0,239.03215 -284.41428,0 -284.414275,0 0,-239.03215 z m 181.892855,159.98215 0,-37.64286 33.07142,0 33.07143,0 0,37.64286 0,37.64286 36.37857,0 36.37857,0 0,-39.525 0,-39.525 34.725,0 34.725,0 0,-39.525 0,-39.525 -34.725,0 -34.725,0 0,-39.52501 0,-39.525 34.725,0 34.725,0 0,-39.525 0,-39.525 -36.37857,0 -36.37857,0 0,-39.525 0,-39.525 -34.725,0 -34.725,0 0,39.525 0,39.525 -33.07143,0 -33.07142,0 0,-39.525 0,-39.525 -36.37857,0 -36.37857,0 0,39.39332 0,39.39331 -33.89822,1.07276 -33.89821,1.07276 -0.94248,38.58393 -0.94248,38.58392 34.84069,0 34.8407,0 0,39.525 0,39.52501 -34.83689,0 -34.83688,0 0.93867,40.46607 0.93867,40.46607 33.89821,1.07274 33.89822,1.07279 0,37.51114 0,37.51119 36.37857,0 36.37857,0 0,-37.64286 z m 32.24464,-123.26342 -32.24464,-1.23062 0,-37.50655 0,-37.50656 33.07142,0 33.07143,0 0,39.525 c 0,21.73876 -0.37205,39.17048 -0.82678,38.73718 -0.45474,-0.43331 -15.33688,-1.34159 -33.07143,-2.01845 z m 311.6982,121.38128 0,-39.525 -34.725,0 -34.72499,0 0,39.525 0,39.525 34.72499,0 34.725,0 0,-39.525 z m 0,-237.15001 0,-118.575 -34.725,0 -34.72499,0 0,118.575 0,118.57501 34.72499,0 34.725,0 0,-118.57501 z"
         id="path5207"
         inkscape:connector-curvature="0" />
      <path
         style="fill-opacity:1"
         d="m 91.525015,555.21938 0,-239.03214 284.414275,0 284.41428,0 0,239.03214 0,239.03215 -284.41428,0 -284.414275,0 0,-239.03215 z m 181.892855,159.98215 0,-37.64286 33.07142,0 33.07143,0 0,37.64286 0,37.64286 36.37857,0 36.37857,0 0,-39.525 0,-39.525 34.725,0 34.725,0 0,-39.525 0,-39.525 -34.725,0 -34.725,0 0,-39.52501 0,-39.525 34.725,0 34.725,0 0,-39.525 0,-39.525 -35.55178,0.008 -35.55179,0.008 1.03957,-39.53294 1.03957,-39.53287 -36.59136,0 -36.59135,0 0,39.525 0,39.525 -33.07143,0 -33.07142,0 0,-39.525 0,-39.525 -36.37857,0 -36.37857,0 0,39.525 0,39.525 -34.725,0 -34.725,0 0,39.525 0,39.525 34.725,0 34.725,0 0,39.525 0,39.52501 -34.83689,0 -34.83688,0 0.93867,40.46607 0.93867,40.46607 33.89821,1.07274 33.89822,1.07279 0,37.51114 0,37.51119 36.37857,0 36.37857,0 0,-37.64286 z m 0,-161.86429 0,-37.64286 33.07142,0 33.07143,0 0,37.64286 0,37.64286 -33.07143,0 -33.07142,0 0,-37.64286 z m 343.94284,159.98215 0,-39.525 -34.725,0 -34.72499,0 0,39.525 0,39.525 34.72499,0 34.725,0 0,-39.525 z m 0,-235.26786 0,-120.45715 -34.725,0 -34.72499,0 0,117.94762 c 0,64.87121 0.99214,119.07692 2.20477,120.45713 1.2126,1.38026 16.83884,2.50954 34.725,2.50954 l 32.52022,0 0,-120.45714 z"
         id="path5205"
         inkscape:connector-curvature="0" />
    </g>
  </g>
</svg>
