<?xml version="1.0" encoding="UTF-8" standalone="no"?>
<!-- Created with Inkscape (http://www.inkscape.org/) -->

<svg
   xmlns:dc="http://purl.org/dc/elements/1.1/"
   xmlns:cc="http://creativecommons.org/ns#"
   xmlns:rdf="http://www.w3.org/1999/02/22-rdf-syntax-ns#"
   xmlns:svg="http://www.w3.org/2000/svg"
   xmlns="http://www.w3.org/2000/svg"
   xmlns:sodipodi="http://sodipodi.sourceforge.net/DTD/sodipodi-0.dtd"
   xmlns:inkscape="http://www.inkscape.org/namespaces/inkscape"
   width="210mm"
   height="297mm"
   viewBox="0 0 744.09448819 1052.3622047"
   id="svg3412"
   version="1.1"
   inkscape:version="0.91 r13725"
   sodipodi:docname="cobol.svg">
  <defs
     id="defs3414" />
  <sodipodi:namedview
     id="base"
     pagecolor="#ffffff"
     bordercolor="#666666"
     borderopacity="1.0"
     inkscape:pageopacity="0.0"
     inkscape:pageshadow="2"
     inkscape:zoom="0.35"
     inkscape:cx="375"
     inkscape:cy="520"
     inkscape:document-units="px"
     inkscape:current-layer="layer1"
     showgrid="false"
     inkscape:window-width="1600"
     inkscape:window-height="847"
     inkscape:window-x="-8"
     inkscape:window-y="-8"
     inkscape:window-maximized="1" />
  <metadata
     id="metadata3417">
    <rdf:RDF>
      <cc:Work
         rdf:about="">
        <dc:format>image/svg+xml</dc:format>
        <dc:type
           rdf:resource="http://purl.org/dc/dcmitype/StillImage" />
        <dc:title></dc:title>
      </cc:Work>
    </rdf:RDF>
  </metadata>
  <g
     inkscape:label="Camada 1"
     inkscape:groupmode="layer"
     id="layer1">
    <path
       style="fill:#000000"
       d="M 46.622662,657.43853 C 24.510513,651.39227 25.269768,656.6213 25.269768,510.37929 c 0,-126.94079 0.24185,-132.18212 6.432184,-139.34228 8.223265,-9.5117 40.652564,-13.34285 82.341658,-9.72768 l 30.22156,2.62074 -0.77036,50.90456 -0.77037,50.90459 -20.93826,1.10062 -20.93824,1.10062 0,-41.1145 0,-41.11449 -14.47242,0 -14.472417,0 0,122.76237 0,122.76242 8.081993,2.34765 c 15.118874,4.39175 17.64675,-2.67788 17.64675,-49.35242 l 0,-42.51286 23.061914,1.09362 23.06194,1.09362 -0.78674,47.94888 c -0.45796,27.9129 -2.32433,50.79846 -4.46645,54.76831 -6.7616,12.53096 -61.878419,19.01891 -91.879848,10.81547 z m 145.221618,-1.05834 c -19.35354,-8.50292 -18.63427,-2.86539 -18.63427,-146.05436 l 0,-131.84908 7.32554,-8.47987 c 6.92332,-8.01424 9.78801,-8.47985 52.17217,-8.47985 64.86292,0 59.26218,-12.90985 60.46338,139.37029 0.53112,67.33302 -0.27597,128.00755 -1.79351,134.83222 -4.09523,18.41663 -15.40792,23.38729 -55.45378,24.3656 -20.48936,0.50057 -37.82359,-0.9564 -44.07953,-3.70495 z m 53.21159,-30.76058 c 4.75809,-12.08632 5.21707,-216.29261 0.51828,-230.59627 -2.69722,-8.21072 -4.895,-9.59634 -13.6684,-8.61733 l -10.45435,1.16657 -0.84936,120.72009 c -0.66205,94.10123 0.0471,121.37868 3.21609,123.70686 8.13149,5.97398 17.47985,3.16567 21.23774,-6.37992 z m 248.15532,31.14278 c -6.19096,-2.04716 -13.06538,-5.45121 -15.27643,-7.56453 -3.08099,-2.94485 -4.02011,-35.33892 -4.02011,-138.67085 0,-132.34276 0.12477,-134.95913 6.76985,-141.91918 5.97218,-6.25535 12.0245,-7.0908 51.36811,-7.0908 40.34485,0 45.21321,0.71166 51.04554,7.46183 6.20335,7.1796 6.45586,12.50738 6.67588,140.84775 0.15464,90.27777 -0.89204,134.9488 -3.23904,138.22179 -8.50821,11.86513 -67.21596,17.34689 -93.3238,8.71399 z m 47.48267,-24.76286 c 3.16901,-2.32818 3.87817,-29.60563 3.2161,-123.70686 L 543.06063,387.57258 532.822,386.42465 c -7.69259,-0.86249 -11.1251,0.76913 -13.80354,6.56138 -5.58317,12.07408 -3.08907,227.8625 2.72732,235.9653 4.7493,6.61617 12.41334,7.84912 18.94808,3.0482 z M 321.15026,520.87741 c 0,-75.36488 -1.113,-141.63328 -2.47332,-147.26316 l -2.47336,-10.23611 54.60468,0 54.60468,0 8.17039,10.19808 c 7.83131,9.77483 8.1704,12.10217 8.1704,56.07801 0,46.14211 -2.66651,60.27943 -11.36948,60.27943 -7.29274,0 -5.62141,7.12269 4.93728,21.04091 l 9.64828,12.71812 0,56.91606 c 0,56.35303 -0.0821,57.00537 -8.29029,65.93993 -7.98584,8.69243 -10.25929,9.06664 -61.90978,10.1898 l -53.61948,1.16595 0,-137.02702 z m 70.81655,102.12566 c 0.9862,-4.60624 1.37559,-30.08374 0.86528,-56.61662 l -0.9278,-48.24166 -10.34453,-2.44326 c -5.68948,-1.34381 -11.11661,-1.54964 -12.06034,-0.45742 -0.94371,1.09222 -1.71582,27.66915 -1.71582,59.05992 l 0,57.07403 11.19506,0 c 8.93433,0 11.55714,-1.69122 12.98815,-8.37499 z m -1.78373,-136.54692 c 4.77383,-10.32371 4.33159,-90.6513 -0.53006,-96.27801 -2.12262,-2.45667 -7.91158,-4.46667 -12.86437,-4.46667 l -9.00505,0 0,53.97221 0,53.9722 9.53511,0 c 6.13559,0 10.72213,-2.56693 12.86437,-7.19973 z m 230.0638,23.94735 0,-147.02738 24.12071,-9.8e-4 24.12069,-10e-4 -0.92084,134.34789 -0.92082,134.34788 21.82542,-1.27648 21.82544,-1.27646 0.99801,13.95833 0.99828,13.95833 -46.02356,-10e-4 -46.02333,-10e-4 0,-147.02737 z"
       id="path3442"
       inkscape:connector-curvature="0" />
  </g>
</svg>
