<?xml version="1.0" encoding="UTF-8" standalone="no"?>
<!-- Created with Inkscape (http://www.inkscape.org/) -->

<svg
   xmlns:dc="http://purl.org/dc/elements/1.1/"
   xmlns:cc="http://creativecommons.org/ns#"
   xmlns:rdf="http://www.w3.org/1999/02/22-rdf-syntax-ns#"
   xmlns:svg="http://www.w3.org/2000/svg"
   xmlns="http://www.w3.org/2000/svg"
   xmlns:sodipodi="http://sodipodi.sourceforge.net/DTD/sodipodi-0.dtd"
   xmlns:inkscape="http://www.inkscape.org/namespaces/inkscape"
   width="210mm"
   height="297mm"
   viewBox="0 0 744.09448819 1052.3622047"
   id="svg3465"
   version="1.1"
   inkscape:version="0.91 r13725"
   sodipodi:docname="coldfusion.svg">
  <defs
     id="defs3467" />
  <sodipodi:namedview
     id="base"
     pagecolor="#ffffff"
     bordercolor="#666666"
     borderopacity="1.0"
     inkscape:pageopacity="0.0"
     inkscape:pageshadow="2"
     inkscape:zoom="0.49497475"
     inkscape:cx="254.09651"
     inkscape:cy="644.74604"
     inkscape:document-units="px"
     inkscape:current-layer="layer1"
     showgrid="false"
     inkscape:window-width="1600"
     inkscape:window-height="847"
     inkscape:window-x="-8"
     inkscape:window-y="-8"
     inkscape:window-maximized="1" />
  <metadata
     id="metadata3470">
    <rdf:RDF>
      <cc:Work
         rdf:about="">
        <dc:format>image/svg+xml</dc:format>
        <dc:type
           rdf:resource="http://purl.org/dc/dcmitype/StillImage" />
        <dc:title></dc:title>
      </cc:Work>
    </rdf:RDF>
  </metadata>
  <g
     inkscape:label="Camada 1"
     inkscape:groupmode="layer"
     id="layer1">
    <path
       style="fill:#000000"
       d="M 144.53112,752.69519 C 102.25585,737.81343 70.554476,707.86961 55.951409,669.02671 42.726896,633.8504 42.576486,619.73691 55.063864,585.73621 67.956893,550.63183 82.561618,530.8837 106.20174,516.58844 c 10.63149,-6.42901 20.49559,-13.16254 21.91973,-14.96345 5.78395,-7.3134 67.10666,-15.31071 117.40091,-15.31071 l 53.51999,0 0,45.23853 0,45.23852 -21.10137,-2.00268 c -11.60605,-1.10147 -41.16397,-0.33937 -65.6846,1.69324 -39.44731,3.27015 -46.26466,5.36928 -59.17965,18.22226 -18.95502,18.8642 -22.35525,42.03634 -1.52387,62.77395 l 15.92972,15.85802 83.07087,-0.19957 c 104.48343,-0.25072 116.48476,-4.9892 156.05513,-61.61587 14.79327,-27.69587 28.79771,-59.88943 39.41292,-86.74034 53.12885,-137.01881 105.25288,-198.63431 183.55123,-216.97363 54.00024,-12.64815 52.74682,-13.51077 52.74682,36.30413 l 0,43.36059 -22.01255,3.67461 c -39.05245,12.56409 -91.4737,50.49839 -97.11415,92.25187 0,1.6039 16.31518,2.91616 36.25595,2.91616 l 36.25595,0 0,45.34661 0,45.34661 -33.59455,-2.12886 c -18.47728,-1.17087 -43.53242,-0.62371 -55.67878,1.21593 -21.79626,3.30118 -22.37966,3.93994 -44.73281,48.98078 -23.47313,47.29729 -49.37106,78.34072 -86.64881,103.86548 -50.23281,32.27229 -103.37114,35.72268 -161.63317,35.50905 -65.24289,-0.18021 -80.76582,-1.85602 -108.88552,-11.75468 z"
       id="path3484"
       inkscape:connector-curvature="0"
       sodipodi:nodetypes="cssscscccsssscsccsscccscccssscccc" />
  </g>
</svg>
