<?xml version="1.0" encoding="UTF-8" standalone="no"?>
<!-- Created with Inkscape (http://www.inkscape.org/) -->

<svg
   xmlns:dc="http://purl.org/dc/elements/1.1/"
   xmlns:cc="http://creativecommons.org/ns#"
   xmlns:rdf="http://www.w3.org/1999/02/22-rdf-syntax-ns#"
   xmlns:svg="http://www.w3.org/2000/svg"
   xmlns="http://www.w3.org/2000/svg"
   xmlns:sodipodi="http://sodipodi.sourceforge.net/DTD/sodipodi-0.dtd"
   xmlns:inkscape="http://www.inkscape.org/namespaces/inkscape"
   width="210mm"
   height="297mm"
   viewBox="0 0 744.09448819 1052.3622047"
   id="svg5537"
   version="1.1"
   inkscape:version="0.91 r13725"
   sodipodi:docname="computer.svg">
  <defs
     id="defs5539" />
  <sodipodi:namedview
     id="base"
     pagecolor="#ffffff"
     bordercolor="#666666"
     borderopacity="1.0"
     inkscape:pageopacity="0.0"
     inkscape:pageshadow="2"
     inkscape:zoom="0.35"
     inkscape:cx="375"
     inkscape:cy="520"
     inkscape:document-units="px"
     inkscape:current-layer="layer1"
     showgrid="false"
     inkscape:window-width="1600"
     inkscape:window-height="847"
     inkscape:window-x="-8"
     inkscape:window-y="-8"
     inkscape:window-maximized="1" />
  <metadata
     id="metadata5542">
    <rdf:RDF>
      <cc:Work
         rdf:about="">
        <dc:format>image/svg+xml</dc:format>
        <dc:type
           rdf:resource="http://purl.org/dc/dcmitype/StillImage" />
        <dc:title></dc:title>
      </cc:Work>
    </rdf:RDF>
  </metadata>
  <g
     inkscape:label="Camada 1"
     inkscape:groupmode="layer"
     id="layer1">
    <g
       id="g5556"
       transform="translate(-20.000001,37.142853)">
      <path
         style="fill-opacity:1"
         d="M 116.92223,851.04297 C 99.91071,841.7684 92.363179,833.71409 84.183149,816.10558 L 77.911114,802.6043 77.131995,502.88485 C 76.424145,230.58151 76.774071,201.8884 80.957474,189.20479 87.322553,169.9066 100.38673,153.83609 116.90194,144.98877 l 13.95283,-7.47462 150.47142,0.0391 c 140.31155,0.0364 151.23633,0.43873 161.79965,5.9581 16.24788,8.48956 30.3801,23.86946 37.1442,40.42346 5.83116,14.27081 5.86449,16.0598 5.86449,314.6975 0,297.0823 -0.0627,300.49384 -5.7623,314.0385 -6.74182,16.02108 -21.29037,31.63383 -37.24639,39.97091 -10.56332,5.51935 -21.4881,5.92165 -161.79965,5.9581 l -150.47142,0.0391 -13.93254,-7.59592 z M 294.80975,689.00345 c 23.69962,-10.36565 29.54027,-45.96542 11.16181,-68.03321 -18.65405,-22.39872 -52.27886,-10.9972 -59.58195,20.20308 -2.56261,10.948 -2.1512,14.81371 2.8385,26.67112 8.60098,20.43917 27.33959,29.13764 45.58164,21.15901 z m 134.32801,-200.3979 6.83963,-7.86817 0,-134.92475 0,-134.92475 -6.83963,-7.86818 -6.83959,-7.86818 -140.97198,0 -140.97197,0 -6.83961,7.86818 -6.83961,7.86818 0,134.92475 0,134.92475 6.83961,7.86817 6.83961,7.86819 140.97197,0 140.97198,0 6.83959,-7.86819 z M 155.80668,462.9611 c -6.53752,-7.52064 -6.83961,-9.65083 -6.83961,-48.22902 0,-38.5782 0.30209,-40.70839 6.83961,-48.22905 l 6.83961,-7.86818 118.39786,0 118.39785,0 7.50011,7.42151 c 7.46826,7.38996 7.49844,7.59776 7.09986,48.88472 -0.38755,40.14226 -0.62649,41.693 -7.50014,48.67572 l -7.09983,7.2125 -118.39785,0 -118.39786,0 -6.83961,-7.8682 z m 5.69967,-133.84242 c -11.16557,-7.36643 -12.35939,-12.55093 -12.45066,-54.07089 -0.13145,-59.79288 -13.68089,-54.25183 132.661,-54.25183 l 119.85114,0 6.37979,7.81224 c 5.88051,7.20084 6.37559,10.65023 6.32593,44.07638 -0.0295,19.94529 -0.17415,38.13616 -0.32103,40.42417 -0.14685,2.288 -3.58512,7.69738 -7.64035,12.02083 l -7.37319,7.86083 -115.9298,-0.0975 c -81.95292,-0.0689 -117.56316,-1.17507 -121.50283,-3.77425 z m 323.14158,519.50919 c 4.05258,-5.54048 10.74717,-17.44111 14.87686,-26.44583 l 7.50855,-16.37219 0,-307.73333 0,-307.73333 -6.64044,-14.425 c -3.65225,-7.93375 -10.34076,-19.83438 -14.86332,-26.44584 -4.52259,-6.61146 -7.09963,-12.02083 -5.72678,-12.02083 1.37286,0 20.60063,6.58385 42.7284,14.63078 138.04007,50.19932 140.10495,51.13304 160.30906,72.49083 7.20777,7.61936 14.80084,18.49519 16.87347,24.16849 3.05312,8.35716 3.76842,55.72476 3.76842,249.54887 0,268.03596 1.28848,250.95185 -20.56334,272.65263 -14.12629,14.02863 -35.53748,26.76043 -63.0319,37.4808 -27.71895,10.80795 -138.12118,50.2776 -140.63355,50.2776 -1.08557,0 1.34198,-4.53314 5.39457,-10.07365 z"
         id="path5572"
         inkscape:connector-curvature="0" />
      <path
         style="fill-opacity:1"
         d="M 121.7747,853.36382 C 105.03352,846.54753 88.529119,827.68097 81.990884,807.88603 76.69223,791.84399 76.521757,781.9469 76.640168,497.24074 c 0.09869,-237.27843 0.842911,-296.39826 3.85335,-306.10267 5.500306,-17.73072 16.803779,-33.15968 31.646742,-43.19702 l 13.14149,-8.88675 153.46564,-0.90399 153.46565,-0.90399 15.06715,9.05488 c 16.82393,10.11064 31.51016,29.77766 35.94074,48.12989 1.88911,7.82497 2.88788,113.63588 2.89805,307.023 l 0.0167,295.08308 -7.18292,16.58196 c -7.9788,18.41922 -19.24101,30.80382 -36.00795,39.59653 -10.35754,5.43156 -21.69238,5.83212 -160.22421,5.66239 -125.4352,-0.15387 -150.96015,-0.94894 -160.94475,-5.01423 z M 301.01142,685.47378 c 5.99092,-4.25942 10.85158,-11.52285 13.94338,-20.83611 4.45886,-13.43115 4.46152,-15.15536 0.0439,-28.46223 -5.01641,-15.11063 -13.28,-23.29624 -26.61565,-26.36447 -18.01403,-4.14459 -37.00158,10.03601 -41.99345,31.36235 -5.81241,24.83177 11.74024,50.5737 34.60767,50.75401 6.14022,0.0484 14.79356,-2.74184 20.01413,-6.45355 z m 131.48799,-201.69234 6.49576,-11.08949 -0.81226,-130.50161 -0.81227,-130.50159 -6.75536,-8.26861 -6.75539,-8.26862 -141.25038,0 c -138.6799,0 -141.38401,0.12091 -148.59245,6.64377 l -7.34206,6.64377 0,137.37357 0,137.37357 7.37395,6.67262 c 7.28005,6.58768 9.1857,6.66208 149.66431,5.84238 l 142.29038,-0.83024 6.49577,-11.08952 z M 155.80668,462.9611 c -6.53752,-7.52064 -6.83961,-9.65083 -6.83961,-48.22902 0,-38.5782 0.30209,-40.70839 6.83961,-48.22905 l 6.83961,-7.86818 118.6799,0 118.67991,0 6.8396,7.86818 c 6.53754,7.52066 6.83962,9.65085 6.83962,48.22905 0,38.57819 -0.30208,40.70838 -6.83962,48.22902 l -6.8396,7.8682 -118.67991,0 -118.6799,0 -6.83961,-7.8682 z m 1.73371,-138.26953 -8.57332,-8.29884 0,-39.9302 c 0,-38.12095 0.3099,-40.28671 6.83961,-47.79839 l 6.83961,-7.86818 118.17746,0 c 145.92533,0 132.86157,-5.35308 132.86157,54.44216 l 0,41.15461 -8.57333,8.29884 -8.5733,8.29884 -115.2125,0 -115.21248,0 -8.57332,-8.29884 z m 328.832,520.93359 c 9.90444,-14.39515 14.06336,-22.89818 19.26424,-39.38611 1.93088,-6.1214 2.87147,-109.10138 2.81839,-308.57787 -0.0763,-287.12215 -0.29841,-300.0527 -5.41809,-315.55293 -2.93617,-8.88939 -10.08061,-22.81999 -15.87658,-30.95689 -8.06019,-11.31564 -9.25594,-14.3672 -5.08532,-12.97773 2.99901,0.99914 38.0549,13.51882 77.90196,27.82149 100.34739,36.01862 124.25819,50.0559 138.17633,81.11897 5.10516,11.39395 5.32883,21.77073 5.32883,247.22847 0,129.43444 -0.83782,240.15442 -1.86181,246.04437 -4.47722,25.75254 -42.82726,54.26169 -101.23898,75.26032 -53.08789,19.08476 -112.50838,40.3291 -118.30633,42.29753 -4.31755,1.46584 -3.42286,-1.09902 4.29736,-12.31962 z"
         id="path5570"
         inkscape:connector-curvature="0" />
      <path
         style="fill-opacity:1"
         d="M 121.78028,853.42017 C 115.25674,850.73418 104.41249,842.2016 97.681956,834.4589 75.349851,808.76839 76.51786,827.33275 76.51786,498.07652 c 0,-329.27673 -1.170086,-310.68948 21.176507,-336.39665 21.681873,-24.9425 18.662063,-24.56748 189.507343,-23.53399 l 150.16893,0.90842 12.79988,8.65643 c 14.34684,9.70266 26.78854,26.71281 32.14337,43.94608 5.35854,17.24519 5.21225,596.05634 -0.15493,613.35816 -5.50031,17.73073 -16.80378,33.15968 -31.64676,43.19701 l -13.14156,8.88676 -151.86468,0.60252 c -129.91201,0.51542 -153.57924,-0.10354 -163.72568,-4.28109 z M 301.69606,685.51936 c 19.02477,-13.34341 21.8464,-45.42362 5.63552,-64.07239 -19.28377,-22.18372 -48.82049,-14.49821 -59.96061,15.60189 -13.20427,35.67735 24.54434,69.35781 54.32509,48.4705 z m 127.94907,-196.32803 7.72551,-8.88519 0.80642,-128.95369 c 0.44355,-70.92454 0.0981,-132.23602 -0.76749,-136.24774 -0.86566,-4.01173 -4.04991,-10.14235 -7.07609,-13.62362 -5.33519,-6.13751 -9.82991,-6.32957 -148.13107,-6.32957 -142.60537,0 -142.63,0.001 -149.07817,6.96988 l -6.44924,6.96989 0,136.78329 c 0,130.12364 0.25675,137.05059 5.27361,142.27357 2.90048,3.01963 8.85664,6.70477 13.23591,8.1892 4.37927,1.48442 68.43619,2.48299 142.34871,2.21904 l 134.38639,-0.47987 7.72551,-8.88519 z M 160.99189,467.60137 c -10.00642,-4.63799 -12.02482,-13.6863 -12.02482,-53.90621 0,-32.95004 0.74648,-39.38316 5.32492,-45.8899 l 5.32493,-7.56763 120.10851,-0.90041 120.1085,-0.90042 6.92569,7.96721 c 6.64318,7.64221 6.9257,9.61362 6.9257,48.32807 0,38.57819 -0.30208,40.70838 -6.83962,48.22902 l -6.8396,7.8682 -116.46336,-0.2032 C 219.48788,470.51422 164.34,469.15321 160.99189,467.60137 Z m -3.4515,-142.9098 -8.57332,-8.29884 0,-39.9302 c 0,-38.12095 0.3099,-40.28671 6.83961,-47.79839 l 6.83961,-7.86818 118.6799,0 118.67991,0 6.8396,7.86818 c 6.52971,7.51168 6.83962,9.67744 6.83962,47.79839 l 0,39.9302 -8.57333,8.29884 -8.5733,8.29884 -115.2125,0 -115.21248,0 -8.57332,-8.29884 z m 328.36074,522.60654 c 5.161,-6.76202 12.65404,-20.30566 16.65117,-30.09696 l 7.26755,-17.80241 0,-299.71944 0,-299.71945 -6.29194,-17.8849 c -3.46056,-9.8367 -10.90411,-24.08353 -16.54124,-31.65961 -9.43576,-12.68134 -9.71045,-13.5871 -3.46084,-11.41115 8.30298,2.89087 50.08929,17.98623 111.28251,40.20094 66.93961,24.3008 91.06495,40.09516 103.26495,67.60546 5.21216,11.7531 5.40663,20.8567 5.34767,250.33683 -0.0577,224.10927 -0.36258,238.90349 -5.1765,251.09505 -13.16853,33.35015 -39.5253,46.68523 -216.22181,109.39638 -4.27264,1.51642 -3.40431,-0.7987 3.87848,-10.34074 z"
         id="path5568"
         inkscape:connector-curvature="0" />
      <path
         style="fill-opacity:1"
         d="M 126.87375,854.96679 C 110.66291,849.61095 94.943902,834.77371 86.165502,816.54205 L 77.911114,799.39874 77.15776,503.10709 C 76.306379,168.26167 75.135645,187.63107 97.801941,161.55612 c 21.044959,-24.2098 20.237899,-24.1046 184.926879,-24.1046 162.17144,0 160.18903,-0.25603 180.95816,23.37107 22.87444,26.02213 20.96412,-2.94021 21.80735,330.62157 0.85013,336.29089 2.04975,316.33515 -20.60542,342.77076 -21.17997,24.71423 -19.7691,24.52946 -184.7651,24.19749 -85.16497,-0.17118 -147.58763,-1.57482 -153.25006,-3.44562 z M 299.16988,687.95844 c 32.9604,-19.48638 19.83604,-79.23662 -17.41375,-79.27826 -36.66958,-0.041 -50.73489,58.59098 -18.83964,78.53402 9.01269,5.63534 27.34376,6.01167 36.25339,0.74424 z m 130.47698,-198.76721 7.72378,-8.88532 0.78621,-131.31763 c 0.88684,-148.12292 0.95494,-147.548 -18.20634,-153.66963 -6.56407,-2.09707 -59.98627,-3.34357 -143.77935,-3.35481 l -133.33441,-0.0179 -9.47413,10.89889 -9.47412,10.89889 0,131.50239 0,131.50239 7.06138,9.65401 c 3.88376,5.30968 9.83992,10.30451 13.23591,11.09955 3.39599,0.79508 67.27615,1.24959 141.95592,1.01001 l 135.78139,-0.43557 7.72376,-8.88529 z M 160.25549,466.25475 c -9.72623,-6.19638 -10.87304,-11.74222 -11.09257,-53.64189 l -0.19585,-37.38032 8.57332,-8.29884 8.57332,-8.29885 114.1714,0 c 120.04013,0 127.06902,0.77772 131.66929,14.56862 2.2525,6.75271 2.2525,76.3045 0,83.05721 -4.6037,13.80121 -11.62169,14.57448 -131.18645,14.45501 -90.34212,-0.0904 -115.0899,-1.00632 -120.51246,-4.46094 z m -2.7151,-141.56318 -8.57332,-8.29884 0,-37.91954 c 0,-20.85575 0.77891,-40.25462 1.73092,-43.10861 4.60813,-13.81449 11.51353,-14.56862 133.403,-14.56862 l 115.90511,0 6.8396,7.86818 c 6.50953,7.48846 6.83962,9.74356 6.83962,46.72714 0,38.6753 -0.0385,38.90324 -8.14518,48.22904 l -8.14516,9.37009 -115.64064,0 -115.64063,0 -8.57332,-8.29884 z m 328.70083,522.16097 c 4.97395,-6.51696 12.31395,-19.86009 16.31108,-29.65139 l 7.26755,-17.80241 0.85108,-288.5 c 0.61325,-207.87953 -0.0446,-293.85266 -2.35365,-307.65448 -3.75254,-22.42833 -10.50073,-38.7776 -22.48851,-54.48417 -4.7471,-6.21971 -7.99411,-11.30857 -7.21555,-11.30857 0.77855,0 18.77691,6.36601 39.99639,14.14669 21.21948,7.78068 57.3898,20.92684 80.37849,29.21371 63.3217,22.82593 88.50228,39.868 99.29727,67.20377 4.75841,12.04961 5.07724,27.42052 5.12004,246.85527 0.0309,158.92552 -0.92693,238.03539 -2.98569,246.5655 -6.68561,27.70091 -41.35724,52.47915 -105.61138,75.47564 -20.68982,7.40487 -54.97925,19.83675 -76.19873,27.62641 -21.21948,7.78966 -39.21784,14.16301 -39.99639,14.16301 -0.77856,0 2.65406,-5.33206 7.628,-11.84898 z"
         id="path5566"
         inkscape:connector-curvature="0" />
      <path
         style="fill-opacity:1"
         d="M 128.9777,855.61726 C 114.42248,850.45664 98.784426,838.16769 91.60342,826.24716 76.227473,800.72302 76.770871,812.59483 76.655708,499.6793 76.58931,319.26802 77.583515,205.29247 79.285096,198.24642 84.328189,177.36357 96.868584,158.89358 112.94489,148.67096 l 15.12337,-9.61666 153.25793,0 c 171.16647,0 162.53556,-1.08086 183.4451,22.97315 21.50374,24.73753 19.96999,-1.07175 19.96999,336.04907 0,337.12081 1.53375,311.31153 -19.96999,336.04906 -20.81298,23.94297 -12.92039,22.90597 -179.26533,23.55318 -81.993,0.31895 -152.43072,-0.60868 -156.52826,-2.0615 z M 303.29815,685.31847 c 28.64872,-25.924 14.11027,-76.62631 -21.97196,-76.62631 -20.14235,0 -37.61785,19.44724 -37.61785,41.86222 0,11.54038 8.85992,29.07949 17.88928,35.4136 11.87732,8.33198 32.12355,8.01664 41.70053,-0.64951 z m 127.33678,-197.71059 8.12896,-10.46861 0,-129.6236 c 0,-93.67067 -0.92333,-131.95488 -3.32901,-138.02872 -6.93397,-17.5071 -7.23121,-17.54099 -153.83919,-17.54099 -91.24205,0 -137.3092,1.13023 -141.78976,3.47871 -15.72685,8.24324 -15.91743,10.05645 -15.91743,151.438 l 0,129.88585 7.06138,9.65401 c 3.88376,5.30968 9.83992,10.29852 13.23591,11.08628 3.39599,0.78777 67.4073,1.24225 142.24735,1.01001 l 136.07282,-0.4223 8.12897,-10.46864 z M 157.11224,461.4592 c -8.07066,-9.28435 -8.14517,-9.71183 -8.14517,-46.72712 0,-37.0153 0.0745,-37.44277 8.14517,-46.72714 l 8.14518,-9.37009 114.59955,0 c 120.49681,0 127.49521,0.77184 132.09743,14.56862 3.25302,9.75207 1.73923,79.71724 -1.84082,85.0814 -8.05482,12.06879 -12.99187,12.54443 -130.2118,12.54443 l -114.64436,0 -8.14518,-9.3701 z m -2.36991,-140.12053 c -5.03432,-7.36258 -5.77526,-12.89523 -5.77526,-43.12417 0,-37.72787 2.5729,-48.40583 12.97767,-53.8595 4.62784,-2.42568 43.61354,-3.55904 122.42574,-3.55904 l 115.63562,0 6.8396,7.86818 c 6.49616,7.47307 6.83962,9.78547 6.83962,46.04827 0,33.77191 -0.66678,39.15524 -5.77526,46.62626 l -5.77526,8.44618 -120.80861,0 -120.8086,0 -5.77526,-8.44618 z m 331.11046,526.10016 c 5.20904,-6.86755 12.73261,-20.486 16.71904,-30.26326 l 7.24802,-17.77683 0,-301.32222 0,-301.32222 -7.24802,-17.77683 c -3.98643,-9.77725 -11.51,-23.39572 -16.71904,-30.26325 -6.54429,-8.62784 -7.85843,-11.78647 -4.25258,-10.22138 2.87016,1.24577 37.98016,13.89267 78.02223,28.10422 40.04206,14.21155 81.94927,30.862 93.12713,37.00101 25.07759,13.7729 43.47331,33.41074 47.63944,50.85623 4.14455,17.35507 4.28549,469.35427 0.15159,486.47812 -3.97841,16.48012 -21.96755,35.66303 -47.2157,50.34886 -11.49435,6.68583 -53.76094,23.89088 -93.92575,38.23346 -40.16483,14.34262 -75.27484,27.05239 -78.02222,28.24399 -3.23076,1.40122 -1.64975,-2.24417 4.47574,-10.3199 z"
         id="path5564"
         inkscape:connector-curvature="0" />
      <path
         style="fill-opacity:1"
         d="M 129.44347,855.76058 C 109.04459,848.46426 94.633195,834.65905 83.992009,812.22096 l -6.080895,-12.82222 0,-301.32222 0,-301.32222 6.025464,-12.82222 c 7.103096,-15.11543 20.764982,-30.57762 34.378902,-38.90919 9.17132,-5.61275 18.88996,-5.96859 163.01071,-5.96859 152.74383,0 153.29654,0.0237 164.76123,7.07848 15.50842,9.54302 33.00984,33.09743 36.99343,49.78791 2.40623,10.08169 3.05006,90.84291 2.45987,308.56694 -0.89366,329.6627 0.66124,304.98447 -20.76943,329.63795 -20.81298,23.94297 -12.92039,22.90597 -179.26533,23.55318 -81.993,0.31895 -152.22112,-0.54418 -156.06249,-1.91818 z M 305.50052,683.48964 c 30.31003,-31.55527 2.80748,-88.02895 -35.53482,-72.9671 -25.56091,10.04095 -34.33341,44.27269 -17.18132,67.04422 12.80565,17.00112 39.22401,19.96933 52.71614,5.92288 z m 125.13441,-195.88176 8.12896,-10.46861 0,-129.56575 c 0,-74.74188 -1.12842,-132.98005 -2.6668,-137.63479 -5.89129,-17.82555 -7.32968,-17.99277 -154.7709,-17.99277 -146.90064,0 -147.17358,0.0311 -154.1087,17.54099 -2.40538,6.07318 -3.32899,44.31415 -3.32899,137.83334 l 0,129.42823 7.06138,9.65401 c 3.88376,5.30968 9.83992,10.29852 13.23591,11.08628 3.39599,0.78777 67.4073,1.24225 142.24735,1.01001 l 136.07282,-0.4223 8.12897,-10.46864 z M 157.11224,461.4592 c -8.07066,-9.28435 -8.14517,-9.71183 -8.14517,-46.72712 0,-37.0153 0.0745,-37.44277 8.14517,-46.72714 l 8.14518,-9.37009 114.72787,0 c 102.26468,0 115.58545,0.58277 122.62213,5.36455 10.10419,6.86628 11.01234,11.3392 10.95123,53.93823 -0.0546,38.1119 -1.76977,43.81244 -14.91097,49.5601 -4.8152,2.10602 -49.14298,3.33157 -120.50374,3.33157 l -112.88652,0 -8.14518,-9.3701 z m -2.36991,-140.12053 c -5.03432,-7.36258 -5.77526,-12.89523 -5.77526,-43.12417 0,-37.72787 2.5729,-48.40583 12.97767,-53.8595 4.61928,-2.42119 42.87234,-3.55904 119.65095,-3.55904 118.64234,0 125.76454,0.79597 130.35871,14.56862 0.95201,2.85399 1.73092,21.4653 1.73092,41.35848 0,31.73779 -0.7076,37.20429 -5.77526,44.61561 l -5.77526,8.44618 -120.80861,0 -120.8086,0 -5.77526,-8.44618 z m 328.85871,528.75241 c 12.91019,-16.15164 19.07002,-28.7373 23.37869,-47.76711 6.35273,-28.05762 6.35273,-580.43729 0,-608.49489 -4.27367,-18.8752 -10.18689,-31.02789 -23.38337,-48.05681 -6.21932,-8.02546 -6.44578,-8.9834 -1.64159,-6.9438 3.06516,1.3013 39.18162,14.46889 80.25878,29.26131 41.07717,14.79242 82.95596,31.43588 93.06396,36.98545 22.32188,12.25533 41.1246,32.99772 45.19368,49.85578 3.97779,16.47978 4.14025,469.13987 0.17416,485.56498 -3.66359,15.17282 -24.73904,37.77029 -47.66459,51.10684 -9.7725,5.68499 -51.62424,22.40873 -93.00388,37.1639 -41.37964,14.75517 -77.11449,27.6189 -79.41077,28.58602 -2.2963,0.96715 -0.93061,-2.30059 3.03481,-7.26167 z"
         id="path5562"
         inkscape:connector-curvature="0" />
      <path
         style="fill-opacity:1"
         d="M 122.75618,852.31586 C 106.57193,844.97937 95.472147,833.56487 85.325416,813.82374 l -7.414302,-14.425 -0.753643,-294.68787 c -0.845688,-330.67889 -1.810848,-313.8358 19.508387,-340.44262 7.210042,-8.99827 16.357172,-16.05334 26.440862,-20.3935 14.98646,-6.45038 19.55329,-6.61043 163.44732,-5.72812 138.14618,0.84706 148.68127,1.30619 157.78287,6.87626 13.6139,8.33157 27.27582,23.79376 34.3789,38.90919 l 6.02547,12.82222 0,301.32222 0,301.32222 -6.02547,12.82222 c -7.10308,15.11545 -20.765,30.57761 -34.3789,38.9092 -9.11723,5.57965 -19.46735,6.01468 -158.83095,6.67589 -141.60358,0.67182 -149.76366,0.39656 -162.74978,-5.49019 z M 301.66141,686.81303 c 27.04805,-20.13147 20.15653,-68.62293 -11.12989,-78.31442 -21.58992,-6.68784 -46.78745,15.48832 -46.81277,41.1996 -0.0337,34.26501 33.18392,55.5424 57.94266,37.11482 z M 426.72295,493.44097 c 3.33924,-2.54957 7.41451,-8.02684 9.05615,-12.17169 3.83365,-9.6793 4.12682,-259.80606 0.31799,-271.33055 -5.89129,-17.82555 -7.32968,-17.99277 -154.7709,-17.99277 -146.90064,0 -147.17358,0.0311 -154.1087,17.54099 -4.61746,11.65828 -4.74231,261.87046 -0.1357,271.97114 3.39886,7.4525 8.66525,12.07952 17.70551,15.55601 3.06516,1.17872 66.38856,1.89997 140.71866,1.60278 112.66406,-0.45048 136.1556,-1.31149 141.21699,-5.17591 z M 163.89439,467.65073 c -12.35664,-5.7364 -14.92732,-15.01501 -14.92732,-53.87849 0,-35.95443 0.0991,-36.51121 8.14517,-45.7673 l 8.14518,-9.37009 116.06877,0 116.06879,0 8.14516,9.37009 c 8.01795,9.22372 8.14518,9.92238 8.14518,44.72695 0,39.94019 -2.6807,49.89923 -14.73243,54.73228 -10.25641,4.11311 -226.23124,4.28451 -235.0585,0.18656 z m -8.2258,-144.60424 c -4.39201,-5.57526 -5.47202,-12.80952 -6.25695,-41.91109 -1.05203,-39.0046 1.58234,-51.04055 12.41416,-56.71806 4.77161,-2.50103 41.82469,-3.62138 119.76989,-3.62138 118.64234,0 125.76454,0.79597 130.35871,14.56862 0.95201,2.85399 1.73092,21.4653 1.73092,41.35848 0,31.73779 -0.7076,37.20429 -5.77526,44.61561 l -5.77526,8.44618 -120.57898,0 c -118.98982,0 -120.64893,-0.0888 -125.88723,-6.73836 z m 327.93245,527.04459 c 13.03849,-16.31215 19.15986,-28.92226 23.49968,-48.40979 3.72631,-16.73255 4.17926,-57.33072 3.49971,-313.67637 l -0.78058,-294.45618 -6.42736,-14.86135 c -3.53505,-8.17375 -10.79112,-20.72609 -16.12458,-27.89409 l -9.69721,-13.03272 11.94481,4.46238 c 6.56964,2.45431 40.78517,14.66569 76.0345,27.13638 89.24789,31.5746 114.09078,45.3855 128.9636,71.69467 l 7.57529,13.40029 0.8136,235.60833 c 0.59447,172.14475 -0.0616,239.26014 -2.43585,249.16559 -4.09494,17.08459 -23.19019,38.24773 -46.97075,52.05739 -9.4892,5.51051 -51.34093,22.24213 -93.00385,37.18143 -41.66292,14.93927 -77.62955,27.94575 -79.92583,28.90324 -2.2963,0.9575 -0.93061,-2.31812 3.03482,-7.2792 z"
         id="path5560"
         inkscape:connector-curvature="0" />
      <path
         style="fill-opacity:1"
         d="M 124.03777,853.21819 C 117.05445,850.35082 106.01011,841.64534 98.728471,833.26867 75.232708,806.23949 76.51786,825.63442 76.51786,498.07652 c 0,-322.92245 -1.018706,-305.79369 19.805165,-333.00853 7.608575,-9.9437 15.782665,-16.45824 26.367085,-21.01393 14.75786,-6.35198 20.77783,-6.60254 158.63608,-6.60254 137.33949,0 143.92671,0.27142 158.4664,6.52951 19.97751,8.5986 36.17924,28.62328 42.09304,52.0253 3.88075,15.35681 4.30173,51.4191 3.62327,310.38402 -0.73003,278.66218 -1.02164,293.55773 -5.95596,304.22784 -7.24244,15.66122 -20.6833,31.37767 -33.82278,39.54896 -10.99193,6.83575 -13.20721,6.93993 -160.2242,7.53501 -129.9841,0.52609 -150.6651,-0.0481 -161.46819,-4.48397 z m 170.61384,-162.3952 c 4.93165,-2.41738 12.10147,-8.30358 15.93292,-13.0805 5.77749,-7.20314 6.96627,-11.88738 6.96627,-27.44984 0,-16.40139 -1.03285,-20.00479 -8.20112,-28.61206 -14.16164,-17.00447 -33.04832,-19.24112 -49.66097,-5.8811 -23.32951,18.76176 -19.89017,58.62791 6.36723,73.80401 11.69498,6.75936 16.84564,6.979 28.59567,1.21949 z M 432.041,489.0825 l 6.72289,-8.99405 0,-134.27582 0,-134.27583 -6.72342,-8.99403 -6.72343,-8.99403 -138.8054,-0.88989 c -101.10697,-0.6482 -140.94027,0.12738 -146.66593,2.85569 -15.70213,7.48214 -15.95721,9.88556 -15.95721,150.34964 0,131.35498 0.52389,138.39101 10.85619,145.80123 9.77918,7.01353 20.43465,7.49827 153.09452,6.96439 l 137.47889,-0.55328 6.7229,-8.99402 z M 166.43826,468.62644 c -3.41776,-0.78751 -8.74696,-5.13607 -11.84266,-9.66347 -4.9036,-7.17141 -5.62853,-12.96461 -5.62853,-44.97987 l 0,-36.74827 8.74724,-9.39996 8.74723,-9.39995 116.88895,0.90135 116.88896,0.90136 6.72292,8.99403 c 6.25504,8.36805 6.72295,11.53487 6.72295,45.50042 0,33.96539 -0.46794,37.1324 -6.72287,45.50042 l -6.72286,8.99402 -113.7936,0.41589 c -62.58648,0.22888 -116.58996,-0.22856 -120.00773,-1.01597 z M 155.66859,323.04649 c -4.39201,-5.57526 -5.47202,-12.80952 -6.25695,-41.91109 -1.05203,-39.0046 1.58234,-51.04055 12.41416,-56.71806 4.77627,-2.50348 42.20196,-3.62138 121.23911,-3.62138 l 114.33007,0 8.37811,9.63806 8.37811,9.63806 -0.92955,38.73547 c -0.86864,36.19619 -1.36082,39.13673 -7.50791,44.85639 -6.2449,5.81063 -12.61466,6.12091 -125.65762,6.12091 -117.46584,0 -119.1512,-0.0913 -124.38753,-6.73836 z m 329.5941,526.04362 c 4.46476,-5.0216 11.81663,-17.53519 16.33746,-27.80797 l 8.2197,-18.67784 0,-304.52778 0,-304.52778 -6.07467,-14.96888 c -3.34105,-8.23289 -10.6626,-20.8109 -16.27012,-27.95113 l -10.19544,-12.98224 12.09035,4.5115 c 6.6497,2.48133 42.8116,15.59691 80.3598,29.14574 93.13956,33.60833 115.11463,46.8597 127.19411,76.70041 l 6.50382,16.06682 0.0279,232.03087 c 0.0195,164.00264 -0.90074,235.59388 -3.13783,244.18358 -7.35984,28.25906 -44.30927,53.9965 -112.47503,78.34542 -22.98869,8.21157 -57.30002,20.47849 -76.24738,27.25978 l -34.44977,12.32966 8.11777,-9.13016 z"
         id="path5558"
         inkscape:connector-curvature="0" />
    </g>
  </g>
</svg>
