<?xml version="1.0" encoding="UTF-8" standalone="no"?>
<!-- Created with Inkscape (http://www.inkscape.org/) -->

<svg
   xmlns:dc="http://purl.org/dc/elements/1.1/"
   xmlns:cc="http://creativecommons.org/ns#"
   xmlns:rdf="http://www.w3.org/1999/02/22-rdf-syntax-ns#"
   xmlns:svg="http://www.w3.org/2000/svg"
   xmlns="http://www.w3.org/2000/svg"
   xmlns:sodipodi="http://sodipodi.sourceforge.net/DTD/sodipodi-0.dtd"
   xmlns:inkscape="http://www.inkscape.org/namespaces/inkscape"
   width="210mm"
   height="297mm"
   viewBox="0 0 744.09448819 1052.3622047"
   id="svg3928"
   version="1.1"
   inkscape:version="0.91 r13725"
   sodipodi:docname="csharp.svg">
  <defs
     id="defs3930" />
  <sodipodi:namedview
     id="base"
     pagecolor="#ffffff"
     bordercolor="#666666"
     borderopacity="1.0"
     inkscape:pageopacity="0.0"
     inkscape:pageshadow="2"
     inkscape:zoom="0.35"
     inkscape:cx="375"
     inkscape:cy="520"
     inkscape:document-units="px"
     inkscape:current-layer="layer1"
     showgrid="false"
     inkscape:window-width="1600"
     inkscape:window-height="847"
     inkscape:window-x="-8"
     inkscape:window-y="-8"
     inkscape:window-maximized="1" />
  <metadata
     id="metadata3933">
    <rdf:RDF>
      <cc:Work
         rdf:about="">
        <dc:format>image/svg+xml</dc:format>
        <dc:type
           rdf:resource="http://purl.org/dc/dcmitype/StillImage" />
        <dc:title></dc:title>
      </cc:Work>
    </rdf:RDF>
  </metadata>
  <g
     inkscape:label="Camada 1"
     inkscape:groupmode="layer"
     id="layer1">
    <path
       style="fill:#000000"
       d="M 163.18908,761.43298 C 107.25978,740.88944 69.844544,689.30287 51.371171,607.26304 43.126896,570.65044 41.458506,484.23745 48.262983,446.27745 67.697106,337.86078 135.97227,270.28882 225.92433,270.4459 c 47.37345,0.0827 85.93576,18.26529 114.13351,53.81536 15.58795,19.65234 38.56561,68.00088 38.56561,81.14796 0,5.86036 -11.09815,10.94398 -35.91463,16.45107 -11.3432,2.51719 -11.631,2.23539 -19.33842,-18.93322 -10.3864,-28.52642 -32.34103,-56.98506 -52.10052,-67.5351 -40.85271,-21.81219 -96.74323,-11.29617 -130.85088,24.62014 -11.91591,12.54778 -30.34145,51.79111 -37.34485,79.53826 -7.399729,29.31738 -8.163789,125.67538 -1.23616,155.89388 12.53816,54.69179 34.84181,89.79852 69.47493,109.35596 17.69492,9.99237 24.13455,11.429 51.15023,11.4112 24.35411,-0.0161 34.09503,-1.80885 45.94496,-8.45634 29.59087,-16.59947 51.71705,-49.12247 63.03172,-92.64941 l 5.38529,-20.71703 22.81905,7.28503 c 12.55053,4.00677 23.65371,8.32087 24.6738,9.58691 2.9754,3.69287 -5.47483,34.68838 -16.51421,60.57441 -19.46913,45.65251 -51.94941,77.79939 -92.81714,91.86429 -31.10169,10.70387 -79.13757,9.73014 -111.79754,-2.26629 z m 275.20374,2.79257 c 2.46234,-10.22155 21.56412,-125.90699 21.56412,-130.59795 0,-2.12394 -10.24802,-3.8617 -22.77337,-3.8617 l -22.77338,0 0,-24.22705 0,-24.22706 27.1416,0 27.14157,0 8.88833,-53.5014 c 4.88857,-29.42579 9.60954,-56.68122 10.49103,-60.56763 1.46007,-6.43713 -1.74761,-7.06623 -36.02988,-7.06623 l -37.63265,0 0,-24.1064 0,-24.10643 41.35578,-1.13008 41.35575,-1.13011 11.43275,-69.65277 11.43276,-69.65278 18.78496,0 c 13.81074,0 18.78494,1.47679 18.78494,5.57707 0,3.06741 -4.39201,31.4472 -9.76001,63.06625 -5.36802,31.61905 -9.76002,60.90735 -9.76002,65.08517 0,7.04037 3.0453,7.59598 41.63556,7.59598 l 41.63554,0 11.07575,-70.66223 11.07574,-70.66224 18.86217,0 c 13.84889,0 18.86218,1.47782 18.86218,5.56024 0,3.05813 -4.38641,32.58483 -9.74755,65.61494 -5.36119,33.03009 -9.7532,62.24294 -9.76002,64.91752 -0.0104,3.19563 7.51636,5.27212 21.94758,6.05676 l 21.96004,1.19394 0.97566,23.21758 0.97572,23.21759 -27.49127,0 -27.49124,0 -3.38754,19.17975 c -1.86314,10.54885 -5.72717,33.71598 -8.58672,51.48249 -2.85959,17.76651 -5.90112,36.39103 -6.75899,41.38788 -1.54648,9.00787 -1.24095,9.08514 35.91567,9.08514 l 37.47537,0 0,24.1064 0,24.10644 -41.48007,1.13008 -41.48008,1.13011 -11.31905,69.65278 -11.31902,69.65276 -19.94378,0 -19.9438,0 10.81343,-63.596 c 5.94739,-34.97782 10.86562,-66.77583 10.92947,-70.66224 0.10489,-6.37045 -3.99854,-7.06622 -41.6707,-7.06622 l -41.7867,0 -11.08007,69.65278 -11.08007,69.65276 -20.6041,1.21087 c -18.55517,1.09041 -20.43001,0.48813 -18.85339,-6.05676 z M 593.34387,579.60944 c 0,-0.93629 4.39201,-27.72544 9.76001,-59.53139 5.36802,-31.80595 9.76003,-58.29533 9.76003,-58.86527 0,-0.56993 -19.00416,-1.03625 -42.23145,-1.03625 -41.11568,0 -42.27699,0.24001 -43.95592,9.08515 -2.17958,11.48243 -17.9195,108.61811 -17.9195,110.58648 0,0.80499 19.03204,1.46363 42.29341,1.46363 23.26138,0 42.29342,-0.76605 42.29342,-1.70235 z"
       id="path3947"
       inkscape:connector-curvature="0" />
  </g>
</svg>
