<?xml version="1.0" encoding="UTF-8" standalone="no"?>
<!-- Created with Inkscape (http://www.inkscape.org/) -->

<svg
   xmlns:dc="http://purl.org/dc/elements/1.1/"
   xmlns:cc="http://creativecommons.org/ns#"
   xmlns:rdf="http://www.w3.org/1999/02/22-rdf-syntax-ns#"
   xmlns:svg="http://www.w3.org/2000/svg"
   xmlns="http://www.w3.org/2000/svg"
   xmlns:sodipodi="http://sodipodi.sourceforge.net/DTD/sodipodi-0.dtd"
   xmlns:inkscape="http://www.inkscape.org/namespaces/inkscape"
   width="210mm"
   height="297mm"
   viewBox="0 0 744.09448819 1052.3622047"
   id="svg3750"
   version="1.1"
   inkscape:version="0.91 r13725"
   sodipodi:docname="css3.svg">
  <defs
     id="defs3752" />
  <sodipodi:namedview
     id="base"
     pagecolor="#ffffff"
     bordercolor="#666666"
     borderopacity="1.0"
     inkscape:pageopacity="0.0"
     inkscape:pageshadow="2"
     inkscape:zoom="0.49497475"
     inkscape:cx="105.5594"
     inkscape:cy="400.77211"
     inkscape:document-units="px"
     inkscape:current-layer="layer1"
     showgrid="false"
     inkscape:window-width="1600"
     inkscape:window-height="847"
     inkscape:window-x="-8"
     inkscape:window-y="-8"
     inkscape:window-maximized="1" />
  <metadata
     id="metadata3755">
    <rdf:RDF>
      <cc:Work
         rdf:about="">
        <dc:format>image/svg+xml</dc:format>
        <dc:type
           rdf:resource="http://purl.org/dc/dcmitype/StillImage" />
        <dc:title></dc:title>
      </cc:Work>
    </rdf:RDF>
  </metadata>
  <g
     inkscape:label="Camada 1"
     inkscape:groupmode="layer"
     id="layer1">
    <path
       style="fill:#000000"
       d="m 365.63641,896.32745 c 0,-1.89503 -12.16046,-5.57887 -27.02324,-8.18632 -14.86279,-2.6074 -27.02324,-5.97988 -27.02324,-7.49439 0,-1.51451 -11.29186,-4.84521 -25.09301,-7.40155 -13.80116,-2.55634 -25.09301,-5.9736 -25.09301,-7.59386 0,-1.62026 -5.64594,-3.84113 -12.54651,-4.9352 -38.05496,-6.03366 -45.36044,-7.66028 -45.36044,-10.10017 0,-1.47555 -12.16045,-4.93526 -27.02324,-7.68823 -14.86278,-2.75298 -27.02324,-6.24743 -27.02324,-7.76549 0,-1.51802 -5.84511,-3.83646 -12.98916,-5.15215 -12.38751,-2.28129 -13.09373,-3.31009 -15.24762,-22.21242 -1.24217,-10.90122 -4.36637,-54.35384 -6.94269,-96.56141 -2.57629,-42.20761 -5.8528,-76.74107 -7.28111,-76.74107 -1.42831,0 -4.90476,-37.51786 -7.725433,-83.37302 -2.82067,-45.85516 -6.29512,-83.37301 -7.72096,-83.37301 -1.42584,0 -4.86384,-37.94422 -7.64001,-84.32044 -2.77617,-46.37626 -6.36918,-85.17312 -7.98446,-86.21528 -1.61528,-1.04216 -4.20583,-27.04887 -5.75678,-57.79266 l -2.81993,-55.89781 319.007413,0 319.0074,0 0,9.4742 c 0,5.21082 -1.47145,9.47421 -3.26993,9.47421 -1.79842,0 -4.39713,19.18525 -5.77492,42.63393 -6.52591,111.06895 -7.73346,126.13333 -10.25249,127.90178 -1.48446,1.04216 -5.88906,51.3502 -9.788,111.79564 -3.89892,60.44543 -8.25719,110.75347 -9.68507,111.79563 -1.42785,1.04216 -4.90242,39.83902 -7.7213,86.21528 -4.62387,23.082 -3.34057,147.9714 -30.62199,148.74504 -71.22308,15.85819 -132.59878,44.54955 -198.9094,56.3534 -15.92441,2.6267 -28.95347,6.36997 -28.95347,8.31835 0,1.94841 -7.81743,3.54253 -17.37208,3.54253 -9.55465,0 -17.37208,-1.55046 -17.37208,-3.44551 z m 57.74171,-140.182 c 1.15252,-1.76575 14.69021,-5.40481 30.08382,-8.08691 15.39358,-2.682 27.98835,-6.07468 27.98835,-7.53922 0,-1.46455 12.65204,-4.66638 28.11566,-7.11521 19.1475,-3.0322 29.47535,-6.58965 32.37829,-11.15276 2.34448,-3.68524 5.5368,-30.054 7.09411,-58.59731 1.55731,-28.54332 4.05009,-51.89695 5.53949,-51.89695 3.28497,0 12.50305,-124.67076 9.56332,-129.34014 -1.14226,-1.81431 -31.50684,-3.29875 -67.47684,-3.29875 -35.97004,0 -65.40004,-1.43241 -65.40004,-3.18312 0,-1.75071 6.94883,-5.43437 15.44185,-8.18592 8.49302,-2.75156 15.44185,-6.16227 15.44185,-7.57937 0,-1.4171 6.94883,-4.82781 15.44185,-7.57936 8.49302,-2.75156 15.44185,-6.36679 15.44185,-8.03383 0,-1.66703 6.94884,-5.07472 15.44185,-7.57263 8.49302,-2.49792 15.44186,-5.84485 15.44186,-7.4376 0,-1.59276 6.08022,-4.8658 13.51162,-7.27341 7.43139,-2.4076 13.51162,-5.81507 13.51162,-7.57214 0,-1.75708 5.1917,-4.31406 11.5371,-5.68219 6.34546,-1.36814 12.22945,-3.63534 13.07563,-5.03822 0.84615,-1.40288 2.79315,-21.73598 4.32665,-45.18463 l 2.78819,-42.63393 -199.13235,0 -199.13234,0 2.46937,36.90348 c 1.44285,21.56275 4.49481,38.89175 7.34176,41.68651 3.67004,3.60274 30.89952,4.85418 110.34572,5.07135 86.6092,0.23678 103.19486,1.09879 92.73384,4.82002 -7.00671,2.49243 -13.95554,6.38574 -15.44185,8.65182 -1.48628,2.26604 -9.21687,6.40838 -17.17906,9.20516 -7.96222,2.79679 -14.47673,6.37937 -14.47673,7.96131 0,1.58196 -6.94884,4.92001 -15.44186,7.41792 -8.49301,2.49792 -15.44185,5.84485 -15.44185,7.4376 0,1.59276 -6.08023,4.8658 -13.51162,7.27341 -7.43139,2.4076 -13.51162,5.68064 -13.51162,7.2734 0,1.59275 -6.94883,4.93968 -15.44185,7.4376 -8.49302,2.49791 -15.44185,5.90863 -15.44185,7.57936 0,1.67074 -6.94883,5.08145 -15.44185,7.57937 -8.49302,2.49791 -15.44185,5.83599 -15.44185,7.41789 0,1.58197 -6.08023,5.03461 -13.51162,7.67256 -13.3754,4.74796 -13.51163,5.02306 -13.51163,27.28908 0,12.46875 1.72044,22.4928 3.86047,22.4928 2.12325,0 3.86046,3.41071 3.86046,7.57936 0,7.43072 2.57363,7.57937 131.25574,7.57937 l 131.25574,0 0,28.42262 c 0,16.42194 -1.62998,28.42262 -3.86047,28.42262 -2.1398,0 -3.86046,10.02068 -3.86046,22.4827 0,25.45896 2.61798,23.51013 -41.49997,30.89282 -15.39362,2.57596 -27.98836,6.11582 -27.98836,7.86632 0,1.75053 -6.08023,3.18276 -13.51162,3.18276 -7.43139,0 -13.51162,-1.62808 -13.51162,-3.61796 0,-1.98986 -6.51455,-4.70931 -14.47674,-6.04315 -7.96222,-1.33382 -20.99128,-4.03486 -28.95347,-6.00228 -14.29381,-3.53196 -14.47673,-3.81473 -14.47673,-22.3795 0,-10.34126 -1.73721,-18.80235 -3.86047,-18.80235 -2.12325,0 -3.86046,-5.11607 -3.86046,-11.36905 l 0,-11.36904 -44.82192,0 -44.82192,0 2.7972,46.42361 c 1.53847,25.53297 4.33626,46.99206 6.21729,47.68682 1.88106,0.69481 3.44668,5.81088 3.4792,11.36904 0.0924,15.79067 3.75929,18.28292 34.68506,23.57419 15.92441,2.7246 29.94428,6.38247 31.15526,8.12863 1.21098,1.74617 13.37144,5.0853 27.02324,7.42035 13.6518,2.33502 25.69005,5.54252 26.75168,7.12788 1.06163,1.5853 6.27325,3.77674 11.58139,4.86995 13.4468,2.76929 62.91634,-0.73165 65.46264,-4.63275 z"
       id="path3789"
       inkscape:connector-curvature="0"
       sodipodi:nodetypes="sssssssssssssssssscccsssssscccsssssssssssssssssssssscscccsssssssssssssssssssscsssssssssssscccscsssscss" />
  </g>
</svg>
