<?xml version="1.0" encoding="UTF-8" standalone="no"?>
<!-- Created with Inkscape (http://www.inkscape.org/) -->

<svg
   xmlns:dc="http://purl.org/dc/elements/1.1/"
   xmlns:cc="http://creativecommons.org/ns#"
   xmlns:rdf="http://www.w3.org/1999/02/22-rdf-syntax-ns#"
   xmlns:svg="http://www.w3.org/2000/svg"
   xmlns="http://www.w3.org/2000/svg"
   xmlns:sodipodi="http://sodipodi.sourceforge.net/DTD/sodipodi-0.dtd"
   xmlns:inkscape="http://www.inkscape.org/namespaces/inkscape"
   width="210mm"
   height="297mm"
   viewBox="0 0 744.09448819 1052.3622047"
   id="svg4791"
   version="1.1"
   inkscape:version="0.91 r13725"
   sodipodi:docname="database.svg">
  <defs
     id="defs4793" />
  <sodipodi:namedview
     id="base"
     pagecolor="#ffffff"
     bordercolor="#666666"
     borderopacity="1.0"
     inkscape:pageopacity="0.0"
     inkscape:pageshadow="2"
     inkscape:zoom="1"
     inkscape:cx="375"
     inkscape:cy="520"
     inkscape:document-units="px"
     inkscape:current-layer="layer1"
     showgrid="false"
     inkscape:window-width="1600"
     inkscape:window-height="847"
     inkscape:window-x="-8"
     inkscape:window-y="-8"
     inkscape:window-maximized="1" />
  <metadata
     id="metadata4796">
    <rdf:RDF>
      <cc:Work
         rdf:about="">
        <dc:format>image/svg+xml</dc:format>
        <dc:type
           rdf:resource="http://purl.org/dc/dcmitype/StillImage" />
        <dc:title></dc:title>
      </cc:Work>
    </rdf:RDF>
  </metadata>
  <g
     inkscape:label="Camada 1"
     inkscape:groupmode="layer"
     id="layer1">
    <path
       style="fill:#000000"
       d=""
       id="path4810"
       inkscape:connector-curvature="0" />
    <path
       style="fill:#000000"
       d="M 291.53097,896.76426 C 205.68606,881.75707 152.48647,856.41293 118.20774,814.19357 89.87212,779.29404 91.3893,795.59031 91.3893,526.13105 c 0,-225.19124 0.10382,-229.67044 5.75863,-248.44933 32.26319,-107.14167 249.1076,-158.07108 401.82321,-94.37466 52.48869,21.8926 90.00793,56.84356 101.30954,94.37466 5.6548,18.77889 5.75863,23.25809 5.75863,248.44933 0,269.45926 1.51718,253.16299 -26.81844,288.06252 -28.29205,34.84586 -71.08202,58.95715 -132.63261,74.7358 -21.24453,5.44612 -39.977,7.19094 -86.98189,8.10193 -32.9485,0.63857 -63.58243,0.5184 -68.0754,-0.26694 z m 133.45261,-33.57289 c 72.40919,-13.45051 130.85552,-47.55265 149.59632,-87.28611 6.42572,-13.6235 6.95227,-17.86468 6.95227,-55.99806 l 0,-41.25819 -14.29584,13.27546 c -101.34923,94.1153 -335.69481,94.1153 -437.04406,0 l -14.29583,-13.27546 0,41.73886 c 0,40.07166 0.30985,42.34597 7.75701,56.9365 35.92696,70.38852 173.54466,109.60403 301.33013,85.867 z m 9.50573,-138.67884 c 54.17783,-12.0899 98.89541,-34.75834 123.35142,-62.52989 21.96336,-24.94092 23.69144,-31.34316 23.69144,-87.77283 l 0,-47.8108 -14.29584,13.27546 c -101.29132,94.0615 -335.75275,94.0615 -437.04406,0 l -14.29583,-13.27546 0,47.8108 c 0,55.37237 1.78152,62.47548 21.38315,85.25665 29.23383,33.9758 76.54031,56.40903 144.72082,68.62814 34.44953,6.17394 117.5138,4.2227 152.4889,-3.58207 z m 6.48298,-153.78729 c 33.59864,-8.28422 74.60996,-25.53009 93.60795,-39.36349 17.06884,-12.42867 37.27721,-36.25928 42.62745,-50.26813 3.31669,-8.68427 4.32448,-22.4651 4.32448,-59.13383 l 0,-47.81078 -14.29584,13.27545 c -101.2465,94.01988 -335.79756,94.01988 -437.04406,0 l -14.29583,-13.27545 0,47.81078 c 0,36.66873 1.0078,50.44956 4.32447,59.13383 5.35024,14.00885 25.55862,37.83946 42.62746,50.26813 19.46608,14.17424 60.74899,31.35186 93.70803,38.99143 41.06705,9.51894 44.82646,9.83609 103.04997,8.6931 39.4413,-0.77427 58.77888,-2.75187 81.36592,-8.32104 z m -6.48298,-150.71271 c 58.73559,-13.10698 101.57312,-35.89071 127.09088,-67.59509 25.84366,-32.10927 26.87827,-55.79438 3.80158,-87.02972 -16.66576,-22.55783 -36.02033,-37.05983 -69.01726,-51.71327 -47.70025,-21.18296 -79.5762,-27.01522 -147.65021,-27.01522 -68.07401,0 -99.94995,5.83226 -147.65019,27.01522 -32.99694,14.65344 -52.35152,29.15544 -69.01726,51.71327 -20.97233,28.38698 -21.51823,52.62388 -1.81182,80.44043 27.26258,38.48246 78.19661,64.58168 151.76538,77.76645 34.44953,6.17393 117.5138,4.22269 152.4889,-3.58207 z"
       id="path4823"
       inkscape:connector-curvature="0" />
  </g>
</svg>
