<?xml version="1.0" encoding="UTF-8" standalone="no"?>
<!-- Created with Inkscape (http://www.inkscape.org/) -->

<svg
   xmlns:dc="http://purl.org/dc/elements/1.1/"
   xmlns:cc="http://creativecommons.org/ns#"
   xmlns:rdf="http://www.w3.org/1999/02/22-rdf-syntax-ns#"
   xmlns:svg="http://www.w3.org/2000/svg"
   xmlns="http://www.w3.org/2000/svg"
   xmlns:sodipodi="http://sodipodi.sourceforge.net/DTD/sodipodi-0.dtd"
   xmlns:inkscape="http://www.inkscape.org/namespaces/inkscape"
   width="210mm"
   height="297mm"
   viewBox="0 0 744.09448819 1052.3622047"
   id="svg3486"
   version="1.1"
   inkscape:version="0.91 r13725"
   sodipodi:docname="dbase.svg">
  <defs
     id="defs3488" />
  <sodipodi:namedview
     id="base"
     pagecolor="#ffffff"
     bordercolor="#666666"
     borderopacity="1.0"
     inkscape:pageopacity="0.0"
     inkscape:pageshadow="2"
     inkscape:zoom="0.49497475"
     inkscape:cx="702.72318"
     inkscape:cy="540.5066"
     inkscape:document-units="px"
     inkscape:current-layer="layer1"
     showgrid="false"
     inkscape:window-width="1600"
     inkscape:window-height="847"
     inkscape:window-x="-8"
     inkscape:window-y="-8"
     inkscape:window-maximized="1" />
  <metadata
     id="metadata3491">
    <rdf:RDF>
      <cc:Work
         rdf:about="">
        <dc:format>image/svg+xml</dc:format>
        <dc:type
           rdf:resource="http://purl.org/dc/dcmitype/StillImage" />
        <dc:title></dc:title>
      </cc:Work>
    </rdf:RDF>
  </metadata>
  <g
     inkscape:label="Camada 1"
     inkscape:groupmode="layer"
     id="layer1">
    <path
       style="fill:#000000"
       d="m 513.27956,589.93286 c -17.95668,-3.01008 -39.25225,-11.25786 -40.91006,-15.84445 -0.76424,-2.11438 -1.11165,-13.09844 -0.77204,-24.40902 0.53086,-17.67939 1.04693,-20.34013 3.67823,-18.9641 1.68341,0.88033 9.10738,4.92691 16.49773,8.99242 31.90851,17.55308 62.88614,10.73758 62.88614,-13.83582 0,-13.33781 -6.04943,-20.69464 -21.50818,-26.15644 -38.05585,-13.4457 -43.45907,-16.50988 -52.6667,-29.86753 -7.0775,-10.26741 -10.42425,-23.87875 -10.42425,-42.39556 0,-54.57476 32.45204,-79.00986 87.14358,-65.61569 11.00879,2.6961 21.08593,5.54193 22.39362,6.32407 2.39086,1.42998 4.79277,46.85558 2.47675,46.8413 -0.60028,-0.005 -5.97969,-2.73243 -11.95422,-6.06381 -15.64665,-8.72453 -46.99265,-10.65391 -55.92105,-3.44204 -5.68249,4.59001 -6.43689,6.50693 -6.43689,16.35597 0,15.73373 4.85247,20.10801 31.73837,28.61061 29.03985,9.18376 40.84381,17.50217 47.66918,33.593 4.63409,10.92486 5.18623,14.72298 5.14167,35.36868 -0.0596,27.58915 -4.375,43.17915 -15.12819,54.65172 -13.12486,14.00288 -38.05697,20.1894 -63.90369,15.85669 z m -489.684998,-2.25466 -4.159478,-1.10121 0.481261,-110.87261 0.481252,-110.8726 64.252004,0 64.251999,0 1.5196,9.14026 c 0.83578,5.02713 1.30219,55.33397 1.03647,111.79298 l -0.48314,102.65271 -61.610233,0.18093 c -33.885635,0.0995 -63.482027,-0.31469 -65.769735,-0.92037 z M 84.0323,575.16424 c 3.438352,-1.77144 9.410524,-7.06139 13.271474,-11.75544 4.015756,-4.88222 6.873936,-6.87734 6.678776,-4.66203 -1.17225,13.30598 -0.53405,13.90528 14.80753,13.90528 l 14.71289,0 0,-98.89378 0,-98.89379 -12.65928,0 c -14.87774,0 -14.8623,-0.036 -14.90228,34.75615 -0.0132,12.02134 -0.54149,25.88121 -1.17263,30.79971 l -1.14752,8.94275 -6.131326,-8.39066 c -11.414912,-15.62121 -31.322872,-14.26029 -43.938179,3.00364 -3.486166,4.77077 -8.627655,16.00327 -11.425551,24.96113 -4.173504,13.3621 -5.087874,20.14787 -5.091569,37.78566 -0.0058,26.76292 2.769628,39.50647 11.741651,53.91605 9.61242,15.43809 22.876933,20.90301 35.256014,14.52533 z m -3.344558,-32.05181 c -8.179986,-4.73415 -11.000581,-9.93146 -13.565239,-24.99567 -4.871426,-28.61362 3.484963,-57.25768 16.703884,-57.25768 13.618707,0 20.250793,15.31343 20.250793,46.75891 0,18.4717 -0.61838,22.79574 -4.137996,28.93521 -5.09257,8.88324 -11.47717,11.05856 -19.251442,6.55923 z m 85.919248,-68.10258 0,-111.97467 45.51802,0.89831 45.51801,0.89829 10.9525,8.59946 c 14.67603,11.52305 18.20397,19.6679 18.97419,43.80556 0.70286,22.0267 -2.94522,34.61571 -12.4819,43.07331 -3.00702,2.6668 -5.46306,5.49366 -5.45783,6.28194 0.006,0.78829 3.423,3.9835 7.59508,7.1005 19.15597,14.31154 24.13548,60.4979 9.45436,87.69208 -11.23563,20.81195 -26.1885,25.59985 -79.94975,25.59985 l -40.12268,0 z m 83.84217,62.36791 c 2.86503,-5.19538 4.43519,-11.60464 4.43519,-18.104 0,-22.61995 -7.44508,-29.74982 -31.06502,-29.74982 -9.09416,0 -16.80447,0.96743 -17.13405,2.14987 -0.32957,1.18244 -0.31778,14.19631 0.0264,28.91975 l 0.62543,26.76989 19.33853,-0.97151 c 18.56168,-0.93248 19.51672,-1.2946 23.77373,-9.01418 z m -8.73173,-92.57362 c 6.06514,-6.62133 8.30049,-17.5728 5.63446,-27.60461 -3.19267,-12.01363 -10.37369,-16.53667 -26.25449,-16.53667 l -13.73937,0 -0.66262,22.21527 c -0.36444,12.21841 -0.38097,23.1827 -0.0368,24.36514 0.34421,1.18244 7.42747,2.14986 15.74054,2.14986 10.88219,0 16.2918,-1.28503 19.31821,-4.58899 z m 56.01725,138.59724 c 3.34989,-12.71122 42.56289,-163.94865 49.05288,-189.18811 l 7.92361,-30.81473 24.37384,0 c 17.7695,0 24.62968,0.97089 25.31797,3.58311 12.33773,46.8249 56.46189,217.71559 56.46189,218.67414 0,0.73079 -8.98921,1.32869 -19.97604,1.32869 l -19.97602,0 -4.54552,-19.34878 -4.5455,-19.34878 -32.18422,-0.78081 -32.18419,-0.78083 -5.06703,20.12961 -5.06702,20.12959 -20.26447,0 c -15.48913,0 -20.04194,-0.84437 -19.32018,-3.5831 z m 102.4395,-80.73249 c 0,-2.11778 -18.35791,-79.49069 -19.83931,-83.61653 -0.93597,-2.60683 -4.93792,10.61442 -11.4885,37.95455 -5.52871,23.07517 -10.32807,43.05614 -10.66523,44.40217 -0.33719,1.34602 8.97332,2.4473 20.69,2.4473 11.71667,0 21.30304,-0.53436 21.30304,-1.18749 z m 207.81963,-27.47738 0,-111.79297 55.25392,0 55.25393,0 -0.54035,20.78203 -0.54035,20.78202 -34.48335,0.77987 -34.48334,0.77987 0,21.4354 0,21.4354 33.16323,0 33.16323,0 -0.519,20.78203 -0.519,20.78203 -32.71521,0.78321 -32.71522,0.78322 0.53078,25.01516 0.53075,25.01516 35.4029,0.77852 35.4029,0.77851 0,21.43676 0,21.43675 -56.09292,0 -56.0929,0 z"
       id="path3505"
       inkscape:connector-curvature="0"
       sodipodi:nodetypes="ssssssssssscssssssssccccccsscsccsssscccscscssssssssssssccccssscssscccsssccscccsscscsccsscsssscccccccssssscssccccccccccccccccccccccccc" />
  </g>
</svg>
