<?xml version="1.0" encoding="UTF-8" standalone="no"?>
<!-- Created with Inkscape (http://www.inkscape.org/) -->

<svg
   xmlns:dc="http://purl.org/dc/elements/1.1/"
   xmlns:cc="http://creativecommons.org/ns#"
   xmlns:rdf="http://www.w3.org/1999/02/22-rdf-syntax-ns#"
   xmlns:svg="http://www.w3.org/2000/svg"
   xmlns="http://www.w3.org/2000/svg"
   xmlns:sodipodi="http://sodipodi.sourceforge.net/DTD/sodipodi-0.dtd"
   xmlns:inkscape="http://www.inkscape.org/namespaces/inkscape"
   width="210mm"
   height="297mm"
   viewBox="0 0 744.09448819 1052.3622047"
   id="svg3507"
   version="1.1"
   inkscape:version="0.91 r13725"
   sodipodi:docname="delphi.svg">
  <defs
     id="defs3509" />
  <sodipodi:namedview
     id="base"
     pagecolor="#ffffff"
     bordercolor="#666666"
     borderopacity="1.0"
     inkscape:pageopacity="0.0"
     inkscape:pageshadow="2"
     inkscape:zoom="0.35"
     inkscape:cx="375"
     inkscape:cy="520"
     inkscape:document-units="px"
     inkscape:current-layer="layer1"
     showgrid="false"
     inkscape:window-width="1600"
     inkscape:window-height="847"
     inkscape:window-x="-8"
     inkscape:window-y="-8"
     inkscape:window-maximized="1" />
  <metadata
     id="metadata3512">
    <rdf:RDF>
      <cc:Work
         rdf:about="">
        <dc:format>image/svg+xml</dc:format>
        <dc:type
           rdf:resource="http://purl.org/dc/dcmitype/StillImage" />
        <dc:title></dc:title>
      </cc:Work>
    </rdf:RDF>
  </metadata>
  <g
     inkscape:label="Camada 1"
     inkscape:groupmode="layer"
     id="layer1">
    <path
       style="fill:#000000"
       d="M 47.252102,893.27635 C 40.150417,888.48733 30.797192,878.14261 26.467246,870.28798 18.789253,856.36009 18.594207,847.53973 18.579745,513.62757 18.563933,147.16964 17.911434,159.71802 38.061478,138.95528 c 5.642648,-5.81423 11.325102,-7.7691 17.240707,-5.93114 6.927564,2.15237 7.546776,1.75257 2.881218,-1.86022 -4.172903,-3.23125 87.721847,-4.62177 308.556307,-4.66889 312.46434,-0.0666 314.58602,-0.007 327.93874,9.11966 26.4172,18.05759 25.13312,-1.1552 25.13312,376.0503 0,385.70724 1.62771,364.80701 -29.71869,381.59029 -15.93065,8.52944 -24.47479,8.76066 -323.14595,8.74471 -299.133008,-0.0175 -307.104561,-0.23346 -319.6948,-8.72364 z M 477.07878,819.77847 c 15.36952,-10.95836 24.8313,-32.89789 24.8313,-57.57776 0,-39.19935 -13.66339,-59.65417 -70.22543,-105.13141 -15.74427,-12.65876 -33.10802,-28.90728 -38.58606,-36.10772 -7.67133,-10.08339 -12.66097,-12.77539 -21.7142,-11.71515 l -11.7542,1.37656 15.0656,37.24578 c 8.28606,20.48517 19.79649,48.64228 25.57869,62.57132 5.78224,13.92901 10.51316,26.10899 10.51316,27.06658 0,0.95756 6.2399,16.68218 13.86645,34.94351 7.62656,18.26133 13.86646,34.72716 13.86646,36.59078 0,1.86358 2.66091,7.59004 5.91307,12.7254 6.40906,10.12026 16.52708,9.50417 32.64516,-1.98789 z M 207.63708,690.67929 c 10.40862,-5.37447 19.64942,-10.28397 20.53512,-10.91002 0.88572,-0.62597 -1.66435,-9.1701 -5.66682,-18.98696 -5.80725,-14.24342 -8.93346,-17.41595 -15.47684,-15.70594 -4.50978,1.17858 -18.45092,3.50208 -30.98024,5.1634 -12.52935,1.66136 -22.78061,4.39343 -22.78061,6.07133 0,1.6779 3.56566,7.28376 7.92369,12.45751 4.35803,5.17367 7.92369,10.8128 7.92369,12.5313 0,4.49498 12.51661,19.15113 16.35542,19.15113 1.78301,0 11.75797,-4.39728 22.16659,-9.77175 z m 58.74129,5.78773 c 6.62373,-7.01143 46.19585,-17.9261 64.90099,-17.90079 9.95482,0.014 24.95246,2.12898 33.32809,4.70124 8.37565,2.57229 16.12844,3.68142 17.22845,2.46477 1.10003,-1.21661 -4.83279,-20.09277 -13.18398,-41.94701 -14.47994,-37.89243 -15.75309,-39.73502 -27.45606,-39.73502 -11.28908,0 -12.59703,-1.57081 -16.32959,-19.61147 -4.85503,-23.46575 -7.59222,-20.11969 52.24568,-63.86709 23.96916,-17.52381 44.47171,-33.02268 45.56122,-34.44198 1.08951,-1.41926 19.35298,-15.39742 40.58552,-31.06255 21.23255,-15.66514 38.61513,-30.75513 38.62799,-33.53329 0.0127,-2.77821 -10.04213,-12.44065 -22.34448,-21.47218 -84.46661,-62.00947 -196.96438,-35.52956 -248.49854,58.49202 -26.29122,47.96709 -32.71061,103.99017 -17.9657,156.7896 8.73542,31.28031 13.79166,41.85096 32.84962,68.67581 12.40581,17.46166 14.50637,18.74025 20.45079,12.44794 z m -6.60861,-32.30322 c -24.59044,-34.08614 -28.94723,-49.64551 -29.10222,-103.93215 -0.13946,-48.88692 0.24816,-51.19069 12.98952,-77.16661 7.22337,-14.72644 20.58324,-34.44479 29.68864,-43.81856 10.31437,-10.61843 12.6181,-12.08775 6.11114,-3.89771 -5.74427,7.23006 -15.44388,23.99066 -21.55469,37.24577 -9.91444,21.50569 -11.13317,28.81754 -11.32083,67.91876 -0.19112,39.85628 0.82279,46.0735 11.21427,68.75546 6.28348,13.71527 16.53342,30.35038 22.7776,36.96691 l 11.35303,12.03001 -8.61128,10.13804 c -4.73617,5.57589 -9.63761,10.138 -10.89203,10.1379 -1.25444,-7e-5 -6.94834,-6.47008 -12.65315,-14.37782 z m -51.03624,-31.77227 c 0,-3.6924 -2.60632,-13.61264 -5.79184,-22.04484 -3.18551,-8.43227 -5.67684,-25.97645 -5.53634,-38.98712 0.14041,-13.01068 -0.92406,-25.76657 -2.36567,-28.34647 -1.44163,-2.5799 -0.7331,-4.69073 1.5745,-4.69073 2.3076,0 4.19566,-5.28255 4.19566,-11.73899 0,-6.45647 2.03963,-17.97742 4.53248,-25.6022 4.22408,-12.91992 3.34804,-15.73678 -12.87599,-41.40061 -9.57468,-15.14562 -21.35311,-34.02609 -26.17434,-41.95662 -4.82121,-7.93053 -10.5579,-15.6441 -12.74819,-17.14129 -4.05216,-2.76986 -31.97087,53.78163 -31.97087,64.75941 0,3.30654 9.27627,14.69383 20.61393,25.30507 40.44382,37.85254 48.23074,48.07208 17.70013,23.22959 -36.53043,-29.72448 -38.16303,-28.85771 -38.25339,20.30955 l -0.0606,33.00967 26.74245,11.7249 c 29.11792,12.76642 28.94014,15.69301 -0.36081,5.93987 -22.82416,-7.5973 -22.77491,-7.8899 -8.22523,48.86702 0.98247,3.83251 11.55423,5.47732 35.20416,5.47732 27.71815,0 33.80002,-1.20799 33.80002,-6.71353 z m 190.16857,-48.13136 c 25.05868,-6.57941 55.36679,-14.48077 67.35138,-17.55858 49.25287,-12.64888 77.44704,-21.1298 80.65924,-24.26262 1.87179,-1.82555 0.28177,-19.76624 -3.5334,-39.86819 -3.81519,-20.10196 -8.33534,-47.08462 -10.0448,-59.96142 -1.70946,-12.87684 -4.02064,-24.42169 -5.13597,-25.65527 -1.11528,-1.23358 -14.1721,6.93304 -29.0151,18.14806 -173.73589,131.27073 -169.65858,127.86974 -168.7683,140.77431 1.38689,20.10339 4.42833,24.98527 14.06087,22.5695 4.87567,-1.22275 29.36742,-7.60634 54.42608,-14.18579 z M 227.60151,452.32509 c 8.14422,-13.55823 17.00995,-28.83997 19.70159,-33.95938 2.69165,-5.11945 4.9202,-7.62492 4.95231,-5.56776 0.032,2.05719 6.06755,-2.09512 13.41208,-9.22735 7.34453,-7.13219 20.5164,-16.70269 29.27084,-21.26774 13.85476,-7.22459 16.19368,-10.57117 18.05087,-25.8275 1.1735,-9.64008 5.74566,-44.07607 10.16032,-76.52444 4.41467,-32.44838 7.29348,-59.80792 6.39737,-60.79902 -0.89611,-0.99111 -8.83457,1.38659 -17.64102,5.28378 -8.80646,3.89722 -16.03904,5.62294 -16.07242,3.83493 -0.0333,-1.78801 -1.69608,-0.39174 -3.69491,3.10277 -2.06136,3.60385 -9.72607,6.35369 -17.70983,6.35369 -7.74157,0 -12.1745,1.29952 -9.85089,2.88782 2.32358,1.58827 -3.18405,6.16646 -12.23919,10.17369 -14.76401,6.53366 -16.24413,8.52022 -14.33581,19.24059 4.21029,23.65189 11.02676,113.11599 9.59514,125.93299 -1.26659,11.3395 -2.16928,9.86391 -6.73209,-11.00474 -2.89814,-13.25511 -6.83631,-32.67995 -8.75144,-43.16632 -8.12606,-44.49417 -11.65606,-54.11546 -18.67047,-50.88782 -3.68023,1.69346 -8.74993,3.17281 -11.26593,3.2874 -2.51603,0.11463 -3.66242,2.83752 -2.54753,6.05086 1.82905,5.27172 -3.2669,7.92902 -11.99114,6.25283 -1.79624,-0.34529 -2.22206,1.24049 -0.94631,3.52354 1.27575,2.28305 -5.96809,13.06018 -16.09745,23.94912 l -18.41701,19.79814 20.01081,42.98271 c 23.66806,50.8385 38.12579,80.14235 39.56473,80.19237 0.57181,0.021 7.70313,-11.05696 15.84738,-24.61516 z M 517.24558,338.00433 c 25.34019,-23.41421 48.07028,-44.70761 50.51125,-47.31874 2.44098,-2.6111 15.24518,-14.42287 28.45382,-26.24834 13.20863,-11.82547 23.33894,-22.71193 22.51177,-24.19219 -0.82714,-1.48022 -11.40282,-6.41279 -23.50151,-10.96123 -12.09871,-4.54843 -21.99762,-9.34043 -21.99762,-10.64889 0,-1.30842 -4.01138,-2.57558 -8.91415,-2.81592 -4.9028,-0.24047 -21.29156,-5.6249 -36.41947,-11.96569 -25.5824,-10.72272 -28.00593,-11.02762 -34.66614,-4.36121 -3.93846,3.94213 -7.16084,9.12359 -7.16084,11.5144 0,2.39077 -5.85862,12.43728 -13.01919,22.32559 -11.95894,16.51462 -17.99876,25.82977 -34.52295,53.24442 -3.26852,5.42267 -14.39497,22.94409 -24.72543,38.9365 -12.19523,18.87914 -17.05847,29.74786 -13.86646,30.98961 20.0689,7.80727 64.98701,23.5755 67.79386,23.79866 1.8975,0.15074 24.18289,-18.88278 49.52306,-42.29697 z m -152.60971,21.20531 23.18054,-2.73428 29.02625,-52.58227 c 15.96447,-28.92024 31.07107,-52.04046 33.57024,-51.37824 2.49923,0.66223 3.3753,-0.88744 1.94685,-3.44371 -1.42842,-2.55627 2.89614,-14.11578 9.61014,-25.68784 6.714,-11.57206 12.20727,-22.34638 12.20727,-23.94288 0,-1.59654 -26.67374,-2.90279 -59.27497,-2.90279 l -59.27498,0 -4.15934,17.08419 c -2.28762,9.39627 -5.79504,25.66393 -7.79425,36.15031 -1.99917,10.48638 -9.013,40.62583 -15.58628,66.97656 -6.57326,26.35076 -11.0942,49.44447 -10.04651,51.31938 1.04768,1.87491 6.74452,1.26397 12.65968,-1.35764 5.91517,-2.62161 21.18608,-5.99697 33.93536,-7.50079 z"
       id="path3526"
       inkscape:connector-curvature="0" />
  </g>
</svg>
