<?xml version="1.0" encoding="UTF-8" standalone="no"?>
<!-- Created with Inkscape (http://www.inkscape.org/) -->

<svg
   xmlns:dc="http://purl.org/dc/elements/1.1/"
   xmlns:cc="http://creativecommons.org/ns#"
   xmlns:rdf="http://www.w3.org/1999/02/22-rdf-syntax-ns#"
   xmlns:svg="http://www.w3.org/2000/svg"
   xmlns="http://www.w3.org/2000/svg"
   xmlns:sodipodi="http://sodipodi.sourceforge.net/DTD/sodipodi-0.dtd"
   xmlns:inkscape="http://www.inkscape.org/namespaces/inkscape"
   width="210mm"
   height="297mm"
   viewBox="0 0 744.09448819 1052.3622047"
   id="svg4682"
   version="1.1"
   inkscape:version="0.91 r13725"
   sodipodi:docname="dotnet2.svg">
  <defs
     id="defs4684" />
  <sodipodi:namedview
     id="base"
     pagecolor="#ffffff"
     bordercolor="#666666"
     borderopacity="1.0"
     inkscape:pageopacity="0.0"
     inkscape:pageshadow="2"
     inkscape:zoom="0.7"
     inkscape:cx="457.33055"
     inkscape:cy="532.78922"
     inkscape:document-units="px"
     inkscape:current-layer="layer1"
     showgrid="false"
     inkscape:window-width="1600"
     inkscape:window-height="847"
     inkscape:window-x="-8"
     inkscape:window-y="-8"
     inkscape:window-maximized="1" />
  <metadata
     id="metadata4687">
    <rdf:RDF>
      <cc:Work
         rdf:about="">
        <dc:format>image/svg+xml</dc:format>
        <dc:type
           rdf:resource="http://purl.org/dc/dcmitype/StillImage" />
        <dc:title></dc:title>
      </cc:Work>
    </rdf:RDF>
  </metadata>
  <g
     inkscape:label="Camada 1"
     inkscape:groupmode="layer"
     id="layer1">
    <g
       style="font-style:normal;font-weight:normal;font-size:250px;line-height:125%;font-family:sans-serif;letter-spacing:0px;word-spacing:0px;fill:#000000;fill-opacity:1;stroke:none;stroke-width:1px;stroke-linecap:butt;stroke-linejoin:miter;stroke-opacity:1"
       id="text4690"
       transform="matrix(1.4872286,0,0,2.5954817,-106.54471,-802.85432)">
      <path
         d="m 86.733398,538.49921 25.756832,0 0,31.00586 -25.756832,0 0,-31.00586 z"
         id="path4699"
         inkscape:connector-curvature="0" />
      <path
         d="m 276.79687,486.98553 0,82.51954 -22.46093,0 0,-81.78711 q 0,-19.40918 -7.56836,-29.05274 -7.56836,-9.64355 -22.70508,-9.64355 -18.18848,0 -28.68652,11.59668 -10.49805,11.59668 -10.49805,31.61621 l 0,77.27051 -22.58301,0 0,-136.71875 22.58301,0 0,21.24023 q 8.05664,-12.3291 18.9209,-18.43262 10.98633,-6.10351 25.26855,-6.10351 23.55957,0 35.64453,14.64843 12.08496,14.52637 12.08496,42.84668 z"
         id="path4701"
         inkscape:connector-curvature="0" />
      <path
         d="m 438.78418,495.53046 0,10.98632 -103.27148,0 q 1.46484,23.19336 13.91601,35.4004 12.57324,12.08496 34.91211,12.08496 12.93945,0 25.02441,-3.17383 12.20704,-3.17383 24.16993,-9.52149 l 0,21.24024 q -12.08496,5.12695 -24.78028,7.8125 -12.69531,2.68554 -25.75683,2.68554 -32.71485,0 -51.87989,-19.04296 -19.04296,-19.04297 -19.04296,-51.51368 0,-33.56933 18.0664,-53.22265 18.18848,-19.77539 48.9502,-19.77539 27.58789,0 43.5791,17.82226 16.11328,17.7002 16.11328,48.21778 z m -22.46094,-6.5918 q -0.24414,-18.43262 -10.37597,-29.41895 -10.00977,-10.98632 -26.61133,-10.98632 -18.79883,0 -30.15137,10.62011 -11.23047,10.62012 -12.93945,29.90723 l 80.07812,-0.12207 z"
         id="path4703"
         inkscape:connector-curvature="0" />
      <path
         d="m 497.86621,393.96796 0,38.81836 46.26465,0 0,17.45605 -46.26465,0 0,74.21875 q 0,16.72363 4.5166,21.48438 4.63867,4.76074 18.67676,4.76074 l 23.07129,0 0,18.79883 -23.07129,0 q -26.00098,0 -35.88867,-9.64356 -9.8877,-9.76562 -9.8877,-35.40039 l 0,-74.21875 -16.47949,0 0,-17.45605 16.47949,0 0,-38.81836 22.58301,0 z"
         id="path4705"
         inkscape:connector-curvature="0" />
    </g>
    <text
       xml:space="preserve"
       style="font-style:normal;font-weight:normal;font-size:40px;line-height:125%;font-family:sans-serif;letter-spacing:0px;word-spacing:0px;fill:#000000;fill-opacity:1;stroke:none;stroke-width:1px;stroke-linecap:butt;stroke-linejoin:miter;stroke-opacity:1"
       x="1160"
       y="543.79077"
       id="text4694"
       sodipodi:linespacing="125%"><tspan
         sodipodi:role="line"
         id="tspan4696"
         x="1160"
         y="543.79077">z</tspan></text>
  </g>
</svg>
