<?xml version="1.0" encoding="UTF-8" standalone="no"?>
<!-- Created with Inkscape (http://www.inkscape.org/) -->

<svg
   xmlns:dc="http://purl.org/dc/elements/1.1/"
   xmlns:cc="http://creativecommons.org/ns#"
   xmlns:rdf="http://www.w3.org/1999/02/22-rdf-syntax-ns#"
   xmlns:svg="http://www.w3.org/2000/svg"
   xmlns="http://www.w3.org/2000/svg"
   xmlns:sodipodi="http://sodipodi.sourceforge.net/DTD/sodipodi-0.dtd"
   xmlns:inkscape="http://www.inkscape.org/namespaces/inkscape"
   width="210mm"
   height="297mm"
   viewBox="0 0 744.09448819 1052.3622047"
   id="svg3394"
   version="1.1"
   inkscape:version="0.91 r13725"
   sodipodi:docname="email.svg">
  <defs
     id="defs3396" />
  <sodipodi:namedview
     id="base"
     pagecolor="#ffffff"
     bordercolor="#666666"
     borderopacity="1.0"
     inkscape:pageopacity="0.0"
     inkscape:pageshadow="2"
     inkscape:zoom="0.35"
     inkscape:cx="375"
     inkscape:cy="520"
     inkscape:document-units="px"
     inkscape:current-layer="layer1"
     showgrid="false"
     inkscape:window-width="1600"
     inkscape:window-height="847"
     inkscape:window-x="-8"
     inkscape:window-y="-8"
     inkscape:window-maximized="1" />
  <metadata
     id="metadata3399">
    <rdf:RDF>
      <cc:Work
         rdf:about="">
        <dc:format>image/svg+xml</dc:format>
        <dc:type
           rdf:resource="http://purl.org/dc/dcmitype/StillImage" />
        <dc:title></dc:title>
      </cc:Work>
    </rdf:RDF>
  </metadata>
  <g
     inkscape:label="Camada 1"
     inkscape:groupmode="layer"
     id="layer1">
    <path
       style="fill:#000000"
       d="m 34.732161,496.64798 0,-207.05358 338.124999,0 338.125,0 0,207.05358 0,207.05357 -338.125,0 -338.124999,0 0,-207.05357 z M 563.28789,610.03446 c -36.99607,-31.99473 -74.94679,-64.2347 -84.33488,-71.64442 l -17.0692,-13.47216 -23.56388,18.12467 c -43.7468,33.64895 -83.23312,33.28049 -127.55663,-1.19016 l -24.77386,-19.26676 -47.70964,40.27349 c -26.2403,22.15045 -64.91704,54.91521 -85.94832,72.81054 l -38.23865,32.53699 258.23038,0 258.23033,0 -67.26565,-58.17219 z m -393.01528,-43.4232 85.08146,-70.04437 -86.33048,-70.90817 -86.330439,-70.90815 0,140.95252 c 0,77.52391 0.562027,140.95254 1.248982,140.95254 0.686955,0 39.535667,-31.51997 86.330477,-70.04437 z m 491.65892,-138.97543 -1.30841,-71.49654 -83.49127,71.56065 -83.49126,71.56062 83.49126,68.74636 83.49127,68.74633 1.30841,-68.81044 c 0.71964,-37.8458 0.71964,-100.9839 0,-140.30698 z m -149.98749,-0.006 124.62943,-102.54082 -260.97252,0 -260.9725,0 87.87122,73.94771 c 156.32994,131.55882 155.77589,131.13393 170.98624,131.13393 11.69071,0 33.0975,-15.8537 138.45813,-102.54082 z"
       id="path3413"
       inkscape:connector-curvature="0" />
  </g>
</svg>
