<?xml version="1.0" encoding="UTF-8" standalone="no"?>
<!-- Created with Inkscape (http://www.inkscape.org/) -->

<svg
   xmlns:dc="http://purl.org/dc/elements/1.1/"
   xmlns:cc="http://creativecommons.org/ns#"
   xmlns:rdf="http://www.w3.org/1999/02/22-rdf-syntax-ns#"
   xmlns:svg="http://www.w3.org/2000/svg"
   xmlns="http://www.w3.org/2000/svg"
   xmlns:sodipodi="http://sodipodi.sourceforge.net/DTD/sodipodi-0.dtd"
   xmlns:inkscape="http://www.inkscape.org/namespaces/inkscape"
   width="210mm"
   height="297mm"
   viewBox="0 0 744.09448819 1052.3622047"
   id="svg5648"
   version="1.1"
   inkscape:version="0.91 r13725"
   sodipodi:docname="erlang.svg">
  <defs
     id="defs5650" />
  <sodipodi:namedview
     id="base"
     pagecolor="#ffffff"
     bordercolor="#666666"
     borderopacity="1.0"
     inkscape:pageopacity="0.0"
     inkscape:pageshadow="2"
     inkscape:zoom="0.35"
     inkscape:cx="375"
     inkscape:cy="520"
     inkscape:document-units="px"
     inkscape:current-layer="layer1"
     showgrid="false"
     inkscape:window-width="1600"
     inkscape:window-height="847"
     inkscape:window-x="-8"
     inkscape:window-y="-8"
     inkscape:window-maximized="1" />
  <metadata
     id="metadata5653">
    <rdf:RDF>
      <cc:Work
         rdf:about="">
        <dc:format>image/svg+xml</dc:format>
        <dc:type
           rdf:resource="http://purl.org/dc/dcmitype/StillImage" />
        <dc:title></dc:title>
      </cc:Work>
    </rdf:RDF>
  </metadata>
  <g
     inkscape:label="Camada 1"
     inkscape:groupmode="layer"
     id="layer1">
    <g
       id="g5667"
       transform="matrix(3.1295475,0,0,2.7119097,181.56421,-946.84286)">
      <path
         style="fill-opacity:1"
         d="m -39.119033,625.14493 c -0.288104,-0.28645 -0.523827,-7.45832 -0.523827,-15.9375 l 0,-15.41666 8.836939,0 c 8.449251,0 8.819415,0.12337 8.4375,2.8125 -0.320853,2.25916 -1.32167,2.88883 -5.086939,3.20046 -4.029723,0.33351 -4.6875,0.81588 -4.6875,3.4375 0,2.7065 0.543244,3.04954 4.82933,3.04954 4.216885,0 4.811344,0.35667 4.6875,2.8125 -0.116812,2.3165 -0.968497,2.88091 -4.82933,3.20046 -4.265626,0.35304 -4.6875,0.71866 -4.6875,4.0625 0,3.4641 0.291331,3.67454 5.086939,3.67454 4.522395,0 5.042608,0.30383 4.6875,2.73766 -0.361413,2.47704 -1.152818,2.74479 -8.313112,2.8125 -4.35252,0.0411 -8.149395,-0.15953 -8.4375,-0.446 z m 31.3506467,0.10363 C -8.1118475,624.90512 -8.39286,617.68661 -8.39286,609.20743 l 0,-15.41666 7.409275,0 c 6.51552,0 7.721785,0.39729 10,3.29357 3.26138,4.14618 3.290251,7.97998 0.090725,12.04752 -3.1720388,4.0326 -3.1486912,4.37394 0.6850975,10.01586 3.5280175,5.19195 3.2863705,6.876 -0.9558512,6.66136 -1.8335313,-0.0928 -3.938225,-1.85992 -5.9682963,-5.0111 l -3.13595,-4.8678 -0.625,4.77004 c -0.5038262,3.84522 -1.1703837,4.80908 -3.4380263,4.97144 -1.5471649,0.11075 -3.09404,-0.0796 -3.4375,-0.42308 z M 3.720305,605.49585 C 4.5781675,603.2603 2.9110187,599.85037 0.58033625,599.07348 -0.36787,598.75743 -0.89286,600.17863 -0.89286,603.06161 c 0,4.77553 3.0892025,6.40564 4.613165,2.43426 z m 22.157669,19.64906 c -0.286459,-0.28643 -0.520834,-7.4583 -0.520834,-15.93748 l 0,-15.41666 3.75,0 3.75,0 0,13.125 0,13.125 4.375,0 c 3.541663,0 4.375,0.47619 4.375,2.5 0,1.90973 -0.885413,2.53689 -3.75,2.65625 -2.0625,0.0859 -5.484375,0.22656 -7.604166,0.3125 -2.119793,0.0859 -4.088543,-0.0781 -4.375,-0.36459 z m 25.729166,0.18807 c 0,-0.31443 2.632512,-7.54007 5.850012,-16.05696 5.395663,-14.28254 6.099525,-15.48499 9.0625,-15.48194 2.962413,0.002 3.630263,1.14639 8.579288,14.6875 6.642425,18.17443 6.4707,17.15464 2.918787,17.3333 -2.044237,0.10288 -3.596262,-0.96172 -5,-3.42959 -1.665687,-2.92841 -2.880112,-3.58015 -6.683162,-3.58662 -3.785875,-0.006 -4.976175,0.61924 -6.4198,3.37451 -1.181188,2.25435 -2.862025,3.44061 -5.039925,3.55696 -1.797237,0.096 -3.2677,-0.0827 -3.2677,-0.39716 z m 17.5,-12.60568 c 0,-0.58491 -0.656525,-2.94678 -1.458938,-5.24859 -1.274587,-3.65629 -1.579387,-3.8773 -2.41215,-1.74903 -1.853287,4.73645 -1.287812,8.06109 1.371088,8.06109 1.375,0 2.5,-0.47856 2.5,-1.06347 z m 25.3125,12.60285 c -2.740988,-0.45148 -2.8125,-0.85837 -2.8125,-16.00132 l 0,-15.53806 2.9926,0 c 2.258463,0 4.788325,2.34678 10.3125,9.56616 l 7.3199,9.56615 0.36507,-9.56615 0.36509,-9.56616 3.69741,0 3.69743,0 0,15.625 0,15.625 -2.9926,0 c -2.25854,0 -4.78815,-2.34674 -10.3125,-9.56696 l -7.3199,-9.56697 -0.373538,9.25301 c -0.205449,5.08915 -0.76795,9.56362 -1.25,9.94327 -0.482049,0.37965 -2.142087,0.48181 -3.688962,0.22703 z m 42.71289,-1.39622 c -5.2573,-3.2059 -7.49605,-8.9564 -6.97344,-17.91216 0.28101,-4.8158 6.97422,-11.98193 12.08706,-12.9411 8.71285,-1.63454 19.04123,5.11039 13.75001,8.97942 -1.82586,1.3351 -2.76073,1.16104 -5.78897,-1.07783 -5.20348,-3.8471 -9.87328,-1.99867 -12.25255,4.84988 -1.63253,4.69909 -1.57584,5.4617 0.69506,9.35002 2.02406,3.46566 3.2258,4.23361 6.62504,4.23361 2.91962,0 4.7069,-0.83503 6.0199,-2.8125 1.80551,-2.71925 1.73516,-2.8125 -2.12198,-2.8125 -3.42217,0 -3.93261,-0.39989 -3.58996,-2.8125 0.35403,-2.49273 1.15724,-2.82924 7.06459,-2.95974 8.02304,-0.17722 8.87176,1.11918 5.87312,8.97099 -3.40491,8.91562 -13.03028,12.04087 -21.38788,6.94441 z m -176.77539,-103.89316 0,-63.75 13.75,0 c 7.5625,0 13.75,0.25627 13.75,0.56949 0,0.31322 -2.239046,3.76584 -4.975657,7.67248 -6.293707,8.98456 -11.830369,23.33962 -13.82597,35.84697 -1.879917,11.78231 -0.957657,33.44638 1.874657,44.03606 3.659541,13.68259 13.710269,32.21444 20.5075712,37.8125 1.5383188,1.26691 -1.22204,1.5625 -14.5916882,1.5625 l -16.488913,0 0,-63.75 z m 181.0092,55.9375 c 3.32826,-4.29687 7.30822,-9.90101 8.84437,-12.45363 l 2.793,-4.64112 -14.76833,-7.40315 -14.76834,-7.40314 -4.22753,6.1319 C 99.357927,579.04681 66.673115,585.69543 47.189027,564.86536 38.340651,555.40573 33.55743,541.8994 32.642605,523.79077 l -0.410465,-8.125 58.625125,-0.32498 58.625135,-0.32498 -0.76109,-12.80002 C 147.648,484.16453 144.5518,473.52051 136.65978,460.75093 l -2.75654,-4.46016 13.85195,0 13.85195,0 0,63.75 0,63.75 -13.14609,0 -13.14609,0 6.05138,-7.8125 z m -107.231748,-92.5 c 0.03843,-3.9364 4.09868,-12.16696 8.010735,-16.23859 6.676375,-6.94869 15.233713,-9.40837 25.086813,-7.21082 11.5436,2.57459 17.830737,9.38016 19.93095,21.57441 l 0.807337,4.6875 -26.931649,0 -26.931638,0 0.02745,-2.8125 z"
         id="path5683"
         inkscape:connector-curvature="0" />
      <path
         style="fill-opacity:1"
         d="m 137.56035,624.33403 c -10.23902,-5.55563 -9.34224,-24.28732 1.42944,-29.85757 4.74369,-2.45307 8.04304,-2.44415 13.26925,0.0359 5.09135,2.416 6.52396,5.50998 3.55614,7.6801 -1.82677,1.33578 -2.60669,1.1899 -4.83609,-0.90451 -8.97151,-8.4283 -19.34491,7.25642 -10.95582,16.56536 2.8131,3.12155 8.51371,2.7954 10.92415,-0.625 1.91866,-2.72257 1.86098,-2.82502 -1.80412,-3.2042 -2.7767,-0.28727 -3.78616,-1.03714 -3.78616,-2.81251 0,-2.1302 0.9166,-2.4208 7.63551,-2.4208 l 7.63551,0 -0.80356,3.4375 c -1.57932,6.75615 -3.3759,9.86708 -6.90081,11.94929 -4.3682,2.58036 -10.77594,2.64562 -15.36344,0.15647 z m -177.20321,-14.91826 0,-15.625 8.836939,0 c 8.449251,0 8.819415,0.12337 8.4375,2.8125 -0.341339,2.40341 -1.059295,2.76306 -4.935988,2.47264 -3.966081,-0.29711 -4.61162,0.0529 -5.133544,2.78312 -0.756046,3.955 -0.231253,4.43174 4.878427,4.43174 3.290107,0 4.166666,0.51006 4.166666,2.42454 0,1.8994 -1.015305,2.50857 -4.6875,2.8125 -4.288787,0.35496 -4.6875,0.70693 -4.6875,4.13796 0,3.51814 0.328471,3.77376 5.3125,4.13438 4.294834,0.31073 5.3125,0.84949 5.3125,2.8125 0,2.17291 -0.919666,2.42812 -8.75,2.42812 l -8.75,0 0,-15.625 z m 31.25,0 0,-15.625 7.409275,0 c 6.51552,0 7.721785,0.39729 10,3.29357 3.454876,4.39217 3.268355,8.64243 -0.5466913,12.45748 l -3.1374162,3.13743 3.7624162,5.46847 c 2.0693283,3.00767 3.7624163,5.78901 3.7624163,6.18077 0,0.39175 -1.655618,0.71228 -3.67915,0.71228 -2.995625,0 -4.2706912,-0.98697 -6.863175,-5.3125 -2.8845925,-4.8129 -3.1986725,-5.01862 -3.3397925,-2.1875 -0.085675,1.71875 -0.055638,4.10937 0.06675,5.3125 0.16841375,1.65564 -0.7083625,2.1875 -3.6060575,2.1875 l -3.828575,0 0,-15.625 z m 12.2551188,-5.7885 c 0.2520987,-2.1668 -0.33439,-3.54131 -1.74141,-4.08124 -2.53350505,-0.9722 -2.6928638,-0.84778 -3.0354263,2.36974 -0.4897425,4.59993 0.006375,5.81121 2.2092175,5.39346 1.2866425,-0.244 2.3440412,-1.76031 2.5676188,-3.68196 z m 21.5837152,5.7885 -0.03952,-15.625 3.725342,0 3.725342,0 0,13.125 0,13.125 4.375,0 c 3.541663,0 4.375,0.47619 4.375,2.5 0,2.24155 -0.833337,2.5 -8.060824,2.5 l -8.060824,0 -0.03953,-15.625 z m 26.161166,15.24158 c 0,-0.21088 2.705738,-7.1015 6.01275,-15.3125 5.211987,-12.94088 6.418887,-14.97473 9.0625,-15.27188 2.829275,-0.31801 3.4338,0.72159 8.36225,14.38063 2.921875,8.09788 5.3125,15.14276 5.3125,15.6553 0,0.51252 -1.418312,0.93187 -3.1518,0.93187 -2.148888,0 -3.604863,-0.99438 -4.575638,-3.125 -1.192212,-2.6166 -2.284287,-3.125 -6.7127,-3.125 -4.59895,0 -5.39115,0.40764 -6.073162,3.125 -0.617188,2.45904 -1.5784,3.125 -4.510513,3.125 -2.049399,0 -3.726187,-0.17254 -3.726187,-0.38342 z m 16.67985,-15.55408 c -1.068425,-2.57812 -2.091175,-4.84832 -2.272775,-5.04489 -0.1816,-0.19656 -0.906425,1.91281 -1.610725,4.6875 -1.271763,5.01035 -1.2562,5.04489 2.272775,5.04489 l 3.553313,0 -1.942588,-4.6875 z m 23.32015,0.3125 c 0,-15.47781 0.02712,-15.625 2.879325,-15.625 2.13565,0 4.879875,2.62822 10.625005,10.1759 l 7.74567,10.17589 0,-10.17589 0,-10.1759 3.75,0 3.75,0 0,15.625 c 0,15.58874 -0.006,15.625 -2.95172,15.625 -2.20894,0 -4.80406,-2.42071 -10.3125,-9.61949 l -7.36078,-9.61947 -0.365075,9.61947 -0.365087,9.61949 -3.697413,0 -3.697425,0 0,-15.625 z m -131.25,-89.375 0,-63.75 13.902465,0 13.902465,0 -2.030534,2.8125 c -12.458813,17.25675 -18.214081,35.51179 -18.252691,57.89543 -0.03889,22.54842 5.597477,41.6734 16.941401,57.48446 l 6.6779053,9.30761 -15.5705063,0 -15.570505,0 0,-63.75 z m 180.52439,56.93222 c 5.7336,-7.03931 12.63285,-17.97115 11.81497,-18.72077 -0.643,-0.58935 -28.44489,-14.46145 -28.98302,-14.46145 -0.23942,0 -2.18482,2.69996 -4.32312,5.99991 -5.332,8.22868 -16.00417,18.04964 -24.136558,22.21143 -8.976012,4.59351 -23.897487,5.65181 -33.71435,2.39118 C 44.72394,568.80807 32.85714,547.32121 32.85714,522.45905 l 0,-7.41828 58.312263,0 58.312267,0 -0.73161,-13.4375 c -0.81333,-14.93878 -3.98398,-27.12873 -9.74896,-37.48106 -2.00417,-3.59896 -3.64396,-6.85302 -3.64396,-7.23123 0,-0.37822 5.6514,-0.52737 12.55867,-0.33144 l 12.55868,0.35623 0.25382,63.43737 0.25383,63.43737 -12.82689,1.2e-4 -12.82687,1.4e-4 5.55315,-6.81778 z M 34.134593,483.50313 c 0.08966,-9.26705 10.939959,-21.14036 21.361297,-23.37534 16.018688,-3.43539 29.749138,6.10631 31.352775,21.78798 l 0.383475,3.75 -26.5625,0.33736 -26.5625,0.33736 0.02745,-2.83736 z"
         id="path5681"
         inkscape:connector-curvature="0" />
      <path
         style="fill-opacity:1"
         d="m 138.48214,624.87549 c -7.38136,-3.67909 -10.44649,-16.98264 -5.66721,-24.59744 5.07947,-8.09312 16.53827,-9.75318 22.62204,-3.2773 2.51357,2.67557 2.69149,3.35393 1.13742,4.33672 -2.63773,1.66806 -4.43673,1.47371 -6.21725,-0.6717 -0.85586,-1.03125 -3.183,-1.875 -5.17142,-1.875 -7.41533,0 -10.97142,12.65285 -5.31328,18.90504 2.95009,3.2598 8.61761,3.02049 11.07195,-0.46754 1.89878,-2.69849 1.83893,-2.83823 -1.47636,-3.44714 -1.95453,-0.35897 -3.63754,-1.58058 -3.87478,-2.8125 -0.36221,-1.8808 0.63432,-2.17786 7.30597,-2.17786 6.531,0 7.60808,0.3057 6.96666,1.97724 -0.41731,1.08747 -0.75874,3.11247 -0.75874,4.5 0,1.38751 -1.9125,4.43526 -4.25,6.77276 -3.41569,3.41569 -5.19474,4.23339 -9.0625,4.1654 -2.64687,-0.0465 -5.9375,-0.64534 -7.3125,-1.33068 z m -178.125,-15.45972 0,-15.625 8.75,0 c 7.830334,0 8.75,0.25521 8.75,2.42812 0,1.96301 -1.017666,2.50177 -5.3125,2.8125 -4.75366,0.34394 -5.354108,0.74598 -5.708027,3.82188 -0.374103,3.25129 -0.120176,3.4375 4.687499,3.4375 4.196963,0 5.083028,0.42264 5.083028,2.42454 0,1.8994 -1.015305,2.50857 -4.6875,2.8125 -4.288787,0.35496 -4.6875,0.70693 -4.6875,4.13796 0,3.51814 0.328471,3.77376 5.3125,4.13438 4.294834,0.31073 5.3125,0.84949 5.3125,2.8125 0,2.17291 -0.919666,2.42812 -8.75,2.42812 l -8.75,0 0,-15.625 z m 31.25,0 0,-15.625 6.73652,0 c 8.7929862,0 12.51348,2.78736 12.51348,9.375 0,3.38349 -0.798342,5.34356 -2.8546337,7.00864 -2.8541976,2.3112 -2.8542626,2.31207 -0.4272275,5.77645 1.3350724,1.9057 3.0894492,4.73053 3.8986122,6.27741 1.369418,2.61791 1.212355,2.8125 -2.2700785,2.8125 -3.1401063,0 -4.3021213,-0.95409 -7.23148,-5.9375 l -3.4901925,-5.9375 -0.3809887,5.9375 c -0.343975,5.36065 -0.6779413,5.9375 -3.4375,5.9375 l -3.0565113,0 0,-15.625 z m 12.296865,-5.48364 c 0.4170213,-2.94937 -1.45273,-5.08509 -4.484365,-5.12222 -0.961755,-0.0112 -1.5625,1.69637 -1.5625,4.4428 0,3.91221 0.3465088,4.41272 2.8125,4.0625 1.8638663,-0.26472 2.9547913,-1.4058 3.234365,-3.38308 z m 22.703135,5.48364 0,-15.625 3.125,0 c 1.71875,0 3.058389,0.42188 2.976974,0.9375 -0.08141,0.51562 -0.08141,6.42187 0,13.125 l 0.148026,12.1875 4.375,0 c 3.541663,0 4.375,0.47619 4.375,2.5 0,2.22223 -0.833337,2.5 -7.5,2.5 l -7.5,0 0,-15.625 z m 27.650912,9.0625 c 1.437951,-3.60937 4.12945,-10.5 5.981138,-15.3125 2.83835,-7.37685 3.825125,-8.75 6.287937,-8.75 2.576363,0 3.5647,1.69712 8.371413,14.375 2.997587,7.90625 5.452062,14.79688 5.454387,15.3125 0.0025,0.51562 -1.415962,0.9375 -3.151725,0.9375 -2.216175,0 -3.509737,-0.93056 -4.344062,-3.125 -1.0247,-2.69516 -1.962813,-3.125 -6.82025,-3.125 -4.965113,0 -5.725013,0.37009 -6.41645,3.125 -0.60925,2.42745 -1.587063,3.125 -4.380575,3.125 l -3.59625,0 2.614437,-6.5625 z m 15.47195,-6.25 c -0.301775,-0.85937 -1.193225,-3.25 -1.980974,-5.3125 l -1.432301,-3.75 -1.6347,4.375 c -2.291687,6.13335 -2.2565,6.25 1.885888,6.25 2.4279,0 3.521075,-0.54018 3.162087,-1.5625 z m 21.877138,-2.8125 c 0,-15.37896 0.04438,-15.625 2.817737,-15.625 2.055163,0 4.930613,2.7591 10.625003,10.1951 l 7.80726,10.19509 0,-10.19509 0,-10.1951 3.57279,0 3.57277,0 0.23176,15.625 c 0.22447,15.13226 0.14867,15.625 -2.40347,15.625 -2.68126,0 -5.66289,-3.01504 -14.03635,-14.19368 l -4.6875,-6.25783 0,10.22575 0,10.22576 -3.75,0 -3.75,0 0,-15.625 z m -131.25,-89.375 0,-63.75 13.810051,0 13.81005,0 -3.643869,5.3125 c -6.463867,9.42385 -11.470666,20.71806 -14.139438,31.89537 -2.214594,9.27513 -2.5135,13.54923 -1.98733,28.41713 0.406363,11.48258 1.359365,19.86399 2.77154,24.375 3.205764,10.2404 9.892567,23.53172 15.564514,30.9375 l 5.026097,6.5625 -15.605808,0 -15.605807,0 0,-63.75 z m 180.27245,57.1875 c 5.81892,-6.98655 12.22755,-16.48524 12.22755,-18.12335 0,-0.5442 -6.5946,-4.27206 -14.65465,-8.28415 l -14.65465,-7.29469 -1.90785,2.92744 c -15.89286,24.38629 -37.521225,34.53169 -59.623412,27.96804 -16.688326,-4.9559 -29.062019,-27.12041 -29.137733,-52.19329 l -0.0217,-7.1875 58.31075,0 58.310755,0 -0.69264,-14.06382 c -0.75657,-15.36178 -3.46651,-25.58511 -9.76926,-36.85474 -2.01278,-3.59896 -3.65961,-6.83334 -3.65961,-7.1875 0,-0.35417 5.625,-0.64394 12.5,-0.64394 l 12.5,0 0,63.75 0,63.75 -12.59665,0 -12.59666,0 5.46576,-6.5625 z M 34.10714,484.78169 c 0,-7.71675 7.709888,-18.8201 15.536575,-22.3749 10.7237,-4.8706 26.338725,-1.69001 32.369787,6.59332 2.551238,3.50398 5.950888,14.72004 4.969175,16.3942 -0.911862,1.55504 -52.875537,0.95299 -52.875537,-0.61262 z"
         id="path5679"
         inkscape:connector-curvature="0" />
      <path
         style="fill-opacity:1"
         d="m 135.7712,622.12172 c -3.95354,-3.62315 -4.61496,-5.05534 -5.05122,-10.9375 -0.39263,-5.29359 0.0639,-7.67006 2.09495,-10.90617 2.56113,-4.08065 8.97297,-7.73728 13.56721,-7.73728 2.70249,0 10.42269,4.90978 11.13494,7.08143 0.80798,2.46353 -4.60747,3.35353 -7.03544,1.15623 -2.98275,-2.69933 -8.02058,-2.5031 -10.6617,0.41532 -1.19606,1.32164 -2.47866,4.66948 -2.85023,7.43966 -0.59083,4.40502 -0.1977,5.51454 3.13478,8.84702 4.51571,4.51572 5.16271,4.59914 9.45907,1.21962 4.13413,-3.25191 4.19104,-4.90928 0.16858,-4.90928 -2.29166,0 -3.125,-0.66666 -3.125,-2.5 0,-2.16666 0.83334,-2.5 6.25,-2.5 l 6.25,0 0,4.5 c 0,3.45098 -0.99074,5.49074 -4.25,8.75 -5.95344,5.95344 -12.64696,5.98183 -19.08594,0.081 z m -174.644997,-12.3947 0.144063,-15.31125 8.293437,-0.36961 c 7.567621,-0.33727 8.293437,-0.15212 8.293437,2.11562 0,2.03019 -0.972735,2.55563 -5.3125,2.86961 -4.75366,0.34394 -5.354108,0.74598 -5.708027,3.82188 -0.374103,3.25129 -0.120176,3.4375 4.687499,3.4375 4.249694,0 5.083028,0.40986 5.083028,2.5 0,2.08334 -0.833334,2.5 -5,2.5 -4.880952,0 -5,0.10413 -5,4.375 0,4.35185 0.02976,4.375 5.625,4.375 4.791666,0 5.625,0.37038 5.625,2.5 0,2.25321 -0.832915,2.49988 -8.4375,2.49875 l -8.4375,-0.001 0.144063,-15.31124 z m 31.105937,-0.31549 0,-15.62241 6.42402,8.2e-4 c 8.3751613,10e-4 11.883035,2.69407 12.069311,9.26557 0.102525,3.61689 -0.578888,5.38274 -2.7580135,7.14729 -2.8317912,2.29305 -2.8462875,2.4176 -0.6724912,5.77827 6.4740027,10.00873 6.2635937,9.0597 2.0086287,9.0597 -3.259145,0 -4.3698375,-0.89954 -7.3312625,-5.9375 l -3.4901925,-5.9375 -0.3809887,5.9375 c -0.3314663,5.16571 -0.7376688,5.93706 -3.125,5.93409 -2.678795,-0.003 -2.7440113,-0.3747 -2.7440113,-15.62583 z m 12.2429362,-4.39275 c 0.7182788,-2.7467 -1.9828162,-6.22801 -4.83222245,-6.22801 -1.20748245,0 -1.78571375,1.41666 -1.78571375,4.375 0,3.77624 0.4077312,4.375 2.97921125,4.375 1.93661375,0 3.21001255,-0.88259 3.63872495,-2.52199 z m 22.1320638,4.39699 c 0,-14.69894 0.145577,-15.625 2.456271,-15.625 2.258768,0 2.484915,1.03023 2.8125,12.8125 l 0.356229,12.8125 4.0625,0.3917 c 3.050025,0.29407 4.0625,0.99501 4.0625,2.8125 0,2.10098 -0.908313,2.4208 -6.875,2.4208 l -6.875,0 0,-15.625 z m 30.21295,2.8125 c 2.763438,-7.04687 5.534425,-14.11713 6.157762,-15.71167 0.791475,-2.02471 1.95375,-2.77878 3.853363,-2.5 2.22575,0.32663 3.692588,3.01138 8.072012,14.77417 2.943588,7.90625 5.374913,14.79688 5.402938,15.3125 0.028,0.51562 -1.264988,0.9375 -2.873375,0.9375 -1.9063,0 -3.42005,-1.08792 -4.348213,-3.125 -1.211875,-2.65979 -2.261662,-3.125 -7.051825,-3.125 -4.9607,0 -5.720975,0.37052 -6.412312,3.125 -0.604338,2.40789 -1.592125,3.125 -4.304563,3.125 l -3.520237,0 5.02445,-12.8125 z m 12.051425,-2.5 c -1.869538,-5.60279 -3.1316,-6.68253 -4.016188,-3.43598 -0.412575,1.51426 -1.068862,3.82088 -1.4584,5.12583 -0.585737,1.96223 -0.05625,2.37265 3.06095,2.37265 3.697175,0 3.743313,-0.0776 2.413638,-4.0625 z m 23.360625,-0.3125 c 0,-14.79909 0.13215,-15.62382 2.5,-15.60274 1.654188,0.0147 5.03745,3.40785 10,10.02915 l 7.5,10.0069 0.36305,-10.02916 c 0.35194,-9.72205 0.4572,-10.02915 3.4375,-10.02915 l 3.07445,0 0,15.625 c 0,19.39393 -0.98881,19.83441 -12.1875,5.42912 l -7.8125,-10.0495 0,10.12269 0,10.12269 -3.4375,0 -3.4375,0 0,-15.625 z m -131.875,-89.23293 0,-63.60793 13.125,-0.19217 c 7.21875,-0.10571 13.125,0.19402 13.125,0.66605 0,0.47202 -2.022896,3.90584 -4.495325,7.63071 -10.044679,15.13295 -14.55196,31.78441 -14.477867,53.48627 0.07913,23.17624 5.860158,41.77116 17.973506,57.8125 l 5.8994772,7.8125 -15.5748962,0 -15.574895,0 0,-63.60793 z m 176.98034,62.18749 c 0.48282,-0.78123 3.46915,-4.87086 6.63626,-9.08805 6.09864,-8.12067 9.64679,-14.17022 8.78111,-14.97171 -2.37477,-2.19872 -29.16711,-14.46888 -29.85499,-13.67275 -0.48851,0.56538 -3.58836,4.60209 -6.88856,8.97046 -12.03427,15.92943 -26.814947,23.4983 -43.763898,22.41059 -15.0724,-0.96729 -26.249937,-8.81661 -32.73905,-22.99071 -3.433045,-7.49875 -6.651212,-22.91954 -6.651212,-31.8712 l 0,-6.1639 56.5625,0.0481 c 31.10937,0.0265 57.34409,0.0372 58.29935,0.0238 1.41666,-0.0198 1.6187,-2.6167 1.09593,-14.08676 -0.69744,-15.30235 -4.3826,-29.0118 -10.33172,-38.43582 -1.71934,-2.7236 -3.12606,-5.16365 -3.12606,-5.42233 0,-0.25868 5.625,-0.48679 12.5,-0.5069 l 12.5,-0.0366 0,63.60706 0,63.60706 -11.94878,0 c -8.60332,0 -11.70297,-0.3977 -11.07088,-1.42044 z M 34.688317,481.60327 c 1.593542,-6.42786 6.279785,-13.31664 11.599848,-17.05176 8.971137,-6.2985 23.73125,-5.9442 32.272912,0.77467 3.911088,3.07647 7.979138,11.33426 8.018613,16.27709 l 0.02745,3.4375 -26.385512,0 -26.385508,0 0.852198,-3.4375 z"
         id="path5677"
         inkscape:connector-curvature="0" />
      <path
         style="fill-opacity:1"
         d="m 139.22764,624.70984 c -10.2811,-5.28366 -11.5607,-22.89166 -2.11341,-29.08176 6.28002,-4.11482 18.50425,-1.67831 20.42041,4.07018 0.80144,2.40431 -4.6648,3.24147 -7.053,1.08017 -2.93246,-2.65384 -8.00695,-2.51815 -10.54093,0.28186 -4.92567,5.44282 -3.44356,16.80004 2.48664,19.05469 2.6321,1.00073 9.17979,-0.2946 9.17979,-1.81604 0,-0.30453 0.34142,-1.44346 0.75874,-2.53093 0.5723,-1.49139 -0.042,-1.97724 -2.5,-1.97724 -2.4254,0 -3.25874,-0.63931 -3.25874,-2.5 0,-2.17523 0.83334,-2.5 6.41459,-2.5 l 6.41458,0 -0.71241,5.3125 c -1.30207,9.70972 -10.98796,14.97915 -19.49626,10.60657 z m -177.6205,-15.29407 0,-15.625 7.5,0 c 6.666666,0 7.5,0.27777 7.5,2.5 0,2.08334 -0.833334,2.5 -5,2.5 -4.722222,0 -5,0.20834 -5,3.75 0,3.54166 0.277778,3.75 5,3.75 4.166666,0 5,0.41666 5,2.5 0,2.08334 -0.833334,2.5 -5,2.5 -4.880952,0 -5,0.10413 -5,4.375 0,4.33807 0.04648,4.375 5.507975,4.375 4.892564,0 5.43493,0.27933 4.854211,2.5 -0.560311,2.14264 -1.70502,2.5 -8.007975,2.5 l -7.354211,0 0,-15.625 z m 31.25,-0.15479 0,-15.77978 7.0623225,0.58566 c 4.9410062,0.40975 7.5692512,1.27892 8.75,2.8937 2.5482745,3.48497 2.0913075,10.17659 -0.8991763,13.16706 -2.8040975,2.8041 -3.059165,1.87512 3.1508588,11.47565 l 2.22352,3.4375 -3.774985,0 c -3.1710312,0 -4.3439488,-0.94994 -7.3312625,-5.9375 l -3.5562775,-5.9375 -0.3809887,5.9375 c -0.3155613,4.91785 -0.7985563,5.9375 -2.8125,5.9375 -2.2802726,0 -2.4315113,-0.98149 -2.4315113,-15.77979 z m 10.5357138,-2.4345 c 2.3238625,-2.32386 2.3437987,-2.49093 0.6703062,-5.61788 -0.7116887,-1.32981 -2.3991888,-2.41783 -3.75,-2.41783 -1.9501562,0 -2.45602,0.8582 -2.45602,4.16666 0,6.08554 1.95372125,7.45105 5.5357138,3.86905 z m 23.2142862,2.58929 c 0,-14.79166 0.133334,-15.625 2.5,-15.625 2.34127,0 2.5,0.83334 2.5,13.125 l 0,13.125 4.375,0 c 3.541663,0 4.375,0.47619 4.375,2.5 0,2.19698 -0.833337,2.5 -6.875,2.5 l -6.875,0 0,-15.625 z m 31.272738,0.3125 c 5.147899,-13.17843 6.36765,-15.3125 8.752062,-15.3125 2.3997,0 3.5037,1.99556 8.247875,14.90851 3.012525,8.19968 5.477325,15.0903 5.477325,15.3125 0,0.22219 -1.315963,0.40399 -2.92435,0.40399 -1.9063,0 -3.42005,-1.08792 -4.348213,-3.125 -1.211875,-2.65979 -2.261662,-3.125 -7.051825,-3.125 -4.9607,0 -5.720975,0.37052 -6.412312,3.125 -0.6009,2.39419 -1.59555,3.125 -4.2532,3.125 l -3.468888,0 5.981525,-15.3125 z m 10.991637,0 c -1.869537,-5.60279 -3.1316,-6.68253 -4.016187,-3.43598 -0.412576,1.51426 -1.068863,3.82088 -1.4584,5.12583 -0.585738,1.96223 -0.05625,2.37265 3.06095,2.37265 3.697175,0 3.743312,-0.0776 2.413637,-4.0625 z m 23.985625,-0.3125 c 0,-19.45847 1.066275,-19.94864 11.875,-5.45887 l 7.5,10.05421 0.36305,-10.11018 c 0.35221,-9.8081 0.45491,-10.11016 3.4375,-10.11016 l 3.07445,0 0,15.625 c 0,19.38399 -1.04307,19.87561 -11.875,5.59701 -4.125,-5.43756 -7.921875,-9.90572 -8.4375,-9.92924 -0.515625,-0.0235 -0.9375,4.45723 -0.9375,9.95723 0,9.16666 -0.208338,10 -2.5,10 -2.366662,0 -2.5,-0.83334 -2.5,-15.625 z m -132.5,-88.66958 0,-63.04457 13.127638,-0.39293 c 7.220199,-0.21611 13.12645,-0.21302 13.125,0.007 -0.0015,0.21988 -1.728165,2.90775 -3.837143,5.97304 -13.752957,19.98922 -19.10288,51.28992 -13.225325,77.37716 2.695708,11.96477 11.339859,30.45363 17.678595,37.8125 l 4.5760425,5.3125 -15.7224035,0 -15.722404,0 0,-63.04458 z m 179.19727,58.79148 c 1.7842,-2.33921 5.78329,-7.9621 8.88685,-12.49534 l 5.64285,-8.24222 -14.05098,-7.18278 c -7.72804,-3.95051 -14.66981,-7.35262 -15.42617,-7.56025 -0.75634,-0.20761 -4.08457,3.31294 -7.39606,7.82343 -11.10219,15.12204 -24.054423,23.16205 -38.87996,24.13447 -26.068738,1.7099 -42.203708,-16.20298 -45.020736,-49.98159 l -0.812504,-9.74262 58.304715,0 58.304725,0 0,-11.18847 c 0,-16.78924 -3.69055,-31.57665 -10.62043,-42.55428 l -3.16093,-5.00725 12.51568,0 12.51568,0 0,63.125 0,63.125 -12.02336,0 -12.02337,0 3.244,-4.2531 z M 34.861553,481.60327 c 1.503372,-6.44336 6.111637,-13.32021 11.426612,-17.05176 8.971138,-6.2985 23.73125,-5.9442 32.272913,0.77467 3.911087,3.07647 7.979137,11.33426 8.018612,16.27709 l 0.02745,3.4375 -26.273812,0 -26.273818,0 0.802043,-3.4375 z"
         id="path5675"
         inkscape:connector-curvature="0" />
      <path
         style="fill-opacity:1"
         d="m 138.09441,623.75873 c -7.11068,-4.33527 -9.57097,-13.85091 -5.69372,-22.02161 2.45234,-5.16791 7.33897,-7.94635 13.9758,-7.94635 4.67339,0 11.48065,3.70969 11.48065,6.25649 0,1.61065 -5.19278,2.9438 -6.09356,1.56441 -4.43539,-6.792 -15.15644,-1.47314 -15.15644,7.51931 0,9.74444 8.0265,15.38329 13.75,9.65979 3.35476,-3.35476 3.14911,-5 -0.625,-5 -2.29166,0 -3.125,-0.66666 -3.125,-2.5 0,-2.16666 0.83334,-2.5 6.25,-2.5 5.8658,0 6.25,0.19591 6.25,3.18707 0,7.28618 -6.88233,14.31983 -14.00043,14.30825 -1.58101,-0.002 -4.73655,-1.13988 -7.0123,-2.52736 z m -176.48727,-14.34296 0,-15.625 7.5,0 c 6.666666,0 7.5,0.27777 7.5,2.5 0,2.08334 -0.833334,2.5 -5,2.5 -4.722222,0 -5,0.20834 -5,3.75 0,3.54166 0.277778,3.75 5,3.75 4.166666,0 5,0.41666 5,2.5 0,2.08334 -0.833334,2.5 -5,2.5 -4.880952,0 -5,0.10413 -5,4.375 0,4.27084 0.11905,4.375 5,4.375 4.166666,0 5,0.41666 5,2.5 0,2.22223 -0.833334,2.5 -7.5,2.5 l -7.5,0 0,-15.625 z m 31.25,0 0,-15.625 5.0821763,0 c 5.130815,0 9.7729187,1.72123 11.4611825,4.24962 1.8268412,2.73595 0.9569092,9.50012 -1.5433588,12.00038 -3.1308412,3.13084 -3.1218738,3.30987 0.4010687,8.00701 4.9890263,6.65185 5.0493353,6.99318 1.2352025,6.99075 -2.8277925,-0.001 -4.2412187,-1.15755 -7.2612712,-5.9375 l -3.75,-5.93526 -0.3809887,5.9375 c -0.3155613,4.91785 -0.7985563,5.9375 -2.8125,5.9375 -2.2790013,0 -2.4315113,-0.98004 -2.4315113,-15.625 z m 10.5357138,-2.58929 c 2.3238625,-2.32386 2.3437987,-2.49093 0.6703062,-5.61788 -0.7116887,-1.32981 -2.3991888,-2.41783 -3.75,-2.41783 -1.9501562,0 -2.45602,0.8582 -2.45602,4.16666 0,6.08554 1.95372125,7.45105 5.5357138,3.86905 z m 23.2142862,2.58929 c 0,-14.79166 0.133334,-15.625 2.5,-15.625 2.34127,0 2.5,0.83334 2.5,13.125 l 0,13.125 4.375,0 c 3.541663,0 4.375,0.47619 4.375,2.5 0,2.19698 -0.833337,2.5 -6.875,2.5 l -6.875,0 0,-15.625 z m 30.601987,2.1875 c 2.895825,-7.39062 5.614875,-14.42187 6.042338,-15.625 0.427475,-1.20313 1.87945,-2.1875 3.226638,-2.1875 1.807975,0 3.096012,1.71854 4.918537,6.5625 1.358025,3.60937 3.929688,10.42635 5.714813,15.14883 1.785125,4.72247 3.245687,8.80059 3.245687,9.0625 0,0.2619 -1.395537,0.47617 -3.101187,0.47617 -2.265438,0 -3.31255,-0.84216 -3.885513,-3.125 -0.69835,-2.78246 -1.43255,-3.125 -6.698162,-3.125 -5.095075,0 -6.110975,0.43265 -7.3377,3.125 -0.939838,2.06273 -2.437975,3.125 -4.407213,3.125 l -2.983362,0 5.265125,-13.4375 z m 13.148013,1.52235 c 0,-0.36582 -0.908387,-2.75645 -2.01865,-5.3125 l -2.018637,-4.64735 -1.674975,3.75 c -2.53615,5.67804 -2.194513,6.875 1.962262,6.875 2.0625,0 3.75,-0.29931 3.75,-0.66515 z m 22.5,-3.70985 c 0,-12.95833 0.315587,-15.625 1.849112,-15.625 1.017013,0 5.279363,4.35938 9.471888,9.6875 4.19254,5.32812 8.00106,9.82959 8.46339,10.00326 0.46233,0.17367 0.65715,-4.18571 0.43292,-9.6875 l -0.40767,-10.00326 3.22017,0 3.22019,0 0,15.625 c 0,12.95832 -0.31559,15.625 -1.84911,15.625 -1.01701,0 -5.27936,-4.35938 -9.47189,-9.6875 -4.19254,-5.32812 -8.141687,-9.875 -8.775887,-10.10416 -0.643413,-0.2325 -1.153113,4.04961 -1.153113,9.6875 0,9.27082 -0.206187,10.10416 -2.5,10.10416 -2.366662,0 -2.5,-0.83334 -2.5,-15.625 z m -132.5,-88.75 0,-63.125 13.188614,0 13.188615,0 -3.166968,4.15211 c -4.496023,5.89459 -11.273632,21.20693 -13.930652,31.47289 -3.24171,12.52503 -3.018364,37.84103 0.447242,50.69426 3.40414,12.62526 9.399802,25.01122 16.073209,33.20436 l 5.4787075,6.72638 -15.6393835,0 -15.639384,0 0,-63.125 z m 178.97739,59.2959 c 7.61366,-10.06119 14.4583,-20.64296 13.92178,-21.52302 -0.32763,-0.53742 -7.16085,-4.24783 -15.18493,-8.24537 l -14.58924,-7.26824 -6.25,8.6231 C 101.64815,573.0493 78.453878,581.53022 58.920678,572.86956 51.208703,569.45019 44.18094,562.21855 40.010765,553.41101 36.671815,546.35903 32.85714,528.81031 32.85714,520.50203 l 0,-4.21126 58.293762,0 58.293758,0 -0.66058,-15.3125 c -0.74179,-17.19499 -3.46338,-27.82113 -9.60457,-37.5 l -3.76731,-5.9375 12.47246,0 12.47248,0 0,63.125 0,63.125 -11.96011,0 -11.96013,0 2.89763,-3.8291 z M 35.34008,480.74141 c 1.46251,-6.48457 5.661085,-12.45742 11.57836,-16.47124 4.687763,-3.17981 6.418037,-3.6044 14.6887,-3.6044 7.609562,0 10.24585,0.5415 13.999488,2.87551 5.6533,3.51522 9.364012,9.2672 10.479762,16.24471 l 0.840275,5.25478 -26.278125,0 -26.278123,0 0.969663,-4.29936 z"
         id="path5673"
         inkscape:connector-curvature="0" />
      <path
         style="fill-opacity:1"
         d="m 138.38209,623.93367 c -7.67743,-4.68169 -10.0297,-16.51349 -4.85357,-24.41324 4.27544,-6.52517 16.04932,-7.8726 21.46538,-2.45654 2.84111,2.84112 3.01056,3.42006 1.28388,4.38635 -1.3553,0.75847 -3.38988,0.28686 -6.3843,-1.47991 -3.5025,-2.06652 -4.9171,-2.31375 -6.96569,-1.21737 -4.57144,2.44656 -6.7108,7.08321 -5.93544,12.86392 1.15685,8.62499 8.15647,12.38221 13.36479,7.17389 3.5107,-3.5107 3.2251,-6.10945 -0.625,-5.68682 -2.33755,0.25659 -3.125,-0.24362 -3.125,-1.98507 0,-1.9604 0.98715,-2.32811 6.25,-2.32811 5.8658,0 6.25,0.19591 6.25,3.18707 0,7.28618 -6.88232,14.31983 -14.00043,14.30826 -1.58101,-0.003 -4.60709,-1.06117 -6.72462,-2.35243 z m -176.77495,-14.5179 0,-15.625 7.5,0 c 6.666666,0 7.5,0.27777 7.5,2.5 0,2.08334 -0.833334,2.5 -5,2.5 -4.722222,0 -5,0.20834 -5,3.75 0,3.54166 0.277778,3.75 5,3.75 4.166666,0 5,0.41666 5,2.5 0,2.08334 -0.833334,2.5 -5,2.5 -4.880952,0 -5,0.10413 -5,4.375 0,4.27084 0.11905,4.375 5,4.375 4.166666,0 5,0.41666 5,2.5 0,2.22223 -0.833334,2.5 -7.5,2.5 l -7.5,0 0,-15.625 z m 31.25,0 0,-15.625 4.293625,0 c 4.9689063,0 10.860305,1.99557 12.2242938,4.1407 2.5687122,4.03977 0.2839512,12.36243 -3.714595,13.53106 -1.0484488,0.30644 -0.1010876,2.64306 2.8457087,7.0188 l 4.4173855,6.55944 -3.4707092,-0.002 c -2.7793975,-10e-4 -4.2176501,-1.18445 -7.2207088,-5.9375 l -3.75,-5.93526 -0.3809887,5.9375 c -0.3155613,4.91785 -0.7985563,5.9375 -2.8125,5.9375 -2.2790013,2.6e-4 -2.4315113,-0.97978 -2.4315113,-15.62474 z m 11.4605763,-3.71299 c 1.6559974,-3.63451 -0.2945801,-6.91201 -4.11363255,-6.91201 -1.90476745,0 -2.34694375,0.94202 -2.34694375,5 0,4.18434 0.4122,5 2.52679875,5 1.47414875,0 3.11293755,-1.28644 3.93377755,-3.08799 z m 22.2894237,3.71299 c 0,-14.79166 0.133334,-15.625 2.5,-15.625 2.34127,0 2.5,0.83334 2.5,13.125 l 0,13.125 4.375,0 c 3.541663,0 4.375,0.47619 4.375,2.5 0,2.19698 -0.833337,2.5 -6.875,2.5 l -6.875,0 0,-15.625 z m 31.638575,0 c 4.645962,-11.6477 6.787513,-15.625 8.413175,-15.625 2.43605,0 2.116188,-0.64921 8.776238,17.8125 l 4.847575,13.4375 -3.063963,0 c -2.22575,0 -3.278537,-0.85491 -3.8483,-3.125 -0.703562,-2.80323 -1.417112,-3.125 -6.92975,-3.125 -5.404962,0 -6.288587,0.37654 -7.33355,3.125 -0.80455,2.11611 -2.141437,3.125 -4.140975,3.125 -2.928887,0 -2.902275,-0.12679 3.27955,-15.625 z m 11.40375,1.5625 c -0.481887,-1.54688 -1.428887,-4.21875 -2.10445,-5.9375 l -1.228287,-3.125 -1.6347,4.375 c -2.470938,6.61306 -2.233313,7.5 2.00935,7.5 3.402512,0 3.735575,-0.31667 2.958087,-2.8125 z m 23.207675,-1.5625 c 0,-12.74711 0.330663,-15.625 1.795262,-15.625 0.9874,0 5.276425,4.5 9.531188,10 4.25475,5.5 8.26104,10 8.90285,10 0.65536,0 0.99788,-4.24687 0.78131,-9.6875 -0.36739,-9.22971 -0.2527,-9.70638 2.42689,-10.08694 2.78869,-0.39606 2.8125,-0.26638 2.8125,15.3125 0,12.76693 -0.33395,15.71194 -1.78164,15.71194 -0.97991,0 -5.62053,-4.8476 -10.3125,-10.77244 l -8.53086,-10.77242 -0.361162,10.77242 c -0.326726,9.74504 -0.594963,10.77244 -2.8125,10.77244 -2.304375,0 -2.451338,-0.93674 -2.451338,-15.625 z m -131.875,-88.74971 0,-63.12498 12.876114,-1.5e-4 12.876115,-1.6e-4 -3.166968,4.15211 c -4.333101,5.68099 -11.27275,21.0193 -13.956783,30.84789 -3.425568,12.54399 -3.140227,38.77844 0.564222,51.875 3.050486,10.78456 10.315834,26.94775 13.710308,30.50125 1.153345,1.20739 3.358897,3.69791 4.901226,5.5345 l 2.8042322,3.33925 -15.3042322,1.4e-4 -15.304234,1.4e-4 0,-63.12499 z m 179.58246,58.00516 c 4.37385,-5.37299 13.85178,-20.0342 13.26135,-20.51371 -2.28811,-1.85829 -31.79,-15.94128 -31.44619,-15.01112 0.67827,1.83497 -10.50805,15.8216 -17.05776,21.3279 -11.461448,9.63558 -25.473935,13.44503 -39.07181,10.62213 -6.9831,-1.44969 -19.104938,-8.4084 -18.214138,-10.45607 0.24535,-0.56399 -0.544825,-1.57998 -1.755949,-2.25775 -5.235425,-2.92989 -11.290533,-20.33528 -12.882032,-37.02933 l -0.863957,-9.0625 58.286513,0 58.286513,0 0,-12.30005 c 0,-14.58126 -3.20795,-28.69747 -8.75536,-38.52695 -2.05955,-3.64932 -3.74464,-6.9249 -3.74464,-7.27906 0,-0.35417 5.34375,-0.64394 11.875,-0.64394 l 11.875,0 0,63.125 0,63.125 -11.98004,0 -11.98004,0 4.16754,-5.11955 z M 35.748316,480.61451 c 0.976159,-6.01536 5.666336,-13.41508 7.947961,-12.53954 0.984888,0.37794 1.473625,0.17412 1.086088,-0.45294 -1.27605,-2.06468 6.618087,-6.42457 13.001325,-7.18057 12.8717,-1.52446 24.129837,4.8485 27.308775,15.45883 2.920775,9.74868 4.53595,9.14048 -24.273875,9.14048 l -25.788556,0 0.718282,-4.42626 z"
         id="path5671"
         inkscape:connector-curvature="0" />
      <path
         style="fill-opacity:1"
         d="m 138.97373,624.41963 c -7.56926,-4.11411 -10.29745,-13.86734 -6.22955,-22.27052 2.98008,-6.15603 6.66326,-8.35834 13.9786,-8.35834 3.72485,0 5.83176,0.83377 8.27112,3.27312 2.9348,2.9348 3.05594,3.39467 1.17193,4.44901 -1.52063,0.85098 -3.00535,0.46467 -5.37352,-1.39812 -4.37231,-3.43926 -6.1996,-3.2519 -10.53132,1.07984 -4.86217,4.86217 -5.1245,12.48914 -0.58566,17.02796 3.71988,3.7199 7.33766,3.91234 10.68181,0.56819 3.62123,-3.62123 3.29814,-6.69401 -0.625,-5.94406 -2.42803,0.46415 -3.125,0.0785 -3.125,-1.72928 0,-1.95866 0.98855,-2.32666 6.25,-2.32666 5.4496,0 6.25,0.3253 6.25,2.54015 0,10.83272 -11.05795,18.02149 -20.13341,13.08871 z m -177.36659,-15.00386 0,-15.625 7.5,0 c 6.666666,0 7.5,0.27777 7.5,2.5 0,2.08334 -0.833334,2.5 -5,2.5 -4.722222,0 -5,0.20834 -5,3.75 0,3.54166 0.277778,3.75 5,3.75 4.166666,0 5,0.41666 5,2.5 0,2.08334 -0.833334,2.5 -5,2.5 -4.880952,0 -5,0.10413 -5,4.375 0,4.27084 0.11905,4.375 5,4.375 4.166666,0 5,0.41666 5,2.5 0,2.22223 -0.833334,2.5 -7.5,2.5 l -7.5,0 0,-15.625 z m 31.25,-0.15904 0,-15.78403 6.26266375,0.60176 c 3.54458125,0.34059 7.34220255,1.57873 8.75000005,2.85277 3.5896562,3.24859 3.3011752,9.79193 -0.5658113,12.83369 l -3.0531475,2.40161 4.3363563,6.43911 4.3363567,6.43913 -3.6095067,0 c -3.0025188,0 -4.1113175,-0.94593 -6.5935625,-5.625 -1.6412313,-3.09375 -3.4068963,-5.625 -3.9237025,-5.625 -0.516805,0 -0.9396463,2.53125 -0.9396463,5.625 0,4.79166 -0.37037,5.625 -2.5,5.625 -2.36801,0 -2.5,-0.83334 -2.5,-15.78404 z m 11.4605763,-3.55395 c 1.6559974,-3.63451 -0.2945801,-6.91201 -4.11363255,-6.91201 -1.90476745,0 -2.34694375,0.94202 -2.34694375,5 0,4.18434 0.4122,5 2.52679875,5 1.47414875,0 3.11293755,-1.28644 3.93377755,-3.08799 z m 22.2894237,3.71299 c 0,-14.79166 0.133334,-15.625 2.5,-15.625 2.34127,0 2.5,0.83334 2.5,13.125 l 0,13.125 4.375,0 c 3.541663,0 4.375,0.47619 4.375,2.5 0,2.19698 -0.833337,2.5 -6.875,2.5 l -6.875,0 0,-15.625 z m 26.25,14.70751 c 0,-0.50462 2.629788,-7.53587 5.843962,-15.625 6.626025,-16.67569 8.869263,-18.42759 12.030038,-9.39501 1.02245,2.92188 3.592425,9.95313 5.711063,15.625 l 3.852049,10.3125 -2.95805,0 c -2.112762,0 -3.182175,-0.89299 -3.742362,-3.125 -0.705938,-2.81269 -1.409675,-3.125 -7.04145,-3.125 -5.5241,0 -6.396313,0.3661 -7.44525,3.125 -1.074725,2.82672 -6.25,4.65465 -6.25,2.20751 z m 16.74555,-13.29239 c -2.391075,-7.6835 -3.151012,-8.95151 -4.219287,-7.04012 -0.576363,1.03125 -1.426138,3.89364 -1.888388,6.36087 -0.833125,4.44677 -0.806537,4.4809 3.0483,3.91513 3.302575,-0.48471 3.763725,-0.97248 3.059375,-3.23588 z m 23.25445,-1.41512 c 0,-12.74711 0.330663,-15.625 1.795262,-15.625 0.9874,0 5.276425,4.5 9.531188,10 4.25475,5.5 8.22814,10 8.82974,10 0.6016,0 1.09381,-4.5 1.09381,-10 0,-9.16666 0.20834,-10 2.5,-10 2.36666,0 2.5,0.83334 2.5,15.625 0,12.79482 -0.32733,15.625 -1.80715,15.625 -0.99394,0 -5.63456,-4.90505 -10.3125,-10.90011 l -8.50535,-10.90012 -0.361162,10.90012 c -0.327101,9.87186 -0.592413,10.90011 -2.8125,10.90011 -2.304375,0 -2.451338,-0.93674 -2.451338,-15.625 z m -131.252277,-26.5625 c -0.0012,-0.51562 3.514372,-0.78086 7.8125,-0.58941 14.107877,0.62838 15.507965,1.12347 3.752277,1.32686 -6.359375,0.11 -11.563525,-0.22183 -11.564778,-0.73745 z m 24.503906,-0.51739 c 0.318139,-0.51476 1.40417,-0.61906 2.413402,-0.23178 2.5448228,0.97653 2.2922728,1.56574 -0.578433,1.34951 -1.327372,-0.1 -2.153108,-0.60297 -1.834969,-1.11773 z m 152.660741,-0.71825 c 0.41929,-1.09265 0.99268,-1.28952 1.47637,-0.50688 0.43496,0.70377 3.8723,1.50772 7.63855,1.78653 6.44812,0.47736 6.36197,0.50695 -1.47638,0.5069 -6.7023,-5e-5 -8.19051,-0.34812 -7.63854,-1.78655 z m 17.22523,0.90275 c 0.43182,-0.69871 1.30341,-0.95009 1.93684,-0.5586 0.69452,0.42924 1.28531,-23.50411 1.4883,-60.29211 l 0.3366,-61.0039 0.30034,61.5625 c 0.2996,61.41459 0.29413,61.5625 -2.27345,61.5625 -1.42508,0 -2.22335,-0.56699 -1.78863,-1.27039 z m -14.3876,-4.57755 c 0,-0.69552 1.26562,-2.33615 2.8125,-3.64582 l 2.8125,-2.38124 -2.48668,3.125 c -1.36767,1.71875 -2.6333,3.35938 -2.8125,3.64584 -0.1792,0.28645 -0.32582,-0.0482 -0.32582,-0.74378 z m -158.909444,-2.58956 c -1.554838,-1.98258 -1.510626,-2.02679 0.471944,-0.47195 1.203125,0.94356 2.1875,1.92794 2.1875,2.1875 0,1.0288 -1.026482,0.36664 -2.659444,-1.71555 z m 92.997981,0.18229 c 0.415363,-0.41537 1.493488,-0.45977 2.395838,-0.0986 0.997163,0.39903 0.700975,0.69523 -0.755213,0.7552 -1.3177,0.0543 -2.055987,-0.24116 -1.640625,-0.65652 z M 60.35714,573.03513 c -2.1509,-1.31947 -2.345725,-1.66051 -0.625,-1.0941 1.375,0.45263 3.893575,1.08818 5.596837,1.41235 4.218563,0.80289 4.857476,1.6971 1.174,1.64309 -1.661462,-0.0244 -4.427087,-0.90696 -6.145837,-1.96134 z m 21.5625,1.14398 c 1.203125,-0.3144 3.171875,-0.3144 4.375,0 1.203125,0.31441 0.21875,0.57166 -2.1875,0.57166 -2.40625,0 -3.390625,-0.25725 -2.1875,-0.57166 z m 13.854162,-4.70835 c 0,-1.00102 0.477925,-1.52464 1.062063,-1.16363 0.584125,0.36101 0.738438,1.18002 0.342888,1.82002 -1.010775,1.63547 -1.404951,1.45132 -1.404951,-0.65639 z M 51.72829,568.31174 c -1.093325,-1.31737 -1.044738,-1.87876 0.204087,-2.35797 0.995088,-0.38185 1.63905,0.29745 1.63905,1.72901 0,2.81853 -0.02025,2.82543 -1.843137,0.62896 z m -75.732046,-4.04987 c -1.181632,-1.8034 -1.530599,-2.89708 -0.775484,-2.43039 1.442994,0.89183 4.353346,5.70929 3.449122,5.70929 -0.28887,0 -1.492007,-1.47551 -2.673638,-3.2789 z m 128.735896,-0.4711 c 1.24436,-1.375 2.54372,-2.5 2.88747,-2.5 0.34376,0 -0.39311,1.125 -1.63747,2.5 -1.24436,1.375 -2.54372,2.5 -2.88747,2.5 -0.34376,0 0.39311,-1.125 1.63747,-2.5 z m -63.125,-7.5 c -0.735875,-1.375 -1.056713,-2.5 -0.712962,-2.5 0.34375,0 1.227087,1.125 1.962962,2.5 0.735875,1.375 1.056713,2.5 0.712962,2.5 -0.34375,0 -1.227087,-1.125 -1.962962,-2.5 z m 69.50376,0.20834 c -0.35409,-0.57293 0.15048,-1.04168 1.12124,-1.04168 0.97076,0 1.47532,0.46875 1.12124,1.04168 -0.35408,0.57291 -0.85864,1.04166 -1.12124,1.04166 -0.2626,0 -0.76716,-0.46875 -1.12124,-1.04166 z m -139.955792,-3.33334 c -0.395729,-1.03125 -0.17466,-1.875 0.491263,-1.875 0.665923,0 1.210769,0.84375 1.210769,1.875 0,1.03125 -0.221069,1.875 -0.491264,1.875 -0.270195,0 -0.815041,-0.84375 -1.210768,-1.875 z m 162.380422,-6.78862 c -0.39555,-0.64 -0.24124,-1.45901 0.34289,-1.82002 0.58413,-0.36101 1.06206,0.16261 1.06206,1.16363 0,2.10771 -0.39418,2.29186 -1.40495,0.65639 z m -96.92839,-1.2626 c 0,-0.72808 0.5625,-1.32378 1.25,-1.32378 0.6875,0 1.25,0.24805 1.25,0.55122 0,0.30318 -0.5625,0.89888 -1.25,1.32378 -0.6875,0.4249 -1.25,0.17685 -1.25,-0.55122 z m -2.401316,-11.84461 c -0.05427,-1.31771 0.24116,-2.05599 0.656525,-1.64063 0.415364,0.41537 0.459772,1.49349 0.09869,2.39584 -0.399032,0.99716 -0.695228,0.70097 -0.755208,-0.75521 z m -1.033455,-12.60417 c -0.01388,-2.75 0.230756,-4.02218 0.543621,-2.82707 0.312866,1.19511 0.324218,3.44511 0.02522,5 -0.29899,1.55489 -0.554971,0.57707 -0.568846,-2.17293 z m -66.466545,-16.14583 c -0.05427,-1.31771 0.24116,-2.05599 0.656525,-1.64063 0.415363,0.41537 0.459772,1.49349 0.09869,2.39583 -0.399032,0.99717 -0.695228,0.70097 -0.755209,-0.7552 z m 182.500006,-8.75 c -0.0542,-1.31771 0.24115,-2.05599 0.65652,-1.64063 0.41536,0.41537 0.45976,1.49349 0.0986,2.39583 -0.39903,0.99717 -0.69523,0.70097 -0.7552,-0.7552 z M 35.98214,482.03514 c 0,-1.6531 0.421875,-2.74491 0.9375,-2.42624 0.515625,0.31868 0.9375,1.3526 0.9375,2.29761 0,0.94501 1.546875,1.95254 3.4375,2.23894 2.970163,0.44994 2.8427,0.5462 -0.9375,0.70803 -3.838929,0.16434 -4.375,-0.18099 -4.375,-2.81834 z m 14.0625,2.17778 c 0.859375,-0.34677 2.265625,-0.34677 3.125,0 0.859375,0.34676 0.15625,0.63048 -1.5625,0.63048 -1.71875,0 -2.421875,-0.28372 -1.5625,-0.63048 z m 28.125,-0.0338 c 1.203125,-0.31441 3.171875,-0.31441 4.375,0 1.203125,0.31441 0.21875,0.57165 -2.1875,0.57165 -2.40625,0 -3.390625,-0.25724 -2.1875,-0.57165 z m 7.384863,-1.63834 c 0,-1.71875 0.283725,-2.42188 0.630487,-1.5625 0.346763,0.85937 0.346763,2.26562 0,3.125 -0.346762,0.85937 -0.630487,0.15625 -0.630487,-1.5625 z m -48.902409,-5.69465 c 0.04779,-1.25476 6.188296,-9.16531 6.198833,-7.9857 0.0038,0.38206 -1.400037,2.60072 -3.118787,4.93035 -1.71875,2.32963 -3.104771,3.70454 -3.080046,3.05535 z M -24.0202,471.38679 c 0.513276,-1.66595 1.446089,-3.6347 2.072918,-4.375 0.626827,-0.74031 2.015531,-2.47102 3.086008,-3.84602 1.070477,-1.375 0.406475,0.3125 -1.475558,3.75 -4.108756,7.50457 -4.92223,8.49199 -3.683368,4.47102 z m 103.923115,-2.73153 c -1.015288,-1.44953 -2.3945,-2.29651 -3.0649,-1.88218 -0.6704,0.41433 -1.517025,-0.0235 -1.881375,-0.97301 -1.110263,-2.89331 3.8057,-0.84672 5.9961,2.49627 2.417425,3.68944 1.502137,4.00236 -1.049825,0.35892 z m 61.079225,-2.36449 c -1.06656,-2.0625 -1.65795,-3.75 -1.3142,-3.75 0.34375,0 1.49764,1.6875 2.5642,3.75 1.06656,2.0625 1.65795,3.75 1.3142,3.75 -0.34375,0 -1.49764,-1.6875 -2.5642,-3.75 z m -93.834288,-1.11362 c 0.891825,-1.44299 5.709288,-4.35335 5.709288,-3.44912 0,0.28887 -1.475512,1.492 -3.2789,2.67364 -1.8034,1.18163 -2.897075,1.5306 -2.430388,0.77548 z m 11.047826,-4.64159 c 0.415375,-0.41536 1.4935,-0.45977 2.395837,-0.0987 0.997163,0.39904 0.700975,0.69523 -0.755212,0.75521 -1.3177,0.0543 -2.055988,-0.24116 -1.640625,-0.65652 z m 79.002722,-1.79938 c -0.40635,-0.65748 0.41939,-1.19541 1.83496,-1.19541 3.01822,0 3.3227,0.69514 0.73882,1.68667 -1.00924,0.38728 -2.16744,0.16621 -2.57378,-0.49126 z m 20.03374,0.0546 c -0.4249,-0.6875 0.10437,-1.25 1.17622,-1.25 1.07183,0 1.94878,0.5625 1.94878,1.25 0,0.6875 -0.5293,1.25 -1.17623,1.25 -0.64692,0 -1.52387,-0.5625 -1.94877,-1.25 z m -175.286459,-0.75521 c 0.415365,-0.41536 1.49349,-0.45977 2.395834,-0.0987 0.997166,0.39904 0.70097,0.69523 -0.755209,0.75521 -1.317707,0.0543 -2.055988,-0.24116 -1.640625,-0.65652 z"
         id="path5669"
         inkscape:connector-curvature="0" />
    </g>
  </g>
</svg>
