<?xml version="1.0" encoding="UTF-8" standalone="no"?>
<!-- Created with Inkscape (http://www.inkscape.org/) -->

<svg
   xmlns:dc="http://purl.org/dc/elements/1.1/"
   xmlns:cc="http://creativecommons.org/ns#"
   xmlns:rdf="http://www.w3.org/1999/02/22-rdf-syntax-ns#"
   xmlns:svg="http://www.w3.org/2000/svg"
   xmlns="http://www.w3.org/2000/svg"
   xmlns:sodipodi="http://sodipodi.sourceforge.net/DTD/sodipodi-0.dtd"
   xmlns:inkscape="http://www.inkscape.org/namespaces/inkscape"
   width="210mm"
   height="297mm"
   viewBox="0 0 744.09448819 1052.3622047"
   id="svg4070"
   version="1.1"
   inkscape:version="0.91 r13725"
   sodipodi:docname="firebird.svg">
  <defs
     id="defs4072" />
  <sodipodi:namedview
     id="base"
     pagecolor="#ffffff"
     bordercolor="#666666"
     borderopacity="1.0"
     inkscape:pageopacity="0.0"
     inkscape:pageshadow="2"
     inkscape:zoom="0.35"
     inkscape:cx="375"
     inkscape:cy="520"
     inkscape:document-units="px"
     inkscape:current-layer="layer1"
     showgrid="false"
     inkscape:window-width="1600"
     inkscape:window-height="847"
     inkscape:window-x="-8"
     inkscape:window-y="-8"
     inkscape:window-maximized="1" />
  <metadata
     id="metadata4075">
    <rdf:RDF>
      <cc:Work
         rdf:about="">
        <dc:format>image/svg+xml</dc:format>
        <dc:type
           rdf:resource="http://purl.org/dc/dcmitype/StillImage" />
        <dc:title></dc:title>
      </cc:Work>
    </rdf:RDF>
  </metadata>
  <g
     inkscape:label="Camada 1"
     inkscape:groupmode="layer"
     id="layer1">
    <path
       style="fill:#000000"
       d="M 273.17627,892.94756 C 207.85778,874.64646 146.20879,833.95906 98.589673,777.72286 32.821813,700.05383 12.519573,644.83555 12.340733,543.14211 11.923643,305.81016 238.48397,131.12584 466.69393,192.82363 c 111.54694,30.15724 193.94523,100.2947 244.53425,208.14754 21.66556,46.1898 24.57536,63.07827 24.57536,142.63657 0,86.1201 -1.5338,93.34289 -33.57063,158.08543 -61.57779,124.44139 -168.93566,195.13059 -306.12002,201.56309 -48.7707,2.2869 -90.45808,-1.2088 -122.93662,-10.3087 z m 230.73566,-66.7115 c 56.61878,-24.3269 129.89042,-98.5908 157.1556,-159.28375 29.99425,-66.76821 28.53763,-179.15215 -3.1985,-246.77411 -42.35615,-90.25067 -131.11175,-160.35358 -218.69578,-172.73529 -19.77535,-2.79567 -29.88775,-2.5616 -22.47199,0.52 95.88306,39.84554 151.21127,83.06622 181.49503,141.77844 14.3075,27.73842 17.36118,47.57806 14.50921,94.26653 -4.40717,72.1512 -24.14384,115.08266 -65.98072,143.52249 -40.03502,27.21498 -112.05592,35.99007 -128.91042,15.70657 -9.84813,-11.85173 -6.63258,-22.20259 20.57356,-66.22596 43.03519,-69.63685 42.75215,-100.22345 -1.26268,-136.45972 l -33.50887,-27.58688 33.50887,0 c 18.50571,0 33.5088,-4.44974 33.5088,-9.93831 0,-5.46602 -6.08872,-7.60467 -13.53051,-4.75247 -7.44172,2.85213 -38.79019,-2.7235 -69.66318,-12.39032 -70.80634,-22.17063 -84.36015,-22.14844 -90.19798,0.14795 -2.58568,9.87554 -11.84011,17.95553 -20.56536,17.95553 -19.15728,0 -48.74049,25.17372 -48.74049,41.47548 0,17.07434 29.78549,30.76443 45.4283,20.87991 19.50512,-12.32504 41.49351,-10.16879 57.30078,5.61915 22.19506,22.16775 17.68348,28.72841 -39.62456,57.62195 -83.24417,41.9699 -104.082,91.00408 -77.49364,182.35248 17.5329,60.23713 46.44871,96.58583 97.55031,122.62573 47.94408,24.431 124.24401,21.1365 192.81422,-8.3254 z m -260.73501,-16.3105 c -7.98177,-8.809 -24.573,-38.7375 -36.86946,-66.5079 -12.29653,-27.77038 -27.01989,-53.36972 -32.71872,-56.8875 -5.69882,-3.5177 -22.09094,-31.15909 -36.42692,-61.42529 -32.90396,-69.46678 -36.28267,-158.48736 -8.21339,-216.39961 25.77808,-53.18493 86.3274,-110.87633 148.42647,-141.42055 33.51168,-16.48318 43.72223,-24.31991 26.96639,-20.69705 -143.74611,31.08023 -246.799427,169.87733 -236.181067,318.10001 6.9359,96.81974 51.982857,174.71109 136.405787,235.86129 39.38833,28.5303 60.6431,33.6919 38.61091,9.3766 z"
       id="path4089"
       inkscape:connector-curvature="0" />
  </g>
</svg>
