<?xml version="1.0" encoding="UTF-8" standalone="no"?>
<!-- Created with Inkscape (http://www.inkscape.org/) -->

<svg
   xmlns:dc="http://purl.org/dc/elements/1.1/"
   xmlns:cc="http://creativecommons.org/ns#"
   xmlns:rdf="http://www.w3.org/1999/02/22-rdf-syntax-ns#"
   xmlns:svg="http://www.w3.org/2000/svg"
   xmlns="http://www.w3.org/2000/svg"
   xmlns:sodipodi="http://sodipodi.sourceforge.net/DTD/sodipodi-0.dtd"
   xmlns:inkscape="http://www.inkscape.org/namespaces/inkscape"
   width="210mm"
   height="297mm"
   viewBox="0 0 744.09448819 1052.3622047"
   id="svg3349"
   version="1.1"
   inkscape:version="0.91 r13725"
   sodipodi:docname="flash.svg">
  <defs
     id="defs3351" />
  <sodipodi:namedview
     id="base"
     pagecolor="#ffffff"
     bordercolor="#666666"
     borderopacity="1.0"
     inkscape:pageopacity="0.0"
     inkscape:pageshadow="2"
     inkscape:zoom="0.49497475"
     inkscape:cx="-188.20003"
     inkscape:cy="446.91415"
     inkscape:document-units="px"
     inkscape:current-layer="layer1"
     showgrid="false"
     inkscape:window-width="1600"
     inkscape:window-height="847"
     inkscape:window-x="-8"
     inkscape:window-y="-8"
     inkscape:window-maximized="1" />
  <metadata
     id="metadata3354">
    <rdf:RDF>
      <cc:Work
         rdf:about="">
        <dc:format>image/svg+xml</dc:format>
        <dc:type
           rdf:resource="http://purl.org/dc/dcmitype/StillImage" />
        <dc:title></dc:title>
      </cc:Work>
    </rdf:RDF>
  </metadata>
  <g
     inkscape:label="Camada 1"
     inkscape:groupmode="layer"
     id="layer1">
    <path
       style="fill:#000000"
       d="m 59.59029,565.70958 0,-286.42856 316.12401,0 316.12406,0 0,286.42856 0,286.42856 -316.12406,0 -316.12401,0 z m 261.77338,91.14838 c 19.52605,-4.43958 45.75118,-28.15813 60.40194,-54.62874 l 10.70083,-19.33393 24.96137,0 24.96141,0 -0.93475,-19.33392 -0.93475,-19.33393 -15.02101,0 c -8.26155,0 -15.0187,-0.77331 -15.01589,-1.71846 0.0127,-3.71827 19.26023,-25.53098 26.12901,-29.60881 6.18702,-3.67308 15.24236,-6.22966 25.24626,-7.12774 1.30402,-0.11707 2.37094,-9.22833 2.37094,-20.24725 l 0,-20.03441 -11.76421,1.694 c -41.63126,5.99476 -67.68889,26.49813 -87.47035,68.82573 -30.26803,64.76641 -40.26466,77.70348 -65.2924,84.49759 l -12.5025,3.39398 0,18.16447 0,18.16446 9.66448,0 c 5.31547,0 16.3403,-1.51787 24.49962,-3.37304 z"
       id="path3368"
       inkscape:connector-curvature="0"
       sodipodi:nodetypes="cccccccccsscccccscssscssscccss" />
  </g>
</svg>
