<?xml version="1.0" encoding="UTF-8" standalone="no"?>
<!-- Created with Inkscape (http://www.inkscape.org/) -->

<svg
   xmlns:dc="http://purl.org/dc/elements/1.1/"
   xmlns:cc="http://creativecommons.org/ns#"
   xmlns:rdf="http://www.w3.org/1999/02/22-rdf-syntax-ns#"
   xmlns:svg="http://www.w3.org/2000/svg"
   xmlns="http://www.w3.org/2000/svg"
   xmlns:sodipodi="http://sodipodi.sourceforge.net/DTD/sodipodi-0.dtd"
   xmlns:inkscape="http://www.inkscape.org/namespaces/inkscape"
   width="210mm"
   height="297mm"
   viewBox="0 0 744.09448819 1052.3622047"
   id="svg3528"
   version="1.1"
   inkscape:version="0.91 r13725"
   sodipodi:docname="foxpro.svg">
  <defs
     id="defs3530" />
  <sodipodi:namedview
     id="base"
     pagecolor="#ffffff"
     bordercolor="#666666"
     borderopacity="1.0"
     inkscape:pageopacity="0.0"
     inkscape:pageshadow="2"
     inkscape:zoom="0.35"
     inkscape:cx="375"
     inkscape:cy="520"
     inkscape:document-units="px"
     inkscape:current-layer="layer1"
     showgrid="false"
     inkscape:window-width="1600"
     inkscape:window-height="847"
     inkscape:window-x="-8"
     inkscape:window-y="-8"
     inkscape:window-maximized="1" />
  <metadata
     id="metadata3533">
    <rdf:RDF>
      <cc:Work
         rdf:about="">
        <dc:format>image/svg+xml</dc:format>
        <dc:type
           rdf:resource="http://purl.org/dc/dcmitype/StillImage" />
        <dc:title></dc:title>
      </cc:Work>
    </rdf:RDF>
  </metadata>
  <g
     inkscape:label="Camada 1"
     inkscape:groupmode="layer"
     id="layer1">
    <path
       style="fill:#000000"
       d="m 432.92777,854.34083 c 0,-1.63919 5.69692,-5.85142 12.65981,-9.36053 6.9629,-3.5091 12.65981,-5.039 12.65981,-3.3998 0,1.63919 -5.69691,5.85142 -12.65981,9.36053 -6.96289,3.5091 -12.65981,5.039 -12.65981,3.3998 z m 58.63271,-38.95796 c 32.27796,-26.88092 76.97439,-82.79033 98.82219,-123.61376 20.4971,-38.29966 30.589,-127.61145 20.68887,-183.09408 l -7.94519,-44.52647 25.62655,-43.9696 c 14.09462,-24.18328 31.53088,-59.87143 38.74722,-79.30697 22.76503,-61.31236 39.6784,-163.49293 27.06197,-163.49293 -8.65049,0 -88.97038,43.92163 -128.70628,70.38101 -22.62943,15.06852 -57.35737,41.86804 -77.17321,59.55461 -34.9145,31.16271 -36.68576,31.95315 -57.26818,25.55653 -11.68167,-3.63046 -38.19552,-9.15233 -58.91979,-12.27094 -34.16488,-5.1411 -31.95883,-5.43041 23.64535,-3.10081 l 61.32575,2.56926 40.16791,-37.82519 c 39.56592,-37.2583 135.01362,-100.86506 174.42544,-116.23786 27.00655,-10.53399 37.84106,-5.41644 42.96288,20.29298 8.80295,44.18709 -28.41109,161.1082 -73.86706,232.07955 -24.1695,37.73645 -24.8469,40.19336 -17.78815,64.52566 18.25201,62.91703 4.19936,181.70027 -27.26367,230.45304 -16.85314,26.11422 -89.71431,98.58386 -115.70102,115.07924 -10.44434,6.62962 -5.42305,0.75568 11.15842,-13.05327 z M 192.39133,796.3632 c 8.70361,-3.66294 35.97645,-15.68119 60.60626,-26.7072 45.60936,-20.41787 65.99186,-24.76872 65.99186,-14.08658 0,3.2784 -3.5606,5.96287 -7.91238,5.96545 -4.35183,0.003 -25.02815,7.62963 -45.94737,16.94901 -20.91923,9.31943 -49.40381,18.65321 -63.29907,20.74185 -22.10256,3.32217 -23.28382,2.964 -9.4393,-2.86253 z M 88.306795,772.12527 c -5.419567,-7.2862 -9.853786,-19.35667 -9.853786,-26.82327 0,-11.86427 3.191583,-13.57548 25.319621,-13.57548 24.42448,0 25.31963,0.69545 25.31963,19.67039 0,33.15423 -22.89001,44.78765 -40.785465,20.72836 z m 37.620515,-56.38108 c 3.48144,-2.73492 16.05036,-12.99881 27.93089,-22.80859 21.19581,-17.50145 21.37392,-17.53622 9.49485,-1.85155 -6.65835,8.79145 -19.22726,19.05535 -27.93088,22.80865 -8.70363,3.7533 -12.97631,4.58647 -9.49486,1.85149 z m 208.88691,-28.59503 c 13.92579,-4.48413 36.90857,-8.35913 51.07282,-8.6111 14.16431,-0.25178 40.87003,-4.68546 59.34607,-9.85227 l 33.59286,-9.39415 -3.53654,-27.86038 -3.53654,-27.86033 11.76755,23.8429 c 24.49947,49.63996 27.29009,48.39117 -145.54127,65.12965 l -28.48457,2.75872 25.31962,-8.15304 z M 103.70326,628.90401 c -18.916597,-29.21595 -18.488189,-58.35331 1.44504,-98.28616 12.71926,-25.48096 31.21221,-44.77206 20.9998,-21.90619 -24.86348,55.66988 -28.145049,85.21934 -13.20359,118.89363 11.53442,25.99572 7.1485,26.61211 -9.24125,1.29872 z m 189.22693,-9.1666 c 17.4672,-21.0857 59.21126,-48.95047 73.33253,-48.95047 1.90753,0 -6.02557,12.74102 -17.6292,28.31344 -15.6289,20.97446 -25.89677,28.83642 -39.61301,30.33108 -10.1836,1.1097 -22.73373,5.13319 -27.88916,8.94109 -5.15549,3.8079 0.15394,-4.57793 11.79884,-18.63514 z m -111.6162,-5.73521 c -8.78171,-8.26953 -14.24229,-20.65916 -14.24229,-32.31462 0,-10.3967 -4.98483,-24.31542 -11.07734,-30.93059 -10.41816,-11.31188 -9.9139,-11.26768 8.47458,0.74257 29.68661,19.38957 35.24852,28.32565 33.07827,53.14554 l -1.99093,22.76873 -14.24229,-13.41163 z M 325.31936,466.67762 c 0,-13.08517 56.0176,-95.47761 61.44146,-90.37008 1.78859,1.68431 -11.30405,23.55612 -29.09473,48.60409 -17.79068,25.04792 -32.34673,43.84261 -32.34673,41.76599 z M 51.26747,390.6079 C 30.738977,338.45269 25.483588,309.97368 25.646346,251.76596 c 0.2618,-93.56713 19.809716,-110.18549 65.53468,-55.71285 31.933674,38.04288 48.825454,50.70045 82.664834,61.94333 14.62315,4.85847 41.15386,18.68807 58.95711,30.73246 17.80329,12.04438 40.91783,23.83126 51.36567,26.19309 18.86944,4.26559 18.84038,4.29826 -4.36754,4.90434 -12.84996,0.33571 -25.19535,-2.18086 -27.43417,-5.59211 -7.27251,-11.08085 -49.69548,-33.42603 -83.35464,-43.90475 -40.24716,-12.52978 -59.51808,-26.34455 -84.559649,-60.61843 -34.721257,-47.52229 -47.984282,-30.17243 -45.911978,60.05927 0.69209,30.13289 6.648433,73.24124 13.5895,98.35197 14.091081,50.9775 13.758988,59.63371 -0.862693,22.48562 z"
       id="path3547"
       inkscape:connector-curvature="0" />
  </g>
</svg>
