<?xml version="1.0" encoding="UTF-8" standalone="no"?>
<!-- Created with Inkscape (http://www.inkscape.org/) -->

<svg
   xmlns:dc="http://purl.org/dc/elements/1.1/"
   xmlns:cc="http://creativecommons.org/ns#"
   xmlns:rdf="http://www.w3.org/1999/02/22-rdf-syntax-ns#"
   xmlns:svg="http://www.w3.org/2000/svg"
   xmlns="http://www.w3.org/2000/svg"
   xmlns:sodipodi="http://sodipodi.sourceforge.net/DTD/sodipodi-0.dtd"
   xmlns:inkscape="http://www.inkscape.org/namespaces/inkscape"
   width="210mm"
   height="297mm"
   viewBox="0 0 744.09448819 1052.3622047"
   id="svg3991"
   version="1.1"
   inkscape:version="0.91 r13725"
   sodipodi:docname="github.svg">
  <defs
     id="defs3993" />
  <sodipodi:namedview
     id="base"
     pagecolor="#ffffff"
     bordercolor="#666666"
     borderopacity="1.0"
     inkscape:pageopacity="0.0"
     inkscape:pageshadow="2"
     inkscape:zoom="0.35"
     inkscape:cx="375"
     inkscape:cy="520"
     inkscape:document-units="px"
     inkscape:current-layer="layer1"
     showgrid="false"
     inkscape:window-width="1600"
     inkscape:window-height="847"
     inkscape:window-x="-8"
     inkscape:window-y="-8"
     inkscape:window-maximized="1" />
  <metadata
     id="metadata3996">
    <rdf:RDF>
      <cc:Work
         rdf:about="">
        <dc:format>image/svg+xml</dc:format>
        <dc:type
           rdf:resource="http://purl.org/dc/dcmitype/StillImage" />
        <dc:title></dc:title>
      </cc:Work>
    </rdf:RDF>
  </metadata>
  <g
     inkscape:label="Camada 1"
     inkscape:groupmode="layer"
     id="layer1">
    <path
       style="fill:#000000"
       d="M 255.53312,857.08839 C 189.26736,831.40676 131.53634,783.79738 91.94971,722.1851 79.1763,702.30469 60.07576,661.42732 53.037756,638.90903 30.831607,567.85985 30.885857,493.2097 53.19499,422.53015 86.44098,317.20059 165.67048,234.73863 266.76694,200.24471 c 71.82464,-24.50644 141.95685,-24.50644 213.78149,0 126.02548,42.99963 215.28273,158.90714 228.86589,297.2003 4.45744,45.38252 -1.09127,97.14536 -15.21001,141.89177 -7.02089,22.25104 -26.22574,63.2177 -38.83865,82.84832 -33.81464,52.62884 -78.47519,93.25805 -132.6179,120.64702 -38.43229,19.4416 -52.58924,22.76503 -60.75301,14.26211 -3.27801,-3.41418 -3.39513,-5.2879 -4.21259,-67.39519 -0.80776,-61.37004 -0.98686,-64.31078 -4.5523,-74.74671 -2.0413,-5.97483 -6.54906,-15.20472 -10.01724,-20.51084 -4.20168,-6.42836 -5.62478,-9.85271 -4.26484,-10.26247 1.1225,-0.33824 9.61565,-1.89047 18.87366,-3.44943 32.62127,-5.49307 63.9414,-19.20215 83.64974,-36.61412 21.9372,-19.38114 37.88267,-50.5234 43.74087,-85.42795 9.25862,-55.16519 1.20949,-98.66364 -24.4194,-131.96554 l -6.22124,-8.08381 2.92482,-10.9963 c 4.0081,-15.06902 3.91697,-41.7539 -0.2038,-59.6717 -4.87446,-21.19503 -5.66657,-22.4264 -14.4262,-22.4264 -16.33798,0 -42.21119,9.8184 -67.97225,25.79424 l -17.02714,10.55943 -12.44687,-2.98904 c -25.27827,-6.07046 -38.07388,-7.38774 -71.76228,-7.38774 -33.68841,0 -46.48401,1.31728 -71.76228,7.38774 l -12.44688,2.98904 -17.02714,-10.55943 c -25.76106,-15.97584 -51.63427,-25.79424 -67.97225,-25.79424 -8.75963,0 -9.55174,1.23137 -14.4262,22.4264 -4.12077,17.9178 -4.2119,44.60268 -0.20381,59.6717 l 2.92483,10.9963 -6.22124,8.08381 c -20.59812,26.76497 -30.12057,60.83709 -27.86921,99.71849 3.59965,62.16717 22.59718,102.03265 61.11444,128.24608 18.34486,12.48485 45.15471,22.46756 72.13066,26.85803 20.77912,3.38192 19.50082,2.20006 12.74979,11.78784 -5.88336,8.35551 -13.4539,27.63198 -13.51754,34.41892 -0.0826,8.80504 -38.41734,15.41944 -57.03298,9.84065 -17.22497,-5.16203 -29.44699,-15.49298 -41.42716,-35.01731 -7.63711,-12.44631 -18.28437,-22.85791 -30.07535,-29.40965 -19.58686,-10.88356 -43.8756,-7.29004 -34.56471,5.11384 1.07411,1.43092 5.94217,5.65676 10.81793,9.39078 15.19769,11.63892 24.5323,23.85298 34.40318,45.0157 10.49144,22.49313 19.04555,32.63765 34.2823,40.65617 15.89736,8.36617 28.22457,10.61621 52.30216,9.54654 11.4623,-0.50921 22.8244,-1.42525 25.24913,-2.03564 l 4.40857,-1.10978 0,35.4016 c 0,21.08451 -0.66755,36.702 -1.65063,38.61702 -2.16597,4.21921 -9.86851,8.28458 -15.50329,8.18256 -2.4685,-0.0446 -10.03159,-2.22963 -16.80689,-4.85543 z m -5.26968,-102.61927 c -4.24158,-3.23339 -2.07388,-7.76245 3.71526,-7.76245 2.56486,0 5.62623,1.2095 6.80306,2.68777 1.81795,2.28364 1.68088,3.03752 -0.91167,5.01385 -3.82151,2.91316 -5.8481,2.926 -9.60665,0.0608 z m 24.80242,-2.72662 c -3.99791,-2.65694 0.1824,-7.54275 6.45359,-7.54275 6.09781,0 7.66431,2.59152 3.92373,6.49114 -2.91239,3.03624 -6.7985,3.43004 -10.37732,1.05161 z m -52.88599,-2.50763 c -2.82432,-3.54777 -0.79806,-7.54204 3.82604,-7.54204 4.78202,0 9.18281,4.19481 7.94078,7.56913 -1.17596,3.19478 -9.2167,3.17627 -11.76682,-0.027 z m -22.13998,-12.89014 c -1.05806,-1.10305 -1.92375,-3.73531 -1.92375,-5.84949 0,-2.89687 0.90845,-3.84394 3.68718,-3.84394 4.69818,0 7.53466,2.95708 7.53466,7.85502 0,2.89688 -0.90845,3.84395 -3.68718,3.84395 -2.02794,0 -4.55285,-0.90249 -5.61091,-2.00554 z m -16.66332,-22.27338 c -1.40873,-3.2233 -1.39016,-4.69864 0.0785,-6.22974 2.78699,-2.90548 7.32489,0.53221 7.95431,6.02582 0.40607,3.54424 -0.16044,4.42746 -2.83983,4.42746 -2.02411,0 -4.0767,-1.66941 -5.19297,-4.22354 z m -13.36623,-19.34264 c -1.63031,-5.35505 1.69847,-7.74954 5.62425,-4.0457 4.40047,4.1517 4.10505,7.5565 -0.65564,7.5565 -2.55411,0 -4.26859,-1.21145 -4.96861,-3.5108 z m -14.46318,-13.34762 c -0.59242,-0.99932 -0.25443,-2.67458 0.75107,-3.72284 2.0136,-2.09919 6.65765,0.029 7.7898,3.57003 0.80092,2.50491 -7.06307,2.64558 -8.54087,0.15275 z"
       id="path4010"
       inkscape:connector-curvature="0" />
  </g>
</svg>
