<?xml version="1.0" encoding="UTF-8" standalone="no"?>
<!-- Created with Inkscape (http://www.inkscape.org/) -->

<svg
   xmlns:dc="http://purl.org/dc/elements/1.1/"
   xmlns:cc="http://creativecommons.org/ns#"
   xmlns:rdf="http://www.w3.org/1999/02/22-rdf-syntax-ns#"
   xmlns:svg="http://www.w3.org/2000/svg"
   xmlns="http://www.w3.org/2000/svg"
   xmlns:sodipodi="http://sodipodi.sourceforge.net/DTD/sodipodi-0.dtd"
   xmlns:inkscape="http://www.inkscape.org/namespaces/inkscape"
   width="210mm"
   height="297mm"
   viewBox="0 0 744.09448819 1052.3622047"
   id="svg3341"
   version="1.1"
   inkscape:version="0.91 r13725"
   sodipodi:docname="globe.svg">
  <defs
     id="defs3343" />
  <sodipodi:namedview
     id="base"
     pagecolor="#ffffff"
     bordercolor="#666666"
     borderopacity="1.0"
     inkscape:pageopacity="0.0"
     inkscape:pageshadow="2"
     inkscape:zoom="0.35"
     inkscape:cx="375"
     inkscape:cy="520"
     inkscape:document-units="px"
     inkscape:current-layer="layer1"
     showgrid="false"
     inkscape:window-width="1600"
     inkscape:window-height="847"
     inkscape:window-x="-8"
     inkscape:window-y="-8"
     inkscape:window-maximized="1" />
  <metadata
     id="metadata3346">
    <rdf:RDF>
      <cc:Work
         rdf:about="">
        <dc:format>image/svg+xml</dc:format>
        <dc:type
           rdf:resource="http://purl.org/dc/dcmitype/StillImage" />
        <dc:title></dc:title>
      </cc:Work>
    </rdf:RDF>
  </metadata>
  <g
     inkscape:label="Camada 1"
     inkscape:groupmode="layer"
     id="layer1">
    <path
       style="fill:#000000"
       d="M 310.67777,780.81549 C 235.43207,765.71839 177.19505,736.84192 126.81472,689.64815 103.44221,667.75395 70.653207,623.44776 60.332772,599.81432 15.348334,496.80156 35.926193,379.77337 113.24941,298.87267 220.06409,187.11599 398.87666,156.59198 544.37074,225.27851 c 72.98069,34.45359 133.59668,97.59836 160.26933,166.95548 13.20924,34.34811 17.42586,65.63705 15.25149,113.17164 -1.3934,30.46133 -3.33578,41.99899 -10.8874,64.67049 -21.20294,63.65567 -67.20109,121.20922 -127.99705,160.15173 -26.39732,16.90866 -76.36859,37.55215 -109.2394,45.12759 -36.97557,8.52142 -130.09994,11.67781 -161.08994,5.46005 z m 105.03183,-24.7182 c 33.81686,-9.15801 69.38001,-35.20257 95.1812,-69.70563 13.3502,-17.8528 19.9017,-30.81363 16.89799,-33.42933 -2.4948,-2.17256 -134.23092,-2.64366 -136.71096,-0.48889 -2.83078,2.45949 -5.93548,83.08602 -3.69908,96.06231 2.44997,14.21574 3.10948,14.39177 28.33085,7.56154 z m -57.69553,-51.40858 -0.82393,-53.62767 -65.43712,0.94842 c -35.99042,0.52163 -66.52746,1.51973 -67.86007,2.21795 -2.94548,1.54324 12.73797,26.18089 28.4349,44.6693 26.2083,30.86907 72.59237,59.41255 96.55547,59.41757 l 9.95464,0.002 -0.82389,-53.62767 z m 177.02477,22.59457 c 32.81929,-16.85861 74.68697,-47.46847 89.22455,-65.2329 5.12004,-6.25653 5.45803,-7.96814 1.95464,-9.89846 -4.62665,-2.54926 -46.14501,-3.21824 -56.04665,-0.90309 -3.56082,0.83258 -9.95616,7.79658 -15.16683,16.51559 -9.44403,15.80254 -33.2032,47.63648 -48.60078,65.1182 -8.92823,10.1367 -8.95196,10.25037 -1.72291,8.25397 4.03147,-1.11334 17.69257,-7.34733 30.35798,-13.85331 z M 230.76713,712.57751 c -9.90154,-11.98573 -22.2045,-28.61208 -27.33991,-36.94738 -14.14231,-22.9544 -14.71489,-23.24495 -45.80944,-23.24495 -20.46937,0 -27.17488,0.86196 -27.17488,3.49316 0,3.84086 46.60859,44.15357 64.54404,55.82547 14.889,9.68938 48.77029,25.36163 51.57163,23.85516 1.21624,-0.65404 -5.88989,-10.9957 -15.79144,-22.98146 z m -55.95669,-87.32144 c 1.05568,-0.91855 -0.96214,-12.5598 -4.48401,-25.86938 -3.52189,-13.30959 -8.57322,-38.70846 -11.22518,-56.4419 -6.55745,-43.84893 -6.39081,-43.31811 -14.16802,-45.13137 -9.03103,-2.10566 -56.770193,-2.13151 -68.804391,-0.0373 -12.633661,2.19856 -13.843057,7.21468 -8.365652,34.69781 8.795236,44.13053 29.692919,88.41331 44.007743,93.25371 8.35918,2.82657 59.69037,2.44254 63.03951,-0.4716 z m 182.96095,-0.0148 c 1.35427,-1.8207 2.89391,-30.83537 3.42143,-64.47704 l 0.95909,-61.16669 -25.30779,-1.71409 c -32.5413,-2.20401 -117.89648,-2.20195 -139.00291,0.002 l -16.30033,1.70312 2.09706,22.77045 c 2.59499,28.17689 11.29161,68.32198 18.9883,87.6533 5.47883,13.76076 6.46163,14.65452 17.78804,16.17593 6.59382,0.88575 39.64265,1.77956 73.44181,1.98621 46.21297,0.28264 62.06365,-0.44513 63.9153,-2.93453 z M 550.0579,611.66015 c 7.57921,-17.62613 17.50221,-61.97713 20.33615,-90.89258 2.11561,-21.58598 2.08322,-21.72479 -5.4528,-23.37054 -11.06613,-2.41669 -168.75321,-0.33211 -171.74019,2.27034 -3.02252,2.63343 -7.417,105.28246 -5.03579,117.62906 l 1.65996,8.60691 77.05408,0 77.05406,0 6.12453,-14.24319 z m 104.18224,8.68534 c 14.88032,-12.94761 35.49682,-67.81256 38.33152,-102.00838 l 1.78204,-21.49713 -16.98503,-1.84649 c -9.34176,-1.01558 -30.00789,-1.01473 -45.92468,0.002 -33.67347,2.15074 -29.33139,-3.70804 -37.04494,49.98489 -2.70834,18.8524 -7.5398,43.17552 -10.73654,54.05131 -3.19676,10.87581 -5.81231,21.37111 -5.81231,23.32296 0,2.76048 7.77505,3.5488 35.00125,3.5488 31.49163,0 35.64174,-0.55731 41.38869,-5.55785 z m -502.244,-151.03992 c 1.25584,-1.76808 3.20357,-11.64866 4.32826,-21.95685 1.88067,-17.23695 13.86251,-74.49474 18.43378,-88.08989 1.69056,-5.02777 0.47364,-6.02943 -9.25442,-7.61738 -16.16766,-2.63913 -55.30086,0.0714 -61.05853,4.22924 -14.719421,10.62941 -37.917666,70.42238 -37.917666,97.73202 0,15.14149 0.922207,18.5544 5.326277,19.71149 10.339845,2.71658 77.760789,-0.65574 80.142299,-4.00863 z m 209.05556,-56.8683 0.81792,-58.54177 -18.76505,-1.7066 c -24.16709,-2.19788 -93.72737,-2.2003 -117.87602,-0.004 l -18.72,1.70249 -5.98844,16.87011 c -6.27501,17.67742 -13.42218,51.43446 -16.94205,80.01944 -1.58709,12.88903 -1.09861,17.41901 2.06853,19.18276 2.28044,1.26984 42.49545,2.01876 89.3667,1.66412 l 85.22043,-0.6448 0.81798,-58.54178 z m 200.81967,58.19674 c 6.1693,-1.43859 6.84807,-3.22656 6.84807,-18.03862 0,-18.84696 -9.64079,-68.30018 -16.93817,-86.88547 l -4.93913,-12.57933 -78.42846,0 -78.42845,0 -0.59895,58.05742 -0.59896,58.05741 7.02833,1.16826 c 10.93731,1.81794 158.36533,2.01362 166.05572,0.22033 z m 124.78707,0 c 5.357,-1.24914 6.84807,-3.51007 6.84807,-10.38384 0,-21.23088 -17.03603,-72.20173 -32.27446,-96.56328 l -8.2596,-13.20458 -33.75664,0.0405 c -40.88737,0.0492 -43.74206,1.14588 -38.98759,14.97889 6.63392,19.30121 13.12078,49.97147 15.85269,74.95243 2.06556,18.88761 4.05684,25.92443 8.05616,28.46901 5.5499,3.53109 69.0679,4.84794 82.52137,1.71081 z M 182.09559,326.68783 c 3.07931,-1.43393 10.72083,-10.66982 16.98118,-20.52417 6.26033,-9.85434 20.0867,-28.94047 30.72522,-42.41358 10.63853,-13.47314 17.6017,-24.4966 15.47367,-24.4966 -7.27034,0 -49.36357,23.34784 -70.73495,39.23453 -21.8694,16.2569 -47.1414,40.43604 -47.1414,45.10279 0,1.438 1.71201,3.21563 3.80449,3.9503 6.94505,2.43841 45.20052,1.79702 50.89179,-0.85327 z m 176.61634,-2.63089 c 3.75077,-2.06104 4.75024,-11.9773 5.60152,-55.57333 l 1.0361,-53.06465 -11.25352,0 c -35.88014,0 -97.7299,46.48467 -125.82995,94.57051 -3.58356,6.13234 -6.51557,12.38889 -6.51557,13.90347 0,3.54651 130.52136,3.7028 136.96142,0.16398 z m 170.9618,-3.77261 c -1.40953,-7.09521 -24.70317,-39.80871 -38.73985,-54.40614 -16.64009,-17.30477 -37.47795,-31.86158 -59.77749,-41.75908 -23.36718,-10.37136 -35.20267,-11.24317 -37.21776,-2.74152 -2.8104,11.85684 -3.9854,93.50031 -1.43,99.36129 l 2.62006,6.00941 67.77297,-0.71285 c 64.70299,-0.68056 67.72758,-0.94107 66.77207,-5.75111 z m 101.27382,3.947 c 2.29949,-3.23741 -40.76568,-42.81165 -62.00624,-56.97989 -19.67049,-13.12096 -63.61945,-34.62779 -66.19028,-32.39084 -0.96433,0.83906 5.11374,9.619 13.50681,19.51098 8.39304,9.89197 22.45446,28.71094 31.24754,41.81993 8.79307,13.10898 17.33108,25.32416 18.9734,27.14487 3.53341,3.91721 61.74811,4.72533 64.46877,0.89495 z"
       id="path3360"
       inkscape:connector-curvature="0" />
  </g>
</svg>
