<?xml version="1.0" encoding="UTF-8" standalone="no"?>
<!-- Created with Inkscape (http://www.inkscape.org/) -->

<svg
   xmlns:dc="http://purl.org/dc/elements/1.1/"
   xmlns:cc="http://creativecommons.org/ns#"
   xmlns:rdf="http://www.w3.org/1999/02/22-rdf-syntax-ns#"
   xmlns:svg="http://www.w3.org/2000/svg"
   xmlns="http://www.w3.org/2000/svg"
   xmlns:sodipodi="http://sodipodi.sourceforge.net/DTD/sodipodi-0.dtd"
   xmlns:inkscape="http://www.inkscape.org/namespaces/inkscape"
   width="210mm"
   height="297mm"
   viewBox="0 0 744.09448819 1052.3622047"
   id="svg3362"
   version="1.1"
   inkscape:version="0.91 r13725"
   sodipodi:docname="globe2.svg">
  <defs
     id="defs3364" />
  <sodipodi:namedview
     id="base"
     pagecolor="#ffffff"
     bordercolor="#666666"
     borderopacity="1.0"
     inkscape:pageopacity="0.0"
     inkscape:pageshadow="2"
     inkscape:zoom="0.35"
     inkscape:cx="375"
     inkscape:cy="520"
     inkscape:document-units="px"
     inkscape:current-layer="layer1"
     showgrid="false"
     inkscape:window-width="1600"
     inkscape:window-height="847"
     inkscape:window-x="-8"
     inkscape:window-y="-8"
     inkscape:window-maximized="1" />
  <metadata
     id="metadata3367">
    <rdf:RDF>
      <cc:Work
         rdf:about="">
        <dc:format>image/svg+xml</dc:format>
        <dc:type
           rdf:resource="http://purl.org/dc/dcmitype/StillImage" />
        <dc:title></dc:title>
      </cc:Work>
    </rdf:RDF>
  </metadata>
  <g
     inkscape:label="Camada 1"
     inkscape:groupmode="layer"
     id="layer1">
    <path
       style="fill:#000000"
       d="m 338.94563,847.72592 c 0,-1.32228 -9.47973,-4.06155 -21.06609,-6.08733 -41.66649,-7.28493 -91.34665,-30.15464 -128.63787,-59.21695 -23.48078,-18.29937 -57.25892,-55.4076 -74.02898,-81.3273 C 88.446689,659.72499 64.923078,596.39015 60.312353,553.28097 c -0.979119,-9.15462 -2.876304,-16.64473 -4.215934,-16.64473 -1.339653,0 -2.435712,-16.06268 -2.435712,-35.69484 0,-19.63217 0.984522,-35.69482 2.187825,-35.69482 1.203304,0 3.696117,-10.41711 5.539588,-23.14911 19.726283,-136.24059 122.25034,-252.01341 247.99626,-280.04378 13.92838,-3.1048 25.74804,-6.69269 26.26589,-7.97303 1.45885,-3.60705 68.26123,-2.84767 68.26123,0.77598 0,1.70714 3.67407,3.1039 8.16457,3.1039 18.57311,0 64.8467,16.06993 97.75805,33.94945 63.6452,34.57618 110.69381,85.63235 142.60936,154.75676 13.91727,30.14281 24.71057,65.62926 29.02553,95.43072 1.84349,12.732 4.33629,23.14911 5.53959,23.14911 1.20331,0 2.18783,16.06265 2.18783,35.69482 0,21.72729 -1.10528,35.69484 -2.82461,35.69484 -1.55353,0 -2.8246,4.01119 -2.8246,8.91374 0,20.86658 -14.45408,71.31235 -30.79667,107.4825 -24.38591,53.97196 -57.68256,96.69913 -103.42813,132.72185 -32.88905,25.89873 -108.97065,58.03514 -137.64325,58.13965 -4.27223,0.0149 -7.76767,1.42506 -7.76767,3.1322 0,1.88936 -12.71071,3.10391 -32.48293,3.10391 -17.86561,0 -32.48294,-1.08187 -32.48294,-2.40417 z m 88.975,-104.53428 c 69.81778,-19.95432 122.37614,-65.93993 152.71127,-133.61376 18.6868,-41.68789 22.43648,-60.48541 22.2896,-111.74039 -0.11615,-40.48847 -0.73234,-45.39268 -9.02951,-71.84878 C 571.62114,354.97648 523.47894,297.99007 462.76358,270.77077 327.31916,210.04968 171.36365,297.60741 142.86235,450.3722 c -26.07389,139.75419 60.37687,273.8317 191.84638,297.53682 20.23954,3.64939 73.3405,0.96197 93.2119,-4.71738 z m 9.3049,-52.80445 c 8.15668,-9.80722 19.56847,-26.73675 25.35956,-37.6212 l 10.5292,-19.78995 28.13984,-0.0593 28.13985,-0.0595 -14.01683,15.80824 c -17.63064,19.88395 -42.50264,38.73704 -63.08087,47.81558 -30.96061,13.65899 -31.36369,13.49602 -15.07075,-6.09374 z m -141.23504,9.19322 c -25.59848,-10.3374 -62.34934,-39.10712 -77.92244,-61.00008 -3.34385,-4.70088 -1.41151,-5.1615 22.59683,-5.38661 l 26.25337,-0.24608 6.80999,15.82755 c 3.74549,8.70517 11.88574,23.00156 18.0895,31.76977 6.20374,8.7682 12.51015,17.68813 14.01426,19.82205 3.22725,4.57871 3.49783,4.60031 -9.84151,-0.78652 z m 38.85929,-19.30767 c -11.12336,-11.3558 -29.79938,-39.32256 -29.79938,-44.62362 0,-1.53558 10.16857,-2.79199 22.59682,-2.79199 l 22.59682,0 0,29.48705 c 0,16.21786 -0.95331,29.44924 -2.11845,29.40305 -1.16516,-0.0462 -7.13926,-5.2097 -13.27581,-11.47449 z m 49.28951,-17.81936 0,-29.59625 25.52078,0 25.52084,0 -3.38766,6.98377 c -4.19532,8.6488 -35.9776,45.33252 -42.71091,49.29774 -4.54727,2.67793 -4.94305,0.54133 -4.94305,-26.68526 z M 186.9078,583.97071 c -6.79004,-16.34672 -14.61377,-47.85311 -14.61377,-58.85023 0,-7.02852 0.39311,-7.10763 35.30756,-7.10763 26.35408,0 35.31176,0.98389 35.32419,3.87988 0.0263,6.11512 8.16021,62.08992 10.14846,69.83773 1.78018,6.93705 1.58521,6.98377 -29.12507,6.98377 l -30.91725,0 -6.12412,-14.74352 z m 97.44993,-4.65585 c -2.43749,-10.66964 -5.30968,-28.82745 -6.38264,-40.3507 l -1.95086,-20.95131 37.10991,0 37.1099,0 0,40.35069 0,40.35069 -30.72723,0 -30.72725,0 -4.43183,-19.39937 z m 99.78156,-20.95132 0,-40.35069 40.95674,0 c 40.93817,0 40.95674,0.002 40.95674,7.18969 0,11.09821 -5.46393,42.39971 -10.25846,58.76817 l -4.31854,14.74352 -33.66826,0 -33.66822,0 0,-40.35069 z m 103.00703,34.91887 c 2.69228,-7.59392 9.34908,-42.87893 11.4187,-60.52604 l 1.72916,-14.74352 35.13444,0 c 34.73407,0 35.13447,0.081 35.13447,7.10763 0,10.99712 -7.82371,42.50351 -14.61377,58.85023 l -6.12411,14.74352 -32.30232,0 c -29.61464,0 -32.14205,-0.45195 -30.37657,-5.43182 z M 172.36309,475.33426 c 0.12858,-10.11032 5.75282,-33.26936 13.1915,-54.31825 l 7.40418,-20.95132 30.62437,0 c 17.1825,0 30.6244,1.27785 30.6244,2.91129 0,1.60121 -1.78927,11.72767 -3.97617,22.50327 -2.18686,10.77559 -4.82046,27.62331 -5.85243,37.4394 l -1.87631,17.8474 -35.1043,0 c -31.57589,0 -35.09736,-0.54597 -35.03524,-5.43179 z M 277.84473,461.3667 c 1.00127,-10.66966 4.05341,-28.47827 6.78254,-39.57471 l 4.96206,-20.17534 30.32736,-0.88099 30.32735,-0.88098 0,40.45569 0,40.45568 -37.1099,0 -37.10991,0 1.8205,-19.39935 z m 106.29456,-21.04982 0,-40.44919 33.0737,0.87447 33.07366,0.87449 6.29883,22.77862 c 3.46433,12.52823 7.15819,30.33687 8.20852,39.57469 l 1.9097,16.79609 -41.28223,0 -41.28218,0 0,-40.44917 z m 114.439,28.80958 c -1.96358,-14.05844 -9.14017,-52.38928 -11.62271,-62.07799 -1.78056,-6.94903 -1.62929,-6.98378 30.41314,-6.98378 l 32.20263,0 7.60857,21.49024 c 7.71589,21.79333 13.18852,43.89879 13.31412,53.77933 0.0622,4.88645 -3.46292,5.43179 -35.1105,5.43179 l -35.17953,0 -1.62572,-11.63959 z M 226.99353,351.7696 c 19.68021,-19.86136 39.94497,-35.20593 59.09704,-44.74857 23.29125,-11.60501 26.89404,-11.77977 17.50789,-0.84929 -9.47083,11.02907 -32.4433,48.68742 -32.4433,53.18369 0,2.31161 -9.15371,3.45752 -27.53989,3.44762 l -27.53987,-0.0149 10.91813,-11.01862 z m 80.88147,9.19951 c 0,-6.30126 35.17636,-50.9175 40.14441,-50.9175 1.22355,0 2.22463,11.87241 2.22463,26.38315 l 0,26.38313 -21.18452,0 c -11.65148,0 -21.18452,-0.83194 -21.18452,-1.84878 z m 76.26429,-26.62738 0,-28.47614 7.76765,7.51633 c 12.62742,12.21883 28.32411,30.43694 34.69352,40.26647 l 5.94177,9.1695 -24.20149,0 -24.20145,0 0,-28.47616 z m 80.15509,18.38849 c -6.51652,-13.90333 -16.9875,-29.3896 -30.4311,-45.00654 -6.24567,-7.25538 -9.6935,-13.19157 -7.66184,-13.19157 5.97159,0 45.97121,19.99783 57.77728,28.88578 11.68272,8.79509 29.09314,25.59168 35.38121,34.13379 3.59414,4.88245 1.90127,5.26621 -23.23044,5.26621 l -27.10704,0 -4.72807,-10.08767 z"
       id="path3392"
       inkscape:connector-curvature="0" />
  </g>
</svg>
