<?xml version="1.0" encoding="UTF-8" standalone="no"?>
<!-- Created with Inkscape (http://www.inkscape.org/) -->

<svg
   xmlns:dc="http://purl.org/dc/elements/1.1/"
   xmlns:cc="http://creativecommons.org/ns#"
   xmlns:rdf="http://www.w3.org/1999/02/22-rdf-syntax-ns#"
   xmlns:svg="http://www.w3.org/2000/svg"
   xmlns="http://www.w3.org/2000/svg"
   xmlns:sodipodi="http://sodipodi.sourceforge.net/DTD/sodipodi-0.dtd"
   xmlns:inkscape="http://www.inkscape.org/namespaces/inkscape"
   width="210mm"
   height="297mm"
   viewBox="0 0 744.09448819 1052.3622047"
   id="svg3549"
   version="1.1"
   inkscape:version="0.91 r13725"
   sodipodi:docname="gnu.svg">
  <defs
     id="defs3551" />
  <sodipodi:namedview
     id="base"
     pagecolor="#ffffff"
     bordercolor="#666666"
     borderopacity="1.0"
     inkscape:pageopacity="0.0"
     inkscape:pageshadow="2"
     inkscape:zoom="0.35"
     inkscape:cx="375"
     inkscape:cy="520"
     inkscape:document-units="px"
     inkscape:current-layer="layer1"
     showgrid="false"
     inkscape:window-width="1600"
     inkscape:window-height="847"
     inkscape:window-x="-8"
     inkscape:window-y="-8"
     inkscape:window-maximized="1" />
  <metadata
     id="metadata3554">
    <rdf:RDF>
      <cc:Work
         rdf:about="">
        <dc:format>image/svg+xml</dc:format>
        <dc:type
           rdf:resource="http://purl.org/dc/dcmitype/StillImage" />
        <dc:title></dc:title>
      </cc:Work>
    </rdf:RDF>
  </metadata>
  <g
     inkscape:label="Camada 1"
     inkscape:groupmode="layer"
     id="layer1">
    <path
       style="fill:#000000"
       d="m 399.58014,852.06833 c -7.95829,-7.77327 -14.46964,-16.97043 -14.46964,-20.43821 0,-4.36047 -1.58719,-5.65953 -5.14646,-4.21227 -3.53546,1.43762 -4.72582,5.12962 -3.80267,11.79449 1.07266,7.74467 0.48114,8.94317 -2.93235,5.94126 -5.89457,-5.18389 -5.35382,-18.76558 1.21642,-30.5515 5.25173,-9.42084 5.20706,-10.19445 -1.01919,-17.6497 -3.5814,-4.28839 -8.99494,-12.0346 -12.03,-17.2138 -7.84938,-13.39448 -12.74924,-11.68637 -6.47441,2.25698 6.49348,14.42924 4.03464,21.99212 -8.82193,27.13442 -7.83984,3.13571 -9.61994,5.58494 -8.51414,11.71453 1.12345,6.22758 0.53289,6.989 -3.00647,3.87636 -7.07575,-6.22265 -5.12064,-14.88308 5.18205,-22.95459 5.27265,-4.13074 8.8609,-9.42853 7.97391,-11.77285 -0.88701,-2.34431 -8.15407,-8.88514 -16.14902,-14.53519 -7.99497,-5.65006 -16.8191,-13.92223 -19.60922,-18.38261 -4.70633,-7.52371 -4.58239,-8.81285 1.71511,-17.8388 8.99617,-12.89379 8.57789,-15.89414 -2.57785,-18.49051 -5.25651,-1.22337 -10.0549,-4.97158 -10.93617,-8.54266 -0.86364,-3.49956 -4.98126,-6.87863 -9.15028,-7.50903 -9.78087,-1.47898 -15.66879,-17.33814 -10.00495,-26.94839 5.20943,-8.83923 5.12428,-9.08745 -3.94408,-11.49923 -4.90042,-1.30331 -8.24287,-4.98476 -8.88667,-9.78798 -0.73862,-5.51056 -3.55795,-8.00697 -9.9186,-8.7825 -6.833,-0.83311 -8.88667,-2.91038 -8.88667,-8.98872 0,-15.21739 -4.07815,-29.30692 -8.48273,-29.30692 -3.00277,0 -4.44333,-4.28577 -4.44333,-13.21918 0,-7.27053 -0.88856,-20.08869 -1.97461,-28.48476 l -1.97459,-15.26561 -20.48302,8.5288 -20.483,8.52883 -2.17636,18.45815 c -6.42805,54.51718 11.72901,117.3655 45.8088,158.56136 25.39676,30.69975 26.49509,33.62556 4.00573,10.67059 -41.23581,-42.08946 -58.307,-84.83655 -58.67392,-146.92211 -0.12513,-21.18771 -1.14874,-38.52309 -2.27445,-38.52309 -1.12573,0 -5.47659,3.86863 -9.66859,8.59698 -5.64018,6.36181 -10.61764,8.46265 -19.1445,8.0803 -6.33749,-0.28421 -16.24881,0.66259 -22.02513,2.10388 -10.19701,2.54437 -10.50242,2.29788 -10.50242,-8.47588 0,-8.57627 2.93571,-13.94003 12.92606,-23.61684 7.20062,-6.97464 12.92606,-15.69531 12.92606,-19.68826 0,-3.94236 2.90836,-11.08584 6.46303,-15.87442 3.63827,-4.90121 6.46303,-13.89152 6.46303,-20.56979 0,-11.28175 -0.66355,-11.97573 -13.53635,-14.15694 C 90.586707,479.37806 46.713977,421.98683 38.671027,352.76661 25.769757,241.73408 91.800417,164.17406 199.16942,164.24424 c 35.18066,0.0219 49.1332,3.71783 73.90416,19.5708 15.62942,10.00253 20.99795,11.75014 31.50728,10.25647 6.9673,-0.99027 12.66782,-1.27695 12.66782,-0.6371 0,0.63987 -1.44493,5.19054 -3.21096,10.11262 -6.21328,17.31697 -38.43205,23.55329 -78.08641,15.11453 -34.74192,-7.39336 -79.25379,11.88585 -98.88776,42.83078 -23.99082,37.81181 -25.32181,79.75446 -3.29506,103.83588 5.77283,6.31133 13.66678,12.31841 17.54212,13.34909 12.03341,3.20033 29.10282,-8.6051 51.85811,-35.8658 65.56975,-78.55211 75.6301,-86.36551 114.36012,-88.81798 27.60135,-1.74777 44.92341,4.21657 67.6565,23.29551 l 12.48709,10.4799 19.67983,-15.35163 c 21.24757,-16.57461 39.19724,-21.78167 60.49241,-17.54837 27.2757,5.42219 49.7582,25.83265 88.1014,79.98187 20.37392,28.77254 34.95046,41.6431 47.18955,41.6666 7.96608,0.0164 22.27013,-15.02961 27.05898,-28.46041 5.15199,-14.44918 4.14223,-50.29655 -1.95046,-69.24424 -7.43187,-23.11237 -30.21051,-46.71935 -52.72678,-54.64417 -15.67659,-5.51752 -20.35089,-5.68227 -48.64211,-1.71441 -34.26766,4.80601 -46.21069,3.19625 -57.24293,-7.71563 -9.81944,-9.71234 -9.14922,-15.12922 1.87185,-15.12922 5.02855,0 17.94522,-5.75724 28.70374,-12.79391 63.81979,-41.74153 157.09386,-10.25431 191.74477,64.72874 11.56725,25.03093 17.45093,65.29882 14.75988,101.01612 -4.01406,53.27682 -42.00928,109.68019 -82.34588,122.24142 -10.89533,3.39288 -19.81165,7.22429 -19.8141,8.51417 -0.0155,8.46749 7.17518,19.55343 13.30221,20.50626 9.9381,1.54547 11.00747,7.88449 2.79766,16.58398 -6.04027,6.4006 -9.66125,7.14219 -28.47771,5.83244 -22.45311,-1.56286 -48.10214,-9.70086 -61.95151,-19.65618 -4.44333,-3.194 -11.25966,-7.56924 -15.1474,-9.72281 -6.79226,-3.76245 -6.99479,-3.41321 -5.1801,8.93128 3.94659,26.8467 5.94609,29.32053 22.13583,27.38683 21.47386,-2.56478 28.01271,4.31596 29.86321,31.42471 l 1.45405,21.30135 -17.83026,18.30009 -17.83023,18.30012 9.47555,9.61964 c 11.93179,12.11328 10.90013,20.89942 -3.67317,31.28196 -10.19761,7.26513 -11.3056,9.63267 -11.6021,24.78997 -0.42625,21.79077 -5.04458,27.33793 -22.76044,27.33793 -18.0771,0 -28.79497,9.85098 -25.51245,23.449 6.99525,28.9783 6.25924,33.28628 -7.72105,45.19128 -7.2753,6.19534 -13.2278,13.23181 -13.2278,15.63661 0,8.55825 14.7205,22.73171 23.60911,22.73171 9.49466,0 10.81505,2.38795 4.82822,8.7319 -5.58393,5.91701 1.15686,5.06132 9.6218,-1.22145 12.45839,-9.2467 7.77955,0.8307 -6.32566,13.62445 l -13.50773,12.25178 9.46834,0.29413 9.46834,0.29449 -9.69455,3.13921 c -11.99468,3.88403 -25.72919,1.11757 -39.96673,-8.05009 l -10.88307,-7.00773 3.65182,7.23045 c 2.00848,3.97679 6.17879,8.81099 9.26731,10.74274 8.40052,5.2541 -14.60714,0.59983 -26.38824,-5.33814 -12.56157,-6.33137 -13.6901,-5.97837 -6.77442,2.11919 5.31972,6.22884 5.3585,6.84855 0.42863,6.84855 -2.98117,0 -11.93164,-6.35995 -19.8899,-14.13322 z m 14.45291,-27.27704 c -6.28847,-12.45102 -1.08455,-22.25231 17.81612,-33.55545 13.26421,-7.93238 18.52046,-13.37317 21.00239,-21.73963 3.24589,-10.94168 3.28534,-10.8755 2.02311,3.39384 -1.34149,15.16502 1.8868,18.83351 7.53334,8.56069 2.38504,-4.33905 3.32094,-4.64677 3.39211,-1.11525 0.0688,3.41036 2.528,2.45844 8.17705,-3.1651 9.08958,-9.04855 10.35569,-22.20382 3.1136,-32.35099 -2.61784,-3.66789 -3.98497,-9.25535 -3.03814,-12.41656 2.38491,-7.96242 -9.75977,-10.8227 -22.39737,-5.27502 -8.52807,3.74369 -11.83136,3.52193 -22.53031,-1.51266 l -12.53704,-5.89956 17.38432,-4.10636 c 9.56138,-2.25846 33.07737,-4.96166 52.25773,-6.00703 38.6998,-2.10924 42.41359,-4.48158 40.45294,-25.84108 -0.93735,-10.21149 -2.03622,-11.0952 -17.15906,-13.79939 -11.31248,-2.02282 -23.90973,-1.31564 -42.0097,2.35836 -49.81285,10.11126 -67.186,0.33901 -91.6708,-51.56333 -5.48882,-11.63512 -13.2436,-23.57726 -17.23287,-26.53814 -5.73604,-4.25733 -6.12137,-5.38337 -1.84212,-5.38337 4.68966,0 25.11063,26.45518 25.11063,32.53062 0,5.95067 21.27048,33.8458 30.21465,39.62491 12.55549,8.11252 38.46141,8.68657 67.70412,1.50019 11.41986,-2.8064 29.59145,-4.84477 40.3813,-4.52968 18.8569,0.55073 29.73873,-3.71986 29.73873,-11.67092 0,-1.83881 -4.54936,-7.84652 -10.10966,-13.35045 -8.62207,-8.53467 -11.83179,-9.69068 -21.81272,-7.85614 -10.33186,1.89899 -9.36031,0.88568 8.29201,-8.64843 27.91988,-15.07969 39.78794,-30.16187 39.78794,-50.56351 0,-21.74444 -6.34372,-28.73972 -23.82428,-26.27117 -16.23785,2.29309 -23.8278,-4.07933 -36.36401,-30.5307 -4.64676,-9.8046 -16.27223,-29.71923 -25.83441,-44.2547 -16.55454,-25.16462 -17.38578,-27.46118 -17.38578,-48.03404 0,-24.87242 5.82887,-36.82676 17.95657,-36.82676 9.04475,0 10.16024,4.93794 2.86242,12.67108 -2.76822,2.93334 -4.26803,7.44604 -3.33293,10.02822 0.9351,2.58218 0.65517,4.70693 -0.622,4.72161 -2.85154,0.0342 -10.40103,16.75208 -10.40103,23.03425 0,3.46129 1.52077,3.71172 6.2506,1.02942 3.43781,-1.94959 10.41789,-3.54473 15.51127,-3.54473 12.54141,0 17.01631,-5.68939 17.01631,-21.63451 0,-10.02409 -2.45117,-16.37453 -9.69455,-25.11638 -5.332,-6.43503 -9.69454,-15.31009 -9.69454,-19.72234 0,-16.95819 -21.33527,-21.98472 -37.97674,-8.94725 -12.21449,9.56921 -12.92738,13.47978 -3.94338,21.63096 9.5703,8.68314 3.4171,19.68952 -10.7057,19.14956 -5.80784,-0.22217 -7.81375,-1.10435 -4.5491,-2.00088 6.73864,-1.85053 6.13132,-11.01241 -0.99236,-14.97002 -2.666,-1.48113 -11.6379,-5.96139 -19.93757,-9.95618 -10.7755,-5.18646 -16.04036,-10.15128 -18.41312,-17.36368 -3.95889,-12.03391 -5.00285,-12.14749 -26.96785,-2.93353 -13.31247,5.58436 -21.00971,6.70278 -34.85843,5.06494 -11.36989,-1.34467 -23.59464,-0.35347 -33.93091,2.75114 -8.88667,2.66924 -22.45802,5.82182 -30.15857,7.00577 -18.44836,2.83639 -42.80488,16.17608 -57.0002,31.21816 -19.77145,20.95081 -46.94911,87.38426 -46.94911,114.76307 0,7.06483 -2.13588,14.55637 -4.82408,16.92047 -2.65323,2.33335 -6.37777,10.35662 -8.27672,17.82943 -2.06411,8.12274 -7.92168,17.74492 -14.56503,23.92577 -12.33521,11.47652 -15.62298,22.70113 -4.86177,16.59833 3.43784,-1.94959 10.97856,-3.54472 16.75719,-3.54472 6.16826,0 13.4387,-2.91888 17.60759,-7.06897 3.90556,-3.88797 15.55357,-9.40793 25.88444,-12.26663 27.63985,-7.64827 46.48485,-18.9627 63.287,-37.99701 17.46673,-19.78722 24.32488,-32.6428 32.43808,-60.80488 3.25543,-11.30011 5.10533,-15.15242 4.11087,-8.56069 -5.31113,35.20524 -5.39704,53.43463 -0.31464,66.77336 4.48883,11.78091 4.52332,12.73902 0.24637,6.84855 -2.73487,-3.7667 -5.79408,-10.31564 -6.79823,-14.55317 -2.55292,-10.77334 -5.39978,-9.70672 -15.56068,5.83004 -4.86834,7.44407 -12.40278,16.00032 -16.74323,19.01393 -7.52705,5.22613 -7.8335,6.8159 -6.63158,34.40407 0.8737,20.05472 2.82729,30.76279 6.37058,34.91841 2.81075,3.29648 5.58137,12.09645 6.15694,19.55548 0.86636,11.22719 2.43726,13.90401 9.12531,15.54958 5.01397,1.23367 8.45993,4.77152 9.08343,9.32573 0.67626,4.93939 4.10917,8.06049 10.50242,9.54844 9.52038,2.21578 13.28636,12.47814 6.26627,17.0756 -1.77733,1.16398 -3.23151,5.91071 -3.23151,10.54833 0,8.51173 2.93742,10.62029 24.13639,17.32571 5.27701,1.66915 11.78035,7.16139 14.45188,12.20491 4.13083,7.7986 4.22287,11.02915 0.61538,21.60052 -3.74517,10.97491 -3.58139,13.20384 1.39868,19.03499 7.79118,9.12268 10.21353,8.27217 8.64725,-3.03618 -1.08527,-7.83543 0.79645,-11.36366 10.0489,-18.84181 l 11.38419,-9.20108 1.0132,11.13716 c 0.86353,9.4919 2.26433,11.12235 9.48201,11.03661 7.0248,-0.0836 7.90845,0.85023 5.18245,5.47566 -5.58357,9.47404 0.21819,23.16259 13.87667,32.74053 10.7672,7.55042 12.86603,10.90309 12.86603,20.55215 0,6.96423 2.55926,14.24183 6.46303,18.37846 8.34799,8.84598 10.8664,8.71851 6.30194,-0.31881 z M 382.13412,607.95411 c -0.14012,-3.60973 0.62342,-5.63222 1.69724,-4.49434 1.0738,1.13784 1.18858,4.09127 0.2549,6.56318 -1.03157,2.73167 -1.79731,1.92028 -1.95235,-2.06884 z m 80.53275,-14.86113 c 0,-5.88332 -16.24168,-24.80337 -21.2921,-24.80337 -2.50801,0 -4.56003,2.31139 -4.56003,5.13641 0,6.6245 -10.94604,6.65408 -16.12342,0.0436 -10.6268,-13.56829 12.81583,-21.63731 28.67181,-9.8689 7.68245,5.70197 18.37158,27.85437 15.10881,31.31179 -0.9928,1.05211 -1.80507,0.2334 -1.80507,-1.81941 z M 330.17474,577.26957 c 0,-3.84344 2.73885,-5.47238 8.88667,-5.28533 5.06502,0.15423 6.80213,1.0881 4.03939,2.17189 -2.666,1.04589 -6.66501,3.42428 -8.88666,5.28539 -2.88386,2.41575 -4.0394,1.79445 -4.0394,-2.17195 z m 62.19902,-13.62281 c -11.29022,-26.25737 2.07427,-43.297 33.95862,-43.297 13.29324,0 19.36632,2.53298 39.74655,16.57763 13.23068,9.11772 26.23709,19.50086 28.90309,23.0737 4.70679,6.30776 4.61315,6.32438 -3.23152,0.57434 -19.0374,-13.95425 -51.12913,-33.0937 -58.99855,-35.18662 -10.957,-2.91405 -30.607,3.94781 -34.74021,12.13142 -4.91627,9.73411 -3.87955,11.11147 3.97539,5.28146 8.70311,-6.4595 12.49621,-6.65323 19.77925,-1.01008 4.90262,3.79873 4.29427,4.31566 -5.03752,4.28035 -8.56036,-0.0307 -10.8133,1.4503 -11.64615,7.66448 -0.56794,4.23753 -2.27904,7.70462 -3.80246,7.70462 -1.52339,0 -3.2434,2.60601 -3.82229,5.79114 -0.79081,4.35132 -2.05485,3.45991 -5.0842,-3.58544 z m -0.11996,-85.75508 c 2.29177,-2.63508 4.67598,-4.27851 5.29832,-3.65209 1.91686,1.92946 -2.94102,8.44314 -6.29675,8.44314 -1.74254,0 -1.29315,-2.15595 0.99856,-4.79105 z m -24.95779,-8.02472 c 7.08682,-0.76539 15.08482,-3.20298 17.77333,-5.41682 4.2648,-3.51183 4.32261,-3.2609 0.45319,1.96729 -3.10432,4.19438 -8.43736,5.81976 -17.77333,5.41684 l -13.33815,-0.57563 12.88509,-1.39168 z m -25.81102,-4.83543 c -16.18663,-9.38153 -19.30484,-25.11495 -6.03696,-30.4603 4.67768,-1.88456 15.56709,-3.88299 24.19865,-4.44098 18.74845,-1.21206 20.4279,-2.59289 17.61219,-14.48071 -2.05894,-8.69276 -2.95988,-9.05847 -18.43501,-7.48281 -9.50076,0.96737 -14.47582,0.45126 -11.95731,-1.24041 2.37214,-1.59339 10.31683,-2.92066 17.65488,-2.94948 11.59532,-0.0455 13.78787,1.18031 16.74879,9.36432 8.16079,22.55666 8.08616,24.826 -0.81667,24.826 -7.39758,0 -7.89299,0.7312 -4.45158,6.5705 3.0489,5.17325 2.97056,7.7219 -0.36829,11.98496 -6.632,8.46774 -19.15577,6.78579 -23.42636,-3.14622 -3.56618,-8.29374 -13.42382,-11.58578 -16.89113,-5.64088 -2.13867,3.66685 4.15273,12.18165 12.63183,17.09601 3.55467,2.06021 5.00885,3.74583 3.23152,3.74583 -1.77733,0 -6.13988,-1.68562 -9.69455,-3.74583 z m 72.99295,-37.99327 c -10.6755,-29.27996 -14.30974,-35.48236 -23.69272,-40.4357 -5.56027,-2.93529 -10.73419,-7.32244 -11.49757,-9.74927 -1.09298,-3.47443 0.0794,-3.58015 5.51568,-0.49726 3.79705,2.15335 8.14241,3.10396 9.65633,2.11248 1.51395,-0.99148 7.14623,7.79757 12.51615,19.53122 10.7255,23.4359 15.14906,36.74315 12.21404,36.74315 -1.04657,0 -3.16693,-3.46709 -4.71191,-7.70462 z m -139.23901,-8.6945 c 0,-1.77263 2.90836,-7.14088 6.46303,-11.92947 3.55467,-4.78856 6.46303,-10.15081 6.46303,-11.91604 0,-5.05705 11.26093,-14.54377 17.26376,-14.54377 5.79949,0 16.28632,-5.48752 25.55382,-13.37177 4.85684,-4.13189 5.65262,-4.13189 5.63713,0 -0.0468,12.51052 -7.48473,30.86269 -15.07091,37.18593 -11.62771,9.69196 -12.72912,8.99755 -11.27938,-7.11134 1.51062,-16.78511 -4.72274,-17.33231 -12.26554,-1.0767 -4.88827,10.53477 -22.76494,28.41003 -22.76494,22.76316 z m 351.75648,97.13222 c 4.63917,-4.91589 4.62003,-5.39905 -0.2138,-5.39905 -7.65437,0 -15.4651,-9.47184 -15.4651,-18.75409 0,-4.39568 -5.28233,-14.68686 -11.73849,-22.86931 -6.45618,-8.1824 -14.60898,-21.81129 -18.11737,-30.28637 -15.26038,-36.86383 -21.03624,-47.12479 -34.83173,-61.87934 -14.49373,-15.50136 -36.79375,-25.61023 -47.17955,-21.38712 -7.01989,2.85448 -5.23185,16.25041 3.3031,24.74688 10.14915,10.1034 13.37852,28.3925 7.29505,41.31454 -3.96346,8.41887 -3.98919,10.18566 -0.17088,11.73817 2.47206,1.0052 4.49462,5.26604 4.49462,9.46853 0,5.9429 -0.86175,6.72771 -3.87781,3.53174 -6.02394,-6.38326 -9.04825,-4.89537 -9.04825,4.45156 0,6.84855 -1.61575,8.56069 -8.07878,8.56069 -4.44334,0 -8.07879,1.71581 -8.07879,3.81291 0,3.78758 12.80618,2.85758 22.6206,-1.64272 3.79109,-1.73832 4.90581,0.53951 5.11591,10.45415 0.14761,6.97224 1.91763,13.25923 3.93301,13.9711 2.01543,0.71189 9.16545,5.29467 15.88894,10.18393 33.38688,24.27874 80.63267,34.30696 94.14953,19.9838 z M 512.781,491.81681 c -4.72874,-18.51147 -6.5781,-21.71755 -11.70742,-20.29614 -3.35038,0.92839 -6.09161,2.92627 -6.09161,4.43972 0,4.00541 20.7836,40.59749 22.20986,39.10314 0.66277,-0.69442 -1.32213,-11.15544 -4.41083,-23.24672 z M 160.50463,471.55384 c 1.16257,-6.12091 2.82346,-14.21074 3.69083,-17.97744 1.34847,-5.85587 0.62133,-5.60771 -5.01666,1.71213 l -6.59374,8.56069 -0.0719,-9.94749 c -0.068,-9.41892 -0.38587,-9.64635 -5.98146,-4.28034 -7.71177,7.39536 -10.24796,7.153 -10.24796,-0.97932 0,-9.38375 -5.59094,-11.93245 -8.0639,-3.67608 -2.82251,9.42344 -8.09368,8.71242 -8.09368,-1.09169 0,-11.39462 -3.37003,-13.47499 -10.64394,-6.57069 -6.17165,5.85806 -6.2656,5.72848 -3.97262,-5.47761 l 2.34857,-11.47754 -10.831473,2.42154 c -8.85767,1.9803 -10.09536,1.60703 -6.79206,-2.04832 6.1639,-6.82083 4.8678,-9.94872 -4.12237,-9.94872 -7.96021,0 -8.04244,-0.24436 -3.33009,-9.90079 4.55796,-9.33991 4.44359,-10.00828 -2.01931,-11.79917 -6.48428,-1.79684 -6.57448,-2.34558 -1.68535,-10.25242 5.65142,-9.13969 4.36218,-12.5632 -4.73115,-12.5632 -7.65554,0 -7.47817,-2.94252 0.7358,-12.2074 l 6.66023,-7.51242 -8.24059,-6.86872 -8.2406,-6.86871 7.23549,-5.12181 c 6.92915,-4.90493 6.99608,-5.40419 1.58037,-11.79126 -7.00528,-8.26176 -7.122,-12.56235 -0.49913,-18.38671 3.82456,-3.36346 4.64583,-7.91545 3.18028,-17.62729 -1.48492,-9.83997 -0.78058,-13.57893 2.83484,-15.04904 2.64586,-1.07588 5.7765,-7.41169 6.95699,-14.07957 2.64451,-14.9374 22.574923,-36.97908 36.332103,-40.18091 5.64693,-1.31424 10.72512,-5.12998 11.8571,-8.90934 1.45481,-4.85704 4.9526,-6.61057 13.18624,-6.61057 6.16343,0 14.7841,-2.48414 19.15707,-5.52035 5.33308,-3.70279 11.42118,-4.83044 18.49122,-3.42498 5.79723,1.15244 15.36412,0.6294 21.25975,-1.16231 13.77928,-4.18756 44.48119,1.95008 55.4793,11.09092 l 8.07879,6.71451 -8.07879,-2.91422 c -4.44333,-1.60281 -12.80489,-2.66707 -18.58121,-2.36502 -12.39547,0.64814 -17.66186,0.7629 -27.46788,0.59845 -18.65807,-0.31292 -38.88071,3.64318 -44.07221,8.62164 -3.14452,3.0155 -10.29155,5.48273 -15.8823,5.48273 -8.01506,0 -11.22016,2.16225 -15.15402,10.22322 -2.74397,5.62276 -8.55992,11.17291 -12.92433,12.33366 -5.89253,1.56714 -8.47645,5.16693 -10.03732,13.98342 -1.15611,6.53012 -4.69513,13.58901 -7.86447,15.68636 -4.32641,2.86305 -5.33149,6.62773 -4.03309,15.1062 1.13049,7.38189 -0.12357,14.28948 -3.62095,19.94564 -4.709793,7.61679 -4.802993,9.7599 -0.77831,17.89948 3.96112,8.011 3.93966,10.26946 -0.16054,16.90044 -4.264543,6.89677 -4.142933,8.04403 1.22955,11.59934 4.53162,2.99887 5.67674,7.11737 4.77254,17.16463 -1.05407,11.71203 -0.27163,13.46323 6.86332,15.3608 5.44816,1.44896 8.62882,5.19241 9.83309,11.5729 1.5503,8.21385 3.01842,9.23856 11.37442,7.93898 7.28944,-1.13366 10.45715,0.21614 13.1859,5.61904 3.53499,6.99922 3.81476,6.93728 17.77491,-3.93641 7.80082,-6.07614 20.29128,-14.89984 27.75654,-19.60822 7.46524,-4.70838 25.35744,-23.04581 39.76046,-40.74986 36.14745,-44.43213 63.37053,-61.97839 96.15958,-61.97839 19.96417,0 28.77869,3.74106 44.67862,18.96256 7.13524,6.83078 14.11864,11.67536 15.51864,10.76568 1.39997,-0.90968 2.54543,7.56617 2.54543,18.83518 0,18.81426 0.86271,21.30576 10.5534,30.47844 5.80437,5.49412 13.11527,9.98929 16.24643,9.98929 8.65899,0 20.05714,9.84013 20.05714,17.31555 0,3.65992 1.45418,6.65438 3.23151,6.65438 5.13721,0 3.74313,-13.70401 -1.61576,-15.88308 -7.99823,-3.25229 -5.52602,-12.89483 6.46304,-25.20823 19.39532,-19.92004 12.6308,-37.49356 -21.00485,-54.56839 -12.33767,-6.26311 -13.51167,-6.42849 -7.74538,-1.09103 9.36346,8.66708 14.20841,19.16262 14.20841,30.77952 0,5.3972 1.81771,12.00655 4.03939,14.68743 2.22165,2.6809 0.86858,2.07672 -3.00691,-1.34262 -4.52456,-3.99202 -6.94846,-9.86405 -6.77287,-16.40765 0.34096,-12.70904 -10.00418,-24.27745 -21.71038,-24.27745 -5.62542,0 -13.42857,-4.67926 -22.12688,-13.26866 -19.29864,-19.05702 -43.72693,-28.16534 -69.04639,-25.74465 -28.40851,2.71602 -42.05771,11.5243 -70.92837,45.77253 -13.93324,16.52845 -35.7722,41.22342 -48.53105,54.87773 -21.86234,23.39668 -24.02361,24.826 -37.53961,24.826 -52.22651,0 -60.278363,-88.65435 -12.80965,-141.03973 6.29424,-6.94619 18.87114,-16.13456 27.94868,-20.41857 16.85325,-7.95369 35.81338,-9.23031 95.86398,-6.45465 14.87854,0.68773 24.26517,-0.70441 31.50728,-4.67285 11.93455,-6.53973 13.81097,-13.38524 2.87152,-10.47584 -5.09964,1.35626 -15.46014,-2.52095 -32.9005,-12.31235 -21.30013,-11.95839 -29.64338,-14.6733 -51.09687,-16.62694 -76.88108,-7.00105 -136.851363,24.96362 -164.705393,87.78935 -8.97428,20.24179 -10.44232,27.61193 -11.52855,57.87822 -2.1018,58.56351 9.54468,93.68784 43.08468,129.93803 19.743583,21.33896 44.414003,35.1249 63.565663,35.52086 7.19982,0.14902 8.98018,-1.66576 10.74368,-10.95045 z m 485.97703,-8.14452 c 20.07169,-10.59876 38.74739,-33.80553 53.38204,-66.33346 9.6659,-21.48402 10.01403,-23.8649 10.01403,-68.48551 0,-44.56083 -0.35963,-47.03028 -9.97354,-68.4855 -13.97931,-31.19736 -38.84336,-58.85762 -65.33558,-72.68328 -20.66673,-10.78545 -22.96209,-11.21146 -60.41088,-11.21146 l -38.92786,0 -22.74186,14.55317 c -12.508,8.00426 -25.19925,14.55317 -28.20272,14.55317 -7.65756,0 -6.80105,5.84759 1.55022,10.58367 4.96901,2.81796 19.62225,3.26788 50.30823,1.54467 42.48817,-2.38592 43.62349,-2.26213 60.76745,6.62595 32.96448,17.09006 50.83484,50.07797 50.95831,94.06697 0.14038,49.9561 -26.80986,76.03121 -55.44492,53.64475 -5.74917,-4.49462 -17.30158,-17.42559 -25.67206,-28.73547 -8.3705,-11.30989 -22.17739,-29.98978 -30.68204,-41.51085 -18.86771,-25.55969 -34.43457,-36.91522 -57.48142,-41.93085 -20.76368,-4.51875 -38.23286,-0.5641 -52.92152,11.98033 l -9.53142,8.14 14.37869,6.78256 c 7.90827,3.7304 19.25759,11.64218 25.22069,17.58171 9.50045,9.46283 10.68711,12.52084 9.58984,24.71291 -1.10171,12.2417 -0.73683,13.16784 3.03602,7.70672 2.47426,-3.58143 3.44922,-9.82821 2.30482,-14.76772 -2.34853,-10.13667 -19.45997,-29.86411 -28.55798,-32.92394 -6.08805,-2.04752 -6.01657,-2.38781 1.41861,-6.75258 17.17987,-10.08534 43.05474,-3.45088 69.98862,17.9455 5.75003,4.56787 19.14119,20.39706 29.75814,35.17599 19.38447,26.98345 43.38338,51.61626 50.28796,51.61626 2.03627,0 7.11559,3.85001 11.28743,8.55559 6.6122,7.45821 8.23876,7.93742 12.68147,3.73646 2.80302,-2.6505 8.73184,-5.34482 13.17517,-5.98736 5.55428,-0.80319 8.40861,-3.63354 9.13423,-9.0574 0.60864,-4.54913 4.34546,-9.21456 8.82646,-11.01986 6.67127,-2.68773 7.47997,-4.67274 5.71453,-14.02649 -1.5239,-8.07406 -0.64496,-11.9894 3.39413,-15.11902 4.49279,-3.48118 4.80632,-5.72164 1.78421,-12.75009 -2.73216,-6.35408 -2.73324,-10.37432 -0.003,-15.77755 2.83215,-5.60759 2.61042,-9.40572 -0.97853,-16.75993 -2.62096,-5.37069 -3.86401,-13.81361 -2.85632,-19.39973 1.19641,-6.63189 0.17088,-11.14056 -3.11221,-13.68453 -2.69306,-2.08669 -5.88583,-8.56712 -7.09503,-14.40093 -1.36213,-6.57165 -5.23633,-12.07362 -10.18349,-14.46217 -4.39171,-2.12037 -9.37393,-7.72645 -11.07161,-12.45798 -2.31894,-6.46013 -5.42365,-8.60276 -12.46654,-8.60276 -5.15838,0 -11.18916,-2.31139 -13.40174,-5.13642 -2.21258,-2.82502 -9.03004,-5.13641 -15.14996,-5.13641 -6.11987,0 -14.03277,-1.64784 -17.5842,-3.66189 -4.65344,-2.63899 -7.69579,-2.57262 -10.8913,0.23751 -3.31693,2.91701 -6.17229,2.91381 -11.33279,-0.0137 -5.02599,-2.85029 -9.61029,-2.91058 -16.88816,-0.22217 -13.10105,4.83949 -14.57633,2.69124 -3.45469,-5.03061 11.35003,-7.88041 65.6194,-9.72136 79.18,-2.68598 4.79942,2.48989 11.90359,4.52717 15.78704,4.52717 3.88343,0 10.43004,3.85231 14.548,8.56068 4.11793,4.70838 10.36693,8.56069 13.8867,8.56069 3.58951,0 7.31232,3.04728 8.4782,6.93978 1.14323,3.81688 5.60378,9.38733 9.9123,12.37878 5.16148,3.58365 7.83371,8.66593 7.83371,14.89874 0,5.20285 2.32348,11.50305 5.16331,14.0005 3.55289,3.12452 4.64178,7.94626 3.4912,15.45945 -1.03713,6.77225 0.17683,13.71553 3.19608,18.28357 4.3385,6.56357 4.33516,8.22686 -0.0292,15.28731 -4.42068,7.14923 -4.36924,8.49201 0.52728,13.75909 5.08113,5.46569 5.06658,6.11948 -0.22905,10.28526 -7.05189,5.54727 -7.08268,8.33137 -0.18148,16.41198 5.18159,6.06713 5.09538,6.51393 -1.61576,8.37361 -8.42944,2.33585 -8.68385,4.07831 -2.05894,14.10095 4.73273,7.16196 4.61711,7.61046 -1.96282,7.61046 -4.32004,0 -6.36091,1.63571 -5.34053,4.28035 6.23763,16.16685 6.23393,16.2653 -0.61427,16.2653 -7.7286,0 -8.66416,3.38836 -2.76939,10.03009 3.32459,3.74583 2.39779,4.14011 -5.23743,2.22797 -8.85942,-2.21871 -9.21183,-1.85368 -7.83156,8.1117 1.3197,9.52792 0.98039,9.98904 -3.90367,5.30538 -7.84594,-7.52404 -9.67917,-6.3971 -9.75921,5.99941 l -0.0716,11.12889 -6.31942,-8.56069 c -6.20603,-8.40722 -6.32061,-8.42618 -6.39116,-1.05818 -0.0892,9.29562 -5.89299,13.66374 -8.5192,6.41161 -3.29178,-9.08988 -8.56822,-5.93276 -6.76742,4.04933 l 1.69626,9.40279 -6.62147,-8.54672 -6.62151,-8.54669 2.36379,13.671 c 1.3001,7.5191 3.04471,14.83848 3.87691,16.2653 3.07767,5.27681 19.74154,2.33571 36.29685,-6.40627 z M 478.51884,438.66653 c -4.77584,-1.73937 -7.20191,1.78815 -4.4614,6.48694 1.73747,2.9789 3.04758,2.81648 5.06733,-0.62826 1.60001,-2.72887 1.34999,-5.14635 -0.60593,-5.85868 z"
       id="path3568"
       inkscape:connector-curvature="0" />
  </g>
</svg>
