<?xml version="1.0" encoding="UTF-8" standalone="no"?>
<!-- Created with Inkscape (http://www.inkscape.org/) -->

<svg
   xmlns:dc="http://purl.org/dc/elements/1.1/"
   xmlns:cc="http://creativecommons.org/ns#"
   xmlns:rdf="http://www.w3.org/1999/02/22-rdf-syntax-ns#"
   xmlns:svg="http://www.w3.org/2000/svg"
   xmlns="http://www.w3.org/2000/svg"
   xmlns:sodipodi="http://sodipodi.sourceforge.net/DTD/sodipodi-0.dtd"
   xmlns:inkscape="http://www.inkscape.org/namespaces/inkscape"
   width="210mm"
   height="297mm"
   viewBox="0 0 744.09448819 1052.3622047"
   id="svg5611"
   version="1.1"
   inkscape:version="0.91 r13725"
   sodipodi:docname="haskell.svg">
  <defs
     id="defs5613" />
  <sodipodi:namedview
     id="base"
     pagecolor="#ffffff"
     bordercolor="#666666"
     borderopacity="1.0"
     inkscape:pageopacity="0.0"
     inkscape:pageshadow="2"
     inkscape:zoom="0.35"
     inkscape:cx="375"
     inkscape:cy="520"
     inkscape:document-units="px"
     inkscape:current-layer="layer1"
     showgrid="false"
     inkscape:window-width="1600"
     inkscape:window-height="847"
     inkscape:window-x="-8"
     inkscape:window-y="-8"
     inkscape:window-maximized="1" />
  <metadata
     id="metadata5616">
    <rdf:RDF>
      <cc:Work
         rdf:about="">
        <dc:format>image/svg+xml</dc:format>
        <dc:type
           rdf:resource="http://purl.org/dc/dcmitype/StillImage" />
        <dc:title></dc:title>
      </cc:Work>
    </rdf:RDF>
  </metadata>
  <g
     inkscape:label="Camada 1"
     inkscape:groupmode="layer"
     id="layer1">
    <g
       id="g5630"
       transform="matrix(2.4559279,0,0,2.6092018,-938.82171,778.59496)">
      <path
         style="fill-opacity:1"
         d="m 401.01186,-0.25458 c -4.232,-0.3778125 -5.2567,-0.9005375 -4.68515,-2.389975 0.40235,-1.048525 14.49457,-22.676737 31.31604,-48.0627 l 30.58449,-46.156289 -30.65009,-46.297956 c -16.85756,-25.46387 -30.93295,-47.03505 -31.27866,-47.93594 -0.91699,-2.38963 5.97041,-3.20708 27.1555,-3.22303 l 18.27543,-0.0138 12.54381,19.0625 c 6.89909,10.48438 21.03452,31.94919 31.41206,47.6996 10.37754,15.7504 18.86827,29.58134 18.86827,30.735423 0,1.154083 -10.5658,18.07989 -23.47955,37.612902 -12.91375,19.533013 -27.07131,40.99895 -31.46124,47.702075 l -7.9817,12.1875 -17.60125,-0.2183875 C 414.34913,0.3272575 403.99104,0.011395 401.01186,-0.25458 Z m 63.84883,0.005 c -4.92222,-0.443125 -5.21586,-0.6693625 -3.94671,-3.0408 0.75414,-1.409125 14.81906,-22.828075 31.25537,-47.597675 16.43632,-24.769762 29.88421,-45.508595 29.88421,-46.086464 0,-0.577867 -12.2487,-19.485831 -27.21935,-42.017691 -14.97064,-22.53186 -29.02114,-43.77952 -31.22333,-47.21702 l -4.00399,-6.25 5.28584,-0.84485 c 2.9072,-0.46466 13.2749,-0.88654 23.03932,-0.9375 l 17.75349,-0.0926 6.99097,10.3125 c 3.84504,5.67188 26.52085,39.84375 50.3907,75.9375 23.86984,36.09375 49.37218,74.625 56.67186,85.625 7.86343,11.849525 12.8262,20.4800375 12.17786,21.17795 -0.60185,0.647875 -10.8017,1.39765 -22.66632,1.6661625 l -21.57205,0.488225 -20,-30.7127495 c -11,-16.892013 -20.28125,-30.704575 -20.625,-30.694588 -0.34375,0.01 -9.76679,13.784063 -20.94008,30.609075 L 505.7984,0.66577 487.98848,0.4473825 C 478.19302,0.3272575 467.78552,0.01357 464.86069,-0.249755 Z M 604.8932,-70.274042 c -5.04343,-7.735638 -9.46314,-14.829038 -9.82158,-15.7631 -1.03649,-2.70105 6.0619,-3.268375 41.08073,-3.283325 l 32.22377,-0.01375 -0.34877,16.3252 -0.34879,16.3252 -26.80774,0.2373 -26.80775,0.2373 -9.16987,-14.064813 z m -32.68837,-49.290668 c -5.58682,-8.39461 -9.72696,-15.69383 -9.20031,-16.22048 0.52665,-0.52665 24.29375,-1.02186 52.81579,-1.10046 l 51.85825,-0.14291 0,16.03466 0,16.03467 -42.65793,0.32873 -42.65792,0.32873 -10.15788,-15.26294 z"
         id="path5646"
         inkscape:connector-curvature="0" />
      <path
         style="fill-opacity:1"
         d="m 482.23876,-0.54143 -22.93981,-0.6678 31.37731,-47.237425 c 17.25751,-25.980587 31.3773,-47.742872 31.3773,-48.360631 0,-0.617758 -14.09915,-22.392164 -31.33145,-48.387574 l -31.33144,-47.26437 6.01894,-0.85302 c 3.31042,-0.46916 13.81317,-0.8349 23.33943,-0.81276 l 17.32048,0.0403 30.69644,46.43775 c 16.88304,25.54077 45.02914,68.09401 62.54688,94.56276 17.51775,26.46875 32.11637,49.109375 32.44137,50.3125 0.54678,2.0240375 -1.08576,2.1875 -21.84709,2.1875 l -22.43801,0 -4.45389,-6.5625 c -2.44962,-3.609375 -11.33351,-16.96875 -19.74195,-29.6875 -8.40845,-12.71875 -15.75247,-23.125 -16.32005,-23.125 -0.56757,0 -10.03819,13.640625 -21.04581,30.3125 -11.00764,16.671875 -20.17474,30.1911375 -20.37136,30.0428 -0.19661,-0.14835 -10.6804,-0.570225 -23.29729,-0.9375 z m -86.10241,-1.6053 c 0.33014,-0.859375 14.48783,-22.545025 31.46153,-48.190325 l 30.86127,-46.62782 -30.81346,-46.370815 c -16.9474,-25.50396 -31.07287,-47.04686 -31.38994,-47.87312 -1.18844,-3.09705 43.12025,-4.60741 45.85044,-1.56292 3.62165,4.03859 62.44737,94.060961 62.44737,95.564681 0,2.172953 -9.4216,16.994307 -38.97358,61.310319 l -23.54802,35.3125 -23.24794,0 c -18.08515,0 -23.11463,-0.3469875 -22.64767,-1.5625 z m 207.91788,-69.732937 c -5.43088,-8.248663 -9.46236,-15.409763 -8.95885,-15.913563 0.50353,-0.5038 16.86805,-1.113887 36.36562,-1.355762 l 35.45011,-0.439763 0.38373,16.37945 0.38372,16.37945 -26.875,-0.02613 -26.875,-0.02613 -9.87433,-14.997575 z m -31.77241,-47.722003 c -5.58855,-8.4149 -9.7386,-15.72222 -9.22232,-16.2385 0.70402,-0.70402 64.54443,-1.34693 101.49406,-1.0221 l 3.125,0.0275 -0.28902,15.93779 -0.28903,15.93778 -42.32882,0.32868 -42.32884,0.32868 -10.16103,-15.2998 z"
         id="path5644"
         inkscape:connector-curvature="0" />
      <path
         style="fill-opacity:1"
         d="m 396.17114,-2.2391425 c 0.34928,-0.9102 14.08228,-21.8633245 30.51779,-46.5624995 16.43551,-24.699175 30.32918,-45.648835 30.87482,-46.554804 0.65788,-1.092334 -9.57733,-17.535474 -30.38406,-48.812824 -17.25687,-25.94108 -31.37613,-47.55921 -31.37613,-48.04028 0,-0.48107 10.41724,-0.87468 23.14942,-0.87468 l 23.14942,0 29.14484,44.0625 c 16.02966,24.23438 30.20244,45.89063 31.49508,48.125 2.90345,5.018721 5.98071,-0.47471 -31.50959,56.25 l -29.12163,44.0625 -23.28751,0 c -18.81,0 -23.1654,-0.3181875 -22.65245,-1.6549125 z M 460.67875,-2.77173 c 0.66723,-1.203125 14.94642,-22.867362 31.73153,-48.142737 l 30.51838,-45.955249 -30.81968,-46.544754 c -16.95083,-25.59962 -31.24342,-47.24788 -31.76132,-48.10726 -0.74013,-1.22813 4.12056,-1.5625 22.71372,-1.5625 l 23.65537,0 12.93447,19.6875 c 7.11396,10.82813 35.11368,53.15625 62.22159,94.0625 27.10791,40.90625 49.55379,75.359375 49.87973,76.5625 0.54838,2.024275 -1.0867,2.1875 -21.91357,2.1875 l -22.50615,0 -19.78391,-30 c -10.88114,-16.5 -20.14356,-30 -20.58315,-30 -0.43959,0 -9.74029,13.4919 -20.66822,29.982013 l -19.86898,29.982012 -23.48148,0.0179875 C 460.95205,-0.5853675 459.5424,-0.722705 460.67875,-2.77173 Z m 143.37548,-69.107937 c -5.43088,-8.248663 -9.54771,-15.324188 -9.14851,-15.723388 0.3992,-0.3992 16.79576,-1.03715 36.43683,-1.417662 l 35.71101,-0.691851 0,16.439176 0,16.439162 -26.5625,-0.02388 -26.5625,-0.02387 -9.87433,-14.997575 z m -31.74272,-47.754013 c -5.51944,-8.4147 -9.77099,-15.7272 -9.44788,-16.25 0.32312,-0.5228 23.89803,-0.95055 52.38871,-0.95055 l 51.80122,0 0,16.25 0,16.25 -42.35335,0 -42.35335,0 -10.03535,-15.29945 z"
         id="path5642"
         inkscape:connector-curvature="0" />
      <path
         style="fill-opacity:1"
         d="m 395.80356,-1.33728 c 0,-0.414175 14.12867,-22.068175 31.39703,-48.12 30.03252,-45.308391 31.31642,-47.489414 29.54204,-50.184457 -1.02026,-1.549623 -14.50515,-21.942493 -29.96644,-45.317493 -15.46128,-23.375 -28.77499,-43.76562 -29.58601,-45.3125 l -1.47458,-2.8125 23.1558,0 23.15581,0 26.65115,40.3125 c 14.65814,22.17188 28.80653,43.82813 31.44085,48.125 l 4.78969,7.8125 -4.8064,7.8125 c -2.64353,4.296875 -16.82822,25.953125 -31.52154,48.125 l -26.71513,40.3125 -23.03114,0 c -12.66712,0 -23.03113,-0.338875 -23.03113,-0.75305 z m 64.55627,-0.80945 c 0.5246,-0.859375 14.88071,-22.5529 31.90248,-48.207837 l 30.94868,-46.645333 -28.49738,-42.72966 c -15.67356,-23.50132 -30.00354,-45.12029 -31.8444,-48.04217 l -3.34701,-5.3125 23.55757,0 23.55756,0 6.71387,10.3125 c 3.69262,5.67188 23.28424,35.34375 43.53691,65.9375 62.1637,93.904675 75.16545,113.805575 75.16545,115.050725 0,0.7210125 -8.9178,1.199275 -22.36164,1.199275 l -22.36164,0 -19.67759,-30 c -10.82268,-16.5 -20.08053,-30 -20.57298,-30 -0.49246,0 -9.84044,13.486338 -20.77326,29.969625 l -19.87789,29.969625 -23.51127,0.030375 c -18.49044,0.0238875 -23.30759,-0.3033 -22.55746,-1.532125 z m 143.80319,-69.83245 c -5.37105,-8.3136 -9.48016,-15.401012 -9.13136,-15.749813 0.34879,-0.348799 16.55579,-0.712037 36.01554,-0.807199 l 35.38136,-0.173038 0.34985,15.9375 0.34984,15.9375 -26.59984,-0.01463 -26.59985,-0.01463 -9.76554,-15.115625 z m -31.9225,-47.98005 c -6.5974,-9.98584 -9.4341,-15.30699 -8.48605,-15.91836 0.78325,-0.5051 24.34597,-0.92697 52.36159,-0.9375 l 50.9375,-0.0191 -2.1e-4,15.9375 -2.2e-4,15.9375 -42.45123,0 -42.45124,0 -9.91014,-15 z"
         id="path5640"
         inkscape:connector-curvature="0" />
      <path
         style="fill-opacity:1"
         d="m 395.80356,-1.17638 c 0,-0.3256875 13.89893,-21.560062 30.8865,-47.1875 16.98758,-25.627437 30.88725,-47.4391 30.88816,-48.47035 9.1e-4,-1.03125 -12.65447,-21 -28.12306,-44.375 -15.46859,-23.375 -29.41414,-44.60937 -30.99011,-47.1875 l -2.86539,-4.6875 23.06937,0 23.06936,0 29.99845,45.3125 c 16.49914,24.92188 30.65234,46.57813 31.45156,48.125 1.10416,2.137088 1.10416,3.487913 0,5.625 -0.79922,1.546875 -14.95241,23.203125 -31.45156,48.125 l -29.99845,45.3125 -22.96741,0 c -12.63208,0 -22.96742,-0.2664625 -22.96742,-0.59215 z m 65,-0.6217375 c 0,-0.66765 14.05334,-22.3152245 31.22964,-48.1057245 l 31.22965,-46.89183 -31.22965,-47.018778 c -17.1763,-25.86033 -31.22964,-47.52526 -31.22964,-48.14428 0,-0.62702 10.10364,-1.11582 22.8125,-1.10366 l 22.8125,0.0218 18.34219,27.79066 c 10.0882,15.28486 38.35382,58.03907 62.8125,95.009354 24.45867,36.970294 44.47031,67.7671685 44.47031,68.437506 0,0.746025 -8.62015,1.2188 -22.22249,1.2188 l -22.22248,0 -20.33447,-30.789262 -20.33445,-30.78925 -20.25555,30.77935 -20.25556,30.779362 -22.8125,0.01 c -13.92943,0.00595 -22.8125,-0.4628875 -22.8125,-1.2040875 z M 604.57825,-71.797392 c -5.51358,-8.229738 -10.02469,-15.260988 -10.02469,-15.625 0,-0.364013 16.3125,-0.661838 36.25,-0.661838 l 36.25,0 0,15.625 0,15.625 -26.22531,0 -26.22533,0 -10.02467,-14.963162 z m -32.4379,-48.657288 c -9.35662,-13.96599 -9.79528,-14.91531 -7.21218,-15.60793 1.51271,-0.40562 25.10976,-0.74516 52.43789,-0.75455 l 49.6875,-0.0171 0,15.625 0,15.625 -42.47531,0 -42.47533,0 -9.96257,-14.87045 z"
         id="path5638"
         inkscape:connector-curvature="0" />
      <path
         style="fill-opacity:1"
         d="m 398.45589,-5.27173 c 1.57093,-2.578125 15.67931,-23.967625 31.35195,-47.532212 15.67265,-23.5646 28.49572,-43.375114 28.49572,-44.023369 0,-0.648254 -12.82208,-20.461879 -28.4935,-44.030279 -15.67143,-23.5684 -29.77981,-44.96101 -31.35195,-47.53914 l -2.85845,-4.6875 23.0798,0 23.0798,0 28.68254,43.4375 c 15.7754,23.89063 29.95,45.54688 31.4991,48.125 l 2.81656,4.6875 -2.82831,4.6875 c -1.55558,2.578125 -15.72723,24.234375 -31.49257,48.125 l -28.66425,43.4375 -23.08633,0 -23.08634,0 2.85623,-4.6875 z m 62.78585,2.8485875 c 0.38811,-1.0114 14.49573,-22.6705995 31.35026,-48.1315625 l 30.6446,-46.292651 -30.60951,-46.188084 c -16.83523,-25.40344 -30.94284,-47.05674 -31.35026,-48.11843 -0.65151,-1.69782 2.02342,-1.92731 22.20549,-1.90502 l 22.94624,0.0253 13.71737,20.91217 c 7.54457,11.50169 35.22989,53.40024 61.52294,93.107898 46.38322,70.047737 50.38469,76.220312 50.38469,77.722087 0,0.38895 -9.98438,0.704825 -22.1875,0.70195 l -22.1875,-0.005 -14.60742,-22.182275 c -8.03409,-12.20025 -17.03409,-25.969475 -20,-30.598275 -2.96592,-4.6288 -5.67383,-8.414338 -6.01758,-8.412313 -0.34375,0.0025 -9.625,13.74395 -20.625,30.537613 l -20,30.533925 -22.94624,0.065875 c -19.70079,0.0565 -22.84643,-0.1942 -22.24058,-1.773025 z M 604.57825,-71.797392 c -5.51358,-8.229738 -10.02469,-15.260988 -10.02469,-15.625 0,-0.364013 16.3125,-0.661838 36.25,-0.661838 l 36.25,0 0,15.625 0,15.625 -26.22531,0 -26.22533,0 -10.02467,-14.963162 z m -32.42344,-48.635708 -9.94811,-14.84887 4.61092,-0.76237 c 2.53601,-0.41931 26.12657,-0.76857 52.42344,-0.77613 l 47.8125,-0.0138 0,15.625 0,15.625 -42.47531,0 -42.47533,0 -9.94811,-14.84887 z"
         id="path5636"
         inkscape:connector-curvature="0" />
      <path
         style="fill-opacity:1"
         d="m 397.00206,-2.988005 c 0.70756,-1.322075 14.78985,-22.712013 31.29398,-47.533187 16.50414,-24.821175 30.00752,-45.653802 30.00752,-46.294733 0,-0.640931 -13.55515,-21.579125 -30.12255,-46.529315 -16.5674,-24.95019 -30.64969,-46.34836 -31.29398,-47.55149 -1.0959,-2.04645 0.30899,-2.1875 21.78877,-2.1875 l 22.96021,0 27.25432,41.24926 c 14.98987,22.68709 29.18968,44.34334 31.55512,48.125 l 4.3008,6.87574 -4.15884,6.643175 c -2.28738,3.65375 -16.47198,25.31 -31.52137,48.125 l -27.36252,41.481825 -22.99396,0 c -22.2998,0 -22.95512,-0.072625 -21.7075,-2.403775 z m 64.14595,0.8091375 c 0.33655,-0.87705 14.50243,-22.5339875 31.47972,-48.1265245 l 30.86779,-46.531877 -30.865,-46.521571 c -16.97576,-25.58686 -31.14163,-47.24243 -31.47972,-48.12348 -0.48621,-1.26705 4.18198,-1.59853 22.33152,-1.58576 l 22.94624,0.0162 6.24377,9.67135 c 3.43408,5.31924 28.18435,42.85885 55.00063,83.42135 66.37468,100.39885 64.31684,97.2168875 63.61094,98.3590625 -0.34534,0.5587625 -10.29782,1.011325 -22.11662,1.0056875 l -21.48872,-0.01 -20,-30.590987 c -11,-16.825038 -20.28125,-30.586338 -20.625,-30.580675 -0.34375,0.0063 -9.76679,13.776225 -20.94007,30.601237 l -20.31509,30.590675 -22.63116,0 c -17.83464,0 -22.50146,-0.337975 -22.01923,-1.5946375 z M 604.64705,-71.694692 c -5.47574,-8.173263 -9.61185,-15.204513 -9.19135,-15.625 0.42048,-0.420501 16.70202,-0.764538 36.1812,-0.764538 l 35.41666,0 0,15.625 0,15.625 -26.22531,0 -26.22533,0 -9.95587,-14.860462 z m -32.48715,-48.730828 -9.94304,-14.84128 5.71781,-0.78372 c 3.1448,-0.43104 26.73306,-0.78371 52.41835,-0.78371 l 46.70054,0 0,15.625 0,15.625 -42.47531,0 -42.47533,0 -9.94302,-14.84129 z"
         id="path5634"
         inkscape:connector-curvature="0" />
      <path
         style="fill-opacity:1"
         d="m 396.55157,-2.14673 c 0.49255,-0.859375 14.58825,-22.257312 31.32377,-47.550988 16.73552,-25.293662 30.42822,-46.505059 30.42822,-47.136432 0,-0.631371 -13.68169,-21.8428 -30.40376,-47.13651 -16.72206,-25.29371 -30.81776,-46.69169 -31.32377,-47.55107 -0.72233,-1.22678 3.9974,-1.55995 21.96626,-1.55064 l 22.88627,0.0119 25.89323,39.05064 c 14.24127,21.47785 28.49601,43.12877 31.67719,48.11314 l 5.78397,9.0625 -5.79415,9.0625 c -3.18679,4.984375 -17.43817,26.640625 -31.66976,48.125 l -25.8756,39.0625 -22.89371,0 c -17.95926,0 -22.70069,-0.336775 -21.99816,-1.5625 z m 64.25199,0.687825 c 0,-0.481075 14.14462,-22.137325 31.43249,-48.125 l 31.43249,-47.250325 -31.43249,-47.25032 c -17.28787,-25.98768 -31.43249,-47.64393 -31.43249,-48.125 0,-0.48107 10.26562,-0.85606 22.8125,-0.8333 l 22.8125,0.0414 6.19721,9.64612 c 3.40846,5.30537 20.52303,31.30237 38.03237,57.77112 73.25686,110.741912 81.23147,123.004 80.62914,123.9785875 -0.3472,0.561775 -10.3012,1.0092125 -22.12,0.9943 l -21.48872,-0.027125 -20,-30.5843005 c -11,-16.821362 -20.28125,-30.575087 -20.625,-30.563812 -0.34375,0.01125 -9.76679,13.7864 -20.94008,30.611412 l -20.31508,30.590938 -22.49742,0 c -12.37358,0 -22.49742,-0.3936 -22.49742,-0.874675 z m 144.41386,-69.57115 c -5.17762,-7.8077 -9.41386,-14.83895 -9.41386,-15.625 0,-1.0388 9.73074,-1.429175 35.625,-1.429175 l 35.625,0 0,15.625 0,15.625 -26.21114,0 -26.21113,0 -9.41387,-14.195825 z m -32.54227,-49.055555 c -5.24453,-7.97575 -9.17113,-14.86638 -8.72578,-15.3125 0.44535,-0.44611 23.82598,-0.98606 51.95695,-1.19989 l 51.14724,-0.38876 0,15.70126 0,15.70127 -42.42145,0 -42.42145,0 -9.53551,-14.50138 z"
         id="path5632"
         inkscape:connector-curvature="0" />
    </g>
  </g>
</svg>
