<?xml version="1.0" encoding="UTF-8" standalone="no"?>
<!-- Created with Inkscape (http://www.inkscape.org/) -->

<svg
   xmlns:dc="http://purl.org/dc/elements/1.1/"
   xmlns:cc="http://creativecommons.org/ns#"
   xmlns:rdf="http://www.w3.org/1999/02/22-rdf-syntax-ns#"
   xmlns:svg="http://www.w3.org/2000/svg"
   xmlns="http://www.w3.org/2000/svg"
   xmlns:sodipodi="http://sodipodi.sourceforge.net/DTD/sodipodi-0.dtd"
   xmlns:inkscape="http://www.inkscape.org/namespaces/inkscape"
   width="210mm"
   height="297mm"
   viewBox="0 0 744.09448819 1052.3622047"
   id="svg3666"
   version="1.1"
   inkscape:version="0.91 r13725"
   sodipodi:docname="hp.svg">
  <defs
     id="defs3668" />
  <sodipodi:namedview
     id="base"
     pagecolor="#ffffff"
     bordercolor="#666666"
     borderopacity="1.0"
     inkscape:pageopacity="0.0"
     inkscape:pageshadow="2"
     inkscape:zoom="0.35355339"
     inkscape:cx="148.56191"
     inkscape:cy="465.07158"
     inkscape:document-units="px"
     inkscape:current-layer="layer1"
     showgrid="false"
     inkscape:window-width="1600"
     inkscape:window-height="847"
     inkscape:window-x="-8"
     inkscape:window-y="-8"
     inkscape:window-maximized="1" />
  <metadata
     id="metadata3671">
    <rdf:RDF>
      <cc:Work
         rdf:about="">
        <dc:format>image/svg+xml</dc:format>
        <dc:type
           rdf:resource="http://purl.org/dc/dcmitype/StillImage" />
        <dc:title></dc:title>
      </cc:Work>
    </rdf:RDF>
  </metadata>
  <g
     inkscape:label="Camada 1"
     inkscape:groupmode="layer"
     id="layer1">
    <path
       style="fill:#000000"
       d="m 367.87986,824.95084 c 0,-0.53761 14.97794,-41.61219 33.28432,-91.27689 18.30639,-49.66465 33.28433,-90.88732 33.28433,-91.60585 0,-0.71851 21.34356,-1.31473 47.43016,-1.32486 26.08661,-0.0101 52.75761,-1.48868 59.2689,-3.28563 22.56378,-6.22702 27.09021,-14.72572 69.63285,-130.74059 41.77806,-113.9301 45.39213,-129.17408 34.52927,-145.64388 -10.94031,-16.58725 -18.19226,-17.90066 -98.8373,-17.90066 -68.07044,0 -74.89748,0.51346 -76.93656,5.78646 -2.41623,6.24826 -163.66925,446.46574 -168.8234,460.88442 l -3.115,8.71421 -22.27425,-6.57207 C 204.38686,791.05568 134.47489,738.70539 92.627445,675.18251 38.20062,592.56452 22.95544,497.8171 48.516585,401.03705 71.283615,314.83596 133.02641,236.85991 212.02928,194.53389 c 19.51857,-10.45709 65.41984,-29.9149 70.56977,-29.9149 0.60858,0 -36.91961,103.78421 -83.39595,230.6316 -46.47634,126.8474 -85.37776,234.03162 -86.44757,238.18716 l -1.94513,7.55551 35.80363,-0.94241 35.80363,-0.94245 41.12553,-112.42258 c 22.61903,-61.83243 43.50279,-118.74635 46.40833,-126.47542 l 5.2828,-14.05281 26.57647,0 c 26.02611,0 26.52864,0.15395 24.26704,7.43973 -1.27018,4.09187 -21.62496,60.15402 -45.23284,124.58258 -23.98098,65.44677 -41.65932,118.39868 -40.05895,119.9885 1.57549,1.5651 17.58764,2.41687 35.58259,1.89281 l 32.71809,-0.95281 44.24347,-120.68895 c 26.75357,-72.9795 44.29523,-125.65551 44.37448,-133.25269 0.0721,-6.91007 -2.21509,-17.07094 -5.08262,-22.57969 -7.85,-15.08034 -22.26645,-19.41459 -64.57647,-19.41459 -20.19582,0 -36.71149,-0.37198 -36.70149,-0.82664 0.0102,-0.45464 15.60969,-43.23309 34.66601,-95.06319 l 34.6478,-94.23657 27.74212,0.28057 c 85.50453,0.86484 172.09261,39.41222 234.31995,104.31475 108.64227,113.31295 123.93682,285.65682 37.05447,417.54108 -50.90952,77.27876 -132.84056,130.47006 -226.76935,147.22326 -17.69446,3.15595 -65.12523,5.00957 -65.12523,2.5451 z M 454.4191,591.36353 c 0,-1.7086 13.62986,-40.0232 30.28858,-85.14357 16.6587,-45.12042 33.27195,-90.59276 36.91831,-101.04973 l 6.62976,-19.01264 26.32188,0 c 14.47706,0 26.32191,1.3853 26.32191,3.07844 0,1.69314 -12.01743,35.5439 -26.70542,75.22391 -14.68795,39.68007 -31.4968,85.16506 -37.35298,101.0778 l -10.6476,28.93228 -25.88722,0 c -14.23797,0 -25.88722,-1.39793 -25.88722,-3.10649 z"
       id="path3685"
       inkscape:connector-curvature="0" />
  </g>
</svg>
