<?xml version="1.0" encoding="UTF-8" standalone="no"?>
<!-- Created with Inkscape (http://www.inkscape.org/) -->

<svg
   xmlns:dc="http://purl.org/dc/elements/1.1/"
   xmlns:cc="http://creativecommons.org/ns#"
   xmlns:rdf="http://www.w3.org/1999/02/22-rdf-syntax-ns#"
   xmlns:svg="http://www.w3.org/2000/svg"
   xmlns="http://www.w3.org/2000/svg"
   xmlns:sodipodi="http://sodipodi.sourceforge.net/DTD/sodipodi-0.dtd"
   xmlns:inkscape="http://www.inkscape.org/namespaces/inkscape"
   width="210mm"
   height="297mm"
   viewBox="0 0 744.09448819 1052.3622047"
   id="svg3791"
   version="1.1"
   inkscape:version="0.91 r13725"
   sodipodi:docname="html5.svg">
  <defs
     id="defs3793" />
  <sodipodi:namedview
     id="base"
     pagecolor="#ffffff"
     bordercolor="#666666"
     borderopacity="1.0"
     inkscape:pageopacity="0.0"
     inkscape:pageshadow="2"
     inkscape:zoom="0.35"
     inkscape:cx="375"
     inkscape:cy="520"
     inkscape:document-units="px"
     inkscape:current-layer="layer1"
     showgrid="false"
     inkscape:window-width="1600"
     inkscape:window-height="847"
     inkscape:window-x="-8"
     inkscape:window-y="-8"
     inkscape:window-maximized="1" />
  <metadata
     id="metadata3796">
    <rdf:RDF>
      <cc:Work
         rdf:about="">
        <dc:format>image/svg+xml</dc:format>
        <dc:type
           rdf:resource="http://purl.org/dc/dcmitype/StillImage" />
        <dc:title></dc:title>
      </cc:Work>
    </rdf:RDF>
  </metadata>
  <g
     inkscape:label="Camada 1"
     inkscape:groupmode="layer"
     id="layer1">
    <path
       style="fill:#000000"
       d="m 356.42304,926.30113 c 0,-1.90956 -14.19945,-5.57816 -31.55434,-8.15245 -17.3549,-2.57434 -31.55436,-5.8368 -31.55436,-7.24988 0,-1.41311 -12.3062,-4.61915 -27.34711,-7.1245 -15.0409,-2.50536 -27.3471,-5.76963 -27.3471,-7.25393 0,-1.4843 -13.25282,-4.78952 -29.45073,-7.34491 -16.19791,-2.55545 -29.45073,-5.94253 -29.45073,-7.52684 0,-1.58437 -14.19945,-5.10789 -31.55435,-7.83012 -17.3549,-2.72216 -31.55436,-6.15536 -31.55436,-7.62923 0,-1.4739 -5.42732,-3.73213 -12.06068,-5.01831 -10.917003,-2.11674 -12.30994,-4.16989 -14.688813,-21.65116 -1.445446,-10.62199 -2.644548,-28.08725 -2.664671,-38.81169 -0.02023,-10.72447 -1.633902,-19.49901 -3.586221,-19.49901 -1.952298,0 -6.076558,-37.60523 -9.16494,-83.56717 -3.088386,-45.96195 -6.854918,-83.56718 -8.370096,-83.56718 -1.515149,0 -6.22057,-48.88681 -10.456495,-108.63733 C 51.38212,445.68687 46.672969,395.96442 45.153247,394.94304 42.485883,393.15038 32.235552,270.11284 32.389461,241.73655 l 0.07538,-13.92786 345.471962,0 345.47198,0 -2.46248,15.78491 c -1.3544,8.68169 -3.72958,37.93019 -5.27818,64.99669 -1.54864,27.06646 -4.13105,49.21178 -5.73872,49.21178 -1.60768,0 -5.43819,36.76956 -8.51227,81.71013 -3.07405,44.94057 -6.88191,81.71013 -8.46185,81.71013 -1.58001,0 -4.1012,18.8026 -5.60271,41.78359 -7.10487,108.74222 -8.42439,123.61747 -11.11948,125.35076 -1.58809,1.02138 -5.64566,39.14976 -9.01681,84.72975 -6.48425,87.67117 -7.09863,89.65123 -27.85605,89.77593 -5.20645,0.0297 -9.46631,1.46015 -9.46631,3.17523 0,1.71511 -13.25282,5.32586 -29.45073,8.02393 -16.1979,2.69807 -29.45073,6.13028 -29.45073,7.62709 0,1.49681 -11.69971,4.54083 -25.99934,6.76441 -14.29965,2.22359 -27.07915,5.44306 -28.39891,7.15439 -1.31979,1.71134 -16.12571,5.23643 -32.90211,7.83354 -16.77639,2.59713 -30.50256,5.97393 -30.50256,7.50399 0,1.53012 -13.25282,4.87281 -29.45072,7.42819 -16.1979,2.55545 -29.45074,6.16582 -29.45074,8.02305 0,1.85725 -8.51967,3.37679 -18.9326,3.37679 -10.41293,0 -18.93261,-1.56232 -18.93261,-3.47184 z m 54.23244,-136.81675 c 1.41097,-1.91237 15.34493,-5.58152 30.96433,-8.15372 15.61941,-2.57224 28.39892,-5.9118 28.39892,-7.42124 0,-1.5095 12.75994,-4.61107 28.3554,-6.89241 15.59548,-2.28135 29.00607,-5.8711 29.80133,-7.97723 0.79523,-2.10616 6.7498,-3.82935 13.23231,-3.82935 11.09857,0 11.93111,-1.13785 14.26741,-19.49901 1.36456,-10.72447 3.73708,-41.22648 5.27222,-67.78227 1.53513,-26.55579 4.19816,-49.11893 5.91778,-50.1403 1.71965,-1.02138 4.50962,-24.00237 6.19997,-51.06883 l 3.07331,-49.21179 -157.98328,0 -157.98324,0 -2.22668,-15.78491 c -1.22468,-8.68171 -2.88145,-26.23082 -3.68171,-38.99802 l -1.455,-23.2131 167.50656,0 167.50653,0 0.0269,-10.21377 c 0.0135,-5.61758 1.24113,-24.00236 2.72723,-40.85506 l 2.70197,-30.6413 -217.78158,0 -217.78159,0 2.48106,19.49901 c 1.36456,10.72444 3.73237,40.80862 5.26179,66.85374 1.52941,26.04509 4.14097,47.35474 5.80344,47.35474 1.6625,0 4.34303,20.97837 5.95679,46.61863 1.61373,25.64022 3.98621,49.03903 5.27215,51.99735 1.98014,4.55539 25.13194,5.37873 151.24517,5.37873 l 148.90714,0 0,16.71343 c 0,9.19239 -1.89326,16.71344 -4.20725,16.71344 -2.43141,0 -4.26372,12.14955 -4.34103,28.78425 -0.0808,17.39983 -2.25246,31.24399 -5.49059,35.00343 -3.30925,3.84207 -18.93722,8.48989 -40.88684,12.15992 -19.54155,3.26737 -36.16119,7.57194 -36.93252,9.56567 -1.6787,4.33917 -25.94468,4.92941 -25.94468,0.63107 0,-1.64668 -17.28017,-5.91822 -38.40039,-9.49237 -21.12021,-3.57412 -41.01336,-8.80508 -44.20696,-11.62438 -3.30125,-2.91432 -6.96727,-17.2474 -8.49668,-33.21974 l -2.69011,-28.09376 -43.57986,0 -43.57988,0 2.761,38.0695 c 1.51858,20.9382 4.25404,38.94162 6.07884,40.00762 1.8248,1.06595 3.90506,11.09401 4.62278,22.28458 1.14529,17.8564 2.46351,20.49171 10.77131,21.5333 5.20643,0.65273 9.4663,2.47382 9.4663,4.04687 0,1.573 13.25282,5.06755 29.45072,7.76562 16.19791,2.69807 29.45074,6.18738 29.45074,7.75399 0,1.56664 14.19945,4.87052 31.55435,7.34203 17.35489,2.47148 31.55435,5.81939 31.55435,7.43981 0,7.24962 65.74524,7.80088 71.06141,0.59583 z"
       id="path3810"
       inkscape:connector-curvature="0" />
  </g>
</svg>
