<?xml version="1.0" encoding="UTF-8" standalone="no"?>
<!-- Created with Inkscape (http://www.inkscape.org/) -->

<svg
   xmlns:dc="http://purl.org/dc/elements/1.1/"
   xmlns:cc="http://creativecommons.org/ns#"
   xmlns:rdf="http://www.w3.org/1999/02/22-rdf-syntax-ns#"
   xmlns:svg="http://www.w3.org/2000/svg"
   xmlns="http://www.w3.org/2000/svg"
   xmlns:sodipodi="http://sodipodi.sourceforge.net/DTD/sodipodi-0.dtd"
   xmlns:inkscape="http://www.inkscape.org/namespaces/inkscape"
   width="210mm"
   height="297mm"
   viewBox="0 0 744.09448819 1052.3622047"
   id="svg3570"
   version="1.1"
   inkscape:version="0.91 r13725"
   sodipodi:docname="ibm.svg">
  <defs
     id="defs3572" />
  <sodipodi:namedview
     id="base"
     pagecolor="#ffffff"
     bordercolor="#666666"
     borderopacity="1.0"
     inkscape:pageopacity="0.0"
     inkscape:pageshadow="2"
     inkscape:zoom="0.7"
     inkscape:cx="372.62723"
     inkscape:cy="644.92753"
     inkscape:document-units="px"
     inkscape:current-layer="layer1"
     showgrid="false"
     inkscape:window-width="1600"
     inkscape:window-height="847"
     inkscape:window-x="-8"
     inkscape:window-y="-8"
     inkscape:window-maximized="1" />
  <metadata
     id="metadata3575">
    <rdf:RDF>
      <cc:Work
         rdf:about="">
        <dc:format>image/svg+xml</dc:format>
        <dc:type
           rdf:resource="http://purl.org/dc/dcmitype/StillImage" />
        <dc:title></dc:title>
      </cc:Work>
    </rdf:RDF>
  </metadata>
  <g
     inkscape:label="Camada 1"
     inkscape:groupmode="layer"
     id="layer1">
    <path
       style="fill:#000000"
       d="m 39.196419,653.04777 0,-9.85088 64.216231,0 64.21625,0 -0.5714,9.27654 -0.57142,9.27655 -63.64483,0.57433 -63.644831,0.57435 z m 148.659481,0.14074 0,-9.99159 94.30584,0.0157 94.30585,0.0157 -5.57473,4.38168 c -3.0661,2.40991 -11.01009,6.52386 -17.65331,9.14207 -11.47336,4.52187 -15.91945,4.80224 -88.73112,5.59552 l -76.65253,0.83513 0,-9.99159 z m 221.13095,-0.16938 0,-9.82222 44.59784,0 44.59784,0 0,9.82222 0,9.82222 -44.59784,0 -44.59784,0 z m 144.14096,2.20337 c -4.00996,-11.27306 -3.7947,-12.02566 3.43959,-12.02566 l 6.35408,0 -1.88117,8.18518 c -2.77907,12.09227 -4.65358,13.0021 -7.9125,3.84043 z m 60.2658,-2.20344 0,-9.82222 44.59784,0 44.59784,0 0,9.82222 0,9.82222 -44.59784,0 -44.59784,0 z m -574.197191,-39.2889 0,-9.82222 64.109391,0 64.1094,0 0,9.82222 0,9.82223 -64.1094,0 -64.109391,0 z m 148.368641,0 -0.66507,-9.82222 103.61044,0 c 69.98433,0 103.61047,0.73114 103.61047,2.25282 0,1.23905 -1.21165,5.65904 -2.69255,9.82223 l -2.69255,7.5694 -100.25283,0 -100.25285,0 z m 221.42179,0 0,-9.82222 44.59784,0 44.59784,0 0,9.82222 0,9.82223 -44.59784,0 -44.59784,0 z m 131.20791,1.04718 c -1.64402,-4.82626 -2.98913,-9.24626 -2.98913,-9.82222 0,-0.57596 8.74016,-1.04718 19.42259,-1.04718 l 19.42258,0 -3.09922,9.82222 -3.09921,9.82223 -13.33424,0 -13.33423,0 z m 73.19885,-1.04718 0,-9.82222 44.59784,0 44.59784,0 0,9.82222 0,9.82223 -44.59784,0 -44.59784,0 z m -537.032321,-37.10618 0,-9.82222 26.944521,0 26.94453,0 0,9.82222 0,9.82223 -26.94453,0 -26.944521,0 z m 147.730351,0 0,-9.82222 27.40909,0 27.40909,0 0,9.82222 0,9.82223 -27.40909,0 -27.40909,0 z m 110.56548,0 0,-9.82222 28.71543,0 28.71542,0 1.93522,8.18518 c 1.06437,4.50187 1.9399,8.92187 1.94558,9.82223 0.006,0.90036 -13.78708,1.63704 -30.65064,1.63704 l -30.66101,0 z m 111.49459,0 0,-9.82222 26.94453,0 26.94453,0 0,9.82222 0,9.82223 -26.94453,0 -26.94453,0 z m 83.59339,4.28029 c -1.00859,-3.11603 -2.69873,-7.56383 -3.75588,-9.88402 -1.86569,-4.09479 -0.9688,-4.21849 30.58639,-4.21849 l 32.50845,0 -3.35141,9.27654 -3.35138,9.27655 -25.40118,0.60747 -25.40116,0.60748 z m 83.64851,-4.28029 0,-9.82222 26.01541,0 26.0154,0 0,9.82222 0,9.82223 -26.0154,0 -26.01541,0 z m -537.017071,-38.74322 -0.01531,-10.3679 26.944521,0 26.94453,0 0,11.08708 0,11.08708 -26.92927,-0.71917 -26.929281,-0.71918 -0.0153,-10.36791 z m 369.775171,0.54568 0,-10.91358 26.01541,0 26.01541,0 0,10.91358 0,10.91359 -26.01541,0 -26.01541,0 z m 69.93658,1.56407 c -1.6719,-5.14224 -3.03982,-10.05335 -3.03982,-10.91358 0,-0.86024 19.74158,-1.56407 43.87017,-1.56407 l 43.87016,0 -1.14539,5.36053 c -0.62999,2.94829 -1.95426,7.8594 -2.94283,10.91358 l -1.79741,5.55306 -37.88753,0 -37.88752,0 -3.03981,-9.34952 z m 97.30532,-1.56407 0,-10.91358 26.01541,0 26.0154,0 0,10.91358 0,10.91359 -26.0154,0 -26.01541,0 z m -388.37285,-1.09136 0,-9.82222 67.53362,0 c 66.67198,0 67.63559,0.0634 75.52742,4.96537 4.39659,2.73094 9.22925,7.15094 10.73925,9.82222 l 2.74544,4.85686 -78.27286,0 -78.27287,0 z M 76.361289,500.2289 l 0,-9.82222 26.944521,0 26.94453,0 0,9.82222 0,9.82223 -26.94453,0 -26.944521,0 z m 148.659471,0 0,-9.82222 79.20287,0 c 87.80563,0 83.61705,-0.8433 66.85498,13.46022 l -7.24722,6.18423 -69.40531,0 -69.40532,0 z m 221.13095,0 0,-9.82222 51.82906,0 51.82903,0 3.22118,9.27654 3.22122,9.27655 2.93932,-9.27655 2.93931,-9.27654 51.64678,0 51.64681,0 0,9.82222 0,9.82223 -25.89767,0 -25.89766,0 -0.70153,-7.09383 -0.70152,-7.09383 -2.38538,7.09383 -2.38534,7.09383 -50.87554,0 -50.87549,0 -3.67875,-8.18519 -3.67876,-8.18519 -0.0822,8.18519 -0.0821,8.18519 -26.0154,0 -26.01541,0 0,-9.82223 z m -369.790421,-37.10618 0,-9.82222 26.944521,0 26.94453,0 0,9.82222 0,9.82223 -26.94453,0 -26.944521,0 z m 148.368641,0 0.66505,-9.82222 26.75741,0 26.75743,0 0,9.82222 0,9.82223 -27.42248,0 -27.42249,0 z m 109.92719,0 0,-9.82222 29.73189,0 c 32.3874,0 31.59092,-0.36731 27.69185,12.77058 l -2.04001,6.87387 -27.69188,0 -27.69185,0 z m 111.49459,0 0,-9.82222 45.3252,0 45.32519,0 2.98914,8.77503 c 1.64402,4.82628 2.98912,9.24628 2.98912,9.82222 0,0.57596 -21.74144,1.0472 -48.31432,1.0472 l -48.31433,0 z m 126.14948,0.54568 3.35304,-9.27654 44.88508,-0.58448 44.88511,-0.5845 0,9.86104 0,9.86103 -48.23812,0 -48.23814,0 z m -533.104771,-37.65186 0,-9.82222 64.109391,0 64.1094,0 0,9.82222 0,9.82223 -64.1094,0 -64.109391,0 z m 148.659481,0 0,-9.82222 97.52001,0 97.52,0 3.75426,8.6439 c 2.06482,4.75415 3.75425,9.17415 3.75425,9.82223 0,0.64807 -45.57342,1.17832 -101.27426,1.17832 l -101.27426,0 z m 221.13095,0 0,-9.82222 58.08474,0 58.08475,0 3.00699,9.82222 3.007,9.82223 -61.09174,0 -61.09174,0 z m 172.81662,7.90606 c 0,-1.05386 1.26554,-5.47388 2.8123,-9.82222 l 2.81231,-7.90606 57.5806,0 57.58061,0 0,9.82222 0,9.82223 -60.39291,0 c -33.42216,0 -60.39291,-0.85573 -60.39291,-1.91617 z m -542.607051,-45.01224 0,-9.82222 64.109391,0 64.1094,0 0,9.82222 0,9.82223 -64.1094,0 -64.109391,0 z m 148.659481,0 0,-9.82222 67.36132,0.0379 c 73.08967,0.0412 83.80066,1.28988 101.5178,11.83551 5.23173,3.11402 9.51223,6.13644 9.51223,6.71646 0,0.58003 -40.13805,1.05459 -89.19567,1.05459 l -89.19568,0 z m 221.13095,0 0,-9.82222 51.82905,0 51.82904,0 2.98914,8.77504 c 1.64402,4.82627 2.98912,9.24627 2.98912,9.82223 0,0.57594 -24.66818,1.04718 -54.81817,1.04718 l -54.81818,0 z m 187.47174,0.54568 3.35325,-9.27654 51.38871,-0.58021 51.38874,-0.58021 0,9.85676 0,9.85675 -54.74198,0 -54.74199,0 z"
       id="path3611"
       inkscape:connector-curvature="0"
       sodipodi:nodetypes="cccccccccccccssscccccccccccccscsccccccccccccccccccccccssscccccccccccccssscccccscccccccccccccccccccccccccccccccscscccccccccccssscccccscccccccccccccccccccccccccccccsscssccccccccccccccccssscccccccccccccccssccccccccccccccccccccccccccccccccccccccccccccccccccccssccccccccsssccccccccccccccccccccccccssscccccccccccsscccccsscccccccccccssssccccccsssccccccccccc" />
  </g>
</svg>
