<?xml version="1.0" encoding="UTF-8" standalone="no"?>
<!-- Created with Inkscape (http://www.inkscape.org/) -->

<svg
   xmlns:dc="http://purl.org/dc/elements/1.1/"
   xmlns:cc="http://creativecommons.org/ns#"
   xmlns:rdf="http://www.w3.org/1999/02/22-rdf-syntax-ns#"
   xmlns:svg="http://www.w3.org/2000/svg"
   xmlns="http://www.w3.org/2000/svg"
   xmlns:sodipodi="http://sodipodi.sourceforge.net/DTD/sodipodi-0.dtd"
   xmlns:inkscape="http://www.inkscape.org/namespaces/inkscape"
   width="210mm"
   height="297mm"
   viewBox="0 0 744.09448819 1052.3622047"
   id="svg4707"
   version="1.1"
   inkscape:version="0.91 r13725"
   sodipodi:docname="java.svg">
  <defs
     id="defs4709" />
  <sodipodi:namedview
     id="base"
     pagecolor="#ffffff"
     bordercolor="#666666"
     borderopacity="1.0"
     inkscape:pageopacity="0.0"
     inkscape:pageshadow="2"
     inkscape:zoom="0.49497475"
     inkscape:cx="604.24657"
     inkscape:cy="510.79303"
     inkscape:document-units="px"
     inkscape:current-layer="layer1"
     showgrid="false"
     inkscape:window-width="1600"
     inkscape:window-height="847"
     inkscape:window-x="-8"
     inkscape:window-y="-8"
     inkscape:window-maximized="1" />
  <metadata
     id="metadata4712">
    <rdf:RDF>
      <cc:Work
         rdf:about="">
        <dc:format>image/svg+xml</dc:format>
        <dc:type
           rdf:resource="http://purl.org/dc/dcmitype/StillImage" />
        <dc:title></dc:title>
      </cc:Work>
    </rdf:RDF>
  </metadata>
  <g
     inkscape:label="Camada 1"
     inkscape:groupmode="layer"
     id="layer1">
    <path
       style="fill:#000000"
       d="m 257.70365,837.1799 c -39.2818,-2.47239 -82.90539,-8.68619 -99.65514,-14.195 -6.34809,-2.08779 -9.53223,-5.2838 -9.53223,-9.56764 0,-6.24586 0.83005,-6.37423 28.59669,-4.42273 127.22185,8.94135 185.22288,8.94329 279.90097,0.01 81.27178,-7.6689 151.80974,-22.86042 178.81326,-38.51051 13.6662,-7.92027 26.7325,-8.36488 28.3816,-0.96571 1.78,7.98656 -14.3887,24.67496 -33.273,34.34253 -55.2295,28.27395 -219.83477,42.96439 -373.23215,33.30964 z m -88.38977,-36.73106 c -64.8738,-5.7103 -110.759454,-12.72432 -123.052444,-18.80974 -13.96747,-6.91426 -16.04845,-21.56294 -4.58074,-32.24524 15.85922,-14.77312 79.201274,-33.30011 113.849834,-33.30011 14.04174,0 24.18215,4.78994 24.18215,11.42275 0,4.12438 -4.55294,6.01697 -20.60979,8.56716 -11.33532,1.8003 -28.1034,6.18674 -37.26235,9.74759 l -16.65258,6.47433 10.3988,3.77109 c 26.35376,9.55715 76.2485,13.99426 174.11901,15.48433 105.37654,1.60435 173.07564,-1.57778 239.61386,-11.26282 50.40143,-7.33627 68.88404,-14.00633 70.4176,-25.41267 2.37218,-17.64367 27.12377,-8.84771 27.12377,9.63901 0,22.20798 -50.82498,39.43706 -157.55801,53.41041 -49.48857,6.47895 -237.08285,8.05099 -299.98911,2.51391 z m 97.91271,-66.91631 c -59.97924,-8.53544 -92.86867,-33.3702 -69.26871,-52.30476 9.90131,-7.94396 33.03769,-16.32516 39.35279,-14.25557 2.63713,0.86426 4.79479,4.78817 4.79479,8.71986 0,9.27048 6.35209,10.48993 66.54024,12.77417 36.47107,1.3841 56.86575,0.58955 87.98533,-3.42798 l 40.50955,-5.22973 23.95996,9.89905 c 21.04341,8.69409 23.83521,10.79899 22.93519,17.29186 -0.88601,6.39149 -4.48747,8.31664 -26.59001,14.21369 -14.06086,3.75151 -38.83232,8.79677 -55.04775,11.21172 -31.93262,4.75571 -105.31096,5.35703 -135.17138,1.1077 z m -39.63388,-80.97088 c -47.9203,-8.50085 -67.1738,-21.22713 -59.69371,-39.45666 3.63872,-8.86786 32.408,-24.11744 45.71852,-24.23384 9.53404,-0.0836 13.60428,7.16638 7.53177,13.41525 -7.00758,7.21106 -0.11402,10.09089 31.61035,13.20569 42.57395,4.18001 100.03541,3.45388 143.59464,-1.81468 70.83993,-8.56818 68.24279,-8.56717 82.96997,-0.032 7.32586,4.24574 14.6619,7.71955 16.30231,7.71955 1.64042,0 2.98257,3.36326 2.98257,7.47392 0,9.18873 -4.66391,10.85443 -54.38384,19.42295 -48.18497,8.30402 -179.38094,10.90799 -216.63258,4.29973 z m 291.81401,-8.36408 c 0,-5.24946 5.25405,-9.35092 23.39128,-18.25975 44.97221,-22.08996 75.1301,-55.47314 68.9896,-76.3677 -5.17906,-17.62272 -31.99601,-30.1986 -53.70051,-25.18302 -14.42048,3.33231 -21.34904,1.23242 -21.34904,-6.4705 0,-9.04584 14.89401,-15.47721 39.79606,-17.18428 43.19259,-2.96099 76.21629,12.81323 84.95709,40.58096 12.6738,40.26216 -21.528,76.87289 -94.16286,100.79488 -33.58417,11.06086 -47.92162,11.68598 -47.92162,2.08941 z M 207.4428,580.90404 c -25.5379,-1.18175 -68.2206,-6.52733 -83.19037,-10.41876 -23.23101,-6.03894 -31.445254,-19.61942 -18.1039,-29.93068 17.60635,-13.60762 77.88158,-29.88941 123.80841,-33.4437 26.00151,-2.01226 26.01358,-2.00979 26.01358,5.31311 0,6.66121 -3.22529,8.2435 -35.52923,17.42988 -19.54108,5.55698 -35.27638,11.43573 -34.96726,13.06388 1.14655,6.04011 32.9621,7.72572 120.75734,6.39783 64.65351,-0.97787 105.30657,-3.12753 143.85004,-7.60655 77.61775,-9.01972 74.37987,-9.00802 75.32693,-0.27144 2.86988,26.47479 -160.50332,46.75294 -317.96554,39.46641 z m 167.45343,-44.30918 c -1.19677,-2.66354 -0.38425,-6.99294 1.80563,-9.62089 9.38301,-11.26005 17.91835,-27.23918 17.90631,-33.52284 -0.0136,-7.5391 -7.15134,-18.4721 -25.35004,-38.83336 -27.47548,-30.7405 -33.92175,-70.10152 -16.30602,-99.56518 10.60081,-17.73067 39.79592,-41.54285 69.2662,-56.49507 30.22253,-15.33388 88.32145,-35.19957 103.25437,-35.30557 9.73052,-0.0688 11.26537,0.9283 11.26537,7.32069 0,4.07038 -1.34558,7.40068 -2.99015,7.40068 -1.64459,0 -21.53227,10.49033 -44.19488,23.31181 -46.61681,26.37375 -74.99586,49.98417 -81.14389,67.50901 -3.6789,10.48669 -3.27562,13.21676 3.67302,24.86557 4.29314,7.19702 14.4579,21.38987 22.58837,31.53962 8.1305,10.14979 15.78556,23.52364 17.01132,29.71967 5.17993,26.18422 -10.65125,52.44644 -44.44354,73.727 -21.90183,13.79263 -28.93915,15.52219 -32.34207,7.94886 z m -62.66126,-43.89425 c -34.42038,-27.65345 -64.85785,-61.15882 -73.78362,-81.22047 -8.5898,-19.30642 -8.54299,-42.5087 0.1187,-58.80582 9.31669,-17.52982 35.93384,-40.78357 86.72595,-75.76706 55.44356,-38.18728 77.39465,-57.8798 91.1791,-81.79761 10.3199,-17.90637 11.04378,-21.189 10.60718,-48.10444 -0.46646,-28.76039 -0.43153,-28.88663 7.99086,-28.88663 6.89379,0 10.08863,3.03917 17.26234,16.42125 7.81357,14.57569 8.66858,19.50199 7.60734,43.83264 -1.08273,24.82392 -2.46716,29.60718 -14.66655,50.67409 -13.96808,24.12121 -33.37016,42.39211 -106.96804,100.73155 -21.5934,17.11659 -32.334,28.19603 -38.74168,39.96367 -16.32736,29.98519 -11.50969,45.19224 32.27046,101.86284 13.72259,17.76299 24.47795,34.41453 23.9008,37.00342 -2.51411,11.27721 -15.64007,6.47755 -43.50267,-15.90743 z"
       id="path4726"
       inkscape:connector-curvature="0" />
  </g>
</svg>
