<?xml version="1.0" encoding="UTF-8" standalone="no"?>
<!-- Created with Inkscape (http://www.inkscape.org/) -->

<svg
   xmlns:dc="http://purl.org/dc/elements/1.1/"
   xmlns:cc="http://creativecommons.org/ns#"
   xmlns:rdf="http://www.w3.org/1999/02/22-rdf-syntax-ns#"
   xmlns:svg="http://www.w3.org/2000/svg"
   xmlns="http://www.w3.org/2000/svg"
   xmlns:sodipodi="http://sodipodi.sourceforge.net/DTD/sodipodi-0.dtd"
   xmlns:inkscape="http://www.inkscape.org/namespaces/inkscape"
   width="210mm"
   height="297mm"
   viewBox="0 0 744.09448819 1052.3622047"
   id="svg3708"
   version="1.1"
   inkscape:version="0.91 r13725"
   sodipodi:docname="jquery.svg">
  <defs
     id="defs3710" />
  <sodipodi:namedview
     id="base"
     pagecolor="#ffffff"
     bordercolor="#666666"
     borderopacity="1.0"
     inkscape:pageopacity="0.0"
     inkscape:pageshadow="2"
     inkscape:zoom="0.35"
     inkscape:cx="375"
     inkscape:cy="520"
     inkscape:document-units="px"
     inkscape:current-layer="layer1"
     showgrid="false"
     inkscape:window-width="1600"
     inkscape:window-height="847"
     inkscape:window-x="-8"
     inkscape:window-y="-8"
     inkscape:window-maximized="1" />
  <metadata
     id="metadata3713">
    <rdf:RDF>
      <cc:Work
         rdf:about="">
        <dc:format>image/svg+xml</dc:format>
        <dc:type
           rdf:resource="http://purl.org/dc/dcmitype/StillImage" />
        <dc:title></dc:title>
      </cc:Work>
    </rdf:RDF>
  </metadata>
  <g
     inkscape:label="Camada 1"
     inkscape:groupmode="layer"
     id="layer1">
    <path
       style="fill:#000000"
       d="m 155.17589,661.19771 c 3.50003,-26.01825 5.7282,-31.9432 12.99609,-34.55804 9.05227,-3.25681 11.86188,-13.62848 18.65138,-68.85204 10.07774,-81.96881 8.36734,-76.32859 23.14648,-76.32859 l 12.91906,0 -1.68119,20.16755 c -0.92467,11.09217 -5.59342,48.69992 -10.37501,83.57276 -7.52722,54.8971 -9.73693,65.09501 -16.46741,75.99836 -6.79851,11.0135 -9.85021,12.59315 -24.32854,12.59315 l -16.55493,0 1.69407,-12.59315 z M 50.48081,617.06488 C 18.764466,590.04541 1.6749186,528.58807 11.370977,476.41823 c 4.72086,-25.40065 6.440915,-24.32954 6.440915,4.01102 0,64.62301 33.982869,120.98015 73.224672,121.4356 10.626946,0.12308 18.824546,-2.78688 26.267026,-9.32506 12.50275,-10.98357 13.76139,-7.96034 3.81845,9.17181 -16.45558,28.35367 -47.468728,35.09414 -70.64123,15.35328 z m 212.06573,-18.36922 c -14.01329,-6.78649 -18.73247,-13.03889 -24.29303,-32.18551 -9.60338,-33.06726 -1.05462,-112.33548 15.97458,-148.12418 18.3722,-38.61118 51.41798,-50.59679 76.87593,-27.88269 24.11273,21.51391 28.60935,61.79009 14.66331,131.3386 -3.49665,17.43768 -6.35753,33.00106 -6.35753,34.58532 0,1.58423 2.86382,2.88044 6.36407,2.88044 7.19122,0 7.5721,3.13244 3.4155,28.08953 l -2.94857,17.70376 -35.87228,-0.3092 c -20.32509,-0.17511 -41.05134,-2.81728 -47.82198,-6.09626 z M 316.76,526.1075 c 8.81774,-52.57963 9.16873,-72.44385 1.56119,-88.35386 -5.02901,-10.51733 -8.48536,-13.32805 -16.3895,-13.32805 -18.44429,0 -31.26561,24.46629 -36.47447,69.60239 -5.59345,48.46843 2.20752,64.7427 31.20546,65.10041 l 14.5296,0.17914 5.56772,-33.20014 z m 170.29633,75.86717 c -19.70943,-5.81926 -26.96279,-21.40026 -26.35471,-56.61296 0.45127,-26.13295 6.62208,-65.5125 13.32422,-85.02935 2.71024,-7.89237 10.25284,-18.92251 16.89469,-24.70646 21.5514,-18.76766 58.23448,-11.98978 63.2865,11.69333 2.04352,9.57981 2.0377,51.78657 -0.0102,70.20204 l -1.59055,14.3104 -32.77499,0 c -30.36541,0 -32.77498,0.63209 -32.77498,8.59792 0,16.22438 7.15534,20.90427 34.7734,22.74337 23.05131,1.53499 26.32031,2.73294 25.24877,9.25248 -0.677,4.11905 -1.98228,13.15611 -2.90058,20.08234 l -1.66969,12.59315 -24.5439,-0.6236 c -13.49915,-0.3429 -27.40776,-1.46919 -30.908,-2.50266 z m 45.82133,-111.56512 c 0,-2.63312 -2.948,-10.09061 -6.55111,-16.57223 -5.45803,-9.81845 -8.11263,-11.33508 -15.91018,-9.08978 -8.57236,2.46843 -18.26879,16.46865 -18.26879,26.37748 0,2.23962 9.16427,4.07201 20.36504,4.07201 12.4699,0 20.36504,-1.85601 20.36504,-4.78748 z M 370.7357,589.46977 c -6.17712,-9.55815 -7.13813,-14.35462 -7.11055,-35.48979 0.0183,-13.44088 2.8509,-47.62082 6.29638,-75.95543 l 6.26455,-51.51745 12.15941,0 c 6.68768,0 12.18052,1.54554 12.20635,3.43449 0.0257,1.889 -2.46112,28.33444 -5.52651,58.7677 -3.06539,30.43328 -4.81759,58.87637 -3.89384,63.20688 1.35037,6.33016 4.29986,7.60197 15.04602,6.48773 l 13.36641,-1.38592 8.60024,-65.25544 8.60024,-65.25544 12.47631,0 c 11.63831,0 12.38632,0.69207 11.13648,10.30349 -1.79652,13.81547 -19.1222,161.10592 -19.1222,162.5631 0,0.63136 -14.2553,1.14791 -31.67843,1.14791 -29.81716,0 -32.09805,-0.64935 -38.82086,-11.05186 z m 195.70128,-51.91395 c 4.05519,-34.63115 8.75948,-73.26926 10.45395,-85.86241 l 3.08088,-22.89664 36.17404,-1.26947 36.174,-1.26943 3.91966,13.6352 c 6.89296,23.97842 5.7133,26.21134 -15.55667,29.4457 -10.71197,1.62889 -23.84145,2.96162 -29.1766,2.96162 -11.00761,0 -9.48838,-6.01804 -20.51538,81.26708 l -5.92779,46.92207 -12.99959,0.0183 -12.9996,0.0183 7.3731,-62.96577 z m 77.34805,40.98859 c 1.18164,-16.02399 0.17107,-30.41986 -3.73075,-53.14465 -7.60087,-44.26855 -7.66506,-43.94072 8.60105,-43.94072 12.75959,0 14.089,0.97877 15.54975,11.44833 0.87848,6.29658 2.41629,11.44832 3.41727,11.44832 1.00102,0 11.2416,-23.69802 22.75689,-52.66228 l 20.93687,-52.66229 14.15111,0 c 11.45287,0 13.87524,1.29332 12.70429,6.78258 -0.79567,3.7304 -15.87588,41.78286 -33.51141,84.56097 -22.04472,53.47334 -32.52087,82.83581 -33.5246,93.96267 l -1.45997,16.18426 -13.75559,0 -13.75556,0 1.62065,-21.97719 z M 75.937108,546.07319 C 52.141763,526.3172 40.405778,476.45223 50.491038,437.95542 53.843121,425.16 53.996853,425.0393 52.73168,436.19564 c -3.476255,30.65348 11.741361,76.08841 30.662236,91.54753 12.555018,10.25799 34.196684,11.28284 41.060024,1.94445 6.69427,-9.10832 10.18808,-8.76421 5.88951,0.58011 -5.46253,11.87449 -22.84131,24.25946 -34.041297,24.25946 -5.600386,0 -14.764658,-3.80432 -20.365045,-8.454 z m 12.473588,-75.60453 c -7.250587,-13.04306 -8.63702,-18.80232 -8.543395,-35.4898 l 0.111806,-19.92008 3.552678,17.93617 c 1.953962,9.8649 6.511859,23.25944 10.128629,29.76563 5.587658,10.05163 8.837596,11.82947 21.624536,11.82947 13.15962,0 14.35061,0.69815 9.48825,5.56191 -3.05817,3.05903 -10.54339,5.63488 -16.63379,5.72416 -9.261715,0.13555 -12.489591,-2.38513 -19.728628,-15.40746 z m 112.210074,-19.8852 c 2.48602,-23.83842 2.65269,-24.07636 16.86438,-24.07636 l 12.69326,0 -1.7225,17.17248 c -2.40851,24.01162 -2.42934,24.04148 -16.76116,24.04148 l -12.86122,0 1.78724,-17.1376 z"
       id="path3727"
       inkscape:connector-curvature="0" />
  </g>
</svg>
