<?xml version="1.0" encoding="UTF-8" standalone="no"?>
<!-- Created with Inkscape (http://www.inkscape.org/) -->

<svg
   xmlns:dc="http://purl.org/dc/elements/1.1/"
   xmlns:cc="http://creativecommons.org/ns#"
   xmlns:rdf="http://www.w3.org/1999/02/22-rdf-syntax-ns#"
   xmlns:svg="http://www.w3.org/2000/svg"
   xmlns="http://www.w3.org/2000/svg"
   xmlns:sodipodi="http://sodipodi.sourceforge.net/DTD/sodipodi-0.dtd"
   xmlns:inkscape="http://www.inkscape.org/namespaces/inkscape"
   width="210mm"
   height="297mm"
   viewBox="0 0 744.09448819 1052.3622047"
   id="svg5075"
   version="1.1"
   inkscape:version="0.91 r13725"
   sodipodi:docname="linux.svg">
  <defs
     id="defs5077" />
  <sodipodi:namedview
     id="base"
     pagecolor="#ffffff"
     bordercolor="#666666"
     borderopacity="1.0"
     inkscape:pageopacity="0.0"
     inkscape:pageshadow="2"
     inkscape:zoom="0.35"
     inkscape:cx="375"
     inkscape:cy="520"
     inkscape:document-units="px"
     inkscape:current-layer="layer1"
     showgrid="false"
     inkscape:window-width="1600"
     inkscape:window-height="847"
     inkscape:window-x="-8"
     inkscape:window-y="-8"
     inkscape:window-maximized="1" />
  <metadata
     id="metadata5080">
    <rdf:RDF>
      <cc:Work
         rdf:about="">
        <dc:format>image/svg+xml</dc:format>
        <dc:type
           rdf:resource="http://purl.org/dc/dcmitype/StillImage" />
        <dc:title></dc:title>
      </cc:Work>
    </rdf:RDF>
  </metadata>
  <g
     inkscape:label="Camada 1"
     inkscape:groupmode="layer"
     id="layer1">
    <g
       id="g5094"
       transform="matrix(2.6433105,0,0,2.7561355,-595.78896,-648.12773)">
      <path
         style="fill-opacity:1"
         d="m 417.38441,587.87913 c -5.25942,-1.02434 -10.28317,-4.03614 -14.86003,-8.90876 -2.81548,-2.99744 -4.50286,-3.51555 -14.375,-4.41382 -16.43832,-1.49576 -37.76614,-0.9535 -44.49638,1.1313 -3.19622,0.99008 -8.14489,3.67546 -10.99704,5.96751 -4.38154,3.5211 -6.38802,4.23762 -12.93868,4.62046 -6.61109,0.38636 -10.62004,-0.4667 -27.21927,-5.79194 -10.70646,-3.43475 -24.20646,-7.13836 -30,-8.23024 -23.0374,-4.34171 -25.55229,-7.36464 -17.45921,-20.98627 2.60791,-4.38944 2.71941,-5.55374 1.87946,-19.62667 l -0.89291,-14.96043 3.81083,-3.81082 c 3.36907,-3.36908 4.65514,-3.81306 11.09448,-3.82997 4.00601,-0.01 7.95158,-0.44385 8.76795,-0.96294 2.38746,-1.51808 4.35117,-7.86025 4.76845,-15.40061 0.31617,-5.71322 1.89566,-9.98489 8.55075,-23.125 4.48963,-8.86452 9.37472,-20.61731 10.85575,-26.11731 3.292,-12.2252 5.87643,-16.79664 17.74464,-31.38738 5.09442,-6.26305 10.56087,-14.40535 12.14768,-18.09398 2.81192,-6.53648 2.84821,-7.11961 1.43047,-22.98762 -1.89838,-21.24763 -1.94801,-42.54082 -0.11534,-49.48724 3.14208,-11.90954 11.89765,-22.32055 20.91163,-24.86548 19.97809,-5.64043 42.29185,-1.01343 53.16777,11.02492 8.46625,9.37113 11.17951,18.32056 14.07401,46.42178 3.35464,32.56846 3.93289,33.98885 25.69846,63.125 4.62225,6.1875 10.05778,14.07424 12.07894,17.52609 10.41659,17.78987 15.73973,41.50217 13.01737,57.98671 -1.36413,8.2601 -1.28813,9.17054 1.02911,12.32798 1.37611,1.87507 3.06823,6.50297 3.76028,10.28422 1.38749,7.58108 4.7932,11.49139 15.44897,17.73793 6.61896,3.88011 8.50027,8.32943 5.6767,13.42546 -1.12048,2.02224 -6.41883,5.64657 -14.30689,9.78662 -8.14314,4.27393 -17.50359,10.72614 -26.74616,18.43629 -16.6397,13.88084 -20.22555,15.38136 -31.50679,13.18421 z m 14.5799,-4.90465 c 2.75,-1.25358 10.34375,-6.88777 16.875,-12.52043 7.85209,-6.77178 15.47445,-12.00333 22.5,-15.44273 13.11133,-6.41871 15,-7.95517 15,-12.2027 0,-3.73729 -1.97305,-5.81205 -9.39648,-9.8809 -6.53528,-3.58206 -10.24358,-9.15989 -12.04146,-18.11215 -0.7992,-3.9795 -2.22787,-7.53277 -3.17485,-7.89616 -0.98781,-0.37907 -4.83266,2.3066 -9.01966,6.30032 -7.94139,7.5748 -11.3607,9.0043 -19.06591,7.97082 -6.41617,-0.86059 -9.95708,-4.21143 -12.7976,-12.11066 -1.24032,-3.4492 -2.90175,-6.33792 -3.69208,-6.41937 -2.63515,-0.2716 -5.17389,0.34442 -6.43696,1.56194 -0.6875,0.6627 -1.59361,11.44381 -2.01358,23.95803 -0.41997,12.51422 -1.43227,28.31215 -2.24956,35.10652 -1.4612,12.14755 -1.43806,12.40535 1.38859,15.47187 6.0759,6.5915 15.35532,8.21303 24.12455,4.2156 z m -106.84348,-1.43193 c 7.01207,-3.57731 9.1649,-7.39823 8.43694,-14.97424 -0.76734,-7.98585 -6.38148,-19.16378 -16.34398,-32.54138 -4.36491,-5.86117 -10.23546,-14.57992 -13.04567,-19.375 -8.70626,-14.85551 -15.53096,-19.555 -22.97335,-15.81945 -3.10477,1.55838 -4.53693,3.36797 -5.54421,7.0053 -1.54254,5.57024 -3.61817,6.7566 -12.04238,6.88298 -3.22087,0.0484 -7.26515,0.62357 -8.98731,1.27833 -3.98796,1.51623 -5.97572,8.08547 -4.44363,14.68548 2.01381,8.67514 1.35767,16.32116 -1.96293,22.87405 -4.50251,8.88527 -4.17791,11.80726 1.56701,14.10592 2.5806,1.03255 9.69513,2.81487 15.81006,3.96071 6.11492,1.14583 19.33164,4.84601 29.37049,8.22261 10.03884,3.3766 19.82172,6.15536 21.73974,6.17501 1.91801,0.0196 5.70666,-1.09649 8.41922,-2.48032 z m 42.80574,-26.82053 c 11.25218,-2.38439 21.51341,-8.03634 29.76874,-16.3968 l 6.769,-6.85522 0,-12.35823 c 0,-10.64634 0.36707,-12.84789 2.64995,-15.89319 2.16039,-2.8819 3.60399,-3.53496 7.81411,-3.53496 l 5.16418,0 -0.0201,-17.5 c -0.026,-22.70201 -1.8535,-30.44659 -10.61833,-45 -4.0968,-6.80248 -7.12018,-13.45598 -7.64762,-16.83001 -0.47973,-3.069 -3.91141,-11.90031 -7.62593,-19.62513 l -6.75368,-14.04512 -7.45033,5.48462 c -15.58082,11.46997 -30.93817,13.70863 -39.18808,5.7125 -4.41161,-4.2759 -5.69914,-4.70946 -5.69914,-1.91911 0,1.04651 -2.23789,6.3537 -4.9731,11.79375 -2.7352,5.44005 -6.06369,13.72444 -7.39662,18.40975 -1.33294,4.68531 -5.50983,14.70625 -9.28198,22.26875 -8.36854,16.77744 -11.04021,25.61756 -11.2174,37.1165 l -0.13558,8.79842 -2.86374,-3.32928 c -1.57505,-1.83112 -3.23198,-4.79652 -3.68206,-6.58978 -1.80196,-7.17959 4.84391,-29.03737 12.17976,-40.05836 2.70245,-4.06002 3.08536,-5.3125 1.62415,-5.3125 -2.31703,0 -11.89992,19.72145 -14.96136,30.79028 -4.29061,15.51293 -0.53953,22.94813 17.90716,35.49469 16.92625,11.51242 27.55001,23.20999 25.72333,28.32334 -0.97568,2.73121 -6.68104,7.78404 -8.86006,7.84674 -1.92307,0.0554 -1.93009,0.37055 -0.0979,4.39184 4.01741,8.81726 20.85137,12.6353 38.87263,8.81651 z m 90.39349,-57.55244 c -2.76145,-4.2145 -7.98996,-6.66391 -16.31286,-7.6421 -4.90194,-0.57612 -6.86418,-1.30586 -6.44548,-2.39698 4.14984,-10.81431 4.007,-33.04152 -0.26616,-41.4176 -2.96021,-5.8025 -10.56331,-12.93424 -13.68725,-12.83872 -1.66538,0.0509 -1.44639,0.53573 0.981,2.17164 9.54982,6.43605 13.75,15.66943 13.75,30.22705 0,12.66156 -2.98315,22.37316 -8.19109,26.66599 -2.3792,1.96113 -4.97522,4.78725 -5.76895,6.28024 -0.98771,1.85788 0.19951,1.23526 3.76206,-1.97298 4.7534,-4.28065 5.82869,-4.68511 12.38908,-4.66005 8.75056,0.0334 16.50355,3.30079 19.02002,8.01561 1.00988,1.89209 2.04714,2.80715 2.30503,2.03349 0.25789,-0.77366 -0.43305,-2.78318 -1.5354,-4.46559 z M 367.22809,395.2918 c 9.79463,-4.89444 23.34067,-15.03016 23.88841,-17.87433 0.23609,-1.22592 -0.2278,-3.02065 -1.03086,-3.98828 -1.61382,-1.94453 -22.34205,-10.28334 -29.69919,-11.94777 -5.29314,-1.19748 -11.54903,-0.21905 -8.93379,1.39725 1.29753,0.80192 1.29104,1.36277 -0.0343,2.95968 -2.28759,2.75637 -4.24789,2.45684 -3.46688,-0.52973 0.83933,-3.20961 0.82316,-3.20625 -6.62765,1.37829 -7.0693,4.34978 -10.44859,9.35327 -8.57646,12.69858 0.65396,1.16855 3.60721,3.5418 6.56279,5.27389 9.83758,5.76521 24.05459,3.27844 36.78965,-6.43507 2.28453,-1.74249 4.46748,-2.85436 4.851,-2.47083 1.82571,1.8257 -1.55678,4.74792 -10.92085,9.43478 -8.66293,4.33594 -11.41222,5.12036 -17.94611,5.12036 -5.22849,0 -9.28482,-0.79985 -12.58249,-2.4811 -2.67659,-1.36461 -5.0352,-2.31243 -5.24136,-2.10628 -0.73493,0.73494 9.02087,9.47462 12.70429,11.38107 5.66446,2.93179 11.886,2.37591 20.26378,-1.81051 z m -9.38878,-28.98318 c -0.825,-0.825 -1.5,-2.25104 -1.5,-3.16898 0,-1.28163 0.58022,-1.35846 2.5,-0.33102 1.375,0.73588 2.5,2.16192 2.5,3.16898 0,2.22017 -1.47167,2.35935 -3.5,0.33102 z m -22.01327,-1.69184 c -4.8418,-4.84181 -3.13755,-16.15796 2.6523,-17.61112 3.75962,-0.94361 5.86649,0.97031 8.45515,7.68085 l 1.9277,4.99711 -0.45637,-6.60329 c -0.81477,-11.78911 -9.16053,-16.56249 -15.06689,-8.61755 -3.55297,4.77929 -3.71041,16.88248 -0.26906,20.68513 1.29501,1.43097 2.8462,2.29791 3.44709,1.92654 0.60089,-0.37138 0.29043,-1.47733 -0.68992,-2.45767 z m 50.96272,1.00434 c 1.7851,-6.31941 2.0365,-13.01126 0.68974,-18.35972 -1.28123,-5.08819 -2.17194,-6.26186 -5.95039,-7.84059 -5.32415,-2.22458 -13.1047,-0.50637 -15.1684,3.3497 -1.71186,3.19864 -1.60696,11.56949 0.19919,15.89424 1.45449,3.4827 1.47776,3.45607 2.2641,-2.5911 0.54922,-4.2237 1.68188,-6.82852 3.66889,-8.4375 3.77842,-3.05957 5.49886,-2.93752 9.71522,0.68924 2.91105,2.50398 3.5072,4.00844 3.5072,8.85077 0,4.09358 -0.64679,6.30693 -2.16807,7.41932 -2.24003,1.63795 -1.72913,3.21314 1.04217,3.21314 0.87034,0 1.8605,-0.98437 2.20035,-2.1875 z m -44.16236,-13.9932 c -1.43012,-2.67221 -3.78709,-3.4933 -3.78709,-1.3193 0,0.6875 0.52459,1.25 1.16577,1.25 0.64117,0 1.57303,1.26563 2.07081,2.8125 0.49778,1.54688 1.13467,2.14056 1.4153,1.3193 0.28064,-0.82126 -0.10852,-2.64939 -0.86479,-4.0625 z m 38.26276,-1.05516 c -1.09468,-1.09468 -2.33185,-1.64881 -2.74925,-1.2314 -0.41741,0.41741 0.27231,1.81361 1.53274,3.10268 1.26041,1.28906 2.49757,1.84319 2.74925,1.23139 0.25167,-0.61179 -0.43805,-2.00799 -1.53274,-3.10267 z"
         id="path5110"
         inkscape:connector-curvature="0" />
      <path
         style="fill-opacity:1"
         d="m 417.88875,587.74655 c -6.79724,-1.3555 -11.70288,-4.26659 -14.69694,-8.7214 -2.21605,-3.29723 -3.12766,-3.58778 -14.29724,-4.55665 -16.8689,-1.46328 -37.19818,-1.11719 -43.80526,0.74571 -3.09375,0.8723 -8.92347,3.78165 -12.95494,6.46521 -9.7681,6.50216 -14.74427,6.4757 -35.22484,-0.18735 -8.56533,-2.7866 -22.90414,-6.71949 -31.86402,-8.73975 -20.32223,-4.58223 -23.7062,-6.1975 -23.7062,-11.31571 0,-2.0943 1.42413,-6.23791 3.16474,-9.20804 3.5927,-6.13047 3.79108,-8.08089 2.44332,-24.02246 l -0.97035,-11.4775 3.83499,-3.835 c 3.50851,-3.5085 4.54031,-3.83499 12.11993,-3.83499 l 8.28494,0 2.00176,-4.6875 c 1.10097,-2.57812 2.17291,-7.76385 2.3821,-11.52384 0.3042,-5.46787 2.00889,-10.09693 8.51596,-23.125 4.4746,-8.95876 9.26357,-20.43608 10.64216,-25.50515 3.57044,-13.1285 6.28329,-18.06661 16.91155,-30.78351 14.21338,-17.00658 15.1722,-19.4554 14.43813,-36.875 -0.33317,-7.90625 -0.61442,-23.65625 -0.625,-35 -0.0187,-20.09669 0.0708,-20.80828 3.49446,-27.78031 4.24285,-8.64019 11.4062,-15.0755 19.35114,-17.38439 3.28184,-0.95374 11.13812,-1.67168 17.76017,-1.62299 14.18174,0.10427 23.0726,3.05065 31.44566,10.42091 9.98927,8.79291 13.55804,19.52063 16.67225,50.11678 2.1522,21.14469 3.33303,26.78764 7.19176,34.36797 3.51596,6.90697 13.87652,22.12087 21.24463,31.19656 7.22574,8.90032 17.54545,29.42972 20.13757,40.06047 2.83687,11.63448 3.574,23.011 2.09207,32.28756 -1.23569,7.73511 -1.13773,8.754 1.11741,11.62094 1.35951,1.72835 2.85358,5.77474 3.32013,8.99198 1.27823,8.81457 3.09583,11.29829 12.42868,16.98367 14.32049,8.72373 13.91673,15.67237 -1.35043,23.24085 -12.6671,6.27953 -17.1257,9.29459 -31.12689,21.04904 -6.86078,5.75983 -13.61572,10.9022 -15.01099,11.42745 -4.92408,1.85368 -10.09646,2.26156 -15.36241,1.21144 z m 14.18336,-4.81262 c 2.80929,-1.27588 9.77215,-6.34382 15.47304,-11.2621 10.70172,-9.23261 22.96362,-17.1415 32.24306,-20.79668 8.26866,-3.25705 9.06421,-10.54136 1.62999,-14.9248 -2.34758,-1.38421 -6.63246,-4.76673 -9.52198,-7.51673 -4.3421,-4.13244 -5.52037,-6.30134 -6.79076,-12.5 -2.4468,-11.93879 -2.53179,-11.97134 -10.8146,-4.14074 -4.0296,3.8096 -8.5552,7.56536 -10.05687,8.34614 -3.34987,1.74173 -10.38188,1.83784 -14.68773,0.20076 -3.56181,-1.3542 -7.90786,-7.5464 -9.04559,-12.88806 -0.9357,-4.3931 -4.48561,-6.47651 -7.91136,-4.6431 -1.375,0.73587 -2.58571,1.45879 -2.69046,1.60647 -0.10475,0.14769 -0.58717,10.67478 -1.07201,23.39353 -0.48487,12.71875 -1.57958,28.64446 -2.4327,35.39049 -1.44433,11.42076 -1.39202,12.44461 0.75951,14.86646 6.51358,7.332 15.58961,9.1052 24.91846,4.86836 z m -107.88015,-0.58921 c 2.21229,-0.94265 5.36785,-3.1733 7.01236,-4.95701 2.66911,-2.89505 2.91668,-4.05176 2.30679,-10.77778 -0.79265,-8.74145 -6.07367,-19.32757 -16.55043,-33.17631 -3.64072,-4.8125 -8.98375,-12.6875 -11.8734,-17.5 -6.17159,-10.27832 -11.44987,-16.13756 -16.37543,-18.1778 -5.19104,-2.15019 -11.22806,1.61179 -13.05907,8.13779 -1.57626,5.61804 -3.62009,6.70534 -12.83315,6.82715 -3.65457,0.0484 -7.68765,0.64605 -8.96239,1.32826 -3.60402,1.92881 -5.3255,8.72184 -3.8415,15.1587 2.07461,8.99864 1.47403,14.98358 -2.36356,23.55345 -5.32072,11.88188 -4.28212,12.88464 17.43713,16.83531 5.84375,1.06296 18.78125,4.70857 28.75,8.10134 19.4426,6.61711 24.06715,7.32511 30.35265,4.6469 z m 42.28924,-27.03459 c 10.42101,-1.93231 23.29099,-8.90403 31.10811,-16.8514 l 6.875,-6.98953 0,-12.36284 c 0,-10.68284 0.3623,-12.84251 2.66607,-15.89279 2.22117,-2.94089 3.54492,-3.51046 7.93254,-3.4132 l 5.26646,0.11675 -0.50702,-21.36676 c -0.56068,-23.62715 -1.78944,-28.65478 -10.08276,-41.25454 -4.58818,-6.97066 -8.40029,-15.74262 -8.40029,-19.32969 0,-1.26055 -3.1189,-8.85338 -6.9309,-16.87298 l -6.93089,-14.58107 -8.10018,5.78017 c -16.94169,12.08934 -31.52796,13.71638 -39.79427,4.43889 -2.70798,-3.03925 -4.49376,-3.4443 -4.49376,-1.01929 0,0.90927 -2.53452,6.86067 -5.63227,13.22534 -3.09775,6.36467 -6.27681,14.19884 -7.06457,17.40928 -0.78777,3.21043 -4.16115,11.31459 -7.49639,18.00923 -8.75761,17.57863 -12.60643,29.78678 -12.78387,40.54941 -0.13823,8.38494 -0.28784,8.84497 -2.28834,7.03635 -6.8664,-6.20779 -5.22879,-21.7178 4.32978,-41.00784 2.04401,-4.125 4.53362,-8.42854 5.53245,-9.5634 1.11165,-1.26306 1.33671,-2.35966 0.58022,-2.8272 -2.91124,-1.79925 -14.72819,22.84059 -16.82589,35.08411 -2.4176,14.11066 2.3461,21.322 23.15562,35.05323 10.67306,7.04265 20.99326,18.15177 20.99326,22.5981 0,3.45622 -5.54858,10.28016 -8.35886,10.28016 -2.08818,0 -2.06052,0.56316 0.2468,5.02503 4.22614,8.17246 19.96938,11.88512 37.00395,8.72648 z m 90.06566,-60.1802 c -4.15681,-3.71411 -10.91834,-6.05336 -17.52879,-6.06434 -3.48547,-0.006 -4.05231,-0.37748 -3.34655,-2.19447 4.11775,-10.60101 3.95933,-32.81888 -0.29275,-41.05585 -3.03751,-5.88419 -10.62116,-13.02529 -13.77046,-12.9669 -1.87139,0.0348 -1.82611,0.27435 0.356,1.88467 11.29146,8.33272 15.096,17.41837 14.04748,33.54688 -0.74708,11.49159 -3.48634,20.64052 -6.7221,22.45135 -3.16134,1.76916 -7.95038,7.18314 -7.95038,8.98782 0,0.84998 2.18383,-0.63841 4.85294,-3.30753 4.54482,-4.54483 5.31862,-4.8512 12.1875,-4.82549 8.95501,0.0335 16.63913,3.27085 19.20956,8.093 1.57595,2.95652 1.94731,3.14675 2.32842,1.1927 0.27477,-1.40875 -1.0535,-3.67126 -3.37087,-5.74184 z m -90.5707,-99.12755 c 7.56295,-3.52119 19.9638,-11.74864 23.28521,-15.44877 5.09895,-5.68033 0.25735,-9.58831 -20.44517,-16.50271 -14.10228,-4.70999 -16.73527,-4.47444 -27.74327,2.48192 -11.5298,7.28611 -11.9527,12.15485 -1.58359,18.23155 9.80873,5.7483 23.75264,3.2671 36.56683,-6.50675 2.30854,-1.76081 4.51114,-2.88767 4.89466,-2.50414 1.74832,1.74831 -1.3302,4.45049 -10.1986,8.95186 -12.8713,6.53314 -22.83557,7.39725 -31.22568,2.70793 -3.12798,-1.74826 -5.68724,-2.77287 -5.68724,-2.27691 0,1.64125 10.56798,11.27026 13.75,12.5283 5.26677,2.08226 11.56767,1.51263 18.38685,-1.66228 z m -18.38685,-30.10799 c 0,-2.0151 3.32697,-3.92547 4.60704,-2.6454 0.89028,0.89029 -1.93445,4.55963 -3.5101,4.55963 -0.60331,0 -1.09694,-0.8614 -1.09694,-1.91423 z m 9.94026,-0.6974 c -1.19702,-2.23666 -1.0708,-2.54867 0.87916,-2.17315 1.25228,0.24117 2.4652,1.4164 2.69538,2.61164 0.58266,3.0255 -1.88251,2.7231 -3.57454,-0.43849 z m -21.70353,-0.58021 c -4.39624,-4.39624 -3.24386,-14.00683 2.07577,-17.31147 3.25687,-2.02321 6.23769,0.40314 8.4375,6.868 l 1.875,5.51031 0.39754,-4.8483 c 0.75813,-9.24585 -4.61346,-15.77884 -11.54361,-14.03948 -4.38603,1.10082 -7.34871,8.28287 -6.63646,16.08794 0.53281,5.8387 3.92704,11.52385 6.08418,10.19067 0.60089,-0.37138 0.29043,-1.47733 -0.68992,-2.45767 z m 52.20756,-4.94664 c 1.58712,-11.11809 -0.51044,-17.74444 -6.39534,-20.20331 -5.62379,-2.34977 -13.21561,-0.55096 -15.47249,3.66606 -1.78685,3.33874 -1.61672,10.69407 0.35841,15.49612 1.45395,3.53494 1.46753,3.52002 2.4535,-2.69539 0.98082,-6.18296 4.34858,-10.625 8.05541,-10.625 0.91674,0 3.18882,1.30917 5.04904,2.90928 2.74434,2.36058 3.40582,4.02976 3.50722,8.8502 0.0904,4.29861 -0.47438,6.37932 -2.04311,7.52681 -2.40576,1.75976 -1.52472,3.50324 1.48212,2.93295 1.33911,-0.25398 2.2656,-2.67643 3.00524,-7.85772 z m -45.4072,-8.04222 c -1.43012,-2.67221 -3.78709,-3.4933 -3.78709,-1.3193 0,0.6875 0.49689,1.25 1.10421,1.25 0.60732,0 1.48892,1.26563 1.95913,2.8125 0.48152,1.58411 1.12655,2.16033 1.47685,1.3193 0.34207,-0.82126 0.003,-2.64939 -0.7531,-4.0625 z m 40.33581,2.47165 c -0.78628,-3.00668 -3.8552,-5.72532 -5.0802,-4.50032 -0.49328,0.49328 0.0828,1.44514 1.28021,2.11524 1.1974,0.67009 2.17709,2.03415 2.17709,3.03124 0,0.99709 0.50984,1.81289 1.13297,1.81289 0.62314,0 0.84361,-1.10657 0.48993,-2.45905 z"
         id="path5108"
         inkscape:connector-curvature="0" />
      <path
         style="fill-opacity:1"
         d="m 411.78449,585.88221 c -2.1614,-0.94737 -5.53641,-3.64775 -7.5,-6.00085 l -3.57018,-4.27835 -17.22246,-1.54078 c -25.4381,-2.27577 -43.4196,0.0554 -50.13099,6.49924 -3.81111,3.65917 -9.9336,5.99715 -15.70479,5.99715 -2.75744,0 -13.04114,-2.57294 -22.85265,-5.71764 -9.81151,-3.14468 -24.15394,-7.05528 -31.87206,-8.6902 -23.34509,-4.94515 -24.85665,-6.72857 -17.85275,-21.06377 3.62999,-7.42966 3.69911,-7.90709 2.36465,-16.33234 -1.76242,-11.12716 -0.88472,-18.97084 2.50178,-22.35734 2.052,-2.052 4.58702,-2.74176 11.51526,-3.13325 l 8.884,-0.50198 2.34505,-5.16424 c 1.31541,-2.89678 2.35711,-8.03309 2.37251,-11.69815 0.0232,-5.5282 1.1765,-8.72954 7.49265,-20.79853 4.10586,-7.84552 8.90686,-19.24902 10.66889,-25.34108 4.20888,-14.55184 6.40541,-18.54446 18.41869,-33.47947 15.30125,-19.02263 15.39981,-19.353 13.44875,-45.0769 -1.88329,-24.83024 -1.24799,-44.17443 1.67716,-51.06786 2.96772,-6.99375 9.19498,-14.336 14.4013,-16.97986 11.28556,-5.731 29.80627,-6.35022 42.75652,-1.42952 18.43699,7.00551 25.77353,20.77525 28.68182,53.83213 2.73872,31.12952 5.70201,38.66341 25.74536,65.45544 12.89235,17.23326 20.59499,31.96812 23.6919,45.32174 3.04736,13.13999 2.5051,39.22282 -0.81546,39.22282 -0.62707,0 -1.14013,-0.7457 -1.14013,-1.65711 0,-4.41643 -11.54364,-10.84289 -19.47672,-10.84289 -4.46916,0 -4.54187,-0.0784 -3.77105,-4.0625 1.70518,-8.81367 2.24357,-27.95725 0.92313,-32.82416 -1.80714,-6.66082 -7.19294,-14.78935 -11.47517,-17.31893 -6.26634,-3.70161 -6.28965,-2.13904 -0.0581,3.89309 4.81001,4.65606 6.5975,7.54273 8.28233,13.3753 3.72143,12.88302 0.1617,36.95989 -5.7415,38.8335 -2.49384,0.79151 -7.43291,6.9153 -7.43291,9.21581 0,0.74314 1.86301,-0.68172 4.14003,-3.16639 3.46005,-3.77556 5.18269,-4.61773 10.4882,-5.12752 8.63979,-0.83018 17.72318,2.27579 20.99677,7.17961 1.375,2.05975 3.47141,3.74661 4.65868,3.74859 3.17462,0.005 5.94196,5.05351 6.81606,12.43392 0.89627,7.56753 4.72224,12.16714 14.05409,16.89595 6.3147,3.19989 9.10244,7.44305 7.9565,12.11042 -1.1333,4.61588 -2.30537,5.54455 -14.50696,11.49425 -8.02746,3.91432 -15.48708,8.98688 -24.81204,16.87226 -7.33351,6.20136 -15.03995,12.15756 -17.12542,13.236 -4.6541,2.40672 -16.7655,2.42547 -22.22074,0.0344 z m 21.44833,-3.22693 c 2.73982,-1.45933 9.20024,-6.33736 14.35649,-10.84005 10.89951,-9.51799 19.3713,-15.15447 29.53031,-19.64727 8.05908,-3.5641 9.1727,-4.72133 9.20055,-9.56073 0.02,-3.47806 -3.71362,-7.29306 -11.04725,-11.288 -4.89652,-2.66735 -8.50079,-8.54232 -10.18643,-16.60397 -2.24064,-10.71589 -2.58514,-10.78031 -11.75851,-2.19908 -9.17606,8.58375 -14.05162,10.31811 -22.16902,7.88609 -5.20497,-1.55945 -9.05752,-6.27813 -10.50449,-12.86607 -0.97,-4.4164 -4.62706,-6.56759 -8.0504,-4.73548 -3.36258,1.7996 -3.65656,3.72338 -4.20355,27.5079 -0.26088,11.34375 -1.15086,25.63754 -1.97771,31.76396 -0.82686,6.12644 -1.18072,12.42459 -0.78635,13.99589 0.39648,1.57968 3.08893,4.2785 6.02245,6.0367 6.7172,4.02596 14.6676,4.22869 21.57391,0.55011 z m -108.99883,6e-4 c 1.50168,-0.7715 4.27719,-2.84548 6.16782,-4.60886 7.46864,-6.96595 2.99464,-22.64361 -12.37481,-43.3634 -4.07977,-5.5 -9.59708,-13.60264 -12.2607,-18.00587 -11.102,-18.35275 -19.47635,-23.46986 -27.24476,-16.64778 -1.20603,1.05911 -2.75722,4.02186 -3.4471,6.58388 -1.43506,5.32941 -3.27953,6.1519 -13.85389,6.17771 -11.40549,0.0279 -12.97266,3.39356 -10.58535,22.7335 0.96545,7.82121 0.78564,8.86289 -2.88311,16.70283 -2.15203,4.59878 -3.91278,8.84779 -3.91278,9.44226 0,2.50147 6.7862,5.12318 20.75453,8.01811 8.17876,1.69505 22.18297,5.57871 31.12047,8.63037 16.71515,5.70732 23.76586,6.77958 28.51968,4.33725 z m 51.89073,-29.93057 c 8.66398,-2.97071 17.18718,-8.86513 23.96459,-16.57324 4.31474,-4.90726 4.375,-5.13242 4.375,-16.34712 0,-9.27649 0.4785,-12.17729 2.5974,-15.74633 2.34723,-3.95359 3.1113,-4.36375 7.93255,-4.25825 l 5.33513,0.11675 -0.54773,-21.36676 c -0.59756,-23.31029 -1.90387,-29.19896 -8.68884,-39.16793 -4.85701,-7.13627 -9.72631,-17.7959 -9.7413,-21.32515 -0.007,-1.58196 -2.82471,-8.60926 -6.26221,-15.61621 -3.4375,-7.00694 -6.25,-13.44697 -6.25,-14.31117 0,-2.35741 -0.62125,-2.07795 -9.96011,4.48048 -16.32704,11.46603 -29.38408,12.92212 -38.88722,4.3366 -4.16163,-3.75978 -4.90267,-4.06292 -4.90267,-2.00559 0,1.33303 -2.56816,7.70026 -5.70703,14.14941 -3.13887,6.44915 -6.45575,14.56457 -7.37084,18.03427 -0.9151,3.4697 -4.81928,12.7773 -8.67596,20.68355 -7.77444,15.93771 -12.63064,32.72381 -11.62849,40.19539 0.35443,2.64253 0.14842,4.80461 -0.45781,4.80461 -1.51434,0 -4.44554,-4.9053 -5.40608,-9.04696 -1.71289,-7.38568 5.65302,-30.64048 12.95223,-40.89128 1.51633,-2.12948 2.08147,-3.95006 1.36384,-4.39358 -2.88689,-1.7842 -15.60617,25.02598 -17.12302,36.09256 -1.78413,13.01664 2.33144,19.23365 22.00368,33.23896 15.51899,11.04848 22.54948,18.70029 22.54948,24.54231 0,2.51935 -5.43129,8.31009 -8.86904,9.456 -1.04388,0.34796 -0.87247,1.626 0.59998,4.4734 2.09884,4.05872 7.15048,7.40128 13.89406,9.19339 6.3418,1.68534 24.37117,0.17984 32.91041,-2.74811 z M 365.97616,396.00238 c 7.56295,-3.52119 19.9638,-11.74864 23.28521,-15.44877 5.11218,-5.69506 -0.24964,-9.99413 -20.76984,-16.65315 -10.90012,-3.53721 -12.74703,-3.80935 -17.06755,-2.51489 -6.54158,1.95991 -16.4696,8.78675 -18.76014,12.90013 -1.71051,3.07175 -1.66101,3.57941 0.59193,6.07051 4.10971,4.54416 11.94841,7.88272 18.33726,7.80999 5.89712,-0.0671 16.87274,-4.50739 25.68378,-10.39054 2.99335,-1.99867 4.0625,-2.25629 4.0625,-0.9789 0,2.0777 -10.9552,8.90615 -18.59466,11.59017 -7.99543,2.80909 -16.20519,2.44135 -23.06849,-1.0333 -3.21027,-1.62524 -5.83685,-2.58611 -5.83685,-2.13526 0,1.1742 10.15295,10.75983 13.125,12.39162 4.14678,2.27676 12.11624,1.60288 19.01185,-1.60761 z m -18.38685,-30.10799 c 0,-2.0151 3.32697,-3.92547 4.60704,-2.6454 0.89028,0.89029 -1.93445,4.55963 -3.5101,4.55963 -0.60331,0 -1.09694,-0.8614 -1.09694,-1.91423 z m 9.94026,-0.6974 c -1.19702,-2.23666 -1.0708,-2.54867 0.87916,-2.17315 1.25228,0.24117 2.4652,1.4164 2.69538,2.61164 0.58266,3.0255 -1.88251,2.7231 -3.57454,-0.43849 z m 30.70455,-5.26762 c 1.13687,-10.61592 -0.85219,-17.76738 -5.62867,-20.2374 -4.58159,-2.36924 -7.9266,-2.38169 -12.44269,-0.0463 -4.92909,2.54893 -6.53862,7.77983 -4.67719,15.20049 1.61873,6.45308 4.51255,9.05841 3.67502,3.30864 -0.71602,-4.91552 1.59861,-10.13542 5.22742,-11.78882 4.47791,-2.04028 8.96566,1.24701 10.7503,7.87463 1.23586,4.58966 1.09723,5.59431 -1.20093,8.70273 -3.15351,4.26535 -3.17613,4.55074 -0.41057,5.17874 3.44669,0.78267 3.81473,0.14213 4.70731,-8.19268 z m -51.35734,6.77088 c 0.37675,-0.6096 -0.15255,-1.80347 -1.17623,-2.65305 -2.59356,-2.15246 -2.4556,-12.25997 0.2075,-15.20265 4.45562,-4.92342 10.43126,-0.66079 10.43126,7.44097 0,2.46213 0.51207,3.85417 1.25,3.3981 1.90111,-1.17495 1.49204,-10.2811 -0.64774,-14.41897 -1.9024,-3.67885 -5.91426,-5.54901 -10.19089,-4.75055 -5.73463,1.07066 -8.69657,16.58848 -4.51686,23.66416 2.21759,3.75408 3.46329,4.43073 4.64296,2.52199 z m 5.74962,-15.07233 c -1.43012,-2.67221 -3.78709,-3.4933 -3.78709,-1.3193 0,0.6875 0.49689,1.25 1.10421,1.25 0.60732,0 1.48892,1.26563 1.95913,2.8125 0.48152,1.58411 1.12655,2.16033 1.47685,1.3193 0.34207,-0.82126 0.003,-2.64939 -0.7531,-4.0625 z m 40.07741,1.4932 c -0.87943,-3.28841 -5.1145,-5.69321 -5.1145,-2.90415 0,0.73791 0.5246,1.34165 1.16576,1.34165 0.64118,0 1.52283,1.125 1.95924,2.5 1.21525,3.82892 3.03487,2.97147 1.9895,-0.9375 z"
         id="path5106"
         inkscape:connector-curvature="0" />
      <path
         style="fill-opacity:1"
         d="m 411.8649,585.43768 c -2.80468,-1.27381 -6.46093,-4.02581 -8.125,-6.11556 -2.96229,-3.72004 -3.37638,-3.83146 -19.79236,-5.32604 -27.04452,-2.46222 -43.40329,-0.13842 -51.9689,7.38228 -8.04334,7.06215 -14.01024,6.82762 -40.36572,-1.58651 -9.43174,-3.01113 -23.05486,-6.66362 -30.27361,-8.11662 -13.24128,-2.66525 -19.0145,-5.42102 -19.80668,-9.4545 -0.23742,-1.20886 1.3093,-5.97502 3.43716,-10.59146 3.83245,-8.31461 3.85547,-8.48799 2.44835,-18.43805 -2.62571,-18.56694 -0.0312,-22.9413 14.26811,-24.0558 8.47744,-0.66075 9.10865,-0.92035 10.78982,-4.43764 0.9821,-2.05471 2.15099,-7.39846 2.59753,-11.875 0.64908,-6.50696 2.45849,-11.52321 9.02283,-25.01416 4.51602,-9.28125 9.43954,-21.38218 10.94116,-26.89094 2.88302,-10.57653 5.99415,-15.70395 19.59631,-32.29641 11.90565,-14.52299 12.43013,-16.6518 10.46992,-42.49632 -2.71845,-35.84152 -1.03861,-48.79179 7.77328,-59.92612 5.00895,-6.32909 11.50011,-9.42383 23.2523,-11.08581 18.70201,-2.6448 35.98187,3.36237 45.40945,15.78614 5.28803,6.96864 8.08372,15.86804 9.88536,31.46761 4.1079,35.56865 4.79789,39.27675 8.76285,47.09315 2.15487,4.24803 7.65505,12.92803 12.2226,19.28887 17.33557,24.14178 20.97126,29.97968 24.93152,40.03315 2.24204,5.69158 4.63727,13.28533 5.32274,16.875 2.3171,12.13426 1.3481,35.90168 -1.46372,35.90168 -0.61099,0 -1.11089,-0.7457 -1.11089,-1.65711 0,-4.42146 -11.54518,-10.84289 -19.49461,-10.84289 l -4.57491,0 1.09726,-5.3125 c 0.6035,-2.92187 1.09726,-11.5 1.09726,-19.0625 0,-11.0874 -0.4688,-14.69484 -2.42092,-18.62925 -3.11097,-6.27002 -10.08669,-13.24575 -13.24574,-13.24575 -3.16334,0 -3.18727,2.10017 -0.0354,3.10056 4.22525,1.34105 9.9381,9.16193 12.08371,16.54257 1.51725,5.21913 1.87594,9.65981 1.3374,16.55692 -0.99473,12.73929 -2.74761,17.23215 -9.15538,23.46643 -2.9913,2.9103 -5.43874,6.2384 -5.43874,7.39576 0,1.43981 1.28341,0.61959 4.06439,-2.59751 3.3523,-3.87804 5.10425,-4.819 9.9997,-5.37079 8.33093,-0.93903 16.46817,1.63356 20.81052,6.57924 1.97438,2.24867 4.63413,4.28963 5.91057,4.53544 2.94505,0.56717 5.33906,5.54279 6.64655,13.81392 1.09883,6.95116 3.77353,10.04636 12.75036,14.75491 6.5823,3.45256 8.56791,5.87388 8.56791,10.44792 0,5.78035 -1.73408,7.43242 -14.52126,13.83439 -7.332,3.67082 -15.98266,9.54073 -24.25658,16.45933 -7.07317,5.91454 -14.6011,11.81522 -16.72873,13.11263 -5.07484,3.09459 -15.90114,3.09333 -22.71784,-0.002 z m 21.23398,-2.7272 c 2.66615,-1.42896 10.22045,-7.14151 16.78734,-12.69455 8.29464,-7.01405 15.42685,-11.74826 23.36178,-15.50707 13.39091,-6.34334 16.18306,-9.8872 12.09939,-15.35685 -1.31651,-1.7633 -4.86627,-4.65099 -7.88835,-6.41708 -7.05562,-4.12322 -10.68103,-9.58592 -12.50088,-18.836 -0.80085,-4.07066 -1.96286,-7.7144 -2.58224,-8.0972 -0.61938,-0.3828 -4.75391,2.6976 -9.18785,6.84533 -9.26238,8.66451 -14.27532,10.34983 -22.41466,7.53571 -4.99277,-1.72623 -6.88871,-4.23505 -11.3091,-14.96494 -1.78214,-4.32591 -6.20725,-4.59037 -8.86773,-0.52997 -1.78407,2.72284 -2.32671,8.11647 -3.18311,31.63909 -0.56781,15.59617 -1.56852,30.57008 -2.22379,33.27536 -0.99057,4.08964 -0.79011,5.48221 1.18935,8.2621 5.26764,7.39771 17.73891,9.65957 26.71985,4.84607 z m -108.86489,-0.0546 c 1.50167,-0.7715 4.27719,-2.84549 6.16782,-4.60886 2.82586,-2.63567 3.4375,-4.27209 3.4375,-9.19697 0,-8.26447 -2.73889,-14.65429 -12.36431,-28.84591 -13.52473,-19.94071 -15.56589,-23.01801 -19.93774,-30.05859 -4.9978,-8.04861 -13.0808,-13.85556 -17.69795,-12.71446 -4.37849,1.08212 -7.36848,4.09523 -8.5349,8.60089 -1.28027,4.9454 -5.30756,6.93511 -14.08386,6.95824 -11.44746,0.0301 -13.15133,3.79188 -10.56773,23.33093 0.9431,7.13235 0.73377,8.26787 -2.8985,15.72378 -2.15326,4.41995 -3.91501,8.68198 -3.91501,9.47117 0,2.86508 6.18353,5.35223 20.84525,8.3844 8.22866,1.70176 22.23287,5.62138 31.12048,8.71024 16.41765,5.70591 23.52107,6.76664 28.42895,4.24516 z m 45.74703,-28.02387 c 10.85723,-2.55921 19.13663,-7.30403 27.71966,-15.88582 l 7.18848,-7.18742 -0.21243,-11.56258 c -0.17847,-9.71474 0.20268,-12.26175 2.38498,-15.93757 2.31794,-3.90428 3.14835,-4.36415 7.71792,-4.2741 l 5.1205,0.10087 0.83257,-10.1009 c 1.58214,-19.19525 -2.2558,-39.69967 -9.37769,-50.1009 -5.15681,-7.5313 -8.45831,-14.5559 -9.42715,-20.05814 -0.47859,-2.71802 -3.6193,-10.63384 -6.97936,-17.59072 -3.36005,-6.95682 -6.10919,-13.28494 -6.10919,-14.06245 0,-2.30197 -1.8629,-1.64771 -7.01563,2.46394 -6.62538,5.28679 -17.52462,10.63661 -23.80702,11.68554 -7.01451,1.17117 -13.73508,-0.89404 -18.76075,-5.76511 -3.6536,-3.54121 -4.1666,-3.73064 -4.1666,-1.5386 0,1.3749 -2.5072,7.55296 -5.57155,13.72901 -3.06435,6.17604 -6.38088,14.33643 -7.37007,18.13418 -0.98919,3.79775 -4.63936,12.56603 -8.11149,19.48504 -8.35586,16.65101 -11.80574,27.66091 -11.95291,38.14635 -0.0654,4.66236 -0.47616,8.48129 -0.91272,8.48651 -0.43655,0.005 -1.76964,-1.47991 -2.96241,-3.30031 -4.86998,-7.43253 -0.22222,-29.47094 9.42255,-44.67916 2.19396,-3.45952 3.10159,-5.98864 2.32204,-6.47043 -1.94855,-1.20426 -4.25976,2.58328 -10.45877,17.13954 -11.70463,27.48429 -9.34027,35.30909 15.89076,52.59014 16.47484,11.28385 24.67724,21.70257 21.34354,27.1107 -0.67604,1.09671 -2.9872,3.11902 -5.13592,4.49402 -2.14871,1.375 -3.92842,2.83869 -3.9549,3.25265 -0.0265,0.41395 1.23049,2.66395 2.79328,5 5.30763,7.93383 22.17976,10.79023 39.55028,6.69575 z m -6.22179,-157.42012 c 2.87884,-1.01571 9.99349,-5.04643 15.81034,-8.95714 11.59006,-7.7921 13.86426,-11.41293 9.74629,-15.51741 -2.49914,-2.49094 -15.26285,-7.69057 -26.85869,-10.94159 -6.49284,-1.82033 -7.42625,-1.80446 -12.71767,0.21636 -7.55437,2.88504 -15.63233,8.841 -17.4745,12.88414 -1.3677,3.00177 -1.11592,3.57412 3.22197,7.32392 5.3632,4.63613 13.68948,7.17897 19.80584,6.0487 4.80443,-0.88783 17.58552,-7.02288 22.21171,-10.66183 2.02153,-1.59014 3.31943,-1.96947 3.62297,-1.05887 0.61462,1.84388 -2.32234,3.98314 -12.28818,8.95056 -10.93296,5.44948 -19.89308,6.14657 -28.25924,2.19856 -3.36367,-1.58733 -6.67826,-3.1257 -7.36576,-3.4186 -2.40766,-1.02578 8.7872,10.1013 12.5,12.42432 4.51459,2.82467 10.96564,3.0066 18.04492,0.50888 z m -15.8978,-32.09637 c 0.30803,-0.92503 1.56259,-1.87623 2.78792,-2.11376 1.42502,-0.27624 2.02606,0.17422 1.66784,1.25 -0.30803,0.92503 -1.56259,1.87623 -2.78792,2.11376 -1.42502,0.27624 -2.02606,-0.17422 -1.66784,-1.25 z m 9.22244,-0.57106 c -0.56571,-1.47421 -0.23905,-1.80931 1.2185,-1.25 1.09527,0.4203 2.22665,0.76418 2.51417,0.76418 0.28752,0 0.52277,0.5625 0.52277,1.25 0,2.03623 -3.41624,1.42276 -4.25544,-0.76418 z m 30.96054,-1.28528 c 1.2145,-8.8608 0.96174,-13.88153 -0.92634,-18.40035 -3.54408,-8.48218 -16.41331,-9.24427 -21.06613,-1.2475 -2.7191,4.67328 -1.9392,12.75094 1.64938,17.0831 l 2.26905,2.73921 -0.66657,-4.375 c -1.25555,-8.24085 3.5344,-14.43151 9.8819,-12.77161 6.10927,1.59762 8.438,13.94637 3.39941,18.02636 l -2.7542,2.23022 2.9417,1.17828 c 4.41675,1.76911 4.41774,1.76827 5.2718,-4.46271 z m -50.4551,3.45252 c 0,-0.60332 -0.84375,-1.7972 -1.875,-2.65306 -4.35035,-3.61047 -1.22025,-17.5 3.94374,-17.5 3.23484,0 6.68126,4.87399 6.68126,9.44877 0,2.64754 0.5061,4.13598 1.25,3.67623 1.90111,-1.17495 1.49204,-10.2811 -0.64774,-14.41897 -1.9024,-3.67885 -5.91426,-5.54901 -10.19089,-4.75055 -5.59875,1.04529 -8.63221,16.10748 -4.75427,23.60659 1.75112,3.38629 5.5929,5.16604 5.5929,2.59099 z m 6.25,-12.5 c 0,-3.33934 -3.41971,-5.98334 -5.30298,-4.10008 -1.09603,1.09603 -0.93158,1.44702 0.67798,1.44702 1.29167,0 2.125,0.98039 2.125,2.5 0,1.375 0.5625,2.5 1.25,2.5 0.6875,0 1.25,-1.05613 1.25,-2.34694 z m 39.03631,-0.88074 c -0.59166,-3.0951 -3.38547,-5.33983 -4.83806,-3.88723 -0.74269,0.74268 3.41227,7.0099 4.69091,7.07563 0.42029,0.0216 0.4865,-1.41318 0.14715,-3.1884 z"
         id="path5104"
         inkscape:connector-curvature="0" />
      <path
         style="fill-opacity:1"
         d="m 411.8649,585.43768 c -2.80468,-1.27381 -6.46093,-4.03536 -8.125,-6.13677 -2.93893,-3.71131 -3.47314,-3.86358 -18.65059,-5.31598 -17.9985,-1.72236 -35.71607,-0.96845 -43.57848,1.85434 -2.99942,1.07686 -7.34676,3.62026 -9.66077,5.65199 -7.7934,6.84269 -14.17653,6.64312 -38.38962,-1.20025 -8.47976,-2.74686 -20.72288,-6.13625 -27.20693,-7.53196 -20.1795,-4.34372 -24.9142,-6.51879 -24.9142,-11.44537 0,-1.29661 1.70166,-5.6271 3.78146,-9.62331 l 3.78146,-7.26584 -1.47069,-11.96723 c -2.2488,-18.29885 0.11079,-22.05313 14.50917,-23.08512 4.13798,-0.29658 8.15284,-1.19158 8.92192,-1.9889 2.22956,-2.31144 4.22668,-9.50073 4.22668,-15.21537 0,-3.93799 1.93808,-9.176 7.67794,-20.75098 4.22287,-8.51582 9.21555,-20.65851 11.09485,-26.98375 4.0669,-13.68812 7.05343,-18.97962 18.20171,-32.24956 4.62063,-5.5 9.79589,-13.02254 11.50058,-16.71675 2.85449,-6.18595 3.03739,-7.66772 2.31444,-18.75 -2.38595,-36.57472 -2.42989,-48.17556 -0.21141,-55.81097 2.87718,-9.90248 9.27454,-18.44782 16.38911,-21.89192 14.16983,-6.8595 36.47595,-5.47653 49.87065,3.09195 11.90567,7.61596 16.87592,18.17691 19.47382,41.37863 2.98115,26.62441 5.11311,38.89653 7.70012,44.32406 3.34851,7.02511 12.74564,21.13151 23.31563,35 14.50717,19.03433 21.53462,38.81635 21.27467,59.88745 -0.0814,6.59315 -0.5175,13.67505 -0.96925,15.73755 l -0.82133,3.75 -2.32519,-3.89308 c -3.15441,-5.28145 -8.24055,-8.03397 -16.40164,-8.87627 -7.3907,-0.76279 -7.39734,-0.77376 -5.4869,-9.06439 2.00909,-8.71875 1.67944,-24.0588 -0.66896,-31.12917 -2.34854,-7.07079 -10.56024,-16.41209 -14.42745,-16.41209 -1.37576,0 -2.50139,0.5625 -2.50139,1.25 0,0.6875 0.51934,1.25 1.15409,1.25 2.58042,0 9.37662,7.13196 11.61222,12.18591 3.45839,7.81825 4.15804,20.4109 1.71189,30.81135 -1.74195,7.40637 -2.81765,9.3577 -7.62806,13.83736 -3.08008,2.8683 -5.58231,6.30079 -5.56054,7.62774 0.0337,2.05535 0.42317,1.89839 2.62975,-1.05986 5.08754,-6.82063 11.99011,-8.53326 23.10861,-5.73359 3.88944,0.97938 6.67463,2.72184 8.99103,5.62496 1.84581,2.31333 4.27151,4.20607 5.39046,4.20609 3.18934,6e-5 4.77476,2.81151 6.65611,11.80341 2.09189,9.99822 2.7096,10.81783 12.44819,16.51695 8.79317,5.14587 9.44129,5.91795 9.46711,11.27789 0.025,5.18092 -1.67176,6.7206 -14.98081,13.59447 -6.59932,3.40841 -16.31302,10.08432 -23.88112,16.41273 -7.01639,5.86707 -14.49787,11.7289 -16.6255,13.02631 -5.07484,3.09459 -15.90114,3.09333 -22.71784,-0.002 z m 19.82706,-1.81479 c 2.21229,-0.92715 9.9286,-6.62308 17.14735,-12.65763 9.19532,-7.68689 16.6092,-12.64326 24.76211,-16.55415 8.7163,-4.18114 11.94765,-6.39899 12.87435,-8.83641 1.58898,-4.17931 -1.34406,-8.35592 -9.01674,-12.83977 -7.03671,-4.11219 -10.33259,-9.07692 -12.35623,-18.61276 -0.89135,-4.2002 -2.12292,-7.94716 -2.73683,-8.32658 -0.61391,-0.37942 -4.74396,2.70374 -9.1779,6.85147 -9.24432,8.64761 -14.32305,10.3672 -22.25641,7.53571 -4.84519,-1.72929 -5.54447,-2.63266 -11.03005,-14.24915 -2.37104,-5.02099 -6.49056,-5.54118 -9.34786,-1.18038 -1.83461,2.79998 -2.346,7.77271 -3.12518,30.38909 -0.51238,14.87271 -1.48001,29.83656 -2.15028,33.25302 -1.04439,5.32338 -0.88259,6.68372 1.1314,9.51211 4.81146,6.75706 16.49466,9.39822 25.28227,5.71543 z m -107.62152,-0.71706 c 1.59163,-0.63404 4.50125,-2.68165 6.46583,-4.55026 3.32938,-3.16675 3.53801,-3.93065 3.07205,-11.24844 -0.61463,-9.6526 -4.23497,-16.99727 -17.979,-36.47446 -5.45325,-7.72802 -12.16501,-17.53878 -14.91501,-21.80166 -7.43645,-11.52754 -16.36697,-15.10184 -22.47397,-8.99484 -1.11309,1.11309 -2.34522,3.63087 -2.73806,5.59509 -1.03531,5.17657 -3.04428,6.2824 -13.06219,7.19001 -7.81774,0.70828 -9.29003,1.24662 -11.49201,4.20205 -2.38757,3.20454 -2.43958,3.96743 -0.95212,13.96546 1.69698,11.4063 1.4675,13.00319 -3.29689,22.9425 -1.72624,3.60121 -2.82357,7.36868 -2.4385,8.37215 1.17898,3.07238 7.37273,5.46252 19.68591,7.59668 6.47231,1.12181 19.64283,4.76468 29.26783,8.09528 17.37244,6.01151 25.2987,7.32427 30.85613,5.11044 z m 46.60017,-28.26335 c 10.4776,-2.72906 18.90491,-7.63981 27.08574,-15.78332 l 7.10687,-7.07445 -0.1638,-11.71104 c -0.1364,-9.75235 0.26465,-12.43682 2.39795,-16.05054 2.28357,-3.86827 3.1178,-4.32855 7.68227,-4.23861 l 5.12049,0.10088 0.87371,-10.48857 c 1.72615,-20.72225 -1.97346,-38.84296 -10.64892,-52.15859 -5.69446,-8.74017 -8.64195,-15.68658 -8.73075,-20.57583 -0.0301,-1.66166 -1.92913,-6.44291 -4.21991,-10.62501 -2.29078,-4.18207 -5.1797,-10.27565 -6.41983,-13.54128 -1.24012,-3.26562 -2.6635,-5.9375 -3.16306,-5.9375 -0.49956,0 -3.09502,1.74428 -5.76769,3.87618 -15.98574,12.75136 -32.13131,15.2759 -41.80464,6.53663 l -4.64929,-4.20035 -0.82048,3.45627 c -0.45126,1.90095 -3.02971,7.95627 -5.72989,13.45627 -2.70017,5.5 -5.71059,13.12809 -6.68981,16.9513 -0.97923,3.82321 -4.62271,12.61526 -8.09664,19.53787 -8.15337,16.24748 -11.37993,25.99583 -12.49732,37.75791 l -0.90277,9.50292 -2.14676,-4.00043 c -1.26536,-2.35795 -2.1399,-6.72031 -2.13005,-10.625 0.0202,-8.00792 5.61203,-24.82771 11.01591,-33.13508 3.60692,-5.54492 4.02422,-7.86449 1.41487,-7.86449 -1.54384,0 -11.69338,21.37828 -14.20212,29.91438 -5.19496,17.67608 -1.33584,25.39162 19.87962,39.74527 9.86436,6.67389 21.6368,18.33104 22.67012,22.44811 1.00231,3.99355 -0.41048,6.48345 -5.54207,9.76724 -4.7877,3.06374 -4.8967,4.37115 -0.77298,9.2719 5.98467,7.11239 24.32846,9.73013 39.85123,5.68696 z M 364.62416,397.0464 c 2.66208,-1.10672 9.46418,-5.02078 15.11576,-8.69792 16.54115,-10.76229 15.73694,-14.67787 -4.60322,-22.41266 -17.34845,-6.59712 -20.62909,-6.79625 -29.96745,-1.81895 -7.70965,4.1092 -13.82994,9.89392 -13.82994,13.07165 0,2.64672 8.85503,9.29125 14.36821,10.78144 7.15825,1.93486 15.93128,-0.36909 26.70971,-7.01444 5.50067,-3.39139 8.92208,-4.86323 8.92208,-3.83816 0,0.91447 -4.64063,4.10755 -10.3125,7.09574 -9.30044,4.89987 -11.17122,5.43491 -19.0625,5.45179 -6.85366,0.0147 -9.78138,-0.59081 -13.50895,-2.79377 -6.76542,-3.99831 -7.05617,-3.52398 -1.43223,2.33654 9.60291,10.00687 17.19764,12.16379 27.60103,7.83874 z m -17.03485,-31.60404 c 0,-0.61395 0.88975,-1.4577 1.97723,-1.875 2.82306,-1.08331 3.02917,-0.9799 2.2248,1.11626 -0.7692,2.0045 -4.20203,2.62435 -4.20203,0.75874 z m 10,-0.75874 c -0.86804,-1.04593 -1.0034,-1.875 -0.30611,-1.875 0.6875,0 1.95025,0.84375 2.80611,1.875 0.86804,1.04593 1.0034,1.875 0.30611,1.875 -0.6875,0 -1.95025,-0.84375 -2.80611,-1.875 z m 30.66876,-3.72792 c 1.5935,-14.87986 -1.39751,-21.61634 -10.05653,-22.64979 -9.44328,-1.12705 -15.3238,5.11183 -13.72697,14.56345 0.45831,2.71271 1.94831,6.19941 3.31113,7.74823 l 2.47783,2.81603 -0.68408,-3.23096 c -0.82204,-3.88248 1.09418,-11.19974 3.29952,-12.59951 3.10162,-1.96866 8.28441,-1.09332 10.26446,1.7336 2.99157,4.27107 2.55308,12.90481 -0.77376,15.23502 l -2.71964,1.90491 3.03214,1.21174 c 1.66768,0.66645 3.40924,1.24739 3.87015,1.29097 0.4609,0.0436 1.22849,-3.56708 1.70575,-8.02369 z m -50.66876,5.75598 c 0,-0.60332 -0.84375,-1.7972 -1.875,-2.65306 -1.19547,-0.99216 -1.875,-3.75529 -1.875,-7.62424 0,-4.99666 0.52069,-6.4093 2.94887,-8.0003 5.12794,-3.35995 9.55113,0.76386 9.55113,8.90469 0,1.75995 0.5443,2.781 1.25,2.34485 2.16292,-1.33676 1.38115,-11.01957 -1.2363,-15.3125 -2.04137,-3.3481 -3.25277,-4.0625 -6.8887,-4.0625 -3.63593,0 -4.84733,0.7144 -6.8887,4.0625 -3.00962,4.93614 -3.29031,14.50687 -0.5792,19.74957 1.75112,3.38629 5.5929,5.16604 5.5929,2.59099 z m 6.25,-12.40306 c 0,-1.2375 -0.675,-2.925 -1.5,-3.75 -1.82023,-1.82023 -4.75,-1.97443 -4.75,-0.25 0,0.6875 0.84375,1.25 1.875,1.25 1.04167,0 1.875,1.11111 1.875,2.5 0,1.375 0.5625,2.5 1.25,2.5 0.6875,0 1.25,-1.0125 1.25,-2.25 z m 39.03631,-0.97768 c -0.59166,-3.0951 -3.38547,-5.33983 -4.83806,-3.88723 -0.74269,0.74268 3.41227,7.0099 4.69091,7.07563 0.42029,0.0216 0.4865,-1.41318 0.14715,-3.1884 z"
         id="path5102"
         inkscape:connector-curvature="0" />
      <path
         style="fill-opacity:1"
         d="m 411.8649,585.43768 c -2.80468,-1.27381 -6.46093,-4.05115 -8.125,-6.17187 -2.93213,-3.73673 -3.48896,-3.90104 -18.02559,-5.31885 -26.45667,-2.58043 -45.6069,-0.0979 -53.10728,6.88444 -4.41211,4.10738 -11.61927,6.14581 -18.22632,5.15502 -3.03662,-0.45536 -12.29519,-3.06062 -20.57459,-5.78946 -8.27941,-2.72884 -21.57709,-6.34298 -29.55042,-8.0314 -15.4186,-3.26504 -22.00092,-6.15142 -22.7363,-9.96998 -0.2492,-1.29397 1.35015,-5.86845 3.55411,-10.16551 l 4.0072,-7.81284 -1.53341,-11.22093 c -2.44284,-17.87576 0.10212,-22.68768 11.99919,-22.68768 3.82644,0 8.04612,-0.58279 9.37706,-1.29509 3.3776,-1.80764 6.16576,-9.15235 6.16576,-16.24219 0,-4.85474 1.51238,-9.00688 8.02599,-22.03485 4.41429,-8.82907 9.41848,-20.88992 11.12042,-26.80187 4.03444,-14.01428 5.06871,-15.87194 16.99057,-30.51691 5.53939,-6.80467 11.06531,-14.36607 12.27982,-16.80311 2.367,-4.74962 2.3899,-5.56624 1.43897,-51.30598 -0.4744,-22.81879 -0.43752,-23.21603 2.78523,-30 7.0352,-14.80924 17.16515,-20.32339 37.26799,-20.28652 22.4897,0.0413 38.01737,10.95492 43.30853,30.4395 1.00398,3.69711 2.67331,14.59702 3.70962,24.22202 2.62492,24.37979 3.79602,30.94846 6.68003,37.46826 2.95918,6.6897 15.17208,25.07797 23.61413,35.55445 6.582,8.16819 13.58362,21.47228 17.83971,33.89798 3.02304,8.82579 4.62334,28.11654 3.1484,37.95215 -0.97545,6.50471 -2.04491,7.13871 -4.45272,2.63965 -2.10674,-3.93645 -10.66501,-8.13749 -16.57758,-8.13749 -5.71467,0 -6.39313,-1.15229 -4.583,-7.78366 0.8019,-2.93774 1.46629,-10.43056 1.4764,-16.65073 0.0201,-12.38767 -2.06891,-19.05957 -8.26145,-26.38488 -3.84288,-4.54586 -10.81106,-7.65573 -10.81106,-4.82494 0,0.94916 1.09036,2.07181 2.42301,2.49477 3.68764,1.17041 9.77873,8.75976 11.27852,14.05278 2.54819,8.993 2.82549,18.2416 0.82923,27.657 -1.73897,8.20185 -2.55422,9.75036 -7.61412,14.46236 -3.11665,2.90236 -5.66664,6.332 -5.66664,7.62142 0,1.85243 0.87296,1.39137 4.1598,-2.19702 4.80508,-5.24593 8.78901,-6.56806 16.57538,-5.50081 7.23488,0.99165 12.60453,3.84003 15.25759,8.09356 1.191,1.90946 3.01065,3.23847 4.12218,3.01071 3.04415,-0.62381 4.79071,2.3745 6.70061,11.50281 2.03008,9.70275 2.91117,10.98062 10.58479,15.35138 8.77812,4.99986 11.34965,7.76864 11.34965,12.22025 0,5.06776 -2.86451,7.62504 -16.25,14.50706 -6.39609,3.2885 -15.84895,9.86795 -23.75,16.53065 -7.21875,6.08734 -14.93506,11.85975 -17.14735,12.82759 -5.55394,2.42974 -14.98357,2.15629 -21.07706,-0.61124 z m 21.26726,-2.63236 c 2.79518,-1.3768 10.4259,-7.0472 16.95715,-12.60086 8.06501,-6.85785 15.61546,-11.92466 23.53329,-15.79228 16.69946,-8.15717 17.91498,-13.26476 5.02088,-21.09752 -8.89916,-5.40595 -10.71727,-7.96608 -13.38391,-18.84625 -1.1249,-4.58968 -2.62982,-8.53558 -3.34427,-8.76867 -0.71447,-0.23308 -4.08999,2.30917 -7.50118,5.64944 -3.41119,3.34029 -8.10384,7.05665 -10.42812,8.25859 -8.3728,4.32974 -19.85804,-0.3899 -21.98254,-9.0333 -2.10103,-8.54787 -6.94954,-11.31106 -11.33816,-6.46169 -2.03636,2.25015 -2.4215,5.85811 -3.23572,30.3125 -0.50832,15.26709 -1.49816,30.57084 -2.19966,34.00834 -1.08056,5.29506 -0.94386,6.7081 0.8947,9.2482 5.37949,7.43213 17.6101,9.75236 27.00754,5.1235 z m -107.251,-0.78465 c 5.89005,-2.79503 7.95815,-6.22357 7.95815,-13.19329 0,-8.68627 -4.15189,-18.36783 -13.17076,-30.71216 -4.39269,-6.01239 -11.40764,-16.41275 -15.58877,-23.11195 -7.44676,-11.93154 -14.14603,-18.44465 -18.97182,-18.44465 -4.18561,0 -8.3678,2.87347 -9.7874,6.72465 -2.74098,7.43594 -2.98386,7.60176 -13.03656,8.90035 -14.38815,1.85862 -15.929,4.42278 -12.98265,21.60457 1.44066,8.40129 1.4018,8.65667 -2.65705,17.46246 -2.26549,4.91506 -3.7961,9.77815 -3.40135,10.80687 1.16724,3.04176 6.91194,5.26176 20.84636,8.0559 7.21875,1.44751 20.4375,5.13426 29.375,8.19277 17.61713,6.02878 24.76011,6.8733 31.41685,3.71448 z m 44.83315,-27.16374 c 10.02444,-2.68177 18.79281,-7.79097 26.77463,-15.60116 l 7.44246,-7.28245 -0.11725,-11.76985 c -0.0871,-8.74637 0.42066,-12.80879 1.97669,-15.81424 2.1909,-4.23171 6.37051,-6.11098 10.60328,-4.76755 2.25858,0.71684 2.56728,0.023 3.38431,-7.60631 2.09388,-19.5523 -1.89569,-41.82965 -9.48384,-52.95675 -5.66903,-8.31296 -8.26613,-13.77569 -9.21129,-19.375 -0.91578,-5.42526 -13.28203,-33.10471 -14.7957,-33.1173 -0.50968,-0.004 -3.60343,2.04743 -6.875,4.55926 -7.50108,5.75916 -17.1568,10.18837 -22.82329,10.46937 -8.94979,0.44383 -11.18959,-0.13638 -16.66727,-4.3176 l -5.60876,-4.28126 -0.79594,3.17128 c -0.43777,1.74421 -3.29142,8.33548 -6.34144,14.64728 -3.05002,6.31181 -5.91962,13.42067 -6.37687,15.79748 -0.45725,2.37683 -4.17029,11.308 -8.25118,19.84708 -7.86526,16.45765 -12.18171,30.54741 -12.25013,39.98686 l -0.0416,5.73755 -2.45842,-2.95098 c -5.28186,-6.34014 -1.24924,-27.35108 8.22658,-42.86243 4.87327,-7.97725 5.04225,-8.56159 2.47573,-8.56159 -2.01494,0 -10.27496,16.10419 -14.38036,28.03675 -3.05138,8.86899 -3.24925,18.19546 -0.50859,23.971 1.90935,4.02365 10.91507,11.88524 22.56144,19.69515 8.22685,5.51681 20.41679,18.85861 20.41679,22.34601 0,3.27698 -3.98153,7.69249 -8.4154,9.33269 l -2.78913,1.03176 2.41759,3.9754 c 2.83947,4.66914 7.26773,7.81396 12.88075,9.14757 6.60195,1.56856 22.33215,1.30412 29.03119,-0.48802 z M 364.81696,397.1255 c 7.98592,-3.32185 24.09044,-14.57269 25.9179,-18.10663 1.59525,-3.08486 1.50785,-3.59187 -1.01227,-5.87259 -1.51706,-1.37293 -3.88328,-3.16242 -5.25828,-3.97664 -2.41568,-1.43046 -2.40839,-1.45549 0.21586,-0.74214 2.48702,0.67604 2.78963,0.14783 3.59128,-6.26831 2.04241,-16.34695 -1.84698,-24.35057 -11.83328,-24.35057 -9.49309,0 -13.9895,7.12022 -11.2833,17.8675 2.07948,8.25834 4.93444,8.7979 4.93444,0.93255 0,-6.88617 2.19244,-10.05005 6.96429,-10.05005 4.86363,0 8.03571,4.16621 8.03571,10.55412 0,4.32245 -0.61607,5.98564 -2.77814,7.5 -1.52796,1.07023 -2.27796,1.94588 -1.66666,1.94588 0.61131,0 0.83394,0.27753 0.49474,0.61673 -0.3392,0.33921 -5.2304,-1.06704 -10.86933,-3.125 -5.63892,-2.05795 -11.93993,-3.74173 -14.00225,-3.74173 -8.05239,0 -24.92836,11.45597 -24.92836,16.92221 0,4.30059 12.3288,11.74971 19.53034,11.80034 5.32952,0.0375 13.08809,-2.85415 21.70833,-8.09067 8.06861,-4.90142 10.17285,-5.51345 7.03499,-2.04616 -3.07047,3.39284 -18.96195,10.40806 -25.1597,11.10664 -5.91655,0.66688 -13.21338,-1.2937 -18.42646,-4.95098 -1.89063,-1.32639 -3.4375,-1.92242 -3.4375,-1.32451 0,1.7076 11.33956,12.93676 14.25366,14.11489 4.23939,1.71393 12.96975,1.36669 17.97399,-0.71488 z m -15.97765,-32.44188 c 0.85586,-1.03125 2.03208,-1.875 2.61383,-1.875 0.58174,0 0.73393,0.84375 0.3382,1.875 -0.39572,1.03125 -1.57195,1.875 -2.61382,1.875 -1.54211,0 -1.605,-0.34862 -0.33821,-1.875 z m 8.75,0 c -0.86804,-1.04593 -1.0034,-1.875 -0.30611,-1.875 0.6875,0 1.95025,0.84375 2.80611,1.875 0.86804,1.04593 1.0034,1.875 0.30611,1.875 -0.6875,0 -1.95025,-0.84375 -2.80611,-1.875 z m -20.03975,2.1875 c -0.0219,-0.51562 -0.86562,-2.02938 -1.875,-3.36391 -2.70209,-3.57248 -2.33994,-11.4439 0.66475,-14.44859 1.375,-1.375 2.95499,-2.5 3.51109,-2.5 2.77208,0 5.47739,3.7544 6.11141,8.48136 1.00235,7.4731 2.8775,6.53615 2.8775,-1.43779 0,-8.7283 -3.25702,-13.29357 -9.4841,-13.29357 -3.51284,0 -4.75732,0.74572 -6.7796,4.0625 -4.38777,7.19646 -2.19055,23.4375 3.1708,23.4375 1.01359,0 1.82501,-0.42187 1.80315,-0.9375 z m 6.28975,-12.08527 c 0,-3.44701 -1.54626,-5.72723 -3.88374,-5.72723 -1.30144,0 -2.36626,0.5625 -2.36626,1.25 0,0.6875 0.84375,1.25 1.875,1.25 1.04167,0 1.875,1.11111 1.875,2.5 0,1.375 0.5625,2.5 1.25,2.5 0.6875,0 1.25,-0.79775 1.25,-1.77277 z m 40,1.22914 c 0,-2.45442 -2.81135,-6.95637 -4.34406,-6.95637 -2.44535,0 -2.39899,0.72666 0.28156,4.41308 1.95448,2.68789 4.0625,4.0076 4.0625,2.54329 z"
         id="path5100"
         inkscape:connector-curvature="0" />
      <path
         style="fill-opacity:1"
         d="m 412.58931,585.86683 c -2.40625,-1.01416 -6.0625,-3.79763 -8.125,-6.18551 -3.58648,-4.15228 -4.26783,-4.39584 -15.625,-5.58549 -25.99074,-2.72248 -46.5491,-0.85217 -53.59302,4.87566 -1.80509,1.46784 -5.75913,3.84002 -8.78676,5.27151 -7.00681,3.31288 -11.68185,2.72746 -32.5315,-4.07377 -8.64254,-2.81922 -22.17977,-6.50121 -30.08273,-8.18218 -15.22668,-3.23876 -21.59715,-6.00738 -22.30729,-9.6948 -0.23896,-1.24082 1.38822,-5.84701 3.61594,-10.23598 l 4.05041,-7.97996 -1.58825,-11.08071 c -1.24798,-8.70675 -1.26564,-12.05827 -0.0824,-15.64345 1.8629,-5.64463 4.35654,-7.04353 12.55562,-7.04353 3.5279,0 7.5033,-0.58279 8.83424,-1.29509 3.51113,-1.8791 6.48375,-9.68477 6.25214,-16.41724 -0.16894,-4.91066 0.97692,-8.09172 7.2182,-20.03861 4.08046,-7.8107 9.23196,-20.09016 11.44778,-27.28767 5.13095,-16.66659 5.35572,-17.07785 17.43874,-31.90828 14.88575,-18.27043 15.60023,-20.12623 14.58369,-37.87982 -2.27518,-39.73521 -2.3524,-44.84854 -0.77822,-51.53379 3.48479,-14.79932 12.23055,-24.78019 24.02691,-27.4201 10.14224,-2.26973 28.8807,-1.10095 36.39132,2.26985 17.24096,7.7378 23.06161,18.88481 26.43326,50.62174 2.63705,24.82234 3.86385,31.36397 7.28214,38.8305 3.3298,7.27325 14.36701,23.72133 23.09081,34.41085 6.77015,8.29565 16.6404,28.65672 19.50073,40.22752 2.93932,11.89034 2.56834,37.42014 -0.54375,37.42014 -0.55524,0 -1.35772,-1.09708 -1.78329,-2.43794 -1.16301,-3.66431 -8.72104,-7.75037 -16.02689,-8.66452 -7.37107,-0.92231 -7.0162,0.29067 -4.65165,-15.89975 2.8086,-19.23088 -3.49973,-35.90064 -15.28095,-40.37985 -4.87257,-1.85254 -4.48688,1.02304 0.57098,4.25706 5.63234,3.60135 8.16489,7.66946 10.48495,16.84229 3.7846,14.96312 0.54227,29.91179 -8.45003,38.95871 l -5.41611,5.449 -0.0374,-18.125 c -0.0448,-21.69041 -1.67877,-28.3464 -10.65846,-43.41564 -3.37269,-5.65986 -6.75419,-12.97236 -7.51446,-16.25 -1.54952,-6.68023 -13.7776,-34.06469 -15.21638,-34.07666 -0.50967,-0.004 -3.60342,2.04488 -6.875,4.55359 -9.48377,7.27237 -17.33861,10.41251 -26.08106,10.4265 -6.82652,0.0109 -8.24589,-0.45596 -13.4375,-4.42005 -3.19261,-2.43774 -5.80475,-3.74952 -5.80475,-2.91507 0,0.83444 -2.82288,7.59182 -6.27308,15.01638 -3.45019,7.42455 -6.6274,15.34571 -7.06047,17.60257 -0.43307,2.25686 -3.44497,9.44713 -6.69311,15.97838 -8.48987,17.07113 -12.57326,29.22963 -13.39834,39.89426 -0.71491,9.24068 -0.72423,9.26049 -3.02106,6.42403 -5.06577,-6.25597 -2.21373,-22.11079 7.17684,-39.8969 3.03557,-5.74948 5.51922,-10.67135 5.51922,-10.9375 0,-0.26614 -0.88288,-0.48389 -1.96197,-0.48389 -2.25258,0 -13.26889,22.34559 -15.62055,31.68489 -1.87512,7.44677 -0.99419,18.36066 1.8299,22.67077 1.20219,1.83477 7.03664,6.80847 12.96545,11.05264 13.41547,9.60358 27.62437,22.88281 28.58647,26.71612 0.94463,3.76372 -2.42996,8.88073 -7.1715,10.87441 l -3.68351,1.5488 2.8446,4.2211 c 4.54945,6.75093 9.8848,9.12294 21.94381,9.75588 18.99245,0.99685 33.98847,-4.54578 46.70527,-17.26258 l 7.21144,-7.21144 -0.0179,-11.27716 c -0.0214,-13.46675 2.08186,-19.77738 7.00331,-21.01258 1.81476,-0.45547 4.72509,-0.17862 6.46741,0.61524 2.87602,1.3104 3.68709,0.96476 8.80388,-3.75173 5.5196,-5.08778 5.78372,-5.1817 12.78727,-4.54665 8.73289,0.79188 14.59589,3.6605 17.35301,8.49042 1.34821,2.36177 2.78531,3.41891 4.08966,3.00837 3.01508,-0.94896 4.74487,1.98021 6.70676,11.35705 2.01597,9.63531 2.24337,9.93031 13.20942,17.13651 6.9426,4.56225 8.12885,5.89007 8.4732,9.48437 0.54513,5.68975 -2.0627,8.26272 -14.50671,14.31285 -6.75798,3.28563 -15.22715,9.09036 -24.375,16.70648 -7.71029,6.41927 -15.79121,12.51623 -17.95761,13.54882 -4.96943,2.3686 -14.7365,2.33783 -20.43609,-0.0644 z m 21.875,-3.74821 c 2.75,-1.58797 10.0625,-7.19081 16.25,-12.45075 7.58711,-6.44974 15.0359,-11.38923 22.8778,-15.1709 13.12688,-6.33029 15.85604,-9.57309 12.68836,-15.07637 -0.99889,-1.73542 -4.62866,-4.72069 -8.06616,-6.63397 -8.07316,-4.49341 -10.35264,-7.69358 -12.90711,-18.12037 -1.15109,-4.6985 -2.73223,-8.75169 -3.51364,-9.00709 -0.78141,-0.25541 -4.4143,2.45142 -8.07309,6.0152 -7.83722,7.63369 -13.60964,10.40101 -19.42144,9.31071 -5.31645,-0.99737 -11.2013,-5.96105 -12.28293,-10.36027 -2.12759,-8.65324 -6.95133,-11.3719 -11.42055,-6.43665 -2.12721,2.34902 -2.46842,5.51597 -3.19842,29.6875 -0.44944,14.88187 -1.43705,30.10488 -2.19467,33.82891 -1.53976,7.56851 -0.32202,10.77149 5.56057,14.62591 7.11218,4.66009 15.3924,4.58607 23.70128,-0.21186 z m -108.74005,-0.0235 c 7.04444,-3.34281 8.74027,-6.15169 8.4746,-14.0369 -0.29181,-8.66116 -5.87424,-20.40376 -16.1634,-33.9996 -3.90219,-5.15625 -9.80222,-13.95263 -13.11118,-19.54749 -9.16818,-15.50176 -16.1126,-20.19061 -24.195,-16.33638 -3.07083,1.46437 -4.52413,3.30581 -5.8056,7.35611 l -1.70937,5.40276 -8.125,0.88839 c -11.99203,1.31118 -13.27904,1.83185 -15.0406,6.08462 -1.27716,3.08335 -1.30765,5.84513 -0.1485,13.4534 1.56419,10.26675 1.049,13.66244 -3.39423,22.37188 -1.46667,2.87491 -2.66667,6.0061 -2.66667,6.95817 0,3.65866 5.10378,6.01364 19.49841,8.99692 8.18212,1.69573 22.18909,5.57997 31.12659,8.63163 17.51407,5.9801 24.76914,6.85658 31.25995,3.77649 z M 365.8883,396.53939 c 8.04505,-3.44824 24.2309,-14.85142 25.37951,-17.88026 1.19604,-3.15387 -0.0951,-5.16497 -5.5535,-8.64985 -2.69372,-1.71981 -2.98501,-2.1758 -1.03414,-1.61886 2.49314,0.71174 2.78765,0.20071 3.59128,-6.23123 1.37469,-11.00259 0.12475,-18.1606 -3.75388,-21.49682 -6.28203,-5.40359 -17.09202,-3.05762 -19.4976,4.23134 -1.68777,5.11401 -0.47737,13.43531 2.3709,16.29945 1.933,1.94377 2.10009,1.66754 2.46683,-4.07822 0.4342,-6.80278 2.94505,-10.55632 7.06143,-10.55632 4.83033,0 7.20659,2.91144 7.85113,9.61938 0.53215,5.53808 0.25554,6.53335 -2.31645,8.33484 -1.60642,1.12518 -2.4206,2.04578 -1.8093,2.04578 0.61131,0 0.83394,0.27753 0.49474,0.61673 -0.3392,0.33921 -5.2304,-1.06704 -10.86933,-3.125 -5.63892,-2.05795 -12.12137,-3.74173 -14.40543,-3.74173 -7.81323,0 -24.52518,11.20698 -24.52518,16.44651 0,4.73838 11.90665,12.22245 19.53034,12.27604 5.42272,0.0381 13.53655,-2.99314 22.11362,-8.26146 3.99793,-2.45566 7.5785,-4.1553 7.95683,-3.77696 1.05654,1.05653 -10.54826,8.02306 -18.02414,10.82014 -9.15424,3.42504 -14.90132,3.16308 -23.2755,-1.06094 -3.87813,-1.95617 -7.05115,-3.30863 -7.05115,-3.00547 0,1.54543 5.69502,8.21503 9.4792,11.10136 7.4339,5.67011 13.52781,6.10287 23.81979,1.69155 z m -17.04899,-31.85577 c 0.85586,-1.03125 2.11861,-1.875 2.80611,-1.875 0.69729,0 0.56193,0.82907 -0.30611,1.875 -0.85586,1.03125 -2.11861,1.875 -2.80611,1.875 -0.69729,0 -0.56193,-0.82907 0.30611,-1.875 z m 8.75,0 c -0.86804,-1.04593 -1.0034,-1.875 -0.30611,-1.875 0.6875,0 1.95025,0.84375 2.80611,1.875 0.86804,1.04593 1.0034,1.875 0.30611,1.875 -0.6875,0 -1.95025,-0.84375 -2.80611,-1.875 z m -20.03975,2.1875 c -0.0219,-0.51562 -0.86562,-2.02938 -1.875,-3.36391 -2.70209,-3.57248 -2.33994,-11.4439 0.66475,-14.44859 1.375,-1.375 2.92187,-2.48211 3.4375,-2.46025 2.73114,0.11582 5.60263,4.09974 6.20799,8.61299 0.98921,7.37514 2.85451,6.25902 2.85451,-1.70803 0,-9.37961 -3.88815,-13.85931 -11.58087,-13.34281 -6.05209,0.40634 -9.67089,17.66789 -5.15037,24.56708 1.86862,2.85186 5.53273,4.29524 5.44149,2.14352 z m 6.28975,-12.72321 c 0,-3.47031 -3.69316,-6.9005 -5.48214,-5.0918 -1.02593,1.03723 -0.81659,1.73336 0.79464,2.64247 1.20312,0.67885 2.1875,2.05006 2.1875,3.04715 0,0.99709 0.5625,1.81289 1.25,1.81289 0.6875,0 1.25,-1.08482 1.25,-2.41071 z m 40,1.86708 c 0,-2.45442 -2.81135,-6.95637 -4.34406,-6.95637 -2.44535,0 -2.39899,0.72666 0.28156,4.41308 1.95448,2.68789 4.0625,4.0076 4.0625,2.54329 z"
         id="path5098"
         inkscape:connector-curvature="0" />
      <path
         style="fill-opacity:1"
         d="m 412.58931,585.86683 c -2.40625,-1.01416 -6.08089,-3.82662 -8.16588,-6.24994 -3.60677,-4.19205 -4.3352,-4.46326 -15,-5.58493 -25.60576,-2.69309 -47.10799,-0.75215 -54.17714,4.89042 -11.01203,8.78976 -17.52581,8.94966 -42.03198,1.03182 -9.625,-3.1098 -23.40625,-6.88021 -30.625,-8.37867 -14.59411,-3.02945 -20.43474,-5.71431 -21.01007,-9.65806 -0.21179,-1.45175 1.42412,-5.84526 3.63536,-9.76335 l 4.02042,-7.12381 -1.53444,-11.72843 c -1.65664,-12.66239 -1.22374,-15.83889 2.75029,-20.18076 2.12363,-2.3202 3.90359,-2.81585 10.16883,-2.83164 4.17704,-0.01 8.27592,-0.45212 9.10863,-0.98131 2.63991,-1.67768 5.47972,-10.23203 5.84608,-17.61014 0.29184,-5.87709 1.5772,-9.41857 7.32989,-20.19562 3.8368,-7.18784 8.7844,-18.97504 10.99467,-26.19379 5.17618,-16.90544 5.52938,-17.54945 17.60124,-32.09346 5.60668,-6.75485 11.27828,-14.7012 12.60357,-17.65857 2.74012,-6.11458 3.00775,-14.96547 1.04691,-34.62297 -3.18976,-31.97743 -0.4497,-46.47696 10.7702,-56.9925 7.28414,-6.82684 11.49269,-8.0075 28.54342,-8.0075 18.54416,0 24.8768,2.34544 34.36613,12.72826 7.85441,8.59398 10.63327,17.42171 13.18366,41.88111 3.76412,36.09982 4.4354,37.76454 27.87992,69.14063 15.67674,20.98036 23.95967,42.35695 23.93153,61.76245 -0.0223,15.37915 -2.13573,23.37453 -4.34154,16.42461 -1.16301,-3.66431 -8.72104,-7.75037 -16.02689,-8.66452 -7.37107,-0.92231 -7.0162,0.29067 -4.65165,-15.89975 1.8222,-12.47683 0.29155,-22.3865 -4.70702,-30.47421 -3.13565,-5.07349 -10.2544,-11.27358 -12.94399,-11.27358 -2.43979,0 -0.80007,3.36756 2.62479,5.39069 11.08489,6.548 15.24475,26.13799 9.56078,45.0244 -0.98561,3.27495 -3.7858,7.56306 -7.13436,10.92535 l -5.51197,5.53456 0.45477,-13.96992 c 0.66724,-20.49633 -1.84567,-31.49578 -10.78782,-47.22019 -3.89095,-6.84206 -7.69894,-15.27956 -8.4622,-18.75 -0.76326,-3.47044 -4.31878,-12.3803 -7.90113,-19.7997 l -6.51337,-13.48981 -4.90025,4.19443 c -2.69514,2.30693 -8.37544,5.98672 -12.6229,8.17731 -6.24675,3.2217 -9.20754,3.98288 -15.49232,3.98288 -6.96591,0 -8.36684,-0.45598 -13.54237,-4.40779 l -5.77271,-4.40779 -0.8385,3.47029 c -0.46118,1.90866 -3.01493,7.83326 -5.67501,13.16577 -2.66008,5.33252 -5.62011,12.64502 -6.57785,16.25001 -0.95774,3.60497 -4.84205,13.02326 -8.63179,20.92951 -8.82826,18.41771 -10.88983,24.74941 -11.76839,36.14426 -0.71246,9.24055 -0.72181,9.26045 -3.01861,6.42403 -2.8507,-3.52048 -3.02049,-11.79203 -0.44501,-21.67996 1.94594,-7.47098 9.65601,-23.88199 11.85995,-25.24409 2.09221,-1.29306 1.48027,-4.61683 -0.76836,-4.17339 -2.37215,0.46778 -7.55113,9.99606 -12.93691,23.80133 -4.24084,10.87045 -5.03439,22.39456 -1.95246,28.35435 2.27893,4.40696 8.17037,9.59783 19.79951,17.4451 9.997,6.7459 23.38934,20.32842 23.38934,23.72148 0,3.32023 -3.5474,7.61698 -7.6821,9.30487 l -3.74064,1.52702 2.90312,4.30741 c 4.75167,7.05017 9.9361,9.27965 22.89697,9.84651 19.75312,0.86394 34.28409,-4.74783 46.97529,-18.14159 l 6.14736,-6.48768 0,-11.44841 c 0,-17.30699 4.53881,-24.09081 13.41303,-20.04745 2.93195,1.33589 3.65044,1.05925 7.81777,-3.01004 5.7253,-5.5906 11.08424,-6.60169 20.49304,-3.86647 5.53892,1.61021 7.65547,2.97597 9.85275,6.35775 1.53912,2.36886 3.36091,4.25341 4.04841,4.18788 4.34119,-0.4137 6.1186,2.40452 7.55419,11.97774 0.9676,6.45241 4.64325,11.68186 10.13712,14.42235 8.3669,4.17364 11.68369,7.5086 11.68369,11.74773 0,5.1497 -3.30295,8.36352 -13.00531,12.65436 -9.21473,4.0752 -15.96174,8.70304 -28.66056,19.65859 -5.50073,4.74559 -12.13504,9.7169 -14.74293,11.04733 -5.65099,2.88293 -14.88742,3.0919 -21.0912,0.4772 z m 16.73334,-1.13372 c 4.11595,-0.92153 8.64602,-4.1349 22.17848,-15.73215 5.8891,-5.04693 14.18707,-10.48514 21.65347,-14.19095 13.58832,-6.74434 16.28326,-9.90402 13.12587,-15.38941 -0.99889,-1.73542 -4.57309,-4.69102 -7.94266,-6.56802 -7.79511,-4.34221 -10.24915,-7.77907 -12.5272,-17.54418 -1.00884,-4.3245 -2.3672,-8.39568 -3.01858,-9.04706 -1.67167,-1.67167 -4.8601,0.32165 -11.16981,6.98307 -6.5378,6.90222 -11.95397,8.97037 -18.72046,7.14835 -5.76591,-1.5526 -9.46622,-5.27685 -11.47243,-11.54665 -1.85005,-5.78179 -4.2247,-7.77569 -8.10166,-6.80264 -4.58005,1.14952 -5.45891,6.02195 -6.22568,34.51515 -0.37927,14.09375 -1.26967,28.39387 -1.97866,31.77806 -1.04501,4.98815 -0.9303,6.7006 0.60587,9.0451 2.43297,3.71319 7.10201,6.7546 12.20392,7.94963 4.03162,0.94434 4.64282,0.91222 11.38953,-0.5983 z m -101.37049,-3.99456 c 11.69508,-7.48439 8.70832,-20.55961 -11.14756,-48.80092 -5.41216,-7.6978 -12.09029,-17.537 -14.84029,-21.86489 -5.31922,-8.37127 -11.5903,-13.51412 -16.47883,-13.51412 -4.75772,0 -9.00861,3.597 -10.41255,8.81084 -1.44125,5.3524 -2.03299,5.6383 -14.11743,6.8208 -8.12995,0.79555 -8.59892,1.02157 -10.53248,5.0763 -1.75534,3.68098 -1.82746,5.53139 -0.54395,13.95536 1.59869,10.49252 1.14013,13.40244 -3.65605,23.20026 -4.69921,9.59974 -2.04227,11.78825 19.31518,15.9098 7.33689,1.41588 19.09672,4.59719 26.13296,7.06958 24.42379,8.58202 27.62503,8.87646 36.281,3.33699 z m 40.88715,-185.58138 c 10.31306,-5.30362 20.38571,-12.59738 22.056,-15.9711 1.84836,-3.7334 0.31213,-6.56652 -5.09435,-9.39503 -2.35929,-1.23431 -2.78645,-1.73975 -1.10932,-1.31262 2.42901,0.61863 2.82144,0.067 3.58771,-5.04281 0.47321,-3.15558 0.59797,-8.90163 0.27726,-12.769 -0.47175,-5.68871 -1.22991,-7.58794 -3.96991,-9.94479 -6.01309,-5.17223 -16.76574,-3.25799 -19.55741,3.48172 -1.86194,4.49512 -0.55161,14.06073 2.32187,16.94991 1.98594,1.9968 2.13683,1.75369 2.50654,-4.03851 0.4342,-6.80278 2.94505,-10.55632 7.06143,-10.55632 4.59258,0 7.13161,2.90122 7.81054,8.92471 0.53374,4.73539 0.15553,6.16673 -2.34148,8.86104 l -2.97805,3.21337 -7.47292,-3.0698 c -11.74173,-4.8234 -18.00022,-5.13206 -25.88089,-1.2764 -3.64279,1.78224 -8.51548,5.19274 -10.82821,7.57886 -5.46548,5.63895 -4.72151,9.4507 2.68611,13.76229 10.94259,6.36912 18.35453,5.82384 32.80962,-2.41375 10.00246,-5.70015 13.74732,-6.73064 7.00021,-1.92627 -6.55543,4.66788 -17.40286,9.00378 -24.19353,9.67056 -5.55754,0.5457 -7.67034,0.0815 -13.75372,-3.02161 -3.95313,-2.01649 -7.1875,-3.234 -7.1875,-2.70558 0,1.5936 6.19385,8.44236 10.24188,11.32482 7.72318,5.49939 14.8576,5.41059 26.00812,-0.32369 z m -20,-29.62172 c 0,-1.5107 2.3715,-3.272 3.23837,-2.40512 0.31463,0.31462 -0.2853,1.28357 -1.33316,2.15322 -1.18798,0.98594 -1.90521,1.08076 -1.90521,0.2519 z m 9.3236,-0.30999 c -1.34534,-2.17681 0.1869,-2.6378 1.90133,-0.57205 0.98594,1.18798 1.08076,1.90521 0.2519,1.90521 -0.73111,0 -1.70006,-0.59992 -2.15323,-1.33316 z m -20.2611,1.85399 c 0.40104,-0.40104 -0.34896,-1.80729 -1.66667,-3.125 -2.64505,-2.64505 -3.21734,-9.77518 -1.10185,-13.72801 1.46523,-2.73781 3.97905,-3.3338 2.96995,-0.70412 -0.36168,0.94253 0.21847,2.04988 1.28923,2.46077 1.07076,0.41089 1.94684,1.60847 1.94684,2.6613 0,1.05283 0.5625,1.91423 1.25,1.91423 1.95167,0 1.46699,-4.60443 -0.71429,-6.78571 -1.08035,-1.08036 -1.3935,-1.96429 -0.69588,-1.96429 2.11147,0 5.16017,5.33395 5.16017,9.02813 0,1.90953 0.5625,3.47187 1.25,3.47187 0.6875,0 1.25,-3.01789 1.25,-6.70643 0,-13.80574 -11.17394,-19.3182 -16.86206,-8.31859 -2.50741,4.84878 -2.43556,15.52721 0.13082,19.444 1.93763,2.95719 4.24981,3.89578 5.79374,2.35185 z m 45.9375,-12.1177 c 0,-2.86149 -3.74921,-7.07497 -5.6473,-6.3466 -1.49733,0.57457 -1.32116,1.34571 0.9717,4.25348 3.04719,3.86439 4.6756,4.59338 4.6756,2.09312 z"
         id="path5096"
         inkscape:connector-curvature="0" />
    </g>
  </g>
</svg>
