<?xml version="1.0" encoding="UTF-8" standalone="no"?>
<!-- Created with Inkscape (http://www.inkscape.org/) -->

<svg
   xmlns:dc="http://purl.org/dc/elements/1.1/"
   xmlns:cc="http://creativecommons.org/ns#"
   xmlns:rdf="http://www.w3.org/1999/02/22-rdf-syntax-ns#"
   xmlns:svg="http://www.w3.org/2000/svg"
   xmlns="http://www.w3.org/2000/svg"
   xmlns:sodipodi="http://sodipodi.sourceforge.net/DTD/sodipodi-0.dtd"
   xmlns:inkscape="http://www.inkscape.org/namespaces/inkscape"
   width="210mm"
   height="297mm"
   viewBox="0 0 744.09448819 1052.3622047"
   id="svg5149"
   version="1.1"
   inkscape:version="0.91 r13725"
   sodipodi:docname="lisp.svg">
  <defs
     id="defs5151" />
  <sodipodi:namedview
     id="base"
     pagecolor="#ffffff"
     bordercolor="#666666"
     borderopacity="1.0"
     inkscape:pageopacity="0.0"
     inkscape:pageshadow="2"
     inkscape:zoom="0.35"
     inkscape:cx="375"
     inkscape:cy="520"
     inkscape:document-units="px"
     inkscape:current-layer="layer1"
     showgrid="false"
     inkscape:window-width="1600"
     inkscape:window-height="847"
     inkscape:window-x="-8"
     inkscape:window-y="-8"
     inkscape:window-maximized="1" />
  <metadata
     id="metadata5154">
    <rdf:RDF>
      <cc:Work
         rdf:about="">
        <dc:format>image/svg+xml</dc:format>
        <dc:type
           rdf:resource="http://purl.org/dc/dcmitype/StillImage" />
        <dc:title></dc:title>
      </cc:Work>
    </rdf:RDF>
  </metadata>
  <g
     inkscape:label="Camada 1"
     inkscape:groupmode="layer"
     id="layer1">
    <g
       id="g5168">
      <path
         style="fill-opacity:1"
         d="M 133.66369,763.04365 C 94.654903,755.27307 61.311208,720.39348 53.444216,679.12904 50.044179,661.29496 50.025132,431.07967 53.422694,418.91378 c 1.392416,-4.98594 6.073599,-12.44089 10.402628,-16.56656 6.708587,-6.39346 9.896684,-7.50122 21.588226,-7.50122 14.206437,0 22.998852,5.1636 30.378932,17.84091 2.08968,3.5896 3.34639,42.41537 4.24853,131.25811 1.22942,121.07249 1.49142,126.51685 6.49609,134.991 2.86825,4.85663 9.20962,11.16466 14.09193,14.01786 8.44817,4.93701 13.70329,5.22642 108.80153,5.99156 54.95853,0.4422 105.04351,0.0525 111.29992,-0.86584 8.07537,-1.18543 13.83582,-4.1174 19.85681,-10.10675 7.16841,-7.13073 8.4815,-10.27162 8.4815,-20.28751 0,-6.51782 -1.67868,-15.07972 -3.73039,-19.02644 -4.40491,-8.47338 -17.93314,-15.49332 -29.96503,-15.54914 -48.52503,-0.22515 -89.01359,-36.73428 -97.54669,-87.95922 -7.37424,-44.26815 15.45793,-87.06537 56.9392,-106.72834 l 16.6541,-7.89439 69.89142,-0.82012 69.89141,-0.82013 8.49713,8.46623 c 15.06625,15.01145 14.48976,41.02395 -1.2002,54.1568 l -7.8347,6.55781 -54.24953,0.0608 c -29.83723,0.0334 -58.8614,1.11947 -64.49818,2.4134 -20.63179,4.73605 -31.76961,26.85073 -22.68321,45.03864 7.01734,14.04636 14.66596,18.10506 39.58651,21.00629 38.91679,4.5307 64.91507,20.78928 79.11103,49.47376 29.27419,59.15174 0.11452,128.92356 -60.18687,144.01159 -12.84267,3.21338 -239.55609,5.86416 -254.0811,2.97077 z m 382.23248,-66.05938 c -2.81839,-1.15964 -8.00678,-5.19502 -11.52976,-8.96753 l -6.40543,-6.85909 0,-74.3409 0,-74.34088 7.07715,-14.33527 c 14.81818,-30.01535 47.58609,-51.16799 85.8204,-55.39957 24.34819,-2.69475 32.75913,-7.13957 38.25083,-20.21398 5.95799,-14.18455 3.055,-28.07269 -7.96853,-38.12189 l -9.08806,-8.28481 -178.58054,0 c -175.08076,0 -178.79422,0.10289 -189.48414,5.2506 -7.91638,3.8121 -12.34971,8.22213 -16.18196,16.09689 -5.07108,10.42039 -5.27835,15.02131 -5.27835,117.16893 0,113.96838 -0.62306,120.06011 -12.95107,126.62317 -17.38324,9.25433 -32.53076,7.45778 -44.84338,-5.31856 l -7.54086,-7.82487 -1.3681,-106.24564 c -0.75246,-58.43511 -0.44162,-113.60551 0.69075,-122.60089 2.88995,-22.95749 14.62888,-45.29645 32.92559,-62.65683 17.41723,-16.52589 35.31452,-25.41367 58.70877,-29.15472 23.14025,-3.70044 347.48939,-3.63995 367.84127,0.0686 41.44032,7.55131 70.69739,37.41027 78.10235,79.70908 10.41598,59.49867 -31.9821,116.90823 -90.60564,122.68545 -14.27369,1.40664 -19.02849,3.0924 -26.07079,9.24311 -11.96133,10.44699 -14.12037,23.18649 -14.12037,83.31813 0,43.80037 -0.60101,51.36591 -4.68177,58.93494 -7.81103,14.48797 -27.7134,21.74038 -42.71836,15.56653 z"
         id="path5182"
         inkscape:connector-curvature="0" />
      <path
         style="fill-opacity:1"
         d="M 138.77706,762.80774 C 108.42624,759.09064 77.172043,736.48231 63.788637,708.5634 51.42598,682.77386 50.522644,670.52388 51.367463,540.12197 c 0.856315,-132.1764 0.540266,-129.58591 17.168522,-140.7206 10.656106,-7.1356 21.943835,-7.42308 32.804905,-0.8355 17.45795,10.58878 17.14888,8.15687 18.63823,146.65351 1.28404,119.40599 1.57042,125.27782 6.52593,133.80682 3.06942,5.28279 9.82093,11.25893 16.55646,14.65503 11.24647,5.67053 12.54787,5.73447 116.52008,5.72504 99.7018,-0.0102 105.57058,-0.26669 113.33444,-4.97572 16.42166,-9.9603 21.51335,-28.28404 12.61553,-45.4001 -5.52442,-10.62688 -14.33549,-14.79949 -35.66614,-16.89022 -27.63743,-2.70886 -44.26673,-10.21229 -62.22653,-28.07769 -31.61697,-31.45077 -39.84241,-80.45229 -20.2064,-120.37588 8.72437,-17.73824 32.72175,-39.60023 51.72859,-47.12558 13.85147,-5.48419 19.12159,-5.92748 80.55831,-6.77604 56.31285,-0.77779 66.86722,-0.3267 73.61902,3.14643 21.57908,11.10032 21.81274,50.2384 0.36582,61.27074 -6.03265,3.10321 -18.53865,3.87724 -63.37031,3.92216 -48.81153,0.0489 -57.17122,0.6509 -66.29746,4.77409 -24.18629,10.92723 -24.70113,46.19716 -0.86107,58.99031 2.2379,1.2009 13.70223,3.38504 25.47629,4.85362 50.88612,6.34703 83.95522,36.75564 89.12614,81.95574 5.37778,47.00827 -14.27067,85.92044 -52.95733,104.87776 l -16.90355,8.2831 -60.2756,0.6427 c -33.15157,0.35348 -86.26866,0.92694 -118.03797,1.27436 -31.7693,0.34741 -63.64114,-0.0884 -70.82631,-0.96831 z m 376.52902,-67.04912 c -4.55211,-2.03534 -10.65427,-7.49297 -13.56034,-12.12807 -5.05577,-8.06378 -5.25142,-11.4543 -4.53427,-78.57893 l 0.74951,-70.15152 8.35186,-16.86723 c 12.78596,-25.82219 35.83644,-43.9166 65.84882,-51.6907 8.39892,-2.17558 19.6977,-3.95559 25.10839,-3.95559 27.00591,0 42.76443,-25.43627 31.01608,-50.06394 -8.04551,-16.86552 0.0151,-16.20229 -196.91639,-16.20229 -173.53391,0 -178.56989,0.13692 -188.39387,5.1224 -19.33712,9.81321 -19.00836,7.64887 -20.44809,134.61787 l -1.28108,112.97891 -9.57051,8.72158 c -8.19364,7.46685 -11.39068,8.72158 -22.2224,8.72158 -15.43282,0 -26.903,-8.29707 -31.08959,-22.48898 -1.85055,-6.27307 -2.50094,-46.89995 -1.96791,-122.92514 l 0.79618,-113.55536 9.6147,-19.34581 c 11.91584,-23.97593 33.25127,-44.70825 54.99147,-53.43696 l 14.82108,-5.95068 194.98318,0 194.98321,0 17.54604,8.92046 c 32.75152,16.65093 49.83478,45.9799 49.83478,85.5575 0,34.77158 -11.49299,61.72019 -35.53813,83.32935 -15.04598,13.52169 -28.63316,19.53379 -50.3302,22.27024 -23.17285,2.92259 -32.994,7.58784 -38.98082,18.51673 -3.82514,6.98279 -4.71142,17.39811 -5.80823,68.25739 -1.1136,51.637 -1.9254,60.97383 -5.81382,66.86793 -9.4502,14.32465 -27.42749,20.05974 -42.18965,13.45926 z"
         id="path5180"
         inkscape:connector-curvature="0" />
      <path
         style="fill-opacity:1"
         d="M 123.88427,759.62574 C 92.519197,749.58217 70.462388,727.99748 57.755489,694.91245 52.201218,680.45077 52.152119,678.95259 52.979344,549.1774 53.878345,408.14165 53.831652,408.62858 67.298857,399.85091 c 15.47322,-10.08515 36.536163,-5.11816 45.767543,10.79274 4.36323,7.52033 4.82648,17.48704 5.98231,128.70941 0.68906,66.30683 1.82758,124.30987 2.53003,128.89565 1.82589,11.91976 14.18598,24.79835 27.25095,28.39411 7.79699,2.14588 41.13778,2.79088 116.44856,2.25269 l 105.5236,-0.75405 7.89325,-7.52471 c 10.41438,-9.92814 14.01263,-23.23052 9.75751,-36.07241 -4.67685,-14.11466 -15.26486,-20.12251 -41.37104,-23.47476 -50.96944,-6.54492 -81.17932,-36.84635 -88.89336,-89.1628 -7.57693,-51.38659 27.73366,-100.31305 79.43591,-110.06664 7.54133,-1.42267 39.55341,-2.58668 71.13789,-2.58668 63.23838,0 69.03916,1.15559 76.34475,15.20879 4.98775,9.59452 4.98775,28.80284 0,38.39737 -7.30083,14.04406 -13.12827,15.20878 -76.09389,15.20878 -50.48078,0 -58.19765,0.54531 -65.90515,4.65715 -16.20969,8.64767 -22.16404,28.0924 -13.90443,45.40679 5.51425,11.55929 14.47034,15.80166 40.02424,18.95892 43.87197,5.42053 71.59418,26.22558 84.11648,63.12797 4.48843,13.22715 5.30264,20.49398 4.45538,39.76417 -0.88946,20.23004 -2.21617,25.96245 -9.34031,40.35757 -10.11849,20.44555 -28.2328,37.45026 -48.625,45.64645 -14.49038,5.82406 -15.62419,5.8758 -140.15484,6.39584 -96.57588,0.40328 -127.91123,-0.23295 -135.79497,-2.75752 z m 391.42181,-63.86712 c -4.55211,-2.03534 -10.66803,-7.49297 -13.5909,-12.12807 -5.10085,-8.08886 -5.28099,-11.24293 -4.48424,-78.51669 0.82776,-69.89178 0.84947,-70.13073 7.70765,-84.79509 15.29254,-32.69897 55.11575,-57.63105 92.43369,-57.86988 34.18477,-0.21878 48.45777,-43.91568 20.50107,-62.76418 -6.8786,-4.63759 -14.57867,-4.83871 -185.24768,-4.83871 -168.91031,0 -178.56764,0.24561 -187.72936,4.77445 -5.31223,2.62594 -12.23009,8.36052 -15.37302,12.7435 -5.65241,7.88258 -5.72832,9.18603 -6.99551,120.11192 -0.94513,82.73426 -2.11672,113.59488 -4.4676,117.67978 -9.86839,17.14741 -34.34139,21.91662 -49.09509,9.56745 -4.31025,-3.60777 -9.08065,-10.77599 -10.60089,-15.92939 -1.85055,-6.27307 -2.50094,-46.89995 -1.96791,-122.92514 l 0.79618,-113.55536 9.54616,-19.20786 c 11.67166,-23.48456 28.71999,-40.12922 52.65478,-51.40803 l 17.22631,-8.11756 194.72486,0 194.72487,0 14.5954,6.8055 c 18.58828,8.66729 35.01578,25.00845 44.54149,44.30736 6.95378,14.08827 7.47951,17.22283 7.47951,44.59562 0,28.89784 -0.17807,29.80071 -9.63166,48.82815 -16.36757,32.94344 -47.50154,55.43974 -76.93766,55.5924 -17.44084,0.0905 -31.88738,8.08788 -37.72615,20.88474 -4.43194,9.71351 -4.98819,16.9636 -5.04179,65.71513 -0.0517,47.05917 -0.69286,56.03116 -4.54006,63.53637 -8.64163,16.85818 -27.35451,24.13368 -43.50245,16.91359 z"
         id="path5178"
         inkscape:connector-curvature="0" />
      <path
         style="fill-opacity:1"
         d="M 120.80925,758.4764 C 84.564624,745.77643 59.014708,713.42301 54.040935,673.92879 52.89345,664.81719 52.573594,602.67837 53.330146,535.8425 c 1.33889,-118.28111 1.518639,-121.71133 6.744606,-128.70941 2.952979,-3.95433 9.799828,-8.66453 15.215222,-10.4671 12.75094,-4.2443 27.928326,0.22319 35.555186,10.46571 5.17822,6.95412 5.43607,11.41115 7.91477,136.81213 2.46799,124.85947 2.75633,129.8823 7.84482,136.65586 2.90546,3.8676 8.46506,9.3967 12.35468,12.28688 6.84347,5.08504 10.58647,5.27884 115.81224,5.99635 124.84328,0.85127 123.25399,1.08305 132.31669,-19.29695 6.06719,-13.64381 4.58943,-25.12005 -4.63947,-36.03036 -7.6047,-8.99013 -8.9161,-9.45051 -36.48868,-12.80972 -37.70521,-4.59365 -62.10552,-22.02746 -78.24035,-55.90199 -7.56281,-15.87787 -8.04062,-18.62276 -8.04062,-46.19108 0,-27.20739 0.51697,-30.28648 7.20625,-42.92068 15.48002,-29.23742 42.09539,-48.68359 73.58825,-53.76625 24.43582,-3.94372 125.19556,-3.385 132.66044,0.73561 14.80019,8.16969 20.71578,33.33955 11.84578,50.40204 -6.93641,13.34305 -15.24819,14.96486 -76.6949,14.96486 -42.28971,0 -57.32249,0.86088 -64.08042,3.66968 -22.75114,9.45607 -25.86784,45.00184 -5.13092,58.51777 3.64899,2.37834 15.55785,5.33665 26.46408,6.57399 59.25854,6.72307 92.70956,42.1703 92.70956,98.24209 0,32.02242 -14.28458,61.71415 -38.00363,78.99376 -24.4492,17.81152 -21.29214,17.45157 -160.56449,18.3076 -116.32317,0.71499 -126.52511,0.42872 -138.86999,-3.89689 z m 396.60798,-62.3618 c -4.80018,-1.68879 -11.14155,-6.32723 -14.09194,-10.30761 -5.18406,-6.99389 -5.34432,-9.67581 -4.76986,-79.81286 0.53767,-65.64768 1.07153,-73.64866 5.59222,-83.81475 14.82317,-33.33411 46.51047,-53.95838 91.42412,-59.50512 16.81818,-2.07701 20.89615,-3.57815 27.4612,-10.10871 10.87787,-10.82067 12.61979,-30.79282 3.81159,-43.7017 -10.78123,-15.80039 -7.62968,-15.56847 -200.48967,-14.75411 -169.05027,0.71383 -174.62719,0.89155 -183.06193,5.83366 -4.78487,2.80357 -11.12624,8.33344 -14.09193,12.28861 -5.24307,6.99237 -5.42758,10.31702 -6.67325,120.24386 -1.24391,109.77279 -1.43691,113.26128 -6.65241,120.24385 -2.95423,3.95518 -8.14262,8.60796 -11.52976,10.33952 -16.18749,8.27533 -39.31141,-0.57401 -45.0869,-17.25442 -2.17324,-6.27659 -3.09994,-40.29326 -3.20271,-117.56211 -0.13272,-99.79701 0.25419,-110.00452 4.70957,-124.24444 12.08652,-38.62994 41.31897,-65.77598 79.6974,-74.00915 10.34397,-2.21905 63.49691,-2.80848 199.8492,-2.21622 l 185.75728,0.80686 14.7017,7.17954 c 18.74857,9.15581 35.51694,25.846 44.67058,44.46226 6.60924,13.44157 7.193,17.00581 7.2175,44.06668 0.0261,28.93063 -0.14118,29.77973 -9.6222,48.86272 -16.52825,33.26681 -41.16581,50.92377 -77.43988,55.4987 -38.99573,4.91818 -40.61745,8.24524 -42.29783,86.77568 -1.10496,51.63944 -1.91458,60.96769 -5.80359,66.86791 -8.9019,13.50557 -25.09929,19.09135 -40.0785,13.82135 z"
         id="path5176"
         inkscape:connector-curvature="0" />
      <path
         style="fill-opacity:1"
         d="M 120.77618,758.03691 C 93.614621,748.43049 74.992052,731.02154 61.710666,702.82059 L 54.705695,687.94665 53.958313,554.9495 C 53.146454,410.47869 53.273191,408.99257 67.178668,399.92925 c 8.327832,-5.42792 27.458897,-5.45414 35.751792,-0.049 13.70647,8.93362 13.89122,10.6711 15.18377,142.79042 1.28845,131.7007 1.45719,133.33503 15.04796,145.74338 3.3523,3.06063 9.34084,6.78811 13.30785,8.28328 4.69058,1.76785 44.56033,2.71513 114.01654,2.70894 99.97623,-0.0102 107.30823,-0.31553 114.69535,-4.79651 20.4938,-12.43139 20.71545,-44.28799 0.39978,-57.45682 -3.15106,-2.04256 -15.39818,-4.91321 -27.21585,-6.37925 -39.20183,-4.86315 -64.75796,-22.54691 -80.54354,-55.73271 -7.58754,-15.95117 -8.12424,-18.92811 -8.13334,-45.11382 -0.009,-25.04336 0.7178,-29.57954 6.80667,-42.49997 15.07248,-31.9834 42.73384,-51.34047 79.81307,-55.85216 11.86543,-1.44374 44.76858,-2.27 73.11809,-1.83611 l 51.54459,0.78888 8.37045,8.3323 c 7.72466,7.68943 8.37046,9.60288 8.37046,24.80082 0,15.1977 -0.6459,17.11151 -8.37007,24.80083 l -8.37005,8.33229 -62.08961,1.27435 c -44.54388,0.91423 -63.7574,2.2206 -67.99157,4.62289 -14.90088,8.45415 -20.3673,32.6217 -10.87963,48.1 6.74913,11.01065 12.99009,13.82977 36.37867,16.43273 40.75003,4.53511 66.53168,21.05673 82.17085,52.65739 7.89248,15.94769 8.40537,18.62831 8.40537,43.93118 0,26.0476 -0.32383,27.59889 -9.70088,46.47233 -10.17689,20.48333 -21.55453,32.01992 -41.94125,42.52725 -16.38384,8.44425 -45.56624,10.24422 -163.58009,10.08967 -98.04406,-0.12845 -108.79857,-0.56092 -120.96787,-4.86493 z M 517.41723,696.1146 c -4.80018,-1.68879 -11.14155,-6.32042 -14.09194,-10.2925 -5.18941,-6.98647 -5.3382,-9.52098 -4.56347,-77.73539 0.44046,-38.78239 1.86525,-74.5895 3.1662,-79.57135 5.68243,-21.76035 32.92887,-48.15596 60.1759,-58.2968 7.77247,-2.89276 22.46192,-6.01645 32.64321,-6.94152 17.05378,-1.54951 19.29229,-2.45407 28.42712,-11.48706 9.68751,-9.57951 9.89013,-10.15599 8.80664,-25.05636 -1.2876,-17.70714 -7.71108,-26.53297 -22.41209,-30.79399 -6.02328,-1.74581 -68.29376,-2.38046 -183.34856,-1.86866 -170.41637,0.75807 -174.42348,0.88954 -183.1864,6.01023 -4.92738,2.87936 -11.557,9.07027 -14.73247,13.75759 -5.75958,8.50171 -5.77362,8.7797 -5.78788,114.55376 -0.008,62.31888 -1.06307,109.78693 -2.55827,115.14109 -7.18762,25.73804 -43.33472,30.79856 -58.25483,8.15557 -4.13395,-6.27376 -4.50792,-16.36557 -4.50792,-121.64746 0,-127.63838 0.0961,-128.51804 16.85237,-154.30703 11.59164,-17.84024 30.33643,-33.17672 50.39923,-41.23527 l 14.73781,-5.91969 186.74674,-0.71712 c 202.68675,-0.77834 201.74267,-0.8342 224.14543,13.26095 25.17626,15.84014 41.35459,43.43791 43.31965,73.89666 3.86854,59.96337 -31.9645,106.41598 -87.36595,113.25795 -21.29783,2.63023 -29.78294,6.65098 -36.93088,17.50002 -3.88573,5.89769 -4.72518,15.5085 -5.98628,68.5363 -1.23586,51.966 -2.14912,62.71258 -5.80057,68.25608 -8.71163,13.22574 -25.04021,18.76945 -39.89279,13.544 z"
         id="path5174"
         inkscape:connector-curvature="0" />
      <path
         style="fill-opacity:1"
         d="M 123.94849,758.88848 C 95.735255,750.27881 72.135503,728.28122 60.561236,699.80458 54.760464,685.5327 54.698882,684.16364 53.977253,553.43492 53.320845,434.52122 53.671714,420.58538 57.52546,412.5069 c 9.630705,-20.18852 41.455927,-22.47313 54.15257,-3.8874 4.12218,6.03417 4.63241,17.71287 5.80081,132.77682 l 1.28109,126.16072 6.23655,10.83175 c 4.11673,7.15003 9.83474,12.56446 16.8225,15.92938 10.07122,4.84977 15.81019,5.09718 118.02865,5.0881 103.24619,-0.0102 107.77398,-0.21052 115.92396,-5.15319 14.98562,-9.08847 20.03429,-30.04853 10.84776,-45.03565 -7.46075,-12.17168 -15.23642,-15.9721 -37.95192,-18.54925 -11.31813,-1.28406 -24.77172,-4.07754 -29.89691,-6.20774 -38.85914,-16.15102 -62.55927,-56.79896 -59.88734,-102.71237 1.48047,-25.43986 9.95486,-44.50222 27.57683,-62.03156 25.36178,-25.22846 47.47528,-30.16057 135.91698,-30.31438 46.89705,-0.0816 51.32745,1.02096 61.00284,15.18067 5.00679,7.32734 5.87834,11.25776 4.97584,22.43921 -0.89102,11.0392 -2.60647,15.06118 -9.24003,21.66397 l -8.14585,8.10807 -62.5516,1.27435 c -58.40947,1.18996 -63.0299,1.62817 -69.77489,6.61745 -3.97282,2.9387 -8.64755,8.09982 -10.38827,11.46915 -7.50905,14.53454 -0.94877,38.66683 12.45069,45.80029 3.14416,1.67386 14.44738,4.01309 25.11825,5.19829 40.84989,4.53709 67.19719,21.32809 82.73693,52.72783 7.88456,15.93168 8.40537,18.64551 8.40537,43.79898 0,24.717 -0.62091,28.1111 -7.93608,43.38152 -9.62395,20.08991 -24.44786,35.72856 -42.57875,44.91887 -17.77031,9.00757 -48.25964,10.89662 -174.95606,10.83994 -77.62389,-0.0347 -97.10976,-0.74721 -107.54689,-3.93224 z m 386.25157,-67.04925 c -4.92718,-2.98843 -8.88909,-7.86787 -9.82216,-12.0968 -0.86009,-3.89839 -1.88888,-8.2349 -2.28619,-9.63669 -0.39729,-1.40179 0.0356,-33.51542 0.96183,-71.36364 1.65537,-67.63742 1.79854,-69.03385 8.36715,-81.60891 8.60223,-16.46826 29.14691,-35.51673 47.14845,-43.71478 7.89241,-3.59428 22.89439,-7.50199 33.86691,-8.82165 23.1659,-2.78614 33.82209,-7.45601 39.73494,-17.41304 6.21864,-10.47199 5.67731,-30.79817 -1.0467,-39.30142 -11.73035,-14.83437 -4.5901,-14.31065 -195.10957,-14.31065 l -175.09294,0 -11.28212,5.73457 c -22.80134,11.58967 -21.65964,5.01126 -23.11188,133.16856 -1.24266,109.66238 -1.44173,113.26884 -6.63753,120.24466 -2.94604,3.95533 -10.15214,8.87649 -16.01355,10.93597 -14.79544,5.19848 -29.96695,0.0637 -37.405,-12.65958 -5.0318,-8.60727 -5.21294,-12.91982 -5.2455,-124.88638 l -0.0337,-115.97125 9.4286,-19.64092 c 15.09402,-31.44266 38.5849,-51.23692 70.43935,-59.35476 13.67624,-3.48527 39.45331,-3.90581 201.06712,-3.28028 l 185.37974,0.71752 15.37301,7.13511 c 43.33792,20.11451 63.63804,66.16534 51.27993,116.32858 -10.68297,43.36369 -41.72759,70.92713 -86.13176,76.47341 -10.95435,1.36825 -21.21635,4.28292 -25.13785,7.13979 -13.31188,9.69791 -14.6345,16.08632 -16.49094,79.65359 -1.88199,64.44231 -3.23282,70.63211 -16.95469,77.69066 -10.3453,5.32167 -25.37217,4.82638 -35.24492,-1.16167 z"
         id="path5172"
         inkscape:connector-curvature="0" />
      <path
         style="fill-opacity:1"
         d="M 126.44644,759.55968 C 90.635126,748.26404 66.66521,723.438 57.4011,688.04834 54.067344,675.31312 53.424611,652.53617 53.424611,547.13106 c 0,-118.9461 0.265281,-126.24403 4.918829,-135.31779 10.979728,-21.40892 42.23992,-21.16068 54.6678,0.43412 2.37059,4.11915 3.51455,37.51498 4.4676,130.42328 1.24748,121.61034 1.42538,125.15431 6.78152,135.10118 3.26967,6.07208 9.64587,12.53243 15.72187,15.92939 10.14316,5.6708 11.05255,5.71449 118.76478,5.70503 103.1356,-0.0102 108.95201,-0.25739 116.746,-4.9847 11.44728,-6.94312 17.01088,-18.67033 15.43896,-32.54299 -2.08212,-18.37555 -18.3448,-31.2417 -39.57288,-31.30796 -36.74725,-0.11469 -71.76132,-25.51826 -85.77369,-62.2309 -4.74915,-12.44285 -5.8995,-20.46714 -5.87217,-40.96125 0.0297,-22.24615 0.90548,-27.34591 6.88755,-40.10583 8.67342,-18.50064 27.30689,-37.1338 46.45226,-46.45153 12.83747,-6.24777 19.32809,-7.51993 47.36744,-9.28395 17.87036,-1.12427 48.63323,-2.09374 68.36193,-2.15438 31.58712,-0.0971 36.88312,0.50394 44.35161,5.03342 19.44367,11.79217 21.00244,41.11003 3.04581,57.28646 -5.23254,4.71379 -10.27445,5.1859 -67.98276,6.36574 -58.18517,1.18959 -62.8115,1.62974 -69.55408,6.61745 -3.97267,2.9387 -8.64724,8.09982 -10.38796,11.46915 -4.0793,7.89593 -4.06014,24.75584 0.0374,32.81093 4.83164,9.49837 19.06111,17.91741 30.28318,17.91741 39.37772,0 74.05543,20.45868 89.93975,53.06146 7.7398,15.88595 8.29612,18.82241 8.29612,43.78919 0,24.91947 -0.56608,27.92308 -8.22479,43.64054 -10.1475,20.82506 -25.63363,36.67885 -44.14482,45.19286 -12.35673,5.68335 -18.98204,6.70836 -53.80555,8.32424 -68.68008,3.18687 -212.57382,2.33198 -224.18982,-1.33195 z m 385.4572,-66.44301 c -12.22083,-6.61197 -13.10349,-12.5281 -12.78684,-85.70368 0.16168,-37.35025 1.25518,-71.24379 2.43012,-75.31896 6.85065,-23.76124 28.62325,-47.71852 53.18835,-58.52526 7.88869,-3.47041 23.58623,-7.46275 34.88343,-8.87185 11.29719,-1.4091 23.81244,-4.24517 27.81165,-6.30236 9.51439,-4.89422 15.47156,-16.76223 15.47156,-30.82282 0,-13.14513 -5.08406,-22.04229 -16.5798,-29.01484 -7.90427,-4.7942 -14.2471,-4.96653 -183.1382,-4.97573 -186.42302,-0.0102 -185.0079,-0.097 -198.65436,12.18799 -13.20194,11.88479 -13.19386,11.81114 -14.56394,132.66549 l -1.28108,113.00422 -7.05607,6.03395 c -14.8491,12.69812 -39.50425,9.92528 -48.53642,-5.45863 -4.09378,-6.97268 -4.72895,-18.65756 -6.23083,-114.62527 -1.77199,-113.2272 -0.89875,-126.2275 9.91713,-147.64033 15.83848,-31.35635 41.00026,-51.77014 72.29627,-58.65407 15.58139,-3.42731 42.85635,-3.8695 199.95648,-3.24171 l 181.91402,0.72695 14.4688,5.81957 c 45.98622,18.49633 67.87327,67.38062 53.88058,120.34115 -10.87549,41.16232 -42.37749,68.41941 -85.26603,73.77638 -10.95435,1.36825 -21.21635,4.28292 -25.13785,7.13979 -13.4488,9.79766 -14.84936,16.46633 -16.87314,80.34077 -2.03841,64.33504 -3.29495,70.1735 -16.57249,77.00348 -9.28882,4.77821 -24.82471,4.83181 -33.54134,0.11571 z"
         id="path5170"
         inkscape:connector-curvature="0" />
    </g>
  </g>
</svg>
