<?xml version="1.0" encoding="UTF-8" standalone="no"?>
<!-- Created with Inkscape (http://www.inkscape.org/) -->

<svg
   xmlns:dc="http://purl.org/dc/elements/1.1/"
   xmlns:cc="http://creativecommons.org/ns#"
   xmlns:rdf="http://www.w3.org/1999/02/22-rdf-syntax-ns#"
   xmlns:svg="http://www.w3.org/2000/svg"
   xmlns="http://www.w3.org/2000/svg"
   xmlns:sodipodi="http://sodipodi.sourceforge.net/DTD/sodipodi-0.dtd"
   xmlns:inkscape="http://www.inkscape.org/namespaces/inkscape"
   width="210mm"
   height="297mm"
   viewBox="0 0 744.09448819 1052.3622047"
   id="svg3613"
   version="1.1"
   inkscape:version="0.91 r13725"
   sodipodi:docname="lua.svg">
  <defs
     id="defs3615" />
  <sodipodi:namedview
     id="base"
     pagecolor="#ffffff"
     bordercolor="#666666"
     borderopacity="1.0"
     inkscape:pageopacity="0.0"
     inkscape:pageshadow="2"
     inkscape:zoom="0.35"
     inkscape:cx="375"
     inkscape:cy="520"
     inkscape:document-units="px"
     inkscape:current-layer="layer1"
     showgrid="false"
     inkscape:window-width="1600"
     inkscape:window-height="847"
     inkscape:window-x="-8"
     inkscape:window-y="-8"
     inkscape:window-maximized="1" />
  <metadata
     id="metadata3618">
    <rdf:RDF>
      <cc:Work
         rdf:about="">
        <dc:format>image/svg+xml</dc:format>
        <dc:type
           rdf:resource="http://purl.org/dc/dcmitype/StillImage" />
        <dc:title></dc:title>
      </cc:Work>
    </rdf:RDF>
  </metadata>
  <g
     inkscape:label="Camada 1"
     inkscape:groupmode="layer"
     id="layer1">
    <path
       style="fill:#000000"
       d="M 244.02184,876.12423 C 87.969617,834.03119 -7.3081282,675.1512 25.7511,512.14781 49.383906,395.6226 143.99415,299.34417 258.50039,275.29468 c 101.63777,-21.34681 203.80479,8.53334 275.601,80.60324 43.91643,44.08383 70.64835,91.89865 83.82873,149.94289 10.3507,45.58257 8.49533,121.00756 -3.95253,160.68028 -31.52748,100.48165 -104.83365,175.09591 -203.77868,207.41489 -20.31513,6.63565 -35.80733,8.5166 -79.33975,9.63285 -48.30842,1.23871 -57.59789,0.44234 -86.83732,-7.4446 z m 86.05157,-142.97577 c 6.38264,-2.71502 14.01084,-7.88864 16.95159,-11.4969 5.05526,-6.20284 5.45733,-6.08378 7.37527,2.18397 1.57142,6.77407 4.42976,8.74447 12.68499,8.74447 l 10.65647,0 0,-73.39879 0,-73.39879 -11.72063,-1.15001 -11.72065,-1.15001 0,46.03252 c 0,33.91799 -1.54128,49.95243 -5.85655,60.92749 -7.16934,18.23387 -22.12407,27.29433 -39.55732,23.96616 -20.8169,-3.97413 -23.10682,-11.3697 -23.10682,-74.62616 l 0,-56.30001 -11.72065,1.15001 -11.72064,1.15001 0,62.92919 c 0,57.74304 0.59441,63.60651 7.2127,71.14776 14.90009,16.97798 39.27053,22.32912 60.52224,13.28909 z m 143.84968,1.15462 c 7.27935,-2.05749 16.94273,-6.79596 21.47413,-10.52999 8.09834,-6.67327 8.35649,-6.63704 15.1276,2.12283 5.44051,7.03848 9.64469,8.67777 19.9989,7.79801 11.19429,-0.95113 13.27305,-2.54737 14.22446,-10.92264 0.89349,-7.86566 -0.53535,-10.04669 -7.2127,-11.00982 -8.14479,-1.17482 -8.36642,-2.32501 -10.13013,-52.58026 -1.05736,-30.12723 -3.61079,-54.58647 -6.1733,-59.13318 -6.36484,-11.29336 -25.04519,-17.96162 -49.72516,-17.75017 -25.58161,0.21902 -42.61447,8.17324 -50.42788,23.54912 -8.99517,17.70143 -7.27935,25.80969 5.46163,25.80969 7.15483,0 11.70561,-2.21915 13.17043,-6.4224 5.02025,-14.40562 12.78896,-19.26718 30.78866,-19.26718 24.35439,0 31.66115,4.65821 31.66115,20.18466 0,15.03722 -4.94716,18.36779 -32.45716,21.85103 -29.81345,3.7749 -42.09453,8.68977 -52.17408,20.87985 -15.19693,18.37894 -10.09493,51.06342 9.49177,60.80635 18.55483,9.22963 27.46915,10.10663 46.90168,4.6141 z m -29.46384,-22.96304 c -6.24475,-3.1979 -9.35811,-8.18781 -10.12941,-16.23467 -1.44505,-15.07641 8.67493,-22.06679 39.1845,-27.06683 12.49048,-2.04704 24.0457,-4.56191 25.67826,-5.5887 4.38468,-2.75765 3.60846,27.19116 -0.92834,35.8177 -4.36088,8.292 -24.005,17.82612 -36.559,17.74363 -4.52658,-0.0293 -12.28728,-2.13174 -17.24601,-4.67113 z m -202.62881,9.31266 1.13009,-11.9273 -50.71742,0 -50.71744,0 0,-89.91352 0,-89.91352 -12.62223,0 -12.62223,0 0,102.84494 0,102.84502 62.20958,-1.00419 62.20956,-1.00413 1.13009,-11.9273 z M 485.95855,531.27901 c 76.4961,-36.25052 65.88457,-148.69005 -16.15431,-171.17033 -64.66146,-17.71853 -126.06633,47.89659 -106.969,114.30341 15.44387,53.7029 73.35629,80.45086 123.12331,56.86692 z M 592.31969,350.56886 c -16.38349,-7.21037 -34.71414,-25.25002 -44.40675,-43.70184 -11.90843,-22.67001 -10.80849,-60.87698 2.41355,-83.83651 31.24004,-54.24693 103.90892,-61.0059 143.96033,-13.38984 15.56297,18.50242 22.27606,41.58757 19.64298,67.54911 -4.76288,46.96184 -40.3369,79.13416 -87.34977,78.99717 -11.90096,-0.0344 -27.31812,-2.56282 -34.26034,-5.61809 z"
       id="path3643"
       inkscape:connector-curvature="0" />
  </g>
</svg>
