<?xml version="1.0" encoding="UTF-8" standalone="no"?>
<!-- Created with Inkscape (http://www.inkscape.org/) -->

<svg
   xmlns:dc="http://purl.org/dc/elements/1.1/"
   xmlns:cc="http://creativecommons.org/ns#"
   xmlns:rdf="http://www.w3.org/1999/02/22-rdf-syntax-ns#"
   xmlns:svg="http://www.w3.org/2000/svg"
   xmlns="http://www.w3.org/2000/svg"
   xmlns:sodipodi="http://sodipodi.sourceforge.net/DTD/sodipodi-0.dtd"
   xmlns:inkscape="http://www.inkscape.org/namespaces/inkscape"
   width="210mm"
   height="297mm"
   viewBox="0 0 744.09448819 1052.3622047"
   id="svg3645"
   version="1.1"
   inkscape:version="0.91 r13725"
   sodipodi:docname="matlab.svg">
  <defs
     id="defs3647" />
  <sodipodi:namedview
     id="base"
     pagecolor="#ffffff"
     bordercolor="#666666"
     borderopacity="1.0"
     inkscape:pageopacity="0.0"
     inkscape:pageshadow="2"
     inkscape:zoom="0.35355339"
     inkscape:cx="792.24978"
     inkscape:cy="750.05051"
     inkscape:document-units="px"
     inkscape:current-layer="layer1"
     showgrid="false"
     inkscape:window-width="1600"
     inkscape:window-height="847"
     inkscape:window-x="-8"
     inkscape:window-y="-8"
     inkscape:window-maximized="1" />
  <metadata
     id="metadata3650">
    <rdf:RDF>
      <cc:Work
         rdf:about="">
        <dc:format>image/svg+xml</dc:format>
        <dc:type
           rdf:resource="http://purl.org/dc/dcmitype/StillImage" />
        <dc:title></dc:title>
      </cc:Work>
    </rdf:RDF>
  </metadata>
  <g
     inkscape:label="Camada 1"
     inkscape:groupmode="layer"
     id="layer1">
    <path
       style="fill:#000000"
       d="m 24.189671,543.69044 0,-335.279 343.764289,0 343.76429,0 0,335.279 0,335.279 -343.76429,0 -343.764289,0 0,-335.279 z M 448.75663,734.42717 c 101.71794,-107.60021 121.17214,-110.4773 207.21135,-30.64445 15.67814,14.54722 29.88522,25.10406 31.57126,23.45959 1.68609,-1.64442 -5.89172,-23.6475 -16.83949,-48.89572 C 650.72081,632.27047 637.67896,597.10604 589.61242,459.7126 535.53244,305.13057 505.13251,252.524 472.42745,256.92628 c -8.17328,1.10019 -31.28039,25.94544 -58.71606,63.1328 -57.24299,77.5894 -76.46423,97.03711 -101.12926,102.32074 -20.81324,4.4585 -65.95674,39.03168 -65.95674,50.513 0,10.69559 62.71954,2.11744 93.65169,-12.80881 15.22226,-7.34553 27.67688,-12.5123 27.67688,-11.4818 0,2.28611 -54.641,97.25852 -58.18966,101.1404 -1.39027,1.52082 -9.34053,-3.15699 -17.66728,-10.39512 -19.4926,-16.94424 -63.98771,-41.67574 -74.97998,-41.67574 -9.44912,0 -114.09626,42.91561 -155.18011,63.63911 l -26.287263,13.2598 67.903663,46.95647 c 65.94565,45.60236 68.79196,46.83766 98.70657,42.83861 26.52706,-3.54617 34.84912,-8.78541 59.95239,-37.74368 57.67534,-66.53224 89.95327,-122.24988 156.58443,-270.29342 17.90109,-39.77329 36.86113,-78.23176 42.13337,-85.46327 8.9492,-12.27489 9.28002,-11.83822 4.98062,6.5741 -2.53296,10.84726 -11.95997,37.70445 -20.94891,59.68271 -8.98894,21.97821 -16.34355,42.33488 -16.34355,45.23705 0,2.90218 -12.66563,33.73265 -28.14575,68.5122 -37.05968,83.26243 -86.78924,158.6596 -127.62849,193.50295 l -33.01582,28.16859 16.69519,22.07046 c 9.1823,12.13878 24.79557,43.05345 34.69609,68.69922 29.31416,75.93404 24.92061,72.14815 62.29283,53.67767 20.81513,-10.28746 54.62968,-39.59984 95.24433,-82.56315 z m 36.6862,-307.11746 c -13.7805,-27.70262 -16.716,-115.69845 -4.56605,-136.87336 6.43683,-11.21804 7.13395,-11.16324 13.85756,1.08994 10.4617,19.06535 29.59182,116.72732 27.0657,138.17402 -3.32192,28.20257 -21.74127,26.99141 -36.35721,-2.3906 z"
       id="path3664"
       inkscape:connector-curvature="0" />
  </g>
</svg>
