<?xml version="1.0" encoding="UTF-8" standalone="no"?>
<!-- Created with Inkscape (http://www.inkscape.org/) -->

<svg
   xmlns:dc="http://purl.org/dc/elements/1.1/"
   xmlns:cc="http://creativecommons.org/ns#"
   xmlns:rdf="http://www.w3.org/1999/02/22-rdf-syntax-ns#"
   xmlns:svg="http://www.w3.org/2000/svg"
   xmlns="http://www.w3.org/2000/svg"
   xmlns:sodipodi="http://sodipodi.sourceforge.net/DTD/sodipodi-0.dtd"
   xmlns:inkscape="http://www.inkscape.org/namespaces/inkscape"
   width="210mm"
   height="297mm"
   viewBox="0 0 744.09448819 1052.3622047"
   id="svg4728"
   version="1.1"
   inkscape:version="0.91 r13725"
   sodipodi:docname="mono.svg">
  <defs
     id="defs4730" />
  <sodipodi:namedview
     id="base"
     pagecolor="#ffffff"
     bordercolor="#666666"
     borderopacity="1.0"
     inkscape:pageopacity="0.0"
     inkscape:pageshadow="2"
     inkscape:zoom="0.49497475"
     inkscape:cx="76.0222"
     inkscape:cy="408.08463"
     inkscape:document-units="px"
     inkscape:current-layer="layer1"
     showgrid="false"
     inkscape:window-width="1600"
     inkscape:window-height="847"
     inkscape:window-x="-8"
     inkscape:window-y="-8"
     inkscape:window-maximized="1" />
  <metadata
     id="metadata4733">
    <rdf:RDF>
      <cc:Work
         rdf:about="">
        <dc:format>image/svg+xml</dc:format>
        <dc:type
           rdf:resource="http://purl.org/dc/dcmitype/StillImage" />
        <dc:title></dc:title>
      </cc:Work>
    </rdf:RDF>
  </metadata>
  <g
     inkscape:label="Camada 1"
     inkscape:groupmode="layer"
     id="layer1">
    <path
       style="fill:#000000"
       d="m 96.246679,815.5398 c 0,-0.88919 123.877001,-162.32193 129.443631,-168.68707 2.08823,-2.38778 22.1299,6.14338 132.95617,56.5957 71.77346,32.67399 131.64465,58.94115 133.04707,58.37144 3.95041,-1.60479 16.63362,-27.17623 30.14698,-60.78104 6.75616,-16.80113 12.27387,-31.18745 12.26149,-31.96959 -0.0151,-0.7821 -5.07772,-4.36161 -11.25648,-7.9544 C 485.01017,639.1146 440.68486,589.54253 421.63883,547.9282 l -4.6489,-10.15746 7.01903,8.99145 c 25.75718,32.99463 82.63872,86.43746 108.16383,101.62476 l 7.28598,4.33509 4.18491,-18.51271 c 8.07537,-35.72263 7.27511,-84.69576 -2.19649,-134.40248 -4.22824,-22.19024 -17.25782,-66.382 -20.97465,-71.13858 -1.31499,-1.68301 -19.58114,-8.77834 -40.59127,-15.76742 -21.01029,-6.98909 -37.93804,-12.98515 -37.61748,-13.3246 0.3207,-0.33944 9.86689,1.59584 21.21382,4.30063 28.42265,6.77518 63.70126,13.00884 73.62206,13.00884 12.19475,0 15.00562,-5.49342 14.78457,-28.89369 -0.30003,-31.75731 -15.81358,-95.73323 -29.25236,-120.63333 -4.90287,-9.0842 -7.47669,-11.51096 -17.41968,-16.42454 -45.4783,-22.47402 -181.2704,-39.47655 -232.20541,-29.07443 -16.07737,3.28338 -36.32574,10.04232 -39.621,13.22555 -0.87183,0.84218 13.32613,4.50765 31.55091,8.14552 18.22478,3.63785 32.8727,6.89303 32.55078,7.23371 -0.32176,0.3407 -31.46167,-3.58581 -69.19995,-8.72556 l -68.6147,-9.345 -8.22501,9.82429 c -17.65447,21.08727 -28.25822,46.17992 -26.20759,62.01783 3.71305,28.67848 28.70289,54.22688 79.26253,81.03415 16.46089,8.72775 29.53698,16.28346 29.05803,16.79051 -0.47895,0.50704 -15.14997,-5.39092 -32.60212,-13.1066 -17.45215,-7.71567 -33.01463,-14.0285 -34.58329,-14.0285 -2.1604,0 -101.675595,28.80019 -121.632632,35.20106 -3.219248,1.03251 -3.349962,-4.29858 -2.831107,-115.46568 l 0.543995,-116.54818 4.718512,-8.90271 c 2.595181,-4.8965 8.401199,-11.64008 12.902236,-14.98575 l 8.183725,-6.08303 286.251301,-0.59252 c 206.45351,-0.42736 288.27445,0.0286 293.5083,1.63558 10.41636,3.19817 22.72511,16.94319 25.45656,28.42688 2.98346,12.54346 3.15649,598.21632 0.17998,609.56378 -2.43989,9.30224 -13.72641,22.98085 -21.98026,26.63886 -4.998,2.21506 -54.71042,2.69169 -280.75141,2.69169 -151.07284,0 -274.677901,-0.43462 -274.677901,-0.96581 z"
       id="path4747"
       inkscape:connector-curvature="0"
       sodipodi:nodetypes="ssssscsscsscsscscsssssssscscssscsssscsscssscsss" />
  </g>
</svg>
