<?xml version="1.0" encoding="UTF-8" standalone="no"?>
<!-- Created with Inkscape (http://www.inkscape.org/) -->

<svg
   xmlns:dc="http://purl.org/dc/elements/1.1/"
   xmlns:cc="http://creativecommons.org/ns#"
   xmlns:rdf="http://www.w3.org/1999/02/22-rdf-syntax-ns#"
   xmlns:svg="http://www.w3.org/2000/svg"
   xmlns="http://www.w3.org/2000/svg"
   xmlns:sodipodi="http://sodipodi.sourceforge.net/DTD/sodipodi-0.dtd"
   xmlns:inkscape="http://www.inkscape.org/namespaces/inkscape"
   width="210mm"
   height="297mm"
   viewBox="0 0 744.09448819 1052.3622047"
   id="svg4356"
   version="1.1"
   inkscape:version="0.91 r13725"
   sodipodi:docname="mysql.svg">
  <defs
     id="defs4358" />
  <sodipodi:namedview
     id="base"
     pagecolor="#ffffff"
     bordercolor="#666666"
     borderopacity="1.0"
     inkscape:pageopacity="0.0"
     inkscape:pageshadow="2"
     inkscape:zoom="0.7"
     inkscape:cx="157.32622"
     inkscape:cy="572.18621"
     inkscape:document-units="px"
     inkscape:current-layer="layer1"
     showgrid="false"
     inkscape:window-width="1600"
     inkscape:window-height="847"
     inkscape:window-x="-8"
     inkscape:window-y="-8"
     inkscape:window-maximized="1" />
  <metadata
     id="metadata4361">
    <rdf:RDF>
      <cc:Work
         rdf:about="">
        <dc:format>image/svg+xml</dc:format>
        <dc:type
           rdf:resource="http://purl.org/dc/dcmitype/StillImage" />
        <dc:title />
      </cc:Work>
    </rdf:RDF>
  </metadata>
  <g
     inkscape:label="Camada 1"
     inkscape:groupmode="layer"
     id="layer1">
    <g
       id="g5022"
       transform="matrix(3.989074,0,0,5.1806992,-2060.2573,-1556.9799)">
      <path
         style="fill-opacity:1"
         d="m 691.35075,478.98156 c -1.56857,-1.66966 -7.41596,-5.39376 -12.9942,-8.27578 -5.57825,-2.88201 -12.21899,-6.86375 -14.75722,-8.8483 -5.36318,-4.1933 -10.57643,-11.99396 -8.98104,-13.43848 2.32799,-2.10784 13.6954,-5.07464 19.44367,-5.07464 3.31503,0 6.02733,-0.49159 6.02733,-1.0924 0,-2.13745 -20.01196,-14.18694 -28.99374,-17.45755 l -9.13126,-3.32505 -6.25,-12.54845 c -3.4375,-6.90164 -9.19059,-18.71414 -12.78464,-26.25 -10.32659,-21.65232 -26.16831,-38.07642 -45.9301,-47.61857 -4.7931,-2.31439 -10.4181,-4.2214 -12.5,-4.2378 -5.30223,-0.0418 -13.37529,-2.04557 -14.30554,-3.55075 -1.02094,-1.65191 -15.69262,-8.91943 -18.00656,-8.91943 -0.98562,0 -2.46246,0.80779 -3.28185,1.7951 -1.80161,2.17081 -0.87445,4.1521 6.85907,14.65734 3.31538,4.50362 6.66056,11.23393 8.75103,17.60653 3.48119,10.61212 6.06707,15.74497 10.51702,20.87581 3.17648,3.66251 3.18281,5.24509 0.0566,14.13981 -2.92699,8.32781 -3.27571,22.81952 -0.72134,29.97656 1.86648,5.22965 5.63841,11.44844 6.45103,10.63583 0.29147,-0.29148 1.13367,-3.85591 1.87155,-7.92096 0.73789,-4.06506 2.77209,-9.85656 4.52045,-12.87001 l 3.17883,-5.47898 6.49361,12.97898 c 8.02958,16.04895 11.95068,22.28079 18.62407,29.59944 6.71149,7.36041 3.79574,5.62566 -7.47089,-4.4449 -5.55952,-4.96931 -10.33915,-10.61036 -12.66893,-14.9522 -3.98151,-7.42006 -4.20091,-7.33201 -5.82731,2.33855 -0.89576,5.32615 -3.20122,7.6256 -7.64553,7.6256 -11.5895,0 -18.86903,-25.71395 -13.18167,-46.5625 2.4904,-9.12924 2.49714,-9.45793 0.25705,-12.53835 -3.86335,-5.31264 -7.63212,-13.44533 -10.29928,-22.22498 -1.61636,-5.32068 -4.59873,-11.04162 -8.2005,-15.7306 -7.85857,-10.23074 -9.73547,-15.02931 -7.75175,-19.81845 3.19455,-7.71232 12.69332,-8.12614 25.49561,-1.11075 3.4375,1.88368 7.375,4.04021 8.75,4.79227 1.375,0.75207 6.3586,1.94929 11.07466,2.66049 21.12597,3.18586 53.38056,31.9208 62.77688,55.92659 1.31915,3.3702 5.62428,12.67974 9.56694,20.68789 l 7.16847,14.56026 9.63724,4.5767 c 10.7428,5.10173 25.8955,16.1425 30.26426,22.05157 1.57117,2.12514 2.60696,4.11361 2.30174,4.41884 -0.30523,0.30522 -3.87039,1.15618 -7.92258,1.89101 -4.05219,0.73482 -9.51714,1.88173 -12.14434,2.54869 -5.88208,1.49326 -5.22985,2.53083 6.50294,10.34479 8.45899,5.63363 21.01961,18.77829 19.08593,19.97337 -0.59055,0.36498 -2.35712,-0.70248 -3.92568,-2.37214 z M 560.40179,347.57539 c -3.41519,-5.3482 -3.51919,-6.73103 -0.50623,-6.73103 3.23811,0 6.72331,4.2569 6.23168,7.61151 -0.62922,4.29337 -2.61677,3.98772 -5.72545,-0.88048 z"
         id="path5036"
         inkscape:connector-curvature="0" />
      <path
         style="fill-opacity:1"
         d="m 688.21429,476.33052 c -3.4375,-2.40685 -8.21184,-5.21552 -10.60965,-6.2415 -8.59734,-3.67864 -16.69822,-9.84041 -20.20316,-15.36712 -1.96145,-3.0929 -3.14349,-6.04537 -2.62674,-6.56103 1.65121,-1.64776 15.64853,-4.81651 21.27595,-4.81651 3.363,0 5.1368,-0.48435 4.65121,-1.27005 -1.99774,-3.2324 -20.65434,-14.37228 -29.2126,-17.44289 l -9.52501,-3.41746 -6.28945,-12.3723 c -3.45919,-6.80477 -7.92618,-16.3098 -9.92664,-21.1223 -7.40307,-17.80955 -19.29256,-33.16878 -34.27164,-44.27324 -10.91844,-8.09417 -19.91471,-12.04553 -30.11293,-13.22625 -5.47453,-0.63382 -9.33578,-1.87994 -11.91055,-3.84381 -5.00757,-3.81946 -14.25811,-7.96976 -17.84052,-8.00425 -5.97638,-0.0575 -4.96573,4.12895 3.90023,16.1562 2.97377,4.0341 6.6874,11.59977 9.11313,18.56588 4.16279,11.95454 6.33933,16.21926 10.77404,21.11064 2.47519,2.73007 2.47463,2.75218 -0.3005,11.875 -4.5626,14.99882 -3.07667,32.9233 3.3148,39.98579 2.65212,2.93056 4.17342,1.80024 4.182,-3.10723 0.0105,-6.03179 2.27979,-12.97642 5.44117,-16.65174 l 2.83178,-3.29213 5.11983,10.67001 c 6.19408,12.9088 12.36709,22.72887 18.72668,29.7905 2.71032,3.00954 3.67549,4.69012 2.24857,3.91532 -1.375,-0.74662 -3.42794,-2.3842 -4.56208,-3.63908 -1.13414,-1.25489 -5.14979,-5.28565 -8.92367,-8.95725 -3.77388,-3.67159 -7.85325,-8.87471 -9.06527,-11.56249 -1.21201,-2.68778 -2.60239,-4.88687 -3.08971,-4.88687 -0.48732,0 -1.2262,2.87205 -1.64194,6.38235 -0.93763,7.91686 -2.49202,9.86765 -7.86255,9.86765 -3.50281,0 -4.84648,-0.87298 -7.96068,-5.172 -7.24866,-10.00649 -9.02459,-23.98741 -5.1249,-40.34555 2.61499,-10.96921 2.61923,-11.18311 0.27212,-13.75 -3.2906,-3.59873 -6.75973,-10.9975 -10.04206,-21.41711 -1.81383,-5.75795 -4.97057,-11.7412 -9.11283,-17.27238 -7.78448,-10.39465 -9.30958,-17.53743 -4.66788,-21.86183 4.96885,-4.62919 15.72757,-2.77216 26.65135,4.60022 3.51879,2.3748 7.6695,3.84945 12.40002,4.40543 9.88912,1.16227 16.00616,3.8123 28.70634,12.43622 17.23268,11.70166 31.47302,28.66796 38.47129,45.83566 1.83091,4.49149 6.20663,13.89539 9.7238,20.89755 l 6.39486,12.73122 9.49467,4.44638 c 13.56231,6.35128 35.28769,23.90928 32.73845,26.45853 -0.31425,0.31425 -5.54972,1.44032 -11.63438,2.50237 -6.08466,1.06206 -11.53514,2.22281 -12.11219,2.57944 -1.61435,0.99772 1.54252,4.17002 8.74229,8.78502 6.49636,4.16412 16.88154,14.00707 19.20611,18.20333 1.55496,2.80697 1.615,2.83126 -5.75116,-2.32634 z M 560.66592,347.40686 c -1.31253,-2.57813 -2.58858,-5.10938 -2.83569,-5.625 -0.2471,-0.51563 0.63542,-0.9375 1.96116,-0.9375 3.73494,0 6.98474,4.33933 6.04724,8.07463 -1.0945,4.36084 -2.37307,3.98707 -5.17271,-1.51213 z"
         id="path5034"
         inkscape:connector-curvature="0" />
      <path
         style="fill-opacity:1"
         d="m 689.46429,476.95352 c -2.75,-2.1017 -8.74116,-5.68427 -13.3137,-7.96127 -4.57254,-2.27699 -10.09282,-5.45535 -12.2673,-7.063 -4.05119,-2.99518 -8.794,-9.59312 -8.794,-12.23372 0,-2.33598 7.37497,-4.8143 17.2104,-5.78346 4.97179,-0.4899 9.0396,-1.24859 9.0396,-1.68595 0,-1.84747 -20.1284,-14.04157 -28.15378,-17.056 -4.79667,-1.80169 -9.76618,-4.21516 -11.04335,-5.36328 -2.3072,-2.07406 -10.33004,-18.14081 -17.10693,-34.25876 -11.79444,-28.05157 -40.98286,-53.61501 -63.46203,-55.58054 -4.57988,-0.40045 -8.66534,-1.66836 -11.48391,-3.56399 -6.54959,-4.40493 -15.99004,-8.27115 -19.11211,-7.82713 -4.49587,0.6394 -3.92478,4.85121 1.66634,12.2893 6.33018,8.42129 9.62337,14.68583 12.0845,22.988 2.29954,7.75712 5.99801,15.2232 9.78622,19.7554 2.34825,2.80944 2.64919,4.09342 1.75784,7.5 -5.08792,19.44515 -5.18712,20.20627 -3.76772,28.9057 0.76685,4.7 2.51735,10.74688 3.89001,13.4375 3.10996,6.09604 6.19215,6.5083 6.20189,0.82954 0.01,-5.71091 2.33169,-13.43637 5.28858,-17.59631 2.86727,-4.03384 3.50591,-3.62354 6.47328,4.15881 2.64635,6.94042 10.46719,20.32509 16.47564,28.19659 4.30585,5.64097 4.34731,5.78742 0.94228,3.32862 -5.97532,-4.31482 -13.82691,-13.10849 -16.70803,-18.71271 -1.50213,-2.92188 -3.15849,-5.3125 -3.68081,-5.3125 -0.52233,0 -1.28984,2.87205 -1.70558,6.38235 -0.9178,7.74937 -2.49966,9.86765 -7.36887,9.86765 -11.75478,0 -18.54822,-24.56811 -12.99485,-46.99516 l 2.19642,-8.87017 -3.65567,-5.50483 c -3.19179,-4.80632 -8.38226,-17.12572 -10.88801,-25.84235 -0.44863,-1.56062 -2.79819,-5.43472 -5.22125,-8.6091 -6.97458,-9.1372 -9.15041,-13.27191 -9.15543,-17.398 -0.006,-5.15987 4.46826,-9.28069 10.07589,-9.2794 4.45998,10e-4 18.64314,6.04414 21.95242,9.35342 1.04258,1.04257 3.68354,1.90227 5.86881,1.91043 12.83375,0.0479 32.00203,10.24662 46.95916,24.98516 12.26719,12.0879 18.48963,21.4147 26.4364,39.62544 11.45559,26.25151 11.6705,26.55018 23.24488,32.30289 5.59196,2.77933 12.34196,6.69978 15,8.71212 7.94852,6.01767 16.70777,14.5888 16.70777,16.34896 0,0.9335 -2.03117,1.98055 -4.6875,2.41636 -10.80591,1.77288 -17.2916,3.2256 -18.90519,4.23456 -1.26172,0.78893 0.72921,2.72888 7.5,7.30796 7.98881,5.40282 22.34269,18.79895 22.34269,20.85189 0,1.05992 -0.24374,0.92165 -5.625,-3.19102 z M 560.98308,347.05359 c -2.89235,-4.4177 -3.05713,-5.16688 -1.28592,-5.84656 2.08725,-0.80095 6.66013,3.57536 6.62299,6.33831 -0.0602,4.48171 -2.21056,4.28359 -5.33707,-0.49175 z"
         id="path5032"
         inkscape:connector-curvature="0" />
      <path
         style="fill-opacity:1"
         d="m 689.46429,476.91285 c -2.75,-2.06818 -9.33274,-6.01598 -14.62831,-8.7729 -9.63218,-5.0146 -19.74669,-14.1953 -19.74669,-17.9236 0,-2.6128 4.97086,-4.38886 16.5625,-5.91768 5.32812,-0.70272 9.6875,-1.66597 9.6875,-2.14057 0,-2.00758 -21.2851,-14.97293 -28.75,-17.51243 -4.46875,-1.52023 -8.92331,-3.41931 -9.89904,-4.22018 -1.60917,-1.32081 -13.35528,-24.90462 -19.94174,-40.03902 -10.28534,-23.63367 -43.23534,-50.79211 -61.62356,-50.79211 -4.83354,0 -7.39938,-0.81816 -11.57451,-3.69073 -11.00672,-7.57282 -20.97806,-9.6132 -21.67032,-4.43427 -0.33628,2.51574 1.08517,5.04131 8.9557,15.91216 2.35424,3.25169 6.08235,11.32091 8.28471,17.93159 2.4792,7.44172 5.43904,13.65355 7.77145,16.31002 4.15341,4.73047 4.18757,6.69782 0.35482,20.43114 -1.04913,3.7592 -1.90751,8.84415 -1.90751,11.29988 0,5.66257 3.30846,18.49604 5.7174,22.17771 2.47289,3.77941 5.5326,3.64062 5.5326,-0.25098 0,-6.1982 2.72054,-15.16347 5.70841,-18.81152 l 3.07137,-3.75 0.8157,3.125 c 1.36715,5.23761 11.5516,23.97166 16.87855,31.04766 2.95065,3.91946 4.0697,6.15113 2.71214,5.40866 -4.29544,-2.34921 -12.80328,-12.04163 -16.47764,-18.77189 -2.00898,-3.6798 -3.93108,-6.21105 -4.27134,-5.625 -0.34026,0.58607 -1.00503,3.73073 -1.47727,6.98813 -1.96039,13.52229 -11.3871,12.75466 -19.00472,-1.54756 -3.10005,-5.82041 -3.31242,-31.63878 -0.32489,-39.49926 1.83208,-4.82041 1.80406,-5.30149 -0.47262,-8.11307 -3.72092,-4.59514 -7.84762,-13.36966 -10.81778,-23.00163 -1.72438,-5.59199 -4.63321,-11.21867 -8.07768,-15.625 -9.46933,-12.11361 -10.50038,-16.63652 -5.03777,-22.09913 2.81211,-2.81211 3.93157,-3.12754 8.75399,-2.46655 5.86588,0.80401 14.49915,4.63922 18.64655,8.28348 1.41994,1.24767 5.61478,2.54265 9.7097,2.99746 9.8696,1.09618 17.43752,4.19196 28.44967,11.6378 19.12463,12.93108 31.14237,27.6959 41.73299,51.27259 12.87925,28.67159 13.33949,29.37351 21.3694,32.59126 11.84805,4.74776 34.36324,21.74152 34.36324,25.9363 0,1.05804 -2.20388,1.9891 -5.9375,2.50841 -9.52043,1.32419 -18.44028,3.7623 -18.40369,5.03039 0.0186,0.64457 3.84662,3.75726 8.50669,6.9171 8.70501,5.90254 18.85251,15.06683 20.97465,18.94235 1.51992,2.77576 1.46805,2.75572 -4.51515,-1.74401 z m -129.05991,-130.57918 -2.80991,-4.40487 3.43491,0.39528 c 2.86145,0.32929 3.5003,1.07351 3.82661,4.45778 0.5034,5.221 -0.92705,5.07698 -4.45161,-0.44819 z"
         id="path5030"
         inkscape:connector-curvature="0" />
      <path
         style="fill-opacity:1"
         d="m 688.25954,475.72223 c -2.71549,-2.02471 -8.016,-5.0908 -11.77891,-6.81351 -11.5703,-5.29706 -23.15888,-16.69316 -20.82128,-20.47547 0.90398,-1.46266 11.0988,-3.80078 18.80494,-4.31278 3.4375,-0.22839 6.47438,-0.91832 6.74862,-1.53319 0.91581,-2.05323 -17.87827,-14.01492 -27.37362,-17.42222 -5.15625,-1.85027 -10.4408,-4.56373 -11.74345,-6.02991 -2.2224,-2.5014 -14.46011,-27.38693 -18.21517,-37.04079 -2.89112,-7.43276 -12.35371,-20.86233 -20.2959,-28.80452 -14.07253,-14.07253 -31.51646,-23.69548 -42.95379,-23.69548 -4.4098,0 -6.98617,-0.88201 -11.00336,-3.76694 -2.88496,-2.07182 -8.11135,-4.85592 -11.61422,-6.18691 -5.31043,-2.01781 -6.73644,-2.15118 -8.5808,-0.80255 -3.1154,2.27804 -1.84684,6.02785 5.38232,15.90995 4.14126,5.66101 7.12848,11.64506 9.44772,18.92585 1.86539,5.85601 4.77121,12.53691 6.45737,14.84645 6.07888,8.32621 6.16274,8.82504 3.27991,19.50896 -3.0799,11.41427 -3.27314,16.92159 -0.94139,26.82958 3.42088,14.53588 8.71627,17.83375 10.1129,6.29811 0.48394,-3.99722 2.25873,-9.58474 3.99849,-12.58834 l 3.1283,-5.40084 7.24973,14.46916 c 3.98735,7.95804 9.42471,17.13141 12.08303,20.38527 4.71518,5.77151 4.73872,5.84901 0.963,3.17091 -5.81526,-4.12474 -12.74962,-12.25677 -15.7927,-18.52035 -1.49059,-3.06807 -3.12009,-5.57831 -3.62113,-5.57831 -0.50103,0 -1.30102,3.1219 -1.77776,6.93756 -1.43432,11.47989 -6.61837,13.76939 -13.83993,6.1123 -6.08959,-6.45685 -8.4536,-15.70932 -7.62677,-29.85032 0.36419,-6.2285 1.47158,-13.56117 2.46088,-16.29482 1.73591,-4.79672 1.67744,-5.13769 -1.67434,-9.76468 -3.33136,-4.59882 -11.13294,-23.13402 -11.13294,-26.44994 0,-0.87797 -3.08284,-5.75179 -6.85076,-10.83071 -7.30111,-9.84145 -9.26417,-15.44048 -6.93766,-19.7876 3.42008,-6.39048 15.35193,-5.5565 26.34515,1.84139 3.81708,2.5687 8.51367,4.49722 12.14595,4.98739 15.21994,2.05388 28.53277,9.33456 44.46563,24.31789 11.65083,10.95651 18.14254,20.43277 26.162,38.18995 13.35133,29.56331 13.12944,29.22426 21.54469,32.92148 12.88851,5.66255 34.375,21.9479 34.375,26.05401 0,0.75982 -2.95313,1.75446 -6.5625,2.2103 -5.71108,0.72126 -10.60906,1.84115 -17.01577,3.89054 -2.57007,0.82211 0.25137,3.70039 9.17867,9.36358 7.09702,4.50215 20.35512,16.86283 19.26084,17.95712 -0.27707,0.27705 -2.72552,-1.15285 -5.44099,-3.17757 z M 562.58929,349.36242 c 0,-0.81506 -1.22305,-2.78381 -2.71789,-4.375 -2.6268,-2.7961 -2.63518,-2.89306 -0.25,-2.89306 1.35734,0 3.14289,0.675 3.96789,1.5 1.81365,1.81365 2.00111,7.25 0.25,7.25 -0.6875,0 -1.25,-0.66687 -1.25,-1.48194 z"
         id="path5028"
         inkscape:connector-curvature="0" />
      <path
         style="fill-opacity:1"
         d="m 689.46429,476.34604 c -2.0625,-1.73714 -7.40625,-4.89259 -11.875,-7.01212 -4.46875,-2.11954 -10.52435,-5.78532 -13.4569,-8.14621 -5.36623,-4.32015 -9.69278,-10.78089 -8.50577,-12.70149 0.78801,-1.27502 13.13562,-3.79722 20.61552,-4.21103 3.04031,-0.16821 5.69134,-0.86833 5.89115,-1.55583 0.38981,-1.34125 -18.55239,-13.8996 -25.79901,-17.1043 -2.409,-1.06535 -6.1982,-2.33633 -8.42044,-2.82442 -2.24567,-0.49323 -5.09231,-2.3719 -6.4085,-4.22935 -2.43124,-3.43106 -10.41365,-20.02618 -16.0378,-33.34193 -12.09822,-28.64378 -43.23181,-55.57624 -64.28769,-55.61279 -4.86148,-0.008 -7.53856,-0.61963 -8.66638,-1.97857 -1.89449,-2.28272 -9.3904,-6.26518 -16.54142,-8.78821 -9.68985,-3.41878 -10.97514,3.19915 -2.72134,14.01221 5.47909,7.178 9.96069,15.86751 11.21358,21.74236 1.17139,5.4927 6.35067,16.0023 9.67081,19.62367 2.68022,2.92338 2.66044,3.333 -0.77027,15.95145 -2.45597,9.03327 -2.50794,16.40743 -0.18419,26.1361 1.78059,7.45467 6.46809,14.22934 8.4643,12.23313 0.59882,-0.59881 1.3423,-3.27814 1.65219,-5.95405 0.99356,-8.57962 1.86146,-11.34853 4.80962,-15.34454 l 2.88652,-3.91246 2.20975,5.78614 c 2.1412,5.60666 11.10991,21.94588 15.18719,27.66806 1.1022,1.54687 1.41673,2.8125 0.69895,2.8125 -1.86929,0 -9.8506,-9.59318 -13.77856,-16.56123 -1.84047,-3.26492 -3.70258,-5.9368 -4.13802,-5.9375 -1.10462,-0.002 -2.29587,4.88029 -2.31622,9.49249 -0.0169,3.83969 -3.18989,8.00624 -6.09697,8.00624 -3.27384,0 -7.98492,-4.4468 -11.13152,-10.50707 -2.98893,-5.75658 -3.30631,-7.688 -3.30593,-20.11793 3.1e-4,-9.83242 0.60045,-15.35265 2.1064,-19.375 l 2.10597,-5.625 -3.56557,-5 c -3.32073,-4.65667 -8.03005,-15.36713 -11.26714,-25.625 -0.75935,-2.40625 -4.10722,-8.03125 -7.43972,-12.5 -3.3325,-4.46875 -6.42305,-9.63284 -6.86788,-11.47575 -1.09815,-4.54954 1.14422,-10.25319 3.65259,-9.29064 1.0987,0.42162 1.59529,0.20824 1.15885,-0.49793 -0.46286,-0.74892 1.6082,-1.23568 5.25753,-1.23568 5.99754,0 14.61886,3.58314 21.48239,8.92837 1.90198,1.48124 5.06933,2.33237 8.75,2.3513 20.67566,0.10634 55.34392,29.73175 66.88748,57.15803 1.77584,4.2192 6.07006,13.62077 9.54271,20.89236 l 6.3139,13.22109 9.01243,4.17831 c 14.34761,6.6518 34.66666,22.6894 32.72565,25.83002 -0.30663,0.49612 -3.23629,1.26876 -6.51036,1.71694 -8.28006,1.13347 -17.82788,3.53918 -17.82788,4.492 0,1.31133 5.26024,5.69834 11.25,9.38242 6.0163,3.70041 21.06011,18.43147 18.4375,18.05421 -0.17188,-0.0248 -2,-1.46625 -4.0625,-3.20338 z M 561.65179,347.26992 c -3.27589,-4.45443 -3.42785,-5.17556 -1.09056,-5.17556 2.55906,0 4.77604,3.24262 4.31151,6.30614 -0.38252,2.52271 -0.58702,2.45092 -3.22095,-1.13058 z"
         id="path5026"
         inkscape:connector-curvature="0" />
      <path
         style="fill-opacity:1"
         d="m 687.73218,475.15506 c -3.01517,-2.37089 -6.00149,-4.3107 -6.63628,-4.3107 -0.63478,0 -0.78326,-0.60013 -0.32993,-1.3336 0.45331,-0.73349 0.0646,-1.22934 -0.86374,-1.1019 -4.30367,0.59077 -5.29118,-0.0643 -2.86435,-1.89975 1.92647,-1.45711 2.02721,-1.84344 0.48891,-1.875 -1.06562,-0.0219 -2.6125,0.63525 -3.4375,1.46025 -1.16666,1.16666 -1.5,1.16666 -1.5,0 0,-0.825 -0.42188,-1.4107 -0.9375,-1.30155 -2.00887,0.42524 -5.25459,-1.78089 -4.47526,-3.04185 0.49854,-0.80666 0.0815,-1.04697 -1.05794,-0.60971 -2.92831,1.1237 -12.24305,-9.91648 -10.14055,-12.01896 0.44042,-0.44044 2.10814,0.42739 3.70601,1.92853 3.08858,2.90156 3.95642,1.98424 1.34274,-1.4193 -0.85938,-1.11907 -0.32051,-0.60086 1.19748,1.15158 1.51798,1.75245 4.33048,4.75832 6.25,6.67972 2.26746,2.2697 2.71877,3.20617 1.28834,2.67333 -1.66943,-0.62188 -2.01483,-0.33323 -1.42876,1.19403 0.92534,2.4114 3.10915,2.59049 5.50765,0.45168 1.3934,-1.24254 1.38261,-1.07763 -0.0527,0.80531 -1.66275,2.18131 -1.58866,2.29916 0.94082,1.49635 3.43362,-1.0898 9.25558,2.42613 8.27006,4.99435 -0.44073,1.14851 -0.076,1.57023 1.01293,1.17108 0.96171,-0.35253 3.49897,1.5438 5.83476,4.36082 2.2732,2.74153 3.9607,4.95565 3.75,4.92029 -0.21069,-0.0354 -2.85003,-2.00413 -5.86519,-4.375 z m -22.05001,-17.6464 c -1.01358,-1.01357 -1.84288,-2.45894 -1.84288,-3.21193 0,-0.75297 -0.37622,-0.99281 -0.83606,-0.53297 -0.45984,0.45983 -1.86609,-0.0961 -3.125,-1.23541 -3.46718,-3.13775 -2.73875,-0.67927 1.14856,3.87648 1.89062,2.21572 4.12617,3.78517 4.96788,3.48764 1.13966,-0.40282 1.05988,-1.01142 -0.3125,-2.38381 z m 1.90712,-8.41666 c 1.71875,-1.04998 4.70507,-1.92899 6.63627,-1.95334 2.01382,-0.0254 3.18181,-0.57739 2.73873,-1.2943 -0.4249,-0.6875 -0.17685,-1.25 0.55123,-1.25 3.29461,0 0.93674,3.53664 -2.73873,4.10791 -2.23438,0.34728 -5.46875,1.00658 -7.1875,1.46509 l -3.125,0.83367 3.125,-1.90903 z m -2.5,-2.5 c 1.71875,-1.04998 4.8125,-1.8714 6.875,-1.82539 l 3.75,0.0836 -3.75,1.02719 c -2.0625,0.56496 -5.15625,1.38639 -6.875,1.82539 l -3.125,0.7982 3.125,-1.90904 z m 15,-0.29734 c 0,-0.43983 0.96919,-1.50837 2.15375,-2.37455 1.93395,-1.41414 1.56338,-1.93845 -3.6313,-5.1378 -3.39205,-2.08914 -5.72705,-4.42869 -5.64486,-5.65587 0.1795,-2.68017 2.21953,-1.58753 9.57238,5.12696 3.94412,3.6017 4.9281,5.09096 3.36373,5.09096 -1.21619,0 -1.87879,0.53794 -1.47244,1.19541 0.40634,0.65748 1.70516,0.85594 2.88628,0.44103 1.71663,-0.60304 1.84462,-0.42718 0.63793,0.87661 -1.22796,1.32677 -1.86913,1.33254 -3.4375,0.0309 -1.30851,-1.08592 -1.92797,-1.14922 -1.92797,-0.19697 0,0.77167 -0.5625,1.40305 -1.25,1.40305 -0.6875,0 -1.25,-0.35986 -1.25,-0.7997 z m -1.875,-10.4503 c -1.24436,-1.375 -2.8001,-2.5 -3.45721,-2.5 -0.65712,0 0.13318,1.10629 1.75624,2.45841 3.8198,3.18221 4.55957,3.2003 1.70097,0.0416 z m -96.36962,-3.46004 c -4.64802,-5.60336 -8.29131,-12.38258 -8.72096,-16.22746 -0.49989,-4.47349 1.23805,-3.2846 4.2445,2.90358 1.5274,3.14384 2.12901,5.31554 1.33692,4.826 -0.8956,-0.55351 -1.2016,-0.23345 -0.80925,0.84642 0.347,0.95507 1.24693,1.60147 1.99984,1.43644 0.75291,-0.16503 1.96801,0.81935 2.70023,2.1875 0.73221,1.36816 0.9051,2.48756 0.38419,2.48756 -0.52092,0 0.30304,0.87565 1.83102,1.94587 1.52797,1.07024 2.77813,2.47649 2.77813,3.125 0,2.26814 -1.90612,1.09654 -5.74462,-3.53091 z m -0.074,-3.46887 c -0.4071,-1.0609 -1.00828,-1.66083 -1.33593,-1.33316 -0.32767,0.32766 -0.22498,1.19567 0.22819,1.92891 1.23256,1.99432 1.95297,1.60688 1.10774,-0.59575 z m -5.27875,-8.91484 c -1.47356,-2.53402 -1.82939,-1.72294 -0.62317,1.42043 0.42868,1.11712 1.04275,1.76782 1.36458,1.44598 0.32184,-0.32183 -0.0118,-1.61172 -0.74141,-2.86641 z m -16.40259,13.34375 c 0,-0.6875 -0.90393,-1.25 -2.00874,-1.25 -1.33367,0 -1.74899,-0.67689 -1.23582,-2.01418 0.52794,-1.37578 0.22954,-1.80566 -0.94149,-1.3563 -2.91869,1.12 -7.02564,-10.11797 -7.9157,-21.65995 -0.63249,-8.20204 -0.4687,-10.16065 0.7849,-9.38589 1.21215,0.74916 1.38036,0.0511 0.71625,-2.97256 -0.56632,-2.57848 -0.11301,-6.05099 1.30453,-9.99305 l 2.17246,-6.0414 -3.36814,-4.41586 c -2.44003,-3.19905 -2.92244,-4.59463 -1.75069,-5.06465 1.23483,-0.49532 1.24782,-0.67214 0.0549,-0.74748 -0.85938,-0.0543 -1.62775,-1.36431 -1.7075,-2.91118 -0.12874,-2.49716 -0.21485,-2.53738 -0.76793,-0.35877 -0.46842,1.84515 -1.20727,0.91508 -2.97898,-3.75 -2.76758,-7.28732 -2.75735,-7.22303 -0.97417,-6.12097 0.93128,0.57557 1.10815,-0.0136 0.54076,-1.80122 -0.50024,-1.57612 -0.30051,-2.65654 0.49108,-2.65654 0.73383,0 1.33424,1.0535 1.33424,2.3411 0,3.34054 4.72065,13.65171 8.99721,19.65232 2.83066,3.97182 3.45455,5.88856 2.78499,8.55628 -0.65544,2.61149 -1.14787,3.03372 -2.04863,1.75658 -0.82531,-1.17018 -0.97584,-0.70815 -0.49518,1.51988 0.37983,1.76064 0.16295,5.13564 -0.48196,7.5 -1.65039,6.05062 -2.51343,27.27197 -1.14355,28.11861 0.62542,0.38652 1.16181,-0.3148 1.19199,-1.5585 0.0302,-1.2437 0.80947,-0.14657 1.73177,2.43807 0.9223,2.58464 2.29898,5.4489 3.05929,6.36502 0.76031,0.91611 0.96654,2.0815 0.45829,2.58975 -0.50825,0.50825 0.76225,0.58848 2.82334,0.17829 2.59893,-0.51724 3.00925,-0.42383 1.33883,0.30481 -2.12787,0.92816 -2.16896,1.14259 -0.35253,1.83961 1.13084,0.43395 2.38854,0.25107 2.79488,-0.40641 0.40634,-0.65747 1.37562,-1.19541 2.15394,-1.19541 1.91121,0 -3.02112,3.65989 -5.00018,3.71025 -0.85938,0.0219 -1.5625,-0.52275 -1.5625,-1.21025 z m -6.09741,-9.59375 c -1.47356,-2.53402 -1.82939,-1.72294 -0.62317,1.42042 0.42869,1.11713 1.04275,1.76783 1.36458,1.44599 0.32184,-0.32184 -0.0118,-1.61172 -0.74141,-2.86641 z m -4.32474,-20.71875 c -0.34676,-0.85938 -0.63048,-0.15625 -0.63048,1.5625 0,1.71875 0.28372,2.42187 0.63048,1.5625 0.34677,-0.85938 0.34677,-2.26563 0,-3.125 z m 2.15927,-14.0625 c 0.6126,-2.73865 0.49662,-3.24432 -0.43001,-1.875 -0.69786,1.03125 -1.27744,2.95312 -1.28797,4.27083 -0.0255,3.19806 0.6899,2.20033 1.71798,-2.39583 z m 0.249,-15.19296 c -1.77986,-2.61931 -3.23612,-4.34266 -3.23612,-3.82968 0,1.32231 5.50425,9.56006 6.03389,9.03042 0.24109,-0.2411 -1.0179,-2.58143 -2.79777,-5.20074 z m 114.57638,56.92415 c -2.23438,-1.43093 -4.0625,-3.13362 -4.0625,-3.78374 0,-0.65013 -0.70313,-1.04242 -1.5625,-0.87179 -0.85938,0.17065 -4.65625,-0.6921 -8.4375,-1.9172 -3.78125,-1.2251 -7.65864,-2.4783 -8.61641,-2.78489 -0.95778,-0.30658 -1.46739,-0.83143 -1.13249,-1.16634 0.33491,-0.33491 3.01739,0.24083 5.96107,1.27942 6.57255,2.31893 6.72128,2.32089 5.86023,0.077 -0.46365,-1.20826 -0.0944,-1.58084 1.10907,-1.11902 0.99229,0.38077 1.52938,1.13694 1.19353,1.68036 -0.33585,0.54342 0.27589,1.32823 1.35941,1.74402 2.9576,1.13493 3.88479,0.87549 1.76559,-0.49403 -1.03125,-0.66645 -1.3125,-1.21172 -0.625,-1.21172 1.75604,0 5,2.1758 5,3.35363 0,0.5407 0.46369,0.82853 1.03041,0.63961 0.56673,-0.1889 0.69818,0.1941 0.29212,0.85114 -0.40608,0.65703 -0.16663,1.54791 0.53208,1.97974 0.69871,0.43182 1.27039,0.077 1.27039,-0.78863 0,-2.18731 2.87476,0.72002 3.25174,3.28858 0.3385,2.30632 0.69256,2.37022 -4.18924,-0.75616 z m -100.29336,-1.96992 c 0.0105,-0.55619 0.56442,-1.85502 1.23086,-2.88627 1.04425,-1.61586 1.21436,-1.58286 1.23086,0.23872 0.0105,1.16255 -0.54336,2.46138 -1.23086,2.88628 -0.6875,0.4249 -1.24139,0.31747 -1.23086,-0.23873 z m -3.08801,-2.26127 c 0.48687,-1.375 0.83027,-4.46875 0.76311,-6.875 -0.11845,-4.24429 4.27264,-13.76508 6.53757,-14.17479 0.60874,-0.11011 1.59329,1.20604 2.18789,2.92479 1.02193,2.95401 0.97917,2.9932 -0.78139,0.71625 -1.02436,-1.32481 -2.00892,-2.16856 -2.18789,-1.875 -3.37277,5.53203 -4.92088,10.36897 -4.30472,13.44975 0.47166,2.35831 0.0522,4.47994 -1.1848,5.99246 -1.85482,2.26798 -1.88718,2.26299 -1.02977,-0.15846 z m 3.89443,-6.1781 c -0.46827,-1.22029 -0.28733,-1.7618 0.43876,-1.31305 0.67962,0.42003 1.23568,0.0742 1.23568,-0.76841 0,-0.84266 0.33281,-1.1993 0.73958,-0.79253 0.40677,0.40677 0.20933,1.68709 -0.43876,2.84516 -1.09406,1.95497 -1.23534,1.95704 -1.97526,0.0288 z m 81.67444,-1.9469 c -1.03125,-0.66645 -1.3125,-1.21172 -0.625,-1.21172 0.6875,0 2.09375,0.54527 3.125,1.21172 1.03125,0.66644 1.3125,1.21172 0.625,1.21172 -0.6875,0 -2.09375,-0.54528 -3.125,-1.21172 z m -5.56261,-2.0823 c 0.36536,-1.48902 0.0789,-3.06909 -0.63654,-3.51128 -0.71548,-0.44218 -1.30085,-1.40214 -1.30085,-2.13325 0,-2.10918 3.38307,1.18868 4.12335,4.0195 0.35392,1.35343 0.1815,2.17525 -0.38316,1.82627 -0.56467,-0.34898 -1.35077,0.0721 -1.74689,0.93577 -0.39613,0.86366 -0.42129,0.352 -0.0559,-1.13701 z m -4.1722,-1.70759 c -2.23865,-3.58462 -1.84135,-4.73204 0.48731,-1.40741 1.10138,1.57243 1.7832,3.07826 1.51517,3.34629 -0.26802,0.26802 -1.16915,-0.60447 -2.00248,-1.93888 z m -87.66651,-0.48094 c -0.0543,-1.31771 0.24116,-2.05599 0.65653,-1.64063 0.41536,0.41537 0.45977,1.49349 0.0987,2.39583 -0.39904,0.99717 -0.69523,0.70097 -0.75521,-0.7552 z m 18.75,0 c -0.0543,-1.31771 0.24116,-2.05599 0.65653,-1.64063 0.41536,0.41537 0.45977,1.49349 0.0987,2.39583 -0.39904,0.99717 -0.69523,0.70097 -0.75521,-0.7552 z m 65.1491,-7.55953 c -0.90785,-1.99251 -0.96777,-3.34966 -0.16967,-3.84291 0.67861,-0.41941 1.15328,-0.29887 1.05483,0.26786 -0.43782,2.52038 0.21933,4.23974 1.35274,3.53926 0.70858,-0.43793 0.91814,0.0638 0.49127,1.17623 -0.97105,2.53051 -1.07668,2.48637 -2.72917,-1.14044 z m 4.28713,1.23938 c 0.36168,-0.94252 0.006,-2.9308 -0.78993,-4.4184 -0.79614,-1.48761 -1.22152,-2.93075 -0.94528,-3.20698 0.27623,-0.27624 1.41485,1.41152 2.53026,3.75057 1.69873,3.56226 1.74544,4.36125 0.28769,4.92064 -1.1066,0.42465 -1.50088,0.0438 -1.08274,-1.04583 z m -7.03491,-7.90902 c 0,-1.2375 0.65116,-2.90116 1.44702,-3.69702 1.09603,-1.09603 1.03684,-1.99048 -0.24404,-3.6875 -1.61275,-2.13673 -1.58094,-2.1396 0.68691,-0.0619 1.85735,1.70161 2.04761,2.50893 0.86904,3.6875 -2.32804,2.32804 -1.78413,4.02816 0.67857,2.12103 1.7808,-1.37907 1.74478,-1.17512 -0.19373,1.09695 -2.88046,3.37608 -3.24377,3.43667 -3.24377,0.54096 z m -3.70188,-6.8125 c -0.82785,-2.23438 -2.25985,-5.82061 -3.18223,-7.96942 -1.2844,-2.99217 -1.33333,-4.25335 -0.20897,-5.38655 1.12699,-1.13587 0.99732,-1.30054 -0.55812,-0.70875 -1.2383,0.47113 -2.32419,-0.006 -2.79253,-1.22615 -0.53238,-1.38735 -0.14418,-1.88632 1.27151,-1.63434 1.12083,0.19949 2.30982,-0.41871 2.6422,-1.37379 0.36843,-1.05862 0.0531,-1.39579 -0.80782,-0.86372 -0.77669,0.48002 -1.41216,0.23019 -1.41216,-0.55518 0,-0.78536 0.70312,-1.17843 1.5625,-0.87348 0.85937,0.30495 1.42272,1.79076 1.25187,3.30178 -0.2132,1.88562 0.17887,2.471 1.25,1.86633 1.24446,-0.70251 1.24408,-0.53996 -0.002,0.80239 -0.85938,0.92586 -1.54257,2.8365 -1.51821,4.24588 0.0432,2.49831 0.0823,2.49424 1.5625,-0.16252 1.45876,-2.61832 1.60304,-2.52043 3.68481,2.5 1.62101,3.90927 1.6997,4.61401 0.3125,2.79861 -1.01976,-1.33453 -1.8541,-2.9939 -1.8541,-3.6875 0,-0.79497 -0.42648,-0.82217 -1.15384,-0.0736 -1.42272,1.46422 -0.23229,8.29418 1.28246,7.35801 0.60101,-0.37145 0.72235,0.28989 0.26964,1.46962 -0.5547,1.44552 -0.35089,1.85314 0.625,1.25 0.94611,-0.58473 1.19005,-0.22249 0.70369,1.04495 -1.01941,2.65653 -1.20906,2.51909 -2.92883,-2.12258 z m -10.09088,-21.0174 c -1.01553,-1.89754 -1.00286,-3.03521 0.0479,-4.30132 1.10412,-1.33037 0.79472,-2.57884 -1.36204,-5.49601 -3.10674,-4.20208 -5.68047,-4.0073 -3.50936,0.26559 0.76479,1.50515 -0.30382,0.76789 -2.37468,-1.63836 -2.07087,-2.40625 -3.49665,-4.65156 -3.16839,-4.98959 0.32825,-0.33802 1.1517,0.37694 1.82989,1.58879 0.67819,1.21186 1.79764,1.85446 2.48767,1.42799 2.00809,-1.24106 -2.57793,-5.47656 -4.96319,-4.58385 -1.80074,0.67394 -1.84686,0.50034 -0.3545,-1.3343 1.01494,-1.24773 1.17269,-2.10904 0.38627,-2.10904 -0.73111,0 -1.68085,0.56884 -2.11054,1.2641 -0.43896,0.71024 -3.89427,-1.41568 -7.88628,-4.85214 -3.90775,-3.36392 -8.89747,-7.02252 -11.08825,-8.1302 -2.19077,-1.10769 -4.36803,-2.6366 -4.83834,-3.39758 -0.62411,-1.00982 -0.16119,-1.01222 1.71356,-0.009 1.41277,0.75608 3.55691,1.3747 4.76476,1.3747 2.01128,0 1.99667,-0.14581 -0.17363,-1.73277 -1.30334,-0.95303 -3.94209,-1.62392 -5.86391,-1.49087 -1.92181,0.13305 -3.4942,-0.2122 -3.4942,-0.76722 0,-0.55503 1.58849,-1.00914 3.52997,-1.00914 3.87142,0 15.8273,7.76969 15.87308,10.31534 0.0154,0.85781 0.89059,1.41946 1.94481,1.2481 1.95111,-0.31715 9.74865,7.26341 17.38032,16.89668 3.25139,4.10416 3.88571,5.67599 2.7492,6.8125 -0.81256,0.81256 -1.47738,2.03988 -1.47738,2.72738 0,0.69445 0.66667,0.58333 1.5,-0.25 1.82526,-1.82526 3.5,-1.94489 3.5,-0.25 0,0.6875 -0.63281,1.10937 -1.40625,0.9375 -0.77344,-0.17188 -1.69016,0.46892 -2.03716,1.42399 -0.42318,1.16474 -0.10235,1.40983 0.97438,0.74437 1.05247,-0.65046 1.29815,-0.49515 0.7134,0.451 -1.23195,1.99334 -1.69826,1.83208 -3.28713,-1.13676 z m -14.09423,-24.0948 c -0.98106,-1.47755 -2.56096,-2.72172 -3.51088,-2.76482 -2.94075,-0.13342 -6.12297,-2.01548 -5.39618,-3.19146 0.38038,-0.61546 -0.21855,-1.11902 -1.33095,-1.11902 -1.1124,0 -1.69892,-0.52363 -1.30338,-1.16363 0.90599,-1.46592 -1.41221,-2.98694 -3.02925,-1.98756 -0.66419,0.4105 2.28893,3.74326 6.5625,7.40613 7.74345,6.63691 11.39646,7.92346 8.00814,2.82036 z m -65.58838,1.70271 c -0.11897,-4.1842 1.56026,-6.06423 2.71913,-3.04427 0.41565,1.08316 -0.002,3.05151 -0.92861,4.37412 -1.57667,2.251 -1.69113,2.16599 -1.79052,-1.32985 z m 22.99842,-1.96793 c -0.48169,-1.25527 -0.24014,-1.62827 0.6844,-1.05687 0.88015,0.54396 1.08632,0.32889 0.53692,-0.56008 -0.49055,-0.79372 -1.70246,-1.44313 -2.69314,-1.44313 -0.99068,0 -1.80123,-0.5625 -1.80123,-1.25 0,-1.58347 0.80861,-1.57419 3.83218,0.044 1.3298,0.71169 2.41782,2.39919 2.41782,3.75 0,2.92605 -1.92416,3.25963 -2.97695,0.5161 z M 534.63339,341.552 c -1.47404,-2.24966 -1.58873,-3.15239 -0.44923,-3.53599 1.06789,-0.35949 1.15252,-1.06636 0.28013,-2.3399 -0.6875,-1.00364 0.0128,-0.39199 1.55629,1.35922 1.54346,1.75122 2.80909,3.85396 2.8125,4.67276 0.0121,2.90536 -2.24881,2.82133 -4.19969,-0.15609 z m 1.85849,-1.55139 c -1.47356,-2.53402 -1.82939,-1.72294 -0.62317,1.42043 0.42869,1.11712 1.04275,1.76782 1.36458,1.44598 0.32184,-0.32183 -0.0118,-1.61172 -0.74141,-2.86641 z m -7.80884,-6.03125 c -0.0859,-0.34375 -0.29688,-1.1875 -0.46875,-1.875 -0.17188,-0.6875 -0.38281,-1.8125 -0.46875,-2.5 -0.0859,-0.6875 -0.83785,-1.10938 -1.67092,-0.9375 -0.87639,0.18081 -1.55931,-1.13607 -1.62059,-3.125 -0.0627,-2.03683 0.55443,-3.4375 1.51468,-3.4375 1.55001,0 1.84003,0.55561 2.12058,4.0625 0.0688,0.85937 0.64585,1.93812 1.28244,2.3972 1.63501,1.1791 2.20618,6.0403 0.70972,6.0403 -0.68319,0 -1.31247,-0.28125 -1.39841,-0.625 z m -1.09375,-8.27254 c 0,-0.6875 -0.5625,-0.90236 -1.25,-0.47746 -0.6875,0.4249 -1.25,1.33504 -1.25,2.02254 0,0.6875 0.5625,0.90236 1.25,0.47746 0.6875,-0.4249 1.25,-1.33504 1.25,-2.02254 z m 43.75,5.14754 c -1.03125,-0.66645 -4.37812,-1.22033 -7.4375,-1.23086 -4.00456,-0.0138 -5.18201,-0.39963 -4.20398,-1.37766 0.97803,-0.97803 3.56745,-0.79262 9.24532,0.66198 4.33773,1.11128 8.1514,2.28511 8.47481,2.60852 1.1238,1.1238 -4.21502,0.54239 -6.07865,-0.66198 z m 8.39677,-0.7699 c -0.42345,-0.42345 -2.62657,-1.20962 -4.89584,-1.74705 -3.58848,-0.84986 -3.70928,-0.99381 -0.92734,-1.1051 1.75922,-0.0704 4.29047,0.69791 5.625,1.7073 1.33452,1.00938 2.09828,1.85313 1.69724,1.875 -0.40104,0.0219 -1.07562,-0.30671 -1.49906,-0.73015 z m -28.41591,-3.62817 c -0.8664,-1.04394 -3.47777,-2.80087 -5.80307,-3.90429 -3.36932,-1.59885 -3.93782,-2.35563 -2.79974,-3.72693 0.95743,-1.15364 0.98999,-1.72071 0.0988,-1.72071 -0.73111,0 -1.67693,0.5625 -2.10183,1.25 -0.4249,0.6875 -1.40936,1.25 -2.18768,1.25 -0.77833,0 -0.32326,-0.88967 1.01127,-1.97704 2.39216,-1.94914 2.39112,-1.96479 -0.0736,-1.10836 -1.375,0.47778 -4.56211,1.00903 -7.08246,1.18056 -3.75133,0.2553 -4.45203,-0.0538 -3.86334,-1.70415 0.77861,-2.18276 0.56019,-2.01933 -2.22041,1.66144 -1.14666,1.51787 -1.24831,2.0757 -0.27129,1.48873 0.85937,-0.5163 1.5625,-0.34303 1.5625,0.38505 0,2.08569 -2.49414,1.54352 -3.36733,-0.73199 -2.19036,-5.70798 10.22516,-7.17383 20.44768,-2.41418 7.4048,3.44771 13.0024,8.21994 9.64159,8.21994 -1.66098,0 -1.7464,0.33936 -0.47194,1.875 0.86804,1.04592 1.00339,1.875 0.30611,1.875 -0.6875,0 -1.95886,-0.85413 -2.82525,-1.89807 z m 0.0556,-4.93296 c -0.86336,-1.04029 -2.02965,-1.60721 -2.59175,-1.25982 -0.5621,0.3474 -1.37531,0.06 -1.80714,-0.63876 -0.93943,-1.52002 -3.1376,-1.69319 -3.1376,-0.24717 0,1.12494 7.82737,5.197 8.61563,4.48214 0.26984,-0.24472 -0.21577,-1.2961 -1.07914,-2.33639 z m -13.78649,-5.66897 c 1.40601,-0.90863 0.78068,-1.21172 -2.5,-1.21172 -3.28068,0 -3.90601,0.30309 -2.5,1.21172 1.03125,0.66644 2.15625,1.21172 2.5,1.21172 0.34375,0 1.46875,-0.54528 2.5,-1.21172 z m 29.375,10 c -2.03801,-0.87576 -2.10939,-1.09052 -0.38627,-1.16214 1.16255,-0.0483 2.46137,0.47464 2.88627,1.16214 0.88833,1.43735 0.84489,1.43735 -2.5,0 z"
         id="path5024"
         inkscape:connector-curvature="0" />
    </g>
  </g>
</svg>
