<?xml version="1.0" encoding="UTF-8" standalone="no"?>
<!-- Created with Inkscape (http://www.inkscape.org/) -->

<svg
   xmlns:dc="http://purl.org/dc/elements/1.1/"
   xmlns:cc="http://creativecommons.org/ns#"
   xmlns:rdf="http://www.w3.org/1999/02/22-rdf-syntax-ns#"
   xmlns:svg="http://www.w3.org/2000/svg"
   xmlns="http://www.w3.org/2000/svg"
   xmlns:sodipodi="http://sodipodi.sourceforge.net/DTD/sodipodi-0.dtd"
   xmlns:inkscape="http://www.inkscape.org/namespaces/inkscape"
   width="210mm"
   height="297mm"
   viewBox="0 0 744.09448819 1052.3622047"
   id="svg4770"
   version="1.1"
   inkscape:version="0.91 r13725"
   sodipodi:docname="oracle.svg">
  <defs
     id="defs4772" />
  <sodipodi:namedview
     id="base"
     pagecolor="#ffffff"
     bordercolor="#666666"
     borderopacity="1.0"
     inkscape:pageopacity="0.0"
     inkscape:pageshadow="2"
     inkscape:zoom="0.35"
     inkscape:cx="375"
     inkscape:cy="520"
     inkscape:document-units="px"
     inkscape:current-layer="layer1"
     showgrid="false"
     inkscape:window-width="1600"
     inkscape:window-height="847"
     inkscape:window-x="-8"
     inkscape:window-y="-8"
     inkscape:window-maximized="1" />
  <metadata
     id="metadata4775">
    <rdf:RDF>
      <cc:Work
         rdf:about="">
        <dc:format>image/svg+xml</dc:format>
        <dc:type
           rdf:resource="http://purl.org/dc/dcmitype/StillImage" />
        <dc:title></dc:title>
      </cc:Work>
    </rdf:RDF>
  </metadata>
  <g
     inkscape:label="Camada 1"
     inkscape:groupmode="layer"
     id="layer1">
    <path
       style="fill:#000000"
       d="m 40.94213,402.74067 0,-250.25936 326.72108,0 326.72109,0 0,250.25936 0,250.25936 -326.72109,0 -326.72108,0 0,-250.25936 z m 138.94424,16.22791 c 7.95994,-3.10168 14.63469,-8.02182 14.83279,-10.93366 0.19808,-2.91184 2.75186,-0.19098 5.67503,6.04638 8.4058,17.93589 19.53427,9.84543 19.53427,-14.20151 l 0,-21.43614 24.14896,0 c 30.057,0 34.6996,9.17311 5.6821,11.22699 -26.26117,1.8588 -26.74577,6.59858 -2.30471,22.54154 22.08769,14.40785 46.8772,18.06088 31.12111,4.58605 -8.38787,-7.1734 -8.25558,-8.55923 1.62345,-17.00791 13.66704,-11.6882 13.51801,-16.55438 -0.88414,-28.87126 -9.52162,-8.14301 -17.53444,-9.69038 -44.03631,-8.50396 -28.75651,1.28736 -32.60258,2.69059 -34.22845,12.4881 l -1.83167,11.03778 -10.00909,-10.57104 c -15.20566,-16.05932 -66.07522,-18.59178 -87.18494,-4.34036 -19.766565,13.34465 -21.092554,34.55349 -2.841051,45.44171 15.171781,9.05096 60.299951,10.44742 80.702651,2.49729 z m -69.33844,-12.1571 c -9.5833,-3.30705 -9.00124,-18.54115 0.97907,-25.6248 11.84337,-8.40599 60.44626,-4.56342 67.71519,5.35359 10.01767,13.66711 -5.07493,23.54682 -35.29737,23.10587 -14.46184,-0.211 -29.49044,-1.48659 -33.39689,-2.83466 z m 202.23501,7.50479 c 5.53869,-7.58475 9.18614,-8.86289 13.8674,-4.85941 3.49365,2.98778 14.78996,5.43232 25.10298,5.43232 10.31302,0 18.75096,2.18674 18.75096,4.85941 0,2.67267 5.17281,4.8594 11.49517,4.8594 11.12801,0 11.18215,-0.42685 1.6948,-13.36336 -5.39021,-7.34985 -17.23467,-21.63315 -26.32105,-31.74067 -13.33556,-14.83431 -18.07352,-17.27511 -24.5755,-12.66027 -10.56701,7.50007 -41.84291,47.22646 -41.84291,53.14851 0,8.45343 14.20821,4.75889 21.82815,-5.67593 z m 18.20705,-24.1403 c 3.4883,-5.57425 6.85876,-9.40104 7.48987,-8.50396 0.63112,0.89707 4.57245,5.45782 8.75852,10.135 6.80074,7.59859 6.00337,8.50396 -7.48988,8.50396 -13.54687,0 -14.44823,-1.04301 -8.75851,-10.135 z m 134.71643,25.92806 c 1.64013,-4.25628 -5.3147,-6.07425 -23.2376,-6.07425 -32.47368,0 -43.55402,-3.68966 -43.55402,-14.50311 0,-12.74253 11.44507,-18.6598 39.4446,-20.39347 14.96287,-0.92647 26.05735,-4.25265 27.60668,-8.27661 3.99919,-10.38673 -57.95918,-4.70693 -72.64531,6.65949 -15.05298,11.65033 -14.53358,28.82067 1.25222,41.398 10.00124,7.96852 18.67162,9.81824 40.7486,8.69326 16.08939,-0.81987 29.04197,-4.0184 30.38483,-7.50331 z m 85.248,2.87863 c 4.98218,-4.26085 8.59641,-4.19253 14.90019,0.28165 10.60082,7.52407 61.48016,5.03636 64.63532,-3.16029 1.63831,-4.25597 -5.31845,-6.07426 -23.24005,-6.07426 -40.69348,0 -51.70989,-6.86998 -15.58464,-9.71881 41.88626,-3.30315 46.10943,-14.57822 5.46032,-14.57822 -36.05114,0 -31.40271,-8.36778 5.90343,-10.62688 15.08212,-0.9133 26.16343,-4.21123 27.71817,-8.24927 2.06561,-5.36481 -3.87003,-6.26946 -29.30137,-4.46585 -38.7976,2.75155 -56.80799,14.27612 -53.39446,34.16626 2.27738,13.27047 1.8623,13.47279 -27.64402,13.47279 l -29.95617,0 -1.73186,-23.08218 c -0.95249,-12.69519 -4.28879,-23.08217 -7.41395,-23.08217 -6.15803,0 -11.10454,43.12104 -6.20031,54.05087 3.77439,8.41178 66.23363,9.28989 75.8494,1.06636 z M 651.7685,371.96444 c 0,-9.51264 -11.07176,-8.70659 -13.24959,0.9646 -1.32911,5.90222 0.62566,8.30341 5.60432,6.88415 4.20487,-1.19869 7.64527,-4.73063 7.64527,-7.84875 z"
       id="path4789"
       inkscape:connector-curvature="0" />
  </g>
</svg>
