<?xml version="1.0" encoding="UTF-8" standalone="no"?>
<!-- Created with Inkscape (http://www.inkscape.org/) -->

<svg
   xmlns:dc="http://purl.org/dc/elements/1.1/"
   xmlns:cc="http://creativecommons.org/ns#"
   xmlns:rdf="http://www.w3.org/1999/02/22-rdf-syntax-ns#"
   xmlns:svg="http://www.w3.org/2000/svg"
   xmlns="http://www.w3.org/2000/svg"
   xmlns:sodipodi="http://sodipodi.sourceforge.net/DTD/sodipodi-0.dtd"
   xmlns:inkscape="http://www.inkscape.org/namespaces/inkscape"
   width="210mm"
   height="297mm"
   viewBox="0 0 744.09448819 1052.3622047"
   id="svg5221"
   version="1.1"
   inkscape:version="0.91 r13725"
   sodipodi:docname="perl.svg">
  <defs
     id="defs5223" />
  <sodipodi:namedview
     id="base"
     pagecolor="#ffffff"
     bordercolor="#666666"
     borderopacity="1.0"
     inkscape:pageopacity="0.0"
     inkscape:pageshadow="2"
     inkscape:zoom="0.35"
     inkscape:cx="375"
     inkscape:cy="520"
     inkscape:document-units="px"
     inkscape:current-layer="layer1"
     showgrid="false"
     inkscape:window-width="1600"
     inkscape:window-height="847"
     inkscape:window-x="-8"
     inkscape:window-y="-8"
     inkscape:window-maximized="1" />
  <metadata
     id="metadata5226">
    <rdf:RDF>
      <cc:Work
         rdf:about="">
        <dc:format>image/svg+xml</dc:format>
        <dc:type
           rdf:resource="http://purl.org/dc/dcmitype/StillImage" />
        <dc:title></dc:title>
      </cc:Work>
    </rdf:RDF>
  </metadata>
  <g
     inkscape:label="Camada 1"
     inkscape:groupmode="layer"
     id="layer1">
    <g
       id="g5240"
       transform="translate(5.7142871,22.857143)">
      <path
         style="fill-opacity:1"
         d="m 192.79128,889.11222 c -21.78891,-3.95211 -19.5931,-26.98771 2.57253,-26.98771 15.50777,0 46.78457,-52.83719 50.59405,-85.47061 3.45354,-29.58435 -10.61399,-206.8488 -16.41532,-206.8488 -2.29527,0 -11.86194,3.65452 -21.25925,8.12115 C 176.5972,592.98693 130.4906,566.95896 77.468047,504.07878 56.275284,478.946 52.857157,467.07352 52.857157,418.59571 c 0,-37.07719 4.715484,-62.27579 13.812337,-73.81036 C 81.581371,325.87749 79.233962,323.01332 42.437052,315.21837 29.163138,312.40647 15.675399,304.02525 12.4643,296.59344 3.9188605,276.81577 41.312266,245.00576 73.106817,245.00576 c 14.412784,0 37.849603,-7.64601 52.081833,-16.99115 24.67133,-16.19963 27.23503,-16.36735 55.03368,-3.60036 38.57181,17.71473 65.05781,71.22928 58.08958,117.36907 -2.78578,18.44596 -8.62418,35.49167 -12.97419,37.87935 -4.35003,2.38769 -7.90913,12.15102 -7.90913,21.69631 0,11.27736 8.39315,2.39653 23.9669,-25.35949 15.621,-27.84022 36.17869,-49.56106 59.03546,-62.37565 19.28772,-10.81361 39.87388,-27.93593 45.74706,-38.0496 16.41593,-28.26847 47.12424,-55.78444 72.39344,-64.86766 83.37418,-29.96954 136.41079,-19.47286 160.77858,31.8203 8.07349,16.99436 22.37717,43.6878 31.78594,59.31877 9.40878,15.63097 27.12719,46.89704 39.37424,69.48016 12.24706,22.58312 33.34353,52.7508 46.88104,67.0393 20.51884,21.65711 24.85092,34.50154 26.03979,77.20684 1.49674,53.76399 -22.42684,111.07304 -46.36728,111.07304 -13.64049,0 -14.07684,4.05689 -15.28371,142.09971 l -0.92288,105.55978 -26.25666,2.6648 c -14.44117,1.46564 -29.65912,-0.36133 -33.81767,-4.05999 -4.15857,-3.69863 0.55524,-28.56715 10.47516,-55.26335 19.80624,-53.30213 17.8088,-121.89356 -5.08919,-174.76098 -6.77011,-15.63097 -18.46187,-43.03592 -25.98168,-60.89988 l -13.67242,-32.47993 -11.51834,24.35995 c -6.33509,13.39797 -12.32781,44.7257 -13.31715,69.61717 -1.44355,36.31939 -7.45776,52.19521 -30.45328,80.38815 -32.17402,39.44594 -34.72836,50.58885 -14.9402,65.17424 18.02947,13.2891 17.50272,43.93903 -0.98938,57.56912 -12.50785,9.21925 -16.65787,8.46417 -27.78957,-5.05618 -9.60963,-11.67167 -14.93237,-13.24054 -20.03656,-5.90576 -11.39903,16.38057 -60.29103,21.49906 -73.21837,7.66521 -9.35213,-10.00793 -6.51143,-15.11274 16.51213,-29.67283 15.2941,-9.67199 27.80746,-22.25562 27.80746,-27.96365 0,-5.70802 -18.51428,-25.34264 -41.14286,-43.6325 -33.79062,-27.31173 -41.14285,-38.33208 -41.14285,-61.66949 0,-15.62836 4.11428,-30.6735 9.14285,-33.43363 11.90493,-6.5345 11.8552,-50.33269 -0.0649,-56.87533 -5.06408,-2.77963 -10.65453,-0.25481 -12.42321,5.61077 -1.76833,5.86555 -8.70026,25.28061 -15.40393,43.14457 -6.70368,17.86397 -15.14334,50.7499 -18.75481,73.07985 -3.61145,22.32996 -10.79189,55.21589 -15.95651,73.07986 -5.16462,17.86396 -11.04557,48.9229 -13.06878,69.01986 -3.41016,33.8738 -5.62018,36.62045 -30.28892,37.64361 -14.6357,0.60705 -35.64001,-0.53414 -46.67624,-2.53592 z M 463.61,725.53366 c 5.92633,-12.70676 9.47445,-49.77633 7.96635,-83.22983 l -2.71918,-60.31875 -16.37763,41.67494 c -9.0077,22.92121 -24.43627,48.15198 -34.28572,56.06838 -21.63051,17.3853 -22.32916,27.01712 -3.67536,50.66963 19.23283,24.38672 36.23479,22.70203 49.09154,-4.86437 z M 672.57836,529.20519 c 0.12858,-33.70207 -1.62571,-39.67907 -7.14976,-24.35995 -4.02607,11.16497 -7.24346,42.22391 -7.14976,69.01986 0.13449,38.46376 1.63962,43.59183 7.14976,24.35995 3.83867,-13.39798 7.05606,-44.45691 7.14976,-69.01986 z"
         id="path5256"
         inkscape:connector-curvature="0" />
      <path
         style="fill-opacity:1"
         d="m 192.79128,889.11222 c -23.67222,-4.29371 -18.67625,-26.98771 5.94121,-26.98771 9.85487,0 22.51578,-12.99247 33.23639,-34.10676 14.14745,-27.86348 16.58275,-47.5579 13.30395,-107.58978 -2.2074,-40.41567 -4.22226,-90.1368 -4.47746,-110.49141 l -0.464,-37.00839 -41.68631,0 c -48.13015,0 -72.64884,-13.71127 -116.13532,-64.94491 -26.265402,-30.9446 -29.615576,-40.77131 -29.328602,-86.02648 0.183164,-28.88469 6.003197,-59.91455 13.390305,-71.39123 17.973933,-27.92446 16.948069,-32.47993 -7.314286,-32.47993 -43.385393,0 -57.8343324,-38.55334 -22.651373,-60.43944 11.176033,-6.95223 33.364422,-12.64042 49.307533,-12.64042 17.332443,0 31.103443,-4.89721 34.250133,-12.17997 7.09748,-16.4265 51.64971,-15.04927 74.408,2.30014 46.06692,35.11839 54.66501,90.77192 24.37625,157.78207 -5.4798,12.12338 -6.44507,23.9736 -2.14506,26.33384 4.30002,2.36022 10.58779,-5.50902 13.97284,-17.48723 6.50384,-23.01428 39.86186,-69.44461 53.49455,-74.45797 18.21645,-6.69901 70.30142,-52.20143 70.30142,-61.41666 0,-15.81542 42.82395,-47.24521 80.07069,-58.76629 78.6865,-24.33913 135.02603,-1.59104 156.93959,63.36716 6.41176,19.00631 21.03974,45.71417 32.50661,59.35081 11.46688,13.63663 29.43933,41.23685 39.93879,61.33381 10.49946,20.09696 27.78503,46.02794 38.4124,57.62439 14.45248,15.7704 19.44051,32.75132 19.79082,67.37454 0.49217,48.64418 -23.21019,102.3606 -45.16659,102.3606 -13.75709,0 -15.33406,-27.40934 -2.77597,-48.24916 5.2496,-8.71158 5.83617,-29.1716 1.43963,-50.21608 l -7.41956,-35.51448 -5.89845,28.41994 c -3.24415,15.63097 -4.92056,103.32679 -3.72535,194.8796 l 2.17311,166.45966 -26.25441,-1.66386 c -14.43993,-0.91512 -27.95408,-3.17338 -30.03146,-5.01835 -2.07737,-1.84496 1.27942,-19.36618 7.45952,-38.93605 14.48519,-45.8686 11.3845,-164.77725 -4.90937,-188.26934 -6.80239,-9.80754 -17.82456,-35.98883 -24.49371,-58.18067 l -12.12572,-40.34878 -16.29696,32.2288 c -8.96331,17.72584 -16.40483,50.51045 -16.5367,72.85468 -0.19529,33.09567 -6.08788,47.93114 -31.79066,80.03813 l -31.55089,39.41225 18.72378,22.49195 c 10.29808,12.37058 17.25395,29.33631 15.45749,37.70163 -4.102,19.10127 -44.22234,26.0457 -44.22234,7.65445 0,-15.86384 -8.57017,-16.31663 -21.84921,-1.15436 -9.46034,10.802 -31.15024,15.91374 -58.15079,13.70463 -18.12049,-1.48256 -13.26661,-23.68252 6.38946,-29.22316 36.95679,-10.41736 32.50828,-36.01534 -13.46235,-77.4662 -39.22401,-35.36757 -42.65752,-41.50134 -36.99287,-66.08568 15.58194,-67.62498 16.4331,-87.99948 3.67623,-87.99948 -13.0344,0 -29.83328,45.10886 -43.84716,117.73976 -4.30849,22.32996 -12.11071,55.22889 -17.33826,73.10875 -5.22757,17.87986 -11.24669,50.76579 -13.37583,73.07985 -3.64146,38.16366 -5.43194,40.63651 -30.17448,41.67471 -14.46683,0.60705 -35.33297,-0.53414 -46.3692,-2.53592 z M 471.05271,713.42858 c 7.76833,-21.0572 9.09565,-47.86753 4.2155,-85.14891 l -7.1229,-54.41457 -16.4731,42.88192 c -9.06021,23.58506 -26.33689,53.2929 -38.39263,66.01742 l -21.91952,23.13549 19.21137,21.69091 c 25.32876,28.59783 46.5386,23.63135 60.48128,-14.16226 z"
         id="path5254"
         inkscape:connector-curvature="0" />
      <path
         style="fill-opacity:1"
         d="m 196.85716,889.00713 c -21.28702,-4.94053 -20.38484,-19.26464 1.53399,-24.35528 10.19869,-2.36864 25.67638,-20.88221 36.99722,-44.25407 17.2361,-35.58388 18.65616,-48.27137 12.41006,-110.87732 -3.87925,-38.88252 -6.68768,-85.52228 -6.24096,-103.64389 l 0.81225,-32.9484 -45.25877,0 c -40.85662,0 -48.5601,-3.11363 -79.19998,-32.01147 -57.818482,-54.53117 -65.053813,-68.05407 -65.053813,-121.58607 0,-30.88377 5.035031,-55.33333 13.423512,-65.18311 20.660135,-24.25922 16.695236,-34.97846 -15.695243,-42.43267 -55.4397934,-12.75869 -36.607503,-56.59217 27.599892,-64.24071 21.12048,-2.51592 43.079892,-9.58153 48.798702,-15.70136 22.67062,-24.26034 69.81959,-4.82416 94.38424,38.90792 17.7327,31.56924 18.03494,85.32704 0.63176,112.36478 -15.53534,24.13585 -17.29646,40.59992 -4.34286,40.59992 5.15429,0 12.01939,-11.87547 15.25579,-26.38995 4.02283,-18.0414 24.1971,-41.90471 63.77143,-75.43257 31.83789,-26.97345 57.88707,-52.82796 57.88707,-57.45446 0,-14.48695 44.36519,-46.21038 80.07069,-57.25473 79.57332,-24.61344 127.88057,-5.1075 152.87695,61.73002 8.2014,21.92964 20.40667,43.92233 27.12281,48.87264 6.71614,4.95032 21.36013,27.88858 32.54219,50.97392 11.18207,23.08535 32.43559,55.35073 47.23007,71.70084 21.93731,24.24405 26.96775,37.60613 27.27156,72.44006 0.36536,41.8912 -23.5677,105.69383 -39.64692,105.69383 -13.99397,0 -18.40674,-22.44628 -7.85512,-39.9564 6.31812,-10.48475 7.77788,-32.83476 3.85843,-59.07546 -11.26183,-75.39794 -21.83309,-15.56999 -21.5811,122.13798 0.12793,69.91247 -0.27224,132.59457 -0.88927,139.29355 -0.61705,6.69899 1.4434,29.11311 4.57874,49.80916 6.18593,40.83277 -2.96559,50.56594 -39.55432,42.06823 -22.95811,-5.33201 -23.1694,-7.76156 -4.8441,-55.69881 16.14958,-42.24579 13.24771,-143.63699 -4.97653,-173.87964 -5.91755,-9.82002 -17.05077,-36.67041 -24.74049,-59.66755 l -13.9813,-41.81297 -16.92934,28.24098 c -10.08297,16.82006 -17.08433,45.56006 -17.31257,71.06664 -0.31625,35.34452 -5.97327,50.04297 -32.38323,84.14099 -36.30416,46.87244 -37.17896,49.92719 -18.28572,63.85296 17.96351,13.24048 18.31199,56.83988 0.45431,56.83988 -7.29298,0 -17.5787,-6.39448 -22.85714,-14.20997 -9.14016,-13.53331 -10.05417,-13.53331 -19.19433,0 -6.17352,9.14076 -20.85065,14.20997 -41.14286,14.20997 -37.29055,0 -40.21844,-9.32536 -8.68855,-27.67325 32.17589,-18.72381 28.71347,-34.102 -17.57305,-78.04992 -38.19915,-36.26915 -40.02219,-40.12432 -33.03659,-69.86194 19.27109,-82.03682 19.27818,-84.25436 0.26954,-84.25436 -12.10959,0 -19.61932,7.20904 -23.26133,22.32996 -2.9581,12.28147 -9.20792,30.72337 -13.88848,40.98198 -4.68054,10.25862 -8.51009,29.7932 -8.51009,43.41019 0,13.61698 -5.85685,43.59049 -13.0152,66.60779 -7.15835,23.01731 -15.68298,62.8601 -18.9436,88.53955 -5.61592,44.22883 -7.21904,46.64025 -30.41337,45.74798 -13.46674,-0.51807 -31.68498,-2.61299 -40.48498,-4.65539 z M 469.6186,722.77707 c 11.36096,-19.51178 12.97013,-37.56591 7.73428,-86.77491 l -6.6114,-62.13706 -16.90026,36.53992 c -9.29514,20.09696 -20.00483,40.59488 -23.79929,45.55093 -3.79448,4.95606 -14.69268,18.82179 -24.21823,30.81274 l -17.31918,21.80173 25.57541,23.70842 c 28.74573,26.64732 35.12602,25.55576 55.53867,-9.50177 z"
         id="path5252"
         inkscape:connector-curvature="0" />
      <path
         style="fill-opacity:1"
         d="m 196.85716,889.17675 c -20.9271,-5.07884 -20.51539,-19.40394 0.69928,-24.33104 31.50303,-7.31656 51.39843,-50.88028 51.30574,-112.34098 -0.18143,-120.30531 -8.44043,-187.00619 -22.68436,-183.20216 -49.36701,13.18415 -88.54569,-5.47787 -141.980033,-67.62946 -27.067431,-31.48321 -31.34063,-42.64815 -31.34063,-81.88626 0,-28.08858 5.619256,-53.04933 14.719556,-65.38431 18.832143,-25.52598 10.622514,-44.43691 -19.290985,-44.43691 -54.8607675,0 -28.340026,-51.83543 30.543082,-59.69719 16.798695,-2.24288 37.69409,-9.82551 46.4342,-16.85029 20.07883,-16.13817 36.95058,-16.15141 62.83544,-0.0493 42.11759,26.19991 61.95402,111.85791 33.6108,145.13865 -14.13918,16.60226 -18.25653,45.13793 -6.51287,45.13793 3.80086,0 16.26584,-18.11095 27.69995,-40.24655 12.98115,-25.13052 34.28052,-48.76608 56.70977,-62.92987 19.75625,-12.47583 43.12492,-34.43779 51.93039,-48.80436 28.75862,-46.92115 106.8289,-81.21916 163.41394,-71.79136 32.01292,5.33376 68.18857,37.39307 68.19758,60.43753 0.003,7.2132 16.45766,36.86587 36.5663,65.89481 20.10865,29.02894 36.56348,56.44557 36.5663,60.92583 0.003,4.48028 14.40513,26.13392 32.00513,48.11921 26.85341,33.54432 32.00001,46.87241 32.00001,82.87014 0,41.1169 -23.17121,99.77212 -39.58487,100.20444 -4.17167,0.10986 -4.77191,-23.12842 -1.33387,-51.64068 3.43804,-28.51225 3.18325,-60.42468 -0.56622,-70.9165 l -6.81718,-19.07603 -8.5053,20.1666 c -4.6779,11.09163 -7.73397,56.70653 -6.79127,101.36644 0.94271,44.65991 1.51771,90.33481 1.27776,101.49979 -0.23991,11.16498 -1.00445,45.87791 -1.69892,77.13984 -0.6945,31.26194 0.0548,64.14787 1.66431,73.07985 2.35254,13.05272 -2.90473,16.73935 -26.7873,18.78443 -33.87882,2.90109 -34.81101,0.14689 -15.98747,-47.23591 19.35572,-48.72241 16.4659,-145.84834 -5.41844,-182.11168 -9.42049,-15.61017 -19.80927,-43.2731 -23.08619,-61.47316 -3.27692,-18.20008 -10.07719,-31.87161 -15.11173,-30.38118 -17.50975,5.18361 -44.78113,81.51919 -38.96315,109.06213 4.5508,21.54395 -0.34597,33.99925 -26.78931,68.14032 -36.68085,47.35879 -37.55543,50.3758 -18.64372,64.31518 16.14463,11.89983 18.21601,45.29051 3.31689,53.46849 -5.77498,3.16984 -17.35988,-2.49068 -26.05844,-12.73247 l -15.66105,-18.43951 -5.0856,17.27169 c -3.77745,12.82895 -12.22235,17.27168 -32.83055,17.27168 -34.27164,0 -44.6843,-12.47577 -20.14686,-24.13864 10.08273,-4.79241 22.8727,-16.24824 28.42215,-25.4574 8.81342,-14.62565 4.63145,-21.19463 -33.05663,-51.92494 l -43.1465,-35.18104 6.36142,-49.93703 c 3.49879,-27.46538 8.76196,-55.49284 11.69593,-62.28326 4.01987,-9.30363 -0.0521,-11.66986 -16.52385,-9.60169 -15.44361,1.93909 -22.65392,8.70191 -24.56927,23.04448 -1.49101,11.16498 -7.05216,30.17509 -12.35813,42.24469 -5.30595,12.06961 -11.16235,35.82056 -13.01421,52.7799 -1.85187,16.95934 -10.69071,65.54808 -19.64188,107.975 -15.25902,72.32498 -17.70153,77.21835 -39.132,78.39753 -12.57142,0.69172 -30.05714,-0.4897 -38.85714,-2.62539 z M 468.68484,727.3204 c 12.69566,-23.76092 14.42763,-41.26224 9.2371,-93.33893 -3.51362,-35.25205 -10.07629,-62.07038 -14.58372,-59.59629 -4.50744,2.47409 -8.19534,13.20203 -8.19534,23.83987 0,10.63783 -4.11428,21.59981 -9.14286,24.35995 -5.02857,2.76013 -9.14285,11.47382 -9.14285,19.36375 0,7.88992 -10.28572,22.92719 -22.85715,33.41614 -12.57143,10.48895 -22.85714,23.41659 -22.85714,28.72809 0,10.54486 43.99672,52.47174 55.06215,52.47174 3.76989,0 13.88581,-13.15994 22.47981,-29.24432 z"
         id="path5250"
         inkscape:connector-curvature="0" />
      <path
         style="fill-opacity:1"
         d="m 201.42859,889.01378 c -25.85324,-4.59824 -26.52984,-15.99536 -1.37059,-23.08723 10.9639,-3.0905 26.91887,-20.90821 37.19208,-41.53422 16.29293,-32.71216 17.37771,-46.85617 11.49174,-149.83773 C 243.00935,574.25885 240.50839,561.54124 227.54974,566.79119 183.66853,584.56879 135.75716,563.75902 89.252754,506.72343 56.897831,467.04154 46.041187,393.94503 67.124407,357.73585 85.531576,326.12263 79.896098,313.55042 44.500111,307.26322 28.982199,304.50685 16.285727,297.24563 16.285727,291.12717 c 0,-17.98388 31.373266,-38.00142 59.55922,-38.00142 14.365664,0 35.673363,-7.97134 47.350443,-17.71409 20.46646,-17.07617 22.37261,-17.23062 52.93029,-4.28895 52.01301,22.02837 75.95278,97.07264 45.87434,143.80279 -15.42222,23.96009 -17.59962,48.7199 -4.28448,48.7199 5.18638,0 11.62005,-6.39449 14.29702,-14.20997 13.25957,-38.71168 38.75593,-71.24126 70.42836,-89.85616 19.27267,-11.32717 41.31757,-31.37412 48.98868,-44.54878 21.42069,-36.78878 57.39759,-59.80087 109.76386,-70.20883 71.28693,-14.16851 106.37973,5.89437 127.09961,72.66404 3.46471,11.16498 18.1233,34.72227 32.57464,52.34956 14.45135,17.62727 26.27518,36.44355 26.27518,41.81393 0,5.3704 14.69446,29.15731 32.65437,52.85981 41.10704,54.25083 49.86939,109.71393 25.29278,160.09585 -9.10056,18.65608 -19.78646,33.92015 -23.74646,33.92015 -3.95999,0 -4.50329,-28.71809 -1.20732,-63.81797 4.05003,-43.13025 2.72435,-65.61191 -4.08946,-69.35196 -18.21129,-9.996 -24.67628,44.2317 -22.16884,185.94983 0.63214,35.72792 0.50158,83.22983 -0.29019,105.55978 -0.79177,22.32996 0.51995,51.5619 2.91493,64.95987 4.0209,22.49391 2.07826,24.55486 -25.35982,26.90441 -16.34286,1.39947 -29.65235,1.39947 -29.57664,0 0.0759,-1.39945 6.06657,-17.16043 13.31299,-35.02439 17.82051,-43.93131 18.31266,-165.46984 0.76014,-187.72594 -7.26978,-9.21788 -18.11487,-34.69537 -24.10021,-56.61664 -5.98534,-21.92126 -13.83558,-42.7937 -17.44498,-46.38318 -12.73261,-12.66238 -48.03468,76.74767 -43.12867,109.23257 3.86402,25.58542 -0.54052,37.16357 -26.45046,69.52929 -34.92098,43.62203 -37.18957,52.69706 -16.90995,67.64469 16.51137,12.17015 14.21943,49.57029 -3.35201,54.69847 -6.61792,1.93143 -14.29777,-4.18126 -17.06632,-13.58377 -5.74168,-19.49982 -21.18675,-23.19596 -21.18675,-5.07018 0,13.71793 -38.40745,24.68236 -60.31122,17.21745 -12.04422,-4.10473 -9.61788,-9.15335 13.69384,-28.49348 15.58242,-12.92767 28.33167,-27.33795 28.33167,-32.02285 0,-4.68492 -18.9076,-22.40236 -42.01689,-39.3721 l -42.01689,-30.85409 5.37622,-44.6599 c 2.95693,-24.56295 8.0389,-53.20238 11.29327,-63.64318 5.13292,-16.46762 3.0381,-18.61972 -15.80767,-16.23996 -16.74408,2.11436 -23.03647,9.25888 -27.44641,31.16323 -3.14694,15.63097 -10.34628,38.57537 -15.99854,50.98755 -5.65226,12.41217 -9.59379,30.68214 -8.75898,40.59992 0.83483,9.91777 -3.00243,30.82129 -8.52724,46.45225 -9.7661,27.63058 -23.93909,97.21324 -24.80886,121.79976 -0.45068,12.73987 -22.69073,16.85357 -57.57373,10.6493 z M 468.62238,732.60801 c 15.59796,-26.78858 19.20273,-134.73176 5.15805,-154.45536 -7.49333,-10.52322 -9.02502,-10.52322 -12.80974,0 -19.69888,54.77191 -38.07891,90.45132 -52.61327,102.13318 -22.02025,17.69856 -21.68053,28.44647 1.73476,54.88388 24.60356,27.77903 41.28917,27.04876 58.5302,-2.5617 z"
         id="path5248"
         inkscape:connector-curvature="0" />
      <path
         style="fill-opacity:1"
         d="m 201.42859,888.8739 c -25.5527,-4.37104 -26.62738,-15.82798 -2.13239,-22.73262 10.14148,-2.85867 27.00369,-20.10748 37.4716,-38.3307 17.67452,-30.76896 18.5737,-41.30069 12.60186,-147.5993 -3.53689,-62.95639 -8.03887,-115.97322 -10.00439,-117.81518 -1.96553,-1.84196 -12.84822,0.26836 -24.18376,4.68958 -37.33437,14.5616 -80.37809,-6.73966 -129.055804,-63.86649 -23.853055,-27.99328 -25.314921,-34.09547 -21.397855,-89.31982 2.312363,-32.6006 7.238484,-69.32231 10.946935,-81.60378 6.036659,-19.99192 4.355026,-22.32996 -16.060857,-22.32996 -12.541924,0 -27.989378,-5.54953 -34.327675,-12.33229 -16.292535,-17.43501 12.68774,-44.50759 47.643864,-44.50759 14.509968,0 38.151182,-7.72801 52.536022,-17.17335 25.31227,-16.6205 27.02763,-16.71516 53.28347,-2.94063 14.92108,7.828 34.16383,28.39321 42.76166,45.70045 13.23264,26.63699 14.01727,37.3723 5.11113,69.93049 -19.07609,69.73651 -20.75184,83.12267 -10.40571,83.12267 5.50351,0 12.81718,-10.04848 16.25262,-22.32995 9.35707,-33.45095 39.25423,-70.15233 73.28586,-89.96483 16.67616,-9.7085 40.09374,-31.40189 52.03908,-48.20753 29.99896,-42.20488 44.53342,-51.28328 100.65333,-62.8693 72.60993,-14.99039 98.78413,-2.74966 124.41765,58.18569 10.97748,26.09539 25.65931,53.06065 32.62628,59.92281 6.96699,6.86215 20.83122,28.78611 30.80942,48.7199 9.9782,19.93379 28.31022,48.42005 40.73782,63.30279 30.90024,37.00478 38.84452,94.16708 19.15953,137.86065 -18.40175,40.84521 -37.11349,46.14341 -26.94513,7.62946 7.19839,-27.26481 6.68569,-96.14082 -0.76489,-102.75787 -2.32185,-2.06208 -9.29582,0.7688 -15.49773,6.2909 -7.98918,7.11344 -10.47898,37.72632 -8.54132,105.01845 1.50417,52.23807 1.83813,105.94029 0.74212,119.33826 -3.73483,45.65585 -3.15333,105.51062 1.26074,129.76907 3.41232,18.75307 0.67877,24.85553 -12.12893,27.07669 -35.12399,6.09133 -42.21091,-2.9229 -28.71688,-36.52647 14.07199,-35.04287 17.78287,-177.77318 4.80712,-184.89544 -4.64409,-2.5491 -15.24908,-23.7752 -23.56664,-47.16913 -8.31757,-23.39392 -17.19998,-48.01539 -19.73871,-54.71438 -9.26813,-24.45607 -47.97156,58.37286 -48.40915,103.6001 -0.33096,34.20737 -5.86854,49.38864 -27.84171,76.32816 -30.9493,37.9444 -33.37009,49.18341 -13.71429,63.67125 15.17494,11.18509 18.53764,45.11398 5.197,52.43652 -4.6845,2.57128 -14.92404,-3.44854 -22.75451,-13.37738 -12.99811,-16.48125 -15.24084,-16.88511 -25.76843,-4.64027 -14.55205,16.92577 -57.74942,26.71529 -65.94108,14.94376 -3.4388,-4.9416 3.79104,-12.13939 16.50594,-16.43276 42.27233,-14.27384 39.88224,-38.64624 -8.02609,-81.8443 -38.8472,-35.0278 -42.65909,-41.73752 -37.54428,-66.08568 19.12978,-91.06384 19.36485,-87.99948 -6.75044,-87.99948 -19.73419,0 -24.06097,3.74644 -24.06097,20.83378 0,11.45857 -4.96652,28.81504 -11.03671,38.56992 -6.07019,9.75488 -14.02364,37.8331 -17.67435,62.39605 -3.6507,24.56295 -12.66474,72.06486 -20.03119,105.55979 -7.36644,33.49493 -11.77947,63.25749 -9.80672,66.13901 3.65258,5.33522 -20.2255,15.96705 -31.34166,13.95503 -3.36015,-0.60819 -15.36651,-2.68932 -26.6808,-4.62475 z M 468.98805,731.98 c 16.26228,-27.92951 15.9486,-154.77126 -0.39461,-159.5694 -5.17362,-1.5189 -15.00055,14.62995 -21.83762,35.88635 -6.83707,21.2564 -22.14696,50.27967 -34.02198,64.49616 -26.34371,31.53806 -26.50851,35.42935 -2.64165,62.3766 24.73619,27.92878 41.29906,27.03176 58.89587,-3.18971 z"
         id="path5246"
         inkscape:connector-curvature="0" />
      <path
         style="fill-opacity:1"
         d="m 210.57145,888.8739 c -25.24748,-4.31883 -26.71524,-15.80322 -2.87845,-22.52232 19.22534,-5.41922 47.03317,-60.93842 49.4091,-98.64675 0.80814,-12.82604 -2.0944,-63.72481 -6.45009,-113.10836 l -7.91945,-89.78828 -44.57913,0 c -41.93028,0 -47.29977,-2.54674 -90.36628,-42.86058 -45.254064,-42.36158 -45.787136,-43.47162 -45.787136,-95.34459 0,-31.38956 5.662236,-62.20855 14.087926,-76.67918 16.51558,-28.36453 11.269918,-39.95821 -18.079444,-39.95821 -11.658935,0 -26.09142,-5.23649 -32.072187,-11.63665 -16.49017,-17.6465 18.746602,-45.20323 57.801354,-45.20323 16.984277,0 36.002337,-5.48099 42.262357,-12.17998 25.1368,-26.89947 75.59023,-5.87524 94.88556,39.53935 11.28152,26.55284 12.2286,40.30721 4.54598,66.02044 -5.33741,17.86396 -11.8887,44.81089 -14.55844,59.88206 -6.76268,38.17668 13.93645,30.29035 30.04315,-11.44638 7.98911,-20.7019 30.6691,-46.6898 63.52973,-72.79563 28.10777,-22.32996 56.02748,-49.38266 62.04381,-60.11712 17.59611,-31.39535 54.11461,-50.02967 107.47667,-54.84219 41.63231,-3.75466 53.73495,-1.68198 74.18871,12.70541 13.44249,9.45558 27.1108,27.98806 30.37404,41.18329 3.26325,13.19523 16.30293,37.56246 28.97707,54.14941 12.67416,16.58695 32.81715,48.68075 44.7622,71.31954 11.94505,22.63879 30.41056,50.64946 41.03446,62.24591 22.69958,24.77761 27.34766,97.26613 8.78846,137.05926 -14.47494,31.03599 -32.06925,32.73498 -23.05134,2.22595 8.70296,-29.44352 5.93265,-101.60017 -4.24787,-110.64172 -18.24008,-16.19944 -26.72121,62.67141 -24.12174,224.32149 1.49021,92.66931 0.27758,168.43976 -2.69477,168.37877 -2.97233,-0.0609 -14.7481,-2.33428 -26.16836,-5.05178 -16.89908,-4.02121 -18.72348,-7.12464 -9.80123,-16.67255 17.72969,-18.97295 22.26497,-184.77119 5.6732,-207.39761 -7.43168,-10.13467 -19.02041,-37.61013 -25.75274,-61.05659 -6.73233,-23.44645 -15.77823,-42.62991 -20.10201,-42.62991 -15.64701,0 -43.1412,69.8312 -43.33802,110.07222 -0.15287,31.25365 -5.81471,47.72788 -23.72062,69.01986 -40.05214,47.62613 -41.59644,52.7595 -21.9304,72.89781 21.11575,21.62284 23.75231,48.4495 4.76167,48.4495 -7.29298,0 -17.57568,-6.39449 -22.85042,-14.20997 -9.13376,-13.53331 -10.18298,-13.53331 -22.03368,0 -6.84376,7.81548 -23.90471,14.20997 -37.9132,14.20997 l -25.46999,0 24.1922,-19.91224 c 13.30572,-10.95173 24.19221,-24.80691 24.19221,-30.78929 0,-5.98238 -18.79291,-27.16731 -41.762,-47.07762 -44.9838,-38.99332 -44.58028,-36.97445 -23.99674,-120.0595 6.87087,-27.73415 6.04674,-36.04508 -3.91081,-39.43867 -22.37521,-7.62557 -40.03636,4.46372 -40.36872,27.63294 -0.17819,12.42164 -6.20383,31.71978 -13.39031,42.88476 -7.18647,11.16498 -13.21211,31.88031 -13.3903,46.03408 -0.1782,14.15376 -6.32602,47.03969 -13.66186,73.07985 -7.33582,26.04015 -14.53582,61.9617 -16,79.82566 -2.37748,29.00705 -12.49527,46.22594 -25.51927,43.42978 -2.51428,-0.5398 -13.82857,-2.56498 -25.14285,-4.50041 z M 484.5382,699.62499 c 6.55303,-39.65355 -3.53185,-129.81989 -14.52005,-129.81989 -5.73269,0 -15.75435,15.52947 -22.27035,34.50993 -6.51599,18.98046 -24.05894,49.82722 -38.98434,68.54834 l -27.13708,34.03841 29.47549,29.81495 29.47551,29.81496 20.16338,-22.45825 c 11.08987,-12.35202 21.79871,-32.35383 23.79744,-44.44845 z"
         id="path5244"
         inkscape:connector-curvature="0" />
      <path
         style="fill-opacity:1"
         d="m 210.57145,888.31153 c -24.94223,-3.58475 -26.85437,-15.20163 -3.58197,-21.76164 9.3442,-2.63393 24.77277,-20.11905 34.28571,-38.85582 17.84519,-35.14803 19.45819,-66.53767 10.12249,-196.98909 l -4.64882,-64.95987 -40.34162,-0.22013 c -45.40045,-0.24773 -75.98542,-17.55881 -117.912304,-66.7383 -21.50828,-25.22884 -26.030044,-38.59644 -26.240568,-77.57451 -0.145636,-26.96422 5.76722,-57.43484 13.833572,-71.28833 16.604838,-28.51782 11.262502,-39.95821 -18.659355,-39.95821 -52.2810377,0 -38.362113,-45.03897 16.381509,-53.00742 21.1616,-3.08027 45.800226,-11.35013 54.752496,-18.37747 12.25589,-9.6206 22.23955,-10.90667 40.41372,-5.20598 50.85003,15.95013 72.43916,91.77535 43.59,153.0965 -14.57904,30.98887 -11.75053,45.29412 8.95577,45.29412 6.73962,0 14.93359,-13.14375 18.38751,-29.49493 4.6055,-21.80296 21.30796,-42.44968 64.04556,-79.16984 31.79838,-27.3212 62.29718,-57.54045 67.77509,-67.15389 12.94971,-22.72601 80.50547,-51.54087 120.83635,-51.54087 43.61304,0 66.60389,16.74824 85.80069,62.50359 8.99853,21.44791 25.8776,50.37227 37.50905,64.27636 11.63143,13.90408 23.65114,34.13745 26.71046,44.96304 3.05931,10.82559 19.73597,35.59017 37.05925,55.03241 27.72246,31.11346 31.49685,41.0051 31.49685,82.54463 0,47.52169 -13.84348,88.55916 -29.87433,88.55916 -5.04463,0 -5.48043,-5.92611 -1.04498,-14.20997 7.86431,-14.68776 6.75689,-107.39569 -1.36908,-114.61256 -2.52329,-2.24099 -9.66209,0.4444 -15.864,5.96753 -7.81337,6.95825 -11.59141,46.68912 -12.30268,129.37841 -0.56457,65.63498 -2.07993,128.47131 -3.36745,139.63629 -2.23534,19.38409 -2.65585,19.20091 -9.32034,-4.05999 -3.83867,-13.39797 -7.59702,-40.80292 -8.3519,-60.89988 -0.75488,-20.09696 -7.08311,-43.23202 -14.06274,-51.41124 -6.97964,-8.17923 -17.54486,-32.84368 -23.47829,-54.80989 -5.93342,-21.96621 -14.40835,-39.93857 -18.83317,-39.93857 -17.19896,0 -44.98819,65.08169 -44.98819,105.36122 0,33.58423 -6.00165,49.07618 -33.00569,85.19707 l -33.00569,44.14874 18.78054,21.20445 c 10.32929,11.66245 16.5131,26.45223 13.74179,32.86618 -6.77282,15.67509 -10.89105,14.80203 -31.17126,-6.60823 l -17.30566,-18.26997 -5.79764,18.26997 c -4.4579,14.04803 -12.41778,18.21051 -34.44559,18.01272 l -28.64795,-0.25724 25.14286,-16.65999 c 35.20087,-23.32455 31.49469,-42.3226 -16,-82.01658 -40.6062,-33.93688 -52.88283,-65.34371 -32.80143,-83.91458 4.58779,-4.24269 9.73065,-22.23859 11.42858,-39.99088 2.50812,-26.22314 -0.0959,-32.83853 -13.88402,-35.27142 -9.33413,-1.64699 -20.96825,0.55541 -25.85359,4.89417 -10.328,9.17253 -24.25141,53.64472 -34.86913,111.37405 -20.58395,111.91637 -40.78324,190.44579 -49.61398,192.88578 -5.40925,1.49461 -19.09215,1.38702 -30.40643,-0.2391 z M 473.6816,731.76433 c 16.77016,-29.19461 18.08463,-40.45215 11.61439,-99.4698 -4.21661,-38.46139 -11.15483,-65.27663 -16.43882,-63.53379 -5.02857,1.65859 -16.84434,21.75555 -26.25726,44.6599 -9.41291,22.90436 -26.89862,50.97921 -38.85714,62.38857 -11.95851,11.40934 -21.74275,24.67824 -21.74275,29.48643 0,9.95431 54.56293,59.38907 65.54985,59.38907 3.97175,0 15.73103,-14.81417 26.13173,-32.92038 z m 148.75193,132.02456 c -8.52664,-4.81344 -8.32189,-15.26755 0.912,-46.56556 l 11.90712,-40.35865 11.75811,33.90037 c 16.07651,46.35093 5.19364,69.83005 -24.57723,53.02384 z"
         id="path5242"
         inkscape:connector-curvature="0" />
    </g>
  </g>
</svg>
