<?xml version="1.0" encoding="UTF-8" standalone="no"?>
<!-- Created with Inkscape (http://www.inkscape.org/) -->

<svg
   xmlns:dc="http://purl.org/dc/elements/1.1/"
   xmlns:cc="http://creativecommons.org/ns#"
   xmlns:rdf="http://www.w3.org/1999/02/22-rdf-syntax-ns#"
   xmlns:svg="http://www.w3.org/2000/svg"
   xmlns="http://www.w3.org/2000/svg"
   xmlns:sodipodi="http://sodipodi.sourceforge.net/DTD/sodipodi-0.dtd"
   xmlns:inkscape="http://www.inkscape.org/namespaces/inkscape"
   width="210mm"
   height="297mm"
   viewBox="0 0 744.09448819 1052.3622047"
   id="svg3812"
   version="1.1"
   inkscape:version="0.91 r13725"
   sodipodi:docname="php.svg">
  <defs
     id="defs3814" />
  <sodipodi:namedview
     id="base"
     pagecolor="#ffffff"
     bordercolor="#666666"
     borderopacity="1.0"
     inkscape:pageopacity="0.0"
     inkscape:pageshadow="2"
     inkscape:zoom="0.35"
     inkscape:cx="375"
     inkscape:cy="520"
     inkscape:document-units="px"
     inkscape:current-layer="layer1"
     showgrid="false"
     inkscape:window-width="1600"
     inkscape:window-height="847"
     inkscape:window-x="-8"
     inkscape:window-y="-8"
     inkscape:window-maximized="1" />
  <metadata
     id="metadata3817">
    <rdf:RDF>
      <cc:Work
         rdf:about="">
        <dc:format>image/svg+xml</dc:format>
        <dc:type
           rdf:resource="http://purl.org/dc/dcmitype/StillImage" />
        <dc:title></dc:title>
      </cc:Work>
    </rdf:RDF>
  </metadata>
  <g
     inkscape:label="Camada 1"
     inkscape:groupmode="layer"
     id="layer1">
    <path
       style="fill:#000000"
       d="M 283.44643,807.31858 C 196.29564,786.50821 110.03486,730.44305 68.6077,667.68432 -42.771064,498.95461 63.105758,294.06648 288.27418,242.59549 432.98643,209.5159 604.26259,271.1572 678.37461,382.99044 c 25.58235,38.60303 46.86882,103.16931 46.86882,142.1625 0,38.9932 -21.28647,103.55945 -46.86882,142.16249 C 604.21293,779.22364 427.75672,841.77781 283.44643,807.31858 Z M 163.3783,691.32887 c 1.07297,-5.64174 3.29632,-23.62512 4.94076,-39.96291 l 2.98993,-29.70519 36.786,-3.87991 c 44.17815,-4.65956 65.76746,-22.79457 81.50797,-68.46659 24.39451,-70.78192 10.1054,-144.14939 -31.12232,-159.7978 -18.96513,-7.19843 -102.35975,-11.2811 -102.35975,-5.01116 0,1.62871 -7.86424,68.87479 -17.47606,149.4359 -9.61183,80.56104 -17.47606,151.23812 -17.47606,157.06007 0,14.10262 39.5314,14.40946 42.20953,0.32759 z m 17.70838,-139.04558 c 0,-11.15947 2.5571,-41.21624 5.68245,-66.79285 l 5.68249,-46.5028 26.16168,0 c 32.43576,0 39.72214,11.91865 35.90205,58.72633 -3.72876,45.68934 -15.95813,63.67277 -47.47107,69.80668 -25.11132,4.88789 -25.9576,4.39106 -25.9576,-15.23736 z M 493.3219,670.81331 c 5.17179,-51.14437 5.26382,-51.28583 33.38434,-51.33462 37.50081,-0.0657 59.42921,-12.22483 77.46586,-42.95666 C 634.60512,524.6689 639.7671,457.07861 616.42991,416.02 600.47078,387.94207 571.66476,378.5025 515.75572,383.02956 l -32.32811,2.61766 -15.42423,131.2995 c -8.48333,72.21472 -16.91042,143.30113 -18.72694,157.9697 l -3.30268,26.67022 22.11814,0 c 21.67671,0 22.18021,-0.61383 25.23,-30.77333 z m 12.32011,-103.12215 c 0,-6.94588 10.86333,-101.78188 13.09774,-114.34264 2.01241,-11.31243 8.10083,-14.36088 28.68198,-14.36088 14.36996,0 28.82355,4.43135 32.11905,9.84746 7.98442,13.12233 7.56798,41.92334 -1.09911,76.01466 -5.46447,21.49419 -11.47707,29.89322 -26.21408,36.61865 -17.9194,8.17779 -46.58558,12.00695 -46.58558,6.22275 z m -165.42456,12.85375 c 2.93642,-21.43871 7.94672,-62.05949 11.13399,-90.2684 l 5.79507,-51.28887 26.27855,0 c 17.42688,0 27.14788,3.72365 28.85963,11.05457 1.41965,6.08008 -0.31398,34.6993 -3.85233,63.59819 -3.53835,28.89908 -7.77371,64.5452 -9.41182,79.21384 l -2.97837,26.67022 21.66109,0 21.66112,0 8.17688,-67.70131 c 4.49727,-37.23569 8.17516,-83.3106 8.17303,-102.3886 -0.004,-44.67013 -11.93743,-58.30164 -57.10204,-65.23313 l -33.50781,-5.14254 3.32972,-39.78849 3.32968,-39.78847 -20.34609,0 c -17.05003,0 -20.74014,2.99113 -22.77867,18.464 -8.03535,60.98907 -32.70974,279.34335 -32.70974,289.46254 0,8.61285 5.63072,12.116 19.47463,12.116 19.15473,0 19.56229,-0.64009 24.81348,-38.97955 z"
       id="path3842"
       inkscape:connector-curvature="0" />
  </g>
</svg>
