<?xml version="1.0" encoding="UTF-8" standalone="no"?>
<!-- Created with Inkscape (http://www.inkscape.org/) -->

<svg
   xmlns:dc="http://purl.org/dc/elements/1.1/"
   xmlns:cc="http://creativecommons.org/ns#"
   xmlns:rdf="http://www.w3.org/1999/02/22-rdf-syntax-ns#"
   xmlns:svg="http://www.w3.org/2000/svg"
   xmlns="http://www.w3.org/2000/svg"
   xmlns:sodipodi="http://sodipodi.sourceforge.net/DTD/sodipodi-0.dtd"
   xmlns:inkscape="http://www.inkscape.org/namespaces/inkscape"
   width="210mm"
   height="297mm"
   viewBox="0 0 744.09448819 1052.3622047"
   id="svg4901"
   version="1.1"
   inkscape:version="0.91 r13725"
   sodipodi:docname="postgresql.svg">
  <defs
     id="defs4903" />
  <sodipodi:namedview
     id="base"
     pagecolor="#ffffff"
     bordercolor="#666666"
     borderopacity="1.0"
     inkscape:pageopacity="0.0"
     inkscape:pageshadow="2"
     inkscape:zoom="0.35"
     inkscape:cx="375"
     inkscape:cy="520"
     inkscape:document-units="px"
     inkscape:current-layer="layer1"
     showgrid="false"
     inkscape:window-width="1600"
     inkscape:window-height="847"
     inkscape:window-x="-8"
     inkscape:window-y="-8"
     inkscape:window-maximized="1" />
  <metadata
     id="metadata4906">
    <rdf:RDF>
      <cc:Work
         rdf:about="">
        <dc:format>image/svg+xml</dc:format>
        <dc:type
           rdf:resource="http://purl.org/dc/dcmitype/StillImage" />
        <dc:title></dc:title>
      </cc:Work>
    </rdf:RDF>
  </metadata>
  <g
     inkscape:label="Camada 1"
     inkscape:groupmode="layer"
     id="layer1">
    <path
       style="fill:#000000"
       d="m 407.86062,871.1771 c -37.34209,-13.2753 -55.90911,-51.052 -60.82498,-123.7552 -1.73811,-25.7057 -4.02873,-47.6038 -5.09027,-48.6624 -1.06155,-1.0586 -7.98883,-0.192 -15.39396,1.9259 -29.22374,8.3581 -77.60357,1.065 -94.58217,-14.258 -7.30563,-6.5932 -8.19763,-6.5737 -20.10203,0.439 -19.9207,11.7349 -46.07996,10.1742 -66.43171,-3.9635 C 98.848472,650.5404 53.313013,535.76004 29.85962,391.57297 19.594159,328.46284 29.189853,275.61037 58.63327,233.08954 92.393302,184.33486 172.7656,166.48668 261.18029,188.11017 c 30.27601,7.40457 36.60908,7.86631 47.33259,3.45101 28.93501,-11.91371 59.42431,-16.23671 98.8085,-14.0098 22.71673,1.28448 45.08487,0.51158 53.03571,-1.83257 28.13301,-8.29444 75.42209,-9.2558 110.18154,-2.23993 63.21656,12.75969 122.94581,55.74466 135.35295,97.4086 16.2838,54.682 -4.45241,152.86111 -53.40626,252.86108 -13.03123,26.61943 -22.7522,49.33729 -21.60215,50.4842 1.15005,1.14687 12.64599,0.0157 25.54655,-2.51663 26.63477,-5.22561 47.31002,0.29618 55.03972,14.69925 20.18684,37.61523 -38.01584,83.94222 -112.63021,89.64922 l -28.48214,2.1785 -0.0275,18.0437 c -0.0503,32.6682 -10.65075,89.374 -20.69422,110.701 -17.01869,36.1388 -39.93719,54.0588 -81.68875,63.8728 -30.76641,7.2318 -40.48939,7.283 -60.08572,0.3166 z m 87.99115,-27.9067 c 38.11716,-20.4857 40.98852,-28.7516 61.1213,-175.9526 l 1.60746,-11.75312 32.40615,-0.3761 c 39.68246,-0.46068 70.07569,-11.07124 90.73951,-31.67793 15.45146,-15.40882 17.84899,-24.81127 8.33446,-32.6858 -4.73742,-3.92086 -12.85153,-4.0588 -38.30357,-0.65117 -33.12398,4.43478 -53.89999,2.85724 -53.89999,-4.09268 0,-2.16035 5.98796,-13.8549 13.30658,-25.98788 46.72273,-77.45792 80.97912,-182.56557 80.97912,-248.46546 0,-37.11788 -9.83855,-56.73351 -41.08405,-81.91152 -34.66556,-27.93391 -66.09986,-39.13724 -116.13218,-41.39001 -26.48615,-1.19258 -49.76038,-0.007 -64.82142,3.30067 -12.9239,2.83873 -47.36412,5.2521 -76.53376,5.36305 -46.91316,0.17843 -55.37777,1.25832 -73.32353,9.35438 l -20.28782,9.15267 -34.71218,-8.8874 C 219.08677,194.79082 157.46753,193.91851 126.5543,204.64609 97.477082,214.73654 67.978834,244.221 55.499811,275.66737 41.736583,310.34986 42.313456,376.19751 56.923112,438.13128 82.54165,546.73429 113.43594,624.275 143.59311,655.6618 c 15.47736,16.1084 18.41621,17.5336 36.17986,17.5444 l 19.33414,0.012 38.38802,-40.58305 38.38801,-40.58314 17.49975,5.74526 c 15.23414,5.0014 16.99169,6.69189 13.57551,13.05744 -5.1027,9.50815 -12.57384,13.29008 -40.74882,20.62726 -27.73773,7.22333 -35.64864,13.88632 -32.29724,27.20249 3.2925,13.08214 26.12577,23.47634 55.99292,25.48914 22.32072,1.5042 37.77952,-2.7356 64.76124,-17.7616 1.2898,-0.7184 3.39815,24.7548 4.68521,56.6069 3.25525,80.5612 14.57054,111.5604 46.71106,127.9691 20.4408,10.4356 62.78408,6.7962 89.789,-7.7174 z M 426.0063,833.555 c -16.46705,-3.4273 -23.28907,-9.3216 -33.39643,-28.8549 -7.45448,-14.4064 -8.41687,-24.3018 -10.04441,-103.2777 -1.66691,-80.88636 -2.41587,-88.25088 -10.12918,-99.59981 -4.58105,-6.74028 -13.63275,-13.95456 -20.11489,-16.03174 -6.48215,-2.07717 -12.27356,-4.16872 -12.86982,-4.6479 -0.59625,-0.47918 5.53583,-15.66382 13.62685,-33.74369 l 14.71094,-32.87246 0.12316,-56.80692 c 0.13605,-62.75811 -4.43494,-78.99797 -26.95385,-95.76202 -14.86479,-11.06599 -53.20012,-10.38682 -76.27244,1.35128 -9.12518,4.64246 -16.47198,6.50538 -16.47198,4.17677 0,-14.15839 14.48975,-63.9184 23.92021,-82.14566 18.98997,-36.70392 38.86836,-53.96146 74.02497,-64.26518 28.15552,-8.25184 47.60489,-7.88796 84.74858,1.58555 38.77759,9.89024 60.57303,22.56687 90.43017,52.59583 19.37623,19.48774 49.01891,64.41544 49.01891,74.29512 0,1.31445 -8.89606,2.3899 -19.76904,2.3899 -54.45833,0 -74.25609,34.49136 -55.36045,96.44813 7.40611,24.28373 50.29216,109.02851 64.11452,126.69319 7.27461,9.29678 7.28479,9.7168 0.29779,12.29435 -15.03528,5.54655 -17.94214,15.52729 -27.02559,92.79246 -13.05056,111.0105 -19.50677,131.0079 -46.80908,144.9867 -12.89059,6.5999 -46.059,11.2585 -59.79894,8.3987 z M 264.76203,658.12013 c -3.25807,-2.06138 3.03606,-4.9963 17.67857,-8.24335 19.25158,-4.2691 25.47616,-8.00214 40.5966,-24.34686 18.53842,-20.03944 28.45988,-22.11721 33.28085,-6.96962 3.28012,10.30619 -3.75584,21.5156 -20.721,33.01191 -11.91737,8.07568 -19.21688,9.85819 -40.16976,9.80909 -14.08325,-0.031 -27.88261,-1.50055 -30.66526,-3.26117 z M 160.71259,642.10744 C 136.45737,620.86991 106.63205,547.79 82.262667,449.88444 71.805333,407.87143 70.030047,393.3978 69.768789,348.02375 69.490701,299.72643 70.268464,293.60391 78.727043,277.50481 107.04952,223.599 158.5406,207.59208 247.17969,225.13831 l 32.3583,6.40537 -14.12099,19.1835 c -13.82329,18.77907 -26.4051,46.41593 -33.59337,73.79026 -1.98037,7.5416 -5.18558,53.37892 -7.1227,101.86069 -3.93739,98.54381 -1.57902,115.78769 19.26495,140.86068 l 11.25192,13.53478 -28.05535,32.0165 c -25.49354,29.09298 -39.771,40.81573 -49.71063,40.81573 -1.98387,0 -9.51652,-5.17429 -16.73923,-11.49838 z m 401.78735,-16.85258 c 0,-15.65724 9.16434,-20.77852 26.7975,-14.97517 8.25153,2.71576 27.24974,4.26902 43.09571,3.52344 15.58634,-0.73336 28.33479,-0.92846 28.32991,-0.43353 -0.004,0.49488 -7.43694,4.67885 -16.51571,9.29768 -11.32269,5.76046 -26.74532,9.03493 -49.10714,10.42615 l -32.60027,2.02824 0,-9.86681 z M 289.46425,573.61635 c -15.45771,-6.88062 -31.49802,-24.21926 -39.02133,-42.17978 -4.96887,-11.86229 -5.59961,-25.20255 -3.54237,-74.92167 2.86325,-69.19871 2.15375,-67.95356 43.69481,-76.68279 27.06029,-5.68632 46.06231,1.14174 49.47842,17.77924 12.68896,61.79922 11.02289,88.93977 -8.49982,138.46291 -6.37073,16.16059 -12.6506,32.46809 -13.95527,36.2389 -2.804,8.10419 -11.92691,8.52648 -28.15444,1.30319 z m 40.46428,-167.61036 c 7.38483,-7.36444 5.57032,-14.66635 -4.81744,-19.38627 -10.80594,-4.90991 -29.75399,-1.57008 -29.75399,5.24452 0,14.30378 24.40019,24.28489 34.57143,14.14175 z M 592.75965,534.1154 c 1.67816,-8.61898 2.74509,-21.84129 2.37093,-29.3829 -0.95189,-19.18635 -0.96678,-106.8926 -0.0236,-135.23053 0.66974,-20.0908 -1.24662,-27.55653 -12.96421,-50.5082 -16.67289,-32.65785 -60.24786,-80.48474 -86.86381,-95.3398 l -19.33529,-10.79152 22.65312,-2.23901 c 60.64634,-5.99419 113.7112,10.28226 149.34955,45.80961 l 20.625,20.56075 0,36.67138 c 0,54.99354 -22.19458,131.38573 -58.5499,201.52473 -17.58456,33.92529 -20.88742,37.54649 -17.26182,18.92549 z m -46.92109,-30.5161 c -34.02154,-66.2131 -42.95476,-103.39984 -28.3404,-117.97385 8.32547,-8.30248 34.65593,-14.86757 47.11862,-11.74828 9.97232,2.49598 10.17492,3.14863 7.02782,22.63837 -3.34644,20.72434 -3.49266,37.56211 -0.86142,99.18902 0.90506,21.19709 -0.0962,37.66283 -2.43261,40.00285 -2.68003,2.68422 -9.99794,-7.75308 -22.51201,-32.10811 z m 6.7274,-106.03753 c 9.49457,-6.92341 5.2382,-18.19627 -6.87044,-18.19627 -5.05662,0 -12.55874,2.45368 -16.6714,5.45263 -6.35325,4.63278 -6.68918,6.39998 -2.23414,11.75316 6.40506,7.6963 16.07049,8.06771 25.77598,0.99048 z"
       id="path4920"
       inkscape:connector-curvature="0" />
  </g>
</svg>
