<?xml version="1.0" encoding="UTF-8" standalone="no"?>
<!-- Created with Inkscape (http://www.inkscape.org/) -->

<svg
   xmlns:dc="http://purl.org/dc/elements/1.1/"
   xmlns:cc="http://creativecommons.org/ns#"
   xmlns:rdf="http://www.w3.org/1999/02/22-rdf-syntax-ns#"
   xmlns:svg="http://www.w3.org/2000/svg"
   xmlns="http://www.w3.org/2000/svg"
   xmlns:sodipodi="http://sodipodi.sourceforge.net/DTD/sodipodi-0.dtd"
   xmlns:inkscape="http://www.inkscape.org/namespaces/inkscape"
   width="210mm"
   height="297mm"
   viewBox="0 0 744.09448819 1052.3622047"
   id="svg3405"
   version="1.1"
   inkscape:version="0.91 r13725"
   sodipodi:docname="powershell.svg">
  <defs
     id="defs3407" />
  <sodipodi:namedview
     id="base"
     pagecolor="#ffffff"
     bordercolor="#666666"
     borderopacity="1.0"
     inkscape:pageopacity="0.0"
     inkscape:pageshadow="2"
     inkscape:zoom="0.35"
     inkscape:cx="375"
     inkscape:cy="520"
     inkscape:document-units="px"
     inkscape:current-layer="layer1"
     showgrid="false"
     inkscape:window-width="1600"
     inkscape:window-height="847"
     inkscape:window-x="-8"
     inkscape:window-y="-8"
     inkscape:window-maximized="1" />
  <metadata
     id="metadata3410">
    <rdf:RDF>
      <cc:Work
         rdf:about="">
        <dc:format>image/svg+xml</dc:format>
        <dc:type
           rdf:resource="http://purl.org/dc/dcmitype/StillImage" />
        <dc:title></dc:title>
      </cc:Work>
    </rdf:RDF>
  </metadata>
  <g
     inkscape:label="Camada 1"
     inkscape:groupmode="layer"
     id="layer1">
    <path
       style="fill:#000000"
       d="m 15.714266,499.50509 0,-300 354.285714,0 354.28571,0 0,300 0,300 -354.28571,0 -354.285714,0 0,-300 z m 612.467774,182.45192 -0.98426,-25.24038 -134.56045,0 -134.56043,0 -0.98426,25.24038 -0.98429,25.24039 136.52898,0 136.52903,0 -0.98432,-25.24039 z m -275.12356,-72.92017 217.93051,-92.39134 0,-13.67359 0,-13.67361 -21.29121,-9.79416 c -11.71015,-5.38678 -55.78297,-26.23706 -97.93957,-46.33394 -42.15658,-20.09689 -87.37912,-41.49166 -100.4945,-47.54396 -13.11538,-6.05229 -46.07417,-21.66877 -73.24175,-34.70326 -89.30194,-42.8454 -143.25083,-67.76404 -146.70928,-67.76404 -2.12125,0 -3.041,12.08882 -2.44076,32.08029 l 0.96322,32.08027 25.54945,12.0759 c 27.95538,13.21304 121.07071,56.7852 148.18682,69.34216 9.36813,4.33821 39.26098,18.34668 66.42857,31.12994 27.16758,12.78325 58.53636,27.50665 69.70842,32.71867 l 20.31277,9.4764 -64.59849,26.46087 c -98.79223,40.4674 -154.86633,63.40553 -213.63699,87.39213 l -53.65384,21.89822 0,31.8072 c 0,19.83614 1.31652,31.80718 3.49804,31.80718 1.92394,0 101.5668,-41.5761 221.42859,-92.39133 z"
       id="path3435"
       inkscape:connector-curvature="0" />
  </g>
</svg>
