<?xml version="1.0" encoding="UTF-8" standalone="no"?>
<!-- Created with Inkscape (http://www.inkscape.org/) -->

<svg
   xmlns:dc="http://purl.org/dc/elements/1.1/"
   xmlns:cc="http://creativecommons.org/ns#"
   xmlns:rdf="http://www.w3.org/1999/02/22-rdf-syntax-ns#"
   xmlns:svg="http://www.w3.org/2000/svg"
   xmlns="http://www.w3.org/2000/svg"
   xmlns:sodipodi="http://sodipodi.sourceforge.net/DTD/sodipodi-0.dtd"
   xmlns:inkscape="http://www.inkscape.org/namespaces/inkscape"
   width="210mm"
   height="297mm"
   viewBox="0 0 744.09448819 1052.3622047"
   id="svg3444"
   version="1.1"
   inkscape:version="0.91 r13725"
   sodipodi:docname="python.svg">
  <defs
     id="defs3446" />
  <sodipodi:namedview
     id="base"
     pagecolor="#ffffff"
     bordercolor="#666666"
     borderopacity="1.0"
     inkscape:pageopacity="0.0"
     inkscape:pageshadow="2"
     inkscape:zoom="0.35"
     inkscape:cx="375"
     inkscape:cy="520"
     inkscape:document-units="px"
     inkscape:current-layer="layer1"
     showgrid="false"
     inkscape:window-width="1600"
     inkscape:window-height="847"
     inkscape:window-x="-8"
     inkscape:window-y="-8"
     inkscape:window-maximized="1" />
  <metadata
     id="metadata3449">
    <rdf:RDF>
      <cc:Work
         rdf:about="">
        <dc:format>image/svg+xml</dc:format>
        <dc:type
           rdf:resource="http://purl.org/dc/dcmitype/StillImage" />
        <dc:title></dc:title>
      </cc:Work>
    </rdf:RDF>
  </metadata>
  <g
     inkscape:label="Camada 1"
     inkscape:groupmode="layer"
     id="layer1">
    <path
       style="fill:#000000"
       d="m 343.69931,901.9034 c -47.90102,-5.87214 -85.60623,-23.05871 -106.62047,-48.5992 -17.38941,-21.13495 -18.49003,-29.69181 -17.37211,-135.06262 1.00025,-94.28069 1.04231,-94.78545 9.34518,-112.24482 10.51291,-22.10657 29.71112,-38.5618 50.77754,-43.52265 9.36293,-2.2048 53.14621,-3.91381 103.15957,-4.02661 74.53816,-0.1681 88.81651,-1.0541 100.42415,-6.23119 19.88191,-8.86757 41.2626,-30.08269 51.18562,-50.78936 8.07463,-16.84946 8.8405,-22.09685 10.33568,-70.81273 l 1.61485,-52.61477 26.78933,-1.02647 c 67.18055,-2.57417 91.03712,18.32972 109.25535,95.73305 6.08216,25.84117 7.417,40.47857 7.35716,80.67596 -0.068,45.63766 -0.78819,51.47509 -10.19431,82.62361 -11.83911,39.20558 -25.17377,63.00111 -41.58349,74.20528 -11.67021,7.96814 -12.75081,8.03869 -138.74274,9.05869 l -126.98091,1.02799 0,10.37188 0,10.37186 76.66772,0 76.66772,0 0,41.54014 c 0,36.71272 -0.86356,43.3366 -7.43092,56.99931 -4.08702,8.50255 -13.38447,20.45665 -20.66098,26.56462 -31.97747,26.84229 -99.26624,42.46699 -153.99394,35.75803 z m 134.41424,-62.37807 c 23.25898,-25.53912 0.0677,-65.42363 -30.01616,-51.62158 -19.63895,9.01005 -23.12542,35.68113 -6.9815,53.40767 10.85779,11.9222 25.14124,11.23266 36.99766,-1.78609 z M 120.22655,714.46255 C 90.031407,700.07986 75.772642,677.04057 63.952524,623.535 49.018036,555.9318 56.638015,464.08305 80.40465,425.22625 c 11.166244,-18.25601 32.05986,-36.52776 48.546,-42.45411 8.15092,-2.93004 48.37245,-4.70559 127.69886,-5.63713 l 115.8002,-1.3599 0,-10.28769 0,-10.28769 -76.97407,0 -76.97405,0 1.18751,-48.2302 c 1.61284,-65.5038 8.44885,-79.78224 45.1717,-94.35035 54.19282,-21.49854 181.62473,-19.43469 217.29571,3.5192 16.40025,10.55341 33.03301,30.31509 39.23655,46.61774 5.34901,14.05701 6.30837,195.21867 1.14196,215.64167 -4.09901,16.20342 -26.63865,44.44595 -41.33047,51.78769 -9.36038,4.67755 -28.48721,5.96224 -110.35208,7.41209 -95.36298,1.68888 -99.58414,2.05399 -114.0203,9.86182 -18.77272,10.15331 -38.44799,30.8906 -47.91418,50.50042 -6.44889,13.35934 -7.39421,21.06837 -8.40508,68.54392 l -1.13897,53.49167 -34.05407,-0.13722 c -22.97659,-0.0926 -37.645,-1.84774 -45.09332,-5.39555 z M 305.61117,302.85478 c 15.83194,-17.38394 11.74037,-42.19376 -8.48906,-51.47477 -29.59031,-13.57565 -53.15855,26.41516 -30.33624,51.47477 6.37298,6.99776 12.53652,10.25314 19.41264,10.25314 6.87614,0 13.03968,-3.25538 19.41266,-10.25314 z"
       id="path3463"
       inkscape:connector-curvature="0" />
  </g>
</svg>
