<?xml version="1.0" encoding="UTF-8" standalone="no"?>
<!-- Created with Inkscape (http://www.inkscape.org/) -->

<svg
   xmlns:dc="http://purl.org/dc/elements/1.1/"
   xmlns:cc="http://creativecommons.org/ns#"
   xmlns:rdf="http://www.w3.org/1999/02/22-rdf-syntax-ns#"
   xmlns:svg="http://www.w3.org/2000/svg"
   xmlns="http://www.w3.org/2000/svg"
   xmlns:sodipodi="http://sodipodi.sourceforge.net/DTD/sodipodi-0.dtd"
   xmlns:inkscape="http://www.inkscape.org/namespaces/inkscape"
   width="210mm"
   height="297mm"
   viewBox="0 0 744.09448819 1052.3622047"
   id="svg4749"
   version="1.1"
   inkscape:version="0.91 r13725"
   sodipodi:docname="ruby.svg">
  <defs
     id="defs4751" />
  <sodipodi:namedview
     id="base"
     pagecolor="#ffffff"
     bordercolor="#666666"
     borderopacity="1.0"
     inkscape:pageopacity="0.0"
     inkscape:pageshadow="2"
     inkscape:zoom="0.49497475"
     inkscape:cx="567.97065"
     inkscape:cy="637.47774"
     inkscape:document-units="px"
     inkscape:current-layer="layer1"
     showgrid="false"
     inkscape:window-width="1600"
     inkscape:window-height="847"
     inkscape:window-x="-8"
     inkscape:window-y="-8"
     inkscape:window-maximized="1" />
  <metadata
     id="metadata4754">
    <rdf:RDF>
      <cc:Work
         rdf:about="">
        <dc:format>image/svg+xml</dc:format>
        <dc:type
           rdf:resource="http://purl.org/dc/dcmitype/StillImage" />
        <dc:title></dc:title>
      </cc:Work>
    </rdf:RDF>
  </metadata>
  <g
     inkscape:label="Camada 1"
     inkscape:groupmode="layer"
     id="layer1">
    <path
       style="fill:#000000"
       d="m 129.39206,771.62584 c -33.844229,-15.53922 -56.990735,-45.76101 -63.436965,-82.828 -7.187758,-41.33107 0.902116,-131.7385 12.133275,-135.59383 4.565126,-1.56705 17.384448,16.44031 28.48733,40.01647 21.91302,46.53054 24.12988,47.49164 76.72548,33.26237 38.41425,-10.39262 50.98687,-21.91113 57.81616,-52.96881 3.97743,-18.08838 28.36938,-45.8013 87.98897,-99.96874 17.41829,-15.82543 20.0015,-16.55183 15.49748,-4.35797 -3.88801,10.52614 -2.83047,12.98004 3.76821,8.74323 9.68991,-6.22165 47.4028,-14.27039 70.32229,-15.00835 12.22408,-0.39386 13.19829,-5.67134 9.41923,-51.02717 -3.17431,-38.09741 -0.97924,-59.16114 8.89033,-85.30942 l 13.10542,-34.72137 42.66668,-0.10954 c 23.46663,-0.062 42.66692,-2.45114 42.66721,-5.31278 3e-4,-2.86163 -15.92489,-19.51923 -35.38926,-37.0169 -31.52309,-28.33797 -33.94145,-32.68818 -22.13376,-39.81475 12.38505,-7.47511 12.14033,-8.9674 -3.72524,-22.71256 l -16.98133,-14.71182 55.87866,-0.24522 c 67.60055,-0.29722 102.09209,14.99079 121.63417,53.91228 15.77507,31.41877 14.50075,94.13451 -7.35815,362.11969 -10.23626,125.4937 -14.84221,156.19125 -22.95051,152.95878 -5.57922,-2.22422 -8.35739,-1.04071 -6.17374,2.62998 5.57474,9.37092 -40.51877,14.60588 -245.33729,27.8637 -207.43971,13.42755 -194.73303,13.4161 -223.51465,0.2012 z m 0,-255.43768 c -16.39108,-18.15536 -32.675039,-31.2593 -36.186533,-29.11998 -11.116483,6.77265 3.492305,-46.83832 23.723613,-87.05995 26.7712,-53.22362 121.33406,-149.1249 177.4928,-180.005 25.20214,-13.85798 60.75153,-27.3222 78.99871,-29.92049 28.38287,-4.04159 35.48793,-2.14697 49.1717,13.11213 40.66877,45.35049 3.87191,144.87313 -88.8246,240.23982 -55.18105,56.77054 -134.45283,108.71833 -162.72535,106.63594 -6.51661,-0.47987 -25.25926,-15.72708 -41.65034,-33.88247 z"
       id="path4768"
       inkscape:connector-curvature="0"
       sodipodi:nodetypes="csssssssscssccsssscssssssccssssssscs" />
  </g>
</svg>
