<?xml version="1.0" encoding="UTF-8" standalone="no"?>
<!-- Created with Inkscape (http://www.inkscape.org/) -->

<svg
   xmlns:dc="http://purl.org/dc/elements/1.1/"
   xmlns:cc="http://creativecommons.org/ns#"
   xmlns:rdf="http://www.w3.org/1999/02/22-rdf-syntax-ns#"
   xmlns:svg="http://www.w3.org/2000/svg"
   xmlns="http://www.w3.org/2000/svg"
   xmlns:sodipodi="http://sodipodi.sourceforge.net/DTD/sodipodi-0.dtd"
   xmlns:inkscape="http://www.inkscape.org/namespaces/inkscape"
   width="210mm"
   height="297mm"
   viewBox="0 0 744.09448819 1052.3622047"
   id="svg2"
   version="1.1"
   inkscape:version="0.91 r13725"
   sodipodi:docname="sap.svg">
  <defs
     id="defs4" />
  <sodipodi:namedview
     id="base"
     pagecolor="#ffffff"
     bordercolor="#666666"
     borderopacity="1.0"
     inkscape:pageopacity="0.0"
     inkscape:pageshadow="2"
     inkscape:zoom="0.49497475"
     inkscape:cx="20.260185"
     inkscape:cy="473.9863"
     inkscape:document-units="px"
     inkscape:current-layer="layer1"
     showgrid="false"
     inkscape:window-width="1600"
     inkscape:window-height="847"
     inkscape:window-x="-8"
     inkscape:window-y="-8"
     inkscape:window-maximized="1" />
  <metadata
     id="metadata7">
    <rdf:RDF>
      <cc:Work
         rdf:about="">
        <dc:format>image/svg+xml</dc:format>
        <dc:type
           rdf:resource="http://purl.org/dc/dcmitype/StillImage" />
        <dc:title></dc:title>
      </cc:Work>
    </rdf:RDF>
  </metadata>
  <g
     inkscape:label="Camada 1"
     inkscape:groupmode="layer"
     id="layer1">
    <path
       style="fill:#000000"
       d="m 11.712045,493.11496 0,-177.5419 362.704235,0 362.70423,0 -179.92049,177.5419 -179.92051,177.54189 -182.78372,0 -182.783745,0 z M 133.56426,602.43562 c 12.61387,-3.31663 25.02806,-9.04942 31.70337,-14.64047 4.08598,-3.42231 4.27162,-3.39091 2.83731,0.47979 -0.8441,2.27793 -2.15393,6.57602 -2.91074,9.5513 l -1.376,5.40965 32.92122,0 32.92121,0 4.91637,-16.69551 4.9164,-16.69552 7.14902,2.02311 c 13.8763,3.9268 39.20639,4.63702 53.69968,1.50562 l 14.17786,-3.06323 5.37163,15.90092 5.37167,15.90092 53.33403,0 53.33409,0 0.62872,-34.27233 0.62872,-34.27233 22.47689,0 c 43.38442,0 68.46586,-13.41589 82.78056,-44.27874 6.94972,-14.98379 7.03981,-48.67761 0.17036,-63.709 -9.65175,-21.11939 -25.40759,-32.94179 -52.97277,-39.74812 -7.89882,-1.95037 -31.90102,-3.62476 -63.36391,-4.42029 l -50.64853,-1.28064 -0.59777,82.80117 -0.59779,82.80117 -28.24335,-76.31296 C 326.65865,427.448 312.52439,390.297 310.783,386.86233 l -3.16614,-6.24486 -30.04592,0.62644 -30.04592,0.62644 -25.6499,66.29729 c -14.10745,36.46351 -26.04618,67.30861 -26.53055,68.54466 -0.48434,1.23606 -2.09805,-0.7821 -3.586,-4.48477 -7.67756,-19.10506 -24.70784,-31.21189 -62.19623,-44.21523 -26.63585,-9.239 -43.643033,-17.67708 -45.539403,-22.5943 -1.76867,-4.58611 2.15983,-12.45917 7.66839,-15.36809 8.103218,-4.27913 37.715033,-2.89994 53.276993,2.48139 23.8608,8.2511 21.41496,9.18567 34.91034,-13.33948 6.68262,-11.15397 11.54035,-21.25363 10.79495,-22.44369 -1.82131,-2.90781 -33.16392,-12.87715 -50.87931,-16.18353 -20.77042,-3.87657 -55.381483,-1.59564 -72.263973,4.76233 -18.99616,7.15395 -38.09731,26.05732 -43.08894,42.64274 -4.49556,14.93712 -4.55061,23.02854 -0.25379,37.30532 6.90505,22.94303 27.54596,37.92165 72.246868,52.4278 12.148445,3.94239 24.703775,9.19814 27.900735,11.67948 7.98179,6.19509 7.79219,15.8068 -0.43777,22.19453 -5.59907,4.34574 -8.50658,4.77258 -27.900745,4.09601 -18.721828,-0.65314 -23.734148,-1.72926 -37.056008,-7.95585 l -15.4057,-7.20054 -11.23569,22.0924 -11.2357,22.09241 15.68387,7.13316 c 8.62614,3.92323 22.15215,8.51879 30.0578,10.21235 18.65093,3.99538 52.297063,4.19137 66.759003,0.38888 z M 259.65845,522.7346 c -3.29624,-1.35005 -2.51118,-5.3757 6.75542,-34.64021 5.76683,-18.21198 11.10655,-32.37038 11.86608,-31.46314 0.75951,0.90724 5.79662,15.66661 11.19356,32.7986 8.03863,25.51778 9.24413,31.50433 6.6681,33.11422 -3.66306,2.28924 -31.01031,2.43204 -36.48316,0.19053 z m 173.41173,-65.57749 0,-26.96839 15.02967,0 c 26.62516,0 39.66176,11.34215 36.2097,31.5033 -2.57435,15.03518 -15.01462,22.43348 -37.72196,22.43348 l -13.51741,0 z"
       id="path3347"
       inkscape:connector-curvature="0"
       sodipodi:nodetypes="cccccccccsssscccccsscccccccssssscccsscccscsssssssssssssssscccssssscsssccssscc" />
  </g>
</svg>
