<?xml version="1.0" encoding="UTF-8" standalone="no"?>
<!-- Created with Inkscape (http://www.inkscape.org/) -->

<svg
   xmlns:dc="http://purl.org/dc/elements/1.1/"
   xmlns:cc="http://creativecommons.org/ns#"
   xmlns:rdf="http://www.w3.org/1999/02/22-rdf-syntax-ns#"
   xmlns:svg="http://www.w3.org/2000/svg"
   xmlns="http://www.w3.org/2000/svg"
   xmlns:sodipodi="http://sodipodi.sourceforge.net/DTD/sodipodi-0.dtd"
   xmlns:inkscape="http://www.inkscape.org/namespaces/inkscape"
   width="210mm"
   height="297mm"
   viewBox="0 0 744.09448819 1052.3622047"
   id="svg5426"
   version="1.1"
   inkscape:version="0.91 r13725"
   sodipodi:docname="scriptwindows.svg">
  <defs
     id="defs5428" />
  <sodipodi:namedview
     id="base"
     pagecolor="#ffffff"
     bordercolor="#666666"
     borderopacity="1.0"
     inkscape:pageopacity="0.0"
     inkscape:pageshadow="2"
     inkscape:zoom="0.35"
     inkscape:cx="375"
     inkscape:cy="520"
     inkscape:document-units="px"
     inkscape:current-layer="layer1"
     showgrid="false"
     inkscape:window-width="1600"
     inkscape:window-height="847"
     inkscape:window-x="-8"
     inkscape:window-y="-8"
     inkscape:window-maximized="1" />
  <metadata
     id="metadata5431">
    <rdf:RDF>
      <cc:Work
         rdf:about="">
        <dc:format>image/svg+xml</dc:format>
        <dc:type
           rdf:resource="http://purl.org/dc/dcmitype/StillImage" />
        <dc:title></dc:title>
      </cc:Work>
    </rdf:RDF>
  </metadata>
  <g
     inkscape:label="Camada 1"
     inkscape:groupmode="layer"
     id="layer1">
    <g
       id="g5445"
       transform="matrix(3.1504088,0,0,3.2457324,-1486.5504,-1553.9041)">
      <path
         style="fill-opacity:1"
         d="m 491.76546,712.77117 c -7.83372,-3.86069 -7.74761,-3.1198 -7.74761,-66.65899 0,-49.86257 0.26373,-58.13415 1.95802,-61.41055 3.72771,-7.20859 4.92008,-7.33945 66.87542,-7.33945 49.62413,0 56.93204,0.24595 60.72021,2.04356 4.27564,2.02892 7.94635,7.18137 7.94635,11.15401 0,1.37975 2.59369,-0.32959 7.76547,-5.11775 10.03028,-9.28626 14.30725,-11.81941 19.96565,-11.82515 6.29726,-0.006 10.02509,1.60401 15.80885,6.82929 8.533,7.70906 9.37689,19.55486 1.96297,27.55463 l -3.22327,3.47795 14.3494,14.50423 c 7.89219,7.97733 14.973,15.73287 15.73518,17.23455 1.80543,3.5572 1.69686,10.30403 -0.22105,13.73795 -3.0204,5.40788 -42.85105,52.59855 -46.08606,54.60199 -4.1632,2.57825 -12.72314,2.6908 -14.79487,0.19453 -1.67853,-2.02252 -1.39911,-2.21834 5.23254,-3.66722 3.68465,-0.80501 6.75643,-4.14697 32.7768,-35.65981 20.58514,-24.9303 20.64588,-25.15337 9.91312,-36.40556 -3.88591,-4.07396 -7.68278,-7.40473 -8.4375,-7.40171 -0.75473,0.003 -10.09098,8.71325 -20.74723,19.35606 -10.65625,10.64281 -20.14523,19.35909 -21.08663,19.36951 -2.43025,0.0269 -26.17715,-22.14841 -28.47353,-26.58913 -6.32909,-12.2391 9.82228,-23.32211 19.65631,-13.48808 2.00962,2.00961 3.65385,4.86899 3.65385,6.35416 0,1.48518 0.58577,2.50506 1.30172,2.26641 0.71595,-0.23865 9.4347,-8.52042 19.375,-18.40393 17.84894,-17.74697 18.07328,-18.03887 18.07328,-23.51641 0,-7.84391 -5.00798,-12.85408 -12.84846,-12.85408 -5.4469,0 -5.95333,0.38107 -29.89243,22.49324 -13.39341,12.37128 -25.00584,23.929 -25.80538,25.68382 -3.52079,7.72728 -2.98182,8.51986 22.91578,33.69794 16.57073,16.11034 24.75705,24.95626 25.44944,27.5 3.26091,11.98007 -9.80545,22.00214 -18.00076,13.80681 -4.47204,-4.47202 -4.19163,-11.00069 0.68181,-15.87412 2.0625,-2.0625 3.70939,-4.1286 3.65975,-4.59134 -0.0496,-0.46275 -2.01839,-2.44363 -4.375,-4.40196 l -4.28475,-3.56062 0,13.99275 c 0,10.94509 -0.46448,14.77905 -2.13258,17.60292 -4.35291,7.36889 -4.66473,7.4033 -66.80633,7.3721 -49.79594,-0.025 -57.18777,-0.2757 -60.81348,-2.06255 z m 119.75239,-39.15899 c 0,-0.7716 -6.45834,-1.25 -16.875,-1.25 -10.41666,0 -16.875,0.4784 -16.875,1.25 0,0.7716 6.45834,1.25 16.875,1.25 10.41666,0 16.875,-0.4784 16.875,-1.25 z m -39.4269,-15.3125 c -1.57854,-5.67188 -4.6734,-16.92188 -6.87749,-25 -3.68421,-13.50292 -4.24687,-14.6875 -6.97651,-14.6875 -1.633,0 -2.9691,0.42568 -2.9691,0.94596 0,0.52027 2.53125,9.84541 5.625,20.72252 3.09375,10.87712 5.625,20.25857 5.625,20.84767 0,3.76541 2.70325,7.48385 5.44065,7.48385 l 3.00251,0 -2.87006,-10.3125 z m -42.68555,7.90277 c 2.42147,-0.92063 2.92358,-1.82253 2.43565,-4.375 -0.58467,-3.05847 -1.00845,-3.21527 -8.69007,-3.21527 -7.21128,0 -8.4566,-0.38116 -11.63736,-3.56192 -4.55645,-4.55646 -5.95156,-11.54786 -3.61992,-18.14075 2.60161,-7.35624 7.09508,-10.12399 16.03415,-9.87623 6.9227,0.19188 7.39728,0.017 8.15604,-3.00618 0.4431,-1.76546 0.44868,-3.56542 0.0125,-3.99992 -0.43633,-0.4345 -5.15285,-0.79 -10.48121,-0.79 -8.72612,0 -10.22445,0.37185 -15.0916,3.74538 -6.55215,4.54143 -9.94069,11.38913 -9.97828,20.16446 -0.0483,11.26851 4.95582,18.97407 14.54154,22.39185 5.62645,2.00611 13.99055,2.3091 18.31856,0.66358 z m 20.3524,-1.96527 c 1.89676,-2.89484 1.89676,-3.35516 0,-6.25 -2.3757,-3.62577 -5.22181,-3.98137 -8.45403,-1.05627 -2.80547,2.53892 -2.93152,5.85709 -0.32163,8.46698 2.87391,2.87391 6.44122,2.40209 8.77566,-1.16071 z m 0,-22.5 c 1.89676,-2.89484 1.89676,-3.35516 0,-6.25 -2.3757,-3.62577 -5.22181,-3.98137 -8.45403,-1.05627 -2.83648,2.56699 -2.90599,5.17424 -0.21718,8.14534 2.87701,3.17907 6.25243,2.85244 8.67121,-0.83907 z"
         id="path5461"
         inkscape:connector-curvature="0" />
      <path
         style="fill-opacity:1"
         d="m 488.72507,709.9651 -4.08222,-3.64707 0,-60.07836 0,-60.07835 4.08654,-4.08707 4.08654,-4.08707 60.07201,0 60.07201,0 4.27895,4.66914 c 2.35343,2.56803 4.27895,5.8496 4.27895,7.29238 0,2.18723 1.29851,1.44384 7.8125,-4.47266 15.37073,-13.96083 24.59961,-15.29187 35.74376,-5.15514 7.96169,7.24195 9.07342,18.95925 2.50829,26.43652 l -3.93545,4.48223 15.07193,15.24876 c 16.12047,16.30963 18.30738,20.28113 15.53968,28.22057 -1.47271,4.22462 -44.02722,55.6658 -47.65579,57.60775 -2.67998,1.43429 -8.79711,1.71116 -11.85768,0.53671 -2.89048,-1.10917 -2.41609,-4.24126 0.6424,-4.24126 5.11665,0 9.50747,-4.31158 30.81786,-30.26173 26.02264,-31.68835 25.72079,-30.74368 13.75,-43.03203 l -7.8125,-8.01976 -20.57882,20.03176 c -11.31837,11.01747 -21.16212,20.0162 -21.875,19.99717 -2.16386,-0.0577 -27.74534,-25.38667 -28.70596,-28.42254 -1.19893,-3.78903 1.33536,-11.08632 4.65857,-13.41399 6.53091,-4.57443 17.34826,-0.65474 19.00456,6.88635 0.45116,2.05412 1.45726,3.73477 2.2358,3.73477 2.74512,0 36.93259,-35.47592 37.87266,-39.30001 2.09883,-8.53772 -8.87114,-18.71644 -17.08528,-15.85297 -4.54057,1.58285 -49.28366,42.83229 -51.85629,47.80723 -4.02425,7.78203 -2.91139,9.86571 13.99821,26.20969 6.09485,5.89099 16.28467,15.73673 22.64405,21.87943 11.43421,11.04464 11.5625,11.2353 11.5625,17.18376 0,4.98168 -0.62777,6.64296 -3.65385,9.66902 -4.66204,4.66204 -10.22725,4.88639 -14.52796,0.58566 -4.7259,-4.72589 -4.22739,-11.16835 1.26501,-16.34835 l 4.3332,-4.08674 -4.6457,-3.97521 -4.6457,-3.97522 -0.625,15.20661 -0.625,15.2066 -4.08222,3.64525 -4.08222,3.64525 -59.96056,0 -59.96056,0 -4.08222,-3.64708 z m 122.79278,-35.72792 c 0,-1.57408 -2.70834,-1.875 -16.875,-1.875 -14.16666,0 -16.875,0.30092 -16.875,1.875 0,1.57407 2.70834,1.875 16.875,1.875 14.16666,0 16.875,-0.30093 16.875,-1.875 z m -36.59821,-7.22945 c -0.33863,-0.88245 -3.2456,-11.14808 -6.45994,-22.8125 -3.21433,-11.66443 -6.12911,-22.19243 -6.47727,-23.39555 -0.65932,-2.27827 -6.71458,-3.18016 -6.71458,-1.00009 0,1.45018 12.57696,46.56016 13.34789,47.87509 0.99456,1.69634 6.96825,1.06433 6.3039,-0.66695 z m -45.55892,-0.78829 c 2.42878,-0.92341 2.90375,-1.8369 2.47479,-4.75955 -0.52338,-3.56614 -0.63005,-3.61046 -7.61175,-3.16334 -9.42459,0.60358 -14.49981,-2.41999 -16.49415,-9.8264 -1.88833,-7.0127 -0.55174,-13.2103 3.78401,-17.54605 3.18169,-3.18169 4.42506,-3.56192 11.64757,-3.56192 7.70818,0 8.12452,-0.15494 8.91864,-3.31893 1.09817,-4.37546 -0.71042,-5.38822 -9.66463,-5.41193 -16.55168,-0.0438 -25.89735,8.97553 -25.89735,24.99314 0,14.69344 8.81579,23.38348 23.98112,23.63903 3.22088,0.0542 7.20867,-0.41555 8.86175,-1.04405 z m 20.19284,-0.82155 c 1.08036,-1.08035 1.96429,-2.86419 1.96429,-3.96407 0,-2.76699 -3.67891,-6.57164 -6.35445,-6.57164 -2.8916,0 -6.14555,3.30925 -6.14555,6.25 0,1.27679 0.88393,3.20536 1.96429,4.28571 1.08035,1.08036 3.00892,1.96429 4.28571,1.96429 1.27679,0 3.20536,-0.88393 4.28571,-1.96429 z m -0.32163,-22.60444 c 2.83648,-2.56699 2.90599,-5.17424 0.21718,-8.14534 -2.56697,-2.83649 -5.17424,-2.90601 -8.14534,-0.2172 -2.83648,2.56699 -2.90599,5.17424 -0.21718,8.14534 2.56697,2.83649 5.17423,2.90601 8.14534,0.2172 z"
         id="path5459"
         inkscape:connector-curvature="0" />
      <path
         style="fill-opacity:1"
         d="m 489.11376,710.37607 -3.84591,-3.23613 0,-60.75798 0,-60.75798 3.35886,-3.5059 3.35887,-3.5059 60.29523,0 60.29523,0 3.75401,3.15879 c 2.0647,1.73733 4.12442,4.84531 4.57716,6.90662 l 0.82317,3.74783 7.44706,-6.59412 c 9.52626,-8.43519 15.77147,-12.1727 20.38326,-12.19856 5.44553,-0.0305 14.06452,4.63149 17.92864,9.6976 2.8673,3.75923 3.40351,5.69546 3.40351,12.28996 0,6.95121 -0.40975,8.25541 -3.65931,11.64722 l -3.65931,3.8195 15.12563,15.42683 c 16.89683,17.23329 18.77702,20.93694 14.83035,29.21317 -2.4855,5.21214 -43.70642,54.86587 -47.02013,56.63932 -2.85732,1.52919 -10.00297,1.59663 -12.33988,0.1165 -2.12776,-1.34771 -0.75676,-3.86827 2.10893,-3.87719 5.18356,-0.0161 7.05078,-2.01095 42.48606,-45.38902 12.30452,-15.06256 12.15811,-18.07276 -1.51614,-31.17182 -5.84916,-5.60313 -2.9031,-7.41186 -27.97046,17.17242 -9.82535,9.63595 -18.61008,17.51995 -19.52162,17.51995 -2.69077,0 -27.11728,-24.20405 -28.14231,-27.88603 -1.46341,-5.2567 0.70332,-11.19213 4.87278,-13.34825 7.57035,-3.91477 15.0744,-1.20752 17.5642,6.33666 0.77555,2.34994 2.07712,4.27262 2.8924,4.27262 1.89451,0 35.05885,-33.40211 37.05346,-37.31912 2.11292,-4.14938 0.59536,-10.42553 -3.43271,-14.1965 -4.22001,-3.95066 -7.78433,-5.09891 -12.30539,-3.96419 -3.54248,0.8891 -49.79701,42.42501 -52.63475,47.26526 -1.94643,3.31994 -1.94643,9.38442 0,12.58955 1.33861,2.20428 17.9655,18.59245 40.08397,39.50846 6.36658,6.02046 7.3891,7.63643 7.88101,12.4548 1.09618,10.73759 -6.57422,17.40029 -15.26231,13.25723 -3.16149,-1.50761 -4.37166,-3.03085 -4.97872,-6.26677 -0.93606,-4.98961 1.78016,-11.24735 5.8206,-13.40972 2.55414,-1.36694 2.49436,-1.53959 -2.20044,-6.35529 l -4.82591,-4.95019 -0.625,15.79825 -0.625,15.79825 -4.08222,3.64499 -4.08222,3.64499 -59.88437,0 -59.88438,0 -3.8459,-3.23611 z m 123.02909,-36.13889 c 0,-1.30993 -30.97027,-2.48965 -34.07563,-1.29801 -0.9393,0.36045 -1.34808,1.23742 -0.90841,1.94884 1.05886,1.71327 34.98404,1.08214 34.98404,-0.65083 z m -37.28028,-7.37815 c -0.37001,-0.96423 -2.72402,-9.26111 -5.23113,-18.4375 -8.7398,-31.98892 -7.88094,-29.80935 -11.74645,-29.80935 l -3.45547,0 6.98167,24.99132 6.98166,24.99132 3.57124,0.009 c 2.55262,0.006 3.37935,-0.49135 2.89848,-1.74447 z m -42.79516,-0.87974 c 0.39479,-0.3948 0.37986,-2.40751 -0.0331,-4.4727 -0.73306,-3.66531 -0.89694,-3.74086 -6.86922,-3.167 -8.80011,0.84558 -13.45111,-1.4664 -16.41103,-8.15777 -3.18819,-7.20744 -2.09253,-14.40556 2.96212,-19.46021 3.41538,-3.41538 4.15042,-3.61255 11.68015,-3.13309 8.01754,0.51052 8.03719,0.50354 8.83711,-3.13849 1.05136,-4.78675 -0.71698,-5.80164 -10.09052,-5.79126 -9.45846,0.0105 -16.63418,3.16567 -21.39511,9.40749 -3.12514,4.09721 -3.65266,5.9868 -3.96386,14.19855 -0.44876,11.84194 2.45637,17.73627 10.98397,22.28577 4.75635,2.53754 7.01151,2.93499 14.60337,2.57374 4.93812,-0.23498 9.30139,-0.75024 9.69619,-1.14503 z m 17.48615,-0.5814 c 1.08036,-1.08035 1.96429,-3.00892 1.96429,-4.28571 0,-1.27679 -0.88393,-3.20536 -1.96429,-4.28571 -1.08035,-1.08036 -3.00892,-1.96429 -4.28571,-1.96429 -2.79163,0 -6.25,3.20741 -6.25,5.79646 0,5.99231 6.4026,8.87238 10.53571,4.73925 z m 0,-22.5 c 2.52972,-2.5297 2.49364,-5.37894 -0.1045,-8.24978 -3.87529,-4.28221 -10.43121,-1.49904 -10.43121,4.42836 0,5.49611 6.5025,7.85464 10.53571,3.82142 z"
         id="path5457"
         inkscape:connector-curvature="0" />
      <path
         style="fill-opacity:1"
         d="m 489.11376,710.37607 -3.84591,-3.23613 0,-61.02776 0,-61.02777 3.84591,-3.23611 3.8459,-3.23612 59.62597,0 c 66.77686,0 63.42323,-0.45185 67.70992,9.1228 l 2.25717,5.04156 7.98488,-7.66748 c 12.94085,-12.42643 21.44494,-14.16602 31.9721,-6.54018 9.77826,7.08333 11.99929,21.10471 4.57119,28.85798 l -3.54273,3.6978 14.48149,14.68126 c 16.49465,16.72219 18.94639,21.32221 15.61456,29.29639 -1.03296,2.47222 -11.79898,16.32753 -23.9245,30.78957 -23.24726,27.72687 -24.74599,28.95032 -33.19186,27.0953 -5.06553,-1.11258 -4.71667,-2.43966 1.0994,-4.1822 4.77939,-1.43194 12.62146,-10.1694 44.2131,-49.26125 8.42975,-10.43107 8.27014,-14.17787 -1.04238,-24.46853 -3.83893,-4.24216 -7.6424,-7.71302 -8.45216,-7.71302 -0.80975,0 -10.45907,9 -21.44296,20 -10.98389,11 -20.54939,20 -21.25666,20 -0.70729,0 -7.35814,-6.09105 -14.77967,-13.53566 -13.98858,-14.03209 -15.17186,-16.21926 -12.80659,-23.67156 0.98558,-3.10532 6.61659,-6.54278 10.71792,-6.54278 4.86424,0 9.88344,3.57601 10.9848,7.82631 0.57647,2.22468 1.85635,4.19817 2.84416,4.38554 0.98783,0.18737 9.8528,-7.73501 19.69995,-17.6053 15.88374,-15.92106 17.97965,-18.5107 18.57522,-22.95092 0.58103,-4.33192 0.14146,-5.60839 -3.26881,-9.49247 -4.1342,-4.7086 -9.42355,-6.6884 -13.99375,-5.23788 -3.76237,1.19413 -49.15714,42.55641 -51.98477,47.36689 -0.83503,1.42056 -1.53815,4.74094 -1.5625,7.37862 -0.042,4.55088 0.86536,5.67378 17.7682,21.98812 9.79688,9.45579 20.23954,19.34916 23.20593,21.98528 8.78324,7.80536 10.9588,14.40643 7.16552,21.74182 -3.99331,7.72221 -15.02474,7.74099 -18.21831,0.031 -2.37081,-5.72364 0.75654,-13.12624 6.44061,-15.24529 1.20503,-0.44922 0.13088,-2.26512 -3.59375,-6.07536 l -5.3125,-5.43461 0,14.1062 c 0,15.08407 -1.26477,19.59956 -6.52099,23.28116 -2.42945,1.70164 -10.40272,1.95088 -62.41123,1.95088 l -59.62597,0 -3.8459,-3.23612 z m 123.3433,-36.45139 c 0.39945,-1.2023 -3.68317,-1.5625 -17.71005,-1.5625 -16.72293,0 -19.79111,0.52137 -17.36212,2.95036 1.62123,1.62125 34.50476,0.31999 35.07217,-1.38786 z m -37.99456,-8.75 c -2.53264,-10.20658 -12.71159,-45.49611 -13.2897,-46.07421 -0.37201,-0.37202 -2.01362,-0.49345 -3.64801,-0.26985 l -2.97162,0.40656 6.81964,24.6875 6.81965,24.6875 3.56152,0 c 3.25872,0 3.48898,-0.29224 2.70852,-3.4375 z m -42.39509,0.80461 c 0.39479,-0.3948 0.36914,-2.46112 -0.057,-4.59185 -0.7594,-3.79701 -0.89045,-3.86035 -6.59027,-3.18529 -8.9433,1.0592 -14.33125,-1.73156 -17.04085,-8.82654 -1.91692,-5.0194 -1.98921,-6.46747 -0.57501,-11.5185 2.22579,-7.94974 6.83136,-10.79353 16.47863,-10.17503 7.02157,0.45016 7.15344,0.39685 7.94612,-3.21222 1.06248,-4.83745 -0.6865,-5.81477 -10.44847,-5.83854 -12.06129,-0.0294 -22.80526,6.93204 -24.71649,16.0147 -0.38669,1.83764 -0.95534,4.58924 -1.26367,6.11468 -0.30833,1.52543 0.0293,5.40568 0.75025,8.62278 2.86716,12.79382 10.9074,18.30059 25.82059,17.68451 4.93811,-0.20398 9.30139,-0.69391 9.69619,-1.0887 z m 18.26275,-1.23353 c 3.15572,-5.89652 -3.17696,-12.45558 -8.69328,-9.00407 -2.50425,1.56689 -3.28502,7.43686 -1.30629,9.82108 2.28924,2.75837 8.35115,2.26308 9.99957,-0.81701 z m 0,-22.50001 c 3.15572,-5.89651 -3.17696,-12.45557 -8.69328,-9.00406 -2.50425,1.56689 -3.28502,7.43686 -1.30629,9.82108 2.28924,2.75837 8.35115,2.26308 9.99957,-0.81702 z"
         id="path5455"
         inkscape:connector-curvature="0" />
      <path
         style="fill-opacity:1"
         d="m 489.11376,710.37607 -3.84591,-3.23613 0,-61.02776 0,-61.02777 3.84591,-3.23611 3.8459,-3.23612 59.73553,0 c 58.36294,0 59.8105,0.059 62.999,2.56706 1.79492,1.41188 3.92552,4.77671 4.73466,7.4774 l 1.47118,4.91034 9.11838,-8.66158 c 13.25922,-12.59496 21.80026,-14.01039 32.37444,-5.36511 9.61381,7.8601 10.88301,22.11461 2.58242,29.00349 -1.07658,0.89348 -1.95742,2.10048 -1.95742,2.68221 0,0.58174 6.42459,7.40349 14.27686,15.15945 20.37432,20.12441 20.99619,24.48475 5.98143,41.93948 -4.61081,5.36008 -14.44601,17.1183 -21.85602,26.12937 -14.31813,17.41185 -17.84259,20.01011 -25.25643,18.61926 -5.73286,-1.07548 -5.56415,-2.46562 0.52051,-4.28862 4.13234,-1.23809 7.26338,-4.30955 19.63394,-19.26036 34.16045,-41.28566 32.76031,-39.21006 30.48571,-45.19271 -1.47419,-3.87739 -13.46691,-16.96968 -15.54448,-16.96968 -0.7677,0 -10.38263,9 -21.36652,20 -10.98389,11 -20.53979,19.99526 -21.23535,19.98949 -0.69556,-0.006 -7.31153,-6.08915 -14.70215,-13.51857 -12.69794,-12.76461 -13.4375,-13.78986 -13.4375,-18.62837 0,-8.62915 9.08657,-14.16384 16.64467,-10.13837 3.43134,1.82754 5.76404,4.81794 5.81558,7.45526 0.0219,1.11895 0.77284,2.64286 1.66884,3.38647 1.25455,1.04118 5.84668,-2.87508 19.97427,-17.03445 19.59634,-19.64042 21.50017,-22.76888 18.40432,-30.24292 -1.73347,-4.18497 -8.22833,-8.76854 -12.4249,-8.76854 -5.22443,0 -6.34163,0.85944 -32.58278,25.06529 -7.21875,6.65886 -14.97332,13.65399 -17.2324,15.54475 -5.25296,4.39655 -7.7676,9.30475 -7.7676,15.16122 0,5.144 -0.01,5.13235 31.25,34.73073 8.59375,8.13682 16.30819,15.9932 17.1432,17.45862 5.45125,9.56673 -4.40831,23.11563 -13.22154,18.16889 -8.49703,-4.76926 -8.08222,-14.68988 0.82754,-19.79156 1.86589,-1.06839 1.47626,-1.87189 -3.1867,-6.57169 l -5.3125,-5.35449 0,13.45926 c 0,14.68408 -1.54497,20.44275 -6.39609,23.84062 -2.59175,1.81532 -9.43447,2.03836 -62.53613,2.03836 l -59.62597,0 -3.8459,-3.23611 z m 123.65409,-36.13889 c 0,-1.58046 -2.84723,-1.875 -18.125,-1.875 -15.27777,0 -18.125,0.29454 -18.125,1.875 0,1.58046 2.84723,1.875 18.125,1.875 15.27777,0 18.125,-0.29454 18.125,-1.875 z m -37.55226,-5.9375 c -0.0288,-0.85938 -3.03964,-12.20694 -6.69089,-25.2168 -5.76417,-20.53853 -7.02009,-23.79542 -9.53462,-24.72561 -1.59282,-0.58921 -3.29039,-0.63228 -3.77239,-0.0957 -0.67975,0.75673 10.29337,42.58234 13.12771,50.03811 0.32669,0.85937 2.01789,1.5625 3.75823,1.5625 1.74032,0 3.14071,-0.70313 3.11196,-1.5625 z m -43.87663,-2.05049 c 1.15833,-0.73395 1.43094,-2.28207 0.85979,-4.88252 -0.82338,-3.74878 -0.93687,-3.79872 -7.32113,-3.22087 -10.66128,0.96498 -17.26099,-4.59415 -17.41327,-14.66771 -0.17271,-11.42412 6.25769,-17.09135 17.8369,-15.71996 5.80879,0.68796 6.24744,0.5414 6.96764,-2.32809 1.66549,-6.63584 -2.20896,-8.28636 -15.50319,-6.60441 -14.16204,1.79175 -23.03084,14.33535 -20.77441,29.38231 1.84265,12.28764 10.73342,19.11223 24.90156,19.11454 4.8125,7.7e-4 9.51325,-0.4822 10.44611,-1.07329 z m 18.67889,-0.38701 c 0.825,-0.825 1.5,-2.9625 1.5,-4.75 0,-1.7875 -0.675,-3.925 -1.5,-4.75 -0.825,-0.825 -2.9625,-1.5 -4.75,-1.5 -1.7875,0 -3.925,0.675 -4.75,1.5 -0.825,0.825 -1.5,2.9625 -1.5,4.75 0,1.7875 0.675,3.925 1.5,4.75 0.825,0.825 2.9625,1.5 4.75,1.5 1.7875,0 3.925,-0.675 4.75,-1.5 z m 0.70094,-23.74654 c 2.21175,-3.53321 -0.45865,-9.0519 -4.61204,-9.53128 -1.91954,-0.22155 -4.29981,0.2692 -5.28949,1.09055 -2.21072,1.83474 -2.35532,7.63136 -0.24306,9.74362 2.12177,2.12178 8.51476,1.30071 10.14459,-1.30289 z"
         id="path5453"
         inkscape:connector-curvature="0" />
      <path
         style="fill-opacity:1"
         d="m 488.9217,709.95833 -3.65385,-3.65384 0,-60.19231 0,-60.19231 3.65385,-3.65384 3.65384,-3.65385 60.19231,0 60.19231,0 3.65384,3.65385 c 2.1036,2.1036 3.65385,4.9892 3.65385,6.80122 0,5.15409 1.74664,4.77066 8.22374,-1.80531 9.27692,-9.41856 14.49072,-12.61 20.75542,-12.7047 6.41502,-0.097 11.40384,2.28885 17.0302,8.14444 3.3475,3.48388 4.25435,5.58581 4.76487,11.04415 0.63862,6.82799 0.44009,7.366 -6.0687,16.44631 -1.39538,1.94666 -0.088,3.6701 11.16053,14.71203 17.20709,16.89105 17.88394,17.84017 17.88394,25.07794 0,6.78683 1.7178,4.34272 -28.46816,40.50507 -9.18208,11 -18.28588,20.77692 -20.23067,21.72649 -2.27348,1.11006 -5.14538,1.42456 -8.04358,0.88086 -4.43937,-0.83284 -6.34758,-3.23235 -2.57052,-3.23235 1.06539,0 3.54474,-0.83135 5.50965,-1.84745 3.74082,-1.93445 44.24789,-49.90402 47.29002,-56.0021 1.01848,-2.04161 1.41508,-4.87146 0.94514,-6.74389 -0.8686,-3.46074 -13.91417,-17.90656 -16.17086,-17.90656 -0.74713,0 -10.46067,9.08971 -21.58565,20.19935 l -20.22722,20.19935 -6.03657,-5.06942 c -3.32012,-2.78818 -9.83345,-9.0107 -14.47408,-13.82781 -7.17961,-7.45266 -8.4375,-9.41836 -8.4375,-13.18523 0,-2.86748 1.05405,-5.65224 2.99234,-7.90563 5.99756,-6.97258 18.11452,-3.31377 19.98416,6.03437 0.41467,2.07342 1.2975,3.5809 1.96181,3.34994 1.45323,-0.50523 33.08724,-31.66529 36.44706,-35.90099 6.82063,-8.59873 -2.26522,-22.79534 -13.42953,-20.98362 -4.62587,0.75067 -5.61917,1.5399 -29.20584,23.20549 -26.8416,24.65541 -26.25,23.9602 -26.25,30.84696 0,6.7756 -3.78994,2.41912 33.63437,38.66224 15.32532,14.84161 16.36563,16.20884 16.36563,21.50841 0,9.47664 -11.60467,15.56746 -17.81945,9.3527 -4.2686,-4.26861 -3.63799,-10.94741 1.46412,-15.50614 l 4.14467,-3.70326 -4.77335,-4.88835 c -2.62535,-2.6886 -5.08108,-4.88867 -5.45718,-4.88905 -0.3761,-3.9e-4 -0.5709,5.48399 -0.4329,12.1875 0.29948,14.54674 -1.06287,20.54555 -5.44961,23.99617 -3.18878,2.50828 -4.63464,2.56702 -63.19103,2.56702 l -59.92758,0 -3.65384,-3.65385 z m 123.84615,-35.72115 c 0,-1.58046 -2.84723,-1.875 -18.125,-1.875 -15.27777,0 -18.125,0.29454 -18.125,1.875 0,1.58046 2.84723,1.875 18.125,1.875 15.27777,0 18.125,-0.29454 18.125,-1.875 z m -37.5,-5.80274 c 0,-0.78525 -1.05411,-5.14462 -2.34247,-9.68749 -1.28836,-4.54288 -3.51187,-12.47852 -4.94114,-17.63477 -6.91249,-24.93761 -6.43213,-23.75 -9.60632,-23.75 -1.62938,0 -3.23717,0.44439 -3.57286,0.98753 -0.48147,0.77905 11.07031,43.37569 13.54595,49.94997 0.7366,1.95611 6.91684,2.07652 6.91684,0.13476 z m -44.47724,-1.831 c 2.04478,-0.78465 2.5459,-3.8049 1.20926,-7.28811 -0.61743,-1.609 -1.92626,-1.84767 -6.67657,-1.21752 -11.01612,1.46134 -17.55545,-4.31747 -17.55545,-15.51376 0,-6.02838 0.45596,-7.17783 4.41957,-11.14144 4.29284,-4.29284 4.63352,-4.40017 11.8808,-3.74301 7.08891,0.6428 7.49887,0.52665 8.21524,-2.32763 1.19015,-4.74192 -0.14486,-6.3349 -5.97918,-7.13458 -6.17277,-0.84607 -14.85136,0.78341 -19.82725,3.72274 -4.48206,2.64762 -9.57963,10.70616 -10.60263,16.76127 -2.80942,16.62879 7.4628,28.57793 24.60371,28.62022 4.5844,0.0113 9.22503,-0.32087 10.3125,-0.73818 z m 19.22724,-0.74126 c 0.825,-0.825 1.5,-2.9625 1.5,-4.75 0,-1.7875 -0.675,-3.925 -1.5,-4.75 -0.825,-0.825 -2.9625,-1.5 -4.75,-1.5 -1.7875,0 -3.925,0.675 -4.75,1.5 -0.825,0.825 -1.5,2.9625 -1.5,4.75 0,1.7875 0.675,3.925 1.5,4.75 0.825,0.825 2.9625,1.5 4.75,1.5 1.7875,0 3.925,-0.675 4.75,-1.5 z m 0,-22.5 c 0.825,-0.825 1.5,-2.9625 1.5,-4.75 0,-1.7875 -0.675,-3.925 -1.5,-4.75 -0.825,-0.825 -2.9625,-1.5 -4.75,-1.5 -1.7875,0 -3.925,0.675 -4.75,1.5 -0.825,0.825 -1.5,2.9625 -1.5,4.75 0,1.7875 0.675,3.925 1.5,4.75 0.825,0.825 2.9625,1.5 4.75,1.5 1.7875,0 3.925,-0.675 4.75,-1.5 z"
         id="path5451"
         inkscape:connector-curvature="0" />
      <path
         style="fill-opacity:1"
         d="m 489.15004,709.98567 -3.88219,-3.62652 0,-60.21964 0,-60.21964 3.65385,-3.65384 3.65384,-3.65385 60.21965,0 60.21963,0 3.62652,3.88219 c 2.27245,2.43266 3.62651,5.23301 3.62651,7.5 0,1.9898 0.33814,3.61781 0.75141,3.61781 0.41329,0 4.77266,-3.72341 9.6875,-8.27425 9.8706,-9.13956 12.38394,-10.47575 19.70454,-10.47575 6.21879,0 10.87704,2.35989 15.85934,8.03442 6.69036,7.6199 6.79361,16.88812 0.27381,24.57953 l -3.61198,4.26105 15.08943,15.1902 c 14.7859,14.88465 15.10192,15.32022 15.71048,21.65352 0.51932,5.40479 0.14257,7.11374 -2.30046,10.4348 -4.73169,6.43232 -41.55592,50.08425 -43.63442,51.72485 -3.10131,2.44793 -8.09271,3.07612 -12,1.51026 l -3.65465,-1.46463 4.375,-1.19968 c 6.3684,-1.7463 2.63264,2.25938 40.98821,-43.94968 10.64506,-12.82469 12.14421,-15.58467 10.9815,-20.21728 -0.9026,-3.59625 -13.906,-18.05736 -16.23713,-18.05736 -0.76279,0 -10.37369,9 -21.35758,20 -10.98389,11 -20.29283,20 -20.68655,20 -0.39371,0 -7.01318,-6.04688 -14.70991,-13.4375 -12.8858,-12.37331 -13.99345,-13.80321 -13.9863,-18.0553 0.023,-13.67568 18.85082,-16.27005 22.27158,-3.06889 0.53682,2.07165 1.54764,3.95718 2.24627,4.19005 2.22265,0.74088 37.70362,-34.89329 38.69531,-38.86238 1.47401,-5.89959 -0.80845,-12.20611 -5.57775,-15.41144 -8.35574,-5.61568 -12.77959,-3.90822 -28.65556,11.06008 -4.64372,4.37821 -14.46143,13.51533 -21.81714,20.30471 -14.28081,13.18127 -16.9725,17.68298 -14.5443,24.32455 0.66983,1.83212 12.02834,13.79437 25.24111,26.58278 l 24.02324,23.25168 0,5.71012 c 0,7.55678 -4.03213,12.16154 -10.64916,12.16154 -5.88863,0 -8.97584,-3.29126 -8.97584,-9.56911 0,-3.73805 0.83695,-5.46884 4.01968,-8.3126 l 4.01966,-3.59158 -4.77335,-4.88835 c -2.62535,-2.6886 -5.2217,-4.88836 -5.76968,-4.88836 -0.54797,0 -1.00882,6.89062 -1.02411,15.3125 -0.0296,16.32782 -0.83991,18.85126 -7.07753,22.0412 -1.89637,0.96981 -20.65955,1.3963 -61.4303,1.3963 l -58.69998,0 -3.8822,-3.62651 z m 123.61781,-35.74849 c 0,-1.58046 -2.84723,-1.875 -18.125,-1.875 -15.27777,0 -18.125,0.29454 -18.125,1.875 0,1.58046 2.84723,1.875 18.125,1.875 15.27777,0 18.125,-0.29454 18.125,-1.875 z m -37.5,-5.63061 c 0,-0.69058 -1.49141,-6.73745 -3.31426,-13.4375 -1.82284,-6.70004 -4.81631,-17.80689 -6.65217,-24.68189 -3.32622,-12.45631 -3.35237,-12.50141 -7.48055,-12.90436 -3.49278,-0.34093 -4.04732,-0.0468 -3.53502,1.875 0.3342,1.25365 3.58861,13.10748 7.23204,26.34186 l 6.62441,24.0625 3.56277,0 c 1.95953,0 3.56278,-0.56503 3.56278,-1.25561 z m -44.47724,-2.00313 c 2.04478,-0.78465 2.5459,-3.8049 1.20926,-7.28811 -0.61023,-1.59025 -1.95818,-1.8549 -6.5625,-1.28847 -4.23091,0.5205 -6.97039,0.10536 -10.15213,-1.53841 -5.40417,-2.79195 -7.47516,-6.77406 -7.49896,-14.41905 -0.0149,-4.78771 0.6782,-6.69733 3.62958,-10 3.42973,-3.83795 4.15424,-4.0845 12.10775,-4.12031 8.27921,-0.0373 8.48057,-0.11596 9.43567,-3.68716 1.17369,-4.38864 1.21997,-4.33303 -4.7799,-5.74396 -8.54614,-2.00972 -20.43342,0.92048 -25.59114,6.30817 -11.38854,11.89634 -8.17495,34.71567 5.74264,40.77779 3.89827,1.69799 18.8998,2.36559 22.45973,0.99951 z m 19.22724,-0.74126 c 0.825,-0.825 1.5,-2.9625 1.5,-4.75 0,-1.7875 -0.675,-3.925 -1.5,-4.75 -0.825,-0.825 -2.9625,-1.5 -4.75,-1.5 -1.7875,0 -3.925,0.675 -4.75,1.5 -0.825,0.825 -1.5,2.9625 -1.5,4.75 0,1.7875 0.675,3.925 1.5,4.75 0.825,0.825 2.9625,1.5 4.75,1.5 1.7875,0 3.925,-0.675 4.75,-1.5 z m -1.27814,-21.69588 c 3.91548,-2.74251 3.73499,-8.61954 -0.34686,-11.29407 -2.89484,-1.89677 -3.35516,-1.89677 -6.25,0 -4.08185,2.67453 -4.26234,8.55156 -0.34686,11.29407 1.52796,1.07023 3.09031,1.94588 3.47186,1.94588 0.38155,0 1.9439,-0.87565 3.47186,-1.94588 z"
         id="path5449"
         inkscape:connector-curvature="0" />
      <path
         style="fill-opacity:1"
         d="m 492.14285,712.16133 c -7.05338,-3.87889 -6.81703,-1.60696 -6.8472,-65.81883 -0.018,-38.22824 0.42737,-59.99516 1.25926,-61.54956 3.2347,-6.04411 4.69993,-6.18076 66.2705,-6.18076 51.57288,0 58.0549,0.22045 61.20556,2.08159 3.72507,2.20045 6.23688,6.42 6.23688,10.47723 0,3.63658 1.40205,3.03172 7.55224,-3.25813 15.43392,-15.78442 27.60217,-17.37189 38.45055,-5.01627 6.74313,7.68001 6.80292,16.28257 0.1691,24.33055 l -3.67994,4.46441 14.24327,14.39781 c 15.57029,15.73923 17.01478,17.78872 17.01478,24.1412 0,5.38693 -1.9061,8.16779 -22.47657,32.79155 -26.22147,31.38822 -27.581,32.49996 -35.74378,29.22869 l -3.65465,-1.46463 4.375,-1.19968 c 2.40625,-0.65982 5.17799,-1.85211 6.15942,-2.64951 2.87302,-2.33427 43.26886,-51.1709 44.99584,-54.39778 2.74826,-5.13518 0.67787,-10.30324 -7.28393,-18.18197 -4.05104,-4.00877 -7.95274,-7.08198 -8.67046,-6.82936 -0.71771,0.25261 -10.36652,9.39636 -21.44181,20.31943 l -20.13688,19.86013 -3.80152,-3.61012 c -25.27031,-23.99809 -24.82066,-23.48603 -24.82066,-28.26559 0,-6.86315 4.34305,-11.31046 11.04531,-11.31046 6.11161,0 9.7734,2.70239 11.21851,8.27922 0.53682,2.07165 1.68822,4.00403 2.55865,4.29418 1.85224,0.61741 34.54773,-31.26639 37.15532,-36.23291 0.97471,-1.85649 1.77221,-5.44632 1.77221,-7.97741 0,-9.27399 -11.97328,-16.06266 -20.39468,-11.56348 -1.50167,0.80228 -13.26797,11.25309 -26.14731,23.22402 -25.811,23.99048 -28.17882,27.39685 -24.28207,34.93234 1.07251,2.07402 11.87407,13.26334 24.00346,24.86515 12.12939,11.60181 22.89952,22.73036 23.93364,24.73012 3.93765,7.61457 -1.39294,17.03968 -9.6372,17.03968 -5.96546,0 -8.72584,-3.06058 -8.72584,-9.67481 0,-4.18804 0.70506,-5.69623 3.93252,-8.41195 l 3.93252,-3.309 -4.8112,-4.92711 c -2.64617,-2.70993 -5.25955,-4.92713 -5.80753,-4.92713 -0.54797,0 -0.99631,6.44229 -0.99631,14.31619 0,15.73643 -0.97942,19.24656 -6.23688,22.35222 -3.15388,1.86305 -9.60604,2.0776 -61.45598,2.04358 -39.71169,-0.026 -58.71842,-0.47042 -60.43214,-1.41284 z m 120.38426,-38.23665 c -0.3797,-1.95873 -2.25056,-2.1875 -17.88848,-2.1875 -15.63954,0 -17.50832,0.22857 -17.88427,2.1875 -0.38439,2.00287 1.1254,2.1875 17.88849,2.1875 16.7647,0 18.27256,-0.18444 17.88426,-2.1875 z m -37.31152,-6.25 c -0.0288,-1.20313 -3.04804,-12.875 -6.70955,-25.9375 l -6.65729,-23.75 -3.91545,-0.3917 c -2.1535,-0.21543 -3.91545,0.005 -3.91545,0.48903 0,0.4844 3.19051,12.33254 7.09004,26.3292 7.08415,25.42732 7.09297,25.44847 10.625,25.44847 2.55321,0 3.52045,-0.60753 3.4827,-2.1875 z m -44.01024,-1.00119 c 1.50635,-0.4655 2.24401,-8.21313 0.90909,-9.54806 -0.35939,-0.35938 -3.10333,-0.0928 -6.09765,0.5924 -4.52205,1.03479 -6.26238,0.84551 -10.27422,-1.11742 -5.7878,-2.83187 -7.93156,-6.67752 -7.95629,-14.2726 -0.0334,-10.2708 6.92503,-15.81598 18.18612,-14.49246 l 6.51336,0.76551 0.63198,-4.05684 c 0.34758,-2.23126 0.15179,-4.56923 -0.4351,-5.19549 -0.5869,-0.62626 -5.16719,-1.15548 -10.17844,-1.17605 -11.29238,-0.0463 -18.16882,3.12461 -23.17246,10.68561 -2.9994,4.5324 -3.43889,6.41874 -3.43889,14.76011 0,8.56192 0.36875,10.04704 3.52073,14.1795 4.5765,6.0001 8.72869,8.63704 15.07892,9.5762 4.85983,0.71874 13.25964,0.36672 16.71285,-0.70041 z m 18.8125,-0.81131 c 0.825,-0.825 1.5,-2.9625 1.5,-4.75 0,-1.7875 -0.675,-3.925 -1.5,-4.75 -0.825,-0.825 -2.9625,-1.5 -4.75,-1.5 -5.39182,0 -7.77602,4.56878 -5.49126,10.52276 0.90772,2.3655 8.02151,2.69699 10.24126,0.47724 z m -1.27814,-21.69588 c 6.50439,-4.55585 1.01174,-14.69691 -6.42813,-11.86827 -2.63985,1.00367 -3.28993,2.06491 -3.27459,5.34571 0.0215,4.58315 0.97107,6.50677 3.73086,7.55733 2.83911,1.08075 2.9885,1.05486 5.97186,-1.03477 z"
         id="path5447"
         inkscape:connector-curvature="0" />
    </g>
  </g>
</svg>
