<?xml version="1.0" encoding="UTF-8" standalone="no"?>
<!-- Created with Inkscape (http://www.inkscape.org/) -->

<svg
   xmlns:dc="http://purl.org/dc/elements/1.1/"
   xmlns:cc="http://creativecommons.org/ns#"
   xmlns:rdf="http://www.w3.org/1999/02/22-rdf-syntax-ns#"
   xmlns:svg="http://www.w3.org/2000/svg"
   xmlns="http://www.w3.org/2000/svg"
   xmlns:sodipodi="http://sodipodi.sourceforge.net/DTD/sodipodi-0.dtd"
   xmlns:inkscape="http://www.inkscape.org/namespaces/inkscape"
   width="210mm"
   height="297mm"
   viewBox="0 0 744.09448819 1052.3622047"
   id="svg5389"
   version="1.1"
   inkscape:version="0.91 r13725"
   sodipodi:docname="script.svg">
  <defs
     id="defs5391" />
  <sodipodi:namedview
     id="base"
     pagecolor="#ffffff"
     bordercolor="#666666"
     borderopacity="1.0"
     inkscape:pageopacity="0.0"
     inkscape:pageshadow="2"
     inkscape:zoom="0.49497475"
     inkscape:cx="396.54857"
     inkscape:cy="518.32632"
     inkscape:document-units="px"
     inkscape:current-layer="layer1"
     showgrid="false"
     inkscape:window-width="1600"
     inkscape:window-height="847"
     inkscape:window-x="-8"
     inkscape:window-y="-8"
     inkscape:window-maximized="1" />
  <metadata
     id="metadata5394">
    <rdf:RDF>
      <cc:Work
         rdf:about="">
        <dc:format>image/svg+xml</dc:format>
        <dc:type
           rdf:resource="http://purl.org/dc/dcmitype/StillImage" />
        <dc:title></dc:title>
      </cc:Work>
    </rdf:RDF>
  </metadata>
  <g
     inkscape:label="Camada 1"
     inkscape:groupmode="layer"
     id="layer1">
    <g
       id="g5408"
       transform="matrix(2.1078621,0,0,2.0973297,-461.87699,-938.37559)">
      <path
         style="fill-opacity:1"
         d="m 316.30161,866.12211 c -18.10619,-23.25056 -17.95787,-46.02241 0.43924,-67.43679 l 14.34589,-16.69872 -47.05597,-47.09902 c -36.42002,-36.45334 -47.05597,-50.47334 -47.05597,-62.02782 0,-11.99004 14.2195,-29.02965 72.23477,-86.56084 84.65814,-83.95176 94.16001,-90.21415 120.5159,-79.42828 10.14194,4.15048 22.44039,13.14046 27.32989,19.97774 12.62461,17.65371 11.48583,48.81625 -2.22811,60.97213 -11.05176,9.79615 -10.83822,10.1304 35.77454,55.99768 67.33371,66.25683 68.36372,61.34611 -33.70828,160.70835 -78.75866,76.66781 -82.41019,79.4534 -104.15273,79.4534 -19.14518,0 -24.62313,-2.6846 -36.43917,-17.85783 z m 51.64751,-22.34757 c 5.29186,-6.24525 5.47648,-11.27221 0.78441,-21.35854 -7.54419,-16.21738 -14.16983,-16.66636 -24.88255,-1.68615 -14.93199,20.88025 7.64115,42.46661 24.09814,23.04469 z m 88.45582,-81.83391 c 26.23621,-25.825 47.7022,-49.76818 47.7022,-53.20708 0,-3.43889 -18.47263,-24.76108 -41.0503,-47.38264 L 422.00653,620.22079 377.079,663.99637 c -55.28524,53.86771 -69.23235,56.11059 -69.23235,11.13347 0,-9.13297 -3.46472,-17.05199 -8.24695,-18.84939 -10.19221,-3.83074 -24.43958,7.07212 -24.53117,18.77259 -0.057,7.27947 122.63475,132.38162 130.90836,133.48019 1.49922,0.19907 24.19184,-20.7676 50.42805,-46.5926 z M 431.0799,561.67146 c 4.48918,-13.62057 -10.16577,-27.50959 -22.11548,-20.95963 -4.98659,2.73328 -27.23899,22.53944 -49.44977,44.01369 l -40.38324,39.04409 12.07558,14.71299 12.07558,14.71299 42.26065,-40.79218 c 23.24336,-22.4357 43.73487,-45.26507 45.53668,-50.73195 z"
         id="path5424"
         inkscape:connector-curvature="0"
         sodipodi:nodetypes="sscssssssssssssssssscssssssssscccss" />
      <path
         style="fill-opacity:1"
         d="m 318.44269,866.77104 c -20.67443,-22.1704 -21.25623,-45.32426 -1.71056,-68.07556 l 14.33715,-16.68856 -44.3214,-44.47451 c -39.67419,-39.81124 -44.3214,-46.59603 -44.3214,-64.7078 0,-18.80449 5.09864,-25.27654 72.20257,-91.65163 39.71141,-39.2801 77.73688,-72.77883 84.50105,-74.44164 47.09429,-11.57699 86.12769,43.14435 56.33193,78.97234 l -10.48334,12.60573 45.91927,46.03424 c 65.66564,65.83005 66.60967,61.45795 -34.69411,160.67971 -75.33567,73.78736 -81.95877,78.95658 -101.1634,78.95658 -16.19514,0 -23.95081,-3.64685 -36.59776,-17.2089 z m 52.64055,-28.39316 c 2.35358,-9.18468 0.40016,-16.89302 -6.05011,-23.87398 -9.37735,-10.1489 -9.6851,-10.11158 -19.72702,2.39228 -11.92233,14.84527 -12.56956,19.911 -3.65905,28.63838 11.16658,10.93708 25.70544,7.40232 29.43618,-7.15668 z m 86.01595,-76.5516 c 36.58736,-36.0022 47.38073,-49.83173 44.89013,-57.51763 -1.80345,-5.56538 -20.46998,-26.82753 -41.4812,-47.24922 l -38.2022,-37.13035 -45.84803,44.67247 c -49.6843,48.41038 -63.15956,52.75799 -63.15956,20.37755 0,-19.53493 -8.07038,-30.60351 -22.31379,-30.60351 -9.19818,0 -15.84798,10.20721 -15.84798,24.32608 0,6.66783 124.06096,130.24346 130.954,130.4417 1.56172,0.0449 24.51561,-21.24777 51.00863,-47.31709 z M 433.2353,554.94659 c 0,-10.456 -9.28481,-18.04299 -22.08065,-18.04299 -2.65861,0 -25.43214,19.39191 -50.60784,43.09314 l -45.77398,43.09313 14.25486,14.64188 14.25488,14.64188 44.97636,-42.93313 c 28.98785,-27.67096 44.97637,-47.04284 44.97637,-54.49391 z"
         id="path5422"
         inkscape:connector-curvature="0" />
      <path
         style="fill-opacity:1"
         d="m 319.81911,865.66803 c -22.09554,-24.64822 -22.50297,-43.27705 -1.4405,-65.86355 l 15.98365,-17.1402 -45.96789,-44.82093 c -66.41044,-64.75341 -66.8706,-62.39409 30.79802,-157.90645 57.21805,-55.95482 80.19278,-75.07112 90.22346,-75.07112 44.04363,0 72.18593,49.29473 46.13293,80.80756 l -10.39661,12.57539 45.83253,46.56684 c 64.48112,65.51421 65.43147,60.8273 -31.91218,157.38286 -69.6017,69.03821 -80.05343,77.41859 -99.78699,80.01102 -20.15615,2.64794 -23.53324,1.23251 -39.46642,-16.54142 z m 52.34283,-30.02341 c 0.99299,-8.34823 -2.53784,-17.31401 -9.114,-23.14304 -10.36843,-9.19046 -11.04419,-9.05313 -19.79103,4.02188 -12.79148,19.12104 -6.32328,36.55601 12.75991,34.3942 10.96169,-1.24178 14.92174,-4.98794 16.14512,-15.27304 z m 131.9452,-127.90085 c 0,-4.5367 -18.40306,-26.15308 -40.89569,-48.03641 l -40.89569,-39.78787 -45.85294,44.67726 c -51.39297,50.07524 -61.47265,52.4983 -64.19945,15.43296 -1.44102,-19.58789 -3.61378,-23.25059 -14.70355,-24.78639 -13.96094,-1.9334 -22.20536,6.36949 -22.33978,22.4982 -0.048,5.77197 27.06226,36.31968 63.97377,72.08509 l 64.05724,62.06825 50.42805,-47.95127 c 27.73542,-26.3732 50.42804,-51.66311 50.42804,-56.19982 z M 433.2353,554.47703 c 0,-8.49772 -4.15569,-13.05191 -14.15221,-15.50931 -12.37023,-3.04092 -19.88066,2.1026 -59.64684,40.84917 l -45.49464,44.32814 14.67048,14.0488 14.67048,14.04881 44.97636,-42.86764 c 30.07497,-28.66489 44.97637,-46.85347 44.97637,-54.89797 z"
         id="path5420"
         inkscape:connector-curvature="0" />
      <path
         style="fill-opacity:1"
         d="m 320.93068,865.82518 c -23.463,-22.98078 -23.79686,-39.68031 -1.29511,-64.78167 l 17.2406,-19.2324 -47.22484,-46.46958 c -65.82251,-64.7698 -66.8279,-59.73619 30.88406,-154.62423 88.8875,-86.31859 94.9054,-89.00859 127.56411,-57.0211 16.88383,16.53683 18.83789,21.17016 16.0429,38.03972 -1.75046,10.56511 -7.19464,23.55138 -12.09818,28.85837 -8.39609,9.08691 -6.53802,11.92595 31.89191,48.72937 46.51138,44.54283 55.30565,58.25972 50.17887,78.26663 -4.04922,15.80179 -133.14743,146.82568 -156.4887,158.82295 -22.78122,11.70941 -36.55691,9.13676 -56.69562,-10.58806 z m 51.50012,-23.22742 c 6.01576,-11.2443 -0.57223,-30.71044 -11.82477,-34.9397 -12.62299,-4.74434 -27.41226,14.73996 -23.31741,30.71982 4.15705,16.22263 27.23784,18.99419 35.14218,4.21988 z M 504.10714,707.74377 c 0,-4.5367 -18.40306,-26.15308 -40.89569,-48.03641 l -40.89569,-39.78787 -45.85294,44.67726 c -51.39297,50.07524 -61.47265,52.4983 -64.19945,15.43296 -1.50568,-20.46679 -3.29283,-23.16557 -16.31634,-24.63923 -10.33628,-1.16958 -16.40293,1.59808 -20.68642,9.43736 -8.06573,14.76121 -2.70649,21.77923 69.45975,90.95873 l 58.53069,56.10829 50.42805,-47.95127 c 27.73542,-26.3732 50.42804,-51.66311 50.42804,-56.19982 z m -72.0408,-154.82126 c -1.13842,-9.76112 -5.22015,-13.75895 -15.18608,-14.87398 -10.81133,-1.20961 -23.09562,7.81017 -59.41535,43.62589 l -45.78614,45.15078 15.8019,13.47679 15.8019,13.47679 45.17033,-43.75359 c 35.80852,-34.68541 44.84765,-46.52027 43.61344,-57.10268 z"
         id="path5418"
         inkscape:connector-curvature="0" />
      <path
         style="fill-opacity:1"
         d="m 316.50879,862.21171 c -18.60444,-21.6557 -17.80875,-37.814 3.00546,-61.03286 L 336.63353,782.08179 289.53,734.93518 c -37.45134,-37.4856 -47.10352,-50.3453 -47.10352,-62.75649 0,-13.00437 13.15923,-28.38879 78.83872,-92.17011 75.56875,-73.38477 79.57147,-76.4167 96.50524,-73.09955 38.69364,7.57968 58.46594,45.7759 37.84035,73.10016 -6.30967,8.35888 -11.47213,17.11031 -11.47213,19.44761 0,2.3373 18.6637,22.18166 41.47488,44.0986 45.3435,43.56593 53.57801,57.40473 45.9107,77.15681 -2.76271,7.11714 -38.62006,45.56252 -79.683,85.43418 -72.46655,70.36422 -75.34377,72.49392 -97.93926,72.49392 -19.30233,0 -25.69058,-2.80666 -37.39319,-16.4286 z m 56.95367,-21.30692 c 4.6914,-8.58578 4.10064,-13.92283 -2.6597,-24.02836 -11.00063,-16.44403 -15.88295,-16.31356 -29.62016,0.79153 -9.1287,11.36675 -9.92377,15.57845 -4.53597,24.02837 8.62202,13.52231 29.23673,13.0791 36.81583,-0.79154 z m 84.44551,-77.62081 c 40.89969,-40.78185 50.4223,-53.12287 46.5123,-60.27861 -6.38962,-11.69374 -77.49032,-80.6676 -83.15502,-80.6676 -2.3882,0 -24.36417,19.29681 -48.8355,42.88179 -24.47133,23.58498 -47.17358,42.02037 -50.44945,40.96753 -3.27587,-1.05283 -7.18276,-12.54042 -8.68197,-25.52796 -2.40606,-20.84344 -4.44165,-23.80787 -17.3513,-25.26865 -18.63188,-2.10826 -30.82194,15.96283 -20.25661,30.02934 5.90904,7.86722 124.92438,126.07719 129.17465,128.30055 0.88771,0.46439 24.75701,-22.23201 53.0429,-50.43639 z M 392.89065,608.91045 c 46.2823,-45.9476 51.09941,-53.99764 39.25431,-65.59929 -14.16913,-13.87792 -29.65276,-5.89742 -74.80041,38.55324 l -45.66578,44.9608 15.8019,13.60646 c 8.69104,7.48355 16.65954,13.68238 17.70777,13.77519 1.04824,0.0928 22.51423,-20.29057 47.70221,-45.2964 z"
         id="path5416"
         inkscape:connector-curvature="0" />
      <path
         style="fill-opacity:1"
         d="m 323.02133,869.29594 c -11.43567,-12.84066 -20.62636,-31.04052 -20.62636,-40.84534 0,-4.49608 7.70367,-16.76837 17.11928,-27.27175 L 336.63353,782.08179 289.53,734.93518 c -36.56213,-36.59559 -47.10352,-50.50258 -47.10352,-62.14253 0,-12.13194 14.49581,-29.29365 75.90074,-89.8595 70.38831,-69.42649 77.36854,-74.86359 96.1109,-74.86359 15.29702,0 23.35171,3.57721 33.13287,14.71478 15.06667,17.15605 17.69892,51.64629 4.74519,62.17598 -4.49764,3.65599 -8.17752,9.41296 -8.17752,12.79326 0,3.3803 19.62605,25.25595 43.61344,48.61256 63.71016,62.03478 64.11324,60.19001 -34.14121,156.25342 -74.61478,72.95089 -78.65341,76.02075 -100.01115,76.02075 -14.39194,0 -25.19712,-3.30192 -30.57841,-9.34437 z m 51.12425,-23.90327 c 7.36562,-11.36725 5.13434,-23.33556 -6.22819,-33.40717 -9.01985,-7.99509 -12.21563,-8.42413 -19.37852,-2.60164 -15.60538,12.68513 -18.89939,24.14374 -10.3695,36.07156 8.60407,12.03158 28.16156,11.99747 35.97621,-0.0627 z m 85.34381,-80.83528 c 27.53819,-27.50401 50.06943,-53.17067 50.06943,-57.03703 0,-3.86635 -19.68424,-26.30942 -43.74276,-49.87348 L 422.0733,614.80313 374.31,661.36803 c -50.9433,49.66513 -61.01167,52.40812 -61.01167,16.62181 0,-19.93181 -11.39655,-31.21496 -26.71793,-26.45208 -13.42591,4.17364 -19.30679,20.48555 -12.12449,33.62999 2.95629,5.41034 19.39639,22.92166 36.53356,38.91405 17.13717,15.99238 44.65496,42.89337 61.15065,59.77997 16.4957,16.88659 31.6319,30.7029 33.63601,30.7029 2.0041,0 26.17507,-22.50327 53.71326,-50.00728 z M 438.68698,557.86614 c 0,-12.95721 -19.4281,-28.14369 -29.13945,-22.77761 -8.24497,4.55582 -77.32972,68.68523 -89.62776,83.19891 -5.51018,6.50291 -4.00733,10.89489 8.31884,24.31123 l 15.04396,16.37448 47.7022,-46.23945 c 26.23622,-25.4317 47.70221,-50.1221 47.70221,-54.86756 z"
         id="path5414"
         inkscape:connector-curvature="0" />
      <path
         style="fill-opacity:1"
         d="m 322.96892,863.95631 c -12.9427,-13.40646 -17.43652,-25.47765 -15.75006,-42.30741 0.34526,-3.44567 7.1321,-13.83593 15.08183,-23.08947 l 14.45405,-16.82462 -38.21,-38.31634 c -43.25931,-43.37971 -56.11826,-60.43922 -56.11826,-74.45008 0,-11.29981 131.79929,-145.48812 153.93849,-156.72881 12.89929,-6.54934 17.4558,-6.53814 33.63418,0.0827 31.06992,12.71503 40.79763,48.38671 20.0112,73.38141 l -10.48334,12.60571 45.91927,46.03424 c 65.4618,65.6257 66.23333,61.8132 -31.97509,158.00321 -70.75919,69.30494 -79.65453,76.29345 -97.11028,76.29345 -13.89177,0 -23.1437,-4.06851 -33.39199,-14.684 z m 51.31106,-20.06925 c 4.84231,-10.40927 4.58212,-16.41255 -1.16735,-26.93473 -9.42418,-17.24733 -26.57347,-15.46063 -37.64458,3.92199 -7.46715,13.07302 -7.29087,15.28017 2.02568,25.36327 13.77146,14.90454 29.2185,13.91752 36.78625,-2.35053 z m 85.20941,-79.32967 c 27.53819,-27.50401 50.06943,-53.05333 50.06943,-56.77626 0,-3.72293 -19.54521,-26.27284 -43.43381,-50.11089 l -43.4338,-43.34192 -48.31144,47.03549 c -37.54108,36.54959 -49.59083,45.47757 -54.05027,40.04727 -3.15636,-3.84352 -4.9711,-13.58905 -4.03276,-21.65673 1.92681,-16.56639 -9.59198,-30.7184 -25.00273,-30.7184 -10.80472,0 -21.60913,14.60781 -21.60913,29.21604 0,8.84945 123.60711,133.83746 133.92479,135.42095 3.19566,0.49045 28.34153,-21.61154 55.87972,-49.11555 z M 438.68698,554.25427 c 0,-7.76758 -4.82236,-14.39204 -13.19771,-18.12968 -10.84877,-4.84144 -15.94283,-3.94447 -28.62133,5.0397 -17.50026,12.40093 -83.56961,78.66521 -83.56961,83.81618 0,1.8579 6.74645,10.23581 14.99212,18.61757 l 14.99212,15.23957 47.7022,-46.17168 c 32.38536,-31.34627 47.70221,-50.10185 47.70221,-58.41166 z"
         id="path5412"
         inkscape:connector-curvature="0" />
      <path
         style="fill-opacity:1"
         d="m 331.72502,870.88655 c -4.87823,-12.45119 2.93271,-19.25785 17.88207,-15.58291 10.63487,2.61432 16.91189,0.14935 27.14492,-10.65968 7.3211,-7.73321 10.75855,-14.06038 7.63879,-14.06038 -3.11977,0 -5.67231,-3.31004 -5.67231,-7.35564 0,-4.04561 -3.65287,-10.32496 -8.1175,-13.95411 -4.46462,-3.62915 -6.77309,-8.72904 -5.12993,-11.33308 1.64315,-2.60404 0.24473,-4.73462 -3.10761,-4.73462 -3.35234,0 -4.33043,-3.00355 -2.17354,-6.67455 2.27845,-3.87788 1.84219,-4.8101 -1.04118,-2.22485 -2.72954,2.44734 -4.89898,6.05159 -4.82098,8.00946 0.078,1.95787 -4.82851,9.13895 -10.90336,15.95796 -11.59741,13.01808 -21.98504,40.63073 -13.30927,35.37901 7.76712,-4.70169 5.86538,6.26972 -2.22697,12.84774 -10.38282,8.43988 -20.0415,-2.7971 -20.0415,-23.31643 0,-11.26175 4.95641,-21.27276 15.3701,-31.04465 8.45355,-7.93256 17.06039,-13.20781 19.12631,-11.72276 2.06591,1.48504 1.28251,-0.16329 -1.7409,-3.66299 -7.48318,-8.662 -6.95599,-16.41985 0.7969,-11.72677 3.93088,2.37948 4.81288,1.46269 2.34914,-2.44179 -2.16968,-3.43847 -5.81101,-5.12213 -8.09184,-3.74147 -4.32897,2.62046 -60.05485,-50.07386 -60.3505,-57.06736 -0.64177,-15.18084 -1.3817,-16.23983 -5.01204,-7.17327 -3.45963,8.64019 -5.85808,6.65347 -15.85192,-13.13074 -11.09596,-21.96601 -11.25887,-24.09425 -2.82298,-36.87873 11.73119,-17.77844 83.87692,-90.36646 120.58921,-121.32849 17.97921,-15.16312 34.17915,-24.39494 42.80808,-24.39494 33.28367,0 57.3121,53.81916 34.15486,76.50047 -5.76625,5.64774 -10.48409,11.20526 -10.48409,12.35004 0,1.14478 20.85268,22.69027 46.33928,47.87886 63.51247,62.76982 63.58818,62.01132 -13.69844,137.23094 -33.02075,32.13762 -63.60946,58.43203 -67.97491,58.43203 -4.51048,0 -6.69023,3.18272 -5.0489,7.37205 3.73757,9.53976 -29.69827,30.00541 -49.02143,30.00541 -7.98585,0 -15.88675,-3.48919 -17.55756,-7.75376 z m 76.97771,-40.30297 c -1.85313,-2.9368 -5.82258,-5.33963 -8.821,-5.33963 -2.99842,0 -3.93549,2.40283 -2.08236,5.33963 1.85313,2.9368 5.82258,5.33964 8.82101,5.33964 2.99842,0 3.93548,-2.40284 2.08235,-5.33964 z m 99.19788,-128.57761 c -0.5872,-8.00364 -2.4284,-13.73301 -4.09157,-12.73194 -5.56903,3.35204 -76.94888,-71.8322 -73.45471,-77.36969 7.50595,-11.89528 -13.32625,1.40769 -21.62075,13.80653 -4.84043,7.23561 -16.64058,17.83763 -26.22254,23.56004 -9.58196,5.72242 -15.15417,10.41338 -12.38268,10.42436 2.77148,0.0112 -0.73565,6.04052 -7.79362,13.39898 l -12.83269,13.37903 -13.84813,-12.04412 c -7.61647,-6.62426 -10.64459,-7.94441 -6.72916,-2.93365 3.91543,5.01075 5.30208,11.98981 3.08145,15.50902 -2.53975,4.02494 -1.72584,4.99923 2.19406,2.62639 4.03227,-2.44087 5.08573,-0.84753 2.9849,4.51461 -1.78566,4.55773 -6.66407,8.28679 -10.84091,8.28679 -5.4355,0 -7.59425,-7.27905 -7.59425,-25.60683 0,-25.4084 -0.14616,-25.61647 -18.86026,-26.8509 -15.91388,-1.04972 -20.13838,1.17676 -27.04176,14.25208 -8.08212,15.30787 -7.82217,15.88508 21.39457,47.50708 16.26685,17.60602 27.89711,33.65541 25.84502,35.66533 -2.05209,2.00991 0.16148,2.19137 4.9191,0.40325 6.01479,-2.26065 19.25148,8.1748 43.44727,34.25268 l 34.7971,37.50381 52.85859,-51.50039 c 43.25771,-42.1462 52.66468,-54.14352 51.79097,-66.05246 z M 390.87692,613.10474 c 51.0726,-49.79117 57.24733,-63.57683 34.9003,-77.91823 -11.71091,-7.51559 -14.11565,-7.47858 -25.89548,0.3985 -7.14215,4.77591 -14.97645,11.88258 -17.40955,15.79259 -2.4331,3.91002 -7.33962,5.47194 -10.90336,3.47093 -3.56375,-2.00101 -4.56844,-1.58138 -2.23264,0.93252 2.33579,2.51389 -12.06205,20.66783 -31.99521,40.34207 -33.03559,32.60649 -35.21309,36.09123 -24.61154,39.38688 6.39682,1.98854 10.2409,5.81785 8.54242,8.50957 -1.69848,2.69172 0.71915,3.46307 5.37252,1.7141 5.48339,-2.0609 8.46067,-0.16038 8.46067,5.40082 0,4.71941 1.79141,8.58074 3.98091,8.58074 2.1895,0 25.49544,-20.97472 51.79096,-46.61049 z m -77.57859,30.59158 c 0,-2.9368 -2.59805,-5.33964 -5.77343,-5.33964 -3.17538,0 -4.25722,2.40284 -2.40409,5.33964 1.85313,2.9368 4.45116,5.33963 5.77342,5.33963 1.32225,0 2.4041,-2.40283 2.4041,-5.33963 z m 152.64705,0 c 0,-2.9368 -2.59804,-5.33964 -5.77342,-5.33964 -3.17538,0 -4.25723,2.40284 -2.4041,5.33964 1.85313,2.9368 4.45117,5.33963 5.77342,5.33963 1.32226,0 2.4041,-2.40283 2.4041,-5.33963 z m -21.80672,-27.01331 c 0,-3.11012 -2.45326,-4.16973 -5.45168,-2.35469 -2.99843,1.81504 -5.45168,4.35969 -5.45168,5.65477 0,1.29508 2.45325,2.35468 5.45168,2.35468 2.99842,0 5.45168,-2.54464 5.45168,-5.65476 z"
         id="path5410"
         inkscape:connector-curvature="0" />
    </g>
  </g>
</svg>
