<?xml version="1.0" encoding="UTF-8" standalone="no"?>
<!-- Created with Inkscape (http://www.inkscape.org/) -->

<svg
   xmlns:dc="http://purl.org/dc/elements/1.1/"
   xmlns:cc="http://creativecommons.org/ns#"
   xmlns:rdf="http://www.w3.org/1999/02/22-rdf-syntax-ns#"
   xmlns:svg="http://www.w3.org/2000/svg"
   xmlns="http://www.w3.org/2000/svg"
   xmlns:sodipodi="http://sodipodi.sourceforge.net/DTD/sodipodi-0.dtd"
   xmlns:inkscape="http://www.inkscape.org/namespaces/inkscape"
   width="210mm"
   height="297mm"
   viewBox="0 0 744.09448819 1052.3622047"
   id="svg5330"
   version="1.1"
   inkscape:version="0.91 r13725"
   sodipodi:docname="setup.svg">
  <defs
     id="defs5332" />
  <sodipodi:namedview
     id="base"
     pagecolor="#ffffff"
     bordercolor="#666666"
     borderopacity="1.0"
     inkscape:pageopacity="0.0"
     inkscape:pageshadow="2"
     inkscape:zoom="0.25"
     inkscape:cx="-76.937089"
     inkscape:cy="857.54401"
     inkscape:document-units="px"
     inkscape:current-layer="layer1"
     showgrid="false"
     inkscape:window-width="1600"
     inkscape:window-height="847"
     inkscape:window-x="-8"
     inkscape:window-y="-8"
     inkscape:window-maximized="1" />
  <metadata
     id="metadata5335">
    <rdf:RDF>
      <cc:Work
         rdf:about="">
        <dc:format>image/svg+xml</dc:format>
        <dc:type
           rdf:resource="http://purl.org/dc/dcmitype/StillImage" />
        <dc:title></dc:title>
      </cc:Work>
    </rdf:RDF>
  </metadata>
  <g
     inkscape:label="Camada 1"
     inkscape:groupmode="layer"
     id="layer1">
    <g
       id="g5371"
       transform="matrix(2.3511111,0,0,2.4222222,-1045.6699,-1059.1691)">
      <path
         style="fill-opacity:1"
         d="m 575.98215,772.05325 0,-18.07682 -5.3125,-1.42237 c -2.92188,-0.7823 -9.43479,-3.42825 -14.47315,-5.8799 l -9.16066,-4.45754 -12.70297,12.70297 -12.70297,12.70298 -18.44602,-18.41528 -18.44602,-18.41526 12.69914,-12.74251 12.69915,-12.74251 -4.45281,-9.15098 c -2.44905,-5.03302 -5.09288,-11.54158 -5.87518,-14.46346 l -1.42237,-5.3125 -18.07682,0 -18.07682,0 0,-26.875 0,-26.875 18.07682,0 18.07682,0 1.42237,-5.3125 c 0.7823,-2.92188 3.42613,-9.43044 5.87518,-14.46347 l 4.45281,-9.15096 -12.69915,-12.74252 -12.69914,-12.74251 18.44602,-18.41527 18.44602,-18.41527 12.70297,12.70298 12.70297,12.70297 9.16066,-4.45754 c 5.03836,-2.45164 11.55127,-5.0976 14.47315,-5.8799 l 5.3125,-1.42237 0,-18.07682 0,-18.07682 26.875,0 26.875,0 0,18.07682 0,18.07682 5.3125,1.42237 c 2.92188,0.7823 9.43044,3.42613 14.46346,5.87518 l 9.15098,4.45281 12.74251,-12.69915 12.74251,-12.69914 18.41527,18.44602 18.41527,18.44602 -12.70298,12.70297 -12.70297,12.70297 4.45754,9.16066 c 2.45165,5.03836 5.0976,11.55127 5.8799,14.47315 l 1.42237,5.3125 18.07681,0 18.07683,0 0,26.875 0,26.875 -18.07683,0 -18.07681,0 -1.42237,5.3125 c -0.7823,2.92188 -3.42825,9.4348 -5.8799,14.47315 l -4.45754,9.16066 12.70297,12.70297 12.70298,12.70297 -18.41528,18.44603 -18.41526,18.44601 -12.74251,-12.69914 -12.74251,-12.69915 -9.15098,4.45281 c -5.03302,2.44905 -11.54159,5.09288 -14.46346,5.87518 l -5.3125,1.42237 0,18.07682 0,18.07682 -26.875,0 -26.875,0 0,-18.07682 z m 43.17487,-57.61264 c 12.43359,-3.2368 20.5395,-8.02491 30.57513,-18.06054 13.78097,-13.78097 20,-28.35681 20,-46.875 0,-18.51819 -6.21903,-33.09402 -20,-46.875 -13.78097,-13.78098 -28.35681,-20 -46.875,-20 -18.51819,0 -33.09402,6.21902 -46.875,20 -5.59958,5.59958 -10.73336,12.14364 -12.74803,16.25 -9.6376,19.64359 -9.6376,41.60641 0,61.25 4.44246,9.05474 19.95927,24.56285 29.0335,29.01722 14.56402,7.1492 32.139,9.13324 46.8894,5.29332 z m -23.79987,-34.16166 c -8.82003,-2.30649 -16.87238,-8.96269 -21.35076,-17.64888 -3.27866,-6.35925 -3.08195,-20.28694 0.37957,-26.875 6.00414,-11.42724 15.73024,-17.35639 28.47119,-17.35639 12.74095,0 22.46705,5.92915 28.47119,17.35639 3.46152,6.58806 3.65824,20.51575 0.37956,26.875 -3.08689,5.98729 -9.18294,12.24595 -14.69574,15.08774 -5.26514,2.71414 -16.14801,4.00125 -21.65501,2.56114 z"
         id="path5387"
         inkscape:connector-curvature="0" />
      <path
         style="fill-opacity:1"
         d="m 577.23215,772.20293 0,-17.92713 -5.3125,-1.53613 c -2.92188,-0.84486 -9.70488,-3.56934 -15.07334,-6.05439 l -9.76085,-4.51829 -12.72778,12.72779 -12.72778,12.72779 -18.44602,-18.41528 -18.44602,-18.41526 12.72405,-12.76751 12.72405,-12.7675 -4.51365,-9.75098 c -2.48251,-5.36303 -5.2049,-12.14159 -6.04977,-15.06347 l -1.53611,-5.3125 -17.92714,0 -17.92714,0 0,-25.625 0,-25.625 17.92714,0 17.92714,0 1.53611,-5.3125 c 0.84487,-2.92188 3.56726,-9.70044 6.04977,-15.06348 l 4.51365,-9.75097 -12.72405,-12.76751 -12.72405,-12.7675 18.44602,-18.41527 18.44602,-18.41527 12.72778,12.72779 12.72778,12.72778 9.76085,-4.51828 c 5.36846,-2.48506 12.15146,-5.20953 15.07334,-6.0544 l 5.3125,-1.53611 0,-17.92714 0,-17.92714 25.625,0 25.625,0 0,17.92714 0,17.92714 5.3125,1.53611 c 2.92188,0.84487 9.70044,3.56726 15.06347,6.04977 l 9.75098,4.51365 12.7675,-12.72405 12.76751,-12.72405 18.41527,18.44602 18.41527,18.44602 -12.72779,12.72778 -12.72778,12.72778 4.51828,9.76085 c 2.48505,5.36846 5.20953,12.15147 6.05439,15.07334 l 1.53613,5.3125 17.92713,0 17.92714,0 0,25.625 0,25.625 -17.92714,0 -17.92713,0 -1.53613,5.3125 c -0.84486,2.92188 -3.56934,9.70487 -6.05439,15.07334 l -4.51828,9.76085 12.72778,12.72777 12.72779,12.72779 -18.41527,18.44603 -18.41527,18.44601 -12.76751,-12.72405 -12.7675,-12.72405 -9.75098,4.51365 c -5.36303,2.48251 -12.14159,5.2049 -15.06347,6.04976 l -5.3125,1.53613 0,17.92713 0,17.92714 -25.625,0 -25.625,0 0,-17.92714 z m 42.44332,-57.66704 c 23.70862,-6.3094 41.9031,-24.50388 48.2125,-48.2125 2.32612,-8.74078 2.32612,-24.89586 0,-33.63664 -6.3094,-23.70862 -24.50388,-41.90311 -48.2125,-48.2125 -8.74078,-2.32612 -24.89586,-2.32612 -33.63664,0 -23.70862,6.30939 -41.90311,24.50388 -48.2125,48.2125 -0.99798,3.75007 -1.81451,11.31832 -1.81451,16.81832 0,30.74521 19.87571,56.84391 49.48041,64.97247 8.22698,2.25889 25.80161,2.28889 34.18324,0.0584 z m -25.16763,-34.89956 c -20.62005,-5.55222 -29.69134,-30.91858 -17.21566,-48.14076 16.08189,-22.2004 50.24413,-15.122 56.17781,11.64002 3.61596,16.30867 -7.21039,33.13917 -23.73784,36.90253 -6.95278,1.58318 -7.95025,1.55685 -15.22431,-0.40179 z"
         id="path5385"
         inkscape:connector-curvature="0" />
      <path
         style="fill-opacity:1"
         d="m 577.23215,772.05325 0,-18.07682 -5.3125,-1.42504 c -2.92188,-0.78376 -9.71231,-3.43345 -15.08985,-5.8882 l -9.77736,-4.46317 -12.71127,12.71127 -12.71127,12.71128 -18.44602,-18.41528 -18.44602,-18.41526 12.70764,-12.75104 12.70764,-12.75103 -4.45864,-9.76745 c -2.45226,-5.37209 -5.09991,-12.15806 -5.88368,-15.07994 l -1.42503,-5.3125 -18.07682,0 -18.07682,0 0,-25.625 0,-25.625 18.07682,0 18.07682,0 1.42503,-5.3125 c 0.78377,-2.92188 3.43142,-9.70785 5.88368,-15.07994 l 4.45864,-9.76745 -12.70764,-12.75103 -12.70764,-12.75104 18.44602,-18.41527 18.44602,-18.41527 12.71127,12.71128 12.71127,12.71127 9.77736,-4.46317 c 5.37754,-2.45475 12.16797,-5.10444 15.08985,-5.88821 l 5.3125,-1.42503 0,-18.07682 0,-18.07682 25.625,0 25.625,0 0,18.07682 0,18.07682 5.3125,1.42503 c 2.92188,0.78377 9.70785,3.43142 15.07994,5.88368 l 9.76745,4.45864 12.75103,-12.70764 12.75104,-12.70764 18.41527,18.44602 18.41527,18.44602 -12.71128,12.71127 -12.71127,12.71127 4.46318,9.77736 c 2.45475,5.37754 5.10443,12.16797 5.8882,15.08985 l 1.42503,5.3125 18.07681,0 18.07683,0 0,25.625 0,25.625 -18.07683,0 -18.07681,0 -1.42504,5.3125 c -0.78376,2.92188 -3.43345,9.71231 -5.8882,15.08985 l -4.46317,9.77736 12.71127,12.71126 12.71128,12.71128 -18.41528,18.44602 -18.41526,18.44602 -12.75104,-12.70764 -12.75103,-12.70764 -9.76745,4.45864 c -5.37209,2.45226 -12.15807,5.09991 -15.07994,5.88367 l -5.3125,1.42504 0,18.07681 0,18.07683 -25.625,0 -25.625,0 0,-18.07683 z m 43.83562,-57.6674 c 22.19029,-6.51789 40.15227,-24.47987 46.67016,-46.67016 2.61387,-8.89897 2.61387,-27.52227 0,-36.42124 -6.51789,-22.19029 -24.47987,-40.15226 -46.67016,-46.67016 -8.89897,-2.61386 -27.52227,-2.61386 -36.42124,0 -22.19029,6.5179 -40.15226,24.47987 -46.67016,46.67016 -2.61387,8.89897 -2.61387,27.52227 0,36.42124 4.62523,15.74667 16.71937,31.62973 30.05135,39.466 15.20289,8.93597 37.04424,11.90257 53.04005,7.20416 z m -23.96394,-34.19227 c -20.333,-3.88342 -31.43925,-27.03341 -21.62246,-45.07007 5.86505,-10.77604 15.45594,-16.55594 27.47212,-16.55594 23.33663,0 38.36065,24.95925 27.27944,45.31906 -6.65994,12.2365 -20.01712,18.81123 -33.1291,16.30695 z"
         id="path5383"
         inkscape:connector-curvature="0" />
      <path
         style="fill-opacity:1"
         d="m 577.23215,772.17376 0,-17.9563 -8.4375,-2.801 c -4.64063,-1.54055 -11.34115,-4.34807 -14.89006,-6.23892 l -6.45255,-3.43792 -12.27399,12.32022 c -6.7507,6.77613 -12.85459,12.32023 -13.56419,12.32023 -1.66274,0 -35.63171,-34.00036 -35.63171,-35.66464 0,-0.6915 5.5441,-6.78056 12.32022,-13.53126 l 12.32023,-12.27399 -3.43792,-6.45256 c -1.89086,-3.5489 -4.69837,-10.24942 -6.23892,-14.89005 l -2.801,-8.4375 -17.9563,0 -17.95631,0 0,-25.625 0,-25.625 17.95631,0 17.9563,0 2.801,-8.4375 c 1.54055,-4.64063 4.34806,-11.34115 6.23892,-14.89006 l 3.43792,-6.45255 -12.32023,-12.27399 c -6.77612,-6.7507 -12.32022,-12.85459 -12.32022,-13.56419 0,-1.66274 34.00036,-35.63171 35.66463,-35.63171 0.6915,0 6.78057,5.5441 13.53127,12.32022 l 12.27399,12.32023 6.45255,-3.43792 c 3.54891,-1.89086 10.24943,-4.69837 14.89006,-6.23892 l 8.4375,-2.801 0,-17.9563 0,-17.95631 25.625,0 25.625,0 0,17.95631 0,17.9563 8.4375,2.801 c 4.64063,1.54055 11.34115,4.34806 14.89005,6.23892 l 6.45256,3.43792 12.27399,-12.32023 c 6.7507,-6.77612 12.85459,-12.32022 13.5642,-12.32022 1.66274,0 35.6317,34.00036 35.6317,35.66463 0,0.6915 -5.5441,6.78057 -12.32023,13.53127 l -12.32022,12.27399 3.43792,6.45255 c 1.89085,3.54891 4.69837,10.24944 6.23892,14.89006 l 2.801,8.4375 17.9563,0 17.95631,0 0,25.625 0,25.625 -17.95631,0 -17.9563,0 -2.801,8.4375 c -1.54055,4.64063 -4.34807,11.34115 -6.23892,14.89005 l -3.43792,6.45256 12.32022,12.27399 c 6.77613,6.7507 12.32023,12.85459 12.32023,13.5642 0,1.66274 -34.00036,35.6317 -35.66464,35.6317 -0.6915,0 -6.78056,-5.5441 -13.53126,-12.32023 l -12.27399,-12.32022 -6.45256,3.43792 c -3.5489,1.89085 -10.24942,4.69837 -14.89005,6.23892 l -8.4375,2.801 0,17.9563 0,17.95631 -25.625,0 -25.625,0 0,-17.95631 z m 45,-58.33553 c 42.23867,-12.36206 60.82241,-61.08219 37.97715,-99.56298 -18.68499,-31.47321 -60.14436,-41.37987 -92.58197,-22.12234 -31.36679,18.62182 -41.42126,60.38301 -22.23481,92.35216 5.78706,9.64262 10.70438,14.79999 19.78235,20.74809 17.92727,11.74635 36.63705,14.5615 57.05728,8.58507 z m -33.55198,-36.92011 c -11.45884,-5.79339 -17.09604,-16.18499 -16.22245,-29.90441 0.65151,-10.23178 5.51788,-18.42929 14.08445,-23.7256 5.50168,-3.40142 7.14747,-3.78304 16.31498,-3.78304 9.16751,0 10.8133,0.38162 16.31497,3.78304 3.79269,2.34484 7.55714,6.10929 9.90198,9.90198 3.40144,5.50168 3.78305,7.14747 3.78305,16.31498 0,9.16751 -0.38161,10.8133 -3.78305,16.31498 -5.58446,9.03266 -13.55394,13.54414 -24.84521,14.06477 -7.64032,0.35229 -9.79853,-0.0595 -15.54872,-2.9667 z"
         id="path5381"
         inkscape:connector-curvature="0" />
      <path
         style="fill-opacity:1"
         d="m 577.23215,772.10553 0,-18.02455 -6.5625,-2.13114 c -3.60938,-1.17212 -10.30731,-3.95153 -14.88429,-6.17646 l -8.3218,-4.04532 -12.27975,12.32601 c -6.75387,6.7793 -12.75166,12.326 -13.32843,12.326 -1.36989,0 -35.87323,-34.50334 -35.87323,-35.87324 0,-0.57676 5.5467,-6.57456 12.32601,-13.32842 l 12.326,-12.27975 -4.04532,-8.3218 c -2.22493,-4.57698 -5.00434,-11.27492 -6.17646,-14.88429 l -2.13115,-6.5625 -18.02454,0 -18.02454,0 0,-25.625 0,-25.625 18.02454,0 18.02454,0 2.13115,-6.5625 c 1.17212,-3.60938 3.95153,-10.30731 6.17646,-14.88429 l 4.04532,-8.3218 -12.326,-12.27975 c -6.77931,-6.75387 -12.32601,-12.75166 -12.32601,-13.32843 0,-1.36989 34.50334,-35.87323 35.87323,-35.87323 0.57677,0 6.57456,5.5467 13.32843,12.32601 l 12.27975,12.326 8.3218,-4.04532 c 4.57698,-2.22493 11.27491,-5.00433 14.88429,-6.17646 l 6.5625,-2.13115 0,-18.02454 0,-18.02454 25.625,0 25.625,0 0,18.02454 0,18.02454 6.5625,2.13115 c 3.60937,1.17213 10.30731,3.95153 14.88429,6.17646 l 8.3218,4.04532 12.27975,-12.326 c 6.75386,-6.77931 12.75166,-12.32601 13.32842,-12.32601 1.3699,0 35.87324,34.50334 35.87324,35.87323 0,0.57677 -5.5467,6.57456 -12.326,13.32843 l -12.32601,12.27975 4.04532,8.3218 c 2.22493,4.57698 5.00434,11.27492 6.17646,14.88429 l 2.13114,6.5625 18.02455,0 18.02454,0 0,25.625 0,25.625 -18.02454,0 -18.02455,0 -2.13114,6.5625 c -1.17212,3.60937 -3.95153,10.30731 -6.17646,14.88429 l -4.04532,8.3218 12.32601,12.27975 c 6.7793,6.75386 12.326,12.75166 12.326,13.32842 0,1.3699 -34.50334,35.87324 -35.87324,35.87324 -0.57676,0 -6.57456,-5.5467 -13.32842,-12.326 l -12.27975,-12.32601 -8.3218,4.04532 c -4.57698,2.22493 -11.27492,5.00434 -14.88429,6.17646 l -6.5625,2.13114 0,18.02455 0,18.02454 -25.625,0 -25.625,0 0,-18.02454 z m 37.85502,-56.25962 c 13.99052,-2.67683 24.97233,-8.54319 35.26998,-18.84084 10.76407,-10.76408 16.38592,-21.65065 19.10646,-36.99921 1.71618,-9.68223 1.71289,-11.82388 -0.0327,-21.3308 -2.78275,-15.155 -8.44539,-26.04166 -19.07371,-36.66999 -10.76408,-10.76408 -21.65065,-16.38593 -36.99921,-19.10646 -9.68223,-1.71618 -11.82388,-1.71289 -21.3308,0.0328 -15.155,2.78273 -26.04166,8.44537 -36.66999,19.0737 -10.62833,10.62833 -16.29097,21.51499 -19.0737,36.66999 -1.74565,9.50692 -1.74894,11.64857 -0.0328,21.3308 2.72054,15.34856 8.34239,26.23513 19.10647,36.99921 10.00883,10.00882 21.23939,16.15203 34.28036,18.75159 10.9539,2.18354 14.43991,2.19576 25.44966,0.0892 z m -26.407,-38.92779 c -11.45884,-5.79339 -17.09604,-16.18499 -16.22245,-29.90441 0.65151,-10.23178 5.51788,-18.42929 14.08445,-23.7256 5.50168,-3.40142 7.14747,-3.78304 16.31498,-3.78304 9.16751,0 10.8133,0.38162 16.31497,3.78304 3.79269,2.34484 7.55714,6.10929 9.90198,9.90198 3.40144,5.50168 3.78305,7.14747 3.78305,16.31498 0,9.16751 -0.38161,10.8133 -3.78305,16.31498 -5.58446,9.03266 -13.55394,13.54414 -24.84521,14.06477 -7.64032,0.35229 -9.79853,-0.0595 -15.54872,-2.9667 z"
         id="path5379"
         inkscape:connector-curvature="0" />
      <path
         style="fill-opacity:1"
         d="m 576.95307,771.86268 -0.34592,-18.2674 -6.875,-2.14535 c -3.78125,-1.17995 -10.44645,-3.92744 -14.81155,-6.10551 l -7.93655,-3.96015 -12.58528,12.58528 -12.58528,12.58527 -17.86487,-17.833 c -14.9175,-14.89087 -17.61548,-18.14081 -16.35317,-19.69876 0.83143,-1.02617 6.43903,-6.75317 12.46132,-12.72667 l 10.94961,-10.86092 -3.97436,-7.9652 c -2.1859,-4.38086 -4.93978,-11.05895 -6.11973,-14.8402 l -2.14536,-6.875 -18.26739,-0.34591 -18.26739,-0.34593 0,-25.55816 0,-25.55817 18.26739,-0.34591 18.26739,-0.34592 2.14536,-6.875 c 1.17995,-3.78125 3.93383,-10.45934 6.11973,-14.8402 l 3.97436,-7.9652 -10.94961,-10.86092 c -6.02229,-5.97351 -11.62989,-11.70051 -12.46132,-12.72667 -1.26231,-1.55794 1.43567,-4.80788 16.35317,-19.69876 l 17.86487,-17.833 12.58528,12.58527 12.58528,12.58528 7.93655,-3.96015 c 4.3651,-2.17808 11.0303,-4.92556 14.81155,-6.10551 l 6.875,-2.14536 0.34592,-18.26739 0.34591,-18.26739 25.55817,0 25.55816,0 0.34593,18.26739 0.34591,18.26739 6.875,2.14536 c 3.78125,1.17995 10.44645,3.92743 14.81155,6.10551 l 7.93655,3.96015 12.58527,-12.58528 12.58528,-12.58527 17.86489,17.833 c 14.91748,14.89088 17.61546,18.14082 16.35316,19.69876 -0.83144,1.02616 -6.43902,6.75316 -12.46131,12.72667 l -10.94963,10.86092 3.97438,7.9652 c 2.1859,4.38086 4.93977,11.05895 6.11972,14.8402 l 2.14535,6.875 18.2674,0.34592 18.26739,0.34591 0,25.55817 0,25.55816 -18.26739,0.34593 -18.2674,0.34591 -2.14535,6.875 c -1.17995,3.78125 -3.92744,10.44645 -6.10551,14.81155 l -3.96015,7.93655 12.58527,12.58527 12.58528,12.58528 -17.833,17.86489 c -14.89088,14.91748 -18.14081,17.61546 -19.69876,16.35316 -1.02617,-0.83144 -6.75317,-6.43903 -12.72667,-12.46131 l -10.86092,-10.94963 -7.9652,3.97438 c -4.38086,2.1859 -11.05895,4.93977 -14.8402,6.11972 l -6.875,2.14535 -0.34591,18.2674 -0.34593,18.26739 -25.55816,0 -25.55817,0 -0.34591,-18.26739 z m 39.38766,-56.07367 c 26.29582,-5.57203 47.22833,-26.50454 52.80036,-52.80036 2.26195,-10.67474 2.26195,-16.29242 0,-26.96716 -5.57203,-26.29582 -26.50454,-47.22834 -52.80036,-52.80036 -10.67474,-2.26195 -16.29242,-2.26195 -26.96716,0 -26.29582,5.57202 -47.22834,26.50454 -52.80036,52.80036 -0.98871,4.66597 -1.79765,10.73358 -1.79765,13.48358 0,16.78896 7.77126,34.78185 20.5355,47.5461 16.86038,16.86038 38.51439,23.50877 61.02967,18.73784 z M 591.9078,678.41996 c -6.96771,-2.59981 -13.11759,-8.09504 -16.97152,-15.16489 -2.86973,-5.26438 -2.81465,-22.33091 0.0893,-27.67985 2.72933,-5.02724 8.87445,-11.17236 13.90169,-13.90169 5.44752,-2.9575 22.41217,-2.9575 27.8597,0 5.02725,2.72933 11.17236,8.87445 13.90169,13.90169 2.9575,5.44752 2.9575,22.41217 0,27.8597 -2.77094,5.10389 -8.94941,11.23943 -13.89173,13.79519 -5.32001,2.7511 -18.95761,3.40305 -24.88916,1.18985 z"
         id="path5377"
         inkscape:connector-curvature="0" />
      <path
         style="fill-opacity:1"
         d="m 576.95307,771.90433 -0.34592,-18.22575 -8.125,-2.84212 c -4.46875,-1.56318 -11.16289,-4.38277 -14.87587,-6.26578 l -6.75087,-3.42364 -12.6125,12.61252 -12.61251,12.6125 -17.82154,-17.78974 -17.82154,-17.78975 12.60918,-12.65224 12.60918,-12.65225 -3.41889,-6.7415 c -1.88039,-3.70784 -4.69786,-10.39776 -6.26103,-14.86651 l -2.84213,-8.125 -18.22574,-0.34591 -18.22574,-0.34593 0,-25.55816 0,-25.55817 18.22574,-0.34591 18.22574,-0.34592 2.84213,-8.125 c 1.56317,-4.46875 4.38064,-11.15868 6.26103,-14.86651 l 3.4189,-6.7415 -12.60919,-12.65225 -12.60918,-12.65224 17.82154,-17.78974 17.82154,-17.78975 12.61251,12.6125 12.6125,12.61251 6.75087,-3.42364 c 3.71298,-1.883 10.40712,-4.7026 14.87587,-6.26577 l 8.125,-2.84213 0.34592,-18.22574 0.34591,-18.22574 25.55817,0 25.55816,0 0.34593,18.22574 0.34591,18.22574 8.125,2.84213 c 4.46875,1.56317 11.15867,4.38064 14.86651,6.26103 l 6.7415,3.4189 12.65225,-12.60919 12.65224,-12.60918 17.78975,17.82154 17.78974,17.82154 -12.6125,12.61251 -12.61251,12.6125 3.42363,6.75087 c 1.88302,3.71298 4.7026,10.40712 6.26578,14.87587 l 2.84212,8.125 18.22575,0.34592 18.22574,0.34591 0,25.55817 0,25.55816 -18.22574,0.34593 -18.22575,0.34591 -2.84212,8.125 c -1.56318,4.46875 -4.38276,11.16289 -6.26578,14.87586 l -3.42363,6.75088 12.61251,12.6125 12.6125,12.61251 -17.78974,17.82154 -17.78975,17.82153 -12.65224,-12.60917 -12.65225,-12.60919 -6.7415,3.4189 c -3.70784,1.88039 -10.39776,4.69785 -14.86651,6.26103 l -8.125,2.84212 -0.34591,18.22575 -0.34593,18.22574 -25.55816,0 -25.55817,0 -0.34591,-18.22574 z m 40.02528,-56.05047 c 25.30441,-5.42785 46.79974,-26.92318 52.22759,-52.22759 4.90163,-22.85124 -1.73938,-44.71904 -18.74517,-61.72483 -27.23553,-27.23554 -67.9717,-27.23554 -95.20725,0 -27.23554,27.23555 -27.23554,67.97172 0,95.20725 17.00991,17.00991 38.86807,23.64799 61.72483,18.74517 z m -24.7462,-37.35799 c -6.13528,-1.93381 -16.59858,-12.76852 -18.47986,-19.13582 -3.59807,-12.17792 -1.06737,-22.26746 7.8125,-31.14734 6.6254,-6.62538 12.80198,-9.33264 21.29236,-9.33264 8.49038,0 14.66696,2.70726 21.29235,9.33264 6.62539,6.6254 9.33265,12.80198 9.33265,21.29236 0,8.49038 -2.70726,14.66696 -9.33265,21.29235 -8.8297,8.8297 -19.87558,11.49396 -31.91735,7.69845 z"
         id="path5375"
         inkscape:connector-curvature="0" />
      <path
         style="fill-opacity:1"
         d="m 577.23215,771.38007 c 0,-17.02358 -0.20142,-18.75006 -2.1875,-18.75062 -2.97618,-8.7e-4 -14.62101,-4.49243 -21.94378,-8.46401 l -6.00628,-3.25756 -12.7321,12.73209 -12.73209,12.73209 -17.82154,-17.78974 -17.82154,-17.78975 12.7284,-12.77186 12.72839,-12.77187 -3.25245,-5.99688 c -3.96718,-7.3147 -8.45802,-18.95973 -8.45888,-21.93439 -5.7e-4,-1.98609 -1.72706,-2.1875 -18.75063,-2.1875 l -18.75,0 0,-25.625 0,-25.625 18.75,0 c 17.02357,0 18.75006,-0.20142 18.75063,-2.1875 8.6e-4,-2.97466 4.4917,-14.61969 8.45888,-21.93438 l 3.25245,-5.99689 -12.72839,-12.77187 -12.7284,-12.77186 17.82154,-17.78974 17.82154,-17.78975 12.73209,12.73209 12.7321,12.73209 6.00628,-3.25757 c 7.32277,-3.97158 18.9676,-8.46313 21.94378,-8.46399 1.98608,-5.7e-4 2.1875,-1.72706 2.1875,-18.75063 l 0,-18.75 25.625,0 25.625,0 0,18.75 c 0,17.02357 0.20141,18.75006 2.1875,18.75063 2.97466,8.6e-4 14.61969,4.4917 21.93439,8.45888 l 5.99688,3.25245 12.77187,-12.72839 12.77186,-12.7284 17.78975,17.82154 17.78974,17.82154 -12.73209,12.73209 -12.73209,12.7321 3.25756,6.00628 c 3.97158,7.32277 8.46314,18.9676 8.464,21.94378 5.7e-4,1.98608 1.72705,2.1875 18.75063,2.1875 l 18.75,0 0,25.625 0,25.625 -18.75,0 c -17.02358,0 -18.75006,0.20141 -18.75063,2.1875 -8.6e-4,2.97619 -4.49242,14.62101 -8.464,21.94379 l -3.25756,6.00627 12.73209,12.73209 12.73209,12.7321 -17.78974,17.82154 -17.78975,17.82153 -12.77186,-12.72838 -12.77187,-12.7284 -5.99688,3.25245 c -7.3147,3.96718 -18.95973,8.45802 -21.93439,8.45888 -1.98609,5.7e-4 -2.1875,1.72705 -2.1875,18.75063 l 0,18.75 -25.625,0 -25.625,0 0,-18.75 z m 40.71342,-55.6908 c 12.77297,-2.96225 22.52,-8.51574 32.55002,-18.54576 27.34935,-27.34934 27.34935,-67.92754 0,-95.27688 -27.34934,-27.34935 -67.92754,-27.34935 -95.27688,0 -21.54596,21.54595 -26.41858,51.64626 -12.7467,78.74193 4.83342,9.57913 19.18269,24.15534 28.51014,28.96102 14.66547,7.55595 31.37933,9.73389 46.96342,6.11969 z m -25.04533,-37.12628 c -3.2476,-0.85741 -7.18681,-3.53859 -11.42351,-7.7753 -5.38831,-5.38831 -6.73646,-7.67248 -8.08502,-13.69849 -5.20329,-23.25073 13.79884,-42.25286 37.04957,-37.04957 12.85704,2.87728 23.04087,15.9007 23.04087,29.46544 0,8.22934 -2.94035,14.9784 -9.29348,21.33152 -8.69213,8.69213 -18.47776,11.1086 -31.28843,7.7264 z"
         id="path5373"
         inkscape:connector-curvature="0" />
    </g>
  </g>
</svg>
