<?xml version="1.0" encoding="UTF-8" standalone="no"?>
<!-- Created with Inkscape (http://www.inkscape.org/) -->

<svg
   xmlns:dc="http://purl.org/dc/elements/1.1/"
   xmlns:cc="http://creativecommons.org/ns#"
   xmlns:rdf="http://www.w3.org/1999/02/22-rdf-syntax-ns#"
   xmlns:svg="http://www.w3.org/2000/svg"
   xmlns="http://www.w3.org/2000/svg"
   xmlns:sodipodi="http://sodipodi.sourceforge.net/DTD/sodipodi-0.dtd"
   xmlns:inkscape="http://www.inkscape.org/namespaces/inkscape"
   width="210mm"
   height="297mm"
   viewBox="0 0 744.09448819 1052.3622047"
   id="svg3886"
   version="1.1"
   inkscape:version="0.91 r13725"
   sodipodi:docname="sinfony.svg">
  <defs
     id="defs3888" />
  <sodipodi:namedview
     id="base"
     pagecolor="#ffffff"
     bordercolor="#666666"
     borderopacity="1.0"
     inkscape:pageopacity="0.0"
     inkscape:pageshadow="2"
     inkscape:zoom="0.35"
     inkscape:cx="375"
     inkscape:cy="520"
     inkscape:document-units="px"
     inkscape:current-layer="layer1"
     showgrid="false"
     inkscape:window-width="1600"
     inkscape:window-height="847"
     inkscape:window-x="-8"
     inkscape:window-y="-8"
     inkscape:window-maximized="1" />
  <metadata
     id="metadata3891">
    <rdf:RDF>
      <cc:Work
         rdf:about="">
        <dc:format>image/svg+xml</dc:format>
        <dc:type
           rdf:resource="http://purl.org/dc/dcmitype/StillImage" />
        <dc:title></dc:title>
      </cc:Work>
    </rdf:RDF>
  </metadata>
  <g
     inkscape:label="Camada 1"
     inkscape:groupmode="layer"
     id="layer1">
    <path
       style="fill:#000000"
       d="M 321.07769,849.86406 C 123.70765,823.91402 -13.592838,638.76197 26.612608,452.77354 69.515759,254.30773 288.30855,136.50198 487.71367,204.5008 650.02148,259.8493 746.47239,417.17358 716.04641,576.94156 702.72733,646.88037 671.88874,702.80621 618.32648,754.15792 540.50189,828.77079 430.36249,864.23275 321.07769,849.86406 Z M 298.78513,749.7253 c 11.44475,-4.8132 32.8145,-20.41581 47.48751,-34.67238 42.35048,-41.14804 67.70401,-98.7181 85.9892,-195.25284 l 5.51372,-29.10978 21.03262,-0.0241 c 28.95811,-0.0345 52.17205,-6.85266 68.91172,-20.24397 18.17886,-14.54269 23.75754,-28.30869 17.10072,-42.19836 -6.80633,-14.20268 -19.71678,-17.50342 -33.90099,-8.66746 -9.27868,5.77994 -11.00313,9.48119 -8.7075,18.68602 5.36784,21.52115 4.84094,23.91397 -6.49461,29.49104 -6.23732,3.06865 -21.12878,5.608 -33.09211,5.64294 l -21.75223,0.0638 2.91979,-16.17211 c 6.60239,-36.57095 20.32609,-83.64775 29.21212,-100.20737 11.28365,-21.02821 33.32111,-35.20439 52.19708,-33.57711 14.10147,1.21569 14.50971,2.44757 8.65561,26.12151 -6.02721,24.37437 27.71847,39.30529 45.83056,20.2779 13.19389,-13.86067 10.63554,-33.7794 -6.17272,-48.05741 -14.39612,-12.22914 -26.30067,-14.71183 -59.61777,-12.43336 -42.21693,2.88711 -88.201,42.52667 -118.60086,102.23713 l -18.30334,35.95125 -23.42189,-19.53388 c -23.18635,-19.3374 -55.21412,-32.23272 -80.05598,-32.23272 -19.4185,0 -57.70463,20.65238 -68.19136,36.7841 -21.38136,32.89109 -14.60044,61.91157 24.48949,104.80445 23.81235,26.12942 25.63113,35.48478 9.82011,50.51651 -18.35669,17.45229 -61.44347,11.86766 -61.44347,-7.96391 0,-3.74935 2.04126,-8.01641 4.53611,-9.48233 7.20913,-4.23595 5.26187,-28.74652 -2.97097,-37.39538 -8.59499,-9.02903 -30.02099,-10.48442 -36.7435,-2.49584 -10.41742,12.37944 -10.76216,25.24837 -1.18083,44.06542 7.57057,14.86818 14.7895,21.44879 32.98797,30.07055 60.17589,28.50908 134.91811,-1.80239 134.91811,-54.71543 0,-22.10447 -8.79422,-39.13385 -34.81111,-67.40944 -24.4895,-26.61555 -27.8023,-44.17609 -10.80353,-57.26278 20.7717,-15.991 53.20118,-7.3054 89.3459,23.92954 18.89196,16.3256 20.12251,18.63728 15.72539,29.53619 -2.62403,6.50341 -11.14972,43.29706 -18.94637,81.76366 -22.35318,110.28496 -36.26848,146.68952 -65.34959,170.96479 -15.57697,13.00293 -35.3892,17.82476 -40.55963,9.87132 -1.33578,-2.05491 1.60578,-7.20733 6.5367,-11.44981 19.00154,-16.34879 6.0029,-45.18988 -20.36709,-45.18988 -28.24139,0 -45.18245,27.34045 -31.98059,51.6118 14.57286,26.79213 55.38361,32.22958 100.25761,13.35787 z"
       id="path3905"
       inkscape:connector-curvature="0" />
  </g>
</svg>
