<?xml version="1.0" encoding="UTF-8" standalone="no"?>
<!-- Created with Inkscape (http://www.inkscape.org/) -->

<svg
   xmlns:dc="http://purl.org/dc/elements/1.1/"
   xmlns:cc="http://creativecommons.org/ns#"
   xmlns:rdf="http://www.w3.org/1999/02/22-rdf-syntax-ns#"
   xmlns:svg="http://www.w3.org/2000/svg"
   xmlns="http://www.w3.org/2000/svg"
   xmlns:sodipodi="http://sodipodi.sourceforge.net/DTD/sodipodi-0.dtd"
   xmlns:inkscape="http://www.inkscape.org/namespaces/inkscape"
   width="210mm"
   height="297mm"
   viewBox="0 0 744.09448819 1052.3622047"
   id="svg5574"
   version="1.1"
   inkscape:version="0.91 r13725"
   sodipodi:docname="sqlfile.svg">
  <defs
     id="defs5576" />
  <sodipodi:namedview
     id="base"
     pagecolor="#ffffff"
     bordercolor="#666666"
     borderopacity="1.0"
     inkscape:pageopacity="0.0"
     inkscape:pageshadow="2"
     inkscape:zoom="0.35"
     inkscape:cx="375"
     inkscape:cy="520"
     inkscape:document-units="px"
     inkscape:current-layer="layer1"
     showgrid="false"
     inkscape:window-width="1600"
     inkscape:window-height="847"
     inkscape:window-x="-8"
     inkscape:window-y="-8"
     inkscape:window-maximized="1" />
  <metadata
     id="metadata5579">
    <rdf:RDF>
      <cc:Work
         rdf:about="">
        <dc:format>image/svg+xml</dc:format>
        <dc:type
           rdf:resource="http://purl.org/dc/dcmitype/StillImage" />
        <dc:title></dc:title>
      </cc:Work>
    </rdf:RDF>
  </metadata>
  <g
     inkscape:label="Camada 1"
     inkscape:groupmode="layer"
     id="layer1">
    <g
       id="g5593"
       transform="matrix(3.9893703,0,0,3.6987952,-1191.6061,158.44422)">
      <path
         style="fill-opacity:1"
         d="m 322.57928,190.66434 -3.29357,-2.59073 0,-98.568548 0,-98.56855 3.29357,-2.590725 c 3.20826,-2.523617 4.59834,-2.590725 53.66459,-2.590725 l 50.37101,0 5.56272,5.9375 c 3.0595,3.265625 12.66043,14.0788662 21.33541,24.029425 l 15.7727,18.091925 0,77.129848 0,77.12985 -3.29358,2.59073 c -3.2409,2.54928 -4.38772,2.59072 -71.70642,2.59072 -67.3187,0 -68.46553,-0.0415 -71.70643,-2.59072 z m 94.00578,-8.09309 c 1.97487,-4.33438 2.1441,-4.10558 -4.22224,-5.70864 l -5.67287,-1.42845 4.32461,-4.32461 c 10.11511,-10.11511 8.60635,-30.93019 -2.8042,-38.68704 -15.50773,-10.54209 -36.41071,1.77645 -36.41071,21.45755 0,12.57224 7.3728,21.61341 20.18672,24.75474 4.35839,1.06845 11.01809,3.08924 14.79934,4.49064 8.6157,3.19315 8.0781,3.22355 9.79935,-0.55419 z M 389.5567,168.80419 c -6.37711,-4.46672 -8.58244,-16.68378 -4.4539,-24.6737 2.66291,-5.15349 5.20789,-7.03632 9.57758,-7.08568 7.75425,-0.0876 12.10533,5.73895 12.10533,16.21025 0,9.7794 -5.23898,17.5 -11.875,17.5 -1.4128,0 -3.82211,-0.8779 -5.35401,-1.95087 z m -33.56572,7.72735 c 5.75165,-2.40319 9.55069,-7.64554 9.51694,-13.13255 -0.0376,-6.10588 -2.84866,-9.29787 -12.47221,-14.16213 -6.70646,-3.3898 -8.125,-4.64714 -8.125,-7.2017 0,-4.17767 5.11609,-6.01606 11.78702,-4.23549 4.78086,1.27609 4.86914,1.2371 5.6123,-2.47872 0.8905,-4.45246 -0.25391,-5.41851 -7.76426,-6.55421 -6.63433,-1.00322 -15.75164,2.16878 -18.56198,6.4579 -2.48094,3.7864 -2.50309,10.99063 -0.0453,14.74168 1.04652,1.59719 5.1809,4.43529 9.1875,6.30689 8.21136,3.83575 10.42384,6.03291 9.52729,9.46131 -1.19008,4.55088 -9.62787,5.43544 -18.18006,1.90587 -1.66042,-0.68528 -2.1875,-0.29284 -2.1875,1.6287 0,1.39232 -0.31865,3.36191 -0.70813,4.37686 -1.55749,4.05876 14.62068,6.1416 22.41341,2.88559 z m 99.54473,-2.65148 0,-4.375 -9.375,0 -9.375,0 0,-20 0,-20 -5,0 -5,0 0,24.375 0,24.375 14.375,0 14.375,0 0,-4.375 z m 5,-91.784942 0,-41.159943 -18.79799,-0.402557 c -15.03587,-0.321991 -19.03472,-0.777807 -19.98086,-2.277556 -0.65057,-1.03125 -1.19149,-11.296875 -1.20201,-22.8125 l -0.0191,-20.9375 -46.25,0 -46.25,0 0,64.375 0,64.374998 66.25,0 66.25,0 0,-41.159942 z m -82.5,21.954222 c -8.62678,-1.87744 -14.52527,-5.33509 -16.15505,-9.469991 -0.73221,-1.857675 -1.11514,-12.57609 -0.91316,-25.559837 0.40668,-26.142564 0.088,-25.51076 14.52297,-28.793923 10.90274,-2.479775 16.68774,-2.479775 27.59048,0 14.43496,3.283163 14.11628,2.651359 14.52297,28.793923 0.20547,13.207792 -0.17667,23.690275 -0.93357,25.609125 -1.67643,4.249925 -8.6956,8.074003 -17.92672,9.766513 -8.95562,1.642 -11.79159,1.59465 -20.70792,-0.34581 z m 27.1819,-5.216953 c 6.4966,-2.71445 9.0681,-5.4144 9.0681,-9.521062 0,-3.632283 -1.07104,-4.445344 -3.1875,-2.419749 -2.2715,2.173961 -14.81055,5.113486 -21.8125,5.113486 -7.00195,0 -19.54101,-2.939525 -21.8125,-5.113486 -2.11647,-2.025595 -3.1875,-1.212534 -3.1875,2.419749 0,4.038374 2.50984,6.74165 8.78719,9.464399 5.97426,2.591276 25.99405,2.626576 32.14471,0.05662 z m 0,-14.999997 c 6.4966,-2.714453 9.0681,-5.414404 9.0681,-9.521063 0,-3.632285 -1.07104,-4.445346 -3.1875,-2.419751 -2.2715,2.173966 -14.81055,5.113486 -21.8125,5.113486 -7.00195,0 -19.54101,-2.93952 -21.8125,-5.113486 -2.11647,-2.025595 -3.1875,-1.212534 -3.1875,2.419751 0,4.038375 2.50984,6.741644 8.78719,9.464391 5.97426,2.591288 25.99405,2.626581 32.14471,0.05667 z M 404.379,68.847149 c 7.03443,-2.481893 9.90671,-5.190391 9.90671,-9.341814 l 0,-3.362259 -7.09506,2.395279 c -4.82457,1.628761 -10.55435,2.395278 -17.90494,2.395278 -7.35058,0 -13.08038,-0.766517 -17.90494,-2.395278 l -7.09506,-2.395279 0,3.362259 c 0,6.845405 9.19363,11.028635 24.53034,11.16165 6.13021,0.05316 12.29868,-0.668137 15.56295,-1.819835 z"
         id="path5609"
         inkscape:connector-curvature="0" />
      <path
         style="fill-opacity:1"
         d="m 322.57928,190.66434 -3.29357,-2.59073 0,-98.568548 0,-98.56855 3.29357,-2.590725 c 3.20814,-2.523522 4.59891,-2.590725 53.61536,-2.590725 l 50.32178,0 6.69715,7.2611788 c 3.68343,3.9936487 13.30651,14.9060662 21.38464,24.2498162 l 14.6875,16.988637 0,76.909456 0,76.90946 -3.29358,2.59073 c -3.2409,2.54928 -4.38772,2.59072 -71.70642,2.59072 -67.3187,0 -68.46553,-0.0415 -71.70643,-2.59072 z m 94.2463,-8.13918 c 1.62413,-4.27174 0.90209,-5.14121 -5.1134,-6.15752 l -5.06041,-0.85495 4.18834,-4.06767 c 6.89065,-6.69211 9.23494,-19.63942 5.27292,-29.12186 -2.58992,-6.19857 -5.25505,-8.98619 -11.20232,-11.71719 -15.86696,-7.28613 -33.07009,4.8211 -33.07009,23.27409 0,12.91125 6.9027,21.40739 20.13685,24.78531 4.36328,1.11369 10.74574,3.13817 14.18324,4.49883 8.2071,3.2486 9.20964,3.18854 10.66487,-0.63904 z m -26.28987,-13.36841 c -9.0363,-4.51515 -9.91176,-24.0313 -1.37041,-30.54944 2.49673,-1.90531 8.23506,-2.03024 11.55841,-0.25164 5.54915,2.96982 8.0018,17.52239 4.19414,24.88559 -2.08367,4.02935 -6.44125,7.52343 -9.34778,7.49538 -1.05015,-0.01 -3.31561,-0.72109 -5.03436,-1.57989 z m -32.69653,6.69857 c 5.11882,-2.61142 7.69653,-6.86591 7.69653,-12.70306 0,-5.82905 -3.52259,-9.83852 -12.42244,-14.13945 -6.78391,-3.27837 -8.20256,-4.4922 -8.20256,-7.01825 0,-4.15015 5.1484,-5.96684 11.84459,-4.17952 4.78966,1.27843 4.93458,1.22193 5.69024,-2.21857 1.09317,-4.97717 0.18462,-5.80601 -7.40375,-6.75412 -11.44429,-1.42986 -22.01952,5.31772 -22.00141,14.03814 0.0106,5.0854 4.87246,10.29397 13.08451,14.0175 6.70101,3.03837 8.16082,4.22858 8.16082,6.65367 0,1.62438 -0.675,3.6284 -1.5,4.4534 -1.86772,1.86771 -11.54721,1.96408 -14.93924,0.14873 -3.00732,-1.60948 -3.04257,-1.58084 -4.09199,3.32445 -0.68755,3.21381 -0.35102,4.07561 2.04149,5.2279 4.77596,2.30021 16.77446,1.8371 22.04321,-0.85082 z m 98.71323,-2.28776 0.3917,-4.0625 -10.0792,0 -10.0792,0 0,-20 0,-20 -5,0 -5,0 0,24.41468 0,24.41466 14.6875,-0.35216 14.6875,-0.35218 0.3917,-4.0625 z m 3.9833,-92.187498 0,-41.875 -18.5,0 c -12.72223,0 -18.96846,-0.468469 -20,-1.5 -1.04763,-1.047619 -1.5,-7.833334 -1.5,-22.5 l 0,-21 -46.25,0 -46.25,0 0,64.375 0,64.374998 66.25,0 66.25,0 0,-41.874998 z m -79.375,23.117028 c -7.94927,-1.16772 -14.31395,-3.87757 -17.5,-7.45084 -2.29923,-2.578675 -2.49528,-4.524951 -2.44124,-24.235018 0.0323,-11.787144 0.44809,-22.91106 0.92395,-24.719816 2.77183,-10.535808 42.75063,-12.799449 52.57331,-2.976755 1.78203,1.782022 2.06898,5.406983 2.06898,26.136795 0,23.432118 -0.0752,24.138493 -2.84809,26.743468 -5.70601,5.360516 -20.52987,8.301216 -32.77691,6.502166 z m 23.40312,-5.267315 c 6.28662,-1.823701 9.72188,-5.277163 9.72188,-9.773413 0,-2.035713 -0.20975,-3.7013 -0.4661,-3.7013 -0.25636,0 -3.05408,1.144784 -6.21716,2.543963 -10.78129,4.769074 -28.88343,4.443874 -38.79228,-0.6969 -1.95813,-1.015883 -3.77718,-1.847063 -4.04234,-1.847063 -1.45706,0 -0.1665,7.63705 1.58685,9.3904 6.12792,6.127908 24.42305,8.083548 38.20915,4.084313 z M 404.4103,84.320053 c 6.45626,-1.934343 9.87541,-5.349434 9.87541,-9.863685 0,-2.035719 -0.20975,-3.701306 -0.4661,-3.701306 -0.25636,0 -3.05408,1.144784 -6.21716,2.543965 -10.78129,4.769076 -28.88343,4.443874 -38.79228,-0.696897 -1.95813,-1.015888 -3.77718,-1.847068 -4.04234,-1.847068 -1.45706,0 -0.1665,7.63705 1.58685,9.390401 6.1814,6.181393 24.61009,8.202962 38.05562,4.17459 z m -1.22528,-14.933435 c 6.58903,-1.660297 11.10069,-5.635276 11.10069,-9.780199 l 0,-3.467191 -6.5625,2.26711 c -4.5442,1.569858 -10.21466,2.267109 -18.4375,2.267109 -8.22283,0 -13.8933,-0.697251 -18.4375,-2.267109 l -6.5625,-2.26711 0,3.467191 c 0,9.501919 20.02394,14.536407 38.89931,9.780199 z"
         id="path5607"
         inkscape:connector-curvature="0" />
      <path
         style="fill-opacity:1"
         d="m 325.53571,192.38434 c -1.03125,-0.38803 -2.85938,-1.56303 -4.0625,-2.61113 -2.04866,-1.78466 -2.1875,-8.14884 -2.1875,-100.268148 l 0,-98.3625313 2.63039,-2.3812337 c 2.49683,-2.260317 5.23798,-2.381235 53.98168,-2.381235 l 51.35128,0 20.98159,23.75 20.98158,23.75 0.0368,76.993758 c 0.0366,76.7019 0.0267,77.0028 -2.59373,79.375 -2.5124,2.27435 -5.69648,2.39155 -70.9375,2.61112 -37.56888,0.12643 -69.15079,-0.0876 -70.18204,-0.4756 z m 91.28987,-9.85918 c 1.58373,-4.1655 0.93482,-5.05902 -4.40106,-6.06004 -4.94781,-0.92821 -5.45584,-1.94232 -2.04128,-4.07475 6.93806,-4.33288 9.79663,-21.16842 5.28206,-31.10856 -7.50354,-16.52116 -33.03222,-17.11617 -40.79276,-0.9508 -2.88673,6.01314 -3.82733,17.51776 -1.90776,23.33413 1.73991,5.27198 9.86424,12.98981 14.72692,13.99003 1.90795,0.39245 8.25026,2.32497 14.09401,4.29447 13.30222,4.48321 13.55057,4.49271 15.03987,0.57552 z m -24.92718,-12.9615 c -9.8379,-2.4269 -11.88147,-23.03607 -2.97863,-30.03905 8.99139,-7.07262 18.75561,1.73519 17.58413,15.86175 -0.87662,10.57088 -6.62112,16.14695 -14.6055,14.1773 z m -35.77118,7.45414 c 5.71109,-2.17136 9.40849,-7.29673 9.40849,-13.04214 0,-7.06757 -2.47985,-10.04954 -12.5925,-15.14219 -6.39004,-3.21796 -8.6575,-5.01751 -8.6575,-6.87092 0,-3.86346 5.14698,-5.63109 11.89822,-4.08619 l 5.61914,1.28585 1.03755,-3.89107 c 1.25371,-4.70177 0.11182,-5.61058 -8.23511,-6.55419 -8.21592,-0.9288 -15.16274,1.63676 -18.7116,6.91046 -5.64816,8.3933 -2.5408,15.4053 9.38125,21.16955 7.98646,3.86143 10.2969,6.63185 8.25256,9.8956 -1.66524,2.65853 -9.2014,3.50698 -14.55941,1.63916 -4.52195,-1.57636 -4.43408,-1.63178 -5.44757,3.43568 -0.67395,3.36975 -0.35215,4.13071 2.17448,5.14211 3.96172,1.58588 16.37264,1.65165 20.432,0.10825 z m 100.65849,-3.08516 0,-4.32242 -9.6875,-0.36508 -9.6875,-0.36508 -0.34424,-19.6875 -0.34425,-19.6875 -5.59325,0 -5.59326,0 0,24.375 0,24.375 15.625,0 15.625,0 0,-4.32242 z m 3.75,-92.520021 0,-41.842442 -19.0625,-0.345057 -19.0625,-0.345058 -0.625,-21.875 -0.625,-21.875 -46.5625,-0.3277137 -46.5625,-0.3277138 0,64.3902135 0,64.390212 66.25,0 66.25,0 0,-41.84244 z m -87.32103,21.226271 c -2.99531,-0.9344 -6.79219,-2.963578 -8.4375,-4.509266 -2.9544,-2.775524 -2.99147,-3.108587 -2.99147,-26.876729 l 0,-24.066383 3.28818,-2.586486 c 4.81084,-3.784203 12.20901,-5.43647 24.21182,-5.407337 12.10616,0.02939 19.4639,1.672624 24.21181,5.407337 l 3.28819,2.586486 0,24.066383 c 0,23.73178 -0.0414,24.105242 -2.97534,26.861567 -1.63644,1.53735 -5.66333,3.604148 -8.94866,4.592888 -7.41935,2.2329 -24.38754,2.1962 -31.64703,-0.0685 z m 31.46469,-3.170878 c 6.28576,-1.812812 9.60634,-5.302888 9.60634,-10.096687 0,-3.218645 -0.37461,-3.724968 -2.1875,-2.956628 -9.16556,3.884553 -13.19965,4.719053 -22.8125,4.719053 -9.61284,0 -13.64694,-0.8345 -22.8125,-4.719053 -1.81289,-0.76834 -2.1875,-0.262017 -2.1875,2.956628 0,4.842175 3.41078,8.3775 9.62157,9.972925 2.61438,0.67159 5.87843,1.51494 7.25343,1.87411 3.57823,0.93469 17.90584,-0.13162 23.51866,-1.750348 z m 0,-15.000006 c 6.28576,-1.812801 9.60634,-5.302879 9.60634,-10.09668 0,-3.218646 -0.37461,-3.724969 -2.1875,-2.956629 -9.16556,3.884551 -13.19965,4.719054 -22.8125,4.719054 -9.61284,0 -13.64694,-0.834503 -22.8125,-4.719054 -1.81289,-0.76834 -2.1875,-0.262017 -2.1875,2.956629 0,4.842168 3.41078,8.377504 9.62157,9.972926 2.61438,0.671584 5.87843,1.51493 7.25343,1.874105 3.57823,0.934693 17.90584,-0.131619 23.51866,-1.750351 z m -0.11554,-15.238229 c 6.24908,-1.812806 9.72188,-5.281235 9.72188,-9.709626 l 0,-3.637523 -4.6875,2.100154 c -3.58203,1.604863 -8.37243,2.100154 -20.3125,2.100154 -11.94007,0 -16.73048,-0.495291 -20.3125,-2.100154 l -4.6875,-2.100154 0,3.596931 c 0,1.978313 0.93104,4.527969 2.06897,5.665904 6.12792,6.127917 24.42305,8.083549 38.20915,4.084314 z"
         id="path5605"
         inkscape:connector-curvature="0" />
      <path
         style="fill-opacity:1"
         d="m 324.67993,192.01257 c -1.50194,-0.61407 -3.33006,-2.23625 -4.0625,-3.60482 -0.90941,-1.69925 -1.33172,-33.1911 -1.33172,-99.307026 0,-93.4502532 0.0831,-96.9213707 2.38857,-99.769682 l 2.38857,-2.95098 49.17393,-0.362249 c 27.04567,-0.199236 50.35262,-0.06971 51.79325,0.28783 2.37887,0.590403 12.38405,11.3626365 35.81818,38.5642 l 8.4375,9.793973 0,76.032144 c 0,72.99179 -0.0955,76.15014 -2.38899,78.98313 l -2.389,2.95097 -68.5485,0.2495 c -38.02441,0.1384 -69.76451,-0.24766 -71.2793,-0.86699 z m 92.63352,-9.44 c 1.06197,-4.23127 0.20782,-5.31623 -4.94659,-6.28321 -4.99362,-0.93681 -5.36015,-1.79031 -1.73974,-4.0513 6.35696,-3.96999 9.59946,-21.3198 5.71979,-30.60517 -5.34265,-12.78677 -22.35654,-17.22787 -34.70181,-9.05815 -9.58264,6.3415 -12.99481,23.10793 -7.0071,34.43087 3.28344,6.20909 7.89926,8.89873 25.27271,14.72643 14.35755,4.81606 16.38042,4.91376 17.40274,0.84053 z m -28.3731,-14.63001 c -2.75299,-2.07486 -5.90464,-9.91442 -5.90464,-14.6875 0,-13.24194 11.97091,-21.0713 19.15799,-12.52994 8.64186,10.27027 4.14804,28.77994 -6.98727,28.77994 -2.30608,0 -5.12583,-0.70312 -6.26608,-1.5625 z m -31.65286,8.56954 c 5.56993,-2.32726 8.24822,-6.4646 8.24822,-12.7416 0,-6.96395 -3.17848,-10.6774 -13.12191,-15.3305 -6.16876,-2.88671 -8.12809,-4.42853 -8.12809,-6.39606 0,-3.93579 4.94816,-5.67342 11.45367,-4.02214 2.93736,0.74557 5.51679,1.17947 5.73206,0.9642 1.33572,-1.33571 2.45891,-8.30301 1.44004,-8.93271 -2.64446,-1.63437 -14.76143,-2.02984 -19.02997,-0.6211 -6.05073,1.99692 -10.8458,7.85505 -10.8458,13.25028 0,5.41474 5.47362,11.85229 12.05419,14.17699 8.3045,2.93373 11.41004,7.43138 7.69581,11.1456 -1.8382,1.8382 -9.63747,1.95616 -14.21699,0.21503 -4.01225,-1.52545 -4.03689,-1.50814 -5.04798,3.54731 -0.67395,3.36975 -0.35215,4.13071 2.17448,5.14211 4.48746,1.79633 16.88818,1.56809 21.59227,-0.39741 z m 99.26118,-2.94454 -0.38796,-4.6875 -9.6875,-0.36507 -9.6875,-0.36509 0,-19.32241 0,-19.32243 -5.625,0 -5.625,0 0,24.375 0,24.375 15.70046,0 15.70045,0 -0.38795,-4.6875 z m 4.26702,-92.15453 -0.34503,-41.843203 -19.02997,-0.344883 -19.02998,-0.344882 -0.34134,-22.1875 -0.34135,-22.1875 -46.82396,0 -46.82395,0 -0.3347,64.37528 -0.3347,64.375278 66.875,3e-4 66.875,3.2e-4 -0.34502,-41.843211 z m -87.77998,21.03336 c -11.28274,-3.889953 -11.25,-3.799165 -11.25,-31.193495 l 0,-24.066383 3.3281,-2.617885 c 4.86015,-3.82299 8.21249,-4.438565 24.1719,-4.438565 15.95941,0 19.31175,0.615575 24.1719,4.438565 l 3.3281,2.617885 0,24.066383 c 0,23.73178 -0.0414,24.105242 -2.97534,26.861567 -1.63644,1.53735 -5.66333,3.604148 -8.94866,4.592888 -7.80529,2.34905 -24.65647,2.21087 -31.826,-0.26096 z m 34.72237,-4.388015 c 5.47085,-2.714113 5.9303,-3.307825 6.28093,-8.116538 l 0.3783,-5.188235 -5.3783,2.688235 c -4.56826,2.283338 -7.54336,2.688225 -19.7533,2.688225 -12.15553,0 -15.19524,-0.410037 -19.6875,-2.655675 l -5.3125,-2.655674 0,4.814362 c 0,3.804687 0.68123,5.260712 3.24828,6.942712 9.30579,6.097383 29.42706,6.839023 40.22409,1.482588 z m 0,-15.000002 c 5.47085,-2.714108 5.9303,-3.307823 6.28093,-8.116541 l 0.3783,-5.18823 -5.08074,2.513751 c -10.10874,5.001405 -29.96036,5.017548 -40.03592,0.03255 l -5.01494,-2.48119 0,4.814358 c 0,3.804685 0.68123,5.26072 3.24828,6.942712 9.30579,6.097392 29.42706,6.839029 40.22409,1.48259 z m -1.9923,-14.237602 c 6.3418,-2.211795 8.51993,-4.688625 8.51993,-9.688357 0,-2.984209 -0.39648,-3.480072 -2.1875,-2.735834 -7.20183,2.992634 -14.35074,4.358482 -22.8125,4.358482 -8.46176,0 -15.61067,-1.365848 -22.8125,-4.358482 -1.76443,-0.733189 -2.1875,-0.262847 -2.1875,2.431923 0,1.837501 0.55714,4.381948 1.2381,5.654325 1.14502,2.139487 8.82778,5.3182 16.2619,6.728303 5.02919,0.953935 18.13764,-0.352729 23.98007,-2.39036 z"
         id="path5603"
         inkscape:connector-curvature="0" />
      <path
         style="fill-opacity:1"
         d="m 324.67993,192.01257 c -1.50194,-0.61407 -3.33006,-2.23625 -4.0625,-3.60482 -0.90941,-1.69925 -1.33172,-33.1911 -1.33172,-99.307026 0,-93.4502532 0.0831,-96.9213707 2.38857,-99.769682 l 2.38857,-2.95098 49.17393,-0.362249 c 27.04567,-0.199236 50.34485,-0.07166 51.77598,0.283497 1.43113,0.355158 11.978,11.384962 23.4375,24.510676 l 20.83545,23.864931 0,76.025593 c 0,72.98535 -0.0955,76.1436 -2.38899,78.97658 l -2.389,2.95097 -68.5485,0.2495 c -38.02441,0.1384 -69.76451,-0.24766 -71.2793,-0.86699 z m 92.56792,-9.07001 c 1.33575,-4.9843 0.87436,-5.70314 -4.21214,-6.5625 -5.59948,-0.94602 -6.13849,-1.81264 -2.52935,-4.06657 6.36991,-3.97809 9.78092,-20.43639 6.19982,-29.91455 -6.29531,-16.66193 -30.80151,-19.0922 -40.76109,-4.04225 -2.85858,4.3196 -3.59127,6.98693 -3.96788,14.44508 -0.40618,8.04335 -0.0747,9.808 2.74706,14.62293 4.0476,6.9067 6.75967,8.65794 18.34921,11.84845 5.13548,1.41375 11.30598,3.42852 13.71223,4.47726 6.35465,2.7696 9.56996,2.52133 10.46214,-0.80785 z m -28.17332,-14.73092 c -3.60678,-2.10475 -6.45025,-11.60585 -5.45655,-18.23235 1.02586,-6.84093 6.23912,-12.97423 11.028,-12.97423 4.63851,0 9.40956,4.50304 10.99009,10.37273 1.8542,6.88597 -0.366,17.54603 -4.21599,20.24267 -3.03385,2.12499 -9.21033,2.42075 -12.34555,0.59118 z m -28.77417,6.6753 c 6.40551,-4.74843 7.28687,-14.66189 1.83876,-20.68199 -1.22228,-1.35059 -5.73931,-4.0503 -10.03786,-5.99936 -7.72881,-3.5044 -8.89979,-5.04998 -6.59187,-8.70053 1.10114,-1.74174 6.04705,-2.07042 14.28167,-0.94912 1.70539,0.23221 2.67088,-0.7307 3.40496,-3.39592 1.35047,-4.90317 0.0693,-5.95158 -8.10124,-6.62915 -8.55269,-0.70925 -14.84221,1.33925 -18.89316,6.15354 -6.7157,7.98115 -2.81241,16.55828 10.58409,23.2576 7.77235,3.8868 9.63252,7.8338 4.88854,10.3727 -2.63922,1.41246 -10.60129,1.02739 -15.19353,-0.73481 -1.56526,-0.60065 -2.34374,0.21939 -3.20728,3.3785 -0.62718,2.29441 -0.73285,4.62917 -0.23484,5.18835 1.47136,1.65206 12.69315,2.87865 18.51176,2.02341 2.96431,-0.4357 6.90181,-1.91315 8.75,-3.28322 z m 96.24831,-1.31938 -0.38796,-4.6875 -9.6875,-0.36507 -9.6875,-0.36509 0,-19.32241 0,-19.32243 -5.625,0 -5.625,0 0,24.375 0,24.375 15.70046,0 15.70045,0 -0.38795,-4.6875 z m 4.94139,-91.874998 -0.32935,-41.5625 -19.375,-0.625 -19.375,-0.625 -0.34134,-22.1875 -0.34135,-22.1875 -47.47115,0 -47.47116,0 0,64.375 0,64.374998 67.51685,0 67.51685,0 -0.32935,-41.562498 z M 372.5844,102.01471 c -11.10059,-4.335911 -10.79869,-3.499298 -10.79869,-29.925249 0,-18.919844 0.35979,-23.791803 1.92167,-26.0217 6.02317,-8.599289 45.0252,-8.753888 51.01502,-0.202217 1.36947,1.955187 1.82061,7.94995 1.95595,25.990683 0.20066,26.748573 0.53704,25.82591 -11.01578,30.215633 -8.61293,3.27265 -24.62418,3.24499 -33.07817,-0.0571 z m 34.92584,-3.836885 c 5.74021,-2.844463 6.17571,-3.393838 6.52877,-8.235988 l 0.3783,-5.188235 -5.3783,2.688235 c -4.56826,2.283338 -7.54336,2.688225 -19.7533,2.688225 -12.15553,0 -15.19524,-0.410037 -19.6875,-2.655675 l -5.3125,-2.655674 0,4.814362 c 0,3.74225 0.68855,5.265512 3.09198,6.8403 9.65653,6.327195 29.13432,7.154435 40.13255,1.70445 z m 0,-15.000003 c 5.74021,-2.844464 6.17571,-3.393832 6.52877,-8.23599 l 0.3783,-5.18823 -5.3783,2.68823 c -4.56826,2.283349 -7.54336,2.68823 -19.7533,2.68823 -12.15553,0 -15.19524,-0.410031 -19.6875,-2.655675 l -5.3125,-2.655674 0,4.814358 c 0,3.742251 0.68855,5.265515 3.09198,6.840301 9.65653,6.327202 29.13432,7.15444 40.13255,1.70445 z m -7.43858,-12.83075 c 10.76897,-2.257394 14.21405,-4.773101 14.21405,-10.379563 0,-3.789247 -0.33725,-4.335851 -2.1875,-3.545442 -5.91606,2.52728 -15.42285,4.332995 -22.8125,4.332995 -7.38965,0 -16.89644,-1.805715 -22.8125,-4.332995 -1.85025,-0.790409 -2.1875,-0.243805 -2.1875,3.545442 0,5.512073 3.45925,8.133509 13.61827,10.319999 9.19841,1.979742 12.9592,1.989847 22.16768,0.05956 z"
         id="path5601"
         inkscape:connector-curvature="0" />
      <path
         style="fill-opacity:1"
         d="m 322.33712,190.23082 c -2.3665,-1.73042 -2.42641,-4.21725 -2.42641,-100.725758 0,-96.5085162 0.0599,-98.9953325 2.42641,-100.725764 2.0024,-1.464187 11.40544,-1.774236 53.8083,-1.774236 l 51.38188,0 20.90695,23.93758 20.90695,23.93758 -0.34024,76.788618 c -0.3295,74.36218 -0.41693,76.84467 -2.76666,78.56242 -3.61723,2.64434 -140.28081,2.64393 -143.89718,-4.4e-4 z m 95.69859,-10.2298 c 0,-2.27557 -0.92316,-2.93218 -5.1192,-3.6411 l -5.1192,-0.86488 3.79254,-3.93249 c 5.04269,-5.22878 6.60211,-9.7848 6.60211,-19.28871 0,-15.73524 -9.97236,-25.06275 -25.30868,-23.6721 -13.39908,1.21498 -21.41007,10.67336 -21.41007,25.27832 0,13.16585 6.03131,21.53873 17.51449,24.31419 3.25766,0.78736 10.42301,3.04676 15.92301,5.02087 9.08054,3.25929 10.14366,3.40417 11.5625,1.57572 0.85937,-1.10748 1.5625,-3.2629 1.5625,-4.78982 z m -29.2939,-12.46843 c -3.54729,-3.54729 -4.81324,-7.17565 -4.81324,-13.79528 0,-15.14499 12.6035,-22.16235 19.87436,-11.06562 4.36946,6.66862 1.7638,23.86498 -3.94822,26.0569 -3.65039,1.40078 -9.10294,0.81396 -11.1129,-1.196 z m -30.81852,9.00607 c 7.59742,-3.55235 10.41932,-13.83205 5.61738,-20.46315 -1.37228,-1.895 -5.44878,-4.8983 -9.05891,-6.674 -8.19404,-4.03037 -10.53749,-6.3022 -9.443,-9.1544 0.71202,-1.8555 2.13046,-2.13616 9.01834,-1.78442 8.14186,0.41576 8.17726,0.40301 9.16847,-3.30267 0.6016,-2.2491 0.48768,-4.22615 -0.28811,-5 -0.70574,-0.70397 -5.79704,-1.27996 -11.314,-1.27996 -9.98723,0 -10.04942,0.0203 -14.30929,4.66914 -3.30717,3.60917 -4.27215,5.73746 -4.25066,9.375 0.0374,6.32919 2.81688,9.53356 12.4722,14.37867 5.89874,2.96004 8.23401,4.8445 8.52285,6.8776 0.62318,4.38642 -4.44578,6.11799 -12.48045,4.26337 -3.52918,-0.81463 -6.63108,-1.26677 -6.89312,-1.00473 -1.42945,1.42945 -2.57679,8.36773 -1.49434,9.03671 4.43024,2.73804 18.93238,2.77489 24.73264,0.0629 z m 98.86242,-3.2836 0,-5 -10,0 -10,0 0,-20.07187 0,-20.07188 -5.3125,0.38438 -5.3125,0.38437 -0.33893,24.6875 -0.33892,24.6875 15.65142,0 15.65143,0 0,-5 z m 4.70409,-91.530673 0.32909,-42.155674 -19.70409,-0.344326 -19.70409,-0.344325 -0.34134,-22.1875 -0.34135,-22.1875 -47.47115,0 -47.47116,0 0,64.166666 c 0,35.291671 0.37988,64.546542 0.84418,65.010842 0.46429,0.4643 30.69867,0.69868 67.18749,0.52084 l 66.34333,-0.32335 0.32909,-42.155673 z m -88.42807,20.334963 c -10.90975,-3.765763 -11.08371,-4.217463 -11.08371,-28.779339 0,-11.652069 0.41402,-22.752564 0.92004,-24.667765 1.66901,-6.316903 8.32755,-8.448846 26.38765,-8.448846 18.0601,0 24.71864,2.131943 26.38765,8.448846 0.50602,1.915201 0.92004,13.093414 0.92004,24.840472 0,20.629156 -0.0982,21.456582 -2.87914,24.237431 -6.6167,6.616701 -27.60595,8.872551 -40.65253,4.369201 z m 30.50823,-1.94976 c 8.33131,-2.527328 10.71575,-4.925653 10.71575,-10.778203 l 0,-4.786199 -5.3125,2.792436 c -4.60408,2.420063 -7.22941,2.792438 -19.6875,2.792438 -12.55222,0 -15.04864,-0.35985 -19.6875,-2.8379 l -5.3125,-2.83791 0,4.831672 c 0,3.114838 0.82228,5.575826 2.31416,6.92595 5.93067,5.367186 25.36991,7.416636 36.97009,3.897716 z m 0,-15.000007 c 8.35149,-2.533435 10.71575,-4.921507 10.71575,-10.82366 l 0,-4.831671 -5.3125,2.837905 c -4.63886,2.478053 -7.13527,2.837905 -19.6875,2.837905 -12.55222,0 -15.04864,-0.359852 -19.6875,-2.837905 l -5.3125,-2.837905 0,4.831671 c 0,3.114844 0.82228,5.575828 2.31416,6.925955 5.93067,5.367181 25.36991,7.416634 36.97009,3.897705 z m -2.76986,-14.82376 c 10.33992,-2.433404 13.48561,-4.840276 13.48561,-10.318314 0,-3.789247 -0.33725,-4.335851 -2.1875,-3.545442 -5.91606,2.52728 -15.42285,4.332995 -22.8125,4.332995 -7.38965,0 -16.89644,-1.805715 -22.8125,-4.332995 -1.85025,-0.790409 -2.1875,-0.243805 -2.1875,3.545442 0,5.238399 3.08062,7.816523 12.31078,10.302723 7.67414,2.067077 15.46518,2.072095 24.20361,0.01559 z"
         id="path5599"
         inkscape:connector-curvature="0" />
      <path
         style="fill-opacity:1"
         d="m 322.33712,190.23082 c -2.3665,-1.73042 -2.42641,-4.21725 -2.42641,-100.725758 0,-96.5085162 0.0599,-98.9953325 2.42641,-100.725764 2.00364,-1.465096 11.36897,-1.769965 53.75,-1.749725 l 51.32359,0.02451 19.375,22.0352583 c 10.65625,12.1193917 20.09495,23.3561897 20.9749,24.9706637 1.26119,2.313978 1.52581,18.96776 1.25,78.666545 -0.33871,73.30945 -0.42749,75.78785 -2.77631,77.50482 -3.61732,2.64423 -140.28094,2.64372 -143.89718,-5.5e-4 z m 95.02221,-7.27587 c 2.09222,-4.9759 1.81888,-5.45733 -3.68481,-6.48983 -5.07458,-0.952 -5.39854,-1.90881 -1.76084,-5.20087 4.5357,-4.10475 6.36053,-9.19906 6.41505,-17.90861 0.111,-17.73269 -10.82515,-27.17913 -28.41208,-24.5418 -10.9305,1.63912 -18.61578,11.9522 -18.67929,25.06622 -0.0626,12.9317 7.75414,23.04963 19.31657,25.00308 2.72799,0.4609 9.04302,2.44398 14.03339,4.40686 4.99036,1.96289 9.52241,3.60177 10.07123,3.64197 0.54881,0.0402 1.76417,-1.74946 2.70078,-3.97702 z m -29.41977,-17.10374 c -3.62373,-3.62372 -4.29619,-6.5111 -3.65996,-15.71505 0.28124,-4.06839 2.93737,-9.97755 5.08011,-11.30184 2.5813,-1.59532 10.09849,-0.81063 12.42771,1.29729 1.29239,1.1696 2.87358,4.58233 3.51373,7.58384 3.46896,16.26486 -7.63421,27.86315 -17.36159,18.13576 z m -29.95051,10.71561 c 1.69308,-0.79021 4.4057,-3.40551 6.02802,-5.81176 5.27103,-7.81801 1.66167,-15.62779 -10.10972,-21.875 -9.29813,-4.93462 -10.49188,-6.19526 -8.33149,-8.79837 1.29422,-1.55944 3.42711,-1.9335 9.21151,-1.61548 l 7.52732,0.41385 1.17247,-4.08387 c 0.64485,-2.24614 0.82716,-4.42918 0.40513,-4.85122 -0.42203,-0.42202 -4.63483,-1.04405 -9.36178,-1.38225 -13.86851,-0.99228 -21.53841,4.34658 -21.467,14.94277 0.0388,5.76057 3.13313,9.18858 12.50709,13.85592 5.88875,2.93204 8.19873,4.79156 8.48928,6.83386 0.58212,4.0916 -4.66142,5.8092 -12.56191,4.11485 -3.34692,-0.71778 -6.28385,-1.30506 -6.52651,-1.30506 -1.14032,0 -3.09361,8.09214 -2.17502,9.01073 3.2655,3.2655 18.65553,3.60212 25.19261,0.55103 z m 98.79666,-3.31176 0,-5 -9.34326,0 -9.34325,0 -0.34425,-19.6875 -0.34424,-19.6875 -5.9375,-0.38099 -5.9375,-0.38098 0,25.06848 0,25.06849 15.625,0 15.625,0 0,-5 z m 4.70409,-91.530673 0.32909,-42.155674 -19.70409,-0.344326 -19.70409,-0.344325 -0.34134,-22.1875 -0.34135,-22.1875 -47.47115,0 -47.47116,0 0,64.166666 c 0,35.291671 0.37988,64.546542 0.84418,65.010842 0.46429,0.4643 30.69867,0.69868 67.18749,0.52084 l 66.34333,-0.32335 0.32909,-42.155673 z m -88.42807,20.334963 c -10.79815,-3.727238 -11.13637,-4.536363 -11.14811,-26.670058 -0.0146,-27.584494 0.29989,-29.136759 6.58415,-32.495216 4.53401,-2.42308 7.06632,-2.759195 20.78794,-2.759195 13.72161,0 16.25392,0.336115 20.78794,2.759195 6.28938,3.361195 6.59842,4.894626 6.58486,32.673585 -0.009,18.410251 -0.12714,19.305376 -2.91638,22.094614 -6.6435,6.643485 -27.60762,8.909475 -40.6804,4.397075 z m 30.50823,-1.94976 c 8.35149,-2.533441 10.71575,-4.921516 10.71575,-10.823665 l 0,-4.831673 -5.3125,2.826598 c -4.63031,2.463625 -7.15841,2.826587 -19.6875,2.826587 -12.52909,0 -15.05719,-0.362962 -19.6875,-2.826587 l -5.3125,-2.826598 0,4.831672 c 0,3.114838 0.82228,5.575826 2.31416,6.92595 5.93067,5.367186 25.36991,7.416636 36.97009,3.897716 z m 0,-15.000007 c 8.35149,-2.533435 10.71575,-4.921507 10.71575,-10.82366 l 0,-4.831671 -5.3125,2.837905 c -4.63886,2.478053 -7.13527,2.837905 -19.6875,2.837905 -12.55222,0 -15.04864,-0.359852 -19.6875,-2.837905 l -5.3125,-2.837905 0,4.831671 c 0,3.114844 0.82228,5.575828 2.31416,6.925955 5.93067,5.367181 25.36991,7.416634 36.97009,3.897705 z m -1.42769,-14.845186 c 8.97241,-2.111244 12.14344,-4.808216 12.14344,-10.32807 0,-2.299695 -0.26986,-4.181265 -0.5997,-4.181265 -0.32984,0 -3.00171,0.984375 -5.9375,2.1875 -3.91773,1.605536 -8.82958,2.1875 -18.4628,2.1875 -9.63322,0 -14.54507,-0.581964 -18.46279,-2.1875 -2.93579,-1.203125 -5.60767,-2.1875 -5.9375,-2.1875 -1.8238,0 -0.29337,8.639761 1.8786,10.605372 5.49741,4.975083 22.74,6.877789 35.37825,3.903963 z"
         id="path5597"
         inkscape:connector-curvature="0" />
      <path
         style="fill-opacity:1"
         d="m 322.5,190.04077 c -1.75251,-1.7525 -1.96429,-12.59198 -1.96429,-100.535708 0,-87.9437225 0.21178,-98.7832125 1.96429,-100.535714 1.72376,-1.723766 8.267,-1.958256 53.4375,-1.915042 l 51.47321,0.04924 13.125,15.156647 c 7.21875,8.336156 14.45714,16.610873 16.0853,18.388256 1.62816,1.777385 4.86254,5.539541 7.1875,8.360349 l 4.2272,5.12874 0,76.969472 c 0,68.30559 -0.2211,77.19059 -1.96429,78.93376 -1.73882,1.73883 -9.97835,1.96429 -71.78571,1.96429 -61.80736,0 -70.04689,-0.22546 -71.78571,-1.96429 z m 95.22971,-7.47825 c 1.27509,-4.1546 1.16188,-4.51918 -1.74665,-5.625 -1.71055,-0.65035 -3.91723,-1.18246 -4.90372,-1.18246 -2.29267,0 -2.32206,-2.0732 -0.0479,-3.37539 4.17186,-2.38876 7.33459,-10.4048 7.45074,-18.88412 0.20788,-15.17745 -7.02752,-24.02783 -20.43627,-24.99773 -3.98492,-0.28823 -9.1736,0.11238 -11.53039,0.89013 -8.12519,2.68156 -15.97983,14.50781 -15.97983,24.05989 0,11.39925 7.66896,22.2328 17.5,24.72135 3.09375,0.78312 10.125,3.05603 15.625,5.05091 5.5,1.99486 10.60875,3.66257 11.35277,3.706 0.74403,0.0434 1.96633,-1.92018 2.71623,-4.36358 z m -29.79015,-16.71131 c -3.26989,-3.26989 -3.65336,-4.4849 -3.64918,-11.5625 0.003,-5.67774 0.70339,-9.05462 2.48163,-11.97115 2.18481,-3.58335 3.11971,-4.0625 7.92659,-4.0625 8.31071,0 10.21211,2.83744 10.21211,15.23946 0,9.38193 -0.20919,10.15693 -3.5072,12.99377 -4.69172,4.03566 -8.99484,3.83205 -13.46395,-0.63708 z m -34.27885,12.28041 c 10.18332,-2.76881 15.13564,-11.39472 11.51583,-20.05815 -1.42971,-3.42176 -3.70617,-5.3313 -10.79919,-9.05857 -7.39042,-3.88356 -8.9191,-5.20374 -8.60212,-7.42885 0.35285,-2.47696 1.0913,-2.69801 8.72482,-2.61178 l 8.33933,0.0943 0.80377,-4.28443 c 0.44207,-2.35645 0.46465,-4.62357 0.0502,-5.03803 -1.53586,-1.53586 -16.81488,-1.71545 -21.25572,-0.24984 -8.24625,2.7215 -12.22426,14.39432 -7.15172,20.9855 1.20703,1.5684 5.82756,4.66278 10.26785,6.8764 7.93069,3.95368 10.43459,7.19435 7.68397,9.94498 -1.62269,1.62269 -13.24946,1.41595 -16.44144,-0.29235 -2.12463,-1.13706 -2.56738,-0.6868 -3.79026,3.85462 -0.76154,2.82814 -1.14408,5.38263 -0.85008,5.67662 0.64911,0.64911 10.53242,2.63863 14.00477,2.81918 1.375,0.0715 4.75,-0.48178 7.5,-1.22951 z m 103.125,-4.87656 0,-5 -9.34326,0 -9.34325,0 -0.34425,-19.6875 -0.34424,-19.6875 -5.9375,-0.38099 -5.9375,-0.38098 0,25.06848 0,25.06849 15.625,0 15.625,0 0,-5 z m 5,-91.249998 0,-42.5 -19.375,0 c -10.65625,0 -19.48264,-0.140625 -19.6142,-0.3125 -0.13155,-0.171875 -0.55343,-10.4375 -0.9375,-22.8125 l -0.6983,-22.5 -46.875,0 -46.875,0 -0.32365,65.3125 -0.32365,65.312498 67.51115,0 67.51115,0 0,-42.499998 z m -84.375,21.387888 c -7.05893,-1.90929 -12.92369,-4.9261 -14.19522,-7.301975 -1.36307,-2.546913 -1.79789,-36.123249 -0.58491,-45.165938 0.67392,-5.024 1.18798,-5.66531 6.50593,-8.116391 4.82991,-2.226138 8.12503,-2.661366 20.1492,-2.661366 12.02417,0 15.31929,0.435228 20.1492,2.661366 5.31795,2.451081 5.83201,3.092391 6.50592,8.116391 1.1746,8.756554 0.79818,42.58165 -0.5009,45.008975 -2.21355,4.136048 -12.24938,7.540058 -23.65422,8.023158 -5.84375,0.24753 -12.3125,-0.006 -14.375,-0.56422 z m 26.96829,-3.2958 c 7.70653,-2.719025 9.90671,-5.120088 9.90671,-10.811225 l 0,-4.831673 -5.3125,2.800785 c -4.61055,2.4307 -7.21191,2.800775 -19.6875,2.800775 -12.47559,0 -15.07696,-0.370075 -19.6875,-2.800775 l -5.3125,-2.800785 0,4.831672 c 0,5.584375 2.20077,8.08395 9.45789,10.741996 6.64942,2.43548 23.81877,2.47428 30.6354,0.0693 z m 0,-15.000001 c 7.70653,-2.719026 9.90671,-5.120082 9.90671,-10.811226 l 0,-4.831671 -5.3125,2.800781 c -4.61055,2.430707 -7.21191,2.80078 -19.6875,2.80078 -12.47559,0 -15.07696,-0.370073 -19.6875,-2.80078 l -5.3125,-2.800781 0,4.831671 c 0,5.584382 2.20077,8.08395 9.45789,10.742004 6.64942,2.435473 23.81877,2.474272 30.6354,0.06922 z m -1.53009,-14.90194 c 8.57682,-2.282874 11.4368,-4.884747 11.4368,-10.404671 0,-3.916293 -0.26699,-4.243015 -2.8125,-3.441755 -10.41763,3.279189 -16.09301,4.406279 -22.1875,4.406279 -6.09449,0 -11.76987,-1.12709 -22.1875,-4.406279 -2.54551,-0.80126 -2.8125,-0.474538 -2.8125,3.441755 0,2.680205 0.91387,5.154099 2.40118,6.500093 5.71612,5.173016 23.9853,7.145625 36.16202,3.904578 z"
         id="path5595"
         inkscape:connector-curvature="0" />
    </g>
  </g>
</svg>
