<?xml version="1.0" encoding="UTF-8" standalone="no"?>
<!-- Created with Inkscape (http://www.inkscape.org/) -->

<svg
   xmlns:dc="http://purl.org/dc/elements/1.1/"
   xmlns:cc="http://creativecommons.org/ns#"
   xmlns:rdf="http://www.w3.org/1999/02/22-rdf-syntax-ns#"
   xmlns:svg="http://www.w3.org/2000/svg"
   xmlns="http://www.w3.org/2000/svg"
   xmlns:sodipodi="http://sodipodi.sourceforge.net/DTD/sodipodi-0.dtd"
   xmlns:inkscape="http://www.inkscape.org/namespaces/inkscape"
   width="210mm"
   height="297mm"
   viewBox="0 0 744.09448819 1052.3622047"
   id="svg4825"
   version="1.1"
   inkscape:version="0.91 r13725"
   sodipodi:docname="sqlserver2.svg">
  <defs
     id="defs4827">
    <filter
       style="color-interpolation-filters:sRGB;"
       inkscape:label="Greyscale"
       id="filter4846">
      <feColorMatrix
         values="-10 -10 -4.17 0 0 -10 -10 -4.17 0 0 -10 -10 -4.17 0 0 0 0 0 1 0 "
         id="feColorMatrix4848" />
    </filter>
  </defs>
  <sodipodi:namedview
     id="base"
     pagecolor="#ffffff"
     bordercolor="#666666"
     borderopacity="1.0"
     inkscape:pageopacity="0.0"
     inkscape:pageshadow="2"
     inkscape:zoom="0.35355339"
     inkscape:cx="-385.53672"
     inkscape:cy="339.56584"
     inkscape:document-units="px"
     inkscape:current-layer="layer1"
     showgrid="false"
     inkscape:window-width="1600"
     inkscape:window-height="847"
     inkscape:window-x="-8"
     inkscape:window-y="-8"
     inkscape:window-maximized="1" />
  <metadata
     id="metadata4830">
    <rdf:RDF>
      <cc:Work
         rdf:about="">
        <dc:format>image/svg+xml</dc:format>
        <dc:type
           rdf:resource="http://purl.org/dc/dcmitype/StillImage" />
        <dc:title></dc:title>
      </cc:Work>
    </rdf:RDF>
  </metadata>
  <g
     inkscape:label="Camada 1"
     inkscape:groupmode="layer"
     id="layer1">
    <g
       id="g4891"
       transform="matrix(1.9132801,0,0,2.882305,-492.04559,-518.26764)">
      <path
         inkscape:connector-curvature="0"
         id="path4844"
         d=""
         style="fill:#000000;filter:url(#filter4846)" />
      <path
         sodipodi:nodetypes="csssssssssssssssscssccssssssssssssssssscsssssssscsssccsscsssscssssscsssssssscsssscsscssssscsssssssssssscssssssssscsscs"
         inkscape:connector-curvature="0"
         id="path4877"
         d="m 325.62498,446.47096 c 23.73121,-20.04616 41.42684,-38.2265 52.76826,-54.21367 5.69295,-8.02494 14.73174,-25.45174 14.73174,-28.40284 0,-1.18155 0.44483,-2.42319 0.9885,-2.7592 2.65644,-1.64176 0.41361,10.50469 -3.25921,17.65089 -2.2084,4.29687 -3.69219,7.8125 -3.29729,7.8125 0.39489,0 3.29638,-1.96875 6.44774,-4.375 5.96035,-4.55106 65.28712,-37.3298 66.36609,-35.584 0.35386,0.57255 -62.34488,36.80597 -68.44163,41.10207 -9.74247,6.86507 -15.288,12.25454 -24.33314,23.64839 -2.3753,2.9921 -2.37497,3.01267 0.0276,1.72683 5.43874,-2.91073 18.49496,-13.24438 27.29316,-21.6018 5.45959,-5.18608 19.44208,-19.76494 20.27371,-19.25097 1.80757,1.11714 -16.76266,21.80878 -30.00302,32.59259 -5.39684,4.39554 -9.5216,7.99189 -9.16613,7.99189 0.35548,0 3.36483,-1.20043 6.68744,-2.6676 3.32263,-1.46719 13.35364,-5.66036 22.29114,-9.31819 11.40689,-4.66846 16.19826,-7.22634 16.07639,-8.5824 -0.0955,-1.0625 0.60763,-1.93181 1.5625,-1.93181 0.95486,0 1.73611,0.57546 1.73611,1.27881 0,0.70335 1.31052,0.42013 2.91229,-0.62937 1.60175,-1.04952 3.25226,-1.56823 3.6678,-1.15269 0.41552,0.41554 7.96437,-1.79869 16.77521,-4.9205 8.81084,-3.12181 23.05095,-7.75872 31.6447,-10.30424 8.59375,-2.54552 16.07866,-5.02986 16.63315,-5.52076 1.24151,-1.09916 -9.76601,-11.13361 -19.37706,-17.66411 -3.91539,-2.66043 -7.32253,-4.83714 -7.5714,-4.83714 -0.24888,0 -3.13712,3.65625 -6.4183,8.125 -3.28118,4.46875 -6.13192,8.125 -6.33495,8.125 -0.71557,0 0.22897,-10.07706 1.01853,-10.86662 1.37184,-1.37184 0.87842,-2.88338 -0.94122,-2.88338 -0.9577,0 -64.59594,36.82574 -65.02943,35.69609 -0.8997,-2.34458 61.43299,-39.85551 65.43347,-41.94131 2.96292,-1.54484 2.97832,-1.62971 0.625,-3.44413 -5.67372,-4.37447 -20.801,-10.41985 -26.70754,-10.67324 -4.53919,-0.19473 -5.8011,-0.64292 -4.8928,-1.73774 1.57932,-1.90363 -0.79364,-3.1586 -12.06244,-6.37939 -15.99751,-4.57231 -14.44469,-5.38607 -13.55804,7.10507 0.61578,8.67504 0.36809,11.62632 -1.22231,14.56464 l -1.99455,3.68501 -0.0718,-6.875 c -0.11181,-10.71449 -3.21668,-22.92894 -8.34309,-32.82159 -3.78475,-7.30357 -7.90419,-12.20896 -21.31339,-25.37977 -9.14202,-8.97951 -16.62186,-17.25943 -16.62186,-18.39983 0,-1.77944 0.59231,-1.67152 4.17698,0.7611 5.74036,3.89552 20.36548,7.18132 62.07302,13.94584 78.84985,12.78861 97.8568,17.60366 126.875,32.14138 12.75541,6.39029 23.13406,13.86032 32.0694,23.08196 6.28001,6.48122 17.81546,21.65438 16.99355,22.35248 -0.17212,0.1462 -5.93795,1.21212 -12.81295,2.3687 -27.70085,4.66014 -79.24471,17.78079 -120.625,30.70549 -40.35087,12.60316 -96.76079,37.13119 -126.25,54.89573 -5.84375,3.52032 -9.21875,5.2127 -7.5,3.76083 z m 192.1059,-97.72482 c 8.23191,-10.48438 16.83406,-21.81628 19.11589,-25.18201 l 4.14877,-6.11951 -3.62278,0.86626 c -14.22004,3.40023 -59.24778,20.07774 -59.24778,21.94437 0,0.54984 2.95313,3.53698 6.5625,6.6381 3.60938,3.10111 9.09375,9.05308 12.1875,13.22658 3.09375,4.1735 5.68435,7.6108 5.75689,7.63845 0.0725,0.0276 6.8671,-8.52786 15.09901,-19.01224 z m 40.98891,7.90106 c 9.82023,-1.42371 20.45377,-2.58856 23.63008,-2.58856 3.17631,0 5.77511,-0.47687 5.77511,-1.05973 0,-2.7044 -20.8514,-20.57421 -34.28197,-29.37991 l -8.65697,-5.67591 -6.0017,10.70636 c -6.55968,11.70171 -11.6516,18.35891 -22.62186,29.57591 -3.95312,4.04205 -7.1875,7.47605 -7.1875,7.63112 0,0.15507 7.08521,-1.27115 15.74493,-3.16938 8.6597,-1.89822 23.77965,-4.61618 33.59988,-6.0399 z m -84.64351,-32.90106 c 5.5547,-11.20747 9.0487,-20.79854 9.0487,-24.83877 0,-2.37703 -0.61496,-2.22341 -8.4375,2.10771 -11.26717,6.23831 -31.56995,19.34704 -31.53287,20.35958 0.0258,0.70341 23.11775,12.2823 25.07796,12.5747 0.40291,0.0601 3.03259,-4.53135 5.84371,-10.20322 z m 21.5487,2.79365 c 7.90625,-2.81712 20.5625,-6.71322 28.125,-8.65801 l 13.75,-3.53597 -6.05784,-2.65075 c -8.30607,-3.63451 -25.97025,-9.81605 -36.02047,-12.60528 l -8.32833,-2.31136 -1.41802,8.14291 c -1.20668,6.92924 -3.46623,14.0154 -8.2589,25.90073 -1.119,2.77502 -2.52715,3.10618 18.20856,-4.28227 z m -62.88199,-19.66865 c -0.41361,-6.01563 -1.48767,-13.40549 -2.38678,-16.42192 l -1.63477,-5.48442 -9.36072,7.51096 c -12.63109,10.13506 -18.43231,16.30566 -16.12969,17.15666 4.15173,1.53438 26.91975,7.98094 28.51648,8.07417 1.425,0.0832 1.60872,-1.91662 0.99548,-10.83545 z m 12.03563,6.0898 c 5.05539,-3.4782 27.02804,-15.3484 30.84636,-16.664 3.69895,-1.27449 -0.0255,-2.44119 -19.35227,-6.06216 -26.55567,-4.97534 -24.59225,-5.34734 -21.83195,4.13636 1.25063,4.29687 2.63168,11.04688 3.069,15 0.43731,3.95312 1.07516,7.1875 1.41745,7.1875 0.34228,0 2.97542,-1.61896 5.85141,-3.5977 z m -28.7965,-22.34411 8.8852,-5.74781 -14.93366,-2.73413 c -8.21353,-1.50377 -16.84625,-3.1556 -19.18384,-3.67073 -3.83146,-0.84433 -4.15176,-0.70725 -3.25124,1.39144 0.80498,1.87605 4.53874,12.0736 8.79651,24.02487 0.42664,1.19752 2.10484,0.34137 5.70318,-2.9095 2.80425,-2.53348 9.09699,-7.19284 13.98385,-10.35414 z m -28.43145,-1.19918 c -1.86888,-6.04121 -3.8345,-11.44244 -4.36805,-12.00274 -0.53356,-0.56031 -4.97186,-2.04809 -9.8629,-3.30618 l -8.89279,-2.28744 9.06674,8.9789 c 4.9867,4.93839 10.72422,11.59883 12.75005,14.80098 2.02584,3.20214 3.91319,5.59222 4.19411,5.31128 0.28094,-0.28093 -1.01829,-5.45359 -2.88716,-11.4948 z"
         style="fill:#000000" />
      <path
         sodipodi:nodetypes="ccccc"
         inkscape:connector-curvature="0"
         id="path4879"
         d="m 398.75,341.11218 c -2.36705,8.25 -5.67911,22.5 -5.125,30.75 l 2.5,-5.75 4.375,-17 -1.25,-9"
         style="fill:#000000;fill-opacity:1;fill-rule:evenodd;stroke:#000000;stroke-width:1px;stroke-linecap:butt;stroke-linejoin:miter;stroke-opacity:1" />
      <path
         inkscape:connector-curvature="0"
         id="path4881"
         d="m 436.125,330.23718 -10.5,29.625 -4.125,6.75 -6.875,2.25 10,-20.625 c 0,0 6.75,-18.625 6.375,-20.125 -0.375,-1.5 5.125,2.125 5.125,2.125 z"
         style="fill:#000000;fill-opacity:1;fill-rule:evenodd;stroke:#000000;stroke-width:1px;stroke-linecap:butt;stroke-linejoin:miter;stroke-opacity:1" />
      <path
         inkscape:connector-curvature="0"
         id="path4883"
         d="m 400.5,349.98718 c 0,0 19.375,-21 26.625,-23.625 7.25,-2.625 6.125,2.75 6.125,2.75 0,0 -29.5,22.125 -31.75,26.375 -2.25,4.25 -4.875,7.875 -4.875,7.875 z"
         style="fill:#000000;fill-opacity:1;fill-rule:evenodd;stroke:#000000;stroke-width:1px;stroke-linecap:butt;stroke-linejoin:miter;stroke-opacity:1" />
      <path
         inkscape:connector-curvature="0"
         id="path4885"
         d="m 401.125,355.61218 c 0,0 11.625,4.875 14.75,11.125 3.125,6.25 -4.875,7.25 -4.875,7.25 0,0 -10.625,-8.875 -14.75,-9.5 -4.125,-0.625 4.875,-8.875 4.875,-8.875 z"
         style="fill:#000000;fill-opacity:1;fill-rule:evenodd;stroke:#000000;stroke-width:1px;stroke-linecap:butt;stroke-linejoin:miter;stroke-opacity:1" />
      <path
         inkscape:connector-curvature="0"
         id="path4887"
         d="m 418.75,371.11218 c 0,0 8.25,16.625 5.75,22.25 -2.5,5.625 -7.375,-15.375 -11.875,-17.875 -4.5,-2.5 6.125,-4.375 6.125,-4.375 z"
         style="fill:#000000;fill-opacity:1;fill-rule:evenodd;stroke:#000000;stroke-width:1px;stroke-linecap:butt;stroke-linejoin:miter;stroke-opacity:1" />
      <path
         inkscape:connector-curvature="0"
         id="path4889"
         d="m 459,349.73718 -34.25,43 6.375,-0.75 c 0,0 37.125,-39.25 35.875,-42.875 -1.25,-3.625 -8.5,1.625 -8.5,1.625"
         style="fill:#000000;fill-opacity:1;fill-rule:evenodd;stroke:#000000;stroke-width:1px;stroke-linecap:butt;stroke-linejoin:miter;stroke-opacity:1" />
    </g>
  </g>
</svg>
