<?xml version="1.0" encoding="UTF-8" standalone="no"?>
<!-- Created with Inkscape (http://www.inkscape.org/) -->

<svg
   xmlns:dc="http://purl.org/dc/elements/1.1/"
   xmlns:cc="http://creativecommons.org/ns#"
   xmlns:rdf="http://www.w3.org/1999/02/22-rdf-syntax-ns#"
   xmlns:svg="http://www.w3.org/2000/svg"
   xmlns="http://www.w3.org/2000/svg"
   xmlns:sodipodi="http://sodipodi.sourceforge.net/DTD/sodipodi-0.dtd"
   xmlns:inkscape="http://www.inkscape.org/namespaces/inkscape"
   width="210mm"
   height="297mm"
   viewBox="0 0 744.09448819 1052.3622047"
   id="svg3384"
   version="1.1"
   inkscape:version="0.91 r13725"
   sodipodi:docname="sybase.svg">
  <defs
     id="defs3386" />
  <sodipodi:namedview
     id="base"
     pagecolor="#ffffff"
     bordercolor="#666666"
     borderopacity="1.0"
     inkscape:pageopacity="0.0"
     inkscape:pageshadow="2"
     inkscape:zoom="0.35"
     inkscape:cx="375"
     inkscape:cy="520"
     inkscape:document-units="px"
     inkscape:current-layer="layer1"
     showgrid="false"
     inkscape:window-width="1600"
     inkscape:window-height="847"
     inkscape:window-x="-8"
     inkscape:window-y="-8"
     inkscape:window-maximized="1" />
  <metadata
     id="metadata3389">
    <rdf:RDF>
      <cc:Work
         rdf:about="">
        <dc:format>image/svg+xml</dc:format>
        <dc:type
           rdf:resource="http://purl.org/dc/dcmitype/StillImage" />
        <dc:title></dc:title>
      </cc:Work>
    </rdf:RDF>
  </metadata>
  <g
     inkscape:label="Camada 1"
     inkscape:groupmode="layer"
     id="layer1">
    <path
       style="fill:#000000"
       d="m 47.801467,676.59168 0.301152,-175.59202 13.875954,31.47555 c 36.322827,82.39303 85.314887,136.57308 175.850137,194.47165 90.60496,57.94315 209.12806,99.46788 336.14672,117.76936 l 48.11872,6.9332 -287.29707,0.26728 -287.297097,0.26698 0.301152,-175.592 z M 607.94178,822.99766 C 568.18249,818.57055 495.33346,804.79775 460.01993,795.0316 254.37662,738.15993 97.198177,600.07129 83.206015,463.98297 l -3.415585,-33.2201 306.53339,0 306.53335,0 0,197.42236 0,197.42236 -35.38141,-0.51701 c -19.45977,-0.28429 -41.75007,-1.2262 -49.53398,-2.09292 z M 81.466331,401.88736 c 0,-38.56425 30.524429,-90.52341 76.992999,-131.05862 58.60587,-51.12282 149.89338,-86.60807 241.43972,-93.85241 l 38.21194,-3.02381 0,122.7103 0,122.7103 -178.32234,0 -178.322319,0 0,-17.48576 z m 379.288769,9.4277 c 0,-6.73222 1.39714,-7.28038 8.49153,-3.3317 4.67034,2.59949 8.49155,6.22561 8.49155,8.05805 0,1.83243 -3.82121,3.33171 -8.49155,3.33171 -4.8808,0 -8.49153,-3.4264 -8.49153,-8.05806 z m 161.97572,-4.28084 c 15.06489,-6.78641 37.00618,-21.60014 48.75856,-32.91938 l 21.36779,-20.58053 0,32.91942 0,32.91939 -48.75848,0 -48.7585,0 27.39063,-12.3389 z M 497.96465,390.63326 c -21.05536,-14.12081 -14.36361,-37.1049 13.73966,-47.19182 10.85646,-3.89663 11.32206,-2.88726 11.32206,24.54422 0,30.24446 -5.85064,35.53156 -25.06172,22.6476 z m 43.25509,-31.05634 1.62022,-37.01669 58.02553,-1.08197 c 64.25826,-1.19816 65.25003,-0.74483 50.39187,23.03427 -17.02017,27.2391 -63.32356,52.08108 -97.07478,52.08108 l -14.58312,0 1.62028,-37.01669 z M 47.804581,257.06916 47.500238,153.61225 l 151.432472,0.2773 151.43245,0.27731 -28.30512,6.77134 C 195.39339,191.24037 97.183376,257.69715 58.125775,339.53725 L 48.109156,360.52582 47.804813,257.06891 Z M 460.7551,328.71999 c 0,-4.63165 3.61073,-8.05805 8.49153,-8.05805 4.67034,0 8.49155,1.49928 8.49155,3.3317 0,1.83245 -3.82121,5.45857 -8.49155,8.05805 -7.09439,3.94869 -8.49153,3.40053 -8.49153,-3.3317 z m 0,-85.88802 0,-66.44022 16.77072,0 c 74.58401,0 168.09718,59.91635 179.24449,114.84666 l 3.65967,18.03378 -99.83749,0 -99.83739,0 0,-66.44022 z m 218.06105,3.46406 c -14.23906,-25.00497 -68.42596,-62.2251 -114.67623,-78.76936 l -38.28303,-13.69425 83.50013,-0.10993 83.50015,-0.10994 0,55.05047 c 0,30.27776 -0.9276,55.05047 -2.06138,55.05047 -1.1338,0 -6.52463,-7.83773 -11.97964,-17.41715 z"
       id="path3403"
       inkscape:connector-curvature="0" />
  </g>
</svg>
