<?xml version="1.0" encoding="UTF-8" standalone="no"?>
<!-- Created with Inkscape (http://www.inkscape.org/) -->

<svg
   xmlns:dc="http://purl.org/dc/elements/1.1/"
   xmlns:cc="http://creativecommons.org/ns#"
   xmlns:rdf="http://www.w3.org/1999/02/22-rdf-syntax-ns#"
   xmlns:svg="http://www.w3.org/2000/svg"
   xmlns="http://www.w3.org/2000/svg"
   xmlns:sodipodi="http://sodipodi.sourceforge.net/DTD/sodipodi-0.dtd"
   xmlns:inkscape="http://www.inkscape.org/namespaces/inkscape"
   width="210mm"
   height="297mm"
   viewBox="0 0 744.09448819 1052.3622047"
   id="svg3865"
   version="1.1"
   inkscape:version="0.91 r13725"
   sodipodi:docname="table.svg">
  <defs
     id="defs3867" />
  <sodipodi:namedview
     id="base"
     pagecolor="#ffffff"
     bordercolor="#666666"
     borderopacity="1.0"
     inkscape:pageopacity="0.0"
     inkscape:pageshadow="2"
     inkscape:zoom="0.35"
     inkscape:cx="375"
     inkscape:cy="520"
     inkscape:document-units="px"
     inkscape:current-layer="layer1"
     showgrid="false"
     inkscape:window-width="1600"
     inkscape:window-height="847"
     inkscape:window-x="-8"
     inkscape:window-y="-8"
     inkscape:window-maximized="1" />
  <metadata
     id="metadata3870">
    <rdf:RDF>
      <cc:Work
         rdf:about="">
        <dc:format>image/svg+xml</dc:format>
        <dc:type
           rdf:resource="http://purl.org/dc/dcmitype/StillImage" />
        <dc:title></dc:title>
      </cc:Work>
    </rdf:RDF>
  </metadata>
  <g
     inkscape:label="Camada 1"
     inkscape:groupmode="layer"
     id="layer1">
    <path
       style="fill:#000000"
       d="M 47.267811,782.73978 C 41.430697,780.24854 33.770257,774.91954 30.24461,770.89721 23.881746,763.63818 23.828262,761.7699 23.014739,518.30155 l -0.819615,-245.2826 7.009869,-11.44471 c 13.798995,-22.52909 -12.893805,-20.89485 341.283557,-20.89485 299.12253,0 313.17292,0.20962 323.4891,4.82637 5.9315,2.65451 13.57028,8.77458 16.97492,13.60018 6.07413,8.60914 6.19025,13.42542 6.19025,256.625 0,246.60535 -0.0322,247.88797 -6.41013,255.16523 -3.52572,4.02296 -11.18604,9.35237 -17.0232,11.84361 -9.89648,4.22357 -31.7149,4.52925 -323.22094,4.52925 -291.505859,0 -313.32423,-0.30568 -323.220739,-4.52925 z m 191.677869,-86.13049 0,-54.40072 -86.66356,0 -86.663571,0 0,54.40072 0,54.40067 86.663571,0 86.66356,0 0,-54.40067 z m 219.754,0 0,-54.40072 -88.21113,0 -88.21114,0 0,54.40072 0,54.40067 88.21114,0 88.21113,0 0,-54.40067 z m 216.65892,0 0,-54.40072 -86.66357,0 -86.66357,0 0,54.40072 0,54.40067 86.66357,0 86.66357,0 0,-54.40067 z m -436.41292,-145.0686 0,-56.99124 -86.66356,0 -86.663571,0 0,56.99124 0,56.99123 86.663571,0 86.66356,0 0,-56.99123 z m 219.754,0 0,-56.99124 -88.21113,0 -88.21114,0 0,56.99124 0,56.99123 88.21114,0 88.21113,0 0,-56.99123 z m 216.65892,0 0,-56.99124 -86.66357,0 -86.66357,0 0,56.99124 0,56.99123 86.66357,0 86.66357,0 0,-56.99123 z m -436.41292,-146.36386 0,-55.69599 -86.66356,0 -86.663571,0 0,55.69599 0,55.69598 86.663571,0 86.66356,0 0,-55.69598 z m 219.04187,-0.64763 0.83544,-55.04836 -88.27279,0 -88.27279,0 0,53.96899 c 0,29.68292 0.95008,54.76418 2.11138,55.73612 1.16129,0.97194 40.50803,1.45765 87.43735,1.07937 l 85.32598,-0.68777 0.83543,-55.04835 z m 217.37105,0.64763 0,-55.69599 -86.66357,0 -86.66357,0 0,55.69599 0,55.69598 86.66357,0 86.66357,0 0,-55.69598 z"
       id="path3884"
       inkscape:connector-curvature="0" />
  </g>
</svg>
