<?xml version="1.0" encoding="UTF-8" standalone="no"?>
<!-- Created with Inkscape (http://www.inkscape.org/) -->

<svg
   xmlns:dc="http://purl.org/dc/elements/1.1/"
   xmlns:cc="http://creativecommons.org/ns#"
   xmlns:rdf="http://www.w3.org/1999/02/22-rdf-syntax-ns#"
   xmlns:svg="http://www.w3.org/2000/svg"
   xmlns="http://www.w3.org/2000/svg"
   xmlns:sodipodi="http://sodipodi.sourceforge.net/DTD/sodipodi-0.dtd"
   xmlns:inkscape="http://www.inkscape.org/namespaces/inkscape"
   width="210mm"
   height="297mm"
   viewBox="0 0 744.09448819 1052.3622047"
   id="svg3479"
   version="1.1"
   inkscape:version="0.91 r13725"
   sodipodi:docname="uml.svg">
  <defs
     id="defs3481" />
  <sodipodi:namedview
     id="base"
     pagecolor="#ffffff"
     bordercolor="#666666"
     borderopacity="1.0"
     inkscape:pageopacity="0.0"
     inkscape:pageshadow="2"
     inkscape:zoom="0.35"
     inkscape:cx="375"
     inkscape:cy="520"
     inkscape:document-units="px"
     inkscape:current-layer="layer1"
     showgrid="false"
     inkscape:window-width="1600"
     inkscape:window-height="847"
     inkscape:window-x="-8"
     inkscape:window-y="-8"
     inkscape:window-maximized="1" />
  <metadata
     id="metadata3484">
    <rdf:RDF>
      <cc:Work
         rdf:about="">
        <dc:format>image/svg+xml</dc:format>
        <dc:type
           rdf:resource="http://purl.org/dc/dcmitype/StillImage" />
        <dc:title></dc:title>
      </cc:Work>
    </rdf:RDF>
  </metadata>
  <g
     inkscape:label="Camada 1"
     inkscape:groupmode="layer"
     id="layer1">
    <path
       style="fill:#000000"
       d="m 404.27466,697.4325 c 0,-65.29207 -0.9919,-137.18351 -2.20422,-159.75877 l -2.20424,-41.04596 65.5005,-27.78786 c 36.0253,-15.28333 66.04003,-27.78786 66.69942,-27.78786 0.6594,0 1.19891,51.7095 1.19891,114.90999 0,84.8741 1.02187,114.90999 3.90949,114.90999 2.1502,0 43.49594,-16.62091 91.87938,-36.93535 48.3834,-20.31445 88.66967,-36.93536 89.52497,-36.93536 0.85536,0 1.13449,19.39107 0.62032,43.09125 l -0.93481,43.09125 -42.43105,17.92333 c -23.33707,9.85783 -84.43777,35.569 -135.77933,57.13596 -51.34157,21.56692 -102.89527,43.41777 -114.56382,48.55739 l -21.21552,9.34479 0,-118.71281 z m -60.25209,100.37631 -38.18793,-14.53752 0,-90.39903 c 0,-74.87824 -0.80137,-90.39903 -4.66742,-90.39903 -2.57457,0 -5.60356,3.98707 -6.75516,8.89184 -7.52869,32.06536 -37.00576,143.74275 -38.89236,147.3484 -1.96739,3.76003 -7.24785,2.50911 -36.55633,-8.66023 l -34.25675,-13.05511 -7.59875,-36.48298 c -4.17929,-20.06564 -9.62323,-45.10125 -12.09759,-55.63466 -2.47439,-10.53342 -8.84344,-39.15719 -14.15347,-63.60842 -6.42519,-29.58615 -11.07392,-44.45756 -13.89772,-44.45922 -3.30865,-0.002 -4.24311,19.83723 -4.24311,90.08287 l 0,90.08529 -39.036559,-15.40238 -39.03656,-15.40234 0,-157.88123 0,-157.88122 59.445339,22.58506 c 32.69493,12.42182 60.0996,23.11245 60.89928,23.757 1.27334,1.02631 15.46804,63.87603 34.37498,152.20191 3.71175,17.33986 7.56112,28.04351 10.08531,28.04351 4.68024,0 11.12055,-21.53717 37.79497,-126.39092 l 5.35677,-21.05676 22.46618,9.03138 c 12.35641,4.96724 39.75725,15.71657 60.89079,23.88735 l 38.4246,14.85603 -0.0244,156.82377 c -0.0136,86.25308 -0.502,157.1321 -1.08528,157.50894 -0.58328,0.37686 -18.24508,-5.85667 -39.24846,-13.8523 z M 329.59602,456.72849 C 307.49378,452.25194 274.98774,440.40866 190.66573,406.11057 130.12327,381.48483 77.743489,359.73036 74.26618,357.76728 c -5.879055,-3.31899 -5.063076,-4.40768 11.637185,-15.52694 9.87773,-6.57673 30.745655,-20.89198 46.373175,-31.81166 15.62753,-10.91969 29.80064,-19.854 31.49579,-19.854 4.41421,0 44.35082,16.34493 50.41125,20.6319 2.80045,1.98096 6.61924,3.74535 8.48621,3.92086 1.86697,0.17554 41.08197,15.631 87.14446,34.34551 93.79585,38.10787 106.90863,41.23721 137.96112,32.92414 19.2619,-5.15659 43.3774,-22.14813 46.73432,-32.92854 3.33795,-10.71927 -1.01066,-19.72692 -13.0369,-27.00442 -6.05313,-3.66298 -58.65372,-25.88377 -116.89018,-49.37956 -58.23647,-23.49579 -106.69896,-43.78182 -107.69444,-45.08006 -1.54281,-2.012 75.46727,-57.75271 88.56527,-64.1045 4.6348,-2.24762 139.57899,50.61608 144.47995,56.59925 1.37164,1.67454 2.51729,2.18756 2.54586,1.14006 0.0709,-2.6009 72.84168,26.85162 91.37713,36.98312 15.49829,8.4714 29.08323,18.27248 25.32676,18.27248 -1.18527,0 1.5046,2.3202 5.97744,5.15598 19.2902,12.22997 24.87665,46.72936 11.34838,70.0827 -14.23578,24.57481 -94.14249,79.62801 -138.5516,95.45768 -44.85038,15.98698 -106.873,19.56558 -158.36134,9.13721 z"
       id="path3509"
       inkscape:connector-curvature="0" />
  </g>
</svg>
