<?xml version="1.0" encoding="UTF-8" standalone="no"?>
<!-- Created with Inkscape (http://www.inkscape.org/) -->

<svg
   xmlns:dc="http://purl.org/dc/elements/1.1/"
   xmlns:cc="http://creativecommons.org/ns#"
   xmlns:rdf="http://www.w3.org/1999/02/22-rdf-syntax-ns#"
   xmlns:svg="http://www.w3.org/2000/svg"
   xmlns="http://www.w3.org/2000/svg"
   xmlns:sodipodi="http://sodipodi.sourceforge.net/DTD/sodipodi-0.dtd"
   xmlns:inkscape="http://www.inkscape.org/namespaces/inkscape"
   width="210mm"
   height="297mm"
   viewBox="0 0 744.09448819 1052.3622047"
   id="svg3970"
   version="1.1"
   inkscape:version="0.91 r13725"
   sodipodi:docname="vs2.svg">
  <defs
     id="defs3972" />
  <sodipodi:namedview
     id="base"
     pagecolor="#ffffff"
     bordercolor="#666666"
     borderopacity="1.0"
     inkscape:pageopacity="0.0"
     inkscape:pageshadow="2"
     inkscape:zoom="0.35"
     inkscape:cx="375"
     inkscape:cy="520"
     inkscape:document-units="px"
     inkscape:current-layer="layer1"
     showgrid="false"
     inkscape:window-width="1600"
     inkscape:window-height="847"
     inkscape:window-x="-8"
     inkscape:window-y="-8"
     inkscape:window-maximized="1" />
  <metadata
     id="metadata3975">
    <rdf:RDF>
      <cc:Work
         rdf:about="">
        <dc:format>image/svg+xml</dc:format>
        <dc:type
           rdf:resource="http://purl.org/dc/dcmitype/StillImage" />
        <dc:title></dc:title>
      </cc:Work>
    </rdf:RDF>
  </metadata>
  <g
     inkscape:label="Camada 1"
     inkscape:groupmode="layer"
     id="layer1">
    <path
       style="fill:#000000"
       d="m 15.357143,512.36221 0,-290.35713 358.928587,0 358.92856,0 0,290.35713 0,290.35715 -358.92856,0 -358.928587,0 0,-290.35715 z M 531.75092,624.79652 c 18.92216,-3.60911 36.07697,-10.57916 73.90298,-30.02717 9.35606,-4.81045 10.60345,-9.83748 1.75945,-7.09186 -12.14952,3.77189 -59.25868,10.0829 -75.26775,10.0834 -20.69342,6.2e-4 -71.96559,-7.79065 -83.77335,-12.73005 -4.94281,-2.06773 -10.57024,-4.02954 -12.50564,-4.35961 -9.70318,-1.65481 -29.89945,-11.93472 -28.09271,-14.29942 1.13647,-1.48768 -0.23083,-1.99174 -3.03865,-1.1201 -2.8078,0.87162 -6.15048,0.21634 -7.42827,-1.45595 -3.20136,-4.19012 -15.03924,-3.82987 -17.00983,0.51761 -1.12887,2.49103 -2.79373,2.66684 -5.55058,0.58618 -4.55573,-3.43833 62.21118,-49.27554 110.23498,-75.67946 61.52261,-33.82547 108.91779,-38.45036 149.05472,-14.54507 6.41709,3.82201 12.56927,6.21961 13.67139,5.328 3.94455,-3.19086 -18.10774,-33.54607 -34.28739,-47.19736 -27.94069,-23.57402 -71.08221,-37.20505 -117.49886,-37.12481 -49.47921,0.0856 -81.18148,17.30323 -177.9382,96.63886 -86.22338,70.69901 -97.36452,76.97528 -136.64031,76.97528 -23.37681,0 -49.8618,-4.77546 -49.8618,-8.99051 0,-1.31783 -2.46858,-2.39605 -5.48583,-2.39605 -3.01754,0 -4.51885,-1.26631 -3.33621,-2.81404 1.23077,-1.61111 -0.17454,-2.09236 -3.28863,-1.12579 -3.57718,1.11043 -6.45227,-0.52868 -8.40061,-4.78924 -2.06603,-4.51789 -3.77396,-5.41482 -5.64574,-2.9648 -1.5106,1.9773 -0.22521,5.70979 2.93955,8.53909 3.0927,2.7645 5.62293,6.35477 5.62293,7.97836 0,5.92986 37.78153,34.55363 54.83669,41.54507 23.77627,9.74658 56.59642,14.70269 77.83401,11.75355 9.2857,-1.28942 18.46639,-2.48066 20.40179,-2.64713 8.10756,-0.69743 47.67276,-18.97166 73.28786,-33.84995 26.84195,-15.59103 34.03882,-17.35572 34.03882,-8.3465 0,9.07035 29.29561,31.19337 58.99884,44.55401 12.3584,5.55887 48.71717,12.7647 65.92237,13.06495 5.80621,0.10139 20.45105,-1.70294 32.54398,-4.00949 z m 48.93647,-40.27017 c 27.57162,-5.60259 52.79008,-18.60713 62.65823,-32.31119 10.82331,-15.03074 9.95344,-43.15267 -1.82252,-58.91379 -16.2382,-21.73354 -24.69231,-25.06206 -63.65506,-25.06206 -18.75212,0 -35.17838,0.87775 -36.5029,1.95056 -1.32423,1.07282 0.44564,8.75876 3.93358,17.07984 3.48766,8.32109 6.34727,22.17471 6.35458,30.78578 0,17.98188 -11.06429,49.18614 -16.49945,46.46874 -2.16793,-1.08378 -2.52151,-0.38426 -0.88705,1.75491 1.58745,2.07803 -0.38116,6.9476 -4.73475,11.71112 -4.09883,4.48473 -7.45221,8.8464 -7.45221,9.69262 0,3.2822 36.63014,1.30935 58.60755,-3.15653 z M 138.51891,543.91126 c 0,-14.68426 10.90524,-34.74177 24.67796,-45.38915 23.67296,-18.30115 94.85062,-19.60829 129.89725,-2.38546 6.63272,3.25947 10.82162,4.30587 9.30849,2.32529 -1.67866,-2.19713 0.39665,-6.31163 5.32312,-10.55387 l 8.07463,-6.95286 -17.38284,-12.86533 c -9.56045,-7.07595 -28.71203,-17.43708 -42.55908,-23.02473 -22.76987,-9.18847 -28.01501,-10.16997 -54.88144,-10.26992 -34.86759,-0.12981 -59.05826,7.23465 -80.92672,24.6365 -33.858644,26.94309 -33.784043,56.24648 0.21677,84.95517 6.95336,5.87118 13.90475,10.67489 15.44744,10.67489 1.54269,0 2.80471,-5.01773 2.80471,-11.15053 z"
       id="path3989"
       inkscape:connector-curvature="0" />
  </g>
</svg>
