<?xml version="1.0" encoding="UTF-8" standalone="no"?>
<!-- Created with Inkscape (http://www.inkscape.org/) -->

<svg
   xmlns:dc="http://purl.org/dc/elements/1.1/"
   xmlns:cc="http://creativecommons.org/ns#"
   xmlns:rdf="http://www.w3.org/1999/02/22-rdf-syntax-ns#"
   xmlns:svg="http://www.w3.org/2000/svg"
   xmlns="http://www.w3.org/2000/svg"
   xmlns:sodipodi="http://sodipodi.sourceforge.net/DTD/sodipodi-0.dtd"
   xmlns:inkscape="http://www.inkscape.org/namespaces/inkscape"
   width="210mm"
   height="297mm"
   viewBox="0 0 744.09448819 1052.3622047"
   id="svg5038"
   version="1.1"
   inkscape:version="0.91 r13725"
   sodipodi:docname="windows.svg">
  <defs
     id="defs5040" />
  <sodipodi:namedview
     id="base"
     pagecolor="#ffffff"
     bordercolor="#666666"
     borderopacity="1.0"
     inkscape:pageopacity="0.0"
     inkscape:pageshadow="2"
     inkscape:zoom="0.35"
     inkscape:cx="375"
     inkscape:cy="520"
     inkscape:document-units="px"
     inkscape:current-layer="layer1"
     showgrid="false"
     inkscape:window-width="1600"
     inkscape:window-height="847"
     inkscape:window-x="-8"
     inkscape:window-y="-8"
     inkscape:window-maximized="1" />
  <metadata
     id="metadata5043">
    <rdf:RDF>
      <cc:Work
         rdf:about="">
        <dc:format>image/svg+xml</dc:format>
        <dc:type
           rdf:resource="http://purl.org/dc/dcmitype/StillImage" />
        <dc:title></dc:title>
      </cc:Work>
    </rdf:RDF>
  </metadata>
  <g
     inkscape:label="Camada 1"
     inkscape:groupmode="layer"
     id="layer1">
    <g
       id="g5057"
       transform="matrix(0.65898227,0,0,0.6688968,109.11946,182.77993)">
      <path
         style="fill-opacity:1"
         d="m 490.24008,870.9402 c -55.06826,-4.70599 -100.73394,-19.36085 -158.25059,-50.78519 -10.38454,-5.67362 -10.93974,-6.1074 -10.34781,-8.08475 1.36431,-4.55743 99.79947,-288.07415 100.11246,-288.34776 0.18429,-0.16109 6.08209,2.83204 13.10624,6.65138 47.62145,25.89396 88.23105,40.21826 131.79716,46.48906 40.72545,5.86191 88.54752,4.22881 135.69889,-4.63406 34.1992,-6.42831 78.86646,-18.2826 107.56235,-28.54612 2.22944,-0.79737 4.07087,-1.20129 4.09227,-0.89758 0.0213,0.30371 -22.59133,65.85215 -50.25031,145.66321 l -50.28905,145.11102 -11.90186,3.92346 c -50.08944,16.51202 -92.92391,26.36413 -137.94266,31.72739 -10.38964,1.23769 -19.1595,1.6205 -41.4307,1.80831 -15.53822,0.131 -29.91859,0.0958 -31.95639,-0.0784 z M 256.81946,783.87874 c -33.69291,-19.21755 -73.83021,-35.71856 -105.80838,-43.49933 -61.910274,-15.0637 -131.3099,-11.94813 -213.292415,9.57535 -14.99745,3.93739 -42.799475,12.25199 -54.564995,16.31846 -3.77409,1.30442 -7.0229,2.2374 -7.21958,2.07329 -0.19668,-0.16411 22.16925,-65.89901 49.70207,-146.07755 27.532817,-80.17855 50.059668,-145.92629 50.059668,-146.1061 0,-0.17981 6.564955,-2.4945 14.5887883,-5.14376 C 43.039268,453.60091 94.321851,442.52264 138.57143,438.98558 c 18.17525,-1.45282 49.70035,-1.46019 65.91365,-0.0154 42.99377,3.83124 81.90857,14.89845 124.95365,35.53627 16.84182,8.07476 38.99718,20.26993 38.99335,21.46345 -0.006,2.06449 -101.68585,292.31228 -102.46257,292.48392 -0.44748,0.0989 -4.565,-1.95991 -9.15005,-4.57509 z M 620.84447,532.44655 c -47.4846,-3.01603 -81.40604,-10.85112 -123.90644,-28.6196 -25.62972,-10.71521 -58.6112,-27.98882 -57.86901,-30.30811 3.72231,-11.63198 100.21188,-289.74276 100.67193,-290.16556 0.35616,-0.32733 6.73425,2.70566 14.17353,6.73998 55.06162,29.85991 100.79278,44.24684 153.8249,48.39303 16.90679,1.32182 56.3493,0.51847 74.0057,-1.5073 45.51879,-5.22253 90.8237,-15.84237 145.00081,-33.98936 2.67461,-0.89587 4.85737,-1.3731 4.85051,-1.06049 -0.009,0.31262 -22.63022,65.8889 -50.27417,145.72507 l -50.26175,145.1567 -10.1651,3.70673 c -50.87048,18.55009 -104.83709,31.0453 -150.49535,34.84507 -10.49811,0.87368 -42.01264,1.56294 -49.55556,1.08384 z m -245.92529,-95.5013 c -34.17268,-18.97839 -70.44188,-34.25382 -99.57427,-41.93748 -11.84346,-3.12371 -29.53624,-6.51371 -43.5348,-8.34142 -17.68456,-2.30897 -60.92418,-2.51349 -80.12255,-0.37897 -42.10613,4.68144 -93.218754,16.63797 -144.0025208,33.68579 -7.62370244,2.55923 -14.0024857,4.53532 -14.175078,4.39131 -0.5757894,-0.48043 100.0363958,-290.63812 101.1150398,-291.6079 1.612112,-1.44939 42.387239,-14.19942 61.112829,-19.10944 48.18385,-12.63425 84.52254,-18.023355 126.34887,-18.737787 27.80985,-0.475018 40.70152,0.227601 61.33922,3.343095 44.08436,6.655032 81.052,19.897412 130.7701,46.843862 l 12.67038,6.86715 -1.26599,3.62641 c -0.69629,1.99452 -22.37003,64.49066 -48.16387,138.88031 -53.18138,153.37557 -51.29643,148.02857 -52.15285,147.94146 -0.35126,-0.0357 -5.01529,-2.49561 -10.36451,-5.46639 z"
         id="path5073"
         inkscape:connector-curvature="0" />
      <path
         style="fill-opacity:1"
         d="m 491.62948,870.94831 c -34.83349,-3.41473 -55.54816,-7.54019 -83.50322,-16.63011 -21.01744,-6.83407 -50.75947,-20.21938 -75.81561,-34.12058 -5.34922,-2.96776 -10.06916,-5.65414 -10.48876,-5.96973 -0.58656,-0.44116 98.79608,-289.35604 99.91596,-290.46527 0.14036,-0.13903 4.56499,2.09288 9.8325,4.95979 29.01669,15.79271 59.62024,29.22527 83.2855,36.55582 22.31944,6.91367 47.30899,11.78732 72.17968,14.07705 14.98569,1.37966 49.2386,1.18385 66.35463,-0.3793 47.50174,-4.3382 93.81552,-14.5339 149.71885,-32.95971 5.48788,-1.80881 10.18075,-3.11956 10.42853,-2.91278 0.24787,0.20677 -8.10776,25.03749 -18.56804,55.17936 -10.46023,30.14188 -33.08517,95.32162 -50.27763,144.84387 l -31.25901,90.04046 -3.48364,1.37022 c -5.73512,2.25581 -29.74119,9.75099 -45.56996,14.22787 -37.85501,10.70659 -68.15507,16.73038 -104.66876,20.80871 -10.57018,1.18057 -59.89935,2.17643 -68.08102,1.37433 z M 251.72497,780.90713 c -34.00882,-18.23085 -61.07775,-29.65274 -88.45901,-37.32577 -66.411746,-18.61053 -137.908424,-16.64659 -225.232641,6.18691 -15.92677,4.16452 -42.015429,12.00111 -54.879649,16.4849 -3.77409,1.31545 -7.00113,2.27561 -7.1712,2.1337 -0.17008,-0.1419 22.25795,-66.03408 49.840059,-146.42705 l 50.149291,-146.16904 13.061384,-4.26937 c 70.995009,-23.20612 127.712056,-33.63586 183.032346,-33.65795 58.17569,-0.0233 106.94278,11.72131 162.0882,39.03556 15.0332,7.44615 34.28152,18.13479 34.28152,19.03663 0,1.00516 -101.00775,290.59254 -101.76671,291.7633 -0.3833,0.59127 -5.55865,-1.76091 -14.94359,-6.79182 z M 616.63286,532.11078 c -56.15559,-3.25538 -108.00713,-19.09309 -166.05081,-50.71911 -9.16097,-4.9915 -11.76144,-6.77462 -11.39482,-7.81334 0.26126,-0.74022 22.85832,-66.20978 50.21567,-145.48789 27.35736,-79.27811 49.99193,-144.38577 50.29904,-144.68369 0.30713,-0.29792 5.685,2.23153 11.95084,5.62099 61.19964,33.10552 108.45663,47.22882 167.85976,50.16685 56.28763,2.78394 127.05902,-9.28696 201.80789,-34.42072 5.40387,-1.81702 9.91482,-3.07253 10.02431,-2.79001 0.10948,0.28251 -22.43265,65.84462 -50.09355,145.69356 l -50.29269,145.17988 -11.96661,4.25212 c -51.56157,18.32138 -101.64753,30.00685 -144.91519,33.80989 -16.71941,1.46957 -43.17935,2.01839 -57.44384,1.19147 z M 373.52977,436.16152 c -51.33879,-28.57161 -94.82506,-43.66603 -143.51531,-49.81524 -12.82061,-1.61915 -51.06198,-2.27486 -66.01464,-1.13192 -47.34824,3.61914 -98.495569,15.28795 -165.8418894,37.83536 -2.6746112,0.89545 -4.8629294,1.47959 -4.8629294,1.29807 0,-0.86135 100.1363868,-289.99643 100.7499868,-290.90681 0.750735,-1.11385 9.067772,-4.07052 28.464992,-10.11918 43.59953,-13.59571 85.17337,-22.51963 125.04676,-26.841581 18.45469,-2.000337 67.30828,-2.007856 83.36451,-0.01283 49.84341,6.193161 90.65283,20.124221 144.67794,49.388501 6.21212,3.36497 11.12083,6.53035 10.90826,7.03418 -0.21257,0.50383 -22.096,63.51928 -48.62985,140.03435 -26.53384,76.51507 -49.07096,141.46593 -50.08248,144.33525 -1.01151,2.86931 -2.13408,5.18789 -2.49461,5.15239 -0.36051,-0.0355 -5.65734,-2.84825 -11.77074,-6.25054 z"
         id="path5071"
         inkscape:connector-curvature="0" />
      <path
         style="fill-opacity:1"
         d="m 487.9244,870.59913 c -54.04691,-4.94968 -97.54524,-18.9687 -154.06346,-49.65281 -9.18365,-4.98586 -12.69379,-7.30192 -12.40699,-8.18637 1.65532,-5.10491 100.12803,-288.80203 100.31466,-289.00375 0.13189,-0.14255 3.29567,1.45647 7.0306,3.55338 24.58184,13.80096 53.43653,26.9448 76.57214,34.87997 26.53604,9.10149 50.79247,14.23123 81.20104,17.17237 12.905,1.24819 49.48925,1.2649 63.44965,0.029 48.4234,-4.2869 100.1121,-15.57926 154.49675,-33.75271 4.73483,-1.58222 8.79033,-2.72531 9.01217,-2.54019 0.45045,0.37578 -99.13063,287.92245 -100.27964,289.56406 -0.84442,1.20643 -5.85944,2.9752 -27.56779,9.72303 -46.45139,14.43896 -83.21214,22.33403 -126.53812,27.17642 -12.64725,1.4136 -59.64039,2.09821 -71.22101,1.03759 z M 256.94673,783.63984 c -58.43757,-32.6243 -108.17587,-48.36625 -164.49418,-52.06171 -57.205566,-3.75368 -128.948245,7.73206 -202.69194,32.45024 -7.45581,2.49911 -13.66366,4.45403 -13.79521,4.34427 -0.13155,-0.10977 22.34388,-65.9958 49.945405,-146.4134 47.653198,-138.83857 50.302994,-146.25029 52.53205,-146.93664 1.291112,-0.39754 9.850276,-3.14404 19.0203714,-6.10333 45.4343956,-14.66217 88.3626046,-24.1936 129.6781136,-28.79269 18.74869,-2.08703 53.62107,-2.8772 70.51845,-1.59787 54.95694,4.1609 101.02803,18.55753 156.64983,48.95109 7.76911,4.24529 14.12565,8.00288 14.12565,8.3502 0,0.82655 -100.75136,289.77582 -101.65844,291.55074 -0.60519,1.18418 -1.87103,0.70246 -9.8301,-3.7409 z M 618.99192,532.10526 c -57.91759,-2.93852 -108.95674,-18.48048 -170.66566,-51.96949 -5.22186,-2.83386 -9.49129,-5.24973 -9.48763,-5.36857 0.0654,-2.11977 101.08289,-291.54187 101.71651,-291.42484 0.49679,0.0918 5.73832,2.79732 11.64785,6.01237 32.61731,17.74528 63.29123,30.57406 91.65731,38.33391 43.8156,11.98626 90.74934,14.85818 143.25004,8.76561 38.72439,-4.49386 88.77171,-16.2473 134.12145,-31.49793 8.27819,-2.78387 10.36924,-3.24679 10.00976,-2.216 -0.24991,0.71663 -22.81937,65.99298 -50.15431,145.05855 -27.33494,79.06557 -50.1796,144.1758 -50.76574,144.6894 -2.86746,2.51246 -50.56109,17.91569 -73.31501,23.67798 -37.454,9.485 -67.90371,14.23243 -102.35308,15.95792 -16.56255,0.82958 -18.96301,0.8283 -35.66149,-0.0189 z M 376.30859,437.62843 c -14.4623,-8.25898 -40.91891,-21.23851 -55.45783,-27.20743 -33.1392,-13.60522 -61.03194,-20.76979 -95.08963,-24.42485 -20.51868,-2.20206 -57.75523,-1.84053 -79.16807,0.76865 -39.41562,4.80283 -85.799783,15.70085 -134.56762,31.61685 -13.8414719,4.51733 -18.6654516,5.79918 -18.3345871,4.87195 0.2469442,-0.69207 22.8116871,-65.94832 50.1438701,-145.01389 27.332183,-79.06557 50.022945,-144.25482 50.423928,-144.865 1.656351,-2.5205 53.884539,-18.15281 82.884699,-24.80805 41.9918,-9.636672 76.77654,-13.89344 113.40225,-13.877549 64.23798,0.02787 114.88219,13.778369 181.41771,49.257039 13.64802,7.27752 14.12897,7.62244 13.74856,9.85997 -0.27419,1.61279 -92.22825,267.63482 -99.31527,287.31794 -0.26785,0.7439 -0.77152,1.33286 -1.11928,1.30881 -0.34775,-0.024 -4.38369,-2.18605 -8.96873,-4.80444 z"
         id="path5069"
         inkscape:connector-curvature="0" />
      <path
         style="fill-opacity:1"
         d="m 493.01889,870.93355 c -37.2009,-2.53558 -75.21223,-11.64233 -110.68953,-26.51896 -25.49284,-10.68987 -61.5142,-29.44629 -60.74266,-31.62887 0.2448,-0.69254 22.8076,-65.77528 50.13953,-144.62831 27.33195,-78.85303 49.88265,-143.62657 50.11269,-143.94122 0.23003,-0.31464 4.0514,1.4663 8.49193,3.95765 33.06599,18.55161 68.86287,33.47573 99.64243,41.54204 75.53653,19.79567 162.55826,12.58752 269.00377,-22.28202 7.80027,-2.55523 14.34244,-4.51232 14.53807,-4.34909 0.19563,0.16324 -22.27863,65.49855 -49.9428,145.1896 l -50.2985,144.89281 -6.8481,2.39537 c -3.76647,1.31745 -12.47521,4.15691 -19.35279,6.30991 -40.92914,12.81273 -75.10334,20.60873 -114.22666,26.05799 -14.0506,1.95709 -28.16126,2.81483 -50.18666,3.05087 -13.75515,0.14738 -27.09347,0.1259 -29.64072,-0.0479 z M 255.89319,783.05666 C 190.33471,746.49415 134.02745,730.76065 68.735543,730.76065 c -51.369828,0 -113.005416,11.43934 -179.083963,33.23734 -7.44151,2.45481 -13.60783,4.40773 -13.70293,4.33984 -0.53808,-0.38416 100.026625,-291.61941 100.948979,-292.34812 1.718152,-1.35744 31.3260746,-10.68143 52.676123,-16.58851 33.362595,-9.2307 66.771365,-15.78649 98.508408,-19.33027 21.24439,-2.37216 63.83049,-2.59137 82.42369,-0.42427 50.76241,5.91652 91.89989,19.69944 145.25862,48.6682 12.00721,6.51879 12.76442,7.0748 12.20138,8.95925 -1.16055,3.88423 -100.54967,288.76366 -101.21266,290.10623 -0.58058,1.17569 -2.04411,0.59302 -10.86,-4.32368 z M 606.02411,531.29723 c -48.28734,-4.70865 -90.53873,-17.17418 -136.62516,-40.30887 -23.51969,-11.80654 -30.69924,-16.03133 -30.06717,-17.693 0.29925,-0.78674 22.80999,-65.86385 50.02386,-144.61581 27.21387,-78.75196 49.80003,-143.78097 50.19146,-144.50892 0.61004,-1.13451 2.43143,-0.38311 12.75322,5.26126 43.21043,23.62921 82.52002,38.1774 121.8048,45.07906 69.70355,12.24571 150.1844,2.68071 246.27246,-29.26902 5.28549,-1.75744 9.91584,-3.09388 10.28968,-2.96987 0.37384,0.124 -21.89087,65.43717 -49.47711,145.14037 l -50.15681,144.9149 -5.52021,2.22136 c -11.17224,4.4958 -35.57658,12.37545 -55.47379,17.91132 -31.38821,8.73292 -58.44875,14.14599 -88.98717,17.8006 -12.10618,1.44877 -63.51706,2.15909 -75.02806,1.03662 z M 374.16123,436.22926 C 307.75158,400.30542 261.73314,386.558 199.85372,384.1571 151.65749,382.28711 83.062215,394.8425 10.629687,418.79188 c -12.920702,4.27216 -17.2777108,5.42513 -16.9234951,4.4784 0.2623667,-0.70124 22.7798141,-65.7911 50.0387751,-144.64413 27.258961,-78.85303 49.930985,-144.06473 50.382274,-144.9149 0.828754,-1.56126 14.537529,-6.2816 40.821269,-14.05598 37.09991,-10.97365 75.39113,-18.888 109.82941,-22.700449 18.81763,-2.083185 54.52744,-2.869629 71.45508,-1.57367 41.19547,3.153871 76.25415,11.903119 114.86079,28.664669 21.47343,9.32296 54.97806,26.82545 54.97806,28.72 0,0.8255 -98.55392,285.22778 -99.8639,288.18255 -0.571,1.28794 -1.91588,0.7611 -12.04672,-4.71911 z"
         id="path5067"
         inkscape:connector-curvature="0" />
      <path
         style="fill-opacity:1"
         d="m 494.87144,870.97289 c -44.48771,-3.56537 -78.58953,-11.9186 -117.5935,-28.80444 -24.16687,-10.46246 -55.75603,-27.21073 -55.43581,-29.39151 0.16803,-1.14437 98.83097,-285.97814 99.81989,-288.17384 0.27713,-0.61531 5.16516,1.63223 13.66365,6.28261 43.37045,23.73233 82.73256,38.17359 122.2428,44.84871 68.61137,11.59165 144.62034,2.86409 239.18897,-27.46433 9.12677,-2.92698 16.69636,-5.23424 16.82132,-5.12725 0.18562,0.15898 -92.50075,267.85912 -98.72279,285.13465 l -1.85764,5.15775 -12.12832,3.98555 c -53.36255,17.53572 -95.13314,26.91944 -143.01206,32.12753 -10.4797,1.13992 -54.19996,2.12874 -62.98651,1.42457 z M 254.04845,781.94214 c -41.594,-22.68522 -75.70012,-36.02107 -112.08675,-43.82709 -57.735013,-12.38589 -122.299414,-9.10127 -198.796072,10.11347 -14.116003,3.54571 -48.002388,13.57472 -60.733248,17.97461 -3.66134,1.26539 -6.49272,1.89473 -6.29194,1.39856 0.20077,-0.49618 22.71699,-66.10618 50.036032,-145.79999 27.319044,-79.69381 49.853481,-145.14422 50.076527,-145.44535 0.753551,-1.01735 34.05428,-11.61722 52.240349,-16.62848 34.939972,-9.62788 67.819562,-16.06219 100.500542,-19.66726 12.90376,-1.42342 20.34538,-1.74585 41.21912,-1.78593 31.40685,-0.0603 47.77534,1.42433 72.71237,6.59506 36.00378,7.46545 68.99151,19.99171 108.83699,41.32811 7.38702,3.95559 14.1989,7.66735 15.13751,8.24834 1.62102,1.0034 -0.85446,8.39578 -49.37843,147.45618 -28.09675,80.51991 -51.16471,146.44552 -51.26213,146.50138 -0.0974,0.0559 -5.59232,-2.85187 -12.21087,-6.46161 z m 352.4388,-250.6432 C 552.92685,526.4057 506.6082,511.48286 450.24401,480.96083 l -11.28163,-6.10916 1.26501,-3.62824 c 0.69576,-1.99554 22.57985,-65.36199 48.63132,-140.81435 26.05148,-75.45236 48.20428,-139.51717 49.22845,-142.36625 l 1.86213,-5.18014 8.02806,4.37361 c 58.24884,31.73342 102.45133,46.25912 156.23162,51.34039 12.98575,1.22692 50.63012,1.22324 63.91279,-0.006 50.69247,-4.69224 100.40245,-15.67064 156.34837,-34.52937 3.46074,-1.16657 6.41666,-1.99111 6.56875,-1.8323 0.15209,0.15881 -22.31307,65.50044 -49.92265,145.20364 l -50.19914,144.9149 -4.53577,1.84491 c -2.49464,1.0147 -12.10619,4.38518 -21.35891,7.48996 -44.09696,14.79688 -83.52299,23.85689 -124.43338,28.59452 -12.62305,1.46182 -61.91979,2.15516 -74.10178,1.04222 z M 376.57154,437.46282 C 298.37966,393.83347 233.82266,378.6693 156.31892,385.72642 114.78564,389.50824 63.911767,401.08105 9.0878138,419.21863 1.2167503,421.82264 -5.4725843,423.86046 -5.7773649,423.74712 -6.0821548,423.63379 16.067053,358.85104 43.443095,279.78547 70.819137,200.7199 93.451609,135.27485 93.737466,134.35202 c 0.407337,-1.31499 3.074047,-2.51643 12.330454,-5.55527 49.14319,-16.13352 91.543,-26.05832 132.2261,-30.951019 19.1797,-2.30662 33.18078,-3.148982 52.33438,-3.148646 57.17382,0.001 107.79755,12.323265 162.24822,39.492655 15.36617,7.6673 33.19523,17.56503 33.19523,18.4282 0,0.78264 -100.01473,289.31055 -100.40091,289.64199 -0.1088,0.0934 -4.20353,-2.06532 -9.0994,-4.79711 z"
         id="path5065"
         inkscape:connector-curvature="0" />
      <path
         style="fill-opacity:1"
         d="m 495.79771,870.94576 c -56.02488,-3.67643 -104.01647,-18.57834 -162.32547,-50.40385 -6.74816,-3.6832 -12.11767,-7.04451 -11.93228,-7.46959 0.1854,-0.42509 22.79634,-65.54873 50.24653,-144.71921 27.45019,-79.17048 50.20384,-143.94744 50.56366,-143.9488 0.35981,-0.002 8.07103,3.92862 17.13603,8.73331 52.78037,27.97495 93.10636,40.86404 144.77053,46.27187 12.79213,1.33899 53.59385,1.33792 68.08101,-0.002 47.59625,-4.40148 97.17923,-15.32069 151.32964,-33.32596 5.2855,-1.75745 9.71725,-3.09389 9.84822,-2.96987 0.274,0.25929 -100.13593,289.61685 -100.64817,290.04426 -0.5219,0.43548 -15.99068,5.62088 -25.79448,8.64675 -48.55239,14.98534 -88.53186,23.50487 -130.14125,27.73275 -11.44566,1.16303 -50.99724,2.07526 -61.13397,1.41012 z M 254.96692,782.39477 c -50.55354,-27.70026 -91.61532,-42.24438 -136.85009,-48.47242 -65.593775,-9.03112 -142.620984,1.22718 -231.22727,30.7943 -5.2855,1.76372 -9.82807,3.02481 -10.0946,2.80241 -0.26653,-0.22239 21.99667,-65.87628 49.473779,-145.89753 l 49.95838,-145.49318 7.376101,-2.58008 c 23.8347546,-8.33714 62.872778,-19.07213 88.888061,-24.44318 99.744289,-20.59293 174.438989,-13.31015 255.188009,24.88101 9.06701,4.28834 37.84569,19.38578 40.09813,21.03567 0.53819,0.39422 -100.73299,292.96299 -101.55577,293.39094 -0.0767,0.0399 -5.14133,-2.66818 -11.25473,-6.01794 z M 612.04488,531.60054 c -11.15958,-0.69616 -32.5397,-3.69273 -45.93796,-6.43852 -38.05366,-7.79859 -71.32698,-20.39986 -113.56636,-43.00983 -7.7083,-4.12613 -13.44704,-7.69177 -13.22604,-8.21775 0.28774,-0.68482 90.02171,-260.33122 99.20328,-287.04598 l 1.38021,-4.01588 7.59057,4.20538 c 32.17886,17.82798 68.41673,33.25224 95.24924,40.54183 32.00741,8.69544 57.55888,11.95851 93.42755,11.93121 28.73216,-0.0219 47.06048,-1.64281 78.3191,-6.92649 32.86062,-5.55446 79.90858,-17.93487 115.04023,-30.2722 0.63681,-0.22363 1.15784,0.0219 1.15784,0.54554 0,1.24297 -99.0939,287.556 -100.00415,288.94317 -0.86838,1.32328 -21.1003,8.58303 -42.25614,15.16264 -42.5254,13.22569 -83.69872,21.4315 -122.19044,24.35248 -9.32545,0.70766 -44.23661,0.86513 -54.18693,0.2444 z M 377.69649,438.08408 c -29.24977,-16.34954 -64.46212,-32.00015 -89.22085,-39.65542 -43.94607,-13.58791 -91.39883,-17.5944 -140.95631,-11.9011 -40.45208,4.64725 -89.739559,16.31966 -140.2657206,33.21817 -6.84208614,2.28834 -12.6395039,3.99429 -12.8831413,3.791 C -5.9582567,423.26244 68.7592,206.03819 91.718729,140.51849 l 2.760431,-7.87748 12.16287,-3.99439 c 50.40254,-16.55265 96.24731,-26.95506 139.98844,-31.764102 21.19103,-2.32981 62.99044,-2.526701 81.51196,-0.383952 50.36847,5.827114 90.35927,19.059554 143.41684,47.454774 7.55629,4.04396 13.92073,7.74845 14.14321,8.2322 0.29256,0.63615 -94.51072,275.67011 -99.46424,288.55585 -0.65038,1.69185 -0.89979,1.61427 -8.54175,-2.65731 z"
         id="path5063"
         inkscape:connector-curvature="0" />
      <path
         style="fill-opacity:1"
         d="m 498.57653,870.97366 c -19.51916,-1.58996 -25.69344,-2.24668 -36.12462,-3.84198 -42.0897,-6.437 -82.46842,-21.10443 -130.06078,-47.24413 l -11.00128,-6.04236 50.15304,-144.70998 c 27.58417,-79.5905 50.44413,-144.71526 50.79991,-144.72169 0.35578,-0.006 6.14773,2.9789 12.87102,6.63406 51.35929,27.92188 93.66619,41.97484 144.41153,47.96877 17.94447,2.11956 61.00176,1.9232 81.51196,-0.37173 46.13453,-5.16209 94.93306,-16.33421 143.92873,-32.95158 4.52641,-1.53517 8.32135,-2.69322 8.43315,-2.57345 0.11189,0.11978 -22.03775,64.21221 -49.22133,142.42761 -27.18357,78.2154 -49.83864,143.46092 -50.34459,144.99004 -0.89937,2.71816 -1.21465,2.8762 -14.12169,7.07901 -53.9461,17.56601 -98.95552,27.55688 -143.80617,31.92109 -11.49593,1.11859 -49.6231,2.07217 -57.42888,1.43632 z M 264.22964,787.46487 c -4.09621,-2.551 -29.28947,-15.8143 -37.97716,-19.99353 -68.72005,-33.05796 -132.922889,-43.11333 -211.653217,-33.14886 -39.549945,5.00562 -87.944105,16.64055 -131.403553,31.59208 -3.24151,1.11519 -6.09759,1.85745 -6.34685,1.64947 -0.24926,-0.20798 22.0187,-65.87318 49.484362,-145.92266 l 49.937562,-145.54451 6.427996,-2.18532 c 37.575772,-12.77465 81.070563,-23.93773 114.801852,-29.46426 61.210918,-10.02879 115.669768,-8.26713 165.826198,5.3642 29.23564,7.94557 58.2081,20.0339 91.21436,38.05786 7.38702,4.03388 13.53411,7.41086 13.66021,7.5044 0.18899,0.1402 -99.35508,286.19965 -101.45812,291.55988 -0.60518,1.54246 -0.81776,1.5874 -2.51364,0.53125 z M 608.33979,531.24371 c -51.69638,-3.97591 -99.38006,-19.07457 -156.70929,-49.62075 -12.33356,-6.57157 -12.65169,-6.80912 -11.845,-8.8446 1.16399,-2.93702 100.01014,-289.14951 100.01014,-289.58287 0,-0.19489 5.31449,2.53145 11.80997,6.05852 54.2826,29.47565 94.07112,42.74823 146.58259,48.89671 16.23105,1.90046 58.3305,1.92356 75.95433,0.0417 47.3992,-5.06134 92.35592,-14.97777 141.20233,-31.14603 8.12582,-2.68963 14.96171,-4.73373 15.19096,-4.54242 0.42525,0.35478 -98.66634,287.42138 -99.86947,289.32018 -0.74519,1.17614 -18.13706,7.49572 -37.53524,13.63893 -45.65235,14.45768 -86.69776,22.77207 -127.82557,25.89309 -12.0294,0.91285 -44.46703,0.84884 -56.96575,-0.11242 z M 375.29699,436.75494 C 275.8926,381.33087 195.47558,371.00186 79.901459,398.81344 c -23.973066,5.76884 -43.606046,11.36949 -67.668052,19.30349 -9.6024798,3.16624 -17.6342608,5.61061 -17.8483872,5.43194 -0.3229911,-0.2695 99.6309942,-290.27921 100.2147502,-290.76629 1.076634,-0.89834 36.37054,-11.79863 53.3827,-16.48689 62.30508,-17.170208 117.93607,-24.12317 166.44699,-20.80314 54.54511,3.733002 101.81214,18.38995 157.58152,48.86416 12.33943,6.74267 14.12451,7.97332 13.68496,9.43459 -0.40389,1.34273 -99.11501,286.00017 -99.90785,288.10846 -0.12047,0.32037 -4.84146,-1.9948 -10.4911,-5.14482 z"
         id="path5061"
         inkscape:connector-curvature="0" />
      <path
         style="fill-opacity:1"
         d="m 499.03966,870.88888 c -57.04691,-2.7979 -109.26345,-18.9566 -169.1415,-52.3417 l -8.43327,-4.70199 50.11552,-144.29302 c 27.56353,-79.36117 50.39302,-144.5146 50.7322,-144.7854 0.33918,-0.2708 4.29899,1.57257 8.79959,4.09637 43.39847,24.33655 87.61994,40.65534 128.13516,47.28497 22.5088,3.68318 30.86418,4.28748 59.28143,4.28748 27.39431,0 33.86519,-0.42967 60.20769,-3.99786 37.51724,-5.08183 84.67662,-16.49738 125.43237,-30.36255 5.05189,-1.71865 9.25244,-3.03774 9.3346,-2.93131 0.14283,0.18487 -99.64563,287.46729 -100.53084,289.41978 -0.77308,1.70513 -42.10757,14.48785 -68.29549,21.12041 -53.31723,13.50358 -102.54093,19.31857 -145.63746,17.20482 z m -242.2202,-87.61656 c -32.57423,-18.2796 -65.32724,-32.2069 -95.25626,-40.50507 -29.03245,-8.04957 -51.2856,-11.18224 -83.748392,-11.78959 -39.020201,-0.73003 -69.8989047,2.57254 -114.16052,12.2098 -17.209978,3.74719 -55.670626,14.3737 -73.587788,20.33198 -7.10433,2.36252 -13.07388,4.16455 -13.26568,4.00451 -0.1918,-0.16004 22.13273,-65.79661 49.610064,-145.85903 l 49.958798,-145.56806 14.7149927,-4.87079 C 83.659392,440.58299 165.76845,431.14952 233.96068,443.32215 c 23.90244,4.2667 51.01363,12.21347 72.84569,21.35237 22.63365,9.47445 61.89301,29.94917 61.17382,31.90365 -1.64766,4.47771 -101.43487,290.8083 -101.43487,291.0584 0,0.86065 -2.07169,-0.0689 -9.72586,-4.36425 z M 609.7292,531.32539 c -30.93461,-2.58098 -62.90218,-9.33525 -90.31155,-19.0815 -21.27413,-7.56468 -50.23399,-20.84406 -71.65238,-32.85581 -7.47937,-4.19454 -8.15805,-4.78103 -7.69614,-6.65079 0.91747,-3.71369 99.55741,-288.51897 100.07604,-288.9517 0.27879,-0.23262 6.25391,2.70252 13.27806,6.52253 52.97673,28.81087 94.2236,42.25865 148.00693,48.25492 12.10674,1.34978 57.87107,1.34834 69.93355,-0.002 38.01838,-4.25659 55.48399,-7.28909 87.53273,-15.19805 21.64041,-5.34039 43.18671,-11.65205 67.03081,-19.63569 l 4.97065,-1.66429 -0.6332,2.14956 c -0.4824,1.63774 -97.04286,280.99107 -99.23442,287.08924 -0.28548,0.79446 -5.65804,3.13289 -13.93586,6.06566 -48.24574,17.09309 -95.45814,28.26966 -138.98423,32.90169 -13.03869,1.38758 -56.38561,2.05724 -68.38099,1.05644 z M 374.45604,436.12663 c -53.0304,-28.9531 -95.79958,-44.02816 -140.79338,-49.62613 -62.11537,-7.72817 -131.52852,2.14509 -221.379077,31.48875 -9.6795455,3.16117 -17.742829,5.64164 -17.9184039,5.51215 -0.1755657,-0.1295 22.3053869,-65.62531 49.9576889,-145.54626 l 50.276911,-145.31082 19.049601,-6.14297 c 74.6043,-24.05783 142.77668,-34.700057 198.84347,-31.040984 56.42388,3.682377 102.16757,17.805784 160.84276,49.660374 7.00493,3.80295 12.73624,7.0674 12.73624,7.25432 0,0.30146 -99.82314,288.28847 -100.3064,289.3812 -0.10677,0.24145 -5.19601,-2.29189 -11.30941,-5.62963 z"
         id="path5059"
         inkscape:connector-curvature="0" />
    </g>
  </g>
</svg>
