<?xml version="1.0" encoding="UTF-8" standalone="no"?>
<!-- Created with Inkscape (http://www.inkscape.org/) -->

<svg
   xmlns:dc="http://purl.org/dc/elements/1.1/"
   xmlns:cc="http://creativecommons.org/ns#"
   xmlns:rdf="http://www.w3.org/1999/02/22-rdf-syntax-ns#"
   xmlns:svg="http://www.w3.org/2000/svg"
   xmlns="http://www.w3.org/2000/svg"
   xmlns:sodipodi="http://sodipodi.sourceforge.net/DTD/sodipodi-0.dtd"
   xmlns:inkscape="http://www.inkscape.org/namespaces/inkscape"
   width="210mm"
   height="297mm"
   viewBox="0 0 744.09448819 1052.3622047"
   id="svg3370"
   version="1.1"
   inkscape:version="0.91 r13725"
   sodipodi:docname="wordpress.svg">
  <defs
     id="defs3372" />
  <sodipodi:namedview
     id="base"
     pagecolor="#ffffff"
     bordercolor="#666666"
     borderopacity="1.0"
     inkscape:pageopacity="0.0"
     inkscape:pageshadow="2"
     inkscape:zoom="0.35"
     inkscape:cx="375"
     inkscape:cy="520"
     inkscape:document-units="px"
     inkscape:current-layer="layer1"
     showgrid="false"
     inkscape:window-width="1600"
     inkscape:window-height="847"
     inkscape:window-x="-8"
     inkscape:window-y="-8"
     inkscape:window-maximized="1" />
  <metadata
     id="metadata3375">
    <rdf:RDF>
      <cc:Work
         rdf:about="">
        <dc:format>image/svg+xml</dc:format>
        <dc:type
           rdf:resource="http://purl.org/dc/dcmitype/StillImage" />
        <dc:title></dc:title>
      </cc:Work>
    </rdf:RDF>
  </metadata>
  <g
     inkscape:label="Camada 1"
     inkscape:groupmode="layer"
     id="layer1">
    <path
       style="fill:#000000"
       d="m 34.038898,733.1065 c 0.257878,-99.27402 1.223928,-139.38935 3.036489,-126.08948 5.856453,42.97232 26.200932,93.51128 52.545273,130.53091 16.97274,23.85041 55.06756,61.54295 79.50202,78.66238 40.2082,28.17102 98.29979,51.24814 147.06304,58.42146 21.03029,3.09367 5.42156,3.55164 -129.30377,3.79406 L 33.660715,878.70154 34.038898,733.1065 Z M 425.92326,874.51788 c 139.52069,-21.87774 250.55138,-125.14756 275.62027,-256.35483 3.9576,-20.71358 4.27819,-12.27867 4.52746,119.12322 l 0.2683,141.41527 -151.72639,-0.28567 C 419.8311,878.16203 405.45922,877.72678 425.92326,874.51788 Z M 322.16509,858.74961 C 296.33937,855.11277 254.32213,842.53936 229.81391,831.11403 146.63946,792.33948 85.48789,721.76811 61.479065,636.84884 54.973779,613.83964 53.804526,603.56585 53.644016,568.00591 53.43139,520.90561 56.91846,501.98671 73.308234,461.31759 111.0935,367.55819 200.19127,296.46824 307.08054,274.79367 c 32.86134,-6.6635 101.05296,-5.79906 134.24946,1.7018 85.38378,19.29278 156.44698,67.68459 201.98243,137.5437 28.62368,43.91367 42.06885,88.00169 43.55482,142.82071 1.24093,45.77815 -2.59483,69.3525 -17.68854,108.71295 -28.17376,73.46974 -89.53375,135.91322 -166.13783,169.07148 -54.90143,23.76421 -120.86844,32.55562 -180.87579,24.1053 z m 120.51068,-32.83456 c 20.33336,-5.2626 24.48638,-7.25063 22.88738,-10.95608 -1.07439,-2.48978 -15.40397,-39.00991 -31.84344,-81.15584 -49.92151,-127.98386 -57.08213,-145.24216 -59.30545,-142.9364 -1.17614,1.21976 -13.19997,32.31204 -26.71965,69.09394 -40.54436,110.30581 -51.07514,138.78292 -55.58607,150.31449 -5.12013,13.08897 -4.16566,13.98395 19.59266,18.37185 9.04379,1.67028 17.78861,3.55449 19.43293,4.18714 1.64433,0.63265 21.82469,0.78123 44.84524,0.33017 32.52612,-0.63729 47.39247,-2.2531 66.6964,-7.24927 z M 236.90852,780.75189 C 231.78174,767.957 225.6998,753.0997 223.39308,747.73567 c -2.30672,-5.36403 -15.11665,-37.96617 -28.46654,-72.44921 -13.34989,-34.48303 -30.72284,-78.9975 -38.60656,-98.92103 -7.88375,-19.92353 -21.50768,-54.72004 -30.27544,-77.32559 -8.76778,-22.60554 -16.89998,-41.101 -18.0716,-41.101 -2.80703,0 -13.678354,27.2973 -19.345142,48.57452 -6.786125,25.48001 -8.120743,76.48751 -2.705997,103.42033 13.066658,64.99331 46.419799,119.46382 98.494329,160.85543 21.70816,17.25481 59.20029,38.90643 60.9155,35.17857 0.49406,-1.07381 -3.29633,-12.42092 -8.42311,-25.2158 z m 310.22054,-3.06505 c 33.81974,-23.95229 68.74595,-65.07292 85.96856,-101.21578 30.32172,-63.63213 33.49375,-137.90546 8.63298,-202.14162 -6.09969,-15.7606 -18.05505,-38.71237 -20.14517,-38.67446 -0.24874,0.004 -0.53135,15.99211 -0.62822,35.52798 -0.20138,40.66095 6.58567,18.65052 -65.27434,211.67737 -22.37578,60.10477 -40.68326,110.71961 -40.68326,112.47743 0,3.68885 8.90949,-1.20573 32.12945,-17.65092 z m -214.44072,-137.23173 30.68005,-86.38174 -22.48045,-57.08989 -22.48043,-57.08986 -19.04899,-2.82006 c -17.41521,-2.57816 -19.12696,-3.44673 -19.95814,-10.12697 -0.5193,-4.17363 0.7627,-7.83292 2.98968,-8.53356 2.14437,-0.67465 24.75187,-0.52134 50.23891,0.34067 25.48705,0.86201 61.13901,0.73116 79.22659,-0.2908 35.4832,-2.00479 42.80422,0.0455 39.09163,10.94788 -1.8868,5.5408 -14.06263,8.92358 -32.36484,8.99184 -4.94209,0.0178 -8.22163,1.54961 -8.22163,3.83858 0,3.91522 100.7193,283.26451 102.84537,285.24614 1.45511,1.35623 5.19501,-9.29755 30.5518,-87.03223 18.88391,-57.89119 20.00095,-62.85405 20.07005,-89.16825 0.0851,-32.49456 -3.31934,-42.40158 -29.01666,-84.43384 -19.01567,-31.10334 -24.09101,-47.51799 -19.49223,-63.04158 4.66187,-15.73652 19.65688,-29.39666 36.69558,-33.42895 l 14.37772,-3.40255 -21.95929,-15.67306 C 516.91777,331.6683 473.3838,312.28241 438.58313,304.17142 c -38.56274,-8.98782 -99.53983,-8.88196 -137.34582,0.23846 -58.57659,14.13121 -117.48625,49.01066 -153.76287,91.04057 -9.97913,11.56177 -18.14395,21.88746 -18.14405,22.94597 -1.6e-4,2.03884 16.9709,2.10366 69.91476,0.267 28.42227,-0.98598 32.95917,-0.51803 35.82551,3.69515 5.14216,7.55839 -3.64002,13.3599 -23.05033,15.22709 -9.3232,0.89683 -16.93072,3.0158 -16.94787,4.72059 -0.0718,7.12897 102.85548,288.71251 104.80332,286.71621 1.17287,-1.20207 15.93853,-41.05739 32.81256,-88.56735 z M 34.038898,398.72555 33.660715,251.73726 191.36647,252.08974 c 106.20479,0.23739 150.87149,1.15205 136.77798,2.80089 -48.73878,5.70206 -106.00202,25.9777 -147.29365,52.15337 -44.0684,27.93592 -88.693813,76.21478 -112.356983,121.55559 -14.5753,27.92761 -27.444664,67.86944 -31.44981,97.6087 -1.769055,13.13573 -2.750412,-28.49548 -3.005109,-127.48274 z M 703.34961,526.56559 c 0,-13.44283 -12.9172,-59.05413 -23.1576,-81.77068 C 657.94697,395.44822 615.7615,345.73716 568.17348,312.79308 526.11008,283.6736 472.05789,262.9414 419.69377,255.84236 c -22.7369,-3.08245 -7.35685,-3.5305 130.43461,-3.79981 l 156.21091,-0.30529 0,142.1119 c 0,78.16155 -0.67268,142.11191 -1.49484,142.11191 -0.82216,0 -1.49484,-4.22796 -1.49484,-9.39548 z"
       id="path3389"
       inkscape:connector-curvature="0" />
  </g>
</svg>
