<?xml version="1.0" encoding="UTF-8" standalone="no"?>
<!-- Created with Inkscape (http://www.inkscape.org/) -->

<svg
   xmlns:dc="http://purl.org/dc/elements/1.1/"
   xmlns:cc="http://creativecommons.org/ns#"
   xmlns:rdf="http://www.w3.org/1999/02/22-rdf-syntax-ns#"
   xmlns:svg="http://www.w3.org/2000/svg"
   xmlns="http://www.w3.org/2000/svg"
   xmlns:sodipodi="http://sodipodi.sourceforge.net/DTD/sodipodi-0.dtd"
   xmlns:inkscape="http://www.inkscape.org/namespaces/inkscape"
   width="210mm"
   height="297mm"
   viewBox="0 0 744.09448819 1052.3622047"
   id="svg3437"
   version="1.1"
   inkscape:version="0.91 r13725"
   sodipodi:docname="wsf.svg">
  <defs
     id="defs3439" />
  <sodipodi:namedview
     id="base"
     pagecolor="#ffffff"
     bordercolor="#666666"
     borderopacity="1.0"
     inkscape:pageopacity="0.0"
     inkscape:pageshadow="2"
     inkscape:zoom="0.35"
     inkscape:cx="375"
     inkscape:cy="520"
     inkscape:document-units="px"
     inkscape:current-layer="layer1"
     showgrid="false"
     inkscape:window-width="1600"
     inkscape:window-height="847"
     inkscape:window-x="-8"
     inkscape:window-y="-8"
     inkscape:window-maximized="1" />
  <metadata
     id="metadata3442">
    <rdf:RDF>
      <cc:Work
         rdf:about="">
        <dc:format>image/svg+xml</dc:format>
        <dc:type
           rdf:resource="http://purl.org/dc/dcmitype/StillImage" />
        <dc:title></dc:title>
      </cc:Work>
    </rdf:RDF>
  </metadata>
  <g
     inkscape:label="Camada 1"
     inkscape:groupmode="layer"
     id="layer1">
    <path
       style="fill:#000000"
       d="m 126.21318,855.64833 c -7.42729,-4.94289 -8.18049,-11.25378 -9.37761,-78.57103 -0.74837,-42.08334 -3.09666,-75.16745 -5.5246,-77.83343 -2.3226,-2.55037 -11.972833,-5.15518 -21.444971,-5.78847 -14.270564,-0.95407 -18.849617,-3.35927 -26.718884,-14.03425 -9.338937,-12.66871 -9.496534,-14.6856 -9.481257,-121.32597 0.01331,-101.11655 0.56795,-109.26874 8.191852,-120.66353 8.05196,-12.03462 14.977538,-15.01736 39.63773,-17.07144 l 12.48134,-1.03964 2.08022,-116.01092 c 1.62418,-90.5773 3.33206,-117.38393 7.79023,-122.27383 5.15679,-5.65615 24.1854,-6.2629 196.41342,-6.2629 l 190.70347,0 75.05568,78.17483 75.05564,78.17484 0,39.04961 c 0,21.47728 1.13638,41.74836 2.52537,45.04685 1.71596,4.07513 7.81893,5.99724 19.04203,5.99724 12.70803,0 19.321,2.55561 28.67799,11.08266 l 12.1613,11.08265 0,113.74385 0,113.74386 -10.77092,11.66518 c -8.46444,9.16715 -14.07739,11.66523 -26.21081,11.66523 -8.49193,0 -17.68652,2.04737 -20.43242,4.54971 -3.52903,3.21602 -4.99254,25.44476 -4.99254,75.82874 0,66.22377 -0.59011,71.81677 -8.32089,78.86187 -8.13989,7.41793 -13.86813,7.58288 -263.39315,7.58288 -213.56644,0 -256.38639,-0.87458 -263.14822,-5.37459 z m 509.89959,-92.79711 c 0,-54.90658 -0.93936,-64.37729 -6.58096,-66.35013 -11.92061,-4.16871 -471.77462,-2.61485 -480.46476,1.62342 -7.45598,3.63642 -8.04737,8.51248 -8.04737,66.35015 l 0,62.42533 247.54655,0 247.54654,0 0,-64.04877 z M 215.04421,634.48459 c 2.54585,-7.81985 5.55033,-18.48326 6.67668,-23.69648 13.23478,-61.25758 16.67357,-72.14403 20.71693,-65.58499 4.16153,6.75081 7.64457,21.09169 15.09189,62.13881 2.11534,11.65901 5.77604,25.82414 8.13488,31.47812 3.9882,9.5594 5.76854,10.19957 25.39822,9.13335 17.58398,-0.95514 22.04014,-2.72964 26.68264,-10.62524 4.82788,-8.21088 19.68128,-58.49931 25.75665,-87.20304 1.10339,-5.21322 3.46262,-12.89088 5.2427,-17.06145 6.59424,-15.4499 16.84731,-59.62653 14.60596,-62.93149 -3.42028,-5.04327 -36.79694,-4.15714 -42.5998,1.13107 -2.7459,2.50235 -4.99254,8.77927 -4.99254,13.94869 0,5.16943 -1.82217,14.63856 -4.04924,21.04247 -2.22708,6.40392 -6.57138,24.4396 -9.65398,40.07928 -3.08262,15.63968 -7.34511,28.43578 -9.47223,28.43578 -2.12709,0 -5.1917,-7.67767 -6.81025,-17.06147 -1.61855,-9.38381 -4.71688,-25.59219 -6.88517,-36.01865 -2.16829,-10.42645 -5.34597,-25.78177 -7.06155,-34.12292 -3.81455,-18.54668 -7.09062,-20.72114 -31.32982,-20.79485 -18.51049,-0.0561 -19.23431,0.37799 -23.59958,14.15983 -5.9964,18.93146 -17.61436,73.13317 -17.69438,82.55037 -0.035,4.12293 -1.90725,10.05547 -4.16044,13.1834 -3.64156,5.05522 -4.55193,5.05522 -8.19349,0 -2.25319,-3.12793 -4.11298,-9.95252 -4.13281,-15.16575 -0.0486,-12.79218 -12.46114,-75.61337 -17.04255,-86.25518 -3.11498,-7.23542 -6.77717,-8.53073 -24.11894,-8.53073 -24.81404,0 -26.75813,3.2519 -18.29409,30.60081 3.50366,11.32096 7.25848,26.99233 8.34406,34.82525 1.08558,7.83293 3.64821,15.18471 5.69475,16.33733 2.04654,1.15266 3.72097,5.72489 3.72097,10.16048 0,7.91209 8.21509,42.07621 17.78235,73.95148 l 4.83647,16.1136 23.38846,0 23.38847,0 4.62878,-14.21788 z m 261.50627,8.62864 c 19.22196,-8.73872 31.06927,-22.62953 33.52383,-39.30633 4.54265,-30.86406 -7.20768,-45.66732 -51.36972,-64.71622 -31.49029,-13.58308 -36.60281,-19.0226 -28.17953,-29.98189 4.93625,-6.42242 10.55332,-8.27234 25.11775,-8.27234 10.31777,0 22.5819,1.8642 27.25361,4.14268 10.48928,5.1158 14.49682,1.61224 17.98924,-15.72707 2.41609,-11.99564 1.5139,-13.97887 -8.19292,-18.00932 -5.9994,-2.49106 -23.20234,-4.52922 -38.22881,-4.52922 -46.18445,0 -72.13837,19.46466 -72.13837,54.10165 0,22.94844 10.72413,34.27253 48.26134,50.96106 33.42293,14.8594 40.27325,23.57333 28.13812,35.79317 -6.28563,6.32954 -11.0808,7.27324 -28.45798,5.60055 -49.97142,-4.81015 -45.33232,-5.78379 -48.23201,10.12261 -2.16763,11.89089 -1.12229,15.35945 5.99912,19.90505 11.80413,7.53465 71.88319,7.47735 88.51633,-0.0846 z m 108.75076,-31.22621 1.19405,-34.91971 34.16975,-1.09894 34.16973,-1.0989 0,-15.16576 0,-15.16574 -33.28356,-1.89572 -33.28357,-1.89571 0,-18.95719 0,-18.95718 36.63506,-1.09852 36.63502,-1.09857 -1.27123,-15.96289 -1.27127,-15.96295 -58.24624,0 -58.24624,0 -1.12227,85.22151 c -0.61717,46.87184 -0.16807,87.48704 0.99768,90.25593 1.45343,3.45159 8.34649,4.6706 21.92449,3.87725 l 19.80455,-1.15718 1.19405,-34.91973 z m 48.73131,-226.68938 0,-34.12293 -70.72759,-1.89572 -70.72758,-1.89572 -2.08023,-73.93301 -2.08022,-73.933 -172.65851,0 -172.65851,0 -1.10685,105.69845 c -0.78716,75.16647 0.26927,107.20957 3.65736,110.92985 3.96943,4.35866 45.1056,5.0682 246.57321,4.25323 l 241.80892,-0.97822 0,-34.12293 z"
       id="path3456"
       inkscape:connector-curvature="0" />
  </g>
</svg>
