<?xml version="1.0" encoding="UTF-8" standalone="no"?>
<!-- Created with Inkscape (http://www.inkscape.org/) -->

<svg
   xmlns:dc="http://purl.org/dc/elements/1.1/"
   xmlns:cc="http://creativecommons.org/ns#"
   xmlns:rdf="http://www.w3.org/1999/02/22-rdf-syntax-ns#"
   xmlns:svg="http://www.w3.org/2000/svg"
   xmlns="http://www.w3.org/2000/svg"
   xmlns:sodipodi="http://sodipodi.sourceforge.net/DTD/sodipodi-0.dtd"
   xmlns:inkscape="http://www.inkscape.org/namespaces/inkscape"
   width="210mm"
   height="297mm"
   viewBox="0 0 744.09448819 1052.3622047"
   id="svg4012"
   version="1.1"
   inkscape:version="0.91 r13725"
   sodipodi:docname="xml.svg">
  <defs
     id="defs4014" />
  <sodipodi:namedview
     id="base"
     pagecolor="#ffffff"
     bordercolor="#666666"
     borderopacity="1.0"
     inkscape:pageopacity="0.0"
     inkscape:pageshadow="2"
     inkscape:zoom="0.35"
     inkscape:cx="375"
     inkscape:cy="520"
     inkscape:document-units="px"
     inkscape:current-layer="layer1"
     showgrid="false"
     inkscape:window-width="1600"
     inkscape:window-height="847"
     inkscape:window-x="-8"
     inkscape:window-y="-8"
     inkscape:window-maximized="1" />
  <metadata
     id="metadata4017">
    <rdf:RDF>
      <cc:Work
         rdf:about="">
        <dc:format>image/svg+xml</dc:format>
        <dc:type
           rdf:resource="http://purl.org/dc/dcmitype/StillImage" />
        <dc:title></dc:title>
      </cc:Work>
    </rdf:RDF>
  </metadata>
  <g
     inkscape:label="Camada 1"
     inkscape:groupmode="layer"
     id="layer1">
    <path
       style="fill:#000000"
       d="M 102.95958,841.72493 C 69.287687,827.97289 48.096588,808.48732 33.735557,778.0722 c -15.988866,-33.86262 -15.988866,-443.38381 0,-477.24643 14.361031,-30.41513 35.55213,-49.90069 69.224023,-63.65273 25.39478,-10.37156 49.36729,-11.36297 274.7462,-11.36297 225.37892,0 249.35142,0.99141 274.7462,11.36297 33.67189,13.75204 54.86299,33.2376 69.22402,63.65273 9.03733,19.14005 10.74083,57.65911 10.61263,239.96428 -0.13906,197.96401 -1.28812,219.34121 -12.99362,241.78476 -15.54058,29.79662 -37.5604,48.54884 -71.93125,61.25707 -21.62936,7.99723 -65.15811,9.50469 -271.17347,9.39124 -223.71079,-0.12311 -247.8682,-1.13988 -273.23071,-11.49819 z m 94.73862,-255.9128 17.08851,-27.49786 16.97494,27.49786 c 12.66171,20.51081 21.13267,27.49786 33.33763,27.49786 l 16.3627,0 -15.79462,-23.08156 c -8.68698,-12.69489 -20.20345,-29.24084 -25.5921,-36.7688 -10.24047,-14.30604 -9.34932,-16.37169 31.93478,-74.02272 9.26948,-12.94434 8.83328,-13.84894 -6.67805,-13.84894 -12.48819,0 -20.80954,6.82663 -33.62326,27.58354 l -17.02786,27.5836 -17.60484,-27.55853 c -10.33063,-16.17148 -22.63436,-27.56887 -29.77715,-27.58354 -16.97217,-0.0345 -15.35401,7.52432 9.15618,42.77404 l 21.32854,30.67384 -24.58793,37.12456 c -24.19981,36.5386 -24.33536,37.12451 -8.58693,37.12451 11.75974,0 20.53042,-7.2886 33.08946,-27.49786 z m 138.27398,-21.80081 3.47779,-46.10513 15.75673,40.00805 c 28.58022,72.56819 37.89799,72.94651 65.27279,2.65013 16.62322,-42.68709 19.06017,-46.02427 19.41775,-26.59075 0.22482,12.22237 2.39941,35.0731 4.83219,50.77944 3.57942,23.10934 7.06729,28.55693 18.28384,28.55693 13.32209,0 13.66414,-2.69051 8.80362,-69.24469 -2.7813,-38.08461 -6.49876,-71.32207 -8.26093,-73.86101 -1.76221,-2.539 -9.04606,-4.61632 -16.1864,-4.61632 -9.95296,0 -17.567,11.48687 -32.62861,49.22467 -10.80538,27.07361 -21.73286,49.23191 -24.28322,49.24068 -2.55042,0.01 -12.18187,-20.06499 -21.40322,-44.60836 -14.40354,-38.33613 -19.23679,-44.88608 -34.29895,-46.48157 -17.19719,-1.82166 -17.61882,-0.87914 -22.0276,49.24067 -7.24618,82.37655 -6.40711,92.31632 7.59412,89.9605 9.91362,-1.66808 12.81762,-10.60324 15.6501,-48.15324 z m 264.3128,40.06605 c 0,-6.83899 -8.11485,-9.23263 -31.30019,-9.23263 l -31.30021,0 0,-61.55084 c 0,-61.55084 0,-61.55084 -17.389,-61.55084 l -17.389,0 0,70.78347 0,70.78346 48.68921,0 c 38.64219,0 48.68919,-1.90512 48.68919,-9.23262 z"
       id="path4068"
       inkscape:connector-curvature="0" />
  </g>
</svg>
